<?xml version="1.0" encoding="utf-8"?>
<!-- Generator: Adobe Illustrator 21.1.0, SVG Export Plug-In . SVG Version: 6.00 Build 0)  -->
<svg version="1.1" id="Layer_1" xmlns="http://www.w3.org/2000/svg" xmlns:xlink="http://www.w3.org/1999/xlink" x="0px" y="0px"
	 width="136.5px" height="109.3px" viewBox="0 0 136.5 109.3" style="enable-background:new 0 0 136.5 109.3;" xml:space="preserve"
	>
<style type="text/css">
	.st0{fill:#CEAF5B;}
</style>
<g>
	<g>
		<polygon class="st0" points="136.2,109.3 0,54.6 136.2,0 136.5,0.9 2.7,54.6 136.5,108.3 		"/>
	</g>
	<g>
		<polygon class="st0" points="46.3,73.3 45.9,72.4 90.2,54.6 45.9,36.9 46.3,35.9 92.9,54.6 		"/>
	</g>
	<g>
		<path class="st0" d="M40.9,67c-0.2,0-0.4-0.1-0.5-0.3c-0.1-0.3,0-0.5,0.3-0.7l28.4-11.4L40.7,43.2c-0.3-0.1-0.4-0.4-0.3-0.6
			c0.1-0.3,0.4-0.4,0.6-0.3l29.6,11.9c0.2,0.1,0.3,0.3,0.3,0.5s-0.1,0.4-0.3,0.5L41.1,67C41.1,67,41,67,40.9,67z"/>
	</g>
</g>
</svg>
