<?xml version="1.0" encoding="utf-8"?>
<!-- Generator: Adobe Illustrator 21.1.0, SVG Export Plug-In . SVG Version: 6.00 Build 0)  -->
<svg version="1.1" id="Layer_1" xmlns="http://www.w3.org/2000/svg" xmlns:xlink="http://www.w3.org/1999/xlink" x="0px" y="0px"
	 width="136.5px" height="109.3px" viewBox="0 0 136.5 109.3" style="enable-background:new 0 0 136.5 109.3;" xml:space="preserve"
	>
<style type="text/css">
	.st0{fill:#CEAF5B;}
</style>
<g>
	<g>
		<polygon class="st0" points="0.4,109.3 0,108.3 133.8,54.6 0,0.9 0.4,0 136.5,54.6 		"/>
	</g>
	<g>
		<polygon class="st0" points="90.2,73.3 43.6,54.6 90.2,35.9 90.6,36.9 46.3,54.6 90.6,72.4 		"/>
	</g>
	<g>
		<path class="st0" d="M95.6,67c-0.1,0-0.1,0-0.2,0L65.8,55.1c-0.2-0.1-0.3-0.3-0.3-0.5s0.1-0.4,0.3-0.5l29.6-11.9
			c0.3-0.1,0.5,0,0.7,0.3c0.1,0.3,0,0.5-0.3,0.6L67.4,54.6L95.8,66c0.3,0.1,0.4,0.4,0.3,0.7C96,66.9,95.8,67,95.6,67z"/>
	</g>
</g>
</svg>
