<?xml version="1.0" encoding="utf-8"?>
<!-- Generator: Adobe Illustrator 21.1.0, SVG Export Plug-In . SVG Version: 6.00 Build 0)  -->
<svg version="1.1" id="Layer_1" xmlns="http://www.w3.org/2000/svg" xmlns:xlink="http://www.w3.org/1999/xlink" x="0px" y="0px"
	 width="64.3px" height="20px" viewBox="0 0 64.3 20" style="enable-background:new 0 0 64.3 20;" xml:space="preserve">
<style type="text/css">
	.st0{fill-rule:evenodd;clip-rule:evenodd;fill:#F2D383;}
</style>
<g>
	<path class="st0" d="M9.1,0c0.5,0.1,1,0.1,1.5,0.2c0.1,0,0.1,0,0.2,0c-0.1,1.1-0.2,2.1-0.3,3.2c-0.4-0.1-0.8-0.1-1.3-0.2
		c-0.2,0-0.4,0-0.7,0c-0.5,0.1-0.8,0.4-1,0.8C7.4,4.5,7.3,5.7,7.4,6.2c1.1,0,2.2,0,3.2,0c0,1.1,0,2.2,0,3.2c-1.1,0-2.2,0-3.3,0
		c0,3.4,0,6.8,0,10.2c-1.6,0-3.1,0-4.7,0c0-3.4,0-6.8,0-10.2c-0.9,0-1.8,0-2.7,0c0-1.1,0-2.2,0-3.2c0.9,0,1.9,0,2.9,0
		c0-0.6,0-1.2,0-1.8C2.9,3.6,3.1,2.7,3.6,2c0.6-1,1.5-1.5,2.6-1.8c0.5-0.1,1-0.2,1.4-0.2C8.1,0,8.6,0,9.1,0z"/>
	<path class="st0" d="M64.3,6.4c0,0.4-0.1,0.8-0.1,1.2c0,0.8-0.1,1.5-0.1,2.3c-0.4,0-0.9-0.1-1.3-0.1c-0.5,0-1,0-1.5,0.2
		c-1.1,0.4-1.6,1.2-1.9,2.2c-0.2,0.6-0.2,1.2-0.2,1.8c0,1.8,0,3.6,0,5.4c0,0.1,0,0.2,0,0.3c-1.6,0-3.1,0-4.6,0c0-4.5,0-8.9,0-13.4
		c1.4,0,2.8,0,4.2,0c0,0.8,0,1.6,0,2.4c0,0,0,0,0,0c0.1-0.1,0.1-0.2,0.2-0.4c0.5-1,1.2-1.8,2.3-2.1c0.7-0.3,1.4-0.3,2.2-0.2
		C63.7,6,64,6,64.3,6C64.3,6.2,64.3,6.3,64.3,6.4z"/>
	<path class="st0" d="M43.8,19.7c-1.6,0-3.1,0-4.6,0c0-6.4,0-12.9,0-19.3c1.5,0,3.1,0,4.6,0c0,3.8,0,7.7,0,11.5c0,0,0,0,0.1,0
		c0.1-0.2,0.2-0.3,0.4-0.5c1.1-1.6,2.3-3.3,3.4-4.9c0.1-0.1,0.2-0.2,0.4-0.2c1.5,0,3.1,0,4.6,0c0.1,0,0.1,0,0.3,0
		c-0.1,0.1-0.1,0.2-0.2,0.2c-1.5,1.9-2.9,3.9-4.4,5.8c-0.1,0.1-0.1,0.2,0,0.4c1.6,2.3,3.2,4.6,4.8,6.9c0,0,0.1,0.1,0.1,0.1
		c-0.1,0-0.1,0-0.2,0c-1.8,0-3.5,0-5.3,0c-0.2,0-0.2-0.1-0.3-0.2c-1.2-2.1-2.3-4.1-3.5-6.2c0-0.1-0.1-0.2-0.2-0.2
		C43.8,15.2,43.8,17.4,43.8,19.7z"/>
	<path class="st0" d="M36.7,10.1c-0.1-0.1-0.2-0.1-0.2-0.1c-1.1-0.6-2.2-0.8-3.4-0.5c-1.5,0.3-2.5,1.5-2.7,3c-0.1,0.9,0,1.8,0.6,2.6
		c0.8,1,1.8,1.5,3.1,1.6c1,0,2-0.2,3-0.6c0,0.4,0,0.7,0,1c0,0.7,0,1.5,0.1,2.2c0,0.1,0,0.2-0.2,0.3c-2.2,0.6-4.5,0.8-6.7,0.1
		c-2.3-0.7-3.9-2.2-4.5-4.5c-0.6-2.1-0.4-4.1,0.9-6c1-1.4,2.3-2.3,4-2.7c2-0.5,3.9-0.5,5.9,0.2c0.5,0.2,0.5,0.2,0.5,0.7
		C36.9,8.1,36.8,9.1,36.7,10.1z"/>
	<path class="st0" d="M17.2,19.7c-1.5,0-3.1,0-4.6,0c0-6.4,0-12.9,0-19.3c1.5,0,3.1,0,4.6,0C17.2,6.8,17.2,13.2,17.2,19.7z"/>
	<path class="st0" d="M19.5,6.2c1.5,0,3.1,0,4.6,0c0,4.5,0,8.9,0,13.4c-1.5,0-3.1,0-4.6,0C19.5,15.2,19.5,10.7,19.5,6.2z"/>
	<path class="st0" d="M24.1,4c-1.5,0-3.1,0-4.6,0c0-1.1,0-2.3,0-3.4c1.5,0,3.1,0,4.6,0C24.1,1.8,24.1,2.9,24.1,4z"/>
</g>
</svg>
