<?xml version="1.0" encoding="utf-8"?>
<!-- Generator: Adobe Illustrator 21.1.0, SVG Export Plug-In . SVG Version: 6.00 Build 0)  -->
<svg version="1.1" id="Layer_1" xmlns="http://www.w3.org/2000/svg" xmlns:xlink="http://www.w3.org/1999/xlink" x="0px" y="0px"
	 width="28px" height="28px" viewBox="0 0 28 28" style="enable-background:new 0 0 28 28;" xml:space="preserve">
<style type="text/css">
	.st0{fill:#F2D383;}
</style>
<g>
	<g>
		<path class="st0" d="M23,28H5c-2.8,0-5-2.2-5-5V5c0-2.8,2.2-5,5-5h18c2.8,0,5,2.2,5,5v18C28,25.8,25.8,28,23,28z M5,2
			C3.3,2,2,3.3,2,5v18c0,1.7,1.3,3,3,3h18c1.7,0,3-1.3,3-3V5c0-1.7-1.3-3-3-3H5z"/>
	</g>
	<g>
		<path class="st0" d="M14,20.2c-3.4,0-6.2-2.8-6.2-6.2s2.8-6.2,6.2-6.2s6.2,2.8,6.2,6.2S17.4,20.2,14,20.2z M14,9.8
			c-2.3,0-4.2,1.9-4.2,4.2c0,2.3,1.9,4.2,4.2,4.2c2.3,0,4.2-1.9,4.2-4.2C18.2,11.7,16.3,9.8,14,9.8z"/>
	</g>
	<g>
		<circle class="st0" cx="20.5" cy="7.2" r="2.3"/>
	</g>
</g>
</svg>
