<?xml version="1.0" encoding="utf-8"?>
<!-- Generator: Adobe Illustrator 21.1.0, SVG Export Plug-In . SVG Version: 6.00 Build 0)  -->
<svg version="1.1" id="Layer_1" xmlns="http://www.w3.org/2000/svg" xmlns:xlink="http://www.w3.org/1999/xlink" x="0px" y="0px"
	 width="36px" height="25.5px" viewBox="0 0 36 25.5" style="enable-background:new 0 0 36 25.5;" xml:space="preserve">
<style type="text/css">
	.st0{fill:#F2D383;}
</style>
<path class="st0" d="M20.7,17.6c-1.5,2.2-3.7,3.8-6.2,4.6c-1,0.3-2.1,0.5-3.2,0.5c-1.9,0-3.8-0.5-5.4-1.4c-5.5-3-7.5-9.9-4.5-15.3
	c1.5-2.6,3.8-4.6,6.7-5.4c1-0.3,2.1-0.5,3.2-0.5c1.9,0,3.8,0.5,5.4,1.4c2.6,1.5,4.6,3.8,5.4,6.7c0.8,2.7,0.5,5.5-0.7,8l14.5,8
	l-0.8,1.4L20.7,17.6z M11.3,1.6c-0.9,0-1.8,0.1-2.7,0.4C6.1,2.7,4,4.4,2.8,6.6C1.6,8.9,1.3,11.5,2,14c0.7,2.5,2.4,4.5,4.6,5.8
	c1.4,0.8,3,1.2,4.7,1.2c0.9,0,1.8-0.1,2.7-0.4c2.5-0.7,4.5-2.4,5.8-4.6c1.2-2.3,1.5-4.9,0.8-7.4C19.9,6.1,18.2,4,16,2.8
	C14.5,2,12.9,1.6,11.3,1.6z"/>
</svg>
