<?xml version="1.0" encoding="utf-8"?>
<!-- Generator: Adobe Illustrator 21.1.0, SVG Export Plug-In . SVG Version: 6.00 Build 0)  -->
<svg version="1.1" id="Layer_1" xmlns="http://www.w3.org/2000/svg" xmlns:xlink="http://www.w3.org/1999/xlink" x="0px" y="0px"
	 width="71.6px" height="30px" viewBox="0 0 71.6 30" style="enable-background:new 0 0 71.6 30;" xml:space="preserve">
<style type="text/css">
	.st0{fill-rule:evenodd;clip-rule:evenodd;fill:#F2D383;}
</style>
<g>
	<path class="st0" d="M50.2,0c5.1,0.2,10.2,0.4,15.3,0.6c2.6,0.1,4.3,1.5,5.1,4c0.7,2.2,0.8,4.5,0.8,6.8c0.1,4,0.2,8.1-0.4,12.1
		c-0.1,1-0.4,1.9-0.8,2.8c-0.9,2.2-2.8,3.1-5.1,3.2c-7,0.4-14.1,0.6-21.2,0.3c-2.7-0.1-5.4-0.2-8.1-0.3c-0.8,0-1.7-0.2-2.5-0.4
		c-1.7-0.4-2.8-1.5-3.5-3.1c-0.7-1.9-0.8-3.9-1-5.9c-0.3-4.4-0.3-8.9,0.3-13.3c0.1-1.1,0.5-2.2,0.9-3.3c0.9-2,2.6-2.9,4.7-3
		C40,0.4,45.1,0.2,50.2,0z M50.7,5.2c0,6.4,0,12.7,0,19c0.9,0,1.7,0,2.6,0c0-0.4,0-0.7,0-1.2c0.4,0.3,0.7,0.6,1,0.9
		c1.8,1.2,3.8,0.5,3.9-1.7c0.2-3.1,0.1-6.2,0.1-9.3c0-0.4-0.1-0.8-0.2-1.1c-0.5-2.1-2.3-2.7-4-1.3c-0.3,0.2-0.5,0.5-0.9,0.8
		c0-2.1,0-4.1,0-6.1C52.4,5.2,51.6,5.2,50.7,5.2z M45.8,10c0,0.3,0,0.5,0,0.8c0,3.1,0,6.1,0,9.2c0,0.7-0.2,1.3-0.8,1.6
		c-0.3,0.2-0.7,0.4-1,0.3c-0.2-0.1-0.4-0.6-0.4-0.9c0-3.4,0-6.8,0-10.3c0-0.2,0-0.5,0-0.7c-1,0-1.8,0-2.7,0c0,4,0,8,0,12
		c0,0.3,0.1,0.6,0.1,0.8c0.3,1.4,1.5,2,2.8,1.4c0.5-0.2,0.9-0.6,1.4-1c0.2-0.1,0.3-0.3,0.5-0.5c0,0.6,0,1,0,1.4c0.9,0,1.8,0,2.6,0
		c0-4.8,0-9.5,0-14.2C47.6,10,46.7,10,45.8,10z M67.9,17.6c0-1.4,0.1-2.6,0-3.9c-0.2-2.3-1.6-3.8-3.6-3.9c-2.2-0.1-3.9,1.1-4,3.5
		c-0.2,2.7-0.2,5.4,0.1,8c0.2,2.1,2,3.3,4.1,3.1c2.6-0.2,4.1-2.4,3.5-5.1c-0.9,0-1.7,0-2.6,0c0,0.6,0,1.1,0,1.6
		c-0.1,0.6-0.4,1.1-1.1,1.1c-0.6,0-1.1-0.3-1.2-0.9c-0.1-1.2-0.1-2.4-0.2-3.6C64.6,17.6,66.2,17.6,67.9,17.6z M38.3,7.8
		c1.1,0,2.1,0,3.1,0c0-0.9,0-1.8,0-2.6c-3,0-5.9,0-8.9,0c0,0.9,0,1.8,0,2.7c1,0,2,0,3,0c0,5.5,0,10.9,0,16.3c1,0,1.9,0,2.8,0
		C38.3,18.8,38.3,13.4,38.3,7.8z"/>
	<path class="st0" d="M19.1,9.9c0.9,0,1.8,0,2.7,0c0,0.3,0,0.5,0,0.8c0,3.5,0,6.9,0,10.4c0,0.3,0.2,0.9,0.4,0.9
		c0.3,0.1,0.7-0.1,1-0.3c0.5-0.4,0.8-0.9,0.8-1.6c0-3.4,0-6.7,0-10.1c0.9,0,1.8,0,2.7,0c0,4.8,0,9.5,0,14.3c-0.9,0-1.7,0-2.7,0
		c0-0.4,0-0.9,0-1.4c-0.3,0.3-0.5,0.5-0.7,0.7c-0.4,0.3-0.8,0.7-1.3,0.8c-1.3,0.5-2.4-0.1-2.7-1.4c-0.1-0.3-0.1-0.6-0.1-0.8
		C19.1,18.1,19.1,14,19.1,9.9z"/>
	<path class="st0" d="M10,5c-1.1,3.5-2.2,6.9-3.2,10.3c-0.2,0.8-0.4,1.7-0.4,2.5c-0.1,2.1,0,4.3,0,6.4c-1,0-1.8,0-2.8,0
		c0-0.2,0-0.3-0.1-0.5c0-0.6-0.1-1.2,0-1.8c0.4-4-0.6-7.9-1.9-11.6C1.1,8.6,0.6,6.9,0,5c1,0,1.8,0,2.7,0c0.2,0,0.4,0.3,0.4,0.5
		c0.5,1.9,1.1,3.9,1.6,5.8c0.1,0.2,0.1,0.5,0.4,0.7c0.4-1.5,0.8-2.9,1.2-4.4C6.5,7,6.7,6.3,6.8,5.5C6.9,5.1,7.1,5,7.5,5
		C8.3,5,9.1,5,10,5z"/>
	<path class="st0" d="M17,17.2c0,1.4,0.1,2.8,0,4.2c-0.2,1.9-1.8,3.2-3.7,3.2c-1.9,0-3.4-1.2-3.7-3.2c-0.1-0.8-0.1-1.7-0.1-2.5
		c0-2,0-4,0.2-6c0.2-2.1,1.6-3.2,3.7-3.2c2,0,3.5,1.1,3.7,3.2C17.1,14.3,17,15.8,17,17.2C17,17.2,17,17.2,17,17.2z M12.1,17.1
		c0,0.6,0,1.1,0,1.7c0,0.7,0,1.4,0,2.1c0,0.7,0.5,1.2,1.1,1.2c0.6,0,1.1-0.4,1.2-1.2c0-0.2,0-0.3,0-0.5c0-2.2,0-4.4,0-6.6
		c0-0.3,0-0.8-0.2-1c-0.2-0.3-0.6-0.6-0.9-0.6c-0.3,0-0.7,0.3-0.9,0.6c-0.2,0.2-0.2,0.6-0.2,1C12.1,14.9,12.1,16,12.1,17.1z"/>
	<path class="st0" d="M53.3,17.2c0-1.3,0-2.6,0-3.9c0-0.6,0.5-1.1,1.2-1.1c0.6,0,1,0.2,1.1,0.8c0,0.2,0.1,0.5,0.1,0.7
		c0,2.2,0,4.5,0,6.7c0,0.3,0,0.5-0.1,0.8c-0.1,0.6-0.4,1-1.1,0.9c-0.7,0-1.2-0.6-1.2-1.2C53.3,19.7,53.3,18.4,53.3,17.2z"/>
	<path class="st0" d="M65.3,15.4c-0.9,0-1.6,0-2.5,0c0.1-0.9,0.1-1.7,0.2-2.5c0.1-0.6,0.6-0.7,1.1-0.7c0.5,0,1,0.2,1.1,0.7
		C65.2,13.7,65.2,14.5,65.3,15.4z"/>
</g>
</svg>
