<?xml version="1.0" encoding="utf-8"?>
<!-- Generator: Adobe Illustrator 22.0.1, SVG Export Plug-In . SVG Version: 6.00 Build 0)  -->
<svg version="1.1" id="Layer_1" xmlns="http://www.w3.org/2000/svg" xmlns:xlink="http://www.w3.org/1999/xlink" x="0px" y="0px"
	 width="251.5px" height="80px" viewBox="0 0 251.5 80" style="enable-background:new 0 0 251.5 80;" xml:space="preserve">
<style type="text/css">
	.st0{fill:#212322;}
	.st1{fill:#3F3F3F;}
	.st2{fill:#FFFFFF;}
	.st3{fill:#666666;}
</style>
<g>
	<g>
		<g>
			<path class="st0" d="M42.5,80H0V0h62v60.5L42.5,80z M1,79h41l19-19V1H1V79z M39.6,73H7V7h48v50.6L39.6,73z M8,72h31.1L54,57.1V8
				H8V72z"/>
		</g>
	</g>
	<g>
		<g>
			<rect x="37.7" y="26.5" class="st1" width="36" height="27"/>
		</g>
	</g>
	<g>
		<path class="st2" d="M47.8,40.1h-1.4v5.4h-1V33.3h2.4c1.4,0,2.6,0.5,2.6,3.4C50.5,39.5,49.3,40.1,47.8,40.1z M47.8,34.2h-1.3v4.9
			h1.3c1,0,1.7-0.4,1.7-2.5C49.5,34.6,48.8,34.2,47.8,34.2z"/>
		<path class="st2" d="M57.6,44.7c-0.4,0.4-1,0.7-1.8,0.7h-2.5V33.3h2.5c0.8,0,1.4,0.3,1.8,0.7c0.7,0.8,0.8,1.6,0.8,5.4
			C58.4,43.1,58.3,43.9,57.6,44.7z M56.8,34.6c-0.2-0.3-0.6-0.4-1.1-0.4h-1.4v10.3h1.4c0.5,0,0.9-0.2,1.1-0.4
			c0.5-0.6,0.6-1.3,0.6-4.7C57.4,35.9,57.3,35.2,56.8,34.6z"/>
		<path class="st2" d="M62.3,34.2v4.7h2.8v0.9h-2.8v5.6h-1V33.3h4.2v0.9H62.3z"/>
	</g>
	<g>
		<g>
			<g>
				<rect x="81.5" y="26.5" class="st3" width="170" height="27"/>
			</g>
		</g>
		<g>
			<path class="st2" d="M105.6,45c-0.4,0.4-1,0.6-1.7,0.6c-0.8,0-1.4-0.3-1.8-0.7c-0.7-0.8-0.8-1.6-0.8-5.5c0-3.8,0.1-4.7,0.8-5.5
				c0.4-0.4,1-0.7,1.8-0.7c0.8,0,1.3,0.2,1.7,0.6c0.5,0.5,0.8,1.3,0.8,2.3h-1c0-0.6-0.1-1.2-0.5-1.6c-0.2-0.3-0.6-0.4-1-0.4
				c-0.5,0-0.8,0.2-1.1,0.4c-0.5,0.6-0.6,1.3-0.6,4.8s0.1,4.3,0.6,4.8c0.2,0.3,0.6,0.4,1.1,0.4c0.5,0,0.8-0.2,1-0.4
				c0.4-0.4,0.5-1,0.5-1.6h1C106.4,43.6,106.1,44.5,105.6,45z"/>
			<path class="st2" d="M113.3,44.8c-0.4,0.4-1,0.7-1.8,0.7c-0.8,0-1.4-0.3-1.8-0.7c-0.7-0.8-0.8-1.6-0.8-5.5c0-3.8,0.1-4.7,0.8-5.5
				c0.4-0.4,1-0.7,1.8-0.7c0.8,0,1.4,0.3,1.8,0.7c0.7,0.8,0.8,1.6,0.8,5.5C114.1,43.2,114,44,113.3,44.8z M112.5,34.5
				c-0.2-0.3-0.6-0.4-1.1-0.4c-0.5,0-0.8,0.2-1.1,0.4c-0.5,0.6-0.6,1.3-0.6,4.8s0.1,4.3,0.6,4.8c0.2,0.3,0.6,0.4,1.1,0.4
				c0.5,0,0.8-0.2,1.1-0.4c0.5-0.6,0.6-1.3,0.6-4.8S113,35.1,112.5,34.5z"/>
			<path class="st2" d="M120.4,45.4l-1.8-5.2l-1.7,5.2h-1.1l2.2-6.3l-2.1-5.8h1.1l1.5,4.8l1.6-4.8h1.1l-2.1,5.8l2.3,6.3H120.4z"/>
			<path class="st2" d="M126.2,40.1h-1.4v5.4h-1V33.3h2.4c1.4,0,2.6,0.5,2.6,3.4C128.8,39.5,127.6,40.1,126.2,40.1z M126.1,34.2
				h-1.3v4.9h1.3c1,0,1.7-0.4,1.7-2.5C127.8,34.6,127.1,34.2,126.1,34.2z"/>
			<path class="st2" d="M135.1,45.4l-0.7-3.3h-2.8l-0.6,3.3h-1.1l2.7-12.1h0.9l2.7,12.1H135.1z M133,35.1l-1.2,6.1h2.4L133,35.1z"/>
			<path class="st2" d="M142.2,45.4v-5.7h-3v5.7h-1V33.3h1v5.5h3v-5.5h1v12.1H142.2z"/>
			<path class="st2" d="M146.4,45.4V33.3h1v9.4l3.2-9.4h1v12.1h-1V36l-3.2,9.4H146.4z"/>
			<path class="st2" d="M157.1,34.2v11.2h-1V34.2h-2v-0.9h5v0.9H157.1z"/>
			<path class="st2" d="M163.9,45.4h-2.4V33.3h1v5.4h1.4c1.7,0,2.6,0.8,2.6,3.4C166.5,44.9,165.3,45.4,163.9,45.4z M163.9,39.6h-1.4
				v4.9h1.4c1.2,0,1.6-0.9,1.6-2.5S165.1,39.6,163.9,39.6z"/>
			<path class="st2" d="M177.5,45c-0.4,0.4-1,0.6-1.7,0.6c-0.8,0-1.4-0.3-1.8-0.7c-0.7-0.8-0.8-1.6-0.8-5.5c0-3.8,0.1-4.7,0.8-5.5
				c0.4-0.4,1-0.7,1.8-0.7c0.8,0,1.3,0.2,1.7,0.6c0.5,0.5,0.8,1.3,0.8,2.3h-1c0-0.6-0.1-1.2-0.5-1.6c-0.2-0.3-0.6-0.4-1-0.4
				c-0.5,0-0.8,0.2-1.1,0.4c-0.5,0.6-0.6,1.3-0.6,4.8s0.1,4.3,0.6,4.8c0.2,0.3,0.6,0.4,1.1,0.4c0.5,0,0.8-0.2,1-0.4
				c0.4-0.4,0.5-1,0.5-1.6h1C178.3,43.6,178.1,44.5,177.5,45z"/>
			<path class="st2" d="M183.2,34.2v11.2h-1V34.2h-2v-0.9h5v0.9H183.2z"/>
			<path class="st2" d="M190,40.1h-1.4v5.4h-1V33.3h2.4c1.4,0,2.6,0.5,2.6,3.4C192.6,39.5,191.4,40.1,190,40.1z M190,34.2h-1.3v4.9
				h1.3c1,0,1.7-0.4,1.7-2.5C191.6,34.6,190.9,34.2,190,34.2z"/>
			<path class="st2" d="M198.9,45.4l-0.7-3.3h-2.8l-0.6,3.3h-1.1l2.7-12.1h0.9l2.7,12.1H198.9z M196.8,35.1l-1.2,6.1h2.4L196.8,35.1
				z"/>
			<path class="st2" d="M206.1,45.4v-5.7h-3v5.7h-1V33.3h1v5.5h3v-5.5h1v12.1H206.1z"/>
			<path class="st2" d="M210.3,45.4V33.3h1v9.4l3.2-9.4h1v12.1h-1V36l-3.2,9.4H210.3z"/>
			<path class="st2" d="M223.6,47.8v-2.4h-4.9V33.3h1v11.2h3V33.3h1v11.2h0.9v3.3H223.6z"/>
			<path class="st2" d="M228.6,43.7c-0.5,1.5-1.2,1.7-2.5,1.7v-0.9c0.9,0,1.3-0.2,1.6-1.3l0.5-1.7l-2.5-8.2h1.1l1.9,6.8l1.9-6.8h1.1
				L228.6,43.7z"/>
		</g>
	</g>
</g>
</svg>
