<?xml version="1.0" encoding="utf-8"?>
<!-- Generator: Adobe Illustrator 22.0.1, SVG Export Plug-In . SVG Version: 6.00 Build 0)  -->
<svg version="1.1" id="Layer_1" xmlns="http://www.w3.org/2000/svg" xmlns:xlink="http://www.w3.org/1999/xlink" x="0px" y="0px"
	 width="233.5px" height="43px" viewBox="0 0 233.5 43" style="enable-background:new 0 0 233.5 43;" xml:space="preserve">
<style type="text/css">
	.st0{fill:#666666;}
	.st1{fill:#FFFFFF;}
	.st2{fill:none;stroke:#212322;stroke-miterlimit:10;}
	.st3{fill:#3F3F3F;}
</style>
<g>
	<g>
		<rect x="63.5" y="8" class="st0" width="170" height="27"/>
	</g>
	<g>
		<path class="st1" d="M87.6,26.5c-0.4,0.4-1,0.6-1.7,0.6c-0.8,0-1.4-0.3-1.8-0.7c-0.7-0.8-0.8-1.6-0.8-5.5c0-3.8,0.1-4.7,0.8-5.5
			c0.4-0.4,1-0.7,1.8-0.7c0.8,0,1.3,0.2,1.7,0.6c0.5,0.5,0.8,1.3,0.8,2.3h-1c0-0.6-0.1-1.2-0.5-1.6c-0.2-0.3-0.6-0.4-1-0.4
			c-0.5,0-0.8,0.2-1.1,0.4c-0.5,0.6-0.6,1.3-0.6,4.8s0.1,4.3,0.6,4.8c0.2,0.3,0.6,0.4,1.1,0.4c0.5,0,0.8-0.2,1-0.4
			c0.4-0.4,0.5-1,0.5-1.6h1C88.4,25.1,88.1,26,87.6,26.5z"/>
		<path class="st1" d="M95.3,26.3c-0.4,0.4-1,0.7-1.8,0.7c-0.8,0-1.4-0.3-1.8-0.7c-0.7-0.8-0.8-1.6-0.8-5.5c0-3.8,0.1-4.7,0.8-5.5
			c0.4-0.4,1-0.7,1.8-0.7c0.8,0,1.4,0.3,1.8,0.7c0.7,0.8,0.8,1.6,0.8,5.5C96.1,24.7,96,25.5,95.3,26.3z M94.5,16
			c-0.2-0.3-0.6-0.4-1.1-0.4c-0.5,0-0.8,0.2-1.1,0.4c-0.5,0.6-0.6,1.3-0.6,4.8s0.1,4.3,0.6,4.8c0.2,0.3,0.6,0.4,1.1,0.4
			c0.5,0,0.8-0.2,1.1-0.4c0.5-0.6,0.6-1.3,0.6-4.8S95,16.6,94.5,16z"/>
		<path class="st1" d="M102.4,26.9l-1.8-5.2l-1.7,5.2h-1.1l2.2-6.3L98,14.8h1.1l1.5,4.8l1.6-4.8h1.1l-2.1,5.8l2.3,6.3H102.4z"/>
		<path class="st1" d="M108.2,21.6h-1.4v5.4h-1V14.8h2.4c1.4,0,2.6,0.5,2.6,3.4C110.8,21,109.6,21.6,108.2,21.6z M108.1,15.7h-1.3
			v4.9h1.3c1,0,1.7-0.4,1.7-2.5C109.8,16.1,109.1,15.7,108.1,15.7z"/>
		<path class="st1" d="M117.1,26.9l-0.7-3.3h-2.8l-0.6,3.3h-1.1l2.7-12.1h0.9l2.7,12.1H117.1z M115,16.6l-1.2,6.1h2.4L115,16.6z"/>
		<path class="st1" d="M124.2,26.9v-5.7h-3v5.7h-1V14.8h1v5.5h3v-5.5h1v12.1H124.2z"/>
		<path class="st1" d="M128.4,26.9V14.8h1v9.4l3.2-9.4h1v12.1h-1v-9.4l-3.2,9.4H128.4z"/>
		<path class="st1" d="M139.1,15.7v11.2h-1V15.7h-2v-0.9h5v0.9H139.1z"/>
		<path class="st1" d="M145.9,26.9h-2.4V14.8h1v5.4h1.4c1.7,0,2.6,0.8,2.6,3.4C148.5,26.4,147.3,26.9,145.9,26.9z M145.9,21.1h-1.4
			V26h1.4c1.2,0,1.6-0.9,1.6-2.5S147.1,21.1,145.9,21.1z"/>
		<path class="st1" d="M159.5,26.5c-0.4,0.4-1,0.6-1.7,0.6c-0.8,0-1.4-0.3-1.8-0.7c-0.7-0.8-0.8-1.6-0.8-5.5c0-3.8,0.1-4.7,0.8-5.5
			c0.4-0.4,1-0.7,1.8-0.7c0.8,0,1.3,0.2,1.7,0.6c0.5,0.5,0.8,1.3,0.8,2.3h-1c0-0.6-0.1-1.2-0.5-1.6c-0.2-0.3-0.6-0.4-1-0.4
			c-0.5,0-0.8,0.2-1.1,0.4c-0.5,0.6-0.6,1.3-0.6,4.8s0.1,4.3,0.6,4.8c0.2,0.3,0.6,0.4,1.1,0.4c0.5,0,0.8-0.2,1-0.4
			c0.4-0.4,0.5-1,0.5-1.6h1C160.3,25.1,160.1,26,159.5,26.5z"/>
		<path class="st1" d="M165.2,15.7v11.2h-1V15.7h-2v-0.9h5v0.9H165.2z"/>
		<path class="st1" d="M172,21.6h-1.4v5.4h-1V14.8h2.4c1.4,0,2.6,0.5,2.6,3.4C174.6,21,173.4,21.6,172,21.6z M172,15.7h-1.3v4.9h1.3
			c1,0,1.7-0.4,1.7-2.5C173.6,16.1,172.9,15.7,172,15.7z"/>
		<path class="st1" d="M180.9,26.9l-0.7-3.3h-2.8l-0.6,3.3h-1.1l2.7-12.1h0.9l2.7,12.1H180.9z M178.8,16.6l-1.2,6.1h2.4L178.8,16.6z
			"/>
		<path class="st1" d="M188.1,26.9v-5.7h-3v5.7h-1V14.8h1v5.5h3v-5.5h1v12.1H188.1z"/>
		<path class="st1" d="M192.3,26.9V14.8h1v9.4l3.2-9.4h1v12.1h-1v-9.4l-3.2,9.4H192.3z"/>
		<path class="st1" d="M205.6,29.3v-2.4h-4.9V14.8h1V26h3V14.8h1V26h0.9v3.3H205.6z"/>
		<path class="st1" d="M210.6,25.2c-0.5,1.5-1.2,1.7-2.5,1.7V26c0.9,0,1.3-0.2,1.6-1.3l0.5-1.7l-2.5-8.2h1.1l1.9,6.8l1.9-6.8h1.1
			L210.6,25.2z"/>
	</g>
	<g>
		<path class="st2" d="M22.7,42.5H0.5v-42h32.4v31.8L22.7,42.5z M4.2,38.8h16.9l4.5-4.5l3.5-3.5V4.2h-25V38.8z"/>
	</g>
	<g>
		<g>
			<rect x="19.3" y="8" class="st3" width="36" height="27"/>
		</g>
	</g>
	<g>
		<path class="st1" d="M29.5,21.6h-1.4v5.4h-1V14.8h2.4c1.4,0,2.6,0.5,2.6,3.4C32.1,21,30.9,21.6,29.5,21.6z M29.4,15.7h-1.3v4.9
			h1.3c1,0,1.7-0.4,1.7-2.5C31.1,16.1,30.4,15.7,29.4,15.7z"/>
		<path class="st1" d="M39.2,26.2c-0.4,0.4-1,0.7-1.8,0.7h-2.5V14.8h2.5c0.8,0,1.4,0.3,1.8,0.7c0.7,0.8,0.8,1.6,0.8,5.4
			C40,24.6,39.9,25.4,39.2,26.2z M38.4,16.1c-0.2-0.3-0.6-0.4-1.1-0.4h-1.4V26h1.4c0.5,0,0.9-0.2,1.1-0.4C39,25,39,24.3,39,20.9
			C39,17.4,39,16.7,38.4,16.1z"/>
		<path class="st1" d="M44,15.7v4.7h2.8v0.9H44v5.6h-1V14.8h4.2v0.9H44z"/>
	</g>
</g>
</svg>
