<?xml version="1.0" encoding="utf-8"?>
<!-- Generator: Adobe Illustrator 22.0.0, SVG Export Plug-In . SVG Version: 6.00 Build 0)  -->
<svg version="1.1" id="Layer_1" xmlns="http://www.w3.org/2000/svg" xmlns:xlink="http://www.w3.org/1999/xlink" x="0px" y="0px"
	 width="189.3px" height="64px" viewBox="0 0 189.3 64" style="enable-background:new 0 0 189.3 64;" xml:space="preserve">
<style type="text/css">
	.st0{fill:#666666;}
	.st1{fill:#FFFFFF;}
	.st2{fill:#212322;}
	.st3{fill:#3F3F3F;}
</style>
<g>
	<g>
		<g>
			<rect x="63.7" y="18.8" class="st0" width="125.6" height="21.6"/>
		</g>
	</g>
	<g>
		<path class="st1" d="M75.4,34c-0.4,0.3-0.9,0.5-1.5,0.5c-0.7,0-1.2-0.2-1.6-0.6c-0.7-0.7-0.8-1.5-0.8-4.9c0-3.4,0.1-4.2,0.8-4.9
			c0.4-0.4,0.9-0.6,1.6-0.6c0.7,0,1.2,0.2,1.6,0.6c0.5,0.5,0.7,1.2,0.7,2h-0.9c0-0.5-0.1-1.1-0.4-1.4c-0.2-0.2-0.5-0.4-0.9-0.4
			c-0.4,0-0.7,0.2-1,0.4c-0.4,0.5-0.5,1.2-0.5,4.3c0,3.2,0.1,3.8,0.5,4.3c0.2,0.2,0.5,0.4,1,0.4c0.4,0,0.7-0.2,0.9-0.4
			c0.3-0.3,0.4-0.9,0.4-1.4h0.9C76.1,32.8,75.9,33.5,75.4,34z"/>
		<path class="st1" d="M82.3,33.9c-0.4,0.4-0.9,0.6-1.6,0.6c-0.7,0-1.2-0.2-1.6-0.6c-0.7-0.7-0.8-1.5-0.8-4.9c0-3.4,0.1-4.2,0.8-4.9
			c0.4-0.4,0.9-0.6,1.6-0.6c0.7,0,1.3,0.2,1.6,0.6c0.7,0.7,0.8,1.5,0.8,4.9C83,32.4,82.9,33.2,82.3,33.9z M81.6,24.7
			c-0.2-0.2-0.5-0.4-1-0.4c-0.4,0-0.7,0.2-1,0.4c-0.4,0.5-0.5,1.2-0.5,4.3c0,3.2,0.1,3.8,0.5,4.3c0.2,0.2,0.5,0.4,1,0.4
			c0.4,0,0.8-0.2,1-0.4c0.4-0.5,0.5-1.2,0.5-4.3C82.2,25.8,82.1,25.2,81.6,24.7z"/>
		<path class="st1" d="M88.6,34.4l-1.6-4.7l-1.6,4.7h-1l2-5.6l-1.8-5.2h1l1.4,4.3l1.4-4.3h1l-1.9,5.2l2.1,5.6H88.6z"/>
		<path class="st1" d="M93.8,29.6h-1.2v4.8h-0.9V23.6h2.1c1.3,0,2.3,0.5,2.3,3C96.2,29.1,95.1,29.6,93.8,29.6z M93.8,24.4h-1.2v4.4
			h1.2c0.9,0,1.5-0.4,1.5-2.2C95.3,24.8,94.7,24.4,93.8,24.4z"/>
		<path class="st1" d="M101.8,34.4l-0.6-3h-2.5l-0.6,3h-1l2.4-10.8h0.8l2.4,10.8H101.8z M99.9,25.2l-1.1,5.4h2.2L99.9,25.2z"/>
		<path class="st1" d="M108.2,34.4v-5.1h-2.7v5.1h-0.9V23.6h0.9v4.9h2.7v-4.9h0.9v10.8H108.2z"/>
		<path class="st1" d="M111.9,34.4V23.6h0.9V32l2.9-8.4h0.9v10.8h-0.9V26l-2.9,8.4H111.9z"/>
		<path class="st1" d="M121.4,24.4v10h-0.9v-10h-1.8v-0.8h4.5v0.8H121.4z"/>
		<path class="st1" d="M127.5,34.4h-2.1V23.6h0.9v4.8h1.2c1.5,0,2.3,0.7,2.3,3C129.9,33.9,128.8,34.4,127.5,34.4z M127.6,29.2h-1.3
			v4.4h1.3c1.1,0,1.4-0.8,1.4-2.2C129,30,128.6,29.2,127.6,29.2z"/>
		<path class="st1" d="M138.1,24.4v10h-0.9v-10h-1.8v-0.8h4.5v0.8H138.1z"/>
		<path class="st1" d="M145.2,34.4l-0.6-3h-2.5l-0.6,3h-1l2.4-10.8h0.8l2.4,10.8H145.2z M143.4,25.2l-1.1,5.4h2.2L143.4,25.2z"/>
		<path class="st1" d="M150.3,34.4h-2.2V23.6h4.1v0.8H149v4h1.3c1.5,0,2.3,0.7,2.3,3C152.6,33.9,151.6,34.4,150.3,34.4z M150.3,29.2
			H149v4.4h1.3c1.1,0,1.4-0.8,1.4-2.2C151.7,30,151.4,29.2,150.3,29.2z"/>
		<path class="st1" d="M158.5,34.4v-10h-2.2v4.9c0,4.7-1.1,5.1-2.3,5.1h-0.3v-0.8h0.1c0.8,0,1.6-0.2,1.6-4.5v-5.5h3.9v10.8H158.5z"
			/>
		<path class="st1" d="M162.2,34.4V23.6h0.9V32l2.9-8.4h0.9v10.8H166V26l-2.9,8.4H162.2z"/>
		<path class="st1" d="M174.1,36.5v-2.1h-4.4V23.6h0.9v10h2.7v-10h0.9v10h0.8v2.9H174.1z"/>
		<path class="st1" d="M178.6,32.8c-0.4,1.4-1,1.5-2.2,1.5v-0.8c0.8,0,1.2-0.2,1.4-1.1l0.5-1.6l-2.2-7.3h1l1.7,6.1l1.7-6.1h1
			L178.6,32.8z"/>
	</g>
	<g>
		<g>
			<path class="st2" d="M34,64H0V0h49.6v48.4L34,64z M0.8,63.2h32.8L48.8,48V0.8h-48V63.2z M31.6,58.4h-26V5.6H44V46L31.6,58.4z
				 M6.4,57.6h24.9l11.9-11.9V6.4H6.4V57.6z"/>
		</g>
	</g>
	<g>
		<g>
			<rect x="30.7" y="18.8" class="st3" width="28.8" height="21.6"/>
		</g>
	</g>
	<g>
		<path class="st1" d="M38.1,29.6h-1.2v4.8h-0.9V23.6h2.1c1.3,0,2.3,0.5,2.3,3C40.4,29.1,39.3,29.6,38.1,29.6z M38,24.4h-1.2v4.4H38
			c0.9,0,1.5-0.4,1.5-2.2C39.5,24.8,38.9,24.4,38,24.4z"/>
		<path class="st1" d="M46.8,33.8c-0.4,0.4-0.9,0.6-1.6,0.6h-2.2V23.6h2.2c0.7,0,1.2,0.2,1.6,0.6c0.7,0.7,0.8,1.4,0.8,4.8
			C47.5,32.4,47.4,33.1,46.8,33.8z M46.1,24.8c-0.2-0.2-0.5-0.4-1-0.4h-1.3v9.2h1.3c0.4,0,0.8-0.1,1-0.4c0.5-0.5,0.5-1.1,0.5-4.2
			C46.6,25.9,46.6,25.3,46.1,24.8z"/>
		<path class="st1" d="M51,24.4v4.2h2.5v0.8H51v5h-0.9V23.6h3.8v0.8H51z"/>
	</g>
</g>
</svg>
