<?xml version="1.0" encoding="utf-8"?>
<!-- Generator: Adobe Illustrator 21.1.0, SVG Export Plug-In . SVG Version: 6.00 Build 0)  -->
<svg version="1.1" id="Layer_1" xmlns="http://www.w3.org/2000/svg" xmlns:xlink="http://www.w3.org/1999/xlink" x="0px" y="0px"
	 width="352.7px" height="39.4px" viewBox="0 0 352.7 39.4" style="enable-background:new 0 0 352.7 39.4;" xml:space="preserve">
<style type="text/css">
	.st0{fill:#8D744A;}
</style>
<g>
	<g>
		<path class="st0" d="M225.8,23.8h5.2l-0.8,1.6c-0.4,0.9-1.3,0.9-1.3,0.9H213c-0.9,0-0.5-0.4-0.5-0.4l6.1-12.5v10.5h3.5h2.1v0v-3.2
			c0-0.4,0.3-0.7,0.7-0.7h0.2c0.4,0,0.7,0.3,0.7,0.7V23.8L225.8,23.8z M224.9,16.3h0.2c0.4,0,0.7-0.3,0.7-0.7v-1.4
			c0-0.4-0.3-0.7-0.7-0.7h-0.2c-0.4,0-0.7,0.3-0.7,0.7v1.4C224.2,16,224.5,16.3,224.9,16.3z M236.9,10.3H221c0,0-0.9,0-1.3,0.9
			l-0.7,1.4h11.4c0.6,0,1,0.5,1,1v2.6c0,0.6-0.5,1-1,1H222c-0.4,0-0.7,0.3-0.7,0.7v0.2c0,0.4,0.3,0.7,0.7,0.7h8.4c0.6,0,1,0.5,1,1
			v0.7v2.5l5.9-11.9C237.3,11.2,237.8,10.3,236.9,10.3z"/>
		<path class="st0" d="M148.9,18.4l-0.1-0.2l-0.2-0.2l-0.3-0.1l-0.3-0.1c-0.3,0-0.7,0-1-0.1c-0.3,0-0.6,0-0.9-0.1l-0.1-0.1l-0.1-0.1
			l-0.1-0.1l0-0.1c0-0.1,0-0.2,0-0.4l0.1-0.1l0.2-0.1c0.3,0,0.7,0,1,0c0.3,0,0.7,0,1-0.1l0.3-0.1l0.3-0.2c0.1-0.1,0.1-0.2,0.2-0.3
			c0,0,0.1-0.1,0.1-0.2v-3.3l-0.1-0.2l0-0.2l-0.1-0.1l-0.1-0.1l-0.2-0.1l-0.1-0.1l-0.2,0l-0.1-0.1c-1.2,0-2.5,0-3.7,0h-3.9l-0.1,0.1
			l-0.1,0c-0.1,0.1-0.2,0.2-0.3,0.2l-0.2,0.3c-0.1,0.1-0.1,0.3-0.1,0.3v9.6l0,0.2l0,0.1l0.1,0.2c0,0.1,0.1,0.1,0.2,0.3l0.2,0.2
			l0.2,0.1l0.3,0h2.5l0.2,0l0.3-0.2l0.1-0.1l0.1-0.1c0-0.1,0.1-0.2,0.1-0.4c0-0.6,0-1.2,0-1.7c0-0.6,0-1.1,0-1.7
			c0-0.1,0.1-0.3,0.1-0.4l0.1-0.1l0.1,0l0.1,0l0.1,0h0.1l0.3,0.1l0.1,0.1l0.1,0.2v1.6c0,0.6,0,1.1,0,1.6c0,0.2,0.1,0.3,0.1,0.3
			l0.1,0.2l0.1,0.1l0.1,0.1l0.1,0.1l0.1,0.1l0.2,0.1l0.2,0c0.4,0,0.8,0,1.2,0h1.1l0.1-0.1l0.2-0.1l0.1-0.1c0,0,0.1-0.1,0.2-0.2
			l0.1-0.2c0-0.7,0-1.3,0-2v-2L148.9,18.4z M144.7,16l-0.1,0.2l-0.2,0.1h-0.1h0l-0.2-0.1l-0.1-0.1c0,0-0.1-0.1-0.1-0.3v-1.9l0.1-0.2
			l0,0l0.1-0.1l0.1,0l0.1-0.1l0.1,0l0.1,0l0.1,0l0.1,0c0.1,0.1,0.1,0.2,0.2,0.4V16z"/>
		<path class="st0" d="M151.3,23.3l-0.2-0.1l-0.1-0.1l-0.1-0.1l-0.2-0.3l0-0.1l0-0.2v-10l0.1-0.2l0.1-0.2l0.1-0.1l0.2-0.1l0.2-0.1
			h3.6c1.2,0,2.4,0,3.6,0l0.2,0.1l0.2,0l0.1,0.1l0.1,0.1c0.1,0.1,0.1,0.2,0.2,0.3l0,0.2l0,0.1v1.1l-0.1,0.3l-0.2,0.3
			c-0.2,0.1-0.3,0.2-0.4,0.2l-0.2,0.1l-0.2,0h-1.4c-0.5,0-0.9,0-1.4,0l-0.2,0.1l-0.2,0.1l-0.2,0.2v0.7l0.3,0.2l0.3,0.1l0.3,0
			c0.9,0,1.9,0,2.9,0.1c0.2,0,0.3,0.1,0.3,0.1l0.1,0.1c0.1,0.1,0.2,0.2,0.2,0.2l0.1,0.1v0.8c0,0.2,0,0.5,0,0.8l-0.1,0.2l-0.1,0.2
			c-0.1,0.1-0.2,0.1-0.3,0.2l-0.1,0.1l-0.1,0c-1,0.1-2.1,0.1-3.1,0.1c-0.2,0.1-0.3,0.1-0.3,0.2l-0.1,0.3c0,0.2,0,0.3,0,0.4l0,0.2
			l0.3,0.3l0.1,0c1.5,0,2.3,0.1,2.6,0.1c0.3,0,0.5,0,0.7,0.1c0.2,0.1,0.3,0.2,0.3,0.2l0.1,0.2l0.1,0.2c0,0.1,0,0.2,0,0.3v1.3
			l-0.1,0.2l-0.2,0.3l-0.3,0.2l-0.1,0.1l-0.1,0H155H151.3z"/>
		<path class="st0" d="M161.9,23.3c-0.1,0-0.3-0.1-0.4-0.1l-0.1-0.2l-0.1-0.2l-0.1-0.1l0-0.2v-9.8l0.1-0.1l0.1-0.2l0.1-0.1l0.1-0.1
			c0.1-0.1,0.2-0.2,0.3-0.2l0.2-0.1l0.2-0.1h6.9c0.1,0,0.2,0,0.3,0.1l0.2,0.1l0.2,0.1l0.2,0.2c0,0.1,0.1,0.2,0.1,0.4v0.6
			c0,0.2,0,0.4,0,0.6l-0.1,0.3c-0.1,0.1-0.2,0.2-0.2,0.2l-0.1,0.1l-0.2,0.1l-0.2,0.1c-0.8,0-1.6,0.1-2.4,0.1c-0.1,0-0.3,0.1-0.4,0.1
			l-0.1,0.1l-0.1,0.1c0,0,0,0.1,0,0.2l0,0.3l0,0.3l0,0.1l0.1,0.1l0.1,0.1l0.1,0l0.1,0l0.2,0c0.4,0,0.7,0,1.1,0c0.4,0,0.8,0,1.1,0
			l0.1,0.1l0.2,0.1l0.1,0.1l0.1,0.1c0.1,0.1,0.2,0.2,0.2,0.3l0.1,0.1v0.5c0,0.2,0,0.3,0,0.5c0,0.1-0.1,0.3-0.1,0.4l-0.1,0.1
			l-0.1,0.1c-0.1,0.1-0.2,0.2-0.3,0.3l-0.1,0.1l-0.1,0c-0.2,0-0.4,0-0.6,0c-0.2,0-0.9,0-1.9,0.1c-0.1,0-0.2,0.1-0.3,0.1l-0.2,0.2
			l0,0.1l0,0.1c0,0.5,0,1,0,1.5c0,0.5,0,1,0,1.6l-0.1,0.3l-0.2,0.2c-0.2,0.1-0.3,0.2-0.3,0.2l-0.2,0.1l-0.2,0h-1.6H161.9z"/>
		<path class="st0" d="M181.2,17.2v-4.4c0-0.2-0.1-0.3-0.1-0.3l-0.1-0.2l-0.2-0.3l-0.2-0.2l-0.1-0.1l-0.1-0.1h-4c-1.3,0-2.5,0-3.8,0
			c-0.2,0-0.3,0-0.4,0.1c-0.1,0.1-0.2,0.1-0.4,0.2l-0.2,0.2l-0.1,0.2l-0.1,0.2v9.7l0.1,0.3l0.1,0.3L172,23l0.2,0.1l0.3,0.1l0.3,0
			c1.2,0,2.4,0,3.7,0h3.9l0.2-0.1l0.2-0.1c0.2-0.1,0.3-0.3,0.4-0.3l0.1-0.3l0.1-0.3l0-0.3l0-0.3C181.2,20.2,181.2,18.7,181.2,17.2z
			 M176.9,20.9l0,0.2l-0.2,0.1h-0.2h-0.1l-0.2-0.1c-0.1-0.1-0.1-0.2-0.1-0.3v-6.9l0-0.1l0.2-0.2h0.2l0.1,0l0.1,0.1l0.1,0l0.1,0.2
			V20.9z"/>
		<path class="st0" d="M192.2,18.4l-0.1-0.2l-0.2-0.2l-0.3-0.1l-0.3-0.1c-0.3,0-0.7,0-1-0.1c-0.3,0-0.6,0-1-0.1l-0.1-0.1l-0.1-0.1
			l-0.1-0.1l0-0.1c0-0.1,0-0.2,0-0.4l0.1-0.1l0.2-0.1c0.3,0,0.7,0,1,0c0.3,0,0.7,0,1-0.1l0.3-0.1l0.3-0.2c0.1-0.1,0.1-0.2,0.2-0.3
			c0,0,0.1-0.1,0.1-0.2v-1.6c-0.2-1.1,0.5-2.3-0.9-2.6l-0.1-0.1c-1.2,0-2.5,0-3.7,0h-3.9l-0.1,0.1l-0.1,0c-0.1,0.1-0.2,0.2-0.3,0.2
			l-0.2,0.3c0,0.1-0.1,0.3-0.1,0.3v9.6l0,0.2l0,0.1l0.1,0.2c0,0.1,0.1,0.1,0.2,0.3l0.2,0.2l0.2,0.1l0.3,0h2.5l0.2,0l0.1-0.1l0.1-0.1
			l0.1-0.1l0.1-0.1c0-0.1,0.1-0.2,0.1-0.4c0-0.6,0-1.2,0-1.7c0-0.6,0-1.1,0-1.7c0-0.1,0.1-0.3,0.1-0.4l0.1-0.1l0.1,0l0.1,0l0.1,0
			h0.1l0.3,0.1l0.1,0.1l0.1,0.2v1.6c0,0.6,0,1.1,0,1.6c0.1,0.2,0.1,0.3,0.1,0.3l0.1,0.2l0.1,0.1l0.1,0.1l0.1,0.1l0.1,0.1l0.3,0.1
			l0.2,0c0.4,0,0.8,0,1.2,0h1.1l0.1-0.1l0.2-0.1L192,23c0,0,0.1-0.1,0.2-0.2l0.1-0.2c0-0.7,0-1.3,0-2v-2L192.2,18.4z M188.1,16
			l-0.1,0.2l-0.2,0.1h-0.1h0l-0.2-0.1l-0.1-0.1c0,0-0.1-0.1-0.1-0.3v-1.9l0.1-0.2l0,0l0.1-0.1l0.1,0l0.1-0.1l0.1,0l0.1,0l0.1,0
			l0.1,0c0.1,0.1,0.1,0.2,0.2,0.4V16z"/>
		<path class="st0" d="M205.5,23.3l-0.2-0.1l-0.1-0.1L205,23l-0.2-0.2c-0.1-0.2-0.1-0.3-0.2-0.4l0-0.1v-0.1c0-1.4,0-2.7,0-4.1
			c0-1.4,0-2.7,0-4.1l-0.1-0.2l-0.1-0.1l-0.1-0.1c-0.1,0-0.3,0-0.3,0l-0.2,0.1l-0.1,0.2c0,2.8,0,5.7,0,8.6l0,0.1v0.1l-0.1,0.1
			l-0.1,0.1c-0.2,0.1-0.3,0.2-0.4,0.3c-0.5,0-1,0-1.4,0H200l-0.2,0l-0.2-0.1c-0.1,0-0.1-0.1-0.3-0.2l-0.1-0.1c0,0,0-0.1-0.1-0.3
			c0-1.4,0-2.8,0-4.2c0-1.4,0-2.8,0-4.2c0-0.2-0.1-0.3-0.1-0.4l-0.2-0.1c-0.1,0-0.3,0-0.3,0l-0.2,0.1l-0.1,0.3v4.3
			c0,1.4,0,2.9,0,4.3l-0.1,0.1l-0.1,0.1L198,23l-0.1,0.1l-0.2,0.1l-0.1,0.1c-0.5,0-0.9,0-1.4,0h-1.3l-0.1,0l-0.1-0.1l-0.1-0.1
			l-0.1-0.1l-0.2-0.2l-0.1-0.2l-0.1-0.2l-0.1-0.2V11.7h13.9c0.1,0,0.2,0.1,0.4,0.1c0.1,0.1,0.2,0.1,0.3,0.2l0.1,0.1l0.1,0.1l0.1,0.1
			l0.1,0.1v4.8c0,1.6,0,3.2,0,4.8l-0.1,0.2l0,0.2l-0.1,0.2l-0.2,0.2l-0.2,0.1l-0.2,0.1h-1.3H205.5z"/>
	</g>
	<g>
		<g>
			<g>
				<path class="st0" d="M257.9,25.6c-0.2,0-0.3-0.6-0.3-1.1c0-0.3,0-0.6,0.1-0.8c0-0.1,0-0.3,0-0.4c0-0.4,0.2-0.7,0.3-1.1l0.1-0.3
					c0.3-0.8,0.6-1.6,1-2.4l0.2-0.4c0.2-0.4,0.4-0.7,0.6-1l0.3-0.5c0.2-0.3,0.4-0.7,0.6-1c0.1-0.1,0.1-0.2,0.2-0.4
					c0-0.1,0.1-0.2,0.1-0.3c0-0.1,0.1-0.1,0.1-0.1c0.1-0.1,0.1-0.1,0.1-0.2c0,0-0.1-0.1-0.1-0.2c-0.1-0.1-0.2-0.3-0.1-0.4
					c0.1-0.2,0.3-0.2,0.4-0.2c0.3,0,0.4-0.1,0.6-0.2c0.2-0.2,0.4-0.4,0.6-0.7c0.1-0.1,0.2-0.3,0.3-0.4c0.2-0.2,0.4-0.5,0.6-0.7
					c0.2-0.2,0.3-0.4,0.5-0.6c0,0,0.1-0.1,0.1-0.1c0.1-0.1,0.3-0.3,0.3-0.5c0,0,0,0-0.1,0c-0.2,0-0.5,0.1-0.7,0.1
					c-0.1,0-0.2,0.1-0.3,0.1l-0.2,0c-0.9,0.1-1.8,0.2-2.6,0.5c-0.4,0.1-0.8,0.2-1.1,0.4c-0.1,0.1-0.3,0.1-0.4,0.2
					c-0.2,0.1-0.5,0.2-0.7,0.3c-0.1,0.1-0.2,0.1-0.2,0.2c-0.2,0.2-0.4,0.5-0.8,0.5c-0.5-0.1-1-0.5-1.1-0.9c-0.2-1.1,1.1-1.8,2-2
					c0.8-0.2,1.6-0.4,2.5-0.6l0.3-0.1c0.2-0.1,0.4-0.1,0.6-0.2c0.4-0.1,0.9-0.3,1.3-0.4c0.3-0.1,0.6-0.1,0.9-0.1
					c0.3,0,0.5,0,0.8-0.1c0.2,0,0.4-0.1,0.5-0.1c0.2,0,0.3,0,0.5-0.1c0.2,0,0.4-0.5,0.5-0.7c0-0.1,0-0.2,0.1-0.3
					c0-0.1,0-0.3,0.1-0.4c0.1-0.3,0.3-0.4,0.5-0.5c0.2-0.1,0.3-0.1,0.5-0.1c0.1,0,0.3,0,0.4,0.1c0.3,0.1,0.7,0.3,0.8,0.9
					c0,0.3,0,0.5-0.1,0.7c0,0.1-0.1,0.2-0.1,0.4c0,0.1,0.1,0.2,0.3,0.3c0.4,0.2,0.7,0.4,1,0.5c0.1,0.1,0.2,0.1,0.3,0.2
					c0.1,0.1,0.2,0.1,0.3,0.2c0.4,0.2,0.8,0.6,1.2,1c0.3,0.3,0.6,0.8,0.8,1.3c0.2,0.5,0.1,1.1-0.2,1.6c-0.5,0.9-1.2,1.6-2.1,1.9
					c-0.7,0.2-1.7,0.5-2.7,0.6c-0.2,0-0.4,0-0.7,0c-0.4,0-0.9,0-1.2-0.1c-0.2,0-0.4-0.1-0.6-0.1c-0.2,0-0.3,0-0.5,0.1
					c-0.5,0.3-0.8,0.8-1.1,1.4c-0.1,0.2-0.3,0.5-0.4,0.7l-0.3,0.5c-0.1,0.1-0.1,0.2-0.1,0.2c0,0.1-0.1,0.1-0.1,0.2
					c-0.2,0.3-0.4,0.5-0.5,0.8l-0.1,0.1c-0.3,0.5-0.7,0.9-1,1.4c-0.1,0.2-0.3,0.5-0.4,0.7c-0.2,0.2-0.3,0.5-0.5,0.7
					c-0.1,0.3-0.3,0.5-0.5,0.7c-0.1,0.1-0.3,0.3-0.4,0.4c-0.1,0.1-0.2,0.4-0.3,0.6C258.3,25.3,258.2,25.6,257.9,25.6L257.9,25.6z
					 M268.1,10.5c-0.1,0-0.2,0-0.3,0.1c-0.2,0.1-0.3,0.5-0.5,0.8c-0.1,0.2-0.2,0.4-0.3,0.6c-0.1,0.2-0.2,0.3-0.3,0.5
					c-0.1,0.2-0.3,0.5-0.4,0.7c-0.1,0.1-0.1,0.2-0.2,0.2s-0.1,0.2-0.2,0.2c0,0-0.1,0.2-0.1,0.2c0,0,0.1,0,0.1,0
					c0.9-0.2,1.8-0.5,2.7-0.9l0.4-0.1c0.6-0.2,1.8-0.7,1.9-1.3c0-0.1,0-0.1-0.1-0.2c-0.5-0.3-1.2-0.5-1.6-0.6c0,0-0.5-0.1-0.7-0.1
					C268.2,10.5,268.1,10.5,268.1,10.5z"/>
				<path class="st0" d="M272.2,12.5c-0.1-0.4-0.4-0.9-0.7-1.2c-0.3-0.3-0.8-0.7-1.2-1c-0.2-0.1-0.5-0.2-0.7-0.3
					c-0.3-0.2-0.6-0.3-0.9-0.5c-0.3-0.1-0.6-0.2-0.5-0.6c0-0.4,0.3-0.6,0.2-1c0-0.4-0.3-0.6-0.6-0.7c-0.2-0.1-0.4-0.1-0.6,0
					c-0.2,0.1-0.3,0.1-0.4,0.4c-0.1,0.3-0.1,0.5-0.1,0.8c-0.1,0.2-0.3,0.8-0.7,0.9c-0.4,0.1-0.6,0.1-1.1,0.2c-0.5,0.1-1.1,0-1.7,0.1
					c-0.6,0.1-1.3,0.4-1.9,0.5c-0.9,0.3-1.9,0.5-2.8,0.7c-0.8,0.2-2,0.8-1.9,1.8c0.1,0.3,0.5,0.7,0.8,0.7c0.4,0.1,0.7-0.5,1-0.7
					c0.3-0.3,0.7-0.3,1.1-0.5c0.4-0.2,0.7-0.3,1.1-0.4c0.9-0.3,1.9-0.4,2.9-0.5c0.2,0,1-0.3,1.2-0.1c0.2,0.2-0.4,0.7-0.5,0.8
					c-0.3,0.4-0.7,0.9-1,1.3c-0.3,0.4-0.5,0.8-0.8,1.1c-0.2,0.2-0.4,0.2-0.6,0.3c-0.1,0-0.3,0-0.3,0.1c0,0.1,0.3,0.4,0.3,0.6
					c0,0.2-0.1,0.3-0.2,0.5c-0.1,0.2-0.2,0.4-0.4,0.6c-0.3,0.4-0.6,0.9-0.8,1.3c-0.2,0.4-0.5,0.8-0.7,1.2c-0.4,0.9-0.9,1.9-1.2,2.9
					c-0.1,0.4-0.3,0.8-0.4,1.3c0,0.4-0.1,0.8-0.1,1.2c0,0.3,0.1,0.9,0.2,0.9c0.2,0,0.4-0.9,0.7-1.2c0.3-0.4,0.6-0.7,0.9-1.1
					c0.3-0.5,0.6-0.9,0.9-1.4c0.3-0.5,0.7-1,1.1-1.5c0.2-0.2,0.4-0.5,0.5-0.8c0.1-0.2,0.2-0.3,0.3-0.5c0.1-0.1,0.2-0.3,0.3-0.5
					c0.5-0.7,0.9-1.7,1.6-2.1c0.3-0.2,0.9-0.1,1.2,0c0.5,0.1,1.5,0.1,1.9,0.1c0.9,0,1.9-0.3,2.7-0.6c1-0.3,1.6-1.1,2-1.8
					C272.2,13.6,272.3,13,272.2,12.5z M269,12.9c-1,0.4-2,0.8-3.1,1c-0.2,0-0.3,0-0.5,0l-0.1,0c0.2-0.2,0.3-0.3,0.4-0.5
					c0.1-0.1,0.2-0.3,0.3-0.5c0.3-0.4,0.5-0.8,0.7-1.2c0.3-0.4,0.4-1.1,0.8-1.4c0.2-0.2,0.5-0.2,0.8-0.1c0.2,0.1,0.5,0.1,0.7,0.1
					c0.5,0.1,1.2,0.3,1.7,0.6c0.2,0.1,0.2,0.2,0.2,0.4C270.8,12.3,269.6,12.7,269,12.9z"/>
			</g>
		</g>
		<g>
			<path class="st0" d="M267.8,23.9c-0.1,0-0.3-0.1-0.3-0.4c0-0.4,0-0.8,0.1-1.1l0-0.2c0-0.2,0.1-0.4,0.2-0.5l0.1-0.1
				c0.2-0.4,0.4-0.8,0.6-1.2l0.1-0.3c0.3-0.6,0.8-1.2,1.2-1.8l0.3-0.5c0.1-0.1,0.2-0.3,0.3-0.5c0.2-0.3,0.4-0.7,0.7-0.9
				c0.5-0.6,1.1-1.3,1.2-2c0,0,0.1-0.5,0.2-0.7c0.1-0.2,0.3-0.2,0.3-0.2c0.2,0,0.4,0.1,0.6,0.3c0.3,0.4,0.4,0.9,0.5,1.3l0,0.2
				c0,0.2,0.1,0.5,0,0.8c-0.1,0.3-0.2,0.5-0.3,0.8l-0.1,0.1c-0.4,0.8-0.8,1.7-1.5,2.6c-0.2,0.3-0.4,0.5-0.6,0.7
				c-0.1,0.1-0.3,0.3-0.4,0.4c-0.1,0.2-0.3,0.4-0.6,0.6c-0.1,0.1-0.1,0.1-0.2,0.2c-0.1,0.1-0.2,0.2-0.4,0.3c-0.4,0.3-0.7,0.5-1,0.7
				c0,0-0.1,0.1-0.1,0.1c-0.1,0.1-0.1,0.1-0.2,0.2l-0.1,0.2c-0.1,0.1-0.2,0.3-0.3,0.4C268.2,23.8,268,23.9,267.8,23.9z"/>
			<path class="st0" d="M267.8,22.3c0.1-0.2,0.1-0.4,0.2-0.6c0.2-0.5,0.5-1,0.8-1.4c0.4-0.8,1-1.5,1.5-2.3c0.3-0.4,0.6-1,1-1.4
				c0.5-0.6,1.1-1.3,1.3-2.1c0-0.1,0.1-0.5,0.2-0.6c0.2-0.3,0.4,0,0.6,0.2c0.3,0.3,0.4,0.8,0.4,1.2c0,0.3,0.1,0.6,0,0.9
				c-0.1,0.3-0.2,0.6-0.3,0.9c-0.4,0.9-0.9,1.7-1.4,2.6c-0.3,0.4-0.6,0.7-0.9,1.1c-0.1,0.1-0.2,0.3-0.5,0.6
				c-0.2,0.2-0.4,0.3-0.6,0.5c-0.4,0.3-0.7,0.5-1,0.7c-0.2,0.2-0.3,0.2-0.4,0.4c-0.1,0.2-0.3,0.4-0.5,0.5c-0.2,0.2-0.5,0.5-0.5,0
				C267.6,23.1,267.8,22.6,267.8,22.3z"/>
		</g>
		<g>
			<path class="st0" d="M275.2,25.1c-0.3,0-0.6-0.1-0.9-0.3c-0.4-0.3-0.7-0.6-1-1c-0.2-0.3-0.4-0.7-0.6-1.2
				c-0.1-0.3-0.2-0.6-0.3-0.9c0-0.1-0.1-0.1-0.2-0.2c-0.1-0.1-0.3-0.3-0.3-0.4c0-0.2,0-0.3,0.1-0.3c0.1-0.2,0.4-0.2,0.6-0.2l0.1,0
				c0.6,0,1.2,0.3,1.7,0.6c0.1,0.1,0.2,0.1,0.3,0.2c0.1,0.1,0.2,0.1,0.3,0.2c0.2,0.1,0.4,0.2,0.6,0.3c0.1,0,0.1,0,0.2,0
				c0.6,0,1.3-0.4,1.4-1c0-0.5-0.2-0.8-0.6-1.1c-1.3-1.2-1.3-3.2-0.6-4.6c0-0.1,0.1-0.1,0.1-0.2c0.1-0.2,0.1-0.3,0.3-0.5
				c0.1-0.1,0.1-0.2,0.2-0.3c0.1-0.1,0.2-0.2,0.2-0.3c0.4-0.5,1-1,1.3-1.3c0,0,0.8-0.8,1.5-0.9c0.3-0.1,0.6-0.1,1-0.1
				c0.2,0,0.4,0,0.5,0c0.3,0,1,0.1,1.3,0.6c0.3,0.4,0.2,0.9,0,1.2l0,0c0,0-0.2,0.4-0.6,0.7c0,0-0.1,0.1-0.1,0.1
				c-0.1,0.1-0.2,0.2-0.5,0.4c-0.1,0.1-0.3,0.2-0.5,0.2l-0.6,0.1c-0.2,0-0.4,0.1-0.6,0.1c-0.4,0.1-1,0.4-1.3,0.7
				c-0.1,0.1-0.1,0.1-0.2,0.2c-0.1,0.1-0.1,0.2-0.2,0.2c-0.3,0.3-0.6,0.6-0.8,1.1c-0.2,0.4-0.2,0.8,0,1.2c0.2,0.3,0.4,0.5,0.6,0.8
				c0.1,0.2,0.3,0.3,0.4,0.5c0.3,0.4,0.4,1.2,0.4,1.6c-0.1,0.6-0.5,1.2-0.7,1.5c-0.2,0.2-0.3,0.4-0.5,0.6c-0.1,0.2-0.3,0.3-0.4,0.5
				l-0.1,0.2c-0.2,0.3-0.4,0.6-0.7,0.8C275.6,25.1,275.4,25.1,275.2,25.1z"/>
			<path class="st0" d="M274.7,21.6c0.3,0.2,0.6,0.4,1,0.5c0.7,0.1,1.7-0.4,1.8-1.2c0.1-0.6-0.3-0.9-0.7-1.3c-1.2-1.1-1.2-3-0.6-4.4
				c0.1-0.3,0.2-0.5,0.3-0.7c0.2-0.2,0.3-0.4,0.5-0.6c0.3-0.4,0.8-0.9,1.3-1.2c0,0,0.8-0.7,1.4-0.9c0.5-0.1,0.9-0.1,1.4-0.1
				c0.4,0,0.9,0.1,1.2,0.5c0.2,0.3,0.2,0.7,0,1c0,0-0.1,0.4-0.5,0.7c-0.1,0.1-0.2,0.3-0.6,0.4c-0.1,0-0.2,0.1-0.5,0.2
				c0,0-0.4,0.1-0.6,0.1c-0.2,0-0.4,0.1-0.6,0.1c-0.4,0.1-1.1,0.4-1.4,0.7c-0.1,0.1-0.3,0.3-0.4,0.4c-0.3,0.3-0.6,0.8-0.8,1.2
				c-0.2,0.4-0.2,0.9,0,1.4c0.3,0.5,0.7,0.9,1,1.3c0.2,0.3,0.4,1.1,0.3,1.5c0,0.5-0.4,1-0.6,1.4c-0.3,0.4-0.6,0.7-0.9,1.1
				c-0.2,0.3-0.4,0.7-0.8,0.9c-0.5,0.2-0.9,0.1-1.3-0.1c-0.4-0.2-0.6-0.5-0.9-1c-0.2-0.4-0.4-0.7-0.5-1.1c-0.1-0.3-0.2-0.6-0.3-0.9
				c-0.1-0.2-0.4-0.4-0.4-0.6c0-0.3,0.4-0.3,0.6-0.3C273.5,20.8,274.1,21.3,274.7,21.6z"/>
		</g>
		<g>
			<path class="st0" d="M274.9,12.2l-0.1-0.1c-0.2-0.2,0-0.9,0.1-1.3c0.2-0.5,0.4-1,0.6-1.4c0.1-0.2,0.3-0.4,0.4-0.6l0.3-0.4
				c0.2-0.3,0.3-0.6,0.4-0.9c0,0,0-0.1,0-0.1c0.1-0.3,0.2-0.9,0.6-0.9l0.1,0l0.1,0.1c0,0.2,0.1,0.4,0.2,0.5c0.1,0.2,0.2,0.5,0.2,0.7
				l0.1,0.3c0.1,0.3,0.1,0.6,0.1,1c0,0.1,0,0.3,0,0.4c0,0.4,0,0.7-0.2,1.1c-0.2,0.3-0.5,0.6-0.9,0.9c-0.3,0.2-0.8,0.3-1,0.3
				c0,0-0.1,0-0.1,0c-0.1,0-0.1,0-0.2,0c0,0-0.1,0-0.1,0c-0.1,0-0.2,0.1-0.3,0.1c-0.1,0-0.2,0.1-0.2,0.1l-0.1,0H274.9z"/>
			<path class="st0" d="M275.7,9.5c0.2-0.3,0.4-0.6,0.7-0.9c0.2-0.3,0.3-0.6,0.4-0.9c0.1-0.2,0.2-0.9,0.5-0.9
				c0.1,0.4,0.4,0.8,0.4,1.3c0.1,0.5,0.2,0.8,0.2,1.3c0,0.5,0.1,0.9-0.2,1.4c-0.2,0.3-0.5,0.6-0.9,0.8c-0.3,0.2-0.6,0.2-0.9,0.3
				c-0.1,0-0.3,0-0.4,0c-0.1,0-0.3,0.1-0.4,0.2c-0.3,0.1,0-1,0.1-1.1C275.3,10.4,275.5,9.9,275.7,9.5z"/>
		</g>
		<g>
			<path class="st0" d="M279.4,25.4l-0.1-0.1c-0.3-0.4,0.6-2.8,0.6-2.9c0.4-1,0.8-1.9,1.3-2.8c0,0,0-0.1,0.1-0.1
				c0-0.1,0.1-0.2,0.1-0.3c0,0.1-0.1,0.1-0.2,0.1c-0.1,0-0.2,0-0.3,0c-0.4,0-0.9-0.1-1.1-0.2c-0.5-0.1-1-0.2-1.4-0.7
				c-0.3-0.3-0.5-1-0.1-1.4c0.1-0.1,0.2-0.1,0.3-0.1c0.2,0,0.3,0.2,0.3,0.2c0,0,0,0.1,0.1,0.1c0.1,0.1,0.2,0.1,0.3,0.1
				c0.4,0,0.8-0.1,1.1-0.2l0.3-0.1c0.5-0.2,0.9-0.3,1.3-0.4c0.3-0.1,0.8-0.2,1.1-0.6c0.3-0.3,0.4-0.6,0.6-0.9
				c0.1-0.1,0.1-0.2,0.2-0.4c0.1-0.1,0.2-0.2,0.2-0.4c0.1-0.2,0.2-0.3,0.3-0.5c0.1-0.2,0.3-0.5,0.5-0.7c0.1-0.1,0.2-0.3,0.3-0.5
				c0.1-0.2,0.3-0.4,0.4-0.6c0.1-0.2,0.2-0.4,0.3-0.5c0.1-0.1,0.1-0.2,0.2-0.3c0.2-0.3,0.4-0.5,0.5-0.8c0-0.1,0-0.2,0-0.3
				c0-0.3,0.1-0.7,0.4-1c0.1-0.1,0.2-0.1,0.3-0.1c0.3,0,0.6,0.3,0.8,0.6c0.4,0.8,0.1,1.5-0.1,2.2l-0.1,0.3c-0.2,0.6-0.4,1.1-0.7,1.6
				c-0.1,0.1-0.1,0.2-0.2,0.4c-0.2,0.3-0.4,0.6-0.4,0.9c0.1,0,0.3-0.1,0.4-0.1c0.2-0.1,0.3-0.1,0.5-0.1c0.1,0,0.2,0,0.3-0.1
				c0.4-0.1,0.7-0.2,1.1-0.3c0.4-0.1,0.7-0.3,0.9-0.6l0.2-0.2c0.5-0.4,0.8-0.5,1.2-0.7c0.4-0.2,1-0.3,1.4-0.3l0-0.1l0.1-0.1
				c0.1-0.1,0.2-0.1,0.3-0.1c0.2,0,0.3,0.1,0.4,0.2c0.1,0.3,0.5,0.9,0.5,1.5c0,0.4,0,0.5,0,0.7c0,0,0,0.1,0,0.1
				c0,0.5-0.2,0.7-0.2,0.7c0,0.2-0.3,0.6-0.8,1.1c-0.6,0.6-1.5,0.8-2.3,1l-0.3,0.1c-0.4,0.1-0.8,0.1-1.1,0.3c-0.4,0.2-0.5,0.6-0.7,1
				l-0.2,0.4c-0.1,0.2-0.2,0.4-0.3,0.6c-0.2,0.4-0.5,0.8-0.6,1.3c-0.1,0.2,0,0.6,0.2,0.7c0.1,0,0.2,0,0.4,0c0.3,0,0.7-0.1,1-0.2
				c0.3-0.1,0.7-0.3,0.9-0.7l0.1-0.1c0.2-0.2,0.3-0.4,0.4-0.5c0.1-0.1,0.2-0.2,0.3-0.3l0.2-0.2c0.3-0.3,0.6-0.7,0.9-1.2
				c0.3-0.4,0.5-0.7,0.8-1.1c0.1-0.2,0.3-0.4,0.5-0.6c0.3-0.3,0.5-0.5,0.7-0.8l0.3-0.5c0.4-0.6,0.8-1.2,1.2-1.8
				c0.1-0.1,0.2-0.4,0.3-0.5c0.1-0.1,0.1-0.2,0.2-0.4c0-0.3,0.1-0.5,0.3-0.6l0,0l0.1,0c0.1,0,0.1,0,0.2,0.1c0.3,0.3,0.4,1.4,0.3,1.8
				c0,0.3-0.1,0.6-0.2,0.9c-0.1,0.2-0.1,0.4-0.2,0.6c0.1,0,0.1-0.1,0.2-0.1c0.1-0.1,0.1-0.1,0.2-0.1c0.1-0.1,0.2-0.1,0.3-0.2
				c0.2-0.1,0.3-0.2,0.5-0.3c0.1-0.1,0.2-0.1,0.3-0.2c0.2-0.1,0.3-0.2,0.5-0.2c0.5-0.4,1.2-0.7,1.8-1c0.2-0.1,0.4-0.2,0.5-0.3
				c0,0,0.1-0.1,0.1-0.1c0.1-0.1,0.1-0.2,0.3-0.3c0.2-0.1,0.4-0.1,0.5-0.1c0.3,0,0.5,0.1,0.7,0.3c0.4,0.4,0.5,1.2,0.4,1.8l0,0.2
				c-0.2,1-0.3,2-0.7,2.9c-0.2,0.5-0.4,1-0.6,1.4c-0.1,0.4-0.3,0.7-0.5,1c-0.1,0.2-0.2,0.4-0.3,0.6c-0.4,0.8-1,1.4-1.7,2
				c-0.2,0.2-0.4,0.3-0.6,0.5c-0.2,0.1-0.3,0.2-0.5,0.3c-0.2,0.1-0.3,0.2-0.4,0.2l-0.1,0l-0.1,0.1c-0.2,0.1-0.4,0.2-0.6,0.2l0,0
				c-0.2,0-0.4-0.1-0.5-0.3c-0.1-0.2-0.1-0.5,0-0.7c0-0.3,0.2-0.9,0.4-1.3c0.1-0.2,0.2-0.3,0.3-0.5c0.1-0.2,0.2-0.3,0.2-0.4l0.1-0.2
				c0.2-0.4,0.5-0.8,0.7-1.1l0.4-0.6c0.2-0.2,0.4-0.5,0.5-0.7c0.2-0.2,0.4-0.5,0.5-0.8c0.1-0.1,0.4-0.5,0.4-0.5
				c0.2-0.3,0.5-0.7,0.7-1c0.1-0.2,0.2-0.3,0.2-0.5c0.1-0.2,0.2-0.4,0.3-0.6c0.1-0.1,0.1-0.4,0-0.5c0,0-0.1-0.1-0.1-0.1
				c-0.1,0-0.2,0.1-0.3,0.1c-0.2,0.1-0.4,0.3-0.7,0.4l-0.3,0.2c-0.4,0.2-0.9,0.6-1.4,1c-0.4,0.3-0.9,0.8-1.3,1.2l-0.3,0.3
				c-0.2,0.2-0.3,0.3-0.5,0.5l-0.2,0.2c-0.2,0.2-0.5,0.5-0.7,0.7c-0.1,0.1-0.2,0.2-0.3,0.3c-0.1,0.1-0.2,0.2-0.3,0.3
				c-0.1,0.1-0.2,0.2-0.4,0.4l-0.1,0.1c-0.3,0.3-0.5,0.6-0.7,0.8l-0.2,0.2c-0.6,0.7-1.3,1.4-2,2c-0.1,0.1-0.2,0.2-0.3,0.3
				c-0.1,0.1-0.3,0.3-0.4,0.4c-0.2,0.1-0.3,0.2-0.5,0.2c-0.2,0-0.5-0.2-0.7-0.5c-0.1-0.1-0.1-0.2-0.1-0.3c0,0,0-0.1-0.1-0.1
				c0,0,0,0-0.1,0.1c-0.3,0.3-0.7,0.5-1.1,0.5c-0.3,0-0.6-0.1-0.9-0.3c-0.2-0.2-0.4-0.3-0.5-0.5c-0.3-0.5-0.5-1.1-0.6-1.5
				c-0.1-0.5-0.1-1,0-1.5l0-0.2c0-0.6,0.3-1.1,0.6-1.6c0.2-0.5,0.6-1.1,1-1.5c0,0,0.1-0.1,0.1-0.1c-0.1,0-0.1,0-0.2,0.1l-0.1,0.1
				c-0.2,0.1-0.4,0.2-0.7,0.4c-0.2,0.2-0.4,0.3-0.7,0.5c-0.3,0.2-0.6,0.4-1,0.7c-0.3,0.2-0.6,0.8-0.8,1.2c-0.1,0.1-0.1,0.2-0.2,0.3
				l-0.2,0.4c-0.2,0.3-0.3,0.6-0.5,0.9l-0.3,0.5c-0.5,0.7-0.9,1.4-1.5,2.1c-0.3,0.4-0.6,0.7-0.9,0.9c-0.1,0.1-0.3,0.2-0.4,0.3
				l-0.1,0.1c0,0-0.1,0.1-0.1,0.1c-0.2,0.2-0.3,0.3-0.5,0.3L279.4,25.4z M290.3,16.3c0.1,0,0.3,0,0.4-0.1c0.4-0.3,0.8-0.6,1.3-0.8
				l0.3-0.2c0.4-0.3,0.7-0.7,0.7-0.9c0-0.1,0-0.1,0-0.2c-0.1-0.1-0.3-0.1-0.4-0.1c-0.1,0-0.3,0-0.5,0.1c-0.1,0.1-0.6,0.4-0.9,0.7
				c-0.3,0.3-0.5,0.5-0.7,0.8c-0.1,0.1-0.2,0.3-0.3,0.4C290.1,16,290.1,16.2,290.3,16.3C290.2,16.3,290.2,16.3,290.3,16.3
				C290.2,16.3,290.2,16.3,290.3,16.3z"/>
			<path class="st0" d="M301.4,13.2c-0.2,0.1-0.2,0.2-0.4,0.4c-0.1,0.2-0.4,0.3-0.6,0.3c-0.6,0.3-1.2,0.6-1.8,1
				c-0.2,0.2-0.5,0.3-0.8,0.4c-0.3,0.2-0.6,0.4-0.8,0.5c-0.2,0.1-0.5,0.4-0.7,0.4c0-0.6,0.4-1.1,0.4-1.8c0-0.6-0.1-1.8-0.4-1.7
				c-0.1,0.1-0.1,0.3-0.2,0.5c0,0.2-0.1,0.4-0.2,0.5c-0.1,0.2-0.2,0.4-0.3,0.5c-0.5,0.8-1,1.5-1.6,2.3c-0.4,0.5-0.9,1-1.2,1.4
				c-0.3,0.3-0.5,0.7-0.8,1.1c-0.3,0.4-0.6,0.8-0.9,1.2c-0.2,0.2-0.3,0.3-0.4,0.5c-0.1,0.1-0.3,0.4-0.5,0.6c-0.3,0.3-0.6,0.6-1,0.7
				c-0.5,0.1-1,0.2-1.5,0.1c-0.4-0.1-0.4-0.6-0.4-0.9c0.1-0.5,0.4-0.9,0.6-1.3c0.1-0.2,0.2-0.5,0.3-0.7c0.2-0.5,0.4-1,0.9-1.3
				c0.4-0.3,0.9-0.3,1.4-0.4c0.8-0.2,1.6-0.4,2.2-1c0.3-0.3,0.7-0.7,0.8-1.1c0,0,0.1-0.2,0.2-0.6c0-0.2,0.1-0.2,0-0.8
				c0-0.4-0.3-1-0.5-1.4c-0.1-0.1-0.3-0.2-0.4-0.1c0,0,0.1,0.2-0.2,0.3c-0.5,0-1,0.1-1.4,0.3c-0.4,0.2-0.7,0.3-1.1,0.7
				c-0.4,0.3-0.7,0.6-1.1,0.8c-0.4,0.1-0.8,0.2-1.2,0.3c-0.3,0.1-0.5,0.1-0.8,0.2c-0.2,0.1-0.5,0.2-0.7,0.1c0-0.5,0.5-1.1,0.7-1.6
				c0.3-0.5,0.5-1,0.7-1.6c0.2-0.7,0.6-1.6,0.2-2.4c-0.1-0.3-0.5-0.6-0.8-0.4c-0.3,0.2-0.2,0.8-0.3,1.2c-0.1,0.5-0.5,0.8-0.7,1.2
				c-0.2,0.4-0.4,0.8-0.7,1.2c-0.3,0.4-0.6,0.8-0.8,1.2c-0.2,0.3-0.4,0.6-0.6,0.9c-0.3,0.5-0.5,0.9-0.9,1.3
				c-0.3,0.3-0.8,0.5-1.2,0.6c-0.6,0.1-1.1,0.3-1.6,0.5c-0.4,0.1-0.8,0.2-1.2,0.2c-0.2,0-0.3-0.1-0.5-0.2c-0.1-0.1-0.2-0.4-0.4-0.2
				c-0.3,0.3-0.1,0.9,0.1,1.1c0.4,0.4,0.8,0.5,1.3,0.6c0.3,0.1,0.9,0.2,1.3,0.1c0.2,0,0.4-0.1,0.4,0.1c0,0.2-0.2,0.4-0.2,0.5
				c-0.5,0.9-0.9,1.8-1.3,2.8c-0.1,0.3-0.9,2.7-0.6,2.7c0.1,0,0.3-0.3,0.4-0.4c0.2-0.1,0.3-0.3,0.5-0.4c0.3-0.3,0.6-0.6,0.9-0.9
				c0.7-0.8,1.2-1.6,1.8-2.5c0.3-0.4,0.5-0.9,0.8-1.3c0.2-0.4,0.6-1.2,1-1.6c0.7-0.5,1.2-0.8,1.7-1.2c0.4-0.3,0.6-0.3,0.9-0.5
				c0,0,0.6-0.2,0.7-0.2c0,0-0.2,0.3-0.4,0.5c-0.4,0.4-0.7,1-1,1.5c-0.3,0.5-0.5,1-0.5,1.6c0,0.6-0.1,1.2,0,1.7
				c0.1,0.5,0.2,1,0.5,1.5c0.1,0.2,0.3,0.3,0.4,0.4c0.6,0.4,1.2,0.3,1.7-0.2c0.4-0.4,0.4,0,0.6,0.4c0.2,0.4,0.5,0.5,0.9,0.2
				c0.3-0.2,0.5-0.5,0.8-0.7c0.7-0.6,1.4-1.3,2-2c0.3-0.3,0.6-0.7,0.9-1c0.2-0.2,0.3-0.3,0.5-0.5c0.2-0.2,0.4-0.5,0.6-0.7
				c0.2-0.2,0.5-0.5,0.7-0.7c0.2-0.2,0.5-0.5,0.7-0.7c0.5-0.5,1.1-1.1,1.6-1.5c0.4-0.4,1-0.7,1.4-1c0.3-0.2,0.7-0.5,1-0.6
				c0.2-0.1,0.5-0.2,0.7,0c0.2,0.2,0.2,0.6,0.1,0.8c-0.2,0.4-0.4,0.7-0.6,1.1c-0.2,0.4-0.5,0.8-0.8,1.2c-0.3,0.4-0.5,0.8-0.8,1.2
				c-0.2,0.3-0.6,0.8-0.8,1.1c-0.3,0.4-0.6,0.8-0.9,1.3c-0.1,0.2-0.3,0.4-0.4,0.6c-0.1,0.2-0.2,0.3-0.3,0.5
				c-0.2,0.3-0.3,0.8-0.4,1.2c0,0.2-0.1,0.4,0,0.6c0.2,0.4,0.7,0,1-0.1c0.2-0.1,0.3-0.1,0.5-0.3c0.4-0.3,0.7-0.5,1.1-0.8
				c0.7-0.5,1.2-1.1,1.6-1.9c0.3-0.5,0.6-1,0.9-1.5c0.2-0.5,0.4-0.9,0.6-1.4c0.4-1,0.5-2.1,0.7-3.1
				C302.8,14.2,302.5,12.7,301.4,13.2z M290,15.8c0.4-0.5,0.7-0.8,1.1-1.2c0,0,0.7-0.6,0.9-0.7c0.4-0.2,0.9-0.2,1.1,0.1
				c0.3,0.3-0.1,1-0.7,1.4c-0.6,0.4-1.1,0.7-1.6,1c-0.2,0.2-0.6,0.2-0.7,0.1C289.9,16.2,289.9,16,290,15.8z"/>
		</g>
		<g>
			<path class="st0" d="M302.5,26.6c-0.1,0-0.3,0-0.4-0.3c-0.2-0.4,0-1,0.1-1.4l0.1-0.2c0.1-0.6,0.4-1.2,0.7-1.9
				c0.7-1.3,1.3-2.5,2-3.5c0.3-0.4,0.5-0.7,0.7-1l0.3-0.4c0.1-0.2,0.3-0.4,0.4-0.6c0.2-0.2,0.4-0.4,0.5-0.7c0.3-0.5,0.7-0.9,1-1.4
				c0.3-0.4,0.6-0.8,0.9-1.3c0.1-0.1,0.1-0.2,0.2-0.3c0,0,0.1-0.1,0.1-0.1c-0.1,0-0.1,0-0.2,0l-0.1,0c-0.2,0-0.3,0-0.5,0
				c-0.3,0-0.5,0-0.8,0l-0.1,0c-0.5,0-0.9-0.1-1.1-0.3l-0.2-0.2l0.2-0.1c0.2-0.1,0.6-0.2,0.7-0.2c0.2,0,0.3-0.1,0.5-0.1l0.2,0
				c0.4-0.1,0.9-0.2,1.5-0.5l0.2-0.1c0.1-0.1,0.3-0.1,0.4-0.2c0.1,0,0.1-0.1,0.1-0.1c0-0.1,0.1-0.2,0.2-0.2c0.1,0,0.2-0.1,0.3-0.1
				c0.1,0,0.1,0,0.2,0c0,0,0.1,0,0.1,0c0.5-0.1,1-0.8,1.3-1.1c0.2-0.2,0.3-0.4,0.4-0.6l0.1-0.1c0.1-0.1,0.1-0.2,0.2-0.3l0.1-0.2
				l0.1-0.1c0.1-0.1,0.3-0.3,0.2-0.4c0,0,0,0,0,0c0,0-0.1,0-0.4-0.1c-0.2,0-0.4,0-0.7,0c-0.3,0-0.5,0-0.8,0l-0.3,0
				c-0.4,0-0.8,0-1.3-0.1l-0.2,0l-0.1,0c-0.2,0-0.4,0-0.6,0.1c-0.2,0-0.4,0.1-0.7,0.1l-0.4,0c-1.1,0-2.2,0.1-3.5,0.3l-0.3,0
				c-0.4,0-0.9,0.1-1.2,0.2l-0.1,0c-0.5,0.2-0.7,0.3-0.7,0.7c0,0,0,0.1,0.1,0.2c0.1,0.2,0.2,0.3,0.1,0.5c-0.1,0.3-0.5,0.4-0.8,0.4
				l-0.1,0c-0.2,0.1-0.4,0.1-0.5,0.1c-0.1,0-0.2,0-0.3,0c-0.2,0-0.3,0-0.4,0c-0.1,0-0.2,0-0.3,0c-0.4-0.1-0.7-0.6-0.9-0.9
				c-0.1-0.3-0.1-0.7,0-0.9c0.1-0.2,0.3-0.5,0.5-0.7c0.4-0.4,1-0.5,1.5-0.6c0.5-0.1,0.9-0.2,1.3-0.3c0.3-0.1,0.6-0.2,0.9-0.3
				c0.7-0.3,1.5-0.5,2.3-0.6c1.2-0.1,2.2-0.2,3.2-0.2c0.2,0,0.8,0,1,0c0.4,0,0.8,0,1.2,0c0.4,0,0.8,0,1.2,0c0.4,0,0.9,0,1.3,0l0.1,0
				c1.3,0.1,2.7,0.2,4,0.5c0.1,0,0.2,0,0.3,0c0.2,0,0.4,0,0.6,0.1l0.2,0.1c0.5,0.2,1,0.3,1.4,0.6c0.2,0.1,0.3,0.2,0.4,0.3
				c0.3,0.2,0.6,0.3,0.9,0.6c0.3,0.4,0.5,0.7,0.5,1.3c0,1.1-0.4,1.9-1.2,2.5l-0.1,0.1c-0.3,0.2-0.7,0.5-1,0.7c0,0-0.4,0.2-0.8,0.3
				c-0.2,0.1-0.5,0.1-0.7,0.2c-0.4,0.1-0.7,0.2-1.2,0.3l-0.4,0.1c-0.1,0-0.2,0-0.3,0.1c-0.2,0-0.3,0.1-0.5,0.1c0,0-0.1,0-0.2,0l0,0
				c0.2,0.1,0.3,0.3,0.5,0.4c0.4,0.2,0.7,0.5,0.9,0.8c0.1,0.1,0.2,0.2,0.3,0.3c0.1,0.1,0.2,0.2,0.3,0.3c0.2,0.2,0.4,0.4,0.5,0.6
				c0.2,0.3,0.4,0.5,0.5,0.8c0.1,0.2,0.2,0.4,0.2,0.6c0.2,0.6,0.4,1.1,0.3,1.6c-0.2,1.1-0.9,2.1-1.8,2.7l-0.2,0.1
				c-0.4,0.2-0.8,0.5-1.2,0.7c-0.2,0.1-0.6,0.3-0.8,0.4c-0.2,0.1-0.5,0.2-0.7,0.2l-0.4,0.1c-0.4,0.1-0.8,0.2-1.3,0.3
				c-0.1,0-0.2,0-0.3,0c-0.2,0-0.3,0-0.4-0.1c-0.2-0.1-0.3-0.2-0.4-0.3c0,0-0.1-0.1-0.1-0.1c-0.4-0.4-0.8-0.8-1-1.1
				c-0.3-0.5-0.3-1-0.3-1.5l0-0.2c0-0.6,0-1.4,0.7-1.7c0.4-0.2,0.7-0.5,0.8-0.9c0-0.2,0-0.3,0.1-0.4l0.1-0.1l0.1,0.1
				c0.4,0.3,0.7,0.6,0.8,1.1c0,0.1,0.1,0.2,0.1,0.2c0.1,0.1,0.1,0.3,0.1,0.5l0,0.1c0,0.1,0.1,0.4,0.1,0.5c0.1,0.2,0.4,0.3,0.8,0.3
				c0.1,0,0.3,0,0.4,0l0.3,0c0.4,0,0.8,0,1.2-0.2c0.2-0.1,0.4-0.2,0.6-0.3c0.1-0.1,0.3-0.2,0.4-0.3l0.2-0.1c0.4-0.3,0.6-0.7,0.7-1.1
				c0.1-0.9-0.6-1.6-1.5-2.2l-0.2-0.1c-0.3-0.2-0.6-0.4-0.9-0.6c-0.4-0.2-0.8-0.4-1.2-0.5c-0.4-0.1-0.8-0.2-1.2-0.2h0
				c-0.3,0-0.4,0.1-0.6,0.4c-0.1,0.2-0.2,0.3-0.3,0.5c-0.1,0.2-0.3,0.5-0.5,0.7c-0.3,0.4-0.6,0.8-0.9,1.3l-0.3,0.4
				c-0.1,0.1-0.2,0.3-0.2,0.4c-0.2,0.3-0.4,0.6-0.7,1.1c-0.1,0.2-0.3,0.3-0.4,0.5c-0.2,0.3-0.4,0.5-0.7,0.8c-0.3,0.3-0.9,1-1.3,1.5
				l-0.3,0.4c-0.2,0.2-0.3,0.4-0.5,0.6c-0.2,0.3-0.4,0.5-0.7,0.8l-0.2,0.2c-0.2,0.2-0.4,0.4-0.5,0.6c-0.2,0.3-0.4,0.5-0.7,0.8
				c0,0-0.1,0.1-0.1,0.2C303,26.3,302.7,26.6,302.5,26.6z M314.2,11.7c0.3,0,0.7-0.1,1-0.1c0.1,0,0.3-0.1,0.3-0.1
				c1.5-0.2,2.9-0.8,3.8-1.3c0.6-0.3,0.6-0.5,0.6-0.5c0,0,0-0.1-0.1-0.1c-0.3-0.2-0.8-0.2-1.2-0.3l-0.2,0c-0.3,0-0.6-0.1-0.9-0.1
				c-0.8-0.1-1.6-0.2-2.3-0.3l-0.1,0c-0.1,0-0.2,0-0.3,0c-0.2,0-0.3,0-0.3,0c0,0.1,0,0.4,0,0.6c0,0.2,0,0.4,0,0.6l0,0
				c0,0,0,0.4-0.2,1l0,0.1C314.2,11.3,314.1,11.5,314.2,11.7C314.1,11.7,314.1,11.7,314.2,11.7C314.1,11.7,314.2,11.7,314.2,11.7z"
				/>
			<path class="st0" d="M321.2,10.2c0-0.5-0.2-0.8-0.5-1.2c-0.4-0.4-0.8-0.6-1.3-0.9c-0.4-0.3-1-0.5-1.5-0.6
				c-0.3-0.1-0.6-0.1-0.9-0.2c-1.4-0.3-2.7-0.4-4.1-0.5c-1.4-0.1-2.7,0-4.1,0c-1.2,0-2.5,0-3.7,0.2c-1.1,0.1-2.1,0.6-3.1,0.9
				c-0.4,0.1-0.9,0.2-1.3,0.3c-0.5,0.1-1,0.2-1.4,0.6c-0.2,0.2-0.3,0.4-0.4,0.6c-0.1,0.2-0.1,0.5,0,0.7c0.1,0.3,0.4,0.7,0.7,0.8
				c0.2,0.1,0.5,0,0.7,0c0.3,0,0.5,0,0.8-0.1c0.2-0.1,0.7-0.1,0.8-0.3c0.1-0.2-0.2-0.4-0.2-0.6c-0.1-0.6,0.4-0.8,0.9-0.9
				c0.5-0.2,1.1-0.2,1.6-0.3c1.3-0.2,2.5-0.3,3.8-0.3c0.5,0,1-0.2,1.5-0.1c0.5,0,1,0.1,1.6,0.1c0.5,0,1.1,0.1,1.6,0.1
				c0.2,0,0.6,0,0.6,0.2c0.1,0.2-0.2,0.5-0.4,0.7c-0.1,0.2-0.2,0.4-0.3,0.5c-0.2,0.2-0.3,0.4-0.5,0.6c-0.3,0.4-0.8,1.1-1.4,1.3
				c-0.2,0-0.4-0.1-0.6,0c-0.1,0.1-0.1,0.3-0.3,0.4c-0.2,0.1-0.4,0.2-0.6,0.2c-0.5,0.2-1,0.4-1.5,0.5c-0.3,0.1-0.4,0.1-0.7,0.1
				c0,0-0.4,0.1-0.6,0.2c0.2,0.2,0.8,0.2,1.1,0.2c0.4,0,0.8,0,1.3,0c0.1,0,0.8-0.2,0.6,0.1c-0.1,0.2-0.3,0.3-0.4,0.5
				c-0.6,0.9-1.3,1.8-1.9,2.7c-0.3,0.5-0.6,0.8-1,1.3c-0.3,0.4-0.6,0.8-1,1.4c-0.7,1.1-1.4,2.3-2,3.5c-0.3,0.6-0.5,1.2-0.7,1.9
				c-0.1,0.5-0.3,1-0.1,1.5c0.2,0.5,0.6-0.3,0.8-0.5c0.4-0.4,0.8-0.9,1.2-1.4c0.3-0.3,0.5-0.6,0.8-0.9c0.3-0.3,0.6-0.7,0.8-1
				c0.5-0.6,1-1.2,1.3-1.5c0.4-0.4,0.7-0.8,1-1.3c0.5-0.6,0.7-0.9,1-1.4c0.4-0.6,0.7-1.2,1.2-1.7c0.3-0.4,0.5-0.8,0.8-1.2
				c0.2-0.3,0.4-0.5,0.8-0.5c0.5,0,0.8,0.1,1.3,0.2c0.4,0.1,0.8,0.3,1.3,0.5c0.4,0.2,0.7,0.5,1.1,0.7c0.7,0.5,1.7,1.3,1.5,2.4
				c-0.1,0.5-0.4,0.9-0.7,1.2c-0.2,0.2-0.4,0.3-0.6,0.5c-0.2,0.1-0.4,0.3-0.6,0.4c-0.5,0.2-1,0.2-1.5,0.2c-0.5,0-1.2,0.1-1.5-0.4
				c-0.1-0.2-0.1-0.5-0.2-0.7c0-0.3-0.2-0.4-0.2-0.7c-0.1-0.4-0.3-0.7-0.7-1c-0.1,0.1-0.1,0.2-0.1,0.3c-0.1,0.5-0.4,0.8-0.9,1
				c-0.6,0.3-0.6,1-0.6,1.6c0,0.5-0.1,1.1,0.2,1.6c0.2,0.4,0.6,0.8,1,1.1c0.2,0.1,0.3,0.3,0.5,0.4c0.2,0.1,0.5,0,0.7,0
				c0.6-0.1,1.1-0.2,1.7-0.4c0.2-0.1,0.5-0.1,0.7-0.2c0.2-0.1,0.6-0.2,0.8-0.4c0.5-0.2,0.9-0.5,1.4-0.8c1-0.6,1.6-1.5,1.7-2.6
				c0.1-0.5-0.1-1-0.2-1.4c-0.1-0.2-0.2-0.4-0.3-0.7c-0.1-0.3-0.3-0.5-0.4-0.7c-0.2-0.2-0.4-0.5-0.6-0.7c-0.2-0.2-0.4-0.3-0.6-0.5
				c-0.3-0.3-0.5-0.5-0.9-0.7c-0.2-0.1-0.4-0.3-0.6-0.5c0-0.2,0.2-0.3,0.4-0.3c0.3,0,0.5-0.1,0.8-0.2c0.6-0.1,1.1-0.2,1.5-0.4
				c0.2-0.1,0.5-0.1,0.7-0.2c0.4-0.1,0.8-0.3,0.8-0.3c0.4-0.2,0.8-0.5,1.1-0.7C320.9,12,321.2,11.2,321.2,10.2z M319.4,10.4
				c-1.2,0.6-2.5,1.2-3.8,1.3c-0.3,0-1.5,0.3-1.6,0.1c-0.1-0.2,0.1-0.7,0.2-0.8c0.2-0.6,0.2-1,0.2-1c0-0.3-0.1-0.9,0-1.2
				c0.1-0.3,0.6-0.2,0.9-0.2c1.1,0,2.2,0.2,3.3,0.4c0.5,0.1,1,0.1,1.4,0.3C320.4,9.7,319.7,10.2,319.4,10.4z"/>
		</g>
		<g>
			<path class="st0" d="M319.9,24.5c-0.8,0-1.3-1.1-1.4-1.7c-0.1-1.1,0.1-2.1,0.6-3.1l0.1-0.3c0.2-0.4,0.4-0.8,0.7-1.2
				c0.3-0.5,0.7-1,1.1-1.5c0.4-0.5,0.7-1,1-1.5c0.1-0.2,0.3-0.4,0.4-0.6c0.1-0.2,0.3-0.3,0.4-0.5c0.1-0.2,0.2-0.3,0.3-0.5
				c0.1-0.3,0.3-0.5,0.5-0.8c0.1-0.1,0.1-0.2,0.1-0.2c0.2-0.3,0.4-0.7,0.9-0.8c0.1,0,0.1,0,0.2,0c0.5,0,0.8,0.3,0.9,0.9
				c0.1,0.5-0.2,1-0.5,1.3c-0.2,0.2-0.2,0.4-0.3,0.6c-0.1,0.2-0.2,0.4-0.3,0.6c-0.4,0.6-0.7,1.2-1.1,1.9c-0.1,0.2-0.2,0.4-0.3,0.7
				c-0.1,0.1-0.2,0.3-0.2,0.4c-0.1,0.2-0.2,0.4-0.3,0.6c0.1-0.1,0.2-0.2,0.3-0.3c0.1-0.1,0.2-0.2,0.3-0.3c0.4-0.4,0.8-0.8,1.3-1.3
				c0.6-0.7,1.3-1.2,1.9-1.7l0.6-0.5c0.3-0.3,0.6-0.5,1.1-0.5c0.1,0,0.1,0,0.2,0c0.3,0,0.8,0.1,1.2,0.4c0.7,0.7,0.4,1.7,0.2,2.4
				l-0.1,0.2c-0.3,1.1-0.6,2.1-1.1,3c-0.4,0.9-1,1.6-1.6,2.5c-0.2,0.3-0.6,0.6-0.9,0.9l-0.2,0.2c-0.2,0.2-0.5,0.4-0.9,0.4
				c-0.2,0-0.3-0.1-0.5-0.2c-0.4-0.2-0.6-0.7-0.7-1c0-0.2,0-0.4,0-0.5c0,0,0-0.1,0-0.2c0-0.1,0-0.2,0-0.3c0-0.1,0-0.3,0.1-0.4
				c0.2-0.5,0.5-0.9,0.9-1.2c0.2-0.2,0.6-0.9,0.9-1.2c0.2-0.4,0.5-0.7,0.8-1.1c0.3-0.5,0.6-0.9,0.8-1.2c0-0.1,0.1-0.1,0.1-0.2
				c0.2-0.3,0.5-0.7,0.4-0.9c0,0,0,0-0.1,0c-0.2,0-0.3,0.2-0.4,0.2c-0.4,0.3-0.6,0.5-0.9,0.9c-0.1,0.2-0.3,0.3-0.4,0.5
				c-0.2,0.2-0.3,0.4-0.5,0.6c-0.1,0.1-0.1,0.2-0.2,0.3c0,0.1-0.1,0.1-0.1,0.2c-0.1,0.1-0.2,0.3-0.3,0.4l-0.1,0.1
				c-0.3,0.4-0.6,0.8-0.9,1.2l-0.5,0.7c-0.4,0.6-0.8,1.2-1.3,1.7c-0.3,0.4-0.6,0.8-1,1c-0.1,0.1-0.2,0.2-0.4,0.2
				c-0.2,0.2-0.5,0.4-0.8,0.4C320,24.4,320,24.5,319.9,24.5z"/>
			<path class="st0" d="M319.4,19.8c0.3-0.5,0.5-1,0.8-1.5c0.3-0.5,0.7-1,1.1-1.4c0.4-0.5,0.7-1,1-1.5c0.2-0.4,0.6-0.7,0.8-1.2
				c0.2-0.4,0.5-0.8,0.7-1.2c0.2-0.4,0.4-0.9,0.9-0.9c0.5-0.1,0.8,0.2,0.9,0.7c0.1,0.5-0.2,0.8-0.5,1.2c-0.3,0.4-0.4,0.8-0.6,1.2
				c-0.6,0.8-0.9,1.7-1.4,2.6c-0.3,0.5-0.8,1.2-0.8,1.7c0.3-0.1,0.3-0.3,0.5-0.5c0.2-0.2,0.5-0.4,0.7-0.6c0.5-0.4,0.9-0.9,1.3-1.3
				c0.7-0.8,1.6-1.4,2.4-2c0.4-0.3,0.7-0.6,1.2-0.6c0.4,0,0.9,0.1,1.2,0.4c0.6,0.7,0.3,1.7,0.1,2.5c-0.2,1-0.6,2-1,2.9
				c-0.4,0.9-1,1.6-1.6,2.4c-0.3,0.4-0.7,0.8-1.1,1.1c-0.4,0.3-0.7,0.5-1.2,0.3c-0.3-0.2-0.5-0.5-0.6-0.9c-0.1-0.3,0-0.4,0.1-0.6
				c0.1-0.2,0-0.5,0.1-0.7c0.1-0.4,0.5-0.8,0.9-1.1c0.2-0.2,0.5-0.7,0.9-1.3c0.2-0.4,0.5-0.7,0.8-1.1c0.3-0.4,0.6-0.8,0.8-1.3
				c0.2-0.3,0.7-1,0.5-1.3c-0.2-0.5-0.7,0-0.9,0.2c-0.3,0.3-0.6,0.5-0.9,0.9c-0.3,0.3-0.6,0.7-0.9,1.1c-0.2,0.2-0.2,0.3-0.3,0.5
				c-0.1,0.2-0.2,0.3-0.4,0.5c-0.3,0.4-0.6,0.8-0.9,1.2c-0.6,0.8-1.2,1.6-1.8,2.4c-0.3,0.4-0.6,0.7-1,1c-0.3,0.2-0.7,0.6-1.1,0.7
				c-0.7,0.1-1.2-0.9-1.3-1.5C318.7,21.7,318.9,20.7,319.4,19.8z"/>
		</g>
		<g>
			<path class="st0" d="M328.9,23.6c-0.1,0-0.3,0-0.4-0.1c-0.6-0.5-0.1-1.5,0.1-1.9c0.1-0.2,0.2-0.3,0.3-0.5
				c0.1-0.2,0.2-0.4,0.3-0.6c0.1-0.1,0.1-0.2,0.2-0.4c0.1-0.1,0.1-0.3,0.2-0.4c0.1-0.1,0.2-0.3,0.3-0.4c0.2-0.3,0.4-0.7,0.7-1
				l0.3-0.4c0.3-0.5,0.7-0.9,1-1.3c0.4-0.4,0.7-0.8,1-1.3c0.2-0.3,0.4-0.5,0.6-0.8c0.2-0.2,0.3-0.4,0.5-0.6c0.3-0.4,0.6-0.8,0.8-1.3
				l0.1-0.2c0.1-0.2,0.2-0.4,0.4-0.5c0.2-0.2,0.3-0.4,0.5-0.7c0.3-0.5,0.4-0.9,0.6-1.4c0.1-0.2,0.1-0.3,0.1-0.5c0,0,0-0.1,0-0.2
				c-0.1-0.3-0.1-0.5,0-0.7c0.1-0.2,0.2-0.2,0.3-0.2c0.4,0,0.8,1.1,0.8,1.1c0.3,1,0,2-0.2,3l-0.1,0.4c-0.2,0.9-0.6,1.8-1,2.7
				l-0.2,0.4c-0.4,0.9-0.7,1.5-1.1,2.1c-0.1,0.2-0.3,0.4-0.4,0.6c-0.6,1-1.1,1.4-1.1,1.4c-0.2,0.3-0.5,0.5-0.8,0.7
				c-0.1,0.1-0.3,0.2-0.4,0.3c-0.3,0.3-0.7,0.6-1,0.9c-0.3,0.3-0.7,0.7-1,1c-0.1,0.1-0.2,0.2-0.2,0.2c-0.1,0.1-0.1,0.1-0.2,0.2
				c-0.2,0.1-0.4,0.2-0.6,0.3C329.2,23.5,329,23.6,328.9,23.6z"/>
			<path class="st0" d="M328.8,21.7c0.2-0.4,0.3-0.7,0.6-1.1c0.2-0.2,0.2-0.5,0.4-0.8c0.3-0.5,0.6-1,0.9-1.5
				c0.4-0.6,0.9-1.2,1.4-1.8c0.4-0.4,0.7-0.9,1-1.3c0.3-0.5,0.8-0.9,1.1-1.4c0.3-0.4,0.6-0.9,1-1.4c0.3-0.4,0.6-0.8,0.8-1.2
				c0.3-0.5,0.5-0.9,0.6-1.4c0.1-0.2,0.1-0.4,0.1-0.6c0-0.2-0.1-0.6,0-0.7c0.3-0.5,0.7,0.8,0.7,0.9c0.3,1.1,0,2.2-0.3,3.2
				c-0.2,1-0.7,2-1.1,3c-0.5,1.2-1,1.8-1.5,2.7c-0.6,1-1,1.4-1,1.4c-0.3,0.4-0.8,0.6-1.2,1c-0.7,0.6-1.3,1.3-2,1.9
				c-0.2,0.1-0.3,0.3-0.5,0.4c-0.1,0.1-0.3,0.2-0.5,0.3c-0.2,0.1-0.4,0.1-0.5,0C328.3,22.9,328.6,22.1,328.8,21.7z"/>
		</g>
		<g>
			<path class="st0" d="M332.5,24.5c0,0-0.1,0-0.1,0l-0.1,0l-0.1-0.1c-0.1-0.2,0-0.5,0.5-1.5l0.2-0.3c0.1-0.2,0.2-0.5,0.3-0.7
				c0-0.1,0.1-0.1,0.1-0.2c0-0.1,0.1-0.2,0.2-0.3c0.2-0.2,0.5-0.7,0.5-0.7c0.1-0.1,0.2-0.2,0.2-0.3c0.1-0.1,0.1-0.2,0.2-0.3
				c0.2-0.3,0.4-0.6,0.7-1c0.5-0.7,1-1.5,1.6-2.2c0.1-0.1,0.2-0.3,0.3-0.4l0.1-0.1c0.1-0.1,0.2-0.2,0.3-0.4c0.1-0.1,0.1-0.1,0.2-0.2
				c0.2-0.3,0.5-0.6,0.7-0.9l0.1-0.1c0.3-0.4,0.5-0.8,0.8-1.1l0.4-0.6c0.2-0.2,0.4-0.6,0.6-0.9c0.1-0.1,0.1-0.3,0.2-0.4
				c0,0,0.2-0.3,0.2-0.4l0.1-0.3c0.2-0.4,0.3-0.7,0.4-1l0.1-0.3c0.1-0.2,0.2-0.4,0.2-0.7c0.1-0.3,0.1-0.5,0.1-0.8l0-0.4l0.2,0l0.1,0
				c0.2,0,0.3,0.1,0.5,0.2c0.6,0.9-0.1,4.2-0.2,4.6c-0.5,1.8-1.2,3.9-2.4,5.7c-0.4,0.7-0.9,1.3-1.4,1.9c-0.1,0.1-0.1,0.1-0.2,0.2
				c-0.1,0.1-0.1,0.1-0.2,0.2c-0.1,0.2-0.3,0.3-0.5,0.5c-0.3,0.3-0.7,0.6-1.1,0.9c-0.1,0.1-0.2,0.2-0.4,0.3
				c-0.2,0.1-0.4,0.2-0.5,0.4c-0.2,0.1-0.3,0.3-0.5,0.4c-0.2,0.1-0.3,0.2-0.5,0.3c-0.3,0.2-0.6,0.5-0.9,0.7l-0.1,0.1
				C333,24.3,332.8,24.5,332.5,24.5z"/>
			<path class="st0" d="M332.9,22.8c0.1-0.3,0.2-0.6,0.4-0.9c0.1-0.2,0.2-0.4,0.3-0.5c0.2-0.2,0.5-0.7,0.5-0.8
				c0.2-0.2,0.2-0.3,0.4-0.5c0.7-1,1.4-2.2,2.3-3.1c0.2-0.2,0.3-0.3,0.4-0.5c0.1-0.2,0.3-0.4,0.5-0.6c0.3-0.3,0.6-0.7,0.8-1
				c0.4-0.6,0.8-1.2,1.2-1.8c0.1-0.1,0.4-0.6,0.6-0.9c0.1-0.2,0.2-0.4,0.3-0.5c0,0,0.1-0.2,0.1-0.2c0.1-0.1,0.1-0.2,0.2-0.3
				c0.2-0.4,0.3-0.6,0.4-1c0.1-0.3,0.3-0.6,0.4-1c0.1-0.4,0.1-0.6,0.1-1c1.2-0.2,0.3,4,0.1,4.5c-0.6,1.9-1.3,3.9-2.4,5.6
				c-0.4,0.6-0.9,1.3-1.4,1.8c-0.1,0.1-0.3,0.2-0.4,0.4c-0.1,0.2-0.3,0.3-0.5,0.5c-0.3,0.3-0.7,0.6-1.1,0.9
				c-0.3,0.2-0.7,0.4-0.9,0.7c-0.3,0.3-0.7,0.4-1,0.7c-0.3,0.2-0.6,0.5-0.9,0.7c-0.3,0.2-0.6,0.5-0.9,0.4
				C332.1,24.2,332.8,22.9,332.9,22.8z"/>
		</g>
		<g>
			<path class="st0" d="M336.5,30c-0.1,0-0.2-0.1-0.3-0.2c-0.2-0.2,0-0.6,0.1-1c0.2-0.6,0.5-1.1,0.9-1.7c0.2-0.3,0.4-0.6,0.6-0.8
				c0.1-0.1,0.2-0.2,0.3-0.3c0.4-0.5,0.7-0.8,1-1.1l0.3-0.3c0.4-0.4,0.7-0.7,1.1-1l0.1-0.1c0.2-0.1,0.4-0.3,0.5-0.4
				c0.1-0.1,0.1-0.2,0.1-0.3c0-0.1,0-0.1,0-0.2c0-0.2,0-0.4,0.1-0.6c0-0.3,0-0.6,0.1-0.9c0.2-1,0.6-1.9,0.9-2.9
				c0.1-0.2,0.1-0.4,0.2-0.6c0.1-0.2,0.1-0.4,0.2-0.6c0.1-0.2,0.1-0.4,0.2-0.6c0.1-0.2,0.1-0.4,0.2-0.6c0.1-0.3,0.2-0.7,0.3-1
				c0.1-0.5,0.1-1.1-0.3-1.3c0,0-0.1,0-0.1,0c-0.1,0-0.2-0.1-0.4-0.2l-0.1-0.1l0-0.1c0-0.1,0.1-0.4,0.5-0.4c0.3,0,0.7,0.2,0.9,0.3
				c0.3,0.3,0.6,0.7,0.7,1.1c0.1,0.5,0.1,1,0.1,1.5c0,0.5,0,1.1-0.1,1.7c0,0.4-0.1,0.9-0.3,1.5c-0.1,0.3-0.1,0.6-0.2,1
				c0,0.2-0.1,0.4-0.1,0.6c-0.1,0.3-0.1,0.4-0.1,0.5c0,0,0.1-0.1,0.1-0.1c0.3-0.2,0.4-0.3,0.6-0.5c0.1-0.1,0.3-0.2,0.4-0.4
				c0.2-0.1,0.3-0.2,0.4-0.3c0.1-0.1,0.2-0.2,0.3-0.3l0.3-0.2c0.2-0.2,0.4-0.3,0.6-0.5c0.2-0.2,0.5-0.4,0.7-0.6
				c0.1-0.1,0.2-0.2,0.2-0.2c0.1-0.1,0.1-0.1,0.2-0.2l0.4-0.4c0.6-0.5,1.1-1,1.7-1.6c0.1-0.1,0.2-0.2,0.3-0.3
				c0.2-0.2,0.4-0.3,0.5-0.5c0.1-0.2,0.2-0.3,0.2-0.6c0-0.1,0.1-0.3,0.1-0.4c0.1-0.2,0.3-0.3,0.5-0.3c0.3,0,0.6,0.2,0.8,0.4
				c0.3,0.4,0.3,1.1,0.1,1.5c-0.2,0.7-0.7,1.4-1.1,2l-0.2,0.4l-0.3,0.5c-0.5,0.8-1,1.5-1.6,2.2c-0.3,0.3-0.6,0.7-0.9,1.1
				c-0.4,0.5-0.9,1.1-1.4,1.6c-0.1,0.1-0.3,0.3-0.4,0.4c-0.2,0.2-0.5,0.5-0.7,0.7c-0.4,0.3-0.8,0.6-1.2,0.8l-0.2,0.1
				c-1.1,0.7-2.2,1.2-3.3,1.8c-0.3,0.1-0.5,0.3-0.8,0.4c-0.3,0.2-0.6,0.3-0.8,0.5c-0.4,0.2-0.8,0.5-1.2,0.8l-1.2,1.1
				C337,29.8,336.8,30,336.5,30L336.5,30z"/>
			<path class="st0" d="M336.5,28.9c0.2-0.6,0.5-1.1,0.8-1.7c0.2-0.4,0.6-0.8,0.9-1.1c0.3-0.4,0.6-0.7,1-1.1
				c0.5-0.5,0.9-0.9,1.4-1.3c0.2-0.2,0.5-0.4,0.6-0.6c0.2-0.2,0.1-0.4,0.2-0.7c0.1-0.5,0-1,0.2-1.5c0.2-1,0.6-1.9,0.9-2.8
				c0.1-0.4,0.2-0.8,0.4-1.2c0.1-0.4,0.2-0.8,0.4-1.2c0.1-0.3,0.2-0.7,0.3-1c0.1-0.5,0.1-1.2-0.4-1.5c-0.2-0.1-0.3,0-0.4-0.2
				c0-0.4,0.9-0.2,1.1,0c0.3,0.2,0.5,0.6,0.6,1c0.1,0.4,0.1,1,0.1,1.4c0,0.4,0,0.9-0.1,1.7c-0.1,0.5-0.2,1-0.3,1.4
				c-0.1,0.5-0.2,1-0.3,1.6c0,0.1-0.1,0.5,0,0.6c0.1,0.1,0.3,0,0.5-0.1c0.4-0.2,0.7-0.6,1-0.8c0.3-0.2,0.4-0.4,0.6-0.6
				c0.3-0.2,0.5-0.5,0.8-0.7c0.2-0.2,0.5-0.4,0.7-0.6c0.2-0.1,0.3-0.3,0.5-0.4c0.7-0.7,1.4-1.3,2.1-2c0.3-0.3,0.6-0.5,0.8-0.8
				c0.3-0.3,0.2-0.7,0.4-1c0.1-0.4,0.7-0.2,1,0.1c0.3,0.4,0.2,0.9,0.1,1.3c-0.3,0.8-0.8,1.6-1.3,2.3c-0.6,0.9-1.1,1.8-1.8,2.6
				c-0.8,0.9-1.5,1.8-2.3,2.6c-0.4,0.4-0.7,0.8-1.1,1.1c-0.4,0.3-0.9,0.6-1.3,0.9c-1.1,0.6-2.2,1.2-3.3,1.8
				c-0.5,0.3-1.1,0.6-1.6,0.9c-0.4,0.2-0.8,0.5-1.2,0.8c-0.4,0.4-0.8,0.7-1.2,1.1c-0.2,0.1-0.5,0.5-0.7,0.5
				C336.1,29.8,336.4,29.1,336.5,28.9z"/>
		</g>
	</g>
	<g>
		<rect y="27.1" class="st0" width="117.8" height="1.6"/>
		<rect y="37.8" class="st0" width="117.8" height="1.6"/>
		<rect y="32.5" class="st0" width="117.8" height="1.6"/>
		<rect y="21.7" class="st0" width="117.8" height="1.6"/>
		<rect y="5.4" class="st0" width="117.8" height="1.6"/>
		<rect y="16.1" class="st0" width="117.8" height="1.6"/>
		<rect class="st0" width="117.8" height="1.6"/>
		<rect y="10.7" class="st0" width="117.8" height="1.6"/>
	</g>
</g>
</svg>
