<?xml version="1.0" encoding="utf-8"?>
<!-- Generator: Adobe Illustrator 21.1.0, SVG Export Plug-In . SVG Version: 6.00 Build 0)  -->
<svg version="1.1" id="Layer_1" xmlns="http://www.w3.org/2000/svg" xmlns:xlink="http://www.w3.org/1999/xlink" x="0px" y="0px"
	 width="212.8px" height="23.5px" viewBox="0 0 212.8 23.5" style="enable-background:new 0 0 212.8 23.5;" xml:space="preserve">
<style type="text/css">
	.st0{fill:#8D744A;}
</style>
<g>
	<g>
		<path class="st0" d="M86.1,17.3h5.2l-0.8,1.6c-0.4,0.9-1.3,0.9-1.3,0.9H73.3c-0.9,0-0.5-0.4-0.5-0.4l6.1-12.5v10.5h3.5h2.1l0,0
			v-3.2c0-0.4,0.3-0.7,0.7-0.7h0.2c0.4,0,0.7,0.3,0.7,0.7V17.3L86.1,17.3z M85.2,9.8h0.2c0.4,0,0.7-0.3,0.7-0.7V7.7
			c0-0.4-0.3-0.7-0.7-0.7h-0.2c-0.4,0-0.7,0.3-0.7,0.7v1.4C84.5,9.5,84.8,9.8,85.2,9.8z M97.2,3.8H81.3c0,0-0.9,0-1.3,0.9l-0.7,1.4
			h11.4c0.6,0,1,0.5,1,1v2.6c0,0.6-0.5,1-1,1h-8.4c-0.4,0-0.7,0.3-0.7,0.7v0.2c0,0.4,0.3,0.7,0.7,0.7h8.4c0.6,0,1,0.5,1,1V14v2.5
			l5.9-11.9C97.6,4.7,98.1,3.8,97.2,3.8z"/>
		<path class="st0" d="M9.2,11.9l-0.1-0.2l-0.2-0.2l-0.3-0.1l-0.3-0.1c-0.3,0-0.7,0-1-0.1c-0.3,0-0.6,0-0.9-0.1L6.3,11l-0.1-0.1
			l-0.1-0.1v-0.1c0-0.1,0-0.2,0-0.4l0.1-0.1l0.2-0.1c0.3,0,0.7,0,1,0s0.7,0,1-0.1l0.3-0.1L9,9.7c0.1-0.1,0.1-0.2,0.2-0.3
			c0,0,0.1-0.1,0.1-0.2V5.9L9.2,5.7V5.5L9.1,5.4L9,5.3L8.8,5.2L8.7,5.1H8.5L8.4,5C7.2,5,5.9,5,4.7,5H0.8L0.7,5.1H0.6
			C0.5,5.2,0.4,5.3,0.3,5.3L0.1,5.6C0,5.7,0,5.9,0,5.9v9.6v0.2v0.1L0.1,16c0,0.1,0.1,0.1,0.2,0.3l0.2,0.2l0.2,0.1H1h2.5h0.2L4,16.4
			l0.1-0.1l0.1-0.1c0-0.1,0.1-0.2,0.1-0.4c0-0.6,0-1.2,0-1.7c0-0.6,0-1.1,0-1.7c0-0.1,0.1-0.3,0.1-0.4l0.1-0.1h0.1h0.1h0.1h0.1
			L5.2,12l0.1,0.1l0.1,0.2v1.6c0,0.6,0,1.1,0,1.6c0,0.2,0.1,0.3,0.1,0.3L5.6,16l0.1,0.1l0.1,0.1l0.1,0.1L6,16.4l0.2,0.1h0.2
			c0.4,0,0.8,0,1.2,0h1.1l0.1-0.1L9,16.3l0.1-0.1c0,0,0.1-0.1,0.2-0.2l0.1-0.2c0-0.7,0-1.3,0-2v-2L9.2,11.9z M5,9.5L4.9,9.7L4.7,9.8
			H4.6l0,0L4.4,9.7L4.3,9.6c0,0-0.1-0.1-0.1-0.3V7.4l0.1-0.2l0,0l0.1-0.1h0.1L4.6,7h0.1h0.1h0.1H5c0.1,0.1,0.1,0.2,0.2,0.4v2.1H5z"
			/>
		<path class="st0" d="M11.6,16.8l-0.2-0.1l-0.1-0.1l-0.1-0.1L11,16.2v-0.1v-0.2v-10l0.1-0.2l0.1-0.2l0.1-0.1l0.2-0.1l0.2-0.1h3.6
			c1.2,0,2.4,0,3.6,0l0.2,0.1h0.2l0.1,0.1l0.1,0.1c0.1,0.1,0.1,0.2,0.2,0.3V6v0.1v1.1l-0.1,0.3l-0.2,0.3C19.2,7.9,19.1,8,19,8
			l-0.2,0.1h-0.2h-1.4c-0.5,0-0.9,0-1.4,0l-0.2,0.1l-0.2,0.1l-0.2,0.2v0.7l0.3,0.2l0.3,0.1h0.3c0.9,0,1.9,0,2.9,0.1
			c0.2,0,0.3,0.1,0.3,0.1l0.1,0.1c0.1,0.1,0.2,0.2,0.2,0.2l0.1,0.1v0.8c0,0.2,0,0.5,0,0.8l-0.1,0.2l-0.1,0.2
			c-0.1,0.1-0.2,0.1-0.3,0.2l-0.1,0.1H19c-1,0.1-2.1,0.1-3.1,0.1c-0.2,0.1-0.3,0.1-0.3,0.2L15.5,13c0,0.2,0,0.3,0,0.4v0.2l0.3,0.3
			h0.1c1.5,0,2.3,0.1,2.6,0.1s0.5,0,0.7,0.1s0.3,0.2,0.3,0.2l0.1,0.2l0.1,0.2c0,0.1,0,0.2,0,0.3v1.3l-0.1,0.2l-0.2,0.3L19.1,17
			L19,17.1h-0.1h-3.6h-3.7V16.8z"/>
		<path class="st0" d="M22.2,16.8c-0.1,0-0.3-0.1-0.4-0.1l-0.1-0.2l-0.1-0.2l-0.1-0.1V16V6.2l0.1-0.1l0.1-0.2l0.1-0.1l0.1-0.1
			c0.1-0.1,0.2-0.2,0.3-0.2l0.2-0.1l0.2-0.1h6.9c0.1,0,0.2,0,0.3,0.1L30,5.5l0.2,0.1l0.2,0.2c0,0.1,0.1,0.2,0.1,0.4v0.6
			c0,0.2,0,0.4,0,0.6l-0.1,0.3c-0.1,0.1-0.2,0.2-0.2,0.2L30.1,8l-0.2,0.1l-0.2,0.1c-0.8,0-1.6,0.1-2.4,0.1c-0.1,0-0.3,0.1-0.4,0.1
			l-0.1,0.1l-0.1,0.1c0,0,0,0.1,0,0.2v0.3v0.3v0.1l0.1,0.1l0.1,0.1H27h0.1h0.2c0.4,0,0.7,0,1.1,0c0.4,0,0.8,0,1.1,0l0.1,0.1l0.2,0.1
			l0.1,0.1l0.1,0.1c0.1,0.1,0.2,0.2,0.2,0.3l0.1,0.1V11c0,0.2,0,0.3,0,0.5c0,0.1-0.1,0.3-0.1,0.4L30.1,12L30,12.1
			c-0.1,0.1-0.2,0.2-0.3,0.3l-0.1,0.1h-0.1c-0.2,0-0.4,0-0.6,0c-0.2,0-0.9,0-1.9,0.1c-0.1,0-0.2,0.1-0.3,0.1l-0.2,0.2V13v0.1
			c0,0.5,0,1,0,1.5s0,1,0,1.6l-0.1,0.3l-0.2,0.2c-0.2,0.1-0.3,0.2-0.3,0.2L25.7,17h-0.2h-1.6h-1.7V16.8z"/>
		<path class="st0" d="M41.5,10.7V6.3c0-0.2-0.1-0.3-0.1-0.3l-0.1-0.2l-0.2-0.3l-0.2-0.2l-0.1-0.1l-0.1-0.1h-4c-1.3,0-2.5,0-3.8,0
			c-0.2,0-0.3,0-0.4,0.1c-0.1,0.1-0.2,0.1-0.4,0.2l-0.2,0.2l-0.1,0.2L31.7,6v9.7l0.1,0.3l0.1,0.3l0.4,0.2l0.2,0.1l0.3,0.1h0.3
			c1.2,0,2.4,0,3.7,0h3.9l0.2-0.1l0.2-0.1c0.2-0.1,0.3-0.3,0.4-0.3l0.1-0.3l0.1-0.3v-0.3V15C41.5,13.7,41.5,12.2,41.5,10.7z
			 M37.2,14.4v0.2L37,14.7h-0.2h-0.1l-0.2-0.1c-0.1-0.1-0.1-0.2-0.1-0.3V7.4V7.3l0.2-0.2h0.2h0.1L37,7.2h0.1l0.1,0.2L37.2,14.4
			L37.2,14.4z"/>
		<path class="st0" d="M52.5,11.9l-0.1-0.2l-0.2-0.2l-0.3-0.1l-0.3-0.1c-0.3,0-0.7,0-1-0.1c-0.3,0-0.6,0-1-0.1L49.5,11l-0.1-0.1
			l-0.1-0.1v-0.1c0-0.1,0-0.2,0-0.4l0.1-0.1l0.2-0.1c0.3,0,0.7,0,1,0s0.7,0,1-0.1l0.3-0.1l0.3-0.2c0.1-0.1,0.1-0.2,0.2-0.3
			c0,0,0.1-0.1,0.1-0.2V7.6C52.3,6.5,53,5.3,51.6,5l-0.1-0.1c-1.2,0-2.5,0-3.7,0h-3.9L43.8,5h-0.1c-0.1,0.1-0.2,0.2-0.3,0.2
			l-0.2,0.3c0,0.1-0.1,0.3-0.1,0.3v9.6v0.2v0.1l0.1,0.2c0,0.1,0.1,0.1,0.2,0.3l0.2,0.2l0.2,0.1h0.3h2.5h0.2l0.1-0.1l0.1-0.1l0.1-0.1
			l0.1-0.1c0-0.1,0.1-0.2,0.1-0.4c0-0.6,0-1.2,0-1.7c0-0.6,0-1.1,0-1.7c0-0.1,0.1-0.3,0.1-0.4l0.1-0.1h0.1h0.1h0.1h0.1l0.3,0.1
			l0.1,0.1l0.1,0.2v1.6c0,0.6,0,1.1,0,1.6c0.1,0.2,0.1,0.3,0.1,0.3l0.1,0.2l0.1,0.1l0.1,0.1l0.1,0.1l0.1,0.1l0.3,0.1h0.2
			c0.4,0,0.8,0,1.2,0h1.1l0.1-0.1l0.2-0.1l0.2,0.3c0,0,0.1-0.1,0.2-0.2l0.1-0.2c0-0.7,0-1.3,0-2v-2L52.5,11.9z M48.4,9.5l-0.1,0.2
			l-0.2,0.1H48l0,0l-0.2-0.1l-0.1-0.1c0,0-0.1-0.1-0.1-0.3V7.4l0.1-0.2l0,0l0.1-0.1h0.1L48,7h0.1h0.1h0.1h0.1
			c0.1,0.1,0.1,0.2,0.2,0.4v2.1H48.4z"/>
		<path class="st0" d="M65.8,16.8l-0.2-0.1l-0.1-0.1l-0.2-0.1l-0.2-0.2C65,16.1,65,16,64.9,15.9v-0.1v-0.1c0-1.4,0-2.7,0-4.1
			s0-2.7,0-4.1l-0.1-0.2l-0.1-0.1l-0.1-0.1c-0.1,0-0.3,0-0.3,0l-0.2,0.1L64,7.4c0,2.8,0,5.7,0,8.6v0.1v0.1l-0.1,0.1l-0.1,0.1
			c-0.2,0.1-0.3,0.2-0.4,0.3c-0.5,0-1,0-1.4,0h-1.7h-0.2l-0.2-0.1c-0.1,0-0.1-0.1-0.3-0.2l-0.1-0.1c0,0,0-0.1-0.1-0.3
			c0-1.4,0-2.8,0-4.2s0-2.8,0-4.2c0-0.2-0.1-0.3-0.1-0.4l-0.2-0.1c-0.1,0-0.3,0-0.3,0l-0.2,0.1l-0.1,0.3v4.3c0,1.4,0,2.9,0,4.3
			l-0.1,0.1l-0.1,0.1l0,0.2l-0.1,0.1L58,16.7l-0.1,0.1c-0.5,0-0.9,0-1.4,0h-1.3h-0.1L55,16.7l-0.1-0.1l-0.1-0.1l-0.2-0.2l-0.1-0.2
			l-0.1-0.2l-0.1-0.2V5.2h13.9c0.1,0,0.2,0.1,0.4,0.1c0.1,0.1,0.2,0.1,0.3,0.2L69,5.6l0.1,0.1l0.1,0.1l0.1,0.1v4.8
			c0,1.6,0,3.2,0,4.8l-0.1,0.2v0.2l-0.1,0.2l-0.2,0.2l-0.2,0.1l-0.2,0.1h-1.3h-1.4V16.8z"/>
	</g>
	<g>
		<g>
			<g>
				<path class="st0" d="M118.2,19.1c-0.2,0-0.3-0.6-0.3-1.1c0-0.3,0-0.6,0.1-0.8c0-0.1,0-0.3,0-0.4c0-0.4,0.2-0.7,0.3-1.1l0.1-0.3
					c0.3-0.8,0.6-1.6,1-2.4l0.2-0.4c0.2-0.4,0.4-0.7,0.6-1l0.3-0.5c0.2-0.3,0.4-0.7,0.6-1c0.1-0.1,0.1-0.2,0.2-0.4
					c0-0.1,0.1-0.2,0.1-0.3c0-0.1,0.1-0.1,0.1-0.1c0.1-0.1,0.1-0.1,0.1-0.2c0,0-0.1-0.1-0.1-0.2c-0.1-0.1-0.2-0.3-0.1-0.4
					c0.1-0.2,0.3-0.2,0.4-0.2c0.3,0,0.4-0.1,0.6-0.2c0.2-0.2,0.4-0.4,0.6-0.7c0.1-0.1,0.2-0.3,0.3-0.4c0.2-0.2,0.4-0.5,0.6-0.7
					s0.3-0.4,0.5-0.6l0.1-0.1c0.1-0.1,0.3-0.3,0.3-0.5c0,0,0,0-0.1,0c-0.2,0-0.5,0.1-0.7,0.1c-0.1,0-0.2,0.1-0.3,0.1h-0.2
					c-0.9,0.1-1.8,0.2-2.6,0.5c-0.4,0.1-0.8,0.2-1.1,0.4c-0.1,0.1-0.3,0.1-0.4,0.2c-0.2,0.1-0.5,0.2-0.7,0.3
					c-0.1,0.1-0.2,0.1-0.2,0.2c-0.2,0.2-0.4,0.5-0.8,0.5c-0.5-0.1-1-0.5-1.1-0.9c-0.2-1.1,1.1-1.8,2-2c0.8-0.2,1.6-0.4,2.5-0.6
					l0.3-0.1c0.2-0.1,0.4-0.1,0.6-0.2c0.4-0.1,0.9-0.3,1.3-0.4c0.3-0.1,0.6-0.1,0.9-0.1s0.5,0,0.8-0.1c0.2,0,0.4-0.1,0.5-0.1
					c0.2,0,0.3,0,0.5-0.1c0.2,0,0.4-0.5,0.5-0.7c0-0.1,0-0.2,0.1-0.3c0-0.1,0-0.3,0.1-0.4c0.1-0.3,0.3-0.4,0.5-0.5s0.3-0.1,0.5-0.1
					c0.1,0,0.3,0,0.4,0.1c0.3,0.1,0.7,0.3,0.8,0.9c0,0.3,0,0.5-0.1,0.7c0,0.1-0.1,0.2-0.1,0.4c0,0.1,0.1,0.2,0.3,0.3
					c0.4,0.2,0.7,0.4,1,0.5c0.1,0.1,0.2,0.1,0.3,0.2c0.1,0.1,0.2,0.1,0.3,0.2c0.4,0.2,0.8,0.6,1.2,1c0.3,0.3,0.6,0.8,0.8,1.3
					c0.2,0.5,0.1,1.1-0.2,1.6c-0.5,0.9-1.2,1.6-2.1,1.9c-0.7,0.2-1.7,0.5-2.7,0.6c-0.2,0-0.4,0-0.7,0c-0.4,0-0.9,0-1.2-0.1
					c-0.2,0-0.4-0.1-0.6-0.1s-0.3,0-0.5,0.1c-0.5,0.3-0.8,0.8-1.1,1.4c-0.1,0.2-0.3,0.5-0.4,0.7l-0.3,0.5c-0.1,0.1-0.1,0.2-0.1,0.2
					c0,0.1-0.1,0.1-0.1,0.2c-0.2,0.3-0.4,0.5-0.5,0.8l-0.1,0.1c-0.3,0.5-0.7,0.9-1,1.4c-0.1,0.2-0.3,0.5-0.4,0.7
					c-0.2,0.2-0.3,0.5-0.5,0.7c-0.1,0.3-0.3,0.5-0.5,0.7c-0.1,0.1-0.3,0.3-0.4,0.4s-0.2,0.4-0.3,0.6
					C118.6,18.8,118.5,19.1,118.2,19.1L118.2,19.1z M128.4,4c-0.1,0-0.2,0-0.3,0.1c-0.2,0.1-0.3,0.5-0.5,0.8
					c-0.1,0.2-0.2,0.4-0.3,0.6c-0.1,0.2-0.2,0.3-0.3,0.5c-0.1,0.2-0.3,0.5-0.4,0.7c-0.1,0.1-0.1,0.2-0.2,0.2s-0.1,0.2-0.2,0.2
					l-0.1,0.2h0.1c0.9-0.2,1.8-0.5,2.7-0.9l0.4-0.1c0.6-0.2,1.8-0.7,1.9-1.3c0-0.1,0-0.1-0.1-0.2c-0.5-0.3-1.2-0.5-1.6-0.6
					c0,0-0.5-0.1-0.7-0.1C128.5,4,128.4,4,128.4,4z"/>
				<path class="st0" d="M132.5,6c-0.1-0.4-0.4-0.9-0.7-1.2c-0.3-0.3-0.8-0.7-1.2-1c-0.2-0.1-0.5-0.2-0.7-0.3
					c-0.3-0.2-0.6-0.3-0.9-0.5c-0.3-0.1-0.6-0.2-0.5-0.6c0-0.4,0.3-0.6,0.2-1c0-0.4-0.3-0.6-0.6-0.7c-0.2-0.1-0.4-0.1-0.6,0
					s-0.3,0.1-0.4,0.4S127,1.6,127,1.9c-0.1,0.2-0.3,0.8-0.7,0.9c-0.4,0.1-0.6,0.1-1.1,0.2c-0.5,0.1-1.1,0-1.7,0.1s-1.3,0.4-1.9,0.5
					c-0.9,0.3-1.9,0.5-2.8,0.7c-0.8,0.2-2,0.8-1.9,1.8c0.1,0.3,0.5,0.7,0.8,0.7c0.4,0.1,0.7-0.5,1-0.7c0.3-0.3,0.7-0.3,1.1-0.5
					s0.7-0.3,1.1-0.4c0.9-0.3,1.9-0.4,2.9-0.5c0.2,0,1-0.3,1.2-0.1s-0.4,0.7-0.5,0.8c-0.3,0.4-0.7,0.9-1,1.3
					c-0.3,0.4-0.5,0.8-0.8,1.1c-0.2,0.2-0.4,0.2-0.6,0.3c-0.1,0-0.3,0-0.3,0.1s0.3,0.4,0.3,0.6c0,0.2-0.1,0.3-0.2,0.5
					c-0.1,0.2-0.2,0.4-0.4,0.6c-0.3,0.4-0.6,0.9-0.8,1.3c-0.2,0.4-0.5,0.8-0.7,1.2c-0.4,0.9-0.9,1.9-1.2,2.9
					c-0.1,0.4-0.3,0.8-0.4,1.3c0,0.4-0.1,0.8-0.1,1.2c0,0.3,0.1,0.9,0.2,0.9c0.2,0,0.4-0.9,0.7-1.2c0.3-0.4,0.6-0.7,0.9-1.1
					c0.3-0.5,0.6-0.9,0.9-1.4s0.7-1,1.1-1.5c0.2-0.2,0.4-0.5,0.5-0.8c0.1-0.2,0.2-0.3,0.3-0.5c0.1-0.1,0.2-0.3,0.3-0.5
					c0.5-0.7,0.9-1.7,1.6-2.1c0.3-0.2,0.9-0.1,1.2,0c0.5,0.1,1.5,0.1,1.9,0.1c0.9,0,1.9-0.3,2.7-0.6c1-0.3,1.6-1.1,2-1.8
					C132.5,7.1,132.6,6.5,132.5,6z M129.3,6.4c-1,0.4-2,0.8-3.1,1c-0.2,0-0.3,0-0.5,0h-0.1c0.2-0.2,0.3-0.3,0.4-0.5
					c0.1-0.1,0.2-0.3,0.3-0.5c0.3-0.4,0.5-0.8,0.7-1.2c0.3-0.4,0.4-1.1,0.8-1.4c0.2-0.2,0.5-0.2,0.8-0.1c0.2,0.1,0.5,0.1,0.7,0.1
					c0.5,0.1,1.2,0.3,1.7,0.6c0.2,0.1,0.2,0.2,0.2,0.4C131.1,5.8,129.9,6.2,129.3,6.4z"/>
			</g>
		</g>
		<g>
			<path class="st0" d="M128.1,17.4c-0.1,0-0.3-0.1-0.3-0.4c0-0.4,0-0.8,0.1-1.1v-0.2c0-0.2,0.1-0.4,0.2-0.5l0.1-0.1
				c0.2-0.4,0.4-0.8,0.6-1.2l0.1-0.3c0.3-0.6,0.8-1.2,1.2-1.8l0.3-0.5c0.1-0.1,0.2-0.3,0.3-0.5c0.2-0.3,0.4-0.7,0.7-0.9
				c0.5-0.6,1.1-1.3,1.2-2c0,0,0.1-0.5,0.2-0.7s0.3-0.2,0.3-0.2c0.2,0,0.4,0.1,0.6,0.3c0.3,0.4,0.4,0.9,0.5,1.3v0.2
				c0,0.2,0.1,0.5,0,0.8c-0.1,0.3-0.2,0.5-0.3,0.8l-0.1,0.1c-0.4,0.8-0.8,1.7-1.5,2.6c-0.2,0.3-0.4,0.5-0.6,0.7
				c-0.1,0.1-0.3,0.3-0.4,0.4c-0.1,0.2-0.3,0.4-0.6,0.6c-0.1,0.1-0.1,0.1-0.2,0.2s-0.2,0.2-0.4,0.3c-0.4,0.3-0.7,0.5-1,0.7l-0.1,0.1
				c-0.1,0.1-0.1,0.1-0.2,0.2l-0.1,0.2c-0.1,0.1-0.2,0.3-0.3,0.4C128.5,17.3,128.3,17.4,128.1,17.4z"/>
			<path class="st0" d="M128.1,15.8c0.1-0.2,0.1-0.4,0.2-0.6c0.2-0.5,0.5-1,0.8-1.4c0.4-0.8,1-1.5,1.5-2.3c0.3-0.4,0.6-1,1-1.4
				c0.5-0.6,1.1-1.3,1.3-2.1c0-0.1,0.1-0.5,0.2-0.6c0.2-0.3,0.4,0,0.6,0.2c0.3,0.3,0.4,0.8,0.4,1.2c0,0.3,0.1,0.6,0,0.9
				s-0.2,0.6-0.3,0.9c-0.4,0.9-0.9,1.7-1.4,2.6c-0.3,0.4-0.6,0.7-0.9,1.1c-0.1,0.1-0.2,0.3-0.5,0.6c-0.2,0.2-0.4,0.3-0.6,0.5
				c-0.4,0.3-0.7,0.5-1,0.7c-0.2,0.2-0.3,0.2-0.4,0.4c-0.1,0.2-0.3,0.4-0.5,0.5c-0.2,0.2-0.5,0.5-0.5,0
				C127.9,16.6,128.1,16.1,128.1,15.8z"/>
		</g>
		<g>
			<path class="st0" d="M135.5,18.6c-0.3,0-0.6-0.1-0.9-0.3c-0.4-0.3-0.7-0.6-1-1c-0.2-0.3-0.4-0.7-0.6-1.2
				c-0.1-0.3-0.2-0.6-0.3-0.9c0-0.1-0.1-0.1-0.2-0.2s-0.3-0.3-0.3-0.4c0-0.2,0-0.3,0.1-0.3c0.1-0.2,0.4-0.2,0.6-0.2h0.1
				c0.6,0,1.2,0.3,1.7,0.6c0.1,0.1,0.2,0.1,0.3,0.2c0.1,0.1,0.2,0.1,0.3,0.2c0.2,0.1,0.4,0.2,0.6,0.3c0.1,0,0.1,0,0.2,0
				c0.6,0,1.3-0.4,1.4-1c0-0.5-0.2-0.8-0.6-1.1c-1.3-1.2-1.3-3.2-0.6-4.6c0-0.1,0.1-0.1,0.1-0.2c0.1-0.2,0.1-0.3,0.3-0.5
				c0.1-0.1,0.1-0.2,0.2-0.3s0.2-0.2,0.2-0.3c0.4-0.5,1-1,1.3-1.3c0,0,0.8-0.8,1.5-0.9c0.3-0.1,0.6-0.1,1-0.1c0.2,0,0.4,0,0.5,0
				c0.3,0,1,0.1,1.3,0.6c0.3,0.4,0.2,0.9,0,1.2l0,0c0,0-0.2,0.4-0.6,0.7L142,7.7c-0.1,0.1-0.2,0.2-0.5,0.4c-0.1,0.1-0.3,0.2-0.5,0.2
				l-0.6,0.1c-0.2,0-0.4,0.1-0.6,0.1c-0.4,0.1-1,0.4-1.3,0.7c-0.1,0.1-0.1,0.1-0.2,0.2s-0.1,0.2-0.2,0.2c-0.3,0.3-0.6,0.6-0.8,1.1
				c-0.2,0.4-0.2,0.8,0,1.2c0.2,0.3,0.4,0.5,0.6,0.8c0.1,0.2,0.3,0.3,0.4,0.5c0.3,0.4,0.4,1.2,0.4,1.6c-0.1,0.6-0.5,1.2-0.7,1.5
				c-0.2,0.2-0.3,0.4-0.5,0.6c-0.1,0.2-0.3,0.3-0.4,0.5l-0.1,0.2c-0.2,0.3-0.4,0.6-0.7,0.8C135.9,18.6,135.7,18.6,135.5,18.6z"/>
			<path class="st0" d="M135,15.1c0.3,0.2,0.6,0.4,1,0.5c0.7,0.1,1.7-0.4,1.8-1.2c0.1-0.6-0.3-0.9-0.7-1.3c-1.2-1.1-1.2-3-0.6-4.4
				c0.1-0.3,0.2-0.5,0.3-0.7c0.2-0.2,0.3-0.4,0.5-0.6c0.3-0.4,0.8-0.9,1.3-1.2c0,0,0.8-0.7,1.4-0.9c0.5-0.1,0.9-0.1,1.4-0.1
				c0.4,0,0.9,0.1,1.2,0.5c0.2,0.3,0.2,0.7,0,1c0,0-0.1,0.4-0.5,0.7c-0.1,0.1-0.2,0.3-0.6,0.4c-0.1,0-0.2,0.1-0.5,0.2
				c0,0-0.4,0.1-0.6,0.1s-0.4,0.1-0.6,0.1c-0.4,0.1-1.1,0.4-1.4,0.7c-0.1,0.1-0.3,0.3-0.4,0.4c-0.3,0.3-0.6,0.8-0.8,1.2
				c-0.2,0.4-0.2,0.9,0,1.4c0.3,0.5,0.7,0.9,1,1.3c0.2,0.3,0.4,1.1,0.3,1.5c0,0.5-0.4,1-0.6,1.4c-0.3,0.4-0.6,0.7-0.9,1.1
				c-0.2,0.3-0.4,0.7-0.8,0.9c-0.5,0.2-0.9,0.1-1.3-0.1s-0.6-0.5-0.9-1c-0.2-0.4-0.4-0.7-0.5-1.1c-0.1-0.3-0.2-0.6-0.3-0.9
				c-0.1-0.2-0.4-0.4-0.4-0.6c0-0.3,0.4-0.3,0.6-0.3C133.8,14.3,134.4,14.8,135,15.1z"/>
		</g>
		<g>
			<path class="st0" d="M135.2,5.7l-0.1-0.1c-0.2-0.2,0-0.9,0.1-1.3c0.2-0.5,0.4-1,0.6-1.4c0.1-0.2,0.3-0.4,0.4-0.6l0.3-0.4
				c0.2-0.3,0.3-0.6,0.4-0.9V0.9c0.1-0.3,0.2-0.9,0.6-0.9h0.1l0.1,0.1c0,0.2,0.1,0.4,0.2,0.5c0.1,0.2,0.2,0.5,0.2,0.7l0.1,0.3
				c0.1,0.3,0.1,0.6,0.1,1c0,0.1,0,0.3,0,0.4c0,0.4,0,0.7-0.2,1.1c-0.2,0.3-0.5,0.6-0.9,0.9c-0.3,0.2-0.8,0.3-1,0.3h-0.1
				c-0.1,0-0.1,0-0.2,0h-0.1c-0.1,0-0.2,0.1-0.3,0.1c-0.1,0-0.2,0.1-0.2,0.1h-0.1l0,0V5.7z"/>
			<path class="st0" d="M136,3c0.2-0.3,0.4-0.6,0.7-0.9c0.2-0.3,0.3-0.6,0.4-0.9c0.1-0.2,0.2-0.9,0.5-0.9c0.1,0.4,0.4,0.8,0.4,1.3
				c0.1,0.5,0.2,0.8,0.2,1.3s0.1,0.9-0.2,1.4c-0.2,0.3-0.5,0.6-0.9,0.8c-0.3,0.2-0.6,0.2-0.9,0.3c-0.1,0-0.3,0-0.4,0
				s-0.3,0.1-0.4,0.2c-0.3,0.1,0-1,0.1-1.1C135.6,3.9,135.8,3.4,136,3z"/>
		</g>
		<g>
			<path class="st0" d="M139.7,18.9l-0.1-0.1c-0.3-0.4,0.6-2.8,0.6-2.9c0.4-1,0.8-1.9,1.3-2.8c0,0,0-0.1,0.1-0.1
				c0-0.1,0.1-0.2,0.1-0.3c0,0.1-0.1,0.1-0.2,0.1s-0.2,0-0.3,0c-0.4,0-0.9-0.1-1.1-0.2c-0.5-0.1-1-0.2-1.4-0.7
				c-0.3-0.3-0.5-1-0.1-1.4c0.1-0.1,0.2-0.1,0.3-0.1c0.2,0,0.3,0.2,0.3,0.2s0,0.1,0.1,0.1c0.1,0.1,0.2,0.1,0.3,0.1
				c0.4,0,0.8-0.1,1.1-0.2l0.3-0.1c0.5-0.2,0.9-0.3,1.3-0.4c0.3-0.1,0.8-0.2,1.1-0.6c0.3-0.3,0.4-0.6,0.6-0.9
				c0.1-0.1,0.1-0.2,0.2-0.4c0.1-0.1,0.2-0.2,0.2-0.4c0.1-0.2,0.2-0.3,0.3-0.5c0.1-0.2,0.3-0.5,0.5-0.7c0.1-0.1,0.2-0.3,0.3-0.5
				c0.1-0.2,0.3-0.4,0.4-0.6c0.1-0.2,0.2-0.4,0.3-0.5c0.1-0.1,0.1-0.2,0.2-0.3c0.2-0.3,0.4-0.5,0.5-0.8c0-0.1,0-0.2,0-0.3
				c0-0.3,0.1-0.7,0.4-1c0.1-0.1,0.2-0.1,0.3-0.1c0.3,0,0.6,0.3,0.8,0.6c0.4,0.8,0.1,1.5-0.1,2.2l-0.1,0.3c-0.2,0.6-0.4,1.1-0.7,1.6
				c-0.1,0.1-0.1,0.2-0.2,0.4c-0.2,0.3-0.4,0.6-0.4,0.9c0.1,0,0.3-0.1,0.4-0.1c0.2-0.1,0.3-0.1,0.5-0.1c0.1,0,0.2,0,0.3-0.1
				c0.4-0.1,0.7-0.2,1.1-0.3s0.7-0.3,0.9-0.6l0.2-0.2c0.5-0.4,0.8-0.5,1.2-0.7c0.4-0.2,1-0.3,1.4-0.3V6l0.1-0.1
				c0.1-0.1,0.2-0.1,0.3-0.1c0.2,0,0.3,0.1,0.4,0.2c0.1,0.3,0.5,0.9,0.5,1.5c0,0.4,0,0.5,0,0.7v0.1c0,0.5-0.2,0.7-0.2,0.7
				c0,0.2-0.3,0.6-0.8,1.1c-0.6,0.6-1.5,0.8-2.3,1l-0.3,0.1c-0.4,0.1-0.8,0.1-1.1,0.3c-0.4,0.2-0.5,0.6-0.7,1l-0.2,0.4
				c-0.1,0.2-0.2,0.4-0.3,0.6c-0.2,0.4-0.5,0.8-0.6,1.3c-0.1,0.2,0,0.6,0.2,0.7c0.1,0,0.2,0,0.4,0c0.3,0,0.7-0.1,1-0.2
				s0.7-0.3,0.9-0.7l0.1-0.1c0.2-0.2,0.3-0.4,0.4-0.5s0.2-0.2,0.3-0.3l0.2-0.2c0.3-0.3,0.6-0.7,0.9-1.2c0.3-0.4,0.5-0.7,0.8-1.1
				c0.1-0.2,0.3-0.4,0.5-0.6c0.3-0.3,0.5-0.5,0.7-0.8l0.3-0.5c0.4-0.6,0.8-1.2,1.2-1.8c0.1-0.1,0.2-0.4,0.3-0.5
				c0.1-0.1,0.1-0.2,0.2-0.4c0-0.3,0.1-0.5,0.3-0.6l0,0h0.1c0.1,0,0.1,0,0.2,0.1c0.3,0.3,0.4,1.4,0.3,1.8c0,0.3-0.1,0.6-0.2,0.9
				c-0.1,0.2-0.1,0.4-0.2,0.6c0.1,0,0.1-0.1,0.2-0.1c0.1-0.1,0.1-0.1,0.2-0.1c0.1-0.1,0.2-0.1,0.3-0.2c0.2-0.1,0.3-0.2,0.5-0.3
				c0.1-0.1,0.2-0.1,0.3-0.2c0.2-0.1,0.3-0.2,0.5-0.2c0.5-0.4,1.2-0.7,1.8-1c0.2-0.1,0.4-0.2,0.5-0.3l0.1-0.1
				c0.1-0.1,0.1-0.2,0.3-0.3c0.2-0.1,0.4-0.1,0.5-0.1c0.3,0,0.5,0.1,0.7,0.3c0.4,0.4,0.5,1.2,0.4,1.8v0.2c-0.2,1-0.3,2-0.7,2.9
				c-0.2,0.5-0.4,1-0.6,1.4c-0.1,0.4-0.3,0.7-0.5,1c-0.1,0.2-0.2,0.4-0.3,0.6c-0.4,0.8-1,1.4-1.7,2c-0.2,0.2-0.4,0.3-0.6,0.5
				c-0.2,0.1-0.3,0.2-0.5,0.3c-0.2,0.1-0.3,0.2-0.4,0.2h-0.1l-0.1,0.1c-0.2,0.1-0.4,0.2-0.6,0.2l0,0c-0.2,0-0.4-0.1-0.5-0.3
				c-0.1-0.2-0.1-0.5,0-0.7c0-0.3,0.2-0.9,0.4-1.3c0.1-0.2,0.2-0.3,0.3-0.5c0.1-0.2,0.2-0.3,0.2-0.4l0.1-0.2
				c0.2-0.4,0.5-0.8,0.7-1.1l0.4-0.6c0.2-0.2,0.4-0.5,0.5-0.7c0.2-0.2,0.4-0.5,0.5-0.8c0.1-0.1,0.4-0.5,0.4-0.5
				c0.2-0.3,0.5-0.7,0.7-1c0.1-0.2,0.2-0.3,0.2-0.5c0.1-0.2,0.2-0.4,0.3-0.6c0.1-0.1,0.1-0.4,0-0.5l-0.1-0.1c-0.1,0-0.2,0.1-0.3,0.1
				c-0.2,0.1-0.4,0.3-0.7,0.4l-0.3,0.2c-0.4,0.2-0.9,0.6-1.4,1c-0.4,0.3-0.9,0.8-1.3,1.2l-0.3,0.3c-0.2,0.2-0.3,0.3-0.5,0.5
				l-0.2,0.2c-0.2,0.2-0.5,0.5-0.7,0.7c-0.1,0.1-0.2,0.2-0.3,0.3c-0.1,0.1-0.2,0.2-0.3,0.3c-0.1,0.1-0.2,0.2-0.4,0.4l-0.1,0.1
				c-0.3,0.3-0.5,0.6-0.7,0.8l-0.2,0.2c-0.6,0.7-1.3,1.4-2,2c-0.1,0.1-0.2,0.2-0.3,0.3c-0.1,0.1-0.3,0.3-0.4,0.4
				c-0.2,0.1-0.3,0.2-0.5,0.2s-0.5-0.2-0.7-0.5c-0.1-0.1-0.1-0.2-0.1-0.3c0,0,0-0.1-0.1-0.1c0,0,0,0-0.1,0.1
				c-0.3,0.3-0.7,0.5-1.1,0.5c-0.3,0-0.6-0.1-0.9-0.3c-0.2-0.2-0.4-0.3-0.5-0.5c-0.3-0.5-0.5-1.1-0.6-1.5c-0.1-0.5-0.1-1,0-1.5v-0.2
				c0-0.6,0.3-1.1,0.6-1.6c0.2-0.5,0.6-1.1,1-1.5l0.1-0.1c-0.1,0-0.1,0-0.2,0.1l-0.1,0.1c-0.2,0.1-0.4,0.2-0.7,0.4
				c-0.2,0.2-0.4,0.3-0.7,0.5c-0.3,0.2-0.6,0.4-1,0.7c-0.3,0.2-0.6,0.8-0.8,1.2c-0.1,0.1-0.1,0.2-0.2,0.3l-0.2,0.4
				c-0.2,0.3-0.3,0.6-0.5,0.9l-0.3,0.5c-0.5,0.7-0.9,1.4-1.5,2.1c-0.3,0.4-0.6,0.7-0.9,0.9c-0.1,0.1-0.3,0.2-0.4,0.3l-0.1,0.1
				l-0.1,0.1c-0.2,0.2-0.3,0.3-0.5,0.3L139.7,18.9z M150.6,9.8c0.1,0,0.3,0,0.4-0.1c0.4-0.3,0.8-0.6,1.3-0.8l0.3-0.2
				c0.4-0.3,0.7-0.7,0.7-0.9c0-0.1,0-0.1,0-0.2c-0.1-0.1-0.3-0.1-0.4-0.1s-0.3,0-0.5,0.1c-0.1,0.1-0.6,0.4-0.9,0.7s-0.5,0.5-0.7,0.8
				c-0.1,0.1-0.2,0.3-0.3,0.4C150.4,9.5,150.4,9.7,150.6,9.8C150.5,9.8,150.5,9.8,150.6,9.8C150.5,9.8,150.5,9.8,150.6,9.8z"/>
			<path class="st0" d="M161.7,6.7c-0.2,0.1-0.2,0.2-0.4,0.4c-0.1,0.2-0.4,0.3-0.6,0.3c-0.6,0.3-1.2,0.6-1.8,1
				c-0.2,0.2-0.5,0.3-0.8,0.4c-0.3,0.2-0.6,0.4-0.8,0.5c-0.2,0.1-0.5,0.4-0.7,0.4c0-0.6,0.4-1.1,0.4-1.8c0-0.6-0.1-1.8-0.4-1.7
				c-0.1,0.1-0.1,0.3-0.2,0.5c0,0.2-0.1,0.4-0.2,0.5c-0.1,0.2-0.2,0.4-0.3,0.5c-0.5,0.8-1,1.5-1.6,2.3c-0.4,0.5-0.9,1-1.2,1.4
				c-0.3,0.3-0.5,0.7-0.8,1.1s-0.6,0.8-0.9,1.2c-0.2,0.2-0.3,0.3-0.4,0.5c-0.1,0.1-0.3,0.4-0.5,0.6c-0.3,0.3-0.6,0.6-1,0.7
				c-0.5,0.1-1,0.2-1.5,0.1c-0.4-0.1-0.4-0.6-0.4-0.9c0.1-0.5,0.4-0.9,0.6-1.3c0.1-0.2,0.2-0.5,0.3-0.7c0.2-0.5,0.4-1,0.9-1.3
				c0.4-0.3,0.9-0.3,1.4-0.4c0.8-0.2,1.6-0.4,2.2-1c0.3-0.3,0.7-0.7,0.8-1.1c0,0,0.1-0.2,0.2-0.6c0-0.2,0.1-0.2,0-0.8
				c0-0.4-0.3-1-0.5-1.4c-0.1-0.1-0.3-0.2-0.4-0.1c0,0,0.1,0.2-0.2,0.3c-0.5,0-1,0.1-1.4,0.3s-0.7,0.3-1.1,0.7
				c-0.4,0.3-0.7,0.6-1.1,0.8c-0.4,0.1-0.8,0.2-1.2,0.3c-0.3,0.1-0.5,0.1-0.8,0.2c-0.2,0.1-0.5,0.2-0.7,0.1c0-0.5,0.5-1.1,0.7-1.6
				c0.3-0.5,0.5-1,0.7-1.6c0.2-0.7,0.6-1.6,0.2-2.4c-0.1-0.3-0.5-0.6-0.8-0.4c-0.3,0.2-0.2,0.8-0.3,1.2c-0.1,0.5-0.5,0.8-0.7,1.2
				s-0.4,0.8-0.7,1.2c-0.3,0.4-0.6,0.8-0.8,1.2c-0.2,0.3-0.4,0.6-0.6,0.9c-0.3,0.5-0.5,0.9-0.9,1.3c-0.3,0.3-0.8,0.5-1.2,0.6
				c-0.6,0.1-1.1,0.3-1.6,0.5c-0.4,0.1-0.8,0.2-1.2,0.2c-0.2,0-0.3-0.1-0.5-0.2c-0.1-0.1-0.2-0.4-0.4-0.2c-0.3,0.3-0.1,0.9,0.1,1.1
				c0.4,0.4,0.8,0.5,1.3,0.6c0.3,0.1,0.9,0.2,1.3,0.1c0.2,0,0.4-0.1,0.4,0.1s-0.2,0.4-0.2,0.5c-0.5,0.9-0.9,1.8-1.3,2.8
				c-0.1,0.3-0.9,2.7-0.6,2.7c0.1,0,0.3-0.3,0.4-0.4c0.2-0.1,0.3-0.3,0.5-0.4c0.3-0.3,0.6-0.6,0.9-0.9c0.7-0.8,1.2-1.6,1.8-2.5
				c0.3-0.4,0.5-0.9,0.8-1.3c0.2-0.4,0.6-1.2,1-1.6c0.7-0.5,1.2-0.8,1.7-1.2c0.4-0.3,0.6-0.3,0.9-0.5c0,0,0.6-0.2,0.7-0.2
				c0,0-0.2,0.3-0.4,0.5c-0.4,0.4-0.7,1-1,1.5s-0.5,1-0.5,1.6s-0.1,1.2,0,1.7s0.2,1,0.5,1.5c0.1,0.2,0.3,0.3,0.4,0.4
				c0.6,0.4,1.2,0.3,1.7-0.2c0.4-0.4,0.4,0,0.6,0.4s0.5,0.5,0.9,0.2c0.3-0.2,0.5-0.5,0.8-0.7c0.7-0.6,1.4-1.3,2-2
				c0.3-0.3,0.6-0.7,0.9-1c0.2-0.2,0.3-0.3,0.5-0.5s0.4-0.5,0.6-0.7s0.5-0.5,0.7-0.7s0.5-0.5,0.7-0.7c0.5-0.5,1.1-1.1,1.6-1.5
				c0.4-0.4,1-0.7,1.4-1c0.3-0.2,0.7-0.5,1-0.6c0.2-0.1,0.5-0.2,0.7,0s0.2,0.6,0.1,0.8c-0.2,0.4-0.4,0.7-0.6,1.1s-0.5,0.8-0.8,1.2
				c-0.3,0.4-0.5,0.8-0.8,1.2c-0.2,0.3-0.6,0.8-0.8,1.1c-0.3,0.4-0.6,0.8-0.9,1.3c-0.1,0.2-0.3,0.4-0.4,0.6s-0.2,0.3-0.3,0.5
				c-0.2,0.3-0.3,0.8-0.4,1.2c0,0.2-0.1,0.4,0,0.6c0.2,0.4,0.7,0,1-0.1c0.2-0.1,0.3-0.1,0.5-0.3c0.4-0.3,0.7-0.5,1.1-0.8
				c0.7-0.5,1.2-1.1,1.6-1.9c0.3-0.5,0.6-1,0.9-1.5c0.2-0.5,0.4-0.9,0.6-1.4c0.4-1,0.5-2.1,0.7-3.1C163.1,7.7,162.8,6.2,161.7,6.7z
				 M150.3,9.3c0.4-0.5,0.7-0.8,1.1-1.2c0,0,0.7-0.6,0.9-0.7c0.4-0.2,0.9-0.2,1.1,0.1c0.3,0.3-0.1,1-0.7,1.4s-1.1,0.7-1.6,1
				c-0.2,0.2-0.6,0.2-0.7,0.1C150.2,9.7,150.2,9.5,150.3,9.3z"/>
		</g>
		<g>
			<path class="st0" d="M162.8,20.1c-0.1,0-0.3,0-0.4-0.3c-0.2-0.4,0-1,0.1-1.4l0.1-0.2c0.1-0.6,0.4-1.2,0.7-1.9
				c0.7-1.3,1.3-2.5,2-3.5c0.3-0.4,0.5-0.7,0.7-1l0.3-0.4c0.1-0.2,0.3-0.4,0.4-0.6c0.2-0.2,0.4-0.4,0.5-0.7c0.3-0.5,0.7-0.9,1-1.4
				c0.3-0.4,0.6-0.8,0.9-1.3c0.1-0.1,0.1-0.2,0.2-0.3l0.1-0.1c-0.1,0-0.1,0-0.2,0h-0.1c-0.2,0-0.3,0-0.5,0c-0.3,0-0.5,0-0.8,0h-0.1
				c-0.5,0-0.9-0.1-1.1-0.3l-0.2-0.2l0.2-0.1c0.2-0.1,0.6-0.2,0.7-0.2c0.2,0,0.3-0.1,0.5-0.1h0.2c0.4-0.1,0.9-0.2,1.5-0.5l0.2-0.1
				c0.1-0.1,0.3-0.1,0.4-0.2c0.1,0,0.1-0.1,0.1-0.1c0-0.1,0.1-0.2,0.2-0.2s0.2-0.1,0.3-0.1c0.1,0,0.1,0,0.2,0h0.1
				c0.5-0.1,1-0.8,1.3-1.1c0.2-0.2,0.3-0.4,0.4-0.6l0.1-0.1c0.1-0.1,0.1-0.2,0.2-0.3l0.1-0.2l0.1-0.1c0.1-0.1,0.3-0.3,0.2-0.4l0,0
				c0,0-0.1,0-0.4-0.1c-0.2,0-0.4,0-0.7,0c-0.3,0-0.5,0-0.8,0h-0.3c-0.4,0-0.8,0-1.3-0.1h-0.2h-0.1c-0.2,0-0.4,0-0.6,0.1
				c-0.2,0-0.4,0.1-0.7,0.1h-0.4c-1.1,0-2.2,0.1-3.5,0.3h-0.3c-0.4,0-0.9,0.1-1.2,0.2h-0.1c-0.5,0.2-0.7,0.3-0.7,0.7
				c0,0,0,0.1,0.1,0.2c0.1,0.2,0.2,0.3,0.1,0.5c-0.1,0.3-0.5,0.4-0.8,0.4h-0.1c-0.2,0.1-0.4,0.1-0.5,0.1s-0.2,0-0.3,0
				c-0.2,0-0.3,0-0.4,0s-0.2,0-0.3,0c-0.4-0.1-0.7-0.6-0.9-0.9c-0.1-0.3-0.1-0.7,0-0.9s0.3-0.5,0.5-0.7c0.4-0.4,1-0.5,1.5-0.6
				s0.9-0.2,1.3-0.3c0.3-0.1,0.6-0.2,0.9-0.3c0.7-0.3,1.5-0.5,2.3-0.6c1.2-0.1,2.2-0.2,3.2-0.2c0.2,0,0.8,0,1,0c0.4,0,0.8,0,1.2,0
				c0.4,0,0.8,0,1.2,0c0.4,0,0.9,0,1.3,0h0.1c1.3,0.1,2.7,0.2,4,0.5c0.1,0,0.2,0,0.3,0c0.2,0,0.4,0,0.6,0.1l0.2,0.1
				c0.5,0.2,1,0.3,1.4,0.6c0.2,0.1,0.3,0.2,0.4,0.3c0.3,0.2,0.6,0.3,0.9,0.6c0.3,0.4,0.5,0.7,0.5,1.3c0,1.1-0.4,1.9-1.2,2.5
				l-0.1,0.1c-0.3,0.2-0.7,0.5-1,0.7c0,0-0.4,0.2-0.8,0.3c-0.2,0.1-0.5,0.1-0.7,0.2c-0.4,0.1-0.7,0.2-1.2,0.3l-0.4,0.1
				c-0.1,0-0.2,0-0.3,0.1c-0.2,0-0.3,0.1-0.5,0.1c0,0-0.1,0-0.2,0l0,0c0.2,0.1,0.3,0.3,0.5,0.4c0.4,0.2,0.7,0.5,0.9,0.8
				c0.1,0.1,0.2,0.2,0.3,0.3c0.1,0.1,0.2,0.2,0.3,0.3c0.2,0.2,0.4,0.4,0.5,0.6c0.2,0.3,0.4,0.5,0.5,0.8c0.1,0.2,0.2,0.4,0.2,0.6
				c0.2,0.6,0.4,1.1,0.3,1.6c-0.2,1.1-0.9,2.1-1.8,2.7l-0.2,0.1c-0.4,0.2-0.8,0.5-1.2,0.7c-0.2,0.1-0.6,0.3-0.8,0.4
				c-0.2,0.1-0.5,0.2-0.7,0.2l-0.4,0.1c-0.4,0.1-0.8,0.2-1.3,0.3c-0.1,0-0.2,0-0.3,0c-0.2,0-0.3,0-0.4-0.1c-0.2-0.1-0.3-0.2-0.4-0.3
				l-0.1-0.1c-0.4-0.4-0.8-0.8-1-1.1c-0.3-0.5-0.3-1-0.3-1.5v-0.2c0-0.6,0-1.4,0.7-1.7c0.4-0.2,0.7-0.5,0.8-0.9c0-0.2,0-0.3,0.1-0.4
				l0.1-0.1l0.1,0.1c0.4,0.3,0.7,0.6,0.8,1.1c0,0.1,0.1,0.2,0.1,0.2c0.1,0.1,0.1,0.3,0.1,0.5v0.1c0,0.1,0.1,0.4,0.1,0.5
				c0.1,0.2,0.4,0.3,0.8,0.3c0.1,0,0.3,0,0.4,0h0.3c0.4,0,0.8,0,1.2-0.2c0.2-0.1,0.4-0.2,0.6-0.3c0.1-0.1,0.3-0.2,0.4-0.3l0.2-0.1
				c0.4-0.3,0.6-0.7,0.7-1.1c0.1-0.9-0.6-1.6-1.5-2.2l-0.2-0.1c-0.3-0.2-0.6-0.4-0.9-0.6c-0.4-0.2-0.8-0.4-1.2-0.5
				c-0.4-0.1-0.8-0.2-1.2-0.2l0,0c-0.3,0-0.4,0.1-0.6,0.4c-0.1,0.2-0.2,0.3-0.3,0.5c-0.1,0.2-0.3,0.5-0.5,0.7
				c-0.3,0.4-0.6,0.8-0.9,1.3l-0.3,0.4c-0.1,0.1-0.2,0.3-0.2,0.4c-0.2,0.3-0.4,0.6-0.7,1.1c-0.1,0.2-0.3,0.3-0.4,0.5
				c-0.2,0.3-0.4,0.5-0.7,0.8c-0.3,0.3-0.9,1-1.3,1.5l-0.3,0.4c-0.2,0.2-0.3,0.4-0.5,0.6c-0.2,0.3-0.4,0.5-0.7,0.8l-0.2,0.2
				c-0.2,0.2-0.4,0.4-0.5,0.6c-0.2,0.3-0.4,0.5-0.7,0.8c0,0-0.1,0.1-0.1,0.2C163.3,19.8,163,20.1,162.8,20.1z M174.5,5.2
				c0.3,0,0.7-0.1,1-0.1c0.1,0,0.3-0.1,0.3-0.1c1.5-0.2,2.9-0.8,3.8-1.3c0.6-0.3,0.6-0.5,0.6-0.5s0-0.1-0.1-0.1
				c-0.3-0.2-0.8-0.2-1.2-0.3h-0.2c-0.3,0-0.6-0.1-0.9-0.1c-0.8-0.1-1.6-0.2-2.3-0.3h-0.1c-0.1,0-0.2,0-0.3,0c-0.2,0-0.3,0-0.3,0
				c0,0.1,0,0.4,0,0.6c0,0.2,0,0.4,0,0.6l0,0c0,0,0,0.4-0.2,1v0.1C174.5,4.8,174.4,5,174.5,5.2C174.4,5.2,174.4,5.2,174.5,5.2
				C174.4,5.2,174.5,5.2,174.5,5.2z"/>
			<path class="st0" d="M181.5,3.7c0-0.5-0.2-0.8-0.5-1.2c-0.4-0.4-0.8-0.6-1.3-0.9c-0.4-0.3-1-0.5-1.5-0.6
				c-0.3-0.1-0.6-0.1-0.9-0.2c-1.4-0.3-2.7-0.4-4.1-0.5s-2.7,0-4.1,0c-1.2,0-2.5,0-3.7,0.2c-1.1,0.1-2.1,0.6-3.1,0.9
				c-0.4,0.1-0.9,0.2-1.3,0.3c-0.5,0.1-1,0.2-1.4,0.6c-0.2,0.2-0.3,0.4-0.4,0.6c-0.1,0.2-0.1,0.5,0,0.7c0.1,0.3,0.4,0.7,0.7,0.8
				c0.2,0.1,0.5,0,0.7,0c0.3,0,0.5,0,0.8-0.1c0.2-0.1,0.7-0.1,0.8-0.3c0.1-0.2-0.2-0.4-0.2-0.6c-0.1-0.6,0.4-0.8,0.9-0.9
				c0.5-0.2,1.1-0.2,1.6-0.3c1.3-0.2,2.5-0.3,3.8-0.3c0.5,0,1-0.2,1.5-0.1c0.5,0,1,0.1,1.6,0.1c0.5,0,1.1,0.1,1.6,0.1
				c0.2,0,0.6,0,0.6,0.2c0.1,0.2-0.2,0.5-0.4,0.7c-0.1,0.2-0.2,0.4-0.3,0.5c-0.2,0.2-0.3,0.4-0.5,0.6c-0.3,0.4-0.8,1.1-1.4,1.3
				c-0.2,0-0.4-0.1-0.6,0c-0.1,0.1-0.1,0.3-0.3,0.4c-0.2,0.1-0.4,0.2-0.6,0.2c-0.5,0.2-1,0.4-1.5,0.5c-0.3,0.1-0.4,0.1-0.7,0.1
				c0,0-0.4,0.1-0.6,0.2c0.2,0.2,0.8,0.2,1.1,0.2c0.4,0,0.8,0,1.3,0c0.1,0,0.8-0.2,0.6,0.1c-0.1,0.2-0.3,0.3-0.4,0.5
				c-0.6,0.9-1.3,1.8-1.9,2.7c-0.3,0.5-0.6,0.8-1,1.3c-0.3,0.4-0.6,0.8-1,1.4c-0.7,1.1-1.4,2.3-2,3.5c-0.3,0.6-0.5,1.2-0.7,1.9
				c-0.1,0.5-0.3,1-0.1,1.5c0.2,0.5,0.6-0.3,0.8-0.5c0.4-0.4,0.8-0.9,1.2-1.4c0.3-0.3,0.5-0.6,0.8-0.9s0.6-0.7,0.8-1
				c0.5-0.6,1-1.2,1.3-1.5c0.4-0.4,0.7-0.8,1-1.3c0.5-0.6,0.7-0.9,1-1.4c0.4-0.6,0.7-1.2,1.2-1.7c0.3-0.4,0.5-0.8,0.8-1.2
				c0.2-0.3,0.4-0.5,0.8-0.5c0.5,0,0.8,0.1,1.3,0.2c0.4,0.1,0.8,0.3,1.3,0.5c0.4,0.2,0.7,0.5,1.1,0.7c0.7,0.5,1.7,1.3,1.5,2.4
				c-0.1,0.5-0.4,0.9-0.7,1.2c-0.2,0.2-0.4,0.3-0.6,0.5c-0.2,0.1-0.4,0.3-0.6,0.4c-0.5,0.2-1,0.2-1.5,0.2s-1.2,0.1-1.5-0.4
				c-0.1-0.2-0.1-0.5-0.2-0.7c0-0.3-0.2-0.4-0.2-0.7c-0.1-0.4-0.3-0.7-0.7-1c-0.1,0.1-0.1,0.2-0.1,0.3c-0.1,0.5-0.4,0.8-0.9,1
				c-0.6,0.3-0.6,1-0.6,1.6c0,0.5-0.1,1.1,0.2,1.6c0.2,0.4,0.6,0.8,1,1.1c0.2,0.1,0.3,0.3,0.5,0.4s0.5,0,0.7,0
				c0.6-0.1,1.1-0.2,1.7-0.4c0.2-0.1,0.5-0.1,0.7-0.2s0.6-0.2,0.8-0.4c0.5-0.2,0.9-0.5,1.4-0.8c1-0.6,1.6-1.5,1.7-2.6
				c0.1-0.5-0.1-1-0.2-1.4c-0.1-0.2-0.2-0.4-0.3-0.7c-0.1-0.3-0.3-0.5-0.4-0.7c-0.2-0.2-0.4-0.5-0.6-0.7s-0.4-0.3-0.6-0.5
				c-0.3-0.3-0.5-0.5-0.9-0.7c-0.2-0.1-0.4-0.3-0.6-0.5c0-0.2,0.2-0.3,0.4-0.3c0.3,0,0.5-0.1,0.8-0.2c0.6-0.1,1.1-0.2,1.5-0.4
				c0.2-0.1,0.5-0.1,0.7-0.2c0.4-0.1,0.8-0.3,0.8-0.3c0.4-0.2,0.8-0.5,1.1-0.7C181.2,5.5,181.5,4.7,181.5,3.7z M179.7,3.9
				c-1.2,0.6-2.5,1.2-3.8,1.3c-0.3,0-1.5,0.3-1.6,0.1s0.1-0.7,0.2-0.8c0.2-0.6,0.2-1,0.2-1c0-0.3-0.1-0.9,0-1.2s0.6-0.2,0.9-0.2
				c1.1,0,2.2,0.2,3.3,0.4c0.5,0.1,1,0.1,1.4,0.3C180.7,3.2,180,3.7,179.7,3.9z"/>
		</g>
		<g>
			<path class="st0" d="M180.2,18c-0.8,0-1.3-1.1-1.4-1.7c-0.1-1.1,0.1-2.1,0.6-3.1l0.1-0.3c0.2-0.4,0.4-0.8,0.7-1.2
				c0.3-0.5,0.7-1,1.1-1.5s0.7-1,1-1.5c0.1-0.2,0.3-0.4,0.4-0.6c0.1-0.2,0.3-0.3,0.4-0.5s0.2-0.3,0.3-0.5c0.1-0.3,0.3-0.5,0.5-0.8
				c0.1-0.1,0.1-0.2,0.1-0.2c0.2-0.3,0.4-0.7,0.9-0.8c0.1,0,0.1,0,0.2,0c0.5,0,0.8,0.3,0.9,0.9c0.1,0.5-0.2,1-0.5,1.3
				c-0.2,0.2-0.2,0.4-0.3,0.6c-0.1,0.2-0.2,0.4-0.3,0.6c-0.4,0.6-0.7,1.2-1.1,1.9c-0.1,0.2-0.2,0.4-0.3,0.7
				c-0.1,0.1-0.2,0.3-0.2,0.4c-0.1,0.2-0.2,0.4-0.3,0.6c0.1-0.1,0.2-0.2,0.3-0.3c0.1-0.1,0.2-0.2,0.3-0.3c0.4-0.4,0.8-0.8,1.3-1.3
				c0.6-0.7,1.3-1.2,1.9-1.7l0.6-0.5c0.3-0.3,0.6-0.5,1.1-0.5c0.1,0,0.1,0,0.2,0c0.3,0,0.8,0.1,1.2,0.4c0.7,0.7,0.4,1.7,0.2,2.4
				l-0.1,0.2c-0.3,1.1-0.6,2.1-1.1,3c-0.4,0.9-1,1.6-1.6,2.5c-0.2,0.3-0.6,0.6-0.9,0.9l-0.2,0.2c-0.2,0.2-0.5,0.4-0.9,0.4
				c-0.2,0-0.3-0.1-0.5-0.2c-0.4-0.2-0.6-0.7-0.7-1c0-0.2,0-0.4,0-0.5c0,0,0-0.1,0-0.2s0-0.2,0-0.3c0-0.1,0-0.3,0.1-0.4
				c0.2-0.5,0.5-0.9,0.9-1.2c0.2-0.2,0.6-0.9,0.9-1.2c0.2-0.4,0.5-0.7,0.8-1.1c0.3-0.5,0.6-0.9,0.8-1.2c0-0.1,0.1-0.1,0.1-0.2
				c0.2-0.3,0.5-0.7,0.4-0.9c0,0,0,0-0.1,0c-0.2,0-0.3,0.2-0.4,0.2c-0.4,0.3-0.6,0.5-0.9,0.9c-0.1,0.2-0.3,0.3-0.4,0.5
				c-0.2,0.2-0.3,0.4-0.5,0.6c-0.1,0.1-0.1,0.2-0.2,0.3c0,0.1-0.1,0.1-0.1,0.2c-0.1,0.1-0.2,0.3-0.3,0.4l-0.1,0.1
				c-0.3,0.4-0.6,0.8-0.9,1.2l-0.5,0.7c-0.4,0.6-0.8,1.2-1.3,1.7c-0.3,0.4-0.6,0.8-1,1c-0.1,0.1-0.2,0.2-0.4,0.2
				c-0.2,0.2-0.5,0.4-0.8,0.4C180.3,17.9,180.3,18,180.2,18z"/>
			<path class="st0" d="M179.7,13.3c0.3-0.5,0.5-1,0.8-1.5s0.7-1,1.1-1.4c0.4-0.5,0.7-1,1-1.5c0.2-0.4,0.6-0.7,0.8-1.2
				c0.2-0.4,0.5-0.8,0.7-1.2s0.4-0.9,0.9-0.9c0.5-0.1,0.8,0.2,0.9,0.7s-0.2,0.8-0.5,1.2s-0.4,0.8-0.6,1.2c-0.6,0.8-0.9,1.7-1.4,2.6
				c-0.3,0.5-0.8,1.2-0.8,1.7c0.3-0.1,0.3-0.3,0.5-0.5s0.5-0.4,0.7-0.6c0.5-0.4,0.9-0.9,1.3-1.3c0.7-0.8,1.6-1.4,2.4-2
				c0.4-0.3,0.7-0.6,1.2-0.6c0.4,0,0.9,0.1,1.2,0.4c0.6,0.7,0.3,1.7,0.1,2.5c-0.2,1-0.6,2-1,2.9s-1,1.6-1.6,2.4
				c-0.3,0.4-0.7,0.8-1.1,1.1c-0.4,0.3-0.7,0.5-1.2,0.3c-0.3-0.2-0.5-0.5-0.6-0.9c-0.1-0.3,0-0.4,0.1-0.6s0-0.5,0.1-0.7
				c0.1-0.4,0.5-0.8,0.9-1.1c0.2-0.2,0.5-0.7,0.9-1.3c0.2-0.4,0.5-0.7,0.8-1.1s0.6-0.8,0.8-1.3c0.2-0.3,0.7-1,0.5-1.3
				c-0.2-0.5-0.7,0-0.9,0.2c-0.3,0.3-0.6,0.5-0.9,0.9c-0.3,0.3-0.6,0.7-0.9,1.1c-0.2,0.2-0.2,0.3-0.3,0.5c-0.1,0.2-0.2,0.3-0.4,0.5
				c-0.3,0.4-0.6,0.8-0.9,1.2c-0.6,0.8-1.2,1.6-1.8,2.4c-0.3,0.4-0.6,0.7-1,1c-0.3,0.2-0.7,0.6-1.1,0.7c-0.7,0.1-1.2-0.9-1.3-1.5
				C179,15.2,179.2,14.2,179.7,13.3z"/>
		</g>
		<g>
			<path class="st0" d="M189.2,17.1c-0.1,0-0.3,0-0.4-0.1c-0.6-0.5-0.1-1.5,0.1-1.9c0.1-0.2,0.2-0.3,0.3-0.5
				c0.1-0.2,0.2-0.4,0.3-0.6c0.1-0.1,0.1-0.2,0.2-0.4c0.1-0.1,0.1-0.3,0.2-0.4s0.2-0.3,0.3-0.4c0.2-0.3,0.4-0.7,0.7-1l0.3-0.4
				c0.3-0.5,0.7-0.9,1-1.3c0.4-0.4,0.7-0.8,1-1.3c0.2-0.3,0.4-0.5,0.6-0.8c0.2-0.2,0.3-0.4,0.5-0.6c0.3-0.4,0.6-0.8,0.8-1.3l0.1-0.2
				c0.1-0.2,0.2-0.4,0.4-0.5c0.2-0.2,0.3-0.4,0.5-0.7c0.3-0.5,0.4-0.9,0.6-1.4c0.1-0.2,0.1-0.3,0.1-0.5c0,0,0-0.1,0-0.2
				c-0.1-0.3-0.1-0.5,0-0.7s0.2-0.2,0.3-0.2c0.4,0,0.8,1.1,0.8,1.1c0.3,1,0,2-0.2,3l-0.1,0.4c-0.2,0.9-0.6,1.8-1,2.7l-0.2,0.4
				c-0.4,0.9-0.7,1.5-1.1,2.1c-0.1,0.2-0.3,0.4-0.4,0.6c-0.6,1-1.1,1.4-1.1,1.4c-0.2,0.3-0.5,0.5-0.8,0.7c-0.1,0.1-0.3,0.2-0.4,0.3
				c-0.3,0.3-0.7,0.6-1,0.9s-0.7,0.7-1,1c-0.1,0.1-0.2,0.2-0.2,0.2c-0.1,0.1-0.1,0.1-0.2,0.2c-0.2,0.1-0.4,0.2-0.6,0.3
				C189.5,17,189.3,17.1,189.2,17.1z"/>
			<path class="st0" d="M189.1,15.2c0.2-0.4,0.3-0.7,0.6-1.1c0.2-0.2,0.2-0.5,0.4-0.8c0.3-0.5,0.6-1,0.9-1.5
				c0.4-0.6,0.9-1.2,1.4-1.8c0.4-0.4,0.7-0.9,1-1.3c0.3-0.5,0.8-0.9,1.1-1.4c0.3-0.4,0.6-0.9,1-1.4c0.3-0.4,0.6-0.8,0.8-1.2
				c0.3-0.5,0.5-0.9,0.6-1.4c0.1-0.2,0.1-0.4,0.1-0.6c0-0.2-0.1-0.6,0-0.7c0.3-0.5,0.7,0.8,0.7,0.9c0.3,1.1,0,2.2-0.3,3.2
				c-0.2,1-0.7,2-1.1,3c-0.5,1.2-1,1.8-1.5,2.7c-0.6,1-1,1.4-1,1.4c-0.3,0.4-0.8,0.6-1.2,1c-0.7,0.6-1.3,1.3-2,1.9
				c-0.2,0.1-0.3,0.3-0.5,0.4c-0.1,0.1-0.3,0.2-0.5,0.3c-0.2,0.1-0.4,0.1-0.5,0C188.6,16.4,188.9,15.6,189.1,15.2z"/>
		</g>
		<g>
			<path class="st0" d="M192.8,18h-0.1h-0.1l-0.1-0.1c-0.1-0.2,0-0.5,0.5-1.5l0.2-0.3c0.1-0.2,0.2-0.5,0.3-0.7
				c0-0.1,0.1-0.1,0.1-0.2s0.1-0.2,0.2-0.3c0.2-0.2,0.5-0.7,0.5-0.7c0.1-0.1,0.2-0.2,0.2-0.3c0.1-0.1,0.1-0.2,0.2-0.3
				c0.2-0.3,0.4-0.6,0.7-1c0.5-0.7,1-1.5,1.6-2.2c0.1-0.1,0.2-0.3,0.3-0.4l0.1-0.1c0.1-0.1,0.2-0.2,0.3-0.4c0.1-0.1,0.1-0.1,0.2-0.2
				c0.2-0.3,0.5-0.6,0.7-0.9l0.1-0.1c0.3-0.4,0.5-0.8,0.8-1.1l0.4-0.6c0.2-0.2,0.4-0.6,0.6-0.9c0.1-0.1,0.1-0.3,0.2-0.4
				c0,0,0.2-0.3,0.2-0.4l0.1-0.3c0.2-0.4,0.3-0.7,0.4-1l0.1-0.3c0.1-0.2,0.2-0.4,0.2-0.7c0.1-0.3,0.1-0.5,0.1-0.8V1.4h0.2h0.1
				c0.2,0,0.3,0.1,0.5,0.2c0.6,0.9-0.1,4.2-0.2,4.6c-0.5,1.8-1.2,3.9-2.4,5.7c-0.4,0.7-0.9,1.3-1.4,1.9c-0.1,0.1-0.1,0.1-0.2,0.2
				s-0.1,0.1-0.2,0.2c-0.1,0.2-0.3,0.3-0.5,0.5c-0.3,0.3-0.7,0.6-1.1,0.9c-0.1,0.1-0.2,0.2-0.4,0.3c-0.2,0.1-0.4,0.2-0.5,0.4
				c-0.2,0.1-0.3,0.3-0.5,0.4s-0.3,0.2-0.5,0.3c-0.3,0.2-0.6,0.5-0.9,0.7l-0.1,0.1C193.3,17.8,193.1,18,192.8,18z"/>
			<path class="st0" d="M193.2,16.3c0.1-0.3,0.2-0.6,0.4-0.9c0.1-0.2,0.2-0.4,0.3-0.5c0.2-0.2,0.5-0.7,0.5-0.8
				c0.2-0.2,0.2-0.3,0.4-0.5c0.7-1,1.4-2.2,2.3-3.1c0.2-0.2,0.3-0.3,0.4-0.5s0.3-0.4,0.5-0.6c0.3-0.3,0.6-0.7,0.8-1
				c0.4-0.6,0.8-1.2,1.2-1.8c0.1-0.1,0.4-0.6,0.6-0.9c0.1-0.2,0.2-0.4,0.3-0.5L201,5c0.1-0.1,0.1-0.2,0.2-0.3c0.2-0.4,0.3-0.6,0.4-1
				c0.1-0.3,0.3-0.6,0.4-1s0.1-0.6,0.1-1c1.2-0.2,0.3,4,0.1,4.5c-0.6,1.9-1.3,3.9-2.4,5.6c-0.4,0.6-0.9,1.3-1.4,1.8
				c-0.1,0.1-0.3,0.2-0.4,0.4c-0.1,0.2-0.3,0.3-0.5,0.5c-0.3,0.3-0.7,0.6-1.1,0.9c-0.3,0.2-0.7,0.4-0.9,0.7c-0.3,0.3-0.7,0.4-1,0.7
				c-0.3,0.2-0.6,0.5-0.9,0.7s-0.6,0.5-0.9,0.4C192.4,17.7,193.1,16.4,193.2,16.3z"/>
		</g>
		<g>
			<path class="st0" d="M196.8,23.5c-0.1,0-0.2-0.1-0.3-0.2c-0.2-0.2,0-0.6,0.1-1c0.2-0.6,0.5-1.1,0.9-1.7c0.2-0.3,0.4-0.6,0.6-0.8
				c0.1-0.1,0.2-0.2,0.3-0.3c0.4-0.5,0.7-0.8,1-1.1l0.3-0.3c0.4-0.4,0.7-0.7,1.1-1l0.1-0.1c0.2-0.1,0.4-0.3,0.5-0.4s0.1-0.2,0.1-0.3
				c0-0.1,0-0.1,0-0.2c0-0.2,0-0.4,0.1-0.6c0-0.3,0-0.6,0.1-0.9c0.2-1,0.6-1.9,0.9-2.9c0.1-0.2,0.1-0.4,0.2-0.6s0.1-0.4,0.2-0.6
				s0.1-0.4,0.2-0.6s0.1-0.4,0.2-0.6c0.1-0.3,0.2-0.7,0.3-1c0.1-0.5,0.1-1.1-0.3-1.3h-0.1c-0.1,0-0.2-0.1-0.4-0.2l-0.1-0.1V6.6
				c0-0.1,0.1-0.4,0.5-0.4c0.3,0,0.7,0.2,0.9,0.3c0.3,0.3,0.6,0.7,0.7,1.1c0.1,0.5,0.1,1,0.1,1.5c0,0.5,0,1.1-0.1,1.7
				c0,0.4-0.1,0.9-0.3,1.5c-0.1,0.3-0.1,0.6-0.2,1c0,0.2-0.1,0.4-0.1,0.6c-0.1,0.3-0.1,0.4-0.1,0.5l0.1-0.1c0.3-0.2,0.4-0.3,0.6-0.5
				c0.1-0.1,0.3-0.2,0.4-0.4c0.2-0.1,0.3-0.2,0.4-0.3c0.1-0.1,0.2-0.2,0.3-0.3l0.3-0.2c0.2-0.2,0.4-0.3,0.6-0.5s0.5-0.4,0.7-0.6
				c0.1-0.1,0.2-0.2,0.2-0.2c0.1-0.1,0.1-0.1,0.2-0.2l0.4-0.4c0.6-0.5,1.1-1,1.7-1.6c0.1-0.1,0.2-0.2,0.3-0.3
				c0.2-0.2,0.4-0.3,0.5-0.5s0.2-0.3,0.2-0.6c0-0.1,0.1-0.3,0.1-0.4c0.1-0.2,0.3-0.3,0.5-0.3c0.3,0,0.6,0.2,0.8,0.4
				c0.3,0.4,0.3,1.1,0.1,1.5c-0.2,0.7-0.7,1.4-1.1,2l-0.2,0.4l-0.3,0.5c-0.5,0.8-1,1.5-1.6,2.2c-0.3,0.3-0.6,0.7-0.9,1.1
				c-0.4,0.5-0.9,1.1-1.4,1.6c-0.1,0.1-0.3,0.3-0.4,0.4c-0.2,0.2-0.5,0.5-0.7,0.7c-0.4,0.3-0.8,0.6-1.2,0.8l-0.2,0.1
				c-1.1,0.7-2.2,1.2-3.3,1.8c-0.3,0.1-0.5,0.3-0.8,0.4c-0.3,0.2-0.6,0.3-0.8,0.5c-0.4,0.2-0.8,0.5-1.2,0.8l-1.2,1.1
				C197.3,23.3,197.1,23.5,196.8,23.5L196.8,23.5z"/>
			<path class="st0" d="M196.8,22.4c0.2-0.6,0.5-1.1,0.8-1.7c0.2-0.4,0.6-0.8,0.9-1.1c0.3-0.4,0.6-0.7,1-1.1
				c0.5-0.5,0.9-0.9,1.4-1.3c0.2-0.2,0.5-0.4,0.6-0.6c0.2-0.2,0.1-0.4,0.2-0.7c0.1-0.5,0-1,0.2-1.5c0.2-1,0.6-1.9,0.9-2.8
				c0.1-0.4,0.2-0.8,0.4-1.2c0.1-0.4,0.2-0.8,0.4-1.2c0.1-0.3,0.2-0.7,0.3-1c0.1-0.5,0.1-1.2-0.4-1.5c-0.2-0.1-0.3,0-0.4-0.2
				c0-0.4,0.9-0.2,1.1,0c0.3,0.2,0.5,0.6,0.6,1s0.1,1,0.1,1.4s0,0.9-0.1,1.7c-0.1,0.5-0.2,1-0.3,1.4c-0.1,0.5-0.2,1-0.3,1.6
				c0,0.1-0.1,0.5,0,0.6s0.3,0,0.5-0.1c0.4-0.2,0.7-0.6,1-0.8c0.3-0.2,0.4-0.4,0.6-0.6c0.3-0.2,0.5-0.5,0.8-0.7
				c0.2-0.2,0.5-0.4,0.7-0.6c0.2-0.1,0.3-0.3,0.5-0.4c0.7-0.7,1.4-1.3,2.1-2c0.3-0.3,0.6-0.5,0.8-0.8c0.3-0.3,0.2-0.7,0.4-1
				c0.1-0.4,0.7-0.2,1,0.1c0.3,0.4,0.2,0.9,0.1,1.3c-0.3,0.8-0.8,1.6-1.3,2.3c-0.6,0.9-1.1,1.8-1.8,2.6c-0.8,0.9-1.5,1.8-2.3,2.6
				c-0.4,0.4-0.7,0.8-1.1,1.1c-0.4,0.3-0.9,0.6-1.3,0.9c-1.1,0.6-2.2,1.2-3.3,1.8c-0.5,0.3-1.1,0.6-1.6,0.9
				c-0.4,0.2-0.8,0.5-1.2,0.8c-0.4,0.4-0.8,0.7-1.2,1.1c-0.2,0.1-0.5,0.5-0.7,0.5C196.4,23.3,196.7,22.6,196.8,22.4z"/>
		</g>
	</g>
</g>
</svg>
