<?xml version="1.0" encoding="utf-8"?>
<!-- Generator: Adobe Illustrator 21.0.2, SVG Export Plug-In . SVG Version: 6.00 Build 0)  -->
<svg version="1.1" id="Layer_1" xmlns="http://www.w3.org/2000/svg" xmlns:xlink="http://www.w3.org/1999/xlink" x="0px" y="0px"
	 width="71.8px" height="47px" viewBox="0 0 71.8 47" style="enable-background:new 0 0 71.8 47;" xml:space="preserve">
<style type="text/css">
	.st0{fill:none;stroke:#848484;stroke-miterlimit:10;}
	.st1{fill-rule:evenodd;clip-rule:evenodd;fill:none;stroke:#848484;stroke-miterlimit:10;}
</style>
<g>
	<line class="st0" x1="36.3" y1="24.5" x2="65.3" y2="24.5"/>
	<g>
		<g>
			<path class="st0" d="M36.8,38.2c-10,0-20.1,0-30.1,0c0,0-0.1,0-0.1-0.1c-1.3-0.4-2-1.2-2-2.6c0-0.9,0-1.8,0-2.7
				c0-1.7,0-3.3,0.7-4.9c1.6-3.9,3.7-7.4,6-10.8c0.4-0.6,1.1-0.9,1.9-1c0.4,0,0.8,0,1.2,0c0-1,0-1.9,0-2.9c0-0.7,0.3-1.2,0.9-1.6
				c0.9-0.6,1.9-0.6,2.9-0.2c0.8,0.3,1.2,0.9,1.1,1.8c0,0.7,0,1.3,0,2c0,0.3,0,0.5,0,0.8c1.7,0,3.3,0,4.9,0c0-1,0-1.9,0-2.9
				c0-0.7,0.3-1.2,0.9-1.6c0.8-0.5,1.7-0.6,2.6-0.3c1,0.3,1.5,1,1.5,2c0,0.5,0,0.9,0,1.4c0,0.4,0,0.9,0,1.3c0.4,0,0.8,0,1.2,0
				c0.8,0,1.5,0.3,2,1c2.1,2.9,4,5.9,5.4,9.2c0.6,1.4,1.1,2.8,1.2,4.4c0.1,1.7,0,3.4,0,5c0,1.1-0.7,2-1.8,2.3
				C37,38.2,36.9,38.2,36.8,38.2z"/>
			<path class="st1" d="M26.1,27.8c0,2.4-2,4.4-4.4,4.3c-2.4,0-4.3-2-4.3-4.4c0-2.3,2-4.3,4.3-4.3C24.2,23.5,26.1,25.4,26.1,27.8z"
				/>
			<path class="st1" d="M29.9,27.9c0,4.5-3.7,8.1-8.2,8.1c-4.5,0-8.1-3.7-8.1-8.2c0-4.3,3.7-8,8.1-8C26.3,19.7,29.9,23.3,29.9,27.9z
				"/>
		</g>
		<polygon class="st0" points="31.7,2.8 11.6,2.8 0.5,8.8 0.5,16.7 9.4,16.7 9.4,10.7 13.8,7.8 29.5,7.8 34,10.7 34,16.7 42.8,16.7 
			42.8,8.8 		"/>
	</g>
	<g>
		<rect x="65.3" y="22" transform="matrix(-1 -1.224647e-16 1.224647e-16 -1 136.644 50)" class="st0" width="6" height="6"/>
		<line class="st0" x1="71.3" y1="0" x2="71.3" y2="47"/>
	</g>
</g>
</svg>
