<?xml version="1.0" encoding="utf-8"?>
<!-- Generator: Adobe Illustrator 21.1.0, SVG Export Plug-In . SVG Version: 6.00 Build 0)  -->
<svg version="1.1" id="Layer_1" xmlns="http://www.w3.org/2000/svg" xmlns:xlink="http://www.w3.org/1999/xlink" x="0px" y="0px"
	 width="136.2px" height="33.1px" viewBox="0 0 136.2 33.1" style="enable-background:new 0 0 136.2 33.1;" xml:space="preserve">
<style type="text/css">
	.st0{fill:#ED1616;}
</style>
<g>
	<g>
		<path class="st0" d="M2.3,26.8L2.3,26.8c-0.4-0.1-0.4-1.3-0.4-1.5c0-0.4,0-0.8,0.1-1.2c0-0.2,0.1-0.4,0.1-0.6c0-0.5,0.2-1,0.4-1.4
			c0.1-0.1,0.1-0.3,0.1-0.4c0.4-1.1,0.9-2.2,1.4-3.3l0.4-0.8C4.4,17,4.7,16.6,5,16.1l0.4-0.7c0.3-0.5,0.6-1,1-1.5
			c0.1-0.2,0.2-0.4,0.3-0.5c0.1-0.1,0.1-0.2,0.2-0.3c0-0.1,0.1-0.1,0.1-0.2c0.1-0.1,0.1-0.2,0.2-0.3c0-0.1-0.1-0.3-0.2-0.4
			c-0.1-0.2-0.2-0.3-0.2-0.5c0.1-0.2,0.4-0.3,0.5-0.3c0.4,0,0.6-0.1,0.9-0.3C8.5,10.7,8.8,10.4,9,10c0.1-0.2,0.2-0.4,0.4-0.5
			c0.3-0.4,0.6-0.8,0.9-1.2c0.2-0.2,0.4-0.5,0.6-0.7c0,0,0.1-0.1,0.2-0.2c0.1-0.1,0.5-0.6,0.5-0.8c0,0,0,0,0,0c0,0-0.1,0-0.2,0
			c-0.3,0-0.6,0.1-0.9,0.2c-0.2,0-0.3,0.1-0.4,0.1l-0.3,0C8.4,7,7.1,7.2,6,7.5C5.3,7.7,4.8,7.9,4.4,8.1C4.2,8.2,4,8.2,3.9,8.3
			c-0.4,0.1-0.7,0.3-1,0.5C2.7,8.9,2.6,9,2.5,9.1C2.2,9.4,1.9,9.8,1.4,9.8l-0.1,0C0.8,9.7,0.1,9.2,0,8.6c-0.3-1.5,1.5-2.5,2.8-2.8
			c1.4-0.3,2.7-0.7,3.9-1C7,4.8,7.3,4.7,7.6,4.6c0.6-0.2,1.2-0.4,1.9-0.5C9.9,4,10.3,4,10.7,4c0.4,0,0.7,0,1.1-0.1
			c0.3-0.1,0.6-0.1,0.8-0.1c0.2,0,0.4-0.1,0.7-0.1c0.3-0.1,0.7-0.8,0.8-1.1c0-0.2,0.1-0.3,0.1-0.5c0-0.2,0.1-0.4,0.1-0.6
			c0.2-0.4,0.4-0.5,0.6-0.7c0.2-0.1,0.4-0.2,0.6-0.2c0.2,0,0.3,0,0.5,0.1c0.4,0.2,0.9,0.4,1,1.2c0,0.4-0.1,0.7-0.1,1
			c-0.1,0.2-0.1,0.4-0.1,0.6c0,0.3,0.2,0.4,0.6,0.6c0.5,0.2,0.9,0.4,1.3,0.7l0.1,0.1c0.1,0.1,0.3,0.2,0.4,0.2
			c0.2,0.1,0.3,0.2,0.5,0.3c0.6,0.3,1.2,0.9,1.7,1.4c0.5,0.4,0.8,1.1,1.1,1.8c0.2,0.7,0.1,1.5-0.3,2.2c-0.7,1.3-1.7,2.2-3,2.6
			c-1,0.3-2.4,0.7-3.8,0.8c-0.2,0-0.6,0-0.9,0c-0.5,0-1.3,0-1.8-0.1c-0.3-0.1-0.6-0.1-0.9-0.1c-0.3,0-0.5,0.1-0.7,0.2
			c-0.7,0.4-1.1,1.2-1.6,2c-0.2,0.3-0.4,0.7-0.6,1c-0.1,0.2-0.4,0.6-0.5,0.7c-0.1,0.1-0.2,0.3-0.2,0.4c-0.1,0.1-0.1,0.2-0.2,0.3
			c-0.2,0.4-0.5,0.7-0.8,1.1c-0.5,0.7-1.1,1.4-1.5,2.1c-0.2,0.4-0.4,0.7-0.7,1c-0.2,0.3-0.4,0.6-0.6,1c-0.2,0.4-0.5,0.6-0.7,0.9
			c-0.2,0.2-0.4,0.4-0.5,0.6c-0.1,0.2-0.3,0.5-0.4,0.8C2.7,26.5,2.5,26.8,2.3,26.8L2.3,26.8z M13.1,10.2c0.1,0,0.2,0,0.3,0
			c1.3-0.2,2.4-0.7,3.7-1.2l0.7-0.3c0.9-0.3,2.4-0.9,2.6-1.8c0-0.2,0-0.3-0.2-0.4c-0.8-0.5-1.8-0.7-2.3-0.9l-1-0.2
			c-0.2,0-0.3-0.1-0.4-0.1c-0.2,0-0.4,0-0.5,0.1c-0.3,0.2-0.5,0.7-0.7,1.1c-0.1,0.3-0.3,0.6-0.4,0.8c-0.2,0.2-0.3,0.5-0.4,0.7
			c-0.2,0.3-0.4,0.7-0.6,1c-0.1,0.1-0.2,0.2-0.2,0.3c-0.1,0.1-0.2,0.2-0.2,0.4C13.3,9.9,13.2,10.1,13.1,10.2L13.1,10.2z"/>
		<path class="st0" d="M22.3,8.4c-0.2-0.6-0.6-1.3-1-1.7c-0.5-0.5-1.1-1-1.6-1.3C19.4,5.2,19,5,18.7,4.9c-0.4-0.2-0.9-0.5-1.3-0.7
			C17,4,16.6,3.9,16.6,3.4c0-0.5,0.4-0.9,0.3-1.5c-0.1-0.5-0.4-0.8-0.9-1c-0.3-0.1-0.6-0.1-0.9,0c-0.2,0.1-0.4,0.2-0.6,0.6
			c-0.1,0.4-0.1,0.7-0.2,1.1c-0.1,0.3-0.5,1.2-0.9,1.2c-0.5,0.1-0.8,0.1-1.5,0.2c-0.8,0.1-1.6,0.1-2.4,0.2C8.6,4.5,7.7,4.8,6.8,5
			c-1.3,0.4-2.7,0.8-4,1C1.8,6.3,0,7.2,0.2,8.6c0.1,0.5,0.7,0.9,1.1,1c0.6,0.1,1-0.6,1.4-1c0.5-0.4,1-0.5,1.6-0.7
			c0.5-0.2,1-0.4,1.6-0.6C7.2,7,8.6,6.8,10,6.7c0.3,0,1.4-0.4,1.7-0.2c0.2,0.2-0.5,1-0.7,1.2c-0.5,0.6-1,1.2-1.4,1.9
			c-0.4,0.6-0.7,1.2-1.2,1.6c-0.3,0.2-0.6,0.3-0.9,0.4c-0.1,0-0.4,0-0.5,0.1c0,0.2,0.4,0.6,0.4,0.8c0,0.3-0.2,0.4-0.3,0.6
			c-0.2,0.3-0.3,0.6-0.5,0.9c-0.4,0.6-0.8,1.2-1.2,1.8c-0.3,0.6-0.7,1.1-1,1.7c-0.6,1.3-1.3,2.7-1.7,4c-0.2,0.6-0.4,1.2-0.5,1.8
			c0,0.6-0.2,1.2-0.2,1.8c0,0.5,0.1,1.3,0.3,1.3c0.2,0.1,0.6-1.2,0.9-1.7c0.4-0.5,0.9-0.9,1.2-1.5c0.4-0.7,0.9-1.3,1.3-2
			c0.4-0.7,1-1.5,1.5-2.2c0.3-0.3,0.5-0.7,0.8-1.1c0.1-0.2,0.2-0.4,0.4-0.7c0.1-0.2,0.2-0.4,0.5-0.7c0.7-1,1.2-2.4,2.2-3
			c0.5-0.3,1.2-0.2,1.7-0.1c0.8,0.2,2.1,0.1,2.6,0.1c1.3-0.1,2.6-0.4,3.8-0.8c1.4-0.4,2.3-1.5,2.8-2.5C22.4,9.8,22.6,9.1,22.3,8.4z
			 M17.8,9c-1.4,0.5-2.8,1.1-4.3,1.4c-0.3,0.1-0.4,0-0.7,0l-0.1,0c0.2-0.2,0.4-0.5,0.6-0.7c0.2-0.2,0.3-0.5,0.5-0.7
			c0.4-0.5,0.7-1.1,1-1.6c0.4-0.5,0.6-1.5,1.2-2c0.3-0.2,0.7-0.2,1.1-0.1c0.4,0.1,0.6,0.1,1,0.2c0.8,0.2,1.7,0.4,2.4,0.9
			c0.2,0.2,0.3,0.3,0.3,0.6C20.5,8,18.7,8.6,17.8,9z"/>
	</g>
	<path class="st0" d="M16.2,24.4c-0.2,0-0.4-0.1-0.4-0.5c-0.1-0.5,0.1-1,0.2-1.5l0.1-0.2c0.1-0.3,0.2-0.5,0.3-0.7l0.1-0.2
		c0.3-0.6,0.6-1.2,0.9-1.7l0.2-0.3c0.5-0.9,1.1-1.8,1.7-2.6l0.4-0.6c0.1-0.2,0.3-0.4,0.4-0.6c0.3-0.5,0.6-1,1-1.4
		c0.7-0.8,1.5-1.8,1.8-2.9c0,0,0.2-0.7,0.3-0.9c0.1-0.2,0.3-0.2,0.4-0.2c0.3,0,0.6,0.3,0.7,0.5c0.5,0.5,0.6,1.3,0.6,1.8l0,0.3
		c0,0.3,0.1,0.7,0,1c-0.1,0.4-0.2,0.8-0.4,1.1l-0.1,0.2c-0.5,1.1-1.1,2.3-2,3.7c-0.2,0.4-0.5,0.7-0.8,1c-0.2,0.2-0.4,0.4-0.5,0.6
		L21,20.2c-0.1,0.2-0.3,0.4-0.7,0.7c-0.1,0.1-0.2,0.2-0.3,0.3c-0.2,0.2-0.3,0.3-0.5,0.4c-0.5,0.4-1,0.7-1.4,1
		c-0.1,0.1-0.1,0.1-0.2,0.2c-0.1,0.1-0.2,0.2-0.3,0.3l-0.1,0.2c-0.2,0.2-0.3,0.4-0.5,0.6C16.6,24.2,16.4,24.4,16.2,24.4z"/>
	<path class="st0" d="M16.2,22.2c0.1-0.3,0.2-0.5,0.3-0.9c0.3-0.7,0.7-1.4,1.1-2c0.6-1.1,1.4-2.2,2.1-3.2c0.4-0.6,0.9-1.4,1.4-2
		c0.7-0.8,1.6-1.9,1.8-3c0-0.2,0.2-0.7,0.3-0.8c0.3-0.4,0.6,0,0.8,0.2c0.4,0.5,0.5,1.2,0.6,1.7c0,0.4,0.1,0.8,0,1.2
		c-0.1,0.4-0.3,0.9-0.5,1.3c-0.6,1.3-1.3,2.5-2,3.6c-0.4,0.6-0.9,1-1.3,1.5c-0.2,0.2-0.3,0.4-0.8,0.8c-0.3,0.2-0.5,0.5-0.8,0.7
		c-0.5,0.4-0.9,0.7-1.4,1c-0.2,0.2-0.4,0.3-0.6,0.6c-0.2,0.2-0.4,0.5-0.6,0.8c-0.3,0.3-0.7,0.7-0.8,0.1
		C15.9,23.3,16.1,22.6,16.2,22.2z"/>
	<path class="st0" d="M26.7,26.1c-0.4,0-0.8-0.1-1.2-0.4c-0.6-0.4-1-0.8-1.4-1.4c-0.3-0.5-0.6-1.1-0.8-1.7c-0.1-0.5-0.3-0.9-0.4-1.3
		c0-0.1-0.1-0.2-0.2-0.3c-0.2-0.2-0.3-0.4-0.4-0.6c0-0.2,0-0.3,0.1-0.4c0.2-0.2,0.5-0.2,0.8-0.2h0.2c0.8,0,1.5,0.5,2.2,0.9
		c0.2,0.1,0.3,0.2,0.5,0.3c0.2,0.1,0.3,0.2,0.4,0.3c0.3,0.2,0.5,0.4,0.9,0.4c0.1,0,0.2,0,0.3,0c0.9,0,1.9-0.6,2-1.5
		c0.1-0.8-0.4-1.2-0.9-1.7c-1.9-1.7-1.8-4.5-0.9-6.4c0-0.1,0.1-0.2,0.1-0.3c0.1-0.2,0.2-0.5,0.4-0.7c0.1-0.2,0.2-0.3,0.3-0.5
		c0.1-0.1,0.2-0.3,0.3-0.4c0.5-0.7,1.3-1.3,1.8-1.8c0,0,1.2-1.1,2.1-1.3C33.4,7.1,33.8,7,34.3,7c0.2,0,0.5,0,0.8,0
		c0.6,0.1,1.4,0.2,1.8,0.8c0.4,0.5,0.3,1.1-0.1,1.7v0c0,0-0.2,0.5-0.8,1c0,0-0.1,0.1-0.1,0.1c-0.1,0.1-0.3,0.3-0.7,0.5
		c-0.2,0.1-0.4,0.2-0.7,0.3c0,0-0.6,0.1-0.8,0.2l-0.3,0.1c-0.2,0-0.4,0.1-0.6,0.1c-0.6,0.2-1.4,0.6-1.8,1c-0.1,0.1-0.2,0.2-0.3,0.3
		c-0.1,0.1-0.2,0.2-0.3,0.3c-0.4,0.4-0.8,0.9-1.2,1.6c-0.3,0.6-0.3,1.2,0,1.7c0.2,0.4,0.5,0.8,0.8,1.1c0.2,0.2,0.4,0.5,0.6,0.7
		c0.4,0.6,0.5,1.7,0.5,2.3c-0.1,0.8-0.7,1.8-1,2.1c-0.2,0.3-0.5,0.6-0.7,0.9c-0.2,0.2-0.4,0.5-0.6,0.7c-0.1,0.1-0.1,0.2-0.2,0.3
		c-0.3,0.4-0.6,0.8-1,1C27.2,26,27,26.1,26.7,26.1z"/>
	<path class="st0" d="M25.9,21.2c0.5,0.3,0.8,0.6,1.4,0.7c1,0.1,2.4-0.5,2.5-1.7c0.1-0.9-0.4-1.3-1-1.8c-1.7-1.6-1.7-4.2-0.8-6.2
		c0.2-0.4,0.3-0.7,0.5-1c0.2-0.3,0.4-0.6,0.6-0.9c0.5-0.6,1.2-1.3,1.8-1.7c0,0,1.1-1,2-1.3c0.7-0.2,1.3-0.2,2-0.1
		c0.5,0.1,1.3,0.2,1.6,0.7c0.3,0.5,0.2,1-0.1,1.4c0,0-0.2,0.5-0.8,0.9c-0.2,0.2-0.3,0.4-0.8,0.6c-0.1,0.1-0.3,0.2-0.7,0.3
		c0,0-0.6,0.1-0.8,0.2c-0.3,0.1-0.6,0.1-0.9,0.2c-0.6,0.2-1.5,0.6-1.9,1c-0.2,0.2-0.4,0.4-0.6,0.6c-0.5,0.5-0.9,1.1-1.2,1.7
		c-0.3,0.6-0.3,1.3,0,1.9c0.4,0.7,0.9,1.2,1.4,1.8c0.3,0.5,0.5,1.5,0.4,2.1c-0.1,0.7-0.5,1.5-0.9,2c-0.4,0.6-0.9,1.1-1.3,1.6
		c-0.3,0.4-0.6,1-1.1,1.3c-0.6,0.3-1.3,0.2-1.9-0.2c-0.6-0.3-0.9-0.8-1.3-1.3c-0.3-0.5-0.6-1-0.7-1.6c-0.1-0.4-0.3-0.9-0.4-1.3
		c-0.1-0.3-0.6-0.5-0.6-0.8c-0.1-0.4,0.5-0.4,0.8-0.4C24.3,20.1,25.1,20.7,25.9,21.2z"/>
	<path class="st0" d="M26.3,7.8l-0.1-0.1c-0.3-0.4,0.2-1.6,0.2-1.7c0.2-0.8,0.5-1.4,0.9-2c0.2-0.3,0.4-0.5,0.5-0.8
		C27.9,3,28,2.8,28.2,2.6c0.2-0.3,0.4-0.7,0.6-1.2c0-0.1,0-0.1,0.1-0.2C28.9,0.7,29.1,0,29.6,0l0.1,0l0.1,0.1
		c0.1,0.3,0.2,0.5,0.3,0.8c0.1,0.3,0.3,0.7,0.3,1l0.1,0.3c0.1,0.5,0.2,0.9,0.2,1.5c0,0.2,0,0.4,0,0.6c0,0.5,0,1-0.3,1.5
		c-0.4,0.6-1,1-1.3,1.2c-0.5,0.3-1,0.4-1.4,0.4c0,0-0.1,0-0.1,0c-0.1,0-0.2,0-0.2,0c-0.1,0-0.1,0-0.2,0c-0.2,0-0.3,0.1-0.4,0.1
		c-0.1,0-0.2,0.1-0.3,0.1l0,0l-0.1,0H26.3z"/>
	<path class="st0" d="M27.4,4.1c0.3-0.5,0.6-0.9,0.9-1.3c0.3-0.4,0.5-0.8,0.6-1.3c0.1-0.3,0.2-1.3,0.7-1.2c0.1,0.6,0.5,1.2,0.6,1.8
		c0.1,0.7,0.3,1.1,0.2,1.8c-0.1,0.7,0.1,1.3-0.3,2c-0.3,0.5-0.8,0.9-1.2,1.2c-0.4,0.3-0.9,0.3-1.3,0.4c-0.2,0-0.4-0.1-0.6,0
		c-0.2,0-0.4,0.2-0.6,0.2c-0.4,0.2,0-1.5,0.1-1.6C26.7,5.3,27,4.7,27.4,4.1z"/>
	<path class="st0" d="M32.6,26.5l-0.1-0.1c-0.3-0.5,0.8-3.8,0.8-4c0.5-1.2,1.1-2.6,1.9-3.9c0-0.1,0.1-0.1,0.1-0.2
		c0.1-0.1,0.2-0.3,0.2-0.4c-0.1,0-0.2,0-0.3,0c-0.2,0-0.3,0-0.4,0c-0.6,0-1.3-0.2-1.6-0.2c-0.7-0.2-1.4-0.3-2-0.9
		c-0.3-0.4-0.6-1.3-0.2-1.8c0.1-0.1,0.2-0.1,0.3-0.1c0.2,0,0.3,0.2,0.4,0.3c0,0.1,0.1,0.1,0.1,0.2c0.1,0.2,0.3,0.2,0.5,0.2
		c0.6,0,1.2-0.1,1.7-0.2l0.5-0.2c0.6-0.2,1.2-0.4,1.9-0.6c0.7-0.2,1.3-0.5,1.6-0.8c0.4-0.4,0.6-0.8,0.9-1.2c0.1-0.2,0.2-0.4,0.3-0.5
		c0.1-0.2,0.2-0.4,0.4-0.5c0.2-0.2,0.3-0.5,0.5-0.7c0.2-0.3,0.4-0.7,0.7-1c0.1-0.2,0.3-0.4,0.4-0.6c0.2-0.3,0.4-0.6,0.5-0.8
		s0.3-0.5,0.5-0.8c0.1-0.1,0.2-0.3,0.3-0.4c0.3-0.3,0.6-0.7,0.6-1.2c0-0.1,0-0.3,0-0.5c0-0.5,0.1-1,0.5-1.3c0.1-0.1,0.3-0.1,0.4-0.1
		c0.4,0,0.8,0.4,1,0.7c0.5,1.1,0.2,2.2-0.2,3.1L44.8,8c-0.2,0.8-0.6,1.5-1,2.3c-0.1,0.2-0.2,0.3-0.3,0.5c-0.3,0.4-0.6,0.9-0.7,1.4
		c0.2,0,0.4-0.1,0.7-0.2c0.3-0.1,0.5-0.1,0.7-0.2c0.2,0,0.3-0.1,0.5-0.1c0.5-0.1,1-0.3,1.4-0.4l0.2-0.1c0.5-0.1,0.8-0.4,1.2-0.8
		c0.1-0.1,0.2-0.2,0.3-0.3c0.7-0.5,1.1-0.8,1.7-1c0.6-0.3,1.4-0.4,2-0.5c0,0,0-0.1,0-0.1l0-0.1l0.1-0.1c0.1-0.1,0.2-0.2,0.4-0.2
		c0.2,0,0.4,0.1,0.5,0.3c0.3,0.5,0.7,1.4,0.7,2c0,0.5,0,0.7,0,0.9c0,0.1,0,0.1,0,0.2c-0.1,0.6-0.2,0.9-0.3,0.9
		c-0.1,0.5-0.7,1.1-1.2,1.6c-0.8,0.8-2,1.1-3.2,1.4l-0.4,0.1c-0.5,0.1-1.1,0.2-1.5,0.5c-0.5,0.3-0.8,0.8-1,1.4l-0.3,0.6
		c-0.1,0.3-0.2,0.5-0.4,0.7c-0.4,0.6-0.7,1.2-0.9,1.8c-0.1,0.4,0,1,0.4,1.1c0.2,0,0.4,0.1,0.6,0.1c0.5,0,0.9-0.1,1.4-0.2
		c0.5-0.1,1-0.5,1.4-1l0.2-0.2c0.2-0.3,0.4-0.5,0.6-0.7c0.2-0.2,0.3-0.4,0.5-0.5l0.1-0.2c0.4-0.5,0.9-1.1,1.3-1.7
		c0.4-0.5,0.7-1,1.1-1.5c0.2-0.2,0.5-0.5,0.7-0.8c0.4-0.4,0.7-0.8,1-1.2l0.5-0.7c0.6-0.8,1.2-1.6,1.7-2.5c0.1-0.2,0.3-0.5,0.5-0.8
		c0.1-0.1,0.2-0.3,0.3-0.6l0-0.1c0-0.2,0.1-0.6,0.3-0.7l0,0l0.1,0c0.1,0,0.2,0,0.3,0.1c0.4,0.4,0.5,2,0.5,2.5c0,0.5-0.2,0.9-0.3,1.3
		c-0.1,0.3-0.2,0.7-0.3,1c0.1-0.1,0.3-0.2,0.4-0.3c0.1-0.1,0.2-0.1,0.2-0.2c0.2-0.1,0.3-0.2,0.5-0.3c0.2-0.1,0.4-0.3,0.6-0.4
		c0.1-0.1,0.3-0.1,0.4-0.2c0.2-0.1,0.4-0.2,0.7-0.4c0.8-0.5,1.7-1,2.5-1.4c0.3-0.1,0.6-0.2,0.8-0.4c0.1-0.1,0.1-0.1,0.2-0.2
		c0.1-0.1,0.2-0.3,0.4-0.4C63.9,9,64.1,9,64.3,9c0.4,0,0.7,0.2,0.9,0.4c0.5,0.6,0.6,1.7,0.5,2.4l-0.1,0.3c-0.2,1.4-0.5,2.8-1,4.1
		c-0.3,0.7-0.5,1.3-0.8,2c-0.2,0.5-0.5,0.9-0.7,1.3c-0.2,0.3-0.3,0.6-0.5,0.9c-0.6,1.1-1.3,2-2.4,2.7c-0.3,0.2-0.6,0.4-0.9,0.6
		c-0.2,0.2-0.5,0.3-0.7,0.5c-0.3,0.2-0.4,0.2-0.6,0.3L58,24.7c-0.1,0-0.1,0.1-0.2,0.1c-0.2,0.1-0.6,0.3-0.8,0.3c0,0,0,0,0,0
		c-0.3,0-0.5-0.1-0.6-0.4c-0.1-0.2-0.1-0.6,0-0.9l0-0.1c0.1-0.4,0.2-1.2,0.6-1.7l0.1-0.2c0.1-0.2,0.2-0.3,0.3-0.5
		c0.1-0.2,0.2-0.4,0.3-0.6c0.1-0.1,0.1-0.2,0.2-0.3c0.3-0.6,0.7-1.1,1.1-1.6l0.6-0.8c0.3-0.4,0.6-0.8,0.8-1.1
		c0.3-0.4,0.5-0.8,0.8-1.1c0.1-0.2,0.4-0.7,0.4-0.7c0.3-0.5,0.7-1.1,1-1.5c0.1-0.3,0.3-0.5,0.4-0.8c0.1-0.2,0.2-0.5,0.4-0.7
		c0.1-0.2,0.2-0.6-0.1-0.8c-0.1-0.1-0.1-0.1-0.2-0.1c-0.1,0-0.3,0.1-0.5,0.2c-0.3,0.2-0.7,0.4-1,0.7L61,12.3
		c-0.3,0.2-1.2,0.8-1.9,1.4c-0.6,0.5-1.2,1.1-1.8,1.7l-0.4,0.4c-0.2,0.2-0.5,0.5-0.7,0.7l-0.3,0.3l-1,1c-0.2,0.2-0.3,0.3-0.4,0.5
		c-0.1,0.1-0.2,0.3-0.4,0.4c-0.1,0.1-0.3,0.3-0.4,0.4l-0.2,0.2c-0.4,0.4-0.7,0.8-1,1.1l-0.3,0.4c-0.9,1-1.9,2-2.9,2.8
		c-0.2,0.1-0.3,0.3-0.5,0.5c-0.2,0.2-0.4,0.4-0.6,0.5c-0.2,0.2-0.4,0.3-0.7,0.3c-0.3,0-0.6-0.2-0.9-0.6c-0.1-0.1-0.1-0.3-0.2-0.4
		c0-0.1-0.1-0.2-0.1-0.3c0,0-0.1,0-0.2,0.2c-0.4,0.5-0.9,0.7-1.5,0.7c-0.4,0-0.8-0.1-1.2-0.4c-0.3-0.2-0.5-0.4-0.7-0.7
		c-0.4-0.6-0.6-1.2-0.8-2.2c-0.1-0.8-0.1-1.5,0-2.2l0-0.2c0.1-0.9,0.4-1.5,0.8-2.3c0.4-0.7,0.8-1.5,1.4-2.2c0.1-0.1,0.2-0.2,0.3-0.4
		c-0.2,0.1-0.4,0.1-0.5,0.2l-0.2,0.1c-0.3,0.1-0.5,0.3-1,0.6c-0.3,0.2-0.6,0.4-0.9,0.7c-0.4,0.3-0.8,0.6-1.4,1
		c-0.5,0.3-0.9,1.1-1.1,1.7c-0.1,0.2-0.2,0.3-0.2,0.4c-0.1,0.2-0.2,0.4-0.4,0.6c-0.2,0.4-0.5,0.8-0.7,1.2l-0.4,0.7
		c-0.6,1-1.3,2-2.1,2.9c-0.4,0.5-0.8,0.9-1.3,1.3c-0.2,0.2-0.4,0.3-0.5,0.4l-0.2,0.2c0,0-0.1,0.1-0.1,0.2c-0.2,0.3-0.4,0.5-0.6,0.5
		L32.6,26.5z M51.2,10.2c-0.2,0-0.5,0.1-0.7,0.2c-0.2,0.1-1,0.7-1.2,1c-0.4,0.4-0.7,0.8-1,1.2c-0.1,0.2-0.3,0.4-0.5,0.6
		c-0.1,0.2-0.2,0.4,0,0.6c0,0,0.1,0,0.2,0c0.2,0,0.4-0.1,0.6-0.2c0.6-0.5,1.2-0.8,1.9-1.2l0.4-0.2c0.6-0.4,1-1,1.1-1.4
		c0-0.1,0-0.2-0.1-0.3C51.7,10.3,51.5,10.2,51.2,10.2z"/>
	<path class="st0" d="M63.7,9.3c-0.3,0.1-0.3,0.4-0.5,0.6c-0.2,0.2-0.6,0.4-0.8,0.5c-0.9,0.4-1.7,0.9-2.5,1.4
		c-0.3,0.2-0.7,0.4-1.1,0.6c-0.4,0.2-0.8,0.5-1.2,0.7c-0.2,0.1-0.7,0.6-1,0.5c0-0.9,0.5-1.6,0.6-2.5c0-0.8-0.2-2.5-0.6-2.4
		c-0.2,0.1-0.2,0.5-0.2,0.7c0,0.4-0.2,0.6-0.3,0.7c-0.2,0.2-0.3,0.6-0.5,0.8C55,12,54.2,13,53.4,14.1c-0.5,0.7-1.3,1.4-1.7,2
		c-0.4,0.5-0.8,1-1.1,1.5c-0.4,0.6-0.9,1.2-1.3,1.7c-0.2,0.3-0.4,0.5-0.6,0.7c-0.2,0.2-0.5,0.6-0.7,0.9c-0.4,0.5-0.9,0.9-1.5,1
		C45.8,22,45,22.2,44.4,22c-0.5-0.1-0.6-0.9-0.5-1.3c0.2-0.7,0.5-1.3,0.9-1.9c0.2-0.3,0.3-0.7,0.5-1c0.3-0.7,0.5-1.3,1.2-1.8
		c0.6-0.4,1.3-0.4,2-0.6c1.1-0.2,2.3-0.5,3.1-1.3c0.4-0.4,1-1.1,1.1-1.5c0,0,0.2-0.3,0.2-0.9c0-0.3,0.1-0.3,0.1-1.1
		c0-0.6-0.4-1.4-0.7-2c-0.1-0.1-0.4-0.3-0.5-0.1c0,0,0.1,0.2-0.2,0.4c-0.7,0-1.4,0.2-1.9,0.4c-0.6,0.3-1,0.5-1.6,1
		c-0.5,0.4-1,0.9-1.6,1.1c-0.6,0.2-1.1,0.3-1.7,0.5c-0.4,0.1-0.7,0.1-1.1,0.2c-0.3,0.1-0.6,0.2-1,0.2c0-0.8,0.7-1.5,1-2.2
		c0.4-0.7,0.8-1.5,1-2.2c0.3-1,0.8-2.2,0.3-3.4c-0.2-0.4-0.7-0.8-1.1-0.5c-0.5,0.3-0.3,1.2-0.4,1.7c-0.1,0.7-0.7,1.2-1,1.6
		c-0.4,0.5-0.6,1.1-1,1.7c-0.4,0.6-0.8,1.1-1.1,1.6c-0.3,0.4-0.6,0.9-0.8,1.3c-0.4,0.6-0.7,1.2-1.2,1.8c-0.4,0.5-1.1,0.7-1.7,0.9
		c-0.8,0.2-1.5,0.5-2.3,0.7c-0.5,0.2-1.1,0.2-1.7,0.2c-0.3,0-0.5-0.1-0.6-0.3c-0.2-0.2-0.2-0.6-0.5-0.3c-0.4,0.4-0.1,1.2,0.2,1.5
		c0.5,0.6,1.2,0.7,1.9,0.9c0.4,0.1,1.3,0.3,1.9,0.2c0.2,0,0.5-0.1,0.6,0.1c0,0.2-0.3,0.6-0.3,0.7c-0.7,1.2-1.3,2.6-1.9,3.9
		c-0.2,0.4-1.2,3.8-0.8,3.8c0.2,0,0.5-0.5,0.6-0.6c0.3-0.2,0.5-0.4,0.7-0.6c0.5-0.4,0.9-0.8,1.3-1.3c1-1.1,1.7-2.3,2.5-3.5
		c0.4-0.6,0.7-1.2,1.1-1.9c0.3-0.5,0.8-1.8,1.4-2.2c1-0.7,1.6-1.2,2.4-1.7c0.5-0.4,0.8-0.5,1.2-0.7c0,0,0.8-0.3,1-0.2
		c0,0-0.3,0.5-0.6,0.7c-0.6,0.6-1,1.4-1.4,2.1c-0.4,0.7-0.7,1.4-0.8,2.2c-0.1,0.8-0.1,1.6,0,2.4c0.1,0.7,0.3,1.5,0.7,2.1
		c0.2,0.2,0.4,0.4,0.6,0.6c0.8,0.6,1.7,0.5,2.4-0.3c0.6-0.6,0.6,0,0.9,0.5c0.3,0.5,0.7,0.7,1.2,0.3c0.4-0.3,0.7-0.6,1.1-1
		c1-0.8,2-1.8,2.8-2.8c0.4-0.4,0.9-1,1.3-1.5c0.2-0.2,0.4-0.4,0.6-0.6c0.3-0.3,0.5-0.7,0.8-0.9c0.3-0.3,0.7-0.7,1-1
		c0.3-0.3,0.6-0.7,1-1c0.7-0.7,1.5-1.5,2.2-2.1c0.6-0.5,1.4-1.1,2-1.4c0.4-0.3,1-0.7,1.4-0.9c0.4-0.2,0.7-0.3,1-0.1
		c0.3,0.3,0.3,0.8,0.1,1.1c-0.3,0.5-0.5,1-0.8,1.5c-0.3,0.5-0.7,1.1-1.1,1.7c-0.4,0.6-0.7,1.2-1.1,1.7c-0.3,0.4-0.8,1.2-1.2,1.6
		c-0.4,0.6-0.9,1.2-1.2,1.8c-0.2,0.3-0.4,0.6-0.5,0.9c-0.1,0.3-0.2,0.5-0.4,0.7c-0.3,0.5-0.5,1.1-0.6,1.7c0,0.2-0.1,0.6,0,0.9
		c0.3,0.6,1,0.1,1.4-0.1c0.3-0.1,0.4-0.2,0.7-0.4c0.5-0.4,1-0.7,1.6-1.1c1-0.7,1.7-1.6,2.3-2.7c0.4-0.7,0.9-1.4,1.2-2.2
		c0.3-0.7,0.5-1.3,0.8-2c0.5-1.4,0.8-2.9,1-4.4C65.7,10.7,65.3,8.6,63.7,9.3z M47.6,13c0.6-0.7,0.9-1.2,1.5-1.8c0,0,1.1-0.9,1.3-1
		C51,9.9,51.7,10,52,10.3c0.4,0.4-0.1,1.4-1,2c-0.8,0.5-1.6,0.9-2.3,1.5c-0.3,0.2-0.9,0.3-1,0.1C47.4,13.6,47.4,13.2,47.6,13z"/>
	<path class="st0" d="M65.2,28.2c-0.1,0-0.3-0.1-0.4-0.4c-0.2-0.6,0-1.3,0.1-1.9l0.1-0.3c0.2-0.8,0.5-1.7,1-2.7
		c0.9-1.9,1.8-3.5,2.8-5c0.3-0.5,0.6-0.9,0.9-1.2c0.2-0.2,0.3-0.5,0.5-0.7c0.2-0.3,0.4-0.5,0.6-0.8c0.3-0.3,0.5-0.6,0.7-1
		c0.4-0.7,0.9-1.3,1.4-2c0.4-0.6,0.9-1.2,1.3-1.8c0.1-0.1,0.2-0.3,0.3-0.4c0.1-0.1,0.1-0.2,0.2-0.3c0,0,0,0,0,0c-0.1,0-0.3,0-0.4,0
		c-0.1,0-0.1,0-0.2,0c-0.2,0-0.5,0-0.7,0c-0.4,0-0.8,0-1.2,0l-0.2,0c-0.6,0-1.2-0.1-1.5-0.4l-0.2-0.2l0.2-0.1c0.3-0.2,0.9-0.3,1-0.3
		c0.3-0.1,0.5-0.1,0.8-0.2l0.2,0c0.6-0.1,1.3-0.3,2.1-0.7l0.2-0.1c0.2-0.1,0.4-0.2,0.6-0.2c0.1-0.1,0.2-0.1,0.2-0.2
		c0-0.1,0.1-0.2,0.3-0.3C76,7,76.1,7,76.2,7c0.1,0,0.2,0,0.2,0c0.1,0,0.1,0,0.2,0c0.8-0.2,1.5-1.1,1.9-1.6c0.2-0.3,0.4-0.6,0.6-0.8
		l0.1-0.1c0.1-0.1,0.2-0.2,0.2-0.3c0.1-0.1,0.1-0.2,0.2-0.3c0,0,0.1-0.1,0.1-0.2C80,3.5,80.2,3.1,80.2,3l0,0c0,0-0.1-0.1-0.7-0.1
		c-0.3,0-0.6,0-0.9-0.1c-0.4,0-0.8-0.1-1.2-0.1l-0.4,0c-0.6,0-1.1,0-1.7-0.1l-0.3,0c-0.1,0-0.1,0-0.2,0c-0.3,0-0.6,0-0.9,0.1
		c-0.3,0-0.6,0.1-0.9,0.1c-0.2,0-0.4,0-0.6,0c-1.7,0-3.3,0.2-4.8,0.4l-0.5,0.1c-0.6,0.1-1.2,0.1-1.8,0.3l-0.1,0.1
		c-0.7,0.2-1.1,0.4-1,1c0,0.1,0.1,0.2,0.1,0.3c0.1,0.2,0.2,0.5,0.2,0.7c-0.1,0.4-0.6,0.5-1,0.6c-0.1,0-0.1,0-0.2,0
		c-0.3,0.1-0.5,0.1-0.7,0.1c-0.1,0-0.3,0-0.4,0l-0.1,0c-0.2,0-0.3,0-0.5,0c-0.2,0-0.3,0-0.4-0.1c-0.5-0.2-1-0.8-1.2-1.2
		c-0.1-0.4-0.1-0.9,0-1.2c0.2-0.3,0.4-0.6,0.7-0.9c0.6-0.6,1.4-0.8,2.1-0.9c0.6-0.1,1.2-0.3,1.9-0.5c0.4-0.1,0.8-0.3,1.2-0.4
		c1.1-0.4,2.1-0.8,3.3-0.9c1.7-0.2,3.1-0.3,4.5-0.3c0.2,0,1.2,0,1.4,0c0.5,0,1.1,0,1.6,0c0.5,0,1.1,0,1.6,0c0.7,0,1.3,0,1.8,0.1
		l0.2,0c1.9,0.2,3.8,0.3,5.7,0.7c0.2,0,0.3,0,0.5,0.1c0.3,0,0.6,0.1,0.9,0.2l0.3,0.1c0.6,0.2,1.3,0.4,1.9,0.8
		c0.2,0.1,0.4,0.3,0.6,0.4c0.4,0.2,0.8,0.5,1.2,0.9C91.7,3.8,92,4.2,92,5c0,1.5-0.6,2.7-1.7,3.5c-0.5,0.4-1.1,0.8-1.6,1.1
		c0,0-0.5,0.3-1.1,0.5c-0.3,0.1-0.7,0.2-1,0.3c-0.5,0.1-1,0.2-1.6,0.4l-0.6,0.1c-0.2,0-0.3,0.1-0.5,0.1c-0.2,0.1-0.4,0.1-0.6,0.1
		c-0.1,0-0.3,0.1-0.4,0.1l0.1,0.1c0.2,0.2,0.4,0.4,0.6,0.5c0.5,0.3,0.9,0.6,1.3,1.1c0.1,0.1,0.3,0.3,0.4,0.4
		c0.1,0.1,0.3,0.2,0.4,0.3c0.3,0.3,0.6,0.6,0.8,1c0.2,0.3,0.4,0.6,0.6,1c0.1,0.3,0.2,0.5,0.3,0.7l0.1,0.2c0.2,0.7,0.5,1.4,0.3,2.1
		c-0.3,1.5-1.2,2.9-2.6,3.8l-0.4,0.2c-0.5,0.3-1,0.6-1.6,0.9c-0.3,0.2-0.8,0.4-1.1,0.5c-0.3,0.1-0.7,0.2-1,0.3l-0.5,0.1
		c-0.6,0.2-1.2,0.3-1.9,0.4c-0.1,0-0.3,0-0.5,0c-0.2,0-0.4,0-0.6-0.1c-0.2-0.1-0.4-0.2-0.6-0.4c-0.1-0.1-0.1-0.1-0.2-0.2
		c-0.4-0.3-1-0.9-1.4-1.5c-0.4-0.6-0.4-1.4-0.3-2.1l0-0.2c0-0.9,0-1.9,0.9-2.4c0.6-0.3,1-0.7,1.1-1.3l0-0.1c0-0.1,0-0.3,0.1-0.4
		l0.1-0.1l0.2,0.1c0.6,0.4,0.9,0.8,1.1,1.5c0,0.1,0.1,0.2,0.1,0.3c0.1,0.2,0.2,0.4,0.2,0.7l0,0.2c0,0.2,0.1,0.6,0.2,0.7
		c0.2,0.3,0.6,0.5,1.2,0.5c0.2,0,0.4,0,0.6,0l0.4,0c0.6,0,1.2-0.1,1.7-0.3c0.3-0.1,0.6-0.3,0.9-0.5c0.2-0.1,0.5-0.3,0.7-0.5l0.2-0.1
		c0.6-0.5,0.9-1,1-1.6c0.2-1.3-1-2.3-2.1-3.2l-0.3-0.2c-0.4-0.3-0.8-0.6-1.3-0.8c-0.5-0.3-1.1-0.5-1.7-0.7c-0.6-0.2-1.1-0.2-1.7-0.3
		c0,0,0,0,0,0c-0.4,0-0.7,0.2-1,0.6c-0.2,0.2-0.3,0.5-0.5,0.7c-0.2,0.3-0.4,0.6-0.7,1c-0.5,0.6-0.9,1.2-1.3,1.8l-0.4,0.6
		c-0.1,0.2-0.2,0.4-0.3,0.5c-0.3,0.5-0.5,0.9-1,1.5c-0.2,0.2-0.4,0.5-0.6,0.7c-0.3,0.4-0.6,0.7-0.9,1.1c-0.4,0.4-1,1.2-1.6,1.8
		l-0.3,0.3c-0.2,0.2-0.3,0.4-0.5,0.6c-0.2,0.3-0.5,0.5-0.7,0.8c-0.4,0.5-0.7,0.8-1.1,1.3c-0.3,0.3-0.5,0.6-0.7,0.9
		c-0.3,0.4-0.6,0.8-1,1.2c-0.1,0.1-0.1,0.1-0.2,0.3C65.9,27.8,65.6,28.2,65.2,28.2z M81.8,7.2c0.4,0,1-0.1,1.4-0.2
		C83.4,7,83.6,7,83.7,7c2-0.2,4.1-1.1,5.4-1.9c0.8-0.4,0.9-0.7,0.9-0.8c0-0.1-0.1-0.2-0.2-0.3c-0.5-0.3-1.2-0.4-1.8-0.4l-0.2,0
		c-0.4-0.1-0.8-0.1-1.2-0.2c-1.1-0.2-2.3-0.3-3.5-0.4l-0.2,0c-0.1,0-0.3,0-0.4,0c-0.3,0-0.4,0-0.5,0.1c-0.1,0.2,0,0.5,0,0.8
		c0,0.3,0.1,0.5,0,0.8l0,0c0,0,0,0.6-0.2,1.4l0,0.1c-0.2,0.5-0.2,0.8-0.2,0.9c0,0,0,0,0,0C81.7,7.2,81.7,7.2,81.8,7.2z"/>
	<path class="st0" d="M91.8,5c0-0.7-0.2-1.1-0.7-1.6c-0.5-0.6-1.2-0.8-1.8-1.3c-0.6-0.4-1.4-0.7-2.1-0.9c-0.4-0.2-0.9-0.1-1.3-0.2
		C83.9,0.6,82,0.5,80,0.3c-1.9-0.2-3.9,0-5.8,0c-1.7,0-3.5,0.1-5.2,0.3c-1.5,0.2-3,0.8-4.4,1.3C64,2,63.4,2.1,62.7,2.3
		c-0.7,0.1-1.5,0.3-2,0.8c-0.2,0.2-0.5,0.5-0.6,0.8C60,4.2,60,4.6,60.1,5c0.2,0.4,0.6,1,1.1,1.1c0.3,0.1,0.7,0,1,0
		c0.4,0,0.7,0,1.1-0.1c0.3-0.1,1-0.1,1.1-0.5C64.3,5.3,64,4.9,64,4.7c-0.1-0.9,0.6-1.1,1.3-1.3c0.7-0.2,1.5-0.3,2.3-0.4
		c1.8-0.2,3.5-0.4,5.4-0.4c0.7,0,1.4-0.2,2.1-0.2c0.8,0.1,1.5,0.1,2.2,0.1c0.8,0,1.5,0.1,2.3,0.1c0.2,0,0.8,0,0.9,0.3
		c0.1,0.3-0.4,0.8-0.5,1c-0.2,0.2-0.3,0.5-0.5,0.7c-0.2,0.3-0.5,0.5-0.7,0.8C78.3,6,77.6,7,76.8,7.2c-0.2,0.1-0.6-0.1-0.8,0
		c-0.2,0.1-0.2,0.4-0.5,0.5c-0.2,0.1-0.6,0.2-0.8,0.3c-0.7,0.3-1.4,0.5-2.1,0.7c-0.4,0.1-0.5,0.1-1,0.2c0,0-0.6,0.1-0.9,0.3
		c0.3,0.3,1.1,0.3,1.6,0.3c0.6,0,1.2,0.1,1.8,0c0.2,0,1.1-0.2,0.8,0.2c-0.2,0.2-0.4,0.5-0.5,0.7c-0.9,1.3-1.9,2.5-2.7,3.8
		c-0.4,0.6-0.9,1.2-1.4,1.8c-0.4,0.6-0.8,1.1-1.4,2c-1,1.6-2,3.2-2.8,5c-0.4,0.8-0.8,1.7-1,2.6c-0.2,0.6-0.4,1.5-0.2,2.1
		c0.3,0.8,0.9-0.4,1.2-0.7c0.6-0.6,1.1-1.3,1.7-2c0.4-0.5,0.8-0.8,1.2-1.3c0.4-0.5,0.8-0.9,1.2-1.4c0.7-0.8,1.4-1.7,1.9-2.2
		c0.5-0.6,1-1.2,1.4-1.8c0.7-0.8,0.9-1.3,1.4-2c0.5-0.8,1-1.7,1.7-2.4c0.4-0.5,0.7-1.1,1.1-1.7c0.3-0.4,0.6-0.7,1.1-0.7
		c0.7,0,1.2,0.1,1.8,0.3c0.6,0.2,1.2,0.4,1.8,0.7c0.6,0.3,1.1,0.7,1.6,1.1c1,0.8,2.4,1.9,2.2,3.4c-0.1,0.7-0.5,1.3-1,1.7
		c-0.3,0.2-0.5,0.5-0.8,0.7c-0.3,0.2-0.6,0.4-0.9,0.5c-0.7,0.3-1.4,0.3-2.1,0.3c-0.7,0-1.6,0.1-2.1-0.5c-0.2-0.2-0.2-0.7-0.2-1
		c-0.1-0.4-0.2-0.6-0.3-1c-0.2-0.6-0.5-1-1-1.4c-0.1,0.1-0.1,0.3-0.1,0.5c-0.1,0.7-0.6,1.1-1.2,1.4c-0.8,0.4-0.8,1.4-0.8,2.2
		c0,0.7-0.1,1.5,0.3,2.2c0.3,0.5,0.9,1.1,1.4,1.5c0.2,0.2,0.4,0.4,0.7,0.5c0.3,0.1,0.7,0.1,1,0c0.8-0.1,1.6-0.3,2.4-0.5
		c0.3-0.1,0.6-0.2,0.9-0.3c0.3-0.1,0.8-0.4,1.1-0.5c0.7-0.3,1.3-0.7,2-1.1c1.4-0.8,2.2-2.2,2.5-3.6c0.1-0.7-0.1-1.4-0.3-2
		c-0.1-0.3-0.2-0.6-0.4-0.9c-0.2-0.4-0.4-0.7-0.6-1c-0.3-0.3-0.5-0.6-0.8-0.9c-0.2-0.2-0.5-0.5-0.8-0.7c-0.4-0.4-0.8-0.7-1.3-1
		c-0.3-0.2-0.6-0.5-0.9-0.7c-0.1-0.3,0.2-0.4,0.5-0.4c0.4-0.1,0.7-0.2,1.1-0.3c0.9-0.2,1.5-0.3,2.2-0.5c0.3-0.1,0.7-0.2,1-0.3
		c0.5-0.2,1.1-0.5,1.1-0.5c0.5-0.2,1.1-0.7,1.6-1.1C91.2,7.6,91.8,6.4,91.8,5z M89.1,5.3c-1.7,0.9-3.6,1.7-5.4,1.9
		c-0.4,0-2.1,0.5-2.2,0.2c-0.1-0.2,0.2-1,0.3-1.2c0.2-0.8,0.2-1.4,0.2-1.4c0.1-0.5-0.2-1.2,0-1.7c0.1-0.4,0.9-0.3,1.2-0.2
		c1.6,0.1,3.1,0.3,4.6,0.6c0.7,0.1,1.5,0.1,2,0.5C90.7,4.4,89.6,5,89.1,5.3z"/>
	<path class="st0" d="M89.9,25.2c-1.1,0-1.8-1.6-1.8-2.3c-0.1-1.5,0.2-2.9,0.9-4.3l0.2-0.4c0.3-0.6,0.6-1.2,1-1.7
		c0.5-0.7,1-1.4,1.5-2c0.6-0.8,1-1.4,1.4-2.1c0.2-0.3,0.4-0.6,0.6-0.9c0.2-0.2,0.4-0.5,0.5-0.7c0.1-0.2,0.2-0.4,0.3-0.6
		c0.2-0.4,0.4-0.8,0.7-1.2c0.1-0.1,0.1-0.2,0.2-0.4c0.3-0.4,0.5-1,1.2-1c0.1,0,0.2,0,0.3,0c0.7,0,1.1,0.4,1.2,1.2
		c0.1,0.7-0.3,1.3-0.7,1.8c-0.2,0.3-0.3,0.6-0.5,0.9c-0.1,0.3-0.2,0.6-0.4,0.8c-0.6,0.9-1,1.8-1.5,2.7c-0.2,0.3-0.3,0.6-0.5,0.9
		c-0.1,0.2-0.2,0.4-0.4,0.6c-0.3,0.4-0.6,0.9-0.7,1.3c0,0,0.1-0.1,0.1-0.1c0.1-0.1,0.1-0.2,0.2-0.2c0.2-0.2,0.4-0.4,0.6-0.5
		c0.1-0.1,0.3-0.2,0.4-0.3c0.6-0.5,1.1-1.2,1.8-1.9c0.8-0.9,1.8-1.7,2.7-2.4l0.8-0.6c0.5-0.4,0.9-0.7,1.6-0.8c0.1,0,0.1,0,0.2,0
		c0.5,0,1.2,0.1,1.6,0.6c0.9,0.9,0.5,2.3,0.3,3.4l-0.1,0.4c-0.4,1.5-0.9,2.9-1.5,4.2c-0.6,1.3-1.4,2.4-2.2,3.5
		c-0.3,0.5-0.9,0.9-1.3,1.3l-0.3,0.3c-0.3,0.3-0.7,0.6-1.2,0.6c-0.2,0-0.5-0.1-0.7-0.2c-0.4-0.2-0.8-0.8-0.9-1.3
		c-0.1-0.3,0-0.5,0-0.7c0-0.1,0-0.2,0.1-0.3c0-0.1,0-0.3,0.1-0.4c0-0.2,0-0.4,0.1-0.6c0.2-0.7,0.8-1.2,1.3-1.7
		c0.3-0.2,0.7-0.9,1.2-1.7c0.4-0.6,0.7-1.1,1.1-1.6c0.5-0.7,0.9-1.2,1.2-1.8c0.1-0.1,0.1-0.2,0.2-0.3c0.3-0.4,0.6-1,0.5-1.4
		c-0.1-0.1-0.1-0.1-0.1-0.1c-0.2,0-0.5,0.3-0.7,0.4l-0.1,0.1c-0.5,0.4-0.8,0.7-1.2,1.2c-0.2,0.2-0.4,0.5-0.6,0.7
		c-0.2,0.3-0.5,0.5-0.7,0.8c-0.1,0.2-0.2,0.3-0.3,0.4c0,0.1-0.1,0.2-0.2,0.3c-0.1,0.2-0.3,0.4-0.4,0.5l-0.1,0.2
		c-0.4,0.6-0.9,1.1-1.3,1.7L95,20.2c-0.6,0.9-1.2,1.7-1.9,2.6L93,22.9c-0.4,0.5-0.8,1-1.4,1.3c-0.2,0.1-0.3,0.2-0.5,0.4
		c-0.3,0.3-0.7,0.5-1.1,0.6C90,25.1,90,25.2,89.9,25.2z"/>
	<path class="st0" d="M89.1,18.6c0.4-0.7,0.7-1.4,1.2-2.1c0.5-0.7,1-1.4,1.5-2c0.5-0.7,1-1.3,1.4-2.1c0.3-0.6,0.8-1.1,1.1-1.6
		c0.3-0.6,0.6-1.2,1-1.8c0.4-0.5,0.6-1.2,1.2-1.3c0.7-0.1,1.2,0.3,1.3,1c0.1,0.7-0.3,1.2-0.7,1.7c-0.4,0.5-0.5,1.2-0.8,1.7
		c-0.8,1.2-1.3,2.4-2,3.6c-0.4,0.7-1.1,1.7-1.2,2.5c0.4-0.1,0.5-0.4,0.7-0.6c0.3-0.3,0.7-0.6,1-0.9c0.6-0.6,1.2-1.2,1.8-1.9
		c1-1.1,2.2-2,3.4-2.8c0.5-0.4,1-0.8,1.7-0.9c0.5-0.1,1.3,0.1,1.6,0.5c0.9,0.9,0.4,2.5,0.1,3.5c-0.4,1.4-0.8,2.8-1.5,4.1
		c-0.6,1.3-1.4,2.3-2.2,3.4c-0.4,0.6-1.1,1.1-1.6,1.6c-0.5,0.5-1,0.8-1.7,0.4c-0.4-0.3-0.7-0.8-0.8-1.2c-0.1-0.4,0-0.5,0.1-0.8
		c0.1-0.3,0.1-0.7,0.2-1c0.2-0.6,0.8-1.1,1.2-1.6c0.3-0.2,0.8-1,1.3-1.8c0.3-0.5,0.7-1,1.1-1.5c0.4-0.6,0.8-1.2,1.2-1.8
		c0.2-0.5,0.9-1.3,0.7-1.9c-0.3-0.6-0.9,0-1.2,0.3c-0.5,0.4-0.8,0.7-1.2,1.3c-0.4,0.5-0.9,1-1.3,1.5c-0.2,0.3-0.3,0.5-0.5,0.7
		c-0.2,0.2-0.4,0.5-0.5,0.7c-0.4,0.6-0.9,1.1-1.3,1.7c-0.9,1.2-1.7,2.3-2.5,3.4c-0.4,0.5-0.8,1-1.4,1.4c-0.5,0.3-1,0.9-1.5,0.9
		c-1,0.1-1.7-1.3-1.8-2.2C88.1,21.3,88.4,19.9,89.1,18.6z"/>
	<path class="st0" d="M102.6,23.9c-0.2,0-0.3-0.1-0.5-0.2c-0.7-0.7-0.1-2,0.2-2.5c0.1-0.2,0.2-0.4,0.4-0.7c0.1-0.3,0.3-0.6,0.5-0.9
		c0.1-0.2,0.2-0.4,0.3-0.5c0.1-0.2,0.2-0.4,0.3-0.5c0.1-0.2,0.3-0.4,0.4-0.7c0.3-0.5,0.6-1,0.9-1.4l0.4-0.5c0.5-0.7,1-1.4,1.6-2
		c0.5-0.6,1-1.2,1.4-1.8c0.3-0.4,0.6-0.8,0.9-1.1c0.2-0.3,0.5-0.6,0.7-0.8c0.4-0.6,0.9-1.3,1.3-2c0.2-0.3,0.4-0.5,0.5-0.7
		c0.2-0.3,0.5-0.6,0.7-1c0.4-0.6,0.6-1.2,0.9-2c0.1-0.3,0.1-0.5,0.1-0.8c0-0.1,0-0.1,0-0.2c-0.1-0.4-0.1-0.7,0-0.9
		c0.1-0.2,0.3-0.2,0.4-0.2c0.6,0,1,1.5,1,1.6c0.4,1.4,0,2.8-0.3,4.2l-0.1,0.5c-0.3,1.3-0.9,2.6-1.4,3.8l-0.2,0.5
		c-0.5,1.3-1,2.1-1.6,2.9c-0.2,0.3-0.4,0.6-0.5,0.9c-0.8,1.4-1.5,2-1.5,2c-0.3,0.4-0.7,0.7-1.1,0.9c-0.2,0.1-0.4,0.3-0.6,0.4
		c-0.5,0.4-0.9,0.9-1.4,1.3c-0.5,0.5-1,1-1.5,1.4c-0.1,0.1-0.3,0.2-0.4,0.3c-0.1,0.1-0.2,0.2-0.3,0.3c-0.2,0.2-0.5,0.3-0.8,0.4
		C103,23.8,102.8,23.9,102.6,23.9z"/>
	<path class="st0" d="M102.5,21.3c0.3-0.5,0.5-1,0.8-1.5c0.2-0.3,0.3-0.7,0.6-1.1c0.4-0.7,0.8-1.4,1.3-2.1c0.6-0.8,1.2-1.7,1.9-2.5
		c0.5-0.6,1-1.2,1.4-1.9c0.5-0.7,1.1-1.3,1.6-2c0.4-0.6,0.9-1.3,1.4-2c0.4-0.6,0.8-1.1,1.2-1.7c0.4-0.7,0.6-1.3,0.9-2
		c0.1-0.3,0.2-0.6,0.1-0.9c0-0.2-0.2-0.8-0.1-1c0.4-0.6,0.9,1.1,1,1.3c0.4,1.6,0,3-0.4,4.6c-0.4,1.5-1,2.9-1.6,4.3
		c-0.7,1.7-1.4,2.5-2.1,3.8c-0.8,1.4-1.5,1.9-1.5,1.9c-0.5,0.6-1.1,0.9-1.6,1.4c-1,0.8-1.9,1.9-2.8,2.7c-0.3,0.2-0.4,0.4-0.7,0.6
		c-0.2,0.2-0.4,0.3-0.7,0.4c-0.3,0.1-0.5,0.2-0.7,0C101.7,23,102.2,21.9,102.5,21.3z"/>
	<path class="st0" d="M107.7,25.2c-0.1,0-0.1,0-0.2,0l-0.1,0l-0.1-0.1c-0.1-0.3,0.1-0.8,0.7-2c0-0.1,0.1-0.1,0.1-0.2
		c0.1-0.1,0.1-0.2,0.2-0.4c0.1-0.3,0.3-0.7,0.5-1c0.1-0.1,0.1-0.2,0.2-0.3c0.1-0.1,0.1-0.3,0.3-0.4c0.2-0.2,0.4-0.6,0.6-0.8
		c0.1-0.1,0.1-0.2,0.2-0.2c0.1-0.2,0.2-0.3,0.3-0.4c0.1-0.1,0.1-0.2,0.2-0.3c0.3-0.4,0.6-0.9,0.9-1.3c0.7-1.1,1.5-2.2,2.3-3.1
		c0.2-0.2,0.3-0.4,0.4-0.5l0.1-0.2c0.1-0.2,0.4-0.4,0.6-0.7l0.1-0.1c0.3-0.3,0.6-0.7,0.8-1.1l0.3-0.4c0.3-0.4,0.6-0.8,0.9-1.3
		c0.3-0.4,0.6-0.8,0.9-1.2l0.1-0.2c0.2-0.3,0.5-0.7,0.7-1.1c0.1-0.2,0.2-0.3,0.2-0.5c0-0.1,0.1-0.2,0.1-0.2c0,0,0.1-0.2,0.2-0.3
		c0,0,0.2-0.4,0.2-0.5c0.2-0.5,0.4-0.9,0.6-1.3l0.1-0.3c0.1-0.4,0.3-0.7,0.4-1.1c0.1-0.4,0.1-0.7,0.1-1l0-0.5l0.2,0
		c0.1,0,0.1,0,0.2,0c0.2,0,0.4,0.1,0.6,0.3c0.9,1.2-0.1,5.8-0.3,6.4c-0.8,2.6-1.8,5.5-3.4,8l-0.1,0.1c-0.6,0.9-1.2,1.8-1.9,2.5
		c-0.1,0.1-0.2,0.2-0.2,0.2c-0.1,0.1-0.2,0.2-0.3,0.3c-0.2,0.2-0.4,0.5-0.7,0.7c-0.5,0.4-1,0.9-1.6,1.3c-0.2,0.1-0.3,0.2-0.5,0.3
		c-0.3,0.2-0.6,0.4-0.8,0.6c-0.2,0.2-0.5,0.4-0.7,0.5c-0.2,0.1-0.5,0.3-0.7,0.5c-0.4,0.3-0.9,0.7-1.3,1l-0.2,0.1
		C108.4,24.9,108.1,25.2,107.7,25.2z"/>
	<path class="st0" d="M108.2,22.9c0.2-0.5,0.3-0.9,0.6-1.3c0.2-0.2,0.2-0.5,0.4-0.7c0.2-0.3,0.7-1,0.7-1.1c0.2-0.3,0.3-0.4,0.6-0.7
		c1.1-1.5,2-3.1,3.2-4.5c0.2-0.2,0.4-0.5,0.6-0.7c0.2-0.2,0.5-0.6,0.7-0.8c0.4-0.5,0.8-1.1,1.1-1.4c0.6-0.8,1.2-1.7,1.7-2.5
		c0.1-0.2,0.6-0.8,0.8-1.3c0.1-0.3,0.3-0.5,0.4-0.7c0,0,0.1-0.2,0.2-0.4c0.1-0.2,0.1-0.3,0.2-0.5c0.2-0.5,0.4-0.9,0.6-1.4
		c0.2-0.5,0.4-0.9,0.5-1.4c0.1-0.5,0.1-0.9,0.1-1.4c1.7-0.3,0.4,5.6,0.2,6.4c-0.8,2.8-1.8,5.6-3.4,8c-0.6,0.9-1.2,1.9-2,2.6
		c-0.2,0.2-0.4,0.3-0.5,0.5c-0.2,0.2-0.4,0.5-0.7,0.7c-0.5,0.4-1,0.9-1.5,1.3c-0.4,0.3-0.9,0.6-1.3,0.9c-0.4,0.4-1,0.5-1.4,0.9
		c-0.4,0.3-0.9,0.7-1.3,1c-0.4,0.3-0.8,0.6-1.3,0.5C107.1,24.9,108.2,23,108.2,22.9z"/>
	<path class="st0" d="M113.4,33.1c-0.2,0-0.3-0.1-0.4-0.2c-0.2-0.3,0-0.9,0.2-1.4c0.4-0.8,0.8-1.6,1.2-2.4c0.3-0.4,0.6-0.8,0.9-1.2
		c0.1-0.1,0.3-0.3,0.4-0.4c0.5-0.6,0.9-1.1,1.5-1.6l0.5-0.4c0.5-0.5,1-1,1.6-1.4l0.1-0.1c0.3-0.2,0.6-0.4,0.8-0.7
		c0.1-0.2,0.1-0.3,0.2-0.5c0-0.1,0-0.2,0-0.3c0-0.3,0.1-0.6,0.1-0.9c0-0.4,0.1-0.9,0.1-1.3c0.3-1.4,0.8-2.7,1.3-4
		c0.1-0.3,0.2-0.6,0.3-0.9c0.1-0.3,0.1-0.6,0.2-0.8c0.1-0.3,0.2-0.5,0.3-0.8c0.1-0.3,0.2-0.6,0.3-0.9c0.2-0.4,0.3-0.9,0.4-1.4
		c0.2-0.7,0.1-1.6-0.4-1.9c-0.1,0-0.1,0-0.2-0.1c-0.1,0-0.3-0.1-0.5-0.2L122,9.3l0-0.1c0-0.3,0.3-0.5,0.7-0.5c0.4,0,1,0.2,1.2,0.4
		c0.5,0.4,0.8,1,0.9,1.5c0.1,0.7,0.2,1.4,0.2,2.1c0,0.6,0,1.5-0.1,2.4c-0.1,0.7-0.2,1.4-0.4,2c-0.1,0.4-0.2,0.9-0.3,1.4
		c0,0.3-0.1,0.6-0.1,0.8C124,19.8,124,20,124,20c0.1,0,0.2-0.1,0.3-0.1c0.4-0.2,0.6-0.5,0.9-0.7c0.2-0.2,0.4-0.3,0.6-0.5
		c0.2-0.2,0.4-0.3,0.5-0.5c0.1-0.1,0.2-0.2,0.4-0.4l1.2-1c0.3-0.3,0.7-0.6,1-0.9c0.1-0.1,0.2-0.2,0.4-0.4c0.1-0.1,0.2-0.2,0.3-0.3
		l0.6-0.6c0.8-0.7,1.6-1.5,2.4-2.3l0.4-0.4c0.3-0.3,0.5-0.5,0.8-0.8c0.2-0.2,0.3-0.5,0.3-0.8c0-0.2,0.1-0.4,0.2-0.6
		c0.1-0.3,0.4-0.4,0.7-0.4c0.4,0,0.8,0.2,1.1,0.5c0.4,0.6,0.4,1.4,0.2,2c-0.3,1-0.9,1.9-1.5,2.8l-0.4,0.6c-0.2,0.3-0.3,0.5-0.5,0.8
		c-0.6,1-1.3,2.1-2.1,2.9c-0.5,0.5-0.9,1-1.3,1.6c-0.6,0.7-1.2,1.5-1.9,2.2c-0.2,0.2-0.4,0.4-0.6,0.6c-0.3,0.3-0.7,0.7-1,1
		c-0.5,0.4-1.1,0.8-1.7,1.1l-0.2,0.1c-1.6,0.9-3.2,1.8-4.7,2.5c-0.4,0.2-0.7,0.4-1.1,0.6c-0.4,0.2-0.8,0.4-1.2,0.7
		c-0.6,0.3-1.2,0.7-1.7,1.1c-0.4,0.3-1.8,1.6-1.8,1.6C114.1,32.7,113.7,33,113.4,33.1L113.4,33.1z"/>
	<path class="st0" d="M113.4,31.5c0.3-0.8,0.7-1.6,1.2-2.3c0.3-0.6,0.8-1.1,1.3-1.6c0.5-0.6,0.9-1,1.4-1.6c0.7-0.7,1.3-1.3,2-1.8
		c0.3-0.2,0.7-0.5,0.9-0.8c0.3-0.3,0.2-0.6,0.2-0.9c0.1-0.7,0.1-1.4,0.2-2.1c0.3-1.4,0.8-2.7,1.3-4c0.2-0.6,0.3-1.1,0.5-1.7
		c0.2-0.6,0.3-1.2,0.5-1.7c0.2-0.5,0.3-0.9,0.4-1.4c0.1-0.6,0.2-1.7-0.5-2.1c-0.2-0.1-0.4,0-0.6-0.3c0.1-0.6,1.2-0.2,1.5,0
		c0.4,0.3,0.8,0.9,0.9,1.4c0.1,0.6,0.2,1.4,0.2,2c0,0.5,0,1.3-0.1,2.4c-0.1,0.7-0.2,1.4-0.4,2c-0.2,0.7-0.3,1.5-0.4,2.2
		c0,0.2-0.2,0.7,0,0.9c0.2,0.2,0.5,0,0.6-0.1c0.5-0.3,0.9-0.8,1.4-1.1c0.4-0.3,0.5-0.5,0.9-0.9c0.4-0.3,0.8-0.7,1.2-1
		c0.3-0.3,0.7-0.6,1-0.9c0.2-0.2,0.4-0.4,0.6-0.6c1-0.9,2-1.9,3-2.9c0.4-0.4,0.8-0.8,1.2-1.2c0.4-0.4,0.3-1,0.5-1.5
		c0.2-0.5,1.1-0.3,1.4,0.2c0.4,0.5,0.3,1.3,0.1,1.9c-0.4,1.2-1.2,2.2-1.9,3.3c-0.8,1.2-1.6,2.6-2.6,3.7c-1.1,1.2-2.1,2.6-3.3,3.7
		c-0.5,0.5-1.1,1.1-1.6,1.6c-0.6,0.5-1.3,0.9-1.9,1.2c-1.5,0.9-3.1,1.7-4.7,2.5c-0.8,0.4-1.5,0.9-2.3,1.3c-0.6,0.3-1.2,0.7-1.7,1.2
		c-0.6,0.5-1.1,1-1.6,1.5c-0.2,0.2-0.6,0.7-1,0.7C112.8,32.9,113.2,31.9,113.4,31.5z"/>
</g>
</svg>
