<?xml version="1.0" encoding="utf-8"?>
<!-- Generator: Adobe Illustrator 21.1.0, SVG Export Plug-In . SVG Version: 6.00 Build 0)  -->
<svg version="1.1" id="Layer_1" xmlns="http://www.w3.org/2000/svg" xmlns:xlink="http://www.w3.org/1999/xlink" x="0px" y="0px"
	 width="60.7px" height="14.6px" viewBox="0 0 60.7 14.6" style="enable-background:new 0 0 60.7 14.6;" xml:space="preserve">
<style type="text/css">
	.st0{fill:#FF0000;}
</style>
<g>
	<g>
		<path class="st0" d="M9.9,3.7C9.8,3.4,9.6,3.1,9.4,2.9C9.2,2.7,8.9,2.4,8.7,2.3C8.6,2.2,8.4,2.2,8.3,2.1C8.1,2,7.9,1.9,7.7,1.8
			C7.5,1.7,7.3,1.6,7.3,1.4c0-0.2,0.2-0.4,0.1-0.7c0-0.2-0.2-0.4-0.4-0.4c-0.1,0-0.3-0.1-0.4,0C6.6,0.4,6.5,0.4,6.4,0.6
			c0,0.2-0.1,0.3-0.1,0.5c0,0.1-0.2,0.5-0.4,0.6c-0.2,0-0.4,0.1-0.7,0.1c-0.3,0.1-0.7,0-1.1,0.1C3.7,1.9,3.4,2,2.9,2.2
			C2.4,2.3,1.8,2.5,1.2,2.6C0.7,2.7-0.1,3.1,0,3.7C0,4,0.3,4.2,0.5,4.2c0.3,0,0.4-0.3,0.6-0.4c0.2-0.2,0.5-0.2,0.7-0.3
			c0.2-0.1,0.5-0.2,0.7-0.3C3.1,3,3.8,3,4.4,2.9c0.1,0,0.6-0.2,0.8-0.1c0.1,0.1-0.2,0.4-0.3,0.5C4.6,3.6,4.4,3.9,4.2,4.2
			C4,4.4,3.9,4.7,3.6,4.9C3.5,5,3.4,5.1,3.2,5.1C3.2,5.1,3,5.1,3,5.1c0,0.1,0.2,0.2,0.2,0.4c0,0.1-0.1,0.2-0.1,0.3
			C3,5.9,2.9,6.1,2.8,6.2C2.6,6.4,2.5,6.7,2.3,7C2.2,7.3,2,7.5,1.9,7.8C1.6,8.4,1.3,9,1.1,9.6C1,9.8,0.9,10.1,0.9,10.4
			c0,0.3-0.1,0.5-0.1,0.8c0,0.2,0.1,0.6,0.1,0.6c0.1,0,0.3-0.5,0.4-0.8c0.2-0.2,0.4-0.4,0.5-0.7C2.1,10,2.3,9.7,2.5,9.4
			c0.2-0.3,0.4-0.6,0.7-1C3.3,8.3,3.4,8.1,3.5,8c0.1-0.1,0.1-0.2,0.2-0.3c0.1-0.1,0.1-0.2,0.2-0.3C4.2,7,4.4,6.3,4.8,6
			C5.1,5.9,5.4,6,5.6,6c0.3,0.1,0.9,0.1,1.2,0C7.4,6,8,5.9,8.5,5.7c0.6-0.2,1-0.7,1.3-1.1C9.9,4.3,10,4,9.9,3.7z M7.9,3.9
			C7.2,4.1,6.6,4.4,5.9,4.5c-0.1,0-0.2,0-0.3,0l0,0c0.1-0.1,0.2-0.2,0.3-0.3C5.9,4.1,6,4,6,3.9c0.2-0.2,0.3-0.5,0.5-0.7
			C6.7,2.9,6.8,2.5,7,2.3c0.1-0.1,0.3-0.1,0.5-0.1c0.2,0,0.3,0.1,0.4,0.1C8.3,2.4,8.7,2.6,9,2.8C9.1,2.8,9.1,2.9,9.1,3
			C9,3.5,8.3,3.8,7.9,3.9z"/>
	</g>
	<path class="st0" d="M7.1,9.8c0-0.2,0.1-0.2,0.1-0.4c0.1-0.3,0.3-0.6,0.5-0.9c0.3-0.5,0.6-1,1-1.4c0.2-0.3,0.4-0.6,0.6-0.9
		c0.3-0.4,0.7-0.8,0.8-1.3c0-0.1,0.1-0.3,0.1-0.4c0.1-0.2,0.3,0,0.4,0.1c0.2,0.2,0.2,0.5,0.3,0.8C11,5.6,11,5.8,11,6
		c0,0.2-0.1,0.4-0.2,0.6c-0.2,0.6-0.6,1.1-0.9,1.6C9.7,8.4,9.4,8.6,9.3,8.8C9.2,8.9,9.1,9,8.9,9.2C8.8,9.3,8.7,9.4,8.6,9.5
		C8.3,9.7,8.1,9.8,7.9,9.9c-0.1,0.1-0.2,0.1-0.3,0.2c-0.1,0.1-0.2,0.2-0.3,0.3c-0.1,0.1-0.3,0.3-0.3,0C7,10.3,7.1,10,7.1,9.8z"/>
	<path class="st0" d="M11.5,9.4c0.2,0.1,0.4,0.3,0.6,0.3c0.5,0.1,1.1-0.2,1.1-0.7c0-0.4-0.2-0.6-0.5-0.8C12,7.4,12,6.3,12.4,5.4
		c0.1-0.2,0.1-0.3,0.2-0.4c0.1-0.1,0.2-0.3,0.3-0.4c0.2-0.3,0.5-0.6,0.8-0.8c0,0,0.5-0.5,0.9-0.6c0.3-0.1,0.6-0.1,0.9,0
		c0.2,0,0.6,0.1,0.7,0.3c0.1,0.2,0.1,0.5,0,0.6c0,0-0.1,0.2-0.3,0.4c-0.1,0.1-0.1,0.2-0.4,0.3c-0.1,0-0.1,0.1-0.3,0.1
		c0,0-0.3,0.1-0.3,0.1c-0.1,0-0.3,0.1-0.4,0.1c-0.3,0.1-0.7,0.3-0.9,0.5c-0.1,0.1-0.2,0.2-0.3,0.3C13.1,6,13,6.3,12.8,6.6
		c-0.1,0.3-0.1,0.6,0,0.9C13,7.7,13.2,8,13.4,8.2c0.2,0.2,0.2,0.7,0.2,1c0,0.3-0.2,0.7-0.4,0.9c-0.2,0.3-0.4,0.5-0.6,0.7
		c-0.1,0.2-0.3,0.5-0.5,0.6c-0.3,0.1-0.6,0.1-0.8-0.1c-0.3-0.2-0.4-0.3-0.6-0.6c-0.1-0.2-0.3-0.5-0.3-0.7c0-0.2-0.1-0.4-0.2-0.6
		C10.1,9.3,10,9.2,9.9,9c0-0.2,0.2-0.2,0.4-0.2C10.8,8.9,11.1,9.2,11.5,9.4z"/>
	<path class="st0" d="M12.1,1.7c0.1-0.2,0.3-0.4,0.4-0.6c0.1-0.2,0.2-0.4,0.3-0.6c0-0.1,0.1-0.6,0.3-0.6c0.1,0.3,0.2,0.5,0.3,0.8
		c0.1,0.3,0.1,0.5,0.1,0.8c0,0.3,0.1,0.6-0.1,0.9C13.3,2.7,13,2.9,12.8,3c-0.2,0.1-0.4,0.2-0.6,0.2c-0.1,0-0.2,0-0.3,0
		c-0.1,0-0.2,0.1-0.3,0.1c-0.2,0.1,0-0.7,0-0.7C11.8,2.3,12,2,12.1,1.7z"/>
	<path class="st0" d="M28.4,4.1c-0.1,0.1-0.1,0.2-0.2,0.3c-0.1,0.1-0.3,0.2-0.4,0.2c-0.4,0.2-0.8,0.4-1.1,0.6
		c-0.2,0.1-0.3,0.2-0.5,0.3c-0.2,0.1-0.3,0.2-0.5,0.3C25.5,5.8,25.3,6,25.2,6c0-0.4,0.2-0.7,0.2-1.1c0-0.3-0.1-1.1-0.3-1.1
		c-0.1,0-0.1,0.2-0.1,0.3c0,0.2-0.1,0.2-0.1,0.3c-0.1,0.1-0.2,0.2-0.2,0.3c-0.3,0.5-0.6,1-1,1.4c-0.2,0.3-0.6,0.6-0.8,0.9
		c-0.2,0.2-0.3,0.4-0.5,0.7c-0.2,0.3-0.4,0.5-0.6,0.7c-0.1,0.1-0.2,0.2-0.3,0.3c-0.1,0.1-0.2,0.3-0.3,0.4c-0.2,0.2-0.4,0.4-0.7,0.5
		c-0.3,0.1-0.6,0.2-0.9,0.1c-0.2-0.1-0.3-0.4-0.2-0.6c0.1-0.3,0.2-0.6,0.4-0.8C20,8.2,20,8,20.1,7.9c0.1-0.3,0.2-0.6,0.6-0.8
		c0.3-0.2,0.6-0.2,0.9-0.3c0.5-0.1,1-0.2,1.4-0.6c0.2-0.2,0.5-0.5,0.5-0.7c0,0,0.1-0.1,0.1-0.4c0-0.1,0.1-0.1,0-0.5
		c0-0.3-0.2-0.6-0.3-0.9c0-0.1-0.2-0.1-0.2,0c0,0,0,0.1-0.1,0.2c-0.3,0-0.6,0.1-0.9,0.2c-0.3,0.1-0.4,0.2-0.7,0.4
		C21.1,4.8,20.9,5,20.6,5c-0.2,0.1-0.5,0.2-0.7,0.2c-0.2,0-0.3,0.1-0.5,0.1c-0.1,0.1-0.3,0.1-0.5,0.1c0-0.3,0.3-0.7,0.4-1
		c0.2-0.3,0.3-0.6,0.4-1C20,3,20.2,2.5,20,2c-0.1-0.2-0.3-0.4-0.5-0.2c-0.2,0.2-0.2,0.5-0.2,0.7C19.2,2.8,19,3,18.8,3.2
		c-0.2,0.2-0.3,0.5-0.5,0.7c-0.2,0.3-0.4,0.5-0.5,0.7c-0.1,0.2-0.3,0.4-0.4,0.6c-0.2,0.3-0.3,0.6-0.6,0.8c-0.2,0.2-0.5,0.3-0.8,0.4
		c-0.4,0.1-0.7,0.2-1,0.3c-0.2,0.1-0.5,0.1-0.8,0.1c-0.1,0-0.2,0-0.3-0.1C14,6.7,14,6.5,13.9,6.6c-0.2,0.2-0.1,0.5,0.1,0.7
		c0.2,0.2,0.5,0.3,0.8,0.4c0.2,0,0.6,0.1,0.8,0.1c0.1,0,0.2,0,0.3,0.1c0,0.1-0.1,0.2-0.2,0.3c-0.3,0.6-0.6,1.2-0.8,1.7
		c-0.1,0.2-0.5,1.7-0.4,1.7c0.1,0,0.2-0.2,0.3-0.3c0.1-0.1,0.2-0.2,0.3-0.3c0.2-0.2,0.4-0.4,0.6-0.6c0.4-0.5,0.8-1,1.1-1.6
		c0.2-0.3,0.3-0.5,0.5-0.8c0.1-0.2,0.4-0.8,0.6-1c0.5-0.3,0.7-0.5,1.1-0.7c0.2-0.2,0.4-0.2,0.5-0.3c0,0,0.4-0.1,0.5-0.1
		c0,0-0.2,0.2-0.3,0.3c-0.3,0.3-0.4,0.6-0.6,0.9c-0.2,0.3-0.3,0.6-0.3,1c0,0.4-0.1,0.7,0,1.1c0.1,0.3,0.1,0.7,0.3,0.9
		c0.1,0.1,0.2,0.2,0.3,0.3c0.4,0.3,0.8,0.2,1.1-0.1c0.2-0.3,0.3,0,0.4,0.2c0.1,0.2,0.3,0.3,0.6,0.1c0.2-0.1,0.3-0.3,0.5-0.4
		c0.4-0.4,0.9-0.8,1.3-1.3c0.2-0.2,0.4-0.4,0.6-0.7c0.1-0.1,0.2-0.2,0.3-0.3c0.1-0.1,0.2-0.3,0.4-0.4c0.2-0.2,0.3-0.3,0.4-0.5
		C25,7.2,25.1,7,25.2,6.9c0.3-0.3,0.7-0.7,1-1c0.3-0.2,0.6-0.5,0.9-0.6c0.2-0.1,0.4-0.3,0.6-0.4c0.2-0.1,0.3-0.1,0.4,0
		c0.1,0.1,0.1,0.4,0,0.5C28.1,5.6,28,5.8,27.9,6c-0.1,0.2-0.3,0.5-0.5,0.7c-0.2,0.3-0.3,0.5-0.5,0.8c-0.1,0.2-0.4,0.5-0.5,0.7
		c-0.2,0.3-0.4,0.5-0.6,0.8c-0.1,0.1-0.2,0.3-0.2,0.4c-0.1,0.1-0.1,0.2-0.2,0.3c-0.1,0.2-0.2,0.5-0.3,0.7c0,0.1-0.1,0.3,0,0.4
		c0.1,0.3,0.5,0,0.6,0c0.1-0.1,0.2-0.1,0.3-0.2c0.2-0.2,0.5-0.3,0.7-0.5c0.4-0.3,0.8-0.7,1-1.2c0.2-0.3,0.4-0.6,0.5-1
		c0.1-0.3,0.2-0.6,0.4-0.9c0.2-0.6,0.3-1.3,0.4-2C29.3,4.7,29.1,3.8,28.4,4.1z M21.2,5.7c0.2-0.3,0.4-0.5,0.7-0.8
		c0,0,0.5-0.4,0.6-0.4c0.3-0.1,0.6-0.1,0.7,0c0.2,0.2-0.1,0.6-0.5,0.9c-0.4,0.2-0.7,0.4-1,0.7c-0.1,0.1-0.4,0.1-0.5,0.1
		C21.1,6,21.1,5.8,21.2,5.7z"/>
	<path class="st0" d="M40.9,2.2c0-0.3-0.1-0.5-0.3-0.7c-0.2-0.3-0.5-0.4-0.8-0.6c-0.3-0.2-0.6-0.3-0.9-0.4c-0.2-0.1-0.4-0.1-0.6-0.1
		c-0.9-0.2-1.7-0.2-2.6-0.3c-0.9-0.1-1.7,0-2.6,0c-0.8,0-1.6,0-2.3,0.1c-0.7,0.1-1.3,0.4-2,0.6c-0.3,0.1-0.5,0.2-0.8,0.2
		C27.6,1,27.3,1.1,27,1.3c-0.1,0.1-0.2,0.2-0.3,0.4c-0.1,0.1-0.1,0.3,0,0.5c0.1,0.2,0.3,0.4,0.5,0.5c0.1,0,0.3,0,0.4,0
		c0.2,0,0.3,0,0.5,0c0.1,0,0.4-0.1,0.5-0.2c0-0.1-0.1-0.3-0.1-0.4c-0.1-0.4,0.3-0.5,0.6-0.6c0.3-0.1,0.7-0.1,1-0.2
		c0.8-0.1,1.6-0.2,2.4-0.2c0.3,0,0.6-0.1,0.9-0.1c0.3,0,0.7,0.1,1,0.1c0.3,0,0.7,0,1,0c0.1,0,0.4,0,0.4,0.1c0.1,0.1-0.2,0.3-0.2,0.4
		c-0.1,0.1-0.1,0.2-0.2,0.3c-0.1,0.1-0.2,0.2-0.3,0.4c-0.2,0.3-0.5,0.7-0.9,0.8c-0.1,0-0.3,0-0.4,0c-0.1,0.1-0.1,0.2-0.2,0.2
		c-0.1,0.1-0.3,0.1-0.4,0.2c-0.3,0.1-0.6,0.2-0.9,0.3c-0.2,0-0.2,0.1-0.4,0.1c0,0-0.3,0.1-0.4,0.1c0.1,0.1,0.5,0.1,0.7,0.1
		c0.3,0,0.5,0,0.8,0c0.1,0,0.5-0.1,0.4,0.1c-0.1,0.1-0.2,0.2-0.2,0.3c-0.4,0.6-0.8,1.1-1.2,1.7c-0.2,0.3-0.4,0.5-0.6,0.8
		C31.1,7.4,31,7.6,30.7,8c-0.5,0.7-0.9,1.4-1.3,2.2c-0.2,0.4-0.3,0.8-0.4,1.2c-0.1,0.3-0.2,0.7-0.1,0.9c0.1,0.3,0.4-0.2,0.5-0.3
		c0.3-0.3,0.5-0.6,0.8-0.9c0.2-0.2,0.3-0.4,0.5-0.6c0.2-0.2,0.4-0.4,0.5-0.6c0.3-0.3,0.6-0.7,0.8-1c0.2-0.2,0.4-0.5,0.6-0.8
		c0.3-0.4,0.4-0.6,0.6-0.9c0.2-0.3,0.5-0.7,0.7-1.1c0.2-0.2,0.3-0.5,0.5-0.7c0.1-0.2,0.3-0.3,0.5-0.3c0.3,0,0.5,0.1,0.8,0.1
		c0.3,0.1,0.5,0.2,0.8,0.3C37,5.7,37.2,5.9,37.4,6c0.5,0.3,1.1,0.8,1,1.5c0,0.3-0.2,0.6-0.5,0.8c-0.1,0.1-0.2,0.2-0.4,0.3
		c-0.1,0.1-0.3,0.2-0.4,0.2C36.9,9,36.6,9,36.2,9c-0.3,0-0.7,0.1-0.9-0.2c-0.1-0.1-0.1-0.3-0.1-0.4c0-0.2-0.1-0.3-0.2-0.4
		c-0.1-0.3-0.2-0.5-0.5-0.6c0,0.1,0,0.1-0.1,0.2c0,0.3-0.3,0.5-0.5,0.6c-0.4,0.2-0.4,0.6-0.4,1c0,0.3,0,0.7,0.1,1
		c0.2,0.2,0.4,0.5,0.6,0.7c0.1,0.1,0.2,0.2,0.3,0.2c0.1,0,0.3,0,0.4,0c0.4,0,0.7-0.1,1.1-0.2c0.1,0,0.3-0.1,0.4-0.1
		c0.2-0.1,0.4-0.2,0.5-0.2c0.3-0.2,0.6-0.3,0.9-0.5c0.6-0.4,1-1,1.1-1.6c0-0.3-0.1-0.6-0.1-0.9c-0.1-0.1-0.1-0.3-0.2-0.4
		c-0.1-0.2-0.2-0.3-0.3-0.4c-0.1-0.1-0.2-0.3-0.4-0.4C38,6,37.9,5.9,37.8,5.8c-0.2-0.2-0.3-0.3-0.6-0.5c-0.1-0.1-0.3-0.2-0.4-0.3
		c0-0.1,0.1-0.2,0.2-0.2c0.2,0,0.3-0.1,0.5-0.1c0.4-0.1,0.7-0.1,1-0.2c0.1,0,0.3-0.1,0.4-0.1c0.2-0.1,0.5-0.2,0.5-0.2
		c0.2-0.1,0.5-0.3,0.7-0.5C40.7,3.3,40.9,2.8,40.9,2.2z M39.7,2.3C39,2.7,38.1,3,37.3,3.1c-0.2,0-0.9,0.2-1,0.1
		c0-0.1,0.1-0.4,0.1-0.5C36.5,2.3,36.5,2,36.5,2c0-0.2-0.1-0.5,0-0.7c0.1-0.2,0.4-0.1,0.6-0.1c0.7,0,1.4,0.2,2.1,0.2
		c0.3,0,0.7,0.1,0.9,0.2C40.4,1.9,39.9,2.2,39.7,2.3z"/>
	<path class="st0" d="M39.7,8.2c0.2-0.3,0.3-0.6,0.5-0.9c0.2-0.3,0.4-0.6,0.7-0.9c0.2-0.3,0.5-0.6,0.6-0.9C41.7,5.2,41.9,5,42,4.7
		c0.2-0.3,0.3-0.5,0.5-0.8c0.2-0.2,0.2-0.5,0.6-0.6c0.3-0.1,0.5,0.1,0.6,0.4c0.1,0.3-0.1,0.5-0.3,0.8c-0.2,0.2-0.2,0.5-0.4,0.8
		c-0.3,0.5-0.6,1.1-0.9,1.6c-0.2,0.3-0.5,0.7-0.5,1.1c0.2,0,0.2-0.2,0.3-0.3c0.1-0.1,0.3-0.3,0.4-0.4c0.3-0.3,0.5-0.6,0.8-0.8
		c0.4-0.5,1-0.9,1.5-1.3c0.2-0.2,0.4-0.4,0.7-0.4c0.2,0,0.6,0,0.7,0.2c0.4,0.4,0.2,1.1,0.1,1.6c-0.2,0.6-0.4,1.3-0.7,1.9
		c-0.3,0.6-0.6,1-1,1.5c-0.2,0.3-0.5,0.5-0.7,0.7c-0.2,0.2-0.5,0.3-0.8,0.2c-0.2-0.1-0.3-0.3-0.4-0.5c0-0.2,0-0.2,0.1-0.4
		c0-0.1,0-0.3,0.1-0.4c0.1-0.3,0.3-0.5,0.5-0.7c0.1-0.1,0.3-0.4,0.6-0.8c0.2-0.2,0.3-0.5,0.5-0.7c0.2-0.3,0.4-0.5,0.5-0.8
		C45,6.4,45.3,6,45.2,5.7c-0.1-0.3-0.4,0-0.5,0.1c-0.2,0.2-0.4,0.3-0.5,0.6c-0.2,0.2-0.4,0.4-0.6,0.7c-0.1,0.1-0.1,0.2-0.2,0.3
		c-0.1,0.1-0.2,0.2-0.2,0.3c-0.2,0.3-0.4,0.5-0.6,0.8c-0.4,0.5-0.7,1-1.1,1.5c-0.2,0.2-0.4,0.5-0.6,0.6c-0.2,0.1-0.4,0.4-0.7,0.4
		c-0.5,0.1-0.8-0.6-0.8-1C39.3,9.4,39.4,8.8,39.7,8.2z"/>
	<path class="st0" d="M45.7,9.4c0.1-0.2,0.2-0.5,0.4-0.7c0.1-0.2,0.2-0.3,0.2-0.5c0.2-0.3,0.4-0.6,0.6-0.9c0.3-0.4,0.6-0.8,0.9-1.1
		C48,6,48.2,5.7,48.4,5.4c0.2-0.3,0.5-0.6,0.7-0.9c0.2-0.3,0.4-0.6,0.6-0.9c0.2-0.2,0.4-0.5,0.5-0.8c0.2-0.3,0.3-0.6,0.4-0.9
		c0.1-0.1,0.1-0.3,0.1-0.4c0-0.1-0.1-0.4,0-0.5c0.2-0.3,0.4,0.5,0.4,0.6c0.2,0.7,0,1.4-0.2,2c-0.2,0.7-0.5,1.3-0.7,1.9
		c-0.3,0.7-0.6,1.1-0.9,1.7c-0.4,0.6-0.7,0.9-0.7,0.9c-0.2,0.3-0.5,0.4-0.7,0.6C47.4,9.2,47,9.6,46.6,10c-0.1,0.1-0.2,0.2-0.3,0.3
		c-0.1,0.1-0.2,0.1-0.3,0.2c-0.1,0-0.2,0.1-0.3,0C45.3,10.2,45.6,9.7,45.7,9.4z"/>
	<path class="st0" d="M48.2,10.1c0.1-0.2,0.2-0.4,0.3-0.6c0.1-0.1,0.1-0.2,0.2-0.3C48.8,9.1,49,8.7,49,8.7c0.1-0.1,0.2-0.2,0.3-0.3
		c0.5-0.7,0.9-1.4,1.5-2c0.1-0.1,0.2-0.2,0.3-0.3c0.1-0.1,0.2-0.2,0.3-0.4c0.2-0.2,0.4-0.5,0.5-0.6c0.3-0.4,0.5-0.8,0.8-1.1
		c0.1-0.1,0.3-0.4,0.4-0.6c0.1-0.1,0.1-0.2,0.2-0.3c0,0,0.1-0.1,0.1-0.2c0-0.1,0.1-0.1,0.1-0.2c0.1-0.2,0.2-0.4,0.3-0.6
		c0.1-0.2,0.2-0.4,0.2-0.6c0.1-0.2,0-0.4,0-0.6c0.7-0.1,0.2,2.5,0.1,2.9c-0.4,1.2-0.8,2.5-1.5,3.6c-0.3,0.4-0.5,0.8-0.9,1.2
		c-0.1,0.1-0.2,0.1-0.2,0.2C51.2,8.8,51.1,8.9,51,9c-0.2,0.2-0.5,0.4-0.7,0.6c-0.2,0.1-0.4,0.3-0.6,0.4c-0.2,0.2-0.4,0.2-0.6,0.4
		c-0.2,0.1-0.4,0.3-0.6,0.4c-0.2,0.1-0.4,0.3-0.6,0.2C47.8,11,48.2,10.2,48.2,10.1z"/>
	<path class="st0" d="M50.5,14c0.2-0.4,0.3-0.7,0.5-1c0.2-0.3,0.4-0.5,0.6-0.7c0.2-0.3,0.4-0.5,0.6-0.7c0.3-0.3,0.6-0.6,0.9-0.8
		c0.1-0.1,0.3-0.2,0.4-0.3c0.1-0.1,0.1-0.2,0.1-0.4c0-0.3,0-0.6,0.1-0.9c0.1-0.6,0.4-1.2,0.6-1.8c0.1-0.2,0.1-0.5,0.2-0.7
		c0.1-0.2,0.2-0.5,0.2-0.8C54.9,5.5,55,5.3,55,5.1c0.1-0.3,0.1-0.8-0.2-0.9c-0.1-0.1-0.2,0-0.3-0.1c0-0.3,0.5-0.1,0.7,0
		c0.2,0.1,0.3,0.4,0.4,0.6c0.1,0.3,0.1,0.6,0.1,0.9c0,0.2,0,0.6-0.1,1.1c0,0.3-0.1,0.6-0.2,0.9c-0.1,0.3-0.1,0.7-0.2,1
		c0,0.1-0.1,0.3,0,0.4c0.1,0.1,0.2,0,0.3-0.1c0.2-0.1,0.4-0.4,0.6-0.5c0.2-0.1,0.2-0.2,0.4-0.4c0.2-0.2,0.3-0.3,0.5-0.4
		c0.1-0.1,0.3-0.3,0.4-0.4C57.6,7,57.7,7,57.8,6.9c0.5-0.4,0.9-0.8,1.4-1.3c0.2-0.2,0.4-0.3,0.5-0.5c0.2-0.2,0.1-0.4,0.2-0.7
		c0.1-0.2,0.5-0.1,0.6,0.1c0.2,0.2,0.1,0.6,0.1,0.8c-0.2,0.5-0.5,1-0.8,1.5c-0.4,0.6-0.7,1.2-1.2,1.7c-0.5,0.6-0.9,1.2-1.5,1.7
		c-0.2,0.2-0.5,0.5-0.7,0.7c-0.3,0.2-0.6,0.4-0.8,0.6c-0.7,0.4-1.4,0.8-2.1,1.1c-0.3,0.2-0.7,0.4-1,0.6c-0.3,0.1-0.5,0.3-0.8,0.5
		c-0.3,0.2-0.5,0.4-0.7,0.7c-0.1,0.1-0.3,0.3-0.4,0.3C50.3,14.6,50.5,14.1,50.5,14z"/>
</g>
</svg>
