<?xml version="1.0" encoding="utf-8"?>
<!-- Generator: Adobe Illustrator 21.1.0, SVG Export Plug-In . SVG Version: 6.00 Build 0)  -->
<svg version="1.1" id="Layer_1" xmlns="http://www.w3.org/2000/svg" xmlns:xlink="http://www.w3.org/1999/xlink" x="0px" y="0px"
	 width="161.8px" height="38.8px" viewBox="0 0 161.8 38.8" style="enable-background:new 0 0 161.8 38.8;" xml:space="preserve">
<style type="text/css">
	.st0{fill:#ED1616;}
</style>
<g>
	<g>
		<path class="st0" d="M26.4,9.8c-0.2-0.7-0.6-1.5-1.2-2.1c-0.6-0.6-1.3-1.3-1.9-1.6c-0.4-0.2-0.8-0.4-1.1-0.6
			c-0.5-0.3-1-0.6-1.6-0.8c-0.4-0.2-1-0.4-0.9-1c0.1-0.6,0.4-1,0.3-1.8c-0.1-0.6-0.5-1-1.1-1.2c-0.4-0.2-0.7-0.2-1,0
			C17.6,1,17.4,1,17.1,1.5C17,2.1,17,2.4,16.8,2.9c-0.1,0.4-0.6,1.4-1.1,1.5c-0.6,0.1-1,0.2-1.8,0.2c-0.9,0.2-1.9,0.1-2.8,0.2
			C9.9,5.1,8.9,5.4,7.9,5.8C6.3,6.2,4.7,6.6,3.1,7C1.9,7.3-0.2,8.3,0,10c0.1,0.6,0.8,1.1,1.4,1.2c0.7,0.1,1.1-0.8,1.7-1.1
			c0.6-0.4,1.2-0.6,1.8-0.9C5.5,9,6.2,8.7,6.8,8.6c1.5-0.5,3.2-0.6,4.9-0.8c0.3-0.1,1.7-0.6,2-0.2c0.2,0.2-0.6,1.2-0.8,1.4
			c-0.6,0.7-1.2,1.5-1.7,2.2c-0.5,0.6-0.8,1.4-1.4,1.9c-0.3,0.3-0.6,0.4-1,0.5c-0.2,0-0.5,0-0.6,0.2s0.5,0.6,0.4,1
			c0,0.3-0.2,0.5-0.4,0.8c-0.2,0.3-0.3,0.7-0.6,1c-0.5,0.7-1,1.4-1.4,2.2c-0.4,0.6-0.9,1.4-1.2,2c-0.7,1.6-1.5,3.2-2.1,4.8
			c-0.2,0.7-0.6,1.4-0.6,2.2c-0.1,0.7-0.2,1.4-0.2,2.1c0,0.6,0.2,1.6,0.3,1.6c0.2,0.1,0.7-1.4,1.1-2c0.4-0.6,1-1.1,1.4-1.8
			c0.5-0.8,1.1-1.6,1.6-2.4c0.5-0.9,1.1-1.8,1.8-2.6c0.3-0.4,0.6-0.9,0.9-1.3c0.2-0.2,0.3-0.6,0.5-0.8c0.2-0.2,0.3-0.4,0.6-0.8
			c0.8-1.1,1.4-2.9,2.6-3.6c0.6-0.4,1.4-0.2,2.1-0.1c0.9,0.2,2.5,0.2,3.1,0.2c1.6-0.1,3.1-0.5,4.5-1c1.6-0.6,2.8-1.8,3.4-3
			C26.5,11.5,26.7,10.6,26.4,9.8z M21,10.4c-1.7,0.6-3.4,1.4-5.2,1.7c-0.4,0.1-0.4,0-0.8,0h-0.2c0.3-0.2,0.5-0.6,0.7-0.9
			c0.2-0.2,0.3-0.6,0.6-0.8c0.5-0.6,0.8-1.3,1.3-1.9c0.5-0.6,0.7-1.8,1.4-2.3C19.1,5.8,19.6,5.9,20,6c0.4,0.1,0.8,0.2,1.2,0.2
			c0.9,0.2,2,0.6,2.8,1.1c0.3,0.2,0.4,0.4,0.3,0.6C24.2,9.3,22.1,10,21,10.4z"/>
	</g>
	<path class="st0" d="M19.1,26.2c0.1-0.4,0.2-0.6,0.4-1c0.4-0.8,0.9-1.6,1.3-2.4c0.7-1.3,1.7-2.6,2.6-3.8c0.6-0.7,1-1.7,1.7-2.3
		c0.9-1,1.8-2.2,2.2-3.6c0.1-0.2,0.2-0.8,0.3-1c0.3-0.4,0.7,0,1,0.2c0.5,0.6,0.6,1.4,0.7,2.1c0.1,0.5,0.2,1,0.1,1.5
		c-0.1,0.6-0.3,1-0.6,1.5c-0.6,1.5-1.5,3-2.4,4.3c-0.5,0.7-1,1.2-1.5,1.8c-0.2,0.2-0.4,0.6-0.9,1c-0.3,0.2-0.6,0.6-1,0.9
		c-0.6,0.5-1.1,0.8-1.7,1.1c-0.3,0.2-0.5,0.3-0.7,0.6c-0.2,0.3-0.5,0.6-0.7,0.9c-0.4,0.4-0.8,0.9-0.9,0.1
		C18.7,27.5,19,26.7,19.1,26.2z"/>
	<path class="st0" d="M30.7,25c0.6,0.3,1,0.7,1.7,0.8c1.2,0.2,2.9-0.6,3-2c0.1-1-0.6-1.6-1.2-2.2c-2.1-1.8-2.1-5-1-7.4
		c0.2-0.4,0.3-0.8,0.6-1.1c0.2-0.3,0.5-0.7,0.8-1c0.6-0.7,1.4-1.5,2.2-2.1c0,0,1.4-1.2,2.4-1.5c0.8-0.2,1.6-0.2,2.4-0.2
		c0.6,0.1,1.5,0.2,1.9,0.8c0.4,0.6,0.3,1.2-0.1,1.8c0,0-0.2,0.6-0.9,1.1c-0.2,0.2-0.4,0.5-1,0.7c-0.2,0.1-0.4,0.2-0.8,0.3
		c0,0-0.7,0.2-1,0.2c-0.3,0.1-0.7,0.2-1,0.2c-0.7,0.2-1.8,0.7-2.3,1.2c-0.2,0.2-0.5,0.5-0.7,0.7c-0.6,0.6-1,1.3-1.4,2
		c-0.4,0.7-0.4,1.5,0,2.3c0.5,0.8,1.1,1.4,1.7,2.2c0.4,0.6,0.6,1.8,0.6,2.6c-0.1,0.8-0.6,1.8-1.1,2.4c-0.5,0.7-1.1,1.3-1.6,1.9
		c-0.4,0.5-0.7,1.2-1.4,1.5c-0.7,0.4-1.6,0.2-2.2-0.2c-0.7-0.4-1.1-0.9-1.5-1.6c-0.4-0.6-0.7-1.2-0.9-1.9c-0.1-0.5-0.3-1-0.6-1.5
		c-0.2-0.3-0.6-0.6-0.7-1c-0.1-0.5,0.6-0.5,1-0.5C28.7,23.7,29.7,24.5,30.7,25z"/>
	<path class="st0" d="M32.4,4.6c0.3-0.6,0.7-1,1.1-1.6c0.3-0.5,0.6-1,0.7-1.5c0.1-0.3,0.2-1.5,0.8-1.4c0.2,0.7,0.6,1.4,0.7,2.2
		C35.9,3,36.1,3.6,36,4.4c-0.1,0.9,0.2,1.6-0.3,2.3c-0.3,0.5-0.9,1-1.4,1.3c-0.5,0.3-1,0.4-1.6,0.5c-0.2,0-0.5-0.1-0.6,0
		c-0.2,0.1-0.5,0.2-0.7,0.2c-0.6,0.2,0.1-1.8,0.1-1.8C31.6,6.1,31.9,5.3,32.4,4.6z"/>
	<path class="st0" d="M75.7,10.9c-0.4,0.2-0.4,0.4-0.6,0.7c-0.2,0.2-0.7,0.5-1,0.6c-1,0.5-2.1,1-3,1.7c-0.4,0.2-0.9,0.5-1.3,0.7
		c-0.5,0.2-1,0.6-1.4,0.9c-0.3,0.2-0.8,0.7-1.1,0.6c0-1,0.6-1.9,0.6-3c0-1-0.2-3-0.7-2.9C67,10.3,67,10.8,67,11
		c-0.1,0.4-0.2,0.6-0.3,0.9c-0.2,0.2-0.4,0.6-0.6,0.9c-0.8,1.4-1.7,2.6-2.6,3.8c-0.6,0.9-1.5,1.7-2.1,2.4c-0.4,0.6-0.9,1.2-1.3,1.8
		c-0.5,0.6-1,1.4-1.6,2c-0.2,0.3-0.5,0.6-0.7,0.9c-0.2,0.2-0.6,0.6-0.9,1c-0.5,0.6-1,1-1.8,1.2c-0.8,0.2-1.7,0.4-2.5,0.2
		c-0.6-0.2-0.7-1-0.6-1.6c0.2-0.8,0.6-1.5,1-2.2c0.2-0.3,0.4-0.8,0.6-1.2c0.4-0.8,0.6-1.6,1.5-2.1c0.7-0.4,1.6-0.6,2.4-0.7
		c1.3-0.2,2.8-0.6,3.8-1.6c0.6-0.5,1.2-1.3,1.4-1.8c0,0,0.2-0.3,0.2-1c0-0.4,0.2-0.4,0.1-1.3c-0.1-0.7-0.5-1.7-0.8-2.3
		c-0.1-0.2-0.4-0.3-0.6-0.1c0,0,0.2,0.3-0.2,0.4c-0.8,0-1.7,0.2-2.3,0.6c-0.7,0.3-1.2,0.6-1.9,1.2c-0.6,0.5-1.1,1-1.9,1.3
		c-0.6,0.2-1.4,0.4-2,0.6c-0.5,0.2-0.8,0.2-1.3,0.3c-0.4,0.2-0.7,0.2-1.2,0.2c0-0.9,0.8-1.8,1.2-2.6c0.5-0.9,0.9-1.8,1.2-2.6
		c0.4-1.2,1-2.7,0.3-4c-0.2-0.4-0.9-1-1.4-0.6c-0.6,0.4-0.4,1.4-0.6,2c-0.2,0.8-0.8,1.4-1.1,2c-0.4,0.6-0.7,1.3-1.2,2
		c-0.5,0.7-1,1.4-1.4,1.9c-0.3,0.6-0.7,1-1,1.5c-0.5,0.8-0.8,1.4-1.4,2.2c-0.6,0.6-1.4,0.9-2.1,1c-1,0.2-1.8,0.6-2.8,0.9
		c-0.6-0.1-1.4,0-2,0c-0.3,0-0.6-0.1-0.7-0.3c-0.2-0.2-0.3-0.7-0.6-0.4c-0.4,0.4-0.2,1.4,0.2,1.8c0.6,0.6,1.4,0.9,2.2,1
		c0.5,0.1,1.5,0.4,2.2,0.2c0.2-0.1,0.6-0.2,0.7,0.2c0.1,0.2-0.3,0.6-0.4,0.9c-0.8,1.5-1.5,3.1-2.2,4.6c-0.2,0.5-1.4,4.6-1,4.6
		c0.2,0,0.6-0.6,0.7-0.7c0.3-0.2,0.6-0.4,0.9-0.7c0.6-0.5,1-1,1.5-1.5c1.2-1.3,2-2.7,3-4.2c0.5-0.7,0.9-1.4,1.3-2.2
		c0.3-0.6,1-2.1,1.8-2.6c1.2-0.8,1.9-1.4,2.8-2c0.6-0.5,1-0.6,1.4-0.8c0,0,1-0.4,1.2-0.2c0,0-0.4,0.6-0.7,0.9
		c-0.6,0.7-1.2,1.6-1.7,2.6c-0.5,0.9-0.9,1.6-0.9,2.6c-0.1,1-0.2,1.9,0,2.9c0.2,0.9,0.4,1.8,0.9,2.5c0.2,0.3,0.5,0.6,0.7,0.7
		c1,0.7,2.1,0.6,2.9-0.3c0.6-0.7,0.6,0.1,1,0.6c0.4,0.6,0.9,0.9,1.4,0.3c0.5-0.3,0.9-0.8,1.3-1.1c1.1-1,2.3-2.2,3.4-3.4
		c0.5-0.5,1-1.2,1.6-1.8c0.2-0.2,0.5-0.5,0.8-0.7c0.3-0.4,0.6-0.8,1-1.1c0.4-0.4,0.8-0.8,1.2-1.2c0.4-0.4,0.7-0.8,1.1-1.2
		c0.9-0.9,1.8-1.8,2.7-2.6c0.7-0.6,1.7-1.3,2.3-1.7c0.5-0.3,1.2-0.8,1.7-1c0.4-0.2,0.8-0.4,1.2-0.1s0.3,1,0.2,1.3
		c-0.3,0.6-0.6,1.2-1,1.8c-0.3,0.6-0.9,1.4-1.3,2c-0.5,0.7-0.9,1.4-1.4,2c-0.4,0.6-1,1.4-1.4,1.9c-0.5,0.7-1,1.4-1.4,2.2
		c-0.2,0.3-0.4,0.7-0.6,1c-0.2,0.3-0.3,0.6-0.5,0.9c-0.3,0.6-0.6,1.4-0.6,2c-0.1,0.3-0.2,0.7,0,1c0.3,0.7,1.2,0.1,1.7-0.1
		c0.4-0.2,0.5-0.2,0.9-0.5c0.6-0.5,1.3-0.9,1.8-1.3c1.2-0.9,2.1-1.9,2.7-3.2c0.5-0.9,1-1.7,1.4-2.6c0.3-0.8,0.6-1.6,1-2.4
		c0.6-1.7,0.9-3.4,1.2-5.2C78.1,12.5,77.6,10,75.7,10.9z M56.5,15.2c0.6-0.8,1.1-1.4,1.8-2.1c0,0,1.3-1,1.5-1.2
		c0.6-0.4,1.5-0.2,1.9,0.1c0.5,0.5-0.2,1.7-1.2,2.3c-1,0.6-1.9,1.1-2.7,1.8c-0.4,0.2-1,0.3-1.2,0.2C56.3,16,56.3,15.5,56.5,15.2z"/>
	<path class="st0" d="M109.1,5.8c0-0.9-0.3-1.4-0.9-2c-0.6-0.7-1.4-1-2.2-1.5c-0.7-0.6-1.7-0.8-2.6-1.1C103,1,102.5,1,102,0.9
		c-2.3-0.4-4.6-0.6-7-0.8c-2.3-0.2-4.6,0-6.9,0C86.1,0,84,0.2,81.9,0.4c-1.8,0.2-3.5,1-5.3,1.5c-0.7,0.2-1.4,0.4-2.2,0.6
		c-0.9,0.2-1.8,0.4-2.4,1c-0.3,0.3-0.6,0.6-0.7,1s-0.2,0.8,0,1.3C71.5,6.2,72,6.9,72.6,7c0.4,0.2,0.8,0.1,1.1,0C74.1,7,74.6,7,75,7
		c0.3-0.1,1.1-0.2,1.3-0.6c0.2-0.3-0.2-0.8-0.2-1c-0.2-1,0.7-1.3,1.5-1.5c0.9-0.3,1.8-0.3,2.7-0.5c2.1-0.2,4.2-0.5,6.4-0.5
		c0.9,0,1.6-0.3,2.5-0.2c0.9,0.1,1.8,0.2,2.6,0.2c0.9,0,1.8,0.1,2.7,0.2c0.2,0,1,0,1,0.3c0.2,0.3-0.4,0.9-0.6,1.2
		c-0.2,0.3-0.4,0.6-0.6,0.8c-0.2,0.3-0.6,0.6-0.8,1c-0.5,0.6-1.3,1.9-2.3,2.1c-0.3,0.1-0.7-0.1-1,0.1C90,8.6,90.1,8.8,89.7,9
		c-0.2,0.2-0.7,0.3-1,0.4c-0.8,0.3-1.7,0.6-2.5,0.8c-0.4,0.1-0.6,0.2-1.1,0.2c0,0-0.7,0.2-1,0.3c0.4,0.3,1.4,0.3,1.8,0.4
		c0.7,0.1,1.4,0.1,2.2,0c0.2,0,1.3-0.2,1,0.2c-0.2,0.3-0.5,0.6-0.6,0.9c-1,1.5-2.2,3-3.2,4.5c-0.5,0.7-1.1,1.4-1.6,2.2
		c-0.5,0.7-1,1.4-1.6,2.3c-1.3,1.9-2.3,3.8-3.4,5.9c-0.5,1-0.9,2.1-1.2,3.1c-0.2,0.7-0.6,1.8-0.2,2.5c0.3,0.9,1.1-0.5,1.4-0.8
		c0.7-0.7,1.3-1.6,2-2.3c0.5-0.6,0.9-1,1.4-1.5c0.5-0.6,1-1.1,1.4-1.6c0.8-1,1.7-2,2.2-2.6c0.6-0.6,1.1-1.4,1.8-2.1
		c0.8-1,1.1-1.6,1.7-2.4c0.6-1,1.3-2,2-2.9c0.6-0.6,0.9-1.4,1.4-2c0.4-0.5,0.7-0.9,1.4-0.9c0.8,0,1.4,0.2,2.2,0.3
		c0.7,0.2,1.4,0.5,2.1,0.8c0.7,0.3,1.3,0.8,1.9,1.3c1.2,0.9,2.9,2.2,2.6,4c-0.1,0.9-0.6,1.5-1.2,2c-0.3,0.2-0.6,0.6-1,0.8
		c-0.3,0.2-0.7,0.5-1.1,0.6C98.6,24,97.8,24,96.9,24c-0.8,0.1-1.9,0.2-2.5-0.6c-0.2-0.2-0.2-0.9-0.3-1.2c-0.1-0.5-0.2-0.7-0.4-1.1
		c-0.2-0.7-0.6-1.2-1.2-1.7c-0.1,0.2-0.1,0.3-0.2,0.6c-0.1,0.9-0.7,1.3-1.4,1.7c-1,0.5-1,1.7-1,2.6c0,0.9-0.2,1.8,0.4,2.6
		c0.4,0.6,1,1.3,1.7,1.8c0.2,0.2,0.5,0.5,0.8,0.6c0.3,0.1,0.8,0.1,1.1,0.1c1-0.1,1.8-0.4,2.8-0.6c0.4-0.1,0.8-0.2,1.1-0.3
		c0.4-0.2,1-0.4,1.4-0.6c0.8-0.4,1.5-0.9,2.3-1.4c1.6-1,2.6-2.6,3-4.3c0.2-0.8-0.2-1.7-0.4-2.4c-0.2-0.4-0.2-0.7-0.4-1.1
		c-0.2-0.5-0.4-0.9-0.7-1.2c-0.3-0.4-0.6-0.8-1-1.1c-0.2-0.2-0.6-0.6-1-0.9c-0.5-0.5-1-0.9-1.5-1.2c-0.3-0.2-0.7-0.6-1-0.8
		C98.4,13,98.8,13,99.1,13c0.4-0.1,0.9-0.2,1.3-0.3c1-0.2,1.8-0.3,2.6-0.6c0.4-0.1,0.8-0.2,1.2-0.4c0.6-0.2,1.3-0.6,1.3-0.6
		c0.6-0.3,1.3-0.8,1.9-1.3C108.5,8.8,109.1,7.4,109.1,5.8z M105.9,6.1c-2,1.1-4.3,2-6.5,2.2c-0.4,0.1-2.5,0.6-2.6,0.2
		c-0.1-0.2,0.2-1.1,0.3-1.4c0.3-0.9,0.2-1.6,0.2-1.6c0.1-0.6-0.2-1.4-0.1-2c0.2-0.5,1-0.3,1.4-0.3c1.8,0.1,3.7,0.4,5.5,0.6
		c0.8,0.1,1.8,0.2,2.4,0.6C107.8,5,106.5,5.8,105.9,6.1z"/>
	<path class="st0" d="M105.9,22c0.5-0.8,0.9-1.7,1.4-2.5c0.6-0.8,1.1-1.7,1.8-2.4c0.6-0.8,1.2-1.6,1.7-2.5c0.4-0.7,1-1.3,1.4-1.9
		c0.4-0.7,0.8-1.4,1.2-2.1c0.4-0.6,0.6-1.4,1.5-1.6c0.9-0.2,1.4,0.3,1.5,1.2c0.2,0.8-0.3,1.4-0.8,2.1c-0.5,0.6-0.6,1.4-1,2
		c-1,1.4-1.6,2.9-2.4,4.3c-0.4,0.8-1.4,2-1.4,3c0.5-0.2,0.6-0.5,0.9-0.8c0.3-0.4,0.8-0.7,1.2-1c0.7-0.7,1.4-1.5,2.2-2.2
		c1.1-1.4,2.6-2.3,4-3.4c0.6-0.5,1.1-1,2-1c0.6-0.1,1.5,0.2,1.9,0.6c1.1,1.1,0.5,3,0.2,4.2c-0.4,1.7-1,3.4-1.8,5
		c-0.7,1.5-1.6,2.8-2.6,4.1c-0.5,0.6-1.3,1.3-1.8,1.8c-0.6,0.6-1.3,0.9-2,0.5c-0.6-0.3-0.9-0.9-1-1.4c-0.1-0.4,0.1-0.6,0.2-1
		c0.1-0.4,0.1-0.8,0.2-1.2c0.2-0.7,0.9-1.4,1.4-1.8c0.3-0.3,0.9-1.2,1.5-2.1c0.4-0.6,0.8-1.2,1.3-1.8s1-1.4,1.4-2.2
		c0.3-0.6,1.1-1.6,0.9-2.2c-0.3-0.8-1.1,0-1.4,0.3c-0.6,0.5-1,0.9-1.4,1.5c-0.4,0.6-1,1.2-1.5,1.8c-0.3,0.4-0.3,0.6-0.6,0.8
		c-0.2,0.3-0.4,0.6-0.6,0.8c-0.5,0.6-1,1.4-1.5,2c-1,1.4-2,2.7-3,4.1c-0.5,0.6-1,1.2-1.7,1.6c-0.6,0.3-1.2,1-1.8,1.1
		c-1.2,0.2-2-1.6-2.2-2.6C104.8,25.2,105.1,23.5,105.9,22z"/>
	<path class="st0" d="M121.9,25.1c0.3-0.6,0.6-1.2,1-1.8c0.2-0.4,0.4-0.9,0.6-1.3c0.5-0.8,1-1.7,1.5-2.5c0.7-1,1.5-2,2.3-3
		c0.6-0.7,1.2-1.4,1.7-2.2c0.6-0.9,1.3-1.5,1.8-2.3c0.5-0.7,1-1.5,1.6-2.4c0.4-0.6,1-1.3,1.4-2c0.5-0.8,0.7-1.6,1-2.4
		c0.2-0.4,0.2-0.6,0.2-1c0-0.2-0.2-1-0.1-1.2c0.4-0.7,1.1,1.3,1.2,1.5c0.5,1.8-0.1,3.6-0.5,5.4c-0.4,1.8-1.2,3.4-1.9,5.1
		c-0.8,2-1.6,3-2.5,4.5c-1,1.7-1.8,2.3-1.8,2.3c-0.6,0.7-1.3,1-2,1.6c-1.2,1-2.2,2.2-3.4,3.2c-0.3,0.2-0.6,0.5-0.8,0.7
		c-0.2,0.2-0.5,0.3-0.9,0.5c-0.3,0.1-0.6,0.2-0.9,0C121,27.2,121.5,25.8,121.9,25.1z"/>
	<path class="st0" d="M128.7,27c0.2-0.6,0.4-1,0.7-1.6c0.2-0.3,0.2-0.6,0.5-0.9c0.2-0.3,0.9-1.2,0.9-1.3c0.2-0.4,0.4-0.6,0.6-0.9
		c1.3-1.8,2.4-3.7,3.8-5.3c0.2-0.3,0.5-0.6,0.6-0.9c0.2-0.3,0.6-0.6,0.8-1c0.5-0.6,1-1.3,1.3-1.8c0.7-1,1.4-2,2.1-3
		c0.2-0.2,0.7-1,1-1.6c0.2-0.3,0.3-0.6,0.4-0.8c0,0,0.2-0.3,0.2-0.4c0.1-0.2,0.2-0.4,0.2-0.6c0.3-0.6,0.5-1,0.6-1.6
		c0.2-0.6,0.5-1.1,0.6-1.7s0.1-1,0.2-1.7c2-0.3,0.5,6.7,0.2,7.7c-1,3.3-2.2,6.6-4,9.5c-0.7,1-1.4,2.2-2.3,3.1
		c-0.2,0.2-0.5,0.4-0.6,0.6c-0.2,0.3-0.6,0.6-0.8,0.8c-0.6,0.6-1.2,1-1.8,1.5c-0.5,0.4-1.1,0.6-1.5,1.1c-0.5,0.4-1.1,0.6-1.7,1.1
		c-0.5,0.4-1,0.8-1.5,1.2c-0.5,0.3-1,0.7-1.5,0.6C127.4,29.4,128.7,27.2,128.7,27z"/>
	<path class="st0" d="M134.8,37.4c0.4-1,0.9-1.9,1.4-2.8c0.4-0.6,1-1.3,1.5-1.8c0.6-0.7,1-1.3,1.7-1.9c0.8-0.8,1.5-1.5,2.4-2.2
		c0.4-0.3,0.8-0.6,1-1c0.3-0.3,0.2-0.6,0.2-1.1c0.1-0.8,0.1-1.7,0.2-2.5c0.4-1.7,1-3.2,1.5-4.8c0.2-0.6,0.4-1.4,0.6-2
		c0.2-0.6,0.4-1.4,0.6-2.1c0.2-0.6,0.4-1.1,0.6-1.7c0.2-0.8,0.2-2.1-0.6-2.5c-0.2-0.2-0.6-0.1-0.7-0.3c0.1-0.7,1.4-0.2,1.8,0.1
		c0.5,0.4,0.9,1,1,1.7c0.2,0.7,0.2,1.6,0.2,2.4c0,0.6,0,1.5-0.2,2.8c-0.1,0.8-0.2,1.6-0.5,2.4c-0.2,0.9-0.3,1.8-0.5,2.6
		c-0.1,0.2-0.2,0.9-0.1,1c0.2,0.2,0.6-0.1,0.8-0.2c0.6-0.4,1.1-1,1.7-1.4c0.5-0.4,0.6-0.6,1.1-1c0.5-0.4,1-0.8,1.4-1.2
		c0.4-0.3,0.8-0.6,1.2-1c0.2-0.2,0.5-0.5,0.7-0.7c1.2-1.1,2.4-2.2,3.6-3.4c0.5-0.5,1-0.9,1.4-1.4c0.5-0.5,0.4-1.1,0.6-1.8
		c0.2-0.6,1.3-0.3,1.6,0.2c0.4,0.6,0.4,1.6,0.2,2.2c-0.5,1.4-1.4,2.7-2.2,3.9c-1,1.4-1.9,3.1-3.1,4.4c-1.4,1.4-2.5,3.1-3.9,4.5
		c-0.6,0.6-1.3,1.4-1.9,1.9c-0.6,0.6-1.5,1-2.2,1.4c-1.8,1-3.7,2-5.5,3c-1,0.5-1.8,1-2.8,1.5c-0.7,0.4-1.4,0.8-2,1.4
		c-0.6,0.6-1.3,1.2-1.9,1.8c-0.2,0.2-0.8,0.8-1.1,0.8C134.2,38.9,134.7,37.8,134.8,37.4z"/>
</g>
</svg>
