<?xml version="1.0" encoding="utf-8"?>
<!-- Generator: Adobe Illustrator 22.0.1, SVG Export Plug-In . SVG Version: 6.00 Build 0)  -->
<svg version="1.1" id="Layer_1" xmlns="http://www.w3.org/2000/svg" xmlns:xlink="http://www.w3.org/1999/xlink" x="0px" y="0px"
	 width="216.2px" height="42.5px" viewBox="0 0 216.2 42.5" style="enable-background:new 0 0 216.2 42.5;" xml:space="preserve">
<style type="text/css">
	.st0{fill:#666666;}
	.st1{fill:#FFFFFF;}
	.st2{fill:#212322;}
	.st3{fill:#8C734B;}
</style>
<g>
	<g>
		<g>
			<g>
				<rect x="46.2" y="8.5" class="st0" width="170" height="27"/>
			</g>
		</g>
		<g>
			<path class="st1" d="M83.2,26.9c-0.4,0.5-1.1,0.7-1.8,0.7c-0.7,0-1.3-0.2-1.7-0.6c-0.6-0.6-0.8-1.4-0.8-2.3h1
				c0,0.6,0.1,1.3,0.5,1.6c0.2,0.2,0.6,0.4,1,0.4s0.8-0.1,1.1-0.4c0.4-0.5,0.5-1.1,0.5-2c0-1.2-0.2-1.6-0.5-2.1
				c-0.3-0.3-0.6-0.4-1-0.4h-1v-0.9h1c0.4,0,0.7-0.1,1-0.4c0.3-0.4,0.5-0.8,0.5-2c0-0.9,0-1.5-0.5-2c-0.2-0.3-0.6-0.4-1.1-0.4
				s-0.8,0.1-1,0.4c-0.4,0.4-0.5,1-0.5,1.6h-1c0-0.9,0.2-1.7,0.7-2.2c0.4-0.4,1-0.7,1.8-0.7c0.7,0,1.4,0.2,1.8,0.7
				c0.7,0.7,0.7,1.5,0.7,2.6c0,1.3-0.2,1.7-0.5,2.2c-0.2,0.3-0.5,0.5-0.8,0.6c0.3,0.2,0.6,0.4,0.8,0.6c0.4,0.5,0.6,1,0.6,2.3
				C84,25.5,83.8,26.2,83.2,26.9z"/>
			<path class="st1" d="M91.1,27.5l-0.7-3.3h-2.8L87,27.5h-1.1l2.7-12.1h0.9l2.7,12.1H91.1z M89,17.2l-1.2,6.1h2.4L89,17.2z"/>
			<path class="st1" d="M99.5,29.5v-2h-5.1v2h-1v-2.9h0.7c0.6-1.6,1-3.6,1-6v-5.2h4.4v11.2h0.9v2.9H99.5z M98.6,16.3h-2.4v4.5
				c0,2.2-0.3,4.2-0.9,5.8h3.3V16.3z"/>
			<path class="st1" d="M107.1,27.5l-0.7-3.3h-2.8l-0.6,3.3h-1.1l2.7-12.1h0.9l2.7,12.1H107.1z M105.1,17.2l-1.2,6.1h2.4L105.1,17.2
				z"/>
			<path class="st1" d="M112,16.3v11.2h-1V16.3h-2v-0.9h5v0.9H112z"/>
			<path class="st1" d="M118.8,27.5h-2.4V15.4h1v5.4h1.4c1.7,0,2.6,0.8,2.6,3.4C121.4,26.9,120.3,27.5,118.8,27.5z M118.9,21.6h-1.4
				v4.9h1.4c1.2,0,1.6-0.9,1.6-2.5S120.1,21.6,118.9,21.6z"/>
			<path class="st1" d="M132.7,26.8c-0.5,0.5-1.1,0.7-2.1,0.7h-2.2V15.4h2.2c1,0,1.6,0.2,2,0.7c0.5,0.5,0.7,1.1,0.7,2.4
				c0,0.9-0.1,1.6-0.7,2.2c-0.2,0.2-0.5,0.4-0.8,0.5c0.3,0.1,0.6,0.2,0.8,0.5c0.7,0.7,0.7,1.5,0.7,2.5
				C133.4,25.6,133.2,26.2,132.7,26.8z M130.6,16.3h-1.2v4.5h1.2c1.1,0,1.7-0.6,1.7-2.2C132.3,16.7,131.7,16.3,130.6,16.3z
				 M130.6,21.6h-1.2v4.9h1.2c1.2,0,1.8-0.5,1.8-2.5C132.4,22.3,131.8,21.6,130.6,21.6z"/>
			<path class="st1" d="M140.4,26.9c-0.4,0.4-1,0.7-1.8,0.7s-1.4-0.3-1.8-0.7c-0.7-0.8-0.8-1.6-0.8-5.5c0-3.8,0.1-4.7,0.8-5.5
				c0.4-0.4,1-0.7,1.8-0.7s1.4,0.3,1.8,0.7c0.7,0.8,0.8,1.6,0.8,5.5C141.3,25.2,141.2,26.1,140.4,26.9z M139.7,16.6
				c-0.2-0.3-0.6-0.4-1.1-0.4s-0.8,0.2-1.1,0.4c-0.5,0.6-0.6,1.3-0.6,4.8s0.1,4.3,0.6,4.8c0.2,0.3,0.6,0.4,1.1,0.4s0.8-0.2,1.1-0.4
				c0.5-0.6,0.6-1.3,0.6-4.8S140.2,17.1,139.7,16.6z"/>
			<path class="st1" d="M148.2,27.5V16.3h-3v11.2h-1V15.4h5v12.1H148.2z"/>
			<path class="st1" d="M154.8,22.1h-1.4v5.4h-1V15.4h2.4c1.4,0,2.6,0.5,2.6,3.4C157.4,21.6,156.2,22.1,154.8,22.1z M154.8,16.3
				h-1.3v4.9h1.3c1,0,1.7-0.4,1.7-2.5C156.4,16.7,155.7,16.3,154.8,16.3z"/>
			<path class="st1" d="M164.5,26.9c-0.4,0.4-1,0.7-1.8,0.7c-0.8,0-1.4-0.3-1.8-0.7c-0.7-0.8-0.9-1.6-0.9-5.5c0-3.8,0.1-4.7,0.9-5.5
				c0.4-0.4,1-0.7,1.8-0.7c0.8,0,1.4,0.3,1.8,0.7c0.7,0.8,0.8,1.6,0.8,5.5C165.3,25.2,165.2,26.1,164.5,26.9z M163.7,16.6
				c-0.2-0.3-0.6-0.4-1.1-0.4c-0.5,0-0.8,0.2-1.1,0.4c-0.5,0.6-0.6,1.3-0.6,4.8s0.1,4.3,0.6,4.8c0.2,0.3,0.6,0.4,1.1,0.4
				c0.5,0,0.8-0.2,1.1-0.4c0.5-0.6,0.6-1.3,0.6-4.8S164.2,17.1,163.7,16.6z"/>
			<path class="st1" d="M172.3,27c-0.4,0.4-1,0.6-1.7,0.6c-0.8,0-1.4-0.3-1.8-0.7c-0.7-0.8-0.8-1.6-0.8-5.5c0-3.8,0.1-4.7,0.8-5.5
				c0.4-0.4,1-0.7,1.8-0.7s1.3,0.2,1.7,0.6c0.5,0.5,0.8,1.3,0.8,2.3h-1c0-0.6-0.1-1.2-0.5-1.6c-0.2-0.3-0.6-0.4-1-0.4
				s-0.8,0.2-1.1,0.4c-0.5,0.6-0.6,1.3-0.6,4.8s0.1,4.3,0.6,4.8c0.2,0.3,0.6,0.4,1.1,0.4s0.8-0.2,1-0.4c0.4-0.4,0.5-1,0.5-1.6h1
				C173.1,25.6,172.9,26.5,172.3,27z"/>
		</g>
	</g>
	<g>
		<g>
			<path class="st2" d="M16,21.6c-5.9,0-10.8-4.8-10.8-10.8S10,0,16,0s10.8,4.8,10.8,10.8S21.9,21.6,16,21.6z M16,1
				c-5.4,0-9.8,4.4-9.8,9.8s4.4,9.8,9.8,9.8s9.8-4.4,9.8-9.8S21.4,1,16,1z"/>
		</g>
		<g>
			<path class="st3" d="M16,17.5c-2.2,0-4.2-1.5-4.8-3.6l1-0.3c0.5,1.7,2.1,2.9,3.9,2.9s3.3-1.2,3.9-2.9l1,0.3
				C20.2,16,18.2,17.5,16,17.5z"/>
		</g>
		<g>
			<path class="st2" d="M32,42.5h-1v-8.1c0-4.4-5-8-11.2-8h-7.6C6,26.5,1,30,1,34.4v8.1H0v-8.1c0-5,5.5-9,12.2-9h7.6
				c6.7,0,12.2,4,12.2,9V42.5z"/>
		</g>
	</g>
</g>
</svg>
