<?xml version="1.0" encoding="utf-8"?>
<!-- Generator: Adobe Illustrator 21.1.0, SVG Export Plug-In . SVG Version: 6.00 Build 0)  -->
<svg version="1.1" id="Layer_1" xmlns="http://www.w3.org/2000/svg" xmlns:xlink="http://www.w3.org/1999/xlink" x="0px" y="0px"
	 width="60.7px" height="9.7px" viewBox="0 0 60.7 9.7" style="enable-background:new 0 0 60.7 9.7;" xml:space="preserve">
<style type="text/css">
	.st0{fill:#FF0000;}
</style>
<g>
	<path class="st0" d="M45.6,9.7h9.9c0,0,0.5,0,0.7-0.5l0.4-0.8h-3.2V6.2c0-0.2-0.1-0.3-0.3-0.3H53c-0.2,0-0.3,0.1-0.3,0.3v2.1
		l-0.1,0H49V2.2l-3.6,7.4c0,0,0,0,0,0h0C45.3,9.7,45.4,9.7,45.6,9.7z"/>
	<path class="st0" d="M53.4,2.3c0-0.2-0.1-0.3-0.3-0.3H53c-0.2,0-0.3,0.1-0.3,0.3v0.9c0,0.2,0.1,0.3,0.3,0.3h0.1
		c0.2,0,0.3-0.1,0.3-0.3V2.3z"/>
	<path class="st0" d="M51.1,5.1h5.2c0.4,0,0.8,0.3,0.8,0.7v1.6l3.5-7c0-0.1,0.1-0.2,0-0.3C60.6,0,60.5,0,60.4,0h-9.9
		c0,0-0.5,0-0.7,0.5l-0.4,0.7h6.9c0.4,0,0.8,0.3,0.8,0.7v1.6c0,0.4-0.3,0.7-0.8,0.7h-5.2c-0.2,0-0.3,0.1-0.3,0.3v0.1
		C50.8,4.9,51,5.1,51.1,5.1z"/>
	<path class="st0" d="M5.6,8.3l0-0.1c0-0.2,0-0.4,0-0.6c0-0.2,0-0.4,0-0.6V5.7l0-0.1L5.6,5.5L5.5,5.4l-0.1,0L5.2,5.3
		c-0.2,0-0.4,0-0.6,0c-0.2,0-0.4,0-0.6,0l0,0L3.8,5.1L3.7,5l0,0c0,0,0-0.1,0-0.2v0l0.1-0.1L4,4.5c0.1,0,0.2,0,0.3,0
		c0.1,0,0.2,0,0.3,0c0.2,0,0.4,0,0.6,0l0.1,0l0.2-0.1l0,0c0,0,0-0.1,0-0.1l0,0c0,0,0-0.1,0.1-0.1V2l0-0.1l0-0.1L5.5,1.7L5.3,1.6
		l-0.1,0l-0.1,0c-0.8,0-1.5,0-2.3,0H0.5l-0.1,0l-0.1,0c0,0-0.1,0-0.1,0.1c0,0-0.1,0-0.1,0.1L0,1.8c0,0,0,0.1,0,0.1c0,0,0,0,0,0l0,6
		l0.1,0.2c0,0,0,0,0,0.1c0,0,0,0,0.1,0.1l0.1,0.1l0.1,0l0.2,0l1.5,0l0.1,0l0.1-0.1l0.1-0.2c0,0,0-0.1,0-0.2c0-0.2,0-0.4,0-0.5
		c0-0.2,0-0.4,0-0.5c0-0.2,0-0.3,0-0.5c0-0.2,0-0.4,0-0.5c0-0.1,0.1-0.2,0.1-0.3l0,0l0.1-0.1l0.2,0l0.2,0.1l0.1,0.1l0,0.2v1
		c0,0.2,0,0.4,0,0.6c0,0.1,0,0.3,0,0.4c0,0,0,0.1,0,0.1c0,0,0,0.1,0,0.1l0.1,0.2l0.1,0.1l0.1,0.1l0.3,0.1c0.1,0,0.2,0,0.3,0
		c0.1,0,0.2,0,0.4,0h0.7l0.2-0.1l0.1-0.1C5.6,8.3,5.6,8.3,5.6,8.3z M3.1,4.3L2.9,4.4l-0.2,0L2.6,4.3L2.6,4.2c0,0,0,0-0.1-0.1l0-0.1
		l0-1.2l0.1-0.2l0-0.1l0.2-0.1l0.2,0l0.1,0.1l0,0c0.1,0.1,0.1,0.2,0.1,0.3l0,1.3L3.1,4.3z"/>
	<path class="st0" d="M12.1,8.4l0.1-0.1l0-0.1V7.4c0-0.1,0-0.1,0-0.2L12.1,7c0,0,0,0,0,0c0,0-0.1,0-0.1-0.1l0,0c-0.1,0-0.2,0-0.4,0
		c0,0,0,0,0,0c-0.1,0-0.3,0-0.6,0c-0.3,0-0.6,0-1,0l0,0L9.7,6.8L9.5,6.6l0-0.1c0,0,0-0.1,0-0.3v0L9.6,6c0.1-0.1,0.1-0.1,0.2-0.2
		l0.1,0c0.4,0,0.8,0,1.1-0.1c0.3,0,0.5,0,0.8,0L12,5.6c0,0,0,0,0.1,0c0,0,0.1,0,0.1-0.1l0.1-0.2c0-0.2,0-0.3,0-0.4V4.5l0-0.1
		c0,0,0,0,0,0c0,0,0-0.1-0.1-0.1L12,4.2h0c0,0-0.1,0-0.1,0c-0.5,0-1,0-1.5,0l-0.2,0l-0.2,0L9.7,4.1L9.5,3.9V3.4l0.2-0.2l0.2,0
		L10,3.1c0.3,0,0.6,0,0.9,0h0.9L11.9,3c0,0,0.1-0.1,0.2-0.1l0.1-0.1l0-0.2V2l0-0.2c0,0,0-0.1-0.1-0.1l0,0l-0.2-0.1l-0.3-0.1
		c-0.7,0-1.5,0-2.2,0H7.3l-0.1,0L7,1.7L6.9,1.9v6.2l0,0.1l0.1,0.1l0.1,0.1l0.1,0h4.6l0.1,0L12.1,8.4z"/>
	<path class="st0" d="M16.8,5.7c0.3,0,0.6,0,0.7,0c0.2,0,0.4,0,0.5,0c0.1,0,0.2,0,0.4,0l0.1,0c0,0,0.1-0.1,0.2-0.1l0.1-0.1
		c0-0.1,0-0.1,0-0.2c0-0.1,0-0.2,0-0.3V4.6l0-0.1c0,0-0.1-0.1-0.1-0.1l-0.1-0.1l-0.2-0.1c-0.2,0-0.5,0-0.7,0c-0.1,0-0.2,0-0.3,0
		c-0.1,0-0.2,0-0.3,0l-0.4-0.1L16.5,4l0-0.1l0-0.4l0-0.1c0,0,0,0,0,0v0l0.2-0.1c0,0,0.1,0,0.1,0c0,0,0.1,0,0.1,0
		c0.4,0,0.7,0,1.1-0.1l0.4,0l0.1,0l0.1,0l0.1-0.1c0,0,0,0,0.1-0.1l0-0.1c0-0.1,0-0.2,0-0.4V1.9c0,0,0-0.1,0-0.1c0,0,0,0,0-0.1
		l-0.1-0.1l-0.2-0.1c0,0,0,0,0,0c0,0-0.1,0-0.1,0h-4.3l-0.1,0l-0.1,0.1c0,0-0.1,0-0.1,0.1l-0.1,0.1l0,0.1L13.4,2v6.1l0,0.2l0.2,0.2
		c0.1,0,0.2,0.1,0.2,0.1h2l0.2,0c0,0,0.1-0.1,0.2-0.1l0.1-0.1l0.1-0.1c0-0.3,0-0.6,0-1c0-0.3,0-0.6,0-1L16.5,6l0.2-0.2
		C16.7,5.8,16.7,5.8,16.8,5.7z"/>
	<path class="st0" d="M25.7,8l0-0.2l0-0.2c0-0.5,0-0.9,0-1.4c0-0.5,0-0.9,0-1.4V2.1c0-0.1,0-0.1,0-0.1c0,0,0,0,0-0.1l0-0.1l-0.1-0.1
		l-0.1-0.1l-0.1,0h-2.5c-0.8,0-1.6,0-2.3,0c-0.1,0-0.2,0-0.2,0l0,0c0,0-0.1,0.1-0.2,0.1L20,1.8L20,1.9l0,0.1l0,6l0.1,0.3l0.1,0.1
		l0.1,0.1l0.3,0.1c0.4,0,0.7,0,1.1,0c0.4,0,0.8,0,1.1,0h2.4l0.2-0.1c0.1-0.1,0.2-0.1,0.2-0.2L25.7,8z M23.2,7.1l0,0.2L23,7.5h-0.2
		l-0.2-0.1c0-0.1-0.1-0.2-0.1-0.2l0,0l0-4.3l0-0.1l0.2-0.2l0.3,0l0.2,0.1l0.1,0.2L23.2,7.1z"/>
	<path class="st0" d="M30.2,7.9c0,0.1,0,0.1,0,0.1c0,0,0,0,0,0l0.1,0.2l0.1,0.1l0.1,0l0.3,0.1c0.1,0,0.2,0,0.3,0c0.1,0,0.2,0,0.4,0
		h0.7l0.2-0.1l0,0c0,0,0,0,0.1-0.1l0.1-0.1l0-0.1c0-0.2,0-0.4,0-0.6c0-0.2,0-0.4,0-0.6V5.7l0-0.1l-0.2-0.2l-0.1,0l-0.1-0.1
		c-0.2,0-0.4,0-0.6,0l-0.1,0c-0.2,0-0.3,0-0.5,0l0,0l-0.2-0.1L30.7,5l0,0c0,0,0-0.1,0-0.2v0l0.1-0.1L31,4.5c0.1,0,0.2,0,0.3,0
		c0.1,0,0.2,0,0.3,0c0.2,0,0.4,0,0.6,0l0,0l0.1,0l0.2-0.1l0,0c0,0,0-0.1,0-0.1l0,0c0,0,0-0.1,0.1-0.1v-1c0-0.2,0-0.4,0-0.6
		c0-0.5,0-0.8-0.4-0.9l-0.1,0c-0.8,0-1.5,0-2.3,0h-2.4l-0.1,0l-0.1,0c0,0-0.1,0-0.1,0.1c0,0-0.1,0-0.1,0.1L27,1.8c0,0,0,0.1,0,0.1
		l0,6L27,8.2c0,0,0.1,0.1,0.1,0.1l0.1,0.1l0.1,0l0.2,0l1.5,0l0.1,0l0.1-0.1l0.1-0.1c0-0.1,0-0.1,0-0.2c0-0.2,0-0.4,0-0.6
		c0-0.1,0-0.3,0-0.4c0-0.2,0-0.3,0-0.5c0-0.2,0-0.4,0-0.5c0-0.1,0-0.2,0.1-0.3l0,0l0.1-0.1l0.2,0l0.2,0.1l0.1,0.1l0,0.2v1
		C30.2,7.3,30.2,7.6,30.2,7.9z M30.1,4.3l-0.2,0.1l-0.2,0l-0.2-0.1l-0.1-0.1c0,0,0-0.1-0.1-0.2l0-0.1l0-1.2l0.1-0.1l0.1-0.1l0.2-0.1
		l0.2,0L30,2.6l0,0c0,0.1,0.1,0.2,0.1,0.3l0,0v1.3L30.1,4.3z"/>
	<path class="st0" d="M42.8,8.3L42.8,8.3l0.1-0.2l0-0.2c0-0.5,0-1,0-1.5c0-0.5,0-1,0-1.5V2l-0.1-0.1l-0.1-0.1c0,0,0,0-0.1,0
		c0,0-0.1,0-0.1-0.1c0,0-0.1,0-0.1,0c0,0-0.1,0-0.1,0l-8.5,0v6.4l0.1,0.2l0,0.1L34,8.3l0.1,0.1l0.1,0.1l0.1,0l0.8,0
		c0.3,0,0.5,0,0.8,0l0.1-0.1l0.1-0.1l0.1-0.1c0-0.9,0-1.8,0-2.7l0-2.7l0.1-0.2l0.2-0.1l0,0c0,0,0.1,0,0.2,0l0,0L37,2.6l0,0
		C37,2.8,37.1,2.9,37.1,3c0,0.9,0,1.8,0,2.6c0,0.4,0,0.9,0,1.3c0,0.4,0,0.9,0,1.3c0,0,0,0,0,0.1c0,0,0,0.1,0,0.1l0,0.1
		c0,0,0.1,0.1,0.1,0.1l0,0l0.2,0l0.9,0c0.3,0,0.6,0,0.9,0l0.1,0c0,0,0.1-0.1,0.2-0.1l0.1-0.1l0-0.1l0-0.1l0-0.8c0-1.5,0-3,0-4.5v0
		l0.1-0.2l0.1-0.1l0,0c0,0,0.1,0,0.2,0h0l0.1,0.1l0.1,0l0.1,0.2c0,0.9,0,1.7,0,2.5c0,0.7,0,1.6,0,2.5V8l0,0c0,0,0,0.1,0.1,0.1
		l0.1,0.1l0.1,0.1l0.2,0.1l0.1,0h1.6l0.2-0.1L42.8,8.3z"/>
</g>
</svg>
