<?xml version="1.0" encoding="utf-8"?>
<!-- Generator: Adobe Illustrator 21.1.0, SVG Export Plug-In . SVG Version: 6.00 Build 0)  -->
<svg version="1.1" id="Layer_1" xmlns="http://www.w3.org/2000/svg" xmlns:xlink="http://www.w3.org/1999/xlink" x="0px" y="0px"
	 width="171.7px" height="27.4px" viewBox="0 0 171.7 27.4" style="enable-background:new 0 0 171.7 27.4;" xml:space="preserve">
<style type="text/css">
	.st0{fill:#ED1616;}
</style>
<g>
	<path class="st0" d="M129,27.4h28c0.1,0,1.4,0,2-1.4l1.2-2.4h-9v-6.1c0-0.5-0.4-0.9-0.9-0.9h-0.4c-0.5,0-1,0.4-1,0.9v6l-0.3,0.1
		h-10.2V6.3l-10.2,21l-0.1,0.1l0,0C128.2,27.4,128.4,27.4,129,27.4z"/>
	<path class="st0" d="M151.2,6.6c0-0.5-0.4-0.9-0.9-0.9h-0.4c-0.5,0-1,0.4-1,0.9v2.5c0,0.5,0.4,0.9,1,0.9h0.4c0.5,0,0.9-0.4,0.9-0.9
		V6.6z"/>
	<path class="st0" d="M144.7,14.3h14.7c1.2,0,2.2,1,2.2,2.1v4.5l9.9-19.8c0.1-0.2,0.2-0.6,0.1-0.9C171.4,0,171.2,0,171,0h-28
		c-0.1,0-1.4,0-2,1.4l-1,2.1h19.5c1.2,0,2.2,1,2.2,2.1v4.6c0,1.1-1,2.1-2.2,2.1h-14.7c-0.5,0-1,0.4-1,0.9v0.3
		C143.8,13.9,144.2,14.3,144.7,14.3z"/>
	<path class="st0" d="M15.9,23.4l0.2-0.3c0-0.6,0-1.1,0-1.7s0-1.2,0-1.8v-3.4L16,15.8l-0.2-0.2l-0.3-0.3l-0.4-0.1L14.7,15
		c-0.6,0-1.1,0-1.7-0.1c-0.6,0-1.1-0.1-1.7-0.1h-0.1l-0.6-0.5l-0.2-0.2V14c0-0.2,0-0.3,0-0.6v-0.1l0.3-0.4l0.4-0.2c0.3,0,0.6,0,1,0
		c0.2,0,0.5,0,0.7,0c0.6-0.1,1.1-0.1,1.8-0.1l0.3-0.1l0.5-0.2l0.1-0.2c0.1-0.1,0.2-0.2,0.2-0.2v-0.1c0-0.1,0.1-0.2,0.2-0.3V5.8
		l-0.1-0.4V5l-0.3-0.3L15,4.4l-0.2-0.1l-0.2-0.1c-2.2,0-4.3,0-6.4,0H1.3L1,4.4H0.9C0.8,4.5,0.7,4.6,0.6,4.6C0.6,4.6,0.5,4.7,0.4,4.7
		L0.2,5.1C0.1,5.3,0.1,5.4,0,5.5v0.1v17l0.2,0.6c0,0.1,0.1,0.2,0.2,0.2c0.1,0.1,0.1,0.2,0.2,0.2l0.2,0.2L1.1,24h0.4h4.2L6,23.9
		l0.4-0.2l0.4-0.5C6.9,23,6.9,23,7,22.7c0-0.5,0-1,0-1.5c0-0.5,0-1,0-1.5s0-1,0-1.5c0-0.5,0-1,0-1.5c0.1-0.3,0.2-0.6,0.2-0.8
		l0.1-0.1l0.4-0.2l0.6-0.1l0.6,0.3L9,16.2l0.1,0.4v2.9c0,0.6,0,1.1,0,1.7c0,0.4,0,0.8,0,1.2c0,0.1,0.1,0.2,0.1,0.3s0,0.2,0.1,0.2
		l0.3,0.6l0.2,0.2l0.4,0.2L11,24c0.3,0,0.6,0,1,0s0.6,0,1,0h1.9l0.5-0.2l0.2-0.2C15.7,23.6,15.8,23.5,15.9,23.4z M8.8,12.2l-0.5,0.2
		H7.8l-0.5-0.2l-0.2-0.3c-0.1,0-0.1-0.2-0.2-0.3L7,11.3V7.8l0.2-0.4l0.2-0.2L7.8,7L8.5,7l0.3,0.2l0.1,0.1C9,7.5,9.1,7.8,9.2,8.1v3.6
		L8.8,12.2z"/>
	<path class="st0" d="M34.2,23.6l0.2-0.3l0.1-0.2v-2.2c0-0.2,0-0.3-0.1-0.5l-0.4-0.6L34,19.7c-0.1-0.1-0.2-0.2-0.3-0.2h-0.1
		c-0.3,0-0.6-0.1-1-0.1l0,0c-0.2,0-0.8,0-1.7-0.1c-0.7,0-1.8-0.1-3-0.1h-0.1l-0.3-0.1L27,18.6l-0.1-0.4c-0.1-0.1-0.1-0.3-0.1-0.7
		v-0.1l0.3-0.6c0.2-0.2,0.3-0.3,0.6-0.5l0.2-0.1c1-0.1,2.2-0.1,3.2-0.2c0.8,0,1.5-0.1,2.3-0.1l0.4-0.2c0,0,0.1-0.1,0.2-0.1
		c0.1-0.1,0.2-0.1,0.2-0.2l0.2-0.5c0-0.4,0-0.9,0-1.3v-1.3l-0.1-0.2c0,0,0-0.1-0.1-0.1c-0.1-0.1-0.1-0.2-0.2-0.2L34,12l0,0
		c0,0-0.2-0.1-0.4-0.1c-1.4-0.1-2.9-0.1-4.3-0.1h-0.6L28,11.7l-0.6-0.2L26.7,11V9.5L27.2,9l0.5-0.1l0.5-0.2c0.8,0,1.6,0,2.4,0H33
		l0.6-0.2c0.2-0.1,0.3-0.2,0.6-0.2L34.3,8l0.2-0.5V5.6l-0.1-0.5C34.3,5,34.2,5,34.2,4.8l-0.1-0.2l-0.4-0.3L33,4.2
		c-2.1,0-4.2,0-6.2,0h-6.2l-0.3,0.1l-0.4,0.6l-0.3,0.6V23l0.1,0.4l0.3,0.4l0.4,0.2l0.2,0.1h12.9l0.3-0.2L34.2,23.6z"/>
	<path class="st0" d="M47.6,16.2c0.9,0,1.6-0.1,2.1-0.1c0.6,0,1.1,0,1.3-0.1c0.4,0,0.7,0,1-0.1l0.2-0.2c0.2-0.2,0.2-0.2,0.4-0.4
		l0.2-0.2c0-0.2,0.1-0.4,0.2-0.6c0-0.3,0-0.6,0-0.9v-0.9l-0.1,0c-0.1-0.1-0.2-0.2-0.3-0.4l-0.4-0.3l-0.5-0.2c-0.6,0-1.3,0-1.9,0
		c-0.3,0-0.6,0-1,0c-0.3,0-0.6,0-1,0l-1-0.2l-0.3-0.3l-0.1-0.2L46.4,10l0.1-0.3c0-0.1,0-0.1,0-0.2V9.4L47,9C47,9,47.2,9,47.4,9
		c0.1,0,0.2,0,0.2-0.1c1-0.1,2-0.1,3-0.2l1.2-0.1l0.3-0.1l0.3-0.2l0.2-0.2c0-0.1,0.1-0.2,0.3-0.3l0.1-0.4c0-0.3,0-0.7,0-1v-1
		C53,5.4,53,5.3,53,5.2c0-0.1,0-0.1-0.1-0.2l-0.3-0.3L52,4.3c0,0,0,0-0.1,0s-0.2,0-0.3-0.1H39.4l-0.3,0.1l-0.3,0.2
		c-0.1,0.1-0.2,0.2-0.4,0.3L38.2,5l-0.1,0.2L38,5.6v17.1l0.2,0.5l0.5,0.6c0.2,0.1,0.4,0.2,0.6,0.2H45l0.5-0.2
		c0.1-0.1,0.2-0.2,0.5-0.3l0.2-0.3l0.2-0.3c0-1,0-1.8,0-2.7c0-0.8,0-1.7,0.1-2.7l0.2-0.6l0.6-0.6C47.3,16.4,47.4,16.3,47.6,16.2z"/>
	<path class="st0" d="M72.8,22.6v-0.5l0.1-0.6c0-1.3,0-2.6,0-3.9c0-1.3,0-2.6,0-3.9V5.9c-0.1-0.2-0.1-0.2-0.2-0.3c0-0.1,0-0.1,0-0.2
		l-0.1-0.2l-0.3-0.4L72,4.5l-0.2-0.2h-7c-2.2,0-4.5,0-6.6,0c-0.2,0-0.4,0.1-0.6,0.1l-0.1,0.1c-0.2,0.1-0.3,0.2-0.5,0.3l-0.3,0.3
		l-0.2,0.4l-0.1,0.3v17l0.3,0.8l0.3,0.2l0.3,0.2l0.9,0.2c1,0,2.1,0,3.2,0c1,0,2.2,0,3.3,0h6.7l0.5-0.2c0.2-0.2,0.5-0.4,0.6-0.5
		L72.8,22.6z M65.7,20.2l-0.1,0.5l-0.5,0.4h-0.7l-0.6-0.4c-0.2-0.2-0.2-0.4-0.3-0.6V20V7.8l0.1-0.3L64.1,7L64.9,7l0.5,0.2l0.3,0.6
		V20.2z"/>
	<path class="st0" d="M85.4,22.4c0.1,0.2,0.1,0.3,0.1,0.4c0,0.1,0,0.1,0,0.2l0.3,0.6l0.3,0.3l0.2,0.1l0.8,0.2c0.3,0,0.6,0,1,0
		s0.6,0,1,0H91l0.5-0.2l0.2-0.1c0.1-0.1,0.1-0.2,0.2-0.2l0.2-0.2l0.2-0.3c0-0.6,0-1.1,0-1.7c0-0.6,0-1.2,0-1.8v-3.4l-0.1-0.3
		l-0.5-0.6l-0.4-0.2L90.8,15c-0.6,0-1.1,0-1.7-0.1h-0.4c-0.4,0-0.9-0.1-1.3-0.1h-0.1l-0.6-0.4l-0.2-0.2v-0.1c0-0.2,0-0.3,0-0.6v-0.1
		l0.3-0.4l0.4-0.2c0.3,0,0.6,0,1,0c0.2,0,0.5,0,0.7,0c0.6,0,1.1-0.1,1.6-0.1h0.1l0.3-0.1l0.4-0.2l0.1-0.1c0.1-0.1,0.2-0.2,0.2-0.2
		l0.1-0.1c0-0.1,0.1-0.2,0.2-0.3V9c-0.1-0.6-0.1-1.1,0-1.8C92,5.8,92,5,90.6,4.7l-0.2-0.1c-2.2,0-4.3,0-6.4,0h-6.8L77,4.7h-0.2
		c-0.1,0.1-0.2,0.1-0.2,0.2C76.5,5,76.4,5,76.3,5L76,5.5c-0.1,0.2-0.1,0.3-0.1,0.3v17l0.2,0.6c0,0.1,0.2,0.3,0.2,0.4l0.3,0.3
		l0.3,0.2l0.4,0.1h4.2l0.2-0.1l0.4-0.2l0.2-0.4c0.1-0.2,0.1-0.3,0.2-0.6c0-0.6,0-1.2,0-1.8c0-0.4,0-0.8,0-1.3c0-0.5,0-1,0-1.4
		s0-1,0-1.5c0.1-0.3,0.2-0.6,0.2-0.8l0.1-0.1l0.4-0.2l0.6-0.1l0.6,0.3l0.2,0.4l0.1,0.4v2.9C85.4,20.6,85.4,21.5,85.4,22.4z M85,12.2
		l-0.5,0.2h-0.5l-0.5-0.2l-0.2-0.2c-0.1,0-0.1-0.2-0.2-0.5l-0.1-0.2V7.9l0.2-0.4l0.2-0.2L83.9,7l0.6,0.1l0.3,0.2L85,7.4
		c0.2,0.2,0.2,0.5,0.3,0.7v0.1v3.5L85,12.2z"/>
	<path class="st0" d="M121.1,23.4l0.2-0.2v-0.4l0.1-0.5c0-1.4,0-2.8,0-4.2c0-1.4,0-2.8,0-4.2V5.5l-0.2-0.4l-0.3-0.4
		c-0.1,0-0.1-0.1-0.2-0.1c-0.1-0.1-0.2-0.2-0.3-0.2c-0.2,0-0.2-0.1-0.3-0.1c-0.1,0-0.2-0.1-0.3-0.1H95.7v18l0.2,0.6l0.2,0.3l0.3,0.4
		l0.2,0.2l0.4,0.2l0.2,0.1h2.3c0.8,0,1.5,0,2.3,0l0.4-0.2l0.3-0.3l0.2-0.3c0-2.5,0-5,0-7.5V8l0.3-0.6l0.5-0.3h0.2
		c0.2,0,0.3,0.1,0.5,0.1h0.1l0.4,0.2l0.1,0.1c0.2,0.3,0.2,0.6,0.3,0.9c0,2.5,0,5,0.1,7.4c0,1.2,0,2.4,0,3.6s0,2.4,0,3.7
		c0,0.1,0,0.2,0.1,0.2c0,0.1,0.1,0.2,0.1,0.2l0.2,0.2c0.1,0.1,0.2,0.2,0.3,0.2h0.1l0.6,0.2h2.4c0.8,0,1.6,0,2.4,0l0.2-0.1
		c0.2-0.1,0.3-0.2,0.5-0.3l0.2-0.3V23l0.1-0.2v-2.3c0-4.2,0.1-8.5,0.1-12.6V7.8l0.3-0.6L113,7h0.2c0.1,0,0.3,0,0.5,0h0.1l0.3,0.2
		l0.2,0.1l0.2,0.6c0,2.4,0,4.8,0,7.2c0,2.1,0.1,4.6,0.1,7.2v0.2l0.1,0.1c0,0.1,0.1,0.2,0.2,0.4l0.2,0.3l0.2,0.3l0.4,0.3l0.2,0.1h4.5
		l0.6-0.2L121.1,23.4z"/>
</g>
</svg>
