<?xml version="1.0" encoding="utf-8"?>
<!-- Generator: Adobe Illustrator 22.0.1, SVG Export Plug-In . SVG Version: 6.00 Build 0)  -->
<svg version="1.1" id="Layer_1" xmlns="http://www.w3.org/2000/svg" xmlns:xlink="http://www.w3.org/1999/xlink" x="0px" y="0px"
	 width="785.4px" height="193px" viewBox="0 0 785.4 193" style="enable-background:new 0 0 785.4 193;" xml:space="preserve">
<style type="text/css">
	.st0{fill:none;stroke:#8C754B;stroke-miterlimit:10;}
	.st1{fill:none;stroke:#F0D283;stroke-miterlimit:10;}
	.st2{fill:#8C754B;}
	.st3{fill:#8C734B;}
	.st4{fill:none;stroke:#8C734B;stroke-linecap:round;stroke-miterlimit:10;}
	.st5{fill-rule:evenodd;clip-rule:evenodd;fill:none;stroke:#8C754B;stroke-miterlimit:10;}
</style>
<g>
	<line class="st0" x1="781.3" y1="100" x2="102.2" y2="100"/>
	<line class="st0" x1="781.3" y1="104" x2="102.2" y2="104"/>
	<line class="st0" x1="781.3" y1="11.7" x2="262" y2="11.7"/>
	<line class="st0" x1="781.3" y1="15.8" x2="280.5" y2="15.8"/>
	<g>
		<g>
			<g>
				<g>
					<path class="st0" d="M468.8,53.9c-2.4-22.8-22.8-39.4-45.6-37c-22.8,2.4-39.4,22.8-37,45.6c2.4,22.8,22.8,39.4,45.6,37
						C454.6,97.2,471.2,76.7,468.8,53.9z"/>
					<path class="st1" d="M463.2,54.5c-2.1-19.7-19.7-34-39.4-32c-19.7,2.1-34,19.7-32,39.4c2,19.7,19.7,34,39.4,32
						C450.9,91.9,465.2,74.2,463.2,54.5z"/>
					<path class="st1" d="M461.1,54.7c-1.9-18.6-18.6-32.1-37.2-30.2c-18.6,1.9-32.1,18.6-30.2,37.2c1.9,18.6,18.6,32.1,37.2,30.2
						C449.6,89.9,463.1,73.3,461.1,54.7z"/>
					<path class="st0" d="M455.4,55.3c-1.6-15.4-15.4-26.6-30.8-25c-15.4,1.6-26.6,15.4-25,30.8c1.6,15.4,15.4,26.6,30.8,25
						C445.8,84.5,457,70.7,455.4,55.3z"/>
					<path class="st0" d="M440.5,56.9c-0.7-7.2-7.2-12.4-14.4-11.7c-7.2,0.7-12.4,7.2-11.7,14.4c0.7,7.2,7.2,12.4,14.4,11.7
						C436,70.5,441.2,64.1,440.5,56.9z"/>
					<path class="st0" d="M428.7,65.3c-0.1-1-1-1.7-2-1.6c-1,0.1-1.7,1-1.6,2c0.1,1,1,1.7,2,1.6C428.1,67.2,428.8,66.3,428.7,65.3z"
						/>
					<path class="st0" d="M421.4,59.1c-0.1-1-1-1.7-1.9-1.6c-1,0.1-1.7,1-1.6,2c0.1,1,1,1.7,2,1.6C420.8,60.9,421.5,60.1,421.4,59.1
						z"/>
					<path class="st0" d="M424.8,50.5c-0.1-1-1-1.7-2-1.6c-1,0.1-1.7,1-1.6,1.9c0.1,1,1,1.7,2,1.6C424.2,52.3,424.9,51.5,424.8,50.5
						z"/>
					<path class="st0" d="M434.2,51.1c-0.1-1-1-1.7-2-1.6c-1,0.1-1.7,1-1.6,2c0.1,1,1,1.7,2,1.6C433.6,53,434.3,52.1,434.2,51.1z"/>
					<path class="st0" d="M436.7,60.2c-0.1-1-1-1.7-2-1.6c-1,0.1-1.7,1-1.6,2c0.1,1,1,1.7,2,1.6C436.1,62.1,436.8,61.2,436.7,60.2z"
						/>
				</g>
				<g>
					<path class="st0" d="M564.9,53.9c-2.4-22.8-22.8-39.4-45.6-37c-22.8,2.4-39.4,22.8-37,45.6c2.4,22.8,22.8,39.4,45.6,37
						C550.7,97.2,567.3,76.7,564.9,53.9z"/>
					<path class="st1" d="M559.3,54.5c-2-19.7-19.7-34-39.4-32c-19.7,2.1-34,19.7-32,39.4c2,19.7,19.7,34,39.4,32
						C547,91.9,561.4,74.2,559.3,54.5z"/>
					<path class="st1" d="M557.3,54.7c-1.9-18.6-18.6-32.1-37.2-30.2C501.5,26.5,488,43.1,490,61.7c1.9,18.6,18.6,32.1,37.2,30.2
						C545.7,89.9,559.2,73.3,557.3,54.7z"/>
					<path class="st0" d="M551.5,55.3c-1.6-15.4-15.4-26.6-30.8-25c-15.4,1.6-26.6,15.4-25,30.8c1.6,15.4,15.4,26.6,30.8,25
						C541.9,84.5,553.1,70.7,551.5,55.3z"/>
					<path class="st0" d="M536.6,56.9c-0.7-7.2-7.2-12.4-14.4-11.7c-7.2,0.7-12.4,7.2-11.7,14.4c0.7,7.2,7.2,12.4,14.4,11.7
						C532.1,70.5,537.4,64.1,536.6,56.9z"/>
					<path class="st0" d="M524.8,65.3c-0.1-1-1-1.7-2-1.6c-1,0.1-1.7,1-1.6,2c0.1,1,1,1.7,2,1.6C524.2,67.2,524.9,66.3,524.8,65.3z"
						/>
					<path class="st0" d="M517.5,59.1c-0.1-1-1-1.7-1.9-1.6c-1,0.1-1.7,1-1.6,2c0.1,1,1,1.7,2,1.6C516.9,60.9,517.6,60.1,517.5,59.1
						z"/>
					<path class="st0" d="M520.9,50.5c-0.1-1-1-1.7-2-1.6c-1,0.1-1.7,1-1.6,1.9c0.1,1,1,1.7,1.9,1.6C520.3,52.3,521,51.5,520.9,50.5
						z"/>
					<path class="st0" d="M530.3,51.1c-0.1-1-1-1.7-2-1.6c-1,0.1-1.7,1-1.6,2c0.1,1,1,1.7,2,1.6C529.7,53,530.4,52.1,530.3,51.1z"/>
					<path class="st0" d="M532.8,60.2c-0.1-1-1-1.7-2-1.6c-1,0.1-1.7,1-1.6,2c0.1,1,1,1.7,2,1.6C532.2,62.1,532.9,61.2,532.8,60.2z"
						/>
				</g>
				<g>
					<path class="st0" d="M660.2,53.9c-2.4-22.8-22.8-39.4-45.6-37c-22.8,2.4-39.4,22.8-37,45.6c2.4,22.8,22.8,39.4,45.6,37
						C646,97.2,662.6,76.7,660.2,53.9z"/>
					<path class="st1" d="M654.6,54.5c-2.1-19.7-19.7-34-39.4-32c-19.7,2.1-34,19.7-32,39.4c2,19.7,19.7,34,39.4,32
						C642.3,91.9,656.6,74.2,654.6,54.5z"/>
					<path class="st1" d="M652.6,54.7c-1.9-18.6-18.6-32.1-37.2-30.2c-18.6,1.9-32.1,18.6-30.2,37.2c1.9,18.6,18.6,32.1,37.2,30.2
						C641,89.9,654.5,73.3,652.6,54.7z"/>
					<path class="st0" d="M646.8,55.3c-1.6-15.4-15.4-26.6-30.8-25c-15.4,1.6-26.6,15.4-25,30.8c1.6,15.4,15.4,26.6,30.8,25
						C637.2,84.5,648.4,70.7,646.8,55.3z"/>
					<path class="st0" d="M631.9,56.9c-0.7-7.2-7.2-12.4-14.4-11.7c-7.2,0.7-12.4,7.2-11.7,14.4c0.7,7.2,7.2,12.4,14.4,11.7
						C627.4,70.5,632.7,64.1,631.9,56.9z"/>
					<path class="st0" d="M620.1,65.3c-0.1-1-1-1.7-2-1.6c-1,0.1-1.7,1-1.6,2c0.1,1,1,1.7,1.9,1.6C619.5,67.2,620.2,66.3,620.1,65.3
						z"/>
					<path class="st0" d="M612.8,59.1c-0.1-1-1-1.7-2-1.6c-1,0.1-1.7,1-1.6,2c0.1,1,1,1.7,2,1.6C612.2,60.9,612.9,60.1,612.8,59.1z"
						/>
					<path class="st0" d="M616.2,50.5c-0.1-1-1-1.7-1.9-1.6c-1,0.1-1.7,1-1.6,1.9c0.1,1,1,1.7,1.9,1.6
						C615.6,52.3,616.3,51.5,616.2,50.5z"/>
					<path class="st0" d="M625.6,51.1c-0.1-1-1-1.7-2-1.6c-1,0.1-1.7,1-1.6,2c0.1,1,1,1.7,2,1.6C625,53,625.7,52.1,625.6,51.1z"/>
					<path class="st0" d="M628.1,60.2c-0.1-1-1-1.7-1.9-1.6c-1,0.1-1.7,1-1.6,2c0.1,1,1,1.7,2,1.6C627.5,62.1,628.2,61.2,628.1,60.2
						z"/>
				</g>
				<g>
					<path class="st0" d="M755.9,53.9c-2.4-22.8-22.8-39.4-45.6-37c-22.8,2.4-39.4,22.8-37,45.6c2.4,22.8,22.8,39.4,45.6,37
						C741.6,97.2,758.2,76.7,755.9,53.9z"/>
					<path class="st1" d="M750.2,54.5c-2.1-19.7-19.7-34-39.4-32c-19.7,2.1-34,19.7-32,39.4c2,19.7,19.7,34,39.4,32
						C738,91.9,752.3,74.2,750.2,54.5z"/>
					<path class="st1" d="M748.2,54.7c-1.9-18.6-18.6-32.1-37.2-30.2c-18.6,1.9-32.1,18.6-30.2,37.2c1.9,18.6,18.6,32.1,37.2,30.2
						C736.6,89.9,750.1,73.3,748.2,54.7z"/>
					<path class="st0" d="M742.4,55.3c-1.6-15.4-15.4-26.6-30.8-25c-15.4,1.6-26.6,15.4-25,30.8c1.6,15.4,15.4,26.6,30.8,25
						C732.8,84.5,744,70.7,742.4,55.3z"/>
					<path class="st0" d="M727.5,56.9c-0.7-7.2-7.2-12.4-14.4-11.7c-7.2,0.7-12.4,7.2-11.7,14.4c0.7,7.2,7.2,12.4,14.4,11.7
						C723.1,70.5,728.3,64.1,727.5,56.9z"/>
					<path class="st0" d="M715.8,65.3c-0.1-1-1-1.7-2-1.6c-1,0.1-1.7,1-1.6,2c0.1,1,1,1.7,1.9,1.6C715.2,67.2,715.9,66.3,715.8,65.3
						z"/>
					<path class="st0" d="M708.5,59.1c-0.1-1-1-1.7-2-1.6c-1,0.1-1.7,1-1.6,2c0.1,1,1,1.7,2,1.6C707.8,60.9,708.6,60.1,708.5,59.1z"
						/>
					<path class="st0" d="M711.8,50.5c-0.1-1-1-1.7-1.9-1.6c-1,0.1-1.7,1-1.6,1.9c0.1,1,1,1.7,1.9,1.6
						C711.2,52.3,711.9,51.5,711.8,50.5z"/>
					<path class="st0" d="M721.2,51.1c-0.1-1-1-1.7-2-1.6c-1,0.1-1.7,1-1.6,2c0.1,1,1,1.7,2,1.6C720.6,53,721.3,52.1,721.2,51.1z"/>
					<path class="st0" d="M723.8,60.2c-0.1-1-1-1.7-1.9-1.6c-1,0.1-1.7,1-1.6,2c0.1,1,1,1.7,2,1.6C723.1,62.1,723.9,61.2,723.8,60.2
						z"/>
				</g>
			</g>
		</g>
	</g>
	<g>
		<g>
			<path class="st0" d="M365.2,41.5l6.8-2.6c0.5,0.7,0.9,1.4,1.3,2.2l-5.7,4.5c0.6,1.3,1.1,2.7,1.4,4.2l7.3,0.3
				c0.1,0.8,0.2,1.7,0.3,2.5l-7,1.8c0,0,0,0,0,0c0,1.5-0.2,3-0.4,4.4l6.5,3.3c-0.2,0.8-0.5,1.6-0.8,2.4l-7.2-1.2
				c-0.6,1.4-1.4,2.7-2.2,3.9l4.6,5.6c-0.5,0.6-1.1,1.3-1.7,1.9l-6.1-4c-1.1,1-2.3,1.9-3.6,2.6l1.9,7c-0.7,0.4-1.5,0.7-2.3,1
				l-3.9-6.1c-1.4,0.5-2.9,0.8-4.4,0.9l-1.1,7.2h-2.5l-1.1-7.2c-1.5-0.2-3-0.5-4.4-0.9l-3.9,6.1c-0.8-0.3-1.5-0.6-2.3-1l1.9-7
				c-1.3-0.8-2.5-1.6-3.6-2.6l-6.1,4c-0.6-0.6-1.1-1.2-1.7-1.9l4.6-5.6c-0.9-1.2-1.6-2.5-2.2-3.9l-7.2,1.2c-0.3-0.8-0.5-1.6-0.8-2.4
				l6.5-3.3c-0.3-1.4-0.4-2.9-0.4-4.4c0,0,0,0,0,0l-7-1.8c0.1-0.8,0.1-1.7,0.3-2.5l7.3-0.3c0.3-1.5,0.8-2.8,1.4-4.2L322,41
				c0.4-0.7,0.8-1.5,1.3-2.2l6.8,2.6c0.9-1.2,1.9-2.3,2.9-3.2l-3.3-6.5c0.7-0.5,1.4-1,2.1-1.5l5.1,5.2c1.3-0.7,2.6-1.3,4-1.8
				l-0.4-7.3c0.8-0.2,1.6-0.4,2.5-0.5l2.6,6.8c0.7-0.1,1.4-0.1,2.2-0.1c0.7,0,1.5,0,2.2,0.1l2.6-6.8c0.8,0.1,1.7,0.3,2.5,0.5
				l-0.4,7.3c1.4,0.5,2.7,1.1,4,1.8l5.1-5.2c0.7,0.5,1.4,1,2.1,1.5l-3.3,6.5C363.3,39.2,364.3,40.3,365.2,41.5z"/>
			<path class="st0" d="M364.1,54.7c0-9.1-7.4-16.5-16.5-16.5c-9.1,0-16.5,7.4-16.5,16.5c0,9.1,7.4,16.5,16.5,16.5
				C356.7,71.2,364.1,63.8,364.1,54.7z"/>
			<path class="st0" d="M360,54.7c0-6.9-5.6-12.4-12.4-12.4c-6.9,0-12.4,5.6-12.4,12.4c0,6.9,5.6,12.4,12.4,12.4
				C354.5,67.1,360,61.5,360,54.7z"/>
			<path class="st0" d="M353.9,54.7c0-3.5-2.8-6.3-6.3-6.3c-3.5,0-6.3,2.8-6.3,6.3c0,3.5,2.8,6.3,6.3,6.3
				C351.1,60.9,353.9,58.1,353.9,54.7z"/>
		</g>
	</g>
	<line class="st0" x1="110.5" y1="104" x2="106.4" y2="100"/>
	<line class="st0" x1="115.1" y1="104" x2="111" y2="100"/>
	<line class="st0" x1="119.8" y1="104" x2="115.7" y2="100"/>
	<line class="st0" x1="124.4" y1="104" x2="120.3" y2="100"/>
	<line class="st0" x1="129.1" y1="104" x2="125" y2="100"/>
	<line class="st0" x1="133.7" y1="104" x2="129.6" y2="100"/>
	<line class="st0" x1="138.3" y1="104" x2="134.3" y2="100"/>
	<line class="st0" x1="143" y1="104" x2="138.9" y2="100"/>
	<line class="st0" x1="147.6" y1="104" x2="143.6" y2="100"/>
	<line class="st0" x1="152.3" y1="104" x2="148.2" y2="100"/>
	<line class="st0" x1="156.9" y1="104" x2="152.9" y2="100"/>
	<line class="st0" x1="161.6" y1="104" x2="157.5" y2="100"/>
	<line class="st0" x1="166.2" y1="104" x2="162.2" y2="100"/>
	<line class="st0" x1="170.9" y1="104" x2="166.8" y2="100"/>
	<line class="st0" x1="175.5" y1="104" x2="171.5" y2="100"/>
	<line class="st0" x1="180.2" y1="104" x2="176.1" y2="100"/>
	<line class="st0" x1="184.8" y1="104" x2="180.8" y2="100"/>
	<line class="st0" x1="189.5" y1="104" x2="185.4" y2="100"/>
	<line class="st0" x1="194.1" y1="104" x2="190.1" y2="100"/>
	<line class="st0" x1="198.8" y1="104" x2="194.7" y2="100"/>
	<line class="st0" x1="203.4" y1="104" x2="199.4" y2="100"/>
	<line class="st0" x1="208.1" y1="104" x2="204" y2="100"/>
	<line class="st0" x1="212.7" y1="104" x2="208.7" y2="100"/>
	<line class="st0" x1="217.4" y1="104" x2="213.3" y2="100"/>
	<line class="st0" x1="222" y1="104" x2="218" y2="100"/>
	<line class="st0" x1="226.7" y1="104" x2="222.6" y2="100"/>
	<line class="st0" x1="231.3" y1="104" x2="227.3" y2="100"/>
	<line class="st0" x1="236" y1="104" x2="231.9" y2="100"/>
	<line class="st0" x1="240.6" y1="104" x2="236.6" y2="100"/>
	<line class="st0" x1="273.6" y1="104" x2="269.5" y2="100"/>
	<line class="st0" x1="278.3" y1="104" x2="274.2" y2="100"/>
	<line class="st0" x1="282.9" y1="104" x2="278.8" y2="100"/>
	<line class="st0" x1="287.6" y1="104" x2="283.5" y2="100"/>
	<line class="st0" x1="292.2" y1="104" x2="288.1" y2="100"/>
	<line class="st0" x1="296.8" y1="104" x2="292.8" y2="100"/>
	<line class="st0" x1="301.5" y1="104" x2="297.4" y2="100"/>
	<line class="st0" x1="306.1" y1="104" x2="302.1" y2="100"/>
	<line class="st0" x1="310.8" y1="104" x2="306.7" y2="100"/>
	<line class="st0" x1="315.4" y1="104" x2="311.4" y2="100"/>
	<line class="st0" x1="320.1" y1="104" x2="316" y2="100"/>
	<line class="st0" x1="324.7" y1="104" x2="320.7" y2="100"/>
	<line class="st0" x1="329.4" y1="104" x2="325.3" y2="100"/>
	<line class="st0" x1="334" y1="104" x2="330" y2="100"/>
	<line class="st0" x1="338.7" y1="104" x2="334.6" y2="100"/>
	<line class="st0" x1="343.3" y1="104" x2="339.3" y2="100"/>
	<line class="st0" x1="348" y1="104" x2="343.9" y2="100"/>
	<line class="st0" x1="352.6" y1="104" x2="348.6" y2="100"/>
	<line class="st0" x1="357.3" y1="104" x2="353.2" y2="100"/>
	<line class="st0" x1="361.9" y1="104" x2="357.9" y2="100"/>
	<line class="st0" x1="366.6" y1="104" x2="362.5" y2="100"/>
	<line class="st0" x1="371.2" y1="104" x2="367.2" y2="100"/>
	<line class="st0" x1="375.9" y1="104" x2="371.8" y2="100"/>
	<line class="st0" x1="380.5" y1="104" x2="376.5" y2="100"/>
	<line class="st0" x1="385.2" y1="104" x2="381.1" y2="100"/>
	<line class="st0" x1="389.8" y1="104" x2="385.8" y2="100"/>
	<line class="st0" x1="394.5" y1="104" x2="390.4" y2="100"/>
	<line class="st0" x1="399.1" y1="104" x2="395.1" y2="100"/>
	<line class="st0" x1="403.8" y1="104" x2="399.7" y2="100"/>
	<line class="st0" x1="408.9" y1="104" x2="404.8" y2="100"/>
	<line class="st0" x1="413.5" y1="104" x2="409.5" y2="100"/>
	<line class="st0" x1="418.2" y1="104" x2="414.1" y2="100"/>
	<line class="st0" x1="422.8" y1="104" x2="418.8" y2="100"/>
	<line class="st0" x1="427.5" y1="104" x2="423.4" y2="100"/>
	<line class="st0" x1="432.1" y1="104" x2="428.1" y2="100"/>
	<line class="st0" x1="436.8" y1="104" x2="432.7" y2="100"/>
	<line class="st0" x1="441.4" y1="104" x2="437.4" y2="100"/>
	<line class="st0" x1="446.1" y1="104" x2="442" y2="100"/>
	<line class="st0" x1="450.7" y1="104" x2="446.7" y2="100"/>
	<line class="st0" x1="455.4" y1="104" x2="451.3" y2="100"/>
	<line class="st0" x1="460" y1="104" x2="456" y2="100"/>
	<line class="st0" x1="464.7" y1="104" x2="460.6" y2="100"/>
	<line class="st0" x1="469.3" y1="104" x2="465.3" y2="100"/>
	<line class="st0" x1="474" y1="104" x2="469.9" y2="100"/>
	<line class="st0" x1="478.6" y1="104" x2="474.6" y2="100"/>
	<line class="st0" x1="483.3" y1="104" x2="479.2" y2="100"/>
	<line class="st0" x1="487.9" y1="104" x2="483.9" y2="100"/>
	<line class="st0" x1="492.6" y1="104" x2="488.5" y2="100"/>
	<line class="st0" x1="497.2" y1="104" x2="493.2" y2="100"/>
	<line class="st0" x1="501.9" y1="104" x2="497.8" y2="100"/>
	<line class="st0" x1="506.5" y1="104" x2="502.4" y2="100"/>
	<line class="st0" x1="511.2" y1="104" x2="507.1" y2="100"/>
	<line class="st0" x1="515.8" y1="104" x2="511.7" y2="100"/>
	<line class="st0" x1="520.5" y1="104" x2="516.4" y2="100"/>
	<line class="st0" x1="525.1" y1="104" x2="521" y2="100"/>
	<line class="st0" x1="529.8" y1="104" x2="525.7" y2="100"/>
	<line class="st0" x1="534.4" y1="104" x2="530.3" y2="100"/>
	<line class="st0" x1="539.1" y1="104" x2="535" y2="100"/>
	<line class="st0" x1="543.8" y1="104" x2="539.8" y2="100"/>
	<line class="st0" x1="548.5" y1="104" x2="544.4" y2="100"/>
	<line class="st0" x1="553.1" y1="104" x2="549.1" y2="100"/>
	<line class="st0" x1="557.8" y1="104" x2="553.7" y2="100"/>
	<line class="st0" x1="562.4" y1="104" x2="558.4" y2="100"/>
	<line class="st0" x1="567.1" y1="104" x2="563" y2="100"/>
	<line class="st0" x1="571.7" y1="104" x2="567.7" y2="100"/>
	<line class="st0" x1="576.4" y1="104" x2="572.3" y2="100"/>
	<line class="st0" x1="581" y1="104" x2="576.9" y2="100"/>
	<line class="st0" x1="585.7" y1="104" x2="581.6" y2="100"/>
	<line class="st0" x1="590.3" y1="104" x2="586.2" y2="100"/>
	<line class="st0" x1="595" y1="104" x2="590.9" y2="100"/>
	<line class="st0" x1="599.6" y1="104" x2="595.5" y2="100"/>
	<line class="st0" x1="604.3" y1="104" x2="600.2" y2="100"/>
	<line class="st0" x1="608.9" y1="104" x2="604.8" y2="100"/>
	<line class="st0" x1="613.6" y1="104" x2="609.5" y2="100"/>
	<line class="st0" x1="618.2" y1="104" x2="614.1" y2="100"/>
	<line class="st0" x1="622.9" y1="104" x2="618.8" y2="100"/>
	<line class="st0" x1="627.5" y1="104" x2="623.4" y2="100"/>
	<line class="st0" x1="632.2" y1="104" x2="628.1" y2="100"/>
	<line class="st0" x1="636.8" y1="104" x2="632.7" y2="100"/>
	<line class="st0" x1="641.5" y1="104" x2="637.4" y2="100"/>
	<line class="st0" x1="646.1" y1="104" x2="642" y2="100"/>
	<line class="st0" x1="650.8" y1="104" x2="646.7" y2="100"/>
	<line class="st0" x1="655.4" y1="104" x2="651.3" y2="100"/>
	<line class="st0" x1="660.1" y1="104" x2="656" y2="100"/>
	<line class="st0" x1="664.7" y1="104" x2="660.6" y2="100"/>
	<line class="st0" x1="669.4" y1="104" x2="665.3" y2="100"/>
	<line class="st0" x1="674" y1="104" x2="669.9" y2="100"/>
	<line class="st0" x1="679.1" y1="104" x2="675" y2="100"/>
	<line class="st0" x1="683.8" y1="104" x2="679.7" y2="100"/>
	<line class="st0" x1="688.4" y1="104" x2="684.3" y2="100"/>
	<line class="st0" x1="693.1" y1="104" x2="689" y2="100"/>
	<line class="st0" x1="697.7" y1="104" x2="693.6" y2="100"/>
	<line class="st0" x1="702.4" y1="104" x2="698.3" y2="100"/>
	<line class="st0" x1="707" y1="104" x2="702.9" y2="100"/>
	<line class="st0" x1="711.7" y1="104" x2="707.6" y2="100"/>
	<line class="st0" x1="716.3" y1="104" x2="712.2" y2="100"/>
	<line class="st0" x1="721" y1="104" x2="716.9" y2="100"/>
	<line class="st0" x1="725.6" y1="104" x2="721.5" y2="100"/>
	<line class="st0" x1="730.3" y1="104" x2="726.2" y2="100"/>
	<line class="st0" x1="734.9" y1="104" x2="730.8" y2="100"/>
	<line class="st0" x1="739.6" y1="104" x2="735.5" y2="100"/>
	<line class="st0" x1="744.2" y1="104" x2="740.1" y2="100"/>
	<line class="st0" x1="748.9" y1="104" x2="744.8" y2="100"/>
	<line class="st0" x1="753.5" y1="104" x2="749.4" y2="100"/>
	<line class="st0" x1="758.2" y1="104" x2="754.1" y2="100"/>
	<line class="st0" x1="762.7" y1="104" x2="758.6" y2="100"/>
	<line class="st0" x1="767.3" y1="104" x2="763.2" y2="100"/>
	<line class="st0" x1="772" y1="104" x2="767.9" y2="100"/>
	<line class="st0" x1="776.6" y1="104" x2="772.5" y2="100"/>
	<line class="st0" x1="781.3" y1="104" x2="777.2" y2="100"/>
	<line class="st0" x1="245.3" y1="104" x2="241.2" y2="100"/>
	<line class="st0" x1="249.9" y1="104" x2="245.9" y2="100"/>
	<line class="st0" x1="254.6" y1="104" x2="250.5" y2="100"/>
	<line class="st0" x1="259.2" y1="104" x2="255.2" y2="100"/>
	<line class="st0" x1="263.9" y1="104" x2="259.8" y2="100"/>
	<line class="st0" x1="268.5" y1="104" x2="264.4" y2="100"/>
	<g>
		<g>
			<g>
				<g>
					<polygon class="st0" points="325,104 323.8,109.6 322.5,115.2 321.4,115.2 320.3,115.2 319,109.6 317.8,104 					"/>
				</g>
			</g>
		</g>
		<g>
			<g>
				<g>
					<polygon class="st0" points="355.1,104 353.9,109.6 352.6,115.2 351.5,115.2 350.4,115.2 349.1,109.6 347.9,104 					"/>
				</g>
			</g>
		</g>
		<g>
			<g>
				<g>
					<polygon class="st0" points="385.2,104 384,109.6 382.7,115.2 381.6,115.2 380.5,115.2 379.2,109.6 378,104 					"/>
				</g>
			</g>
		</g>
		<g>
			<g>
				<g>
					<polygon class="st0" points="415.3,104 414.1,109.6 412.8,115.2 411.7,115.2 410.6,115.2 409.3,109.6 408.1,104 					"/>
				</g>
			</g>
		</g>
		<g>
			<g>
				<g>
					<polygon class="st0" points="445.4,104 444.2,109.6 442.9,115.2 441.8,115.2 440.7,115.2 439.4,109.6 438.1,104 					"/>
				</g>
			</g>
		</g>
		<g>
			<g>
				<g>
					<polygon class="st0" points="475.5,104 474.3,109.6 473,115.2 471.9,115.2 470.7,115.2 469.5,109.6 468.2,104 					"/>
				</g>
			</g>
		</g>
		<g>
			<g>
				<g>
					<polygon class="st0" points="505.6,104 504.4,109.6 503.1,115.2 502,115.2 500.8,115.2 499.6,109.6 498.3,104 					"/>
				</g>
			</g>
		</g>
		<g>
			<g>
				<g>
					<polygon class="st0" points="535.7,104 534.5,109.6 533.2,115.2 532.1,115.2 530.9,115.2 529.7,109.6 528.4,104 					"/>
				</g>
			</g>
		</g>
		<g>
			<g>
				<g>
					<polygon class="st0" points="565.8,104 564.5,109.6 563.3,115.2 562.2,115.2 561,115.2 559.8,109.6 558.5,104 					"/>
				</g>
			</g>
		</g>
		<g>
			<g>
				<g>
					<polygon class="st0" points="595.9,104 594.6,109.6 593.4,115.2 592.3,115.2 591.1,115.2 589.9,109.6 588.6,104 					"/>
				</g>
			</g>
		</g>
		<g>
			<g>
				<g>
					<polygon class="st0" points="626,104 624.7,109.6 623.5,115.2 622.4,115.2 621.2,115.2 620,109.6 618.7,104 					"/>
				</g>
			</g>
		</g>
		<g>
			<g>
				<g>
					<polygon class="st0" points="656.1,104 654.8,109.6 653.6,115.2 652.5,115.2 651.3,115.2 650.1,109.6 648.8,104 					"/>
				</g>
			</g>
		</g>
	</g>
	<g>
		<g>
			<g>
				<g>
					<polyline class="st0" points="325,11.7 323.8,6.1 322.5,0.5 321.4,0.5 320.3,0.5 319,6.1 317.8,11.7 					"/>
				</g>
			</g>
		</g>
		<g>
			<g>
				<g>
					<polyline class="st0" points="355.1,11.7 353.9,6.1 352.6,0.5 351.5,0.5 350.4,0.5 349.1,6.1 347.9,11.7 					"/>
				</g>
			</g>
		</g>
		<g>
			<g>
				<g>
					<polyline class="st0" points="385.2,11.7 384,6.1 382.7,0.5 381.6,0.5 380.5,0.5 379.2,6.1 378,11.7 					"/>
				</g>
			</g>
		</g>
		<g>
			<g>
				<g>
					<polyline class="st0" points="415.3,11.7 414.1,6.1 412.8,0.5 411.7,0.5 410.6,0.5 409.3,6.1 408.1,11.7 					"/>
				</g>
			</g>
		</g>
		<g>
			<g>
				<g>
					<polyline class="st0" points="445.4,11.7 444.2,6.1 442.9,0.5 441.8,0.5 440.7,0.5 439.4,6.1 438.1,11.7 					"/>
				</g>
			</g>
		</g>
		<g>
			<g>
				<g>
					<polyline class="st0" points="475.5,11.7 474.3,6.1 473,0.5 471.9,0.5 470.7,0.5 469.5,6.1 468.2,11.7 					"/>
				</g>
			</g>
		</g>
		<g>
			<g>
				<g>
					<polyline class="st0" points="505.6,11.7 504.4,6.1 503.1,0.5 502,0.5 500.8,0.5 499.6,6.1 498.3,11.7 					"/>
				</g>
			</g>
		</g>
		<g>
			<g>
				<g>
					<polyline class="st0" points="535.7,11.7 534.5,6.1 533.2,0.5 532.1,0.5 530.9,0.5 529.7,6.1 528.4,11.7 					"/>
				</g>
			</g>
		</g>
		<g>
			<g>
				<g>
					<polyline class="st0" points="565.8,11.7 564.5,6.1 563.3,0.5 562.2,0.5 561,0.5 559.8,6.1 558.5,11.7 					"/>
				</g>
			</g>
		</g>
		<g>
			<g>
				<g>
					<polyline class="st0" points="595.9,11.7 594.6,6.1 593.4,0.5 592.3,0.5 591.1,0.5 589.9,6.1 588.6,11.7 					"/>
				</g>
			</g>
		</g>
		<g>
			<g>
				<g>
					<polyline class="st0" points="626,11.7 624.7,6.1 623.5,0.5 622.4,0.5 621.2,0.5 620,6.1 618.7,11.7 					"/>
				</g>
			</g>
		</g>
		<g>
			<g>
				<g>
					<polyline class="st0" points="656.1,11.7 654.8,6.1 653.6,0.5 652.5,0.5 651.3,0.5 650.1,6.1 648.8,11.7 					"/>
				</g>
			</g>
		</g>
		<g>
			<g>
				<g>
					<polyline class="st0" points="686.8,11.7 685.5,6.1 684.3,0.5 683.2,0.5 682,0.5 680.8,6.1 679.5,11.7 					"/>
				</g>
			</g>
		</g>
		<g>
			<g>
				<g>
					<polyline class="st0" points="716.9,11.7 715.6,6.1 714.4,0.5 713.3,0.5 712.1,0.5 710.9,6.1 709.6,11.7 					"/>
				</g>
			</g>
		</g>
		<g>
			<g>
				<g>
					<polyline class="st0" points="747,11.7 745.7,6.1 744.5,0.5 743.4,0.5 742.2,0.5 741,6.1 739.7,11.7 					"/>
				</g>
			</g>
		</g>
		<g>
			<g>
				<g>
					<polyline class="st0" points="777.1,11.7 775.8,6.1 774.6,0.5 773.4,0.5 772.3,0.5 771.1,6.1 769.8,11.7 					"/>
				</g>
			</g>
		</g>
	</g>
	<g>
		<g>
			<g>
				<g>
					<g>
						<polygon class="st2" points="483.6,183.3 490.7,181.7 497.8,180.1 497.8,178.7 497.8,177.3 490.7,175.7 483.6,174.1 						"/>
					</g>
				</g>
			</g>
			<rect x="449.5" y="171.6" class="st3" width="9.2" height="14.2"/>
			<rect x="481.2" y="171.6" class="st3" width="3.5" height="14.2"/>
			<line class="st4" x1="461.7" y1="173" x2="465.8" y2="184.3"/>
			<line class="st4" x1="465.8" y1="173" x2="470" y2="184.3"/>
			<line class="st4" x1="470" y1="173" x2="474.2" y2="184.3"/>
			<line class="st4" x1="474.2" y1="173" x2="478.4" y2="184.3"/>
			<circle class="st4" cx="445.9" cy="178.7" r="4.6"/>
			<circle class="st4" cx="499.7" cy="178.7" r="2.6"/>
		</g>
		<line class="st0" x1="262.1" y1="178.7" x2="445.4" y2="178.7"/>
		<line class="st0" x1="499.7" y1="178.7" x2="785.4" y2="178.7"/>
	</g>
	<g>
		<path class="st5" d="M102.1,121.8c0-0.4,0-0.7,0-1c0-12.4,0-24.8,0-37.2c0-0.9-0.3-1.1-1.1-1.1c-6,0-11.9,0.1-17.9,0
			c-2.6-0.1-4.9,0.5-7.3,1.4c-5.2,2-10.4,4-15.6,5.9c-1.5,0.6-1.5,0.5-1.5,2.1c0,7,0,14.1,0,21.1c0,0.8,0.2,1.1,1,1.4
			c6.4,2.3,12.7,4.7,19.1,7c0.5,0.2,1,0.3,1.4,0.3c7,0,14,0,21,0C101.6,121.9,101.8,121.9,102.1,121.8z M91.4,102c0,2.1-1.8,4-3.9,4
			c-2.2,0-4-1.8-4-4c0-2.1,1.8-3.9,3.9-3.9C89.5,98.1,91.4,99.9,91.4,102z"/>
		<path class="st5" d="M51,110.1c1.7,0,3.3,0,5,0c0.2,0,0.4,0,0.7,0c0-5.2,0-10.4,0-15.6c-1.9,0-3.7,0-5.7,0
			C51,99.6,51,104.8,51,110.1z"/>
	</g>
	<g>
		<path class="st0" d="M304.8,55.7c0-24.3-19.7-44.1-44.1-44.1c-24.3,0-44.1,19.7-44.1,44.1c0,24.3,19.7,44.1,44.1,44.1
			C285,99.7,304.8,80,304.8,55.7z"/>
		<g>
			<path class="st0" d="M266.6,55.7c0-3.3-2.6-5.9-5.9-5.9c-3.3,0-5.9,2.6-5.9,5.9c0,3.3,2.6,5.9,5.9,5.9
				C263.9,61.6,266.6,58.9,266.6,55.7z"/>
			<path class="st0" d="M256.7,67.4v15.4c-13.3-1.9-23.4-13.3-23.4-27.1c0-3.6,0.7-7.1,2-10.2l13.3,7.7c-0.2,0.8-0.3,1.6-0.3,2.5
				C248.3,61.1,251.8,65.7,256.7,67.4z"/>
			<path class="st0" d="M273,55.7c0-0.8-0.1-1.7-0.2-2.5l13.3-7.7c1.3,3.2,2,6.6,2,10.2c0,13.8-10.2,25.2-23.4,27.1V67.4
				C269.5,65.7,273,61.1,273,55.7z"/>
			<path class="st0" d="M252.6,46.4l-13.3-7.7c5-6.3,12.8-10.4,21.4-10.4c8.7,0,16.4,4,21.4,10.4l-13.3,7.7c-2.2-1.9-5-3.1-8.1-3.1
				C257.6,43.3,254.7,44.5,252.6,46.4z"/>
		</g>
		<path class="st1" d="M293.3,55.7c0-18-14.6-32.6-32.6-32.6c-18,0-32.6,14.6-32.6,32.6c0,18,14.6,32.6,32.6,32.6
			C278.7,88.2,293.3,73.6,293.3,55.7z"/>
	</g>
	<g>
		<path class="st0" d="M304.8,148.4c0-24.3-19.7-44.1-44.1-44.1c-24.3,0-44.1,19.7-44.1,44.1c0,24.3,19.7,44.1,44.1,44.1
			C285,192.5,304.8,172.7,304.8,148.4z"/>
		<g>
			<path class="st0" d="M266.6,148.4c0-3.3-2.6-5.9-5.9-5.9c-3.3,0-5.9,2.6-5.9,5.9c0,3.3,2.6,5.9,5.9,5.9
				C263.9,154.3,266.6,151.6,266.6,148.4z"/>
			<path class="st0" d="M256.7,160.1v15.4c-13.3-1.9-23.4-13.3-23.4-27.1c0-3.6,0.7-7.1,2-10.2l13.3,7.7c-0.2,0.8-0.3,1.6-0.3,2.5
				C248.3,153.8,251.8,158.4,256.7,160.1z"/>
			<path class="st0" d="M273,148.4c0-0.8-0.1-1.7-0.2-2.5l13.3-7.7c1.3,3.2,2,6.6,2,10.2c0,13.8-10.2,25.2-23.4,27.1v-15.4
				C269.5,158.4,273,153.8,273,148.4z"/>
			<path class="st0" d="M252.6,139.1l-13.3-7.7c5-6.3,12.8-10.4,21.4-10.4c8.7,0,16.4,4,21.4,10.4l-13.3,7.7c-2.2-1.9-5-3.1-8.1-3.1
				C257.6,136,254.7,137.2,252.6,139.1z"/>
		</g>
		<path class="st1" d="M293.3,148.4c0-18-14.6-32.6-32.6-32.6c-18,0-32.6,14.6-32.6,32.6c0,18,14.6,32.6,32.6,32.6
			C278.7,181,293.3,166.4,293.3,148.4z"/>
	</g>
	<path class="st0" d="M12.8,99.2c0,0-4.1,2.1-4.1,10.3s6.2,11.3,11.3,11.3s9.3-3.1,11.3-10.3c2-7-1-14.4,5.2-14.4s12.4,0,12.4,0
		v12.4h-5.2c-2.1,1,1.2,12.1-8.3,20.2c-7.2,6.2-20.6,6.1-28.9-1.1c-8.4-7.3-8.2-24.9,1-29.5C15.9,94,16.9,98.1,12.8,99.2z"/>
</g>
</svg>
