<?xml version="1.0" encoding="utf-8"?>
<!-- Generator: Adobe Illustrator 22.0.1, SVG Export Plug-In . SVG Version: 6.00 Build 0)  -->
<svg version="1.1" id="Layer_1" xmlns="http://www.w3.org/2000/svg" xmlns:xlink="http://www.w3.org/1999/xlink" x="0px" y="0px"
	 width="192.4px" height="183.1px" viewBox="0 0 192.4 183.1" style="enable-background:new 0 0 192.4 183.1;" xml:space="preserve"
	>
<style type="text/css">
	.st0{fill:#8C734B;}
</style>
<g>
	<path class="st0" d="M192.3,132.5C190,181,140.1,183,131.8,183l-129.5,0c0,0,8.3-4,9.2-4c0.7,0,1.4-0.6,1.7-1
		c-2.9-2.7-7.8-7.6-10.1-12.5c-3.4-7.1-3-12.1-3-16.1c0-4,5.2-19,15.4-18.5c10.2,0.6,11.1,9.6,11.1,13c0,1.4-1.4,3.2-3,4.7
		c18.9,5.6,32.4-10.4,45.8-27c11.7-14.5,28.6-25.6,41-28.5c-0.1-0.3-0.1-0.7-0.1-1c0-0.6-3.8-4.7-4.1-6.2c-0.4-1.5,1.7-5.5,1.7-5.5
		c-8.1-7.4-8.3-13.9-8.1-18.4c0.1-4.5,2.2-7.3,2.2-7.3s4.6,1.1,6.6,0.9c1.9-0.3,4.4-2.8,8.6-2.9c4.3-0.1,8.3,3.7,8.3,3.7l-0.2-1.7
		c1.1-5,7.1-4.7,7.1-4.7l-0.2-0.3c-8-5.7-7.7-18.4-7.7-18.4C124.4,12,141.5,0,155.5,0C169.6,0,180,10,180,18.1c0,8-5.4,11-9,11
		c-3.7,0-5.7-1.3-5.7-1.3c-7,1-9.7,16.7-9.7,16.7C155.9,74.6,194.7,84,192.3,132.5z M134.3,50.8c0.6-0.1,1.2-0.2,2-0.2
		c1.1,0,2.4,0.6,3.8,1.4c-1.2-3.2-5.3-12.8-5.3-18.4c0-6.5,3.5-10.1,7.5-14.8c4.1-4.7,12.8-3,17.8-0.9c3.8,1.5,5.9,5.6,6.7,7.6
		c5.4,0.8,10-0.9,9.8-7.8c-0.2-8-10.2-15.5-19.6-15.9c-9.4-0.5-21.6,5.8-28,16.8c-6.3,11-0.7,23.8,0.9,26.7
		C130.8,46.9,132.9,49.3,134.3,50.8z M146.8,21.5c0,0,2.5-2.4,3.6-3.5c1.1-1.1-0.2-0.6-1.4-0.2c-1.3,0.5-8.3,11.6-9.9,18.7
		c-1.2,5.4,3.6,15,5.9,19.3c0.1,0.1,0.2,0.2,0.3,0.3c-2.3-6.7-2.6-11.9-2.9-17.2c-0.3-6.1,6.3-15,6.3-16.2
		C148.7,21.5,146.8,21.5,146.8,21.5z M143.7,54.8c-1.8-4-5.3-12.2-6-16.3c-1-5.5,6.1-15.6,6.6-16.7c0.5-1.1,1.7-1.9,0.3-1.6
		c-1.4,0.3-6.6,6.9-8.2,13.7c-1.3,5.5,3.8,15.9,5.7,19.6C142.7,53.9,143.2,54.3,143.7,54.8z M22.4,149.8c-1.9,1.7-3.8,2.9-3.8,2.9
		s-1,0.9-1.4,2.4l1.2-0.3c0,0,2-2.1,2.9-2.9c0.9-0.9,2.1-0.9,1.9-0.5c-0.2,0.5-2.8,3.5-4.1,4.5c-1.3,1.1-1.5,3.4,0.1,2.7
		c1.5-0.7,3.7-2.5,4.2-3c0.5-0.5,1.2-1.8,1.8-3c0.4-0.8,0.9-1.4,1.3-1.7C24.5,150.5,23.2,150.1,22.4,149.8z M93,170.3
		c-3.1-5.3-8.2-16.5-7.9-30.9c0.5-20.4,18.5-30.4,29.1-30.5c10.6-0.1,22.4,7.7,21.8,22c-0.7,14.3-11,15-16,14.7
		c-5-0.3-8.1-6-8.5-7.8c-0.3-1.8-1.7-2-2.6-2.1c-0.9-0.1-6.2,0.1-5.4,5.4c0.8,5.3,7.3,22.2,29,18.4c21.6-3.8,23.6-28.2,22.9-34.2
		c-0.4-3.7-2.2-5.6-3.5-6.6c0.2,1.3,0.3,2.7,0.3,4.1c0,23.2-12.3,33.7-27.7,33.7c-15.5,0-16.5-16.1-16.4-17.9c0.1-1.8,1.5-0.2,2.1,1
		c0.6,1.2,3.7,11.5,16.2,11.5c12.5,0,19.5-15.8,19.5-25.1c0-9.3-4.4-30.1-29.2-30.4c-24.8-0.3-40.9,21.9-55.1,38.1
		c-14.2,16.2-23.6,17.6-30.1,17.6c-1.7,0-3.1-0.1-4.4-0.3c0,0.3-0.1,0.7-0.3,1.4c-0.3,1-1.7,2.7-1.7,2.7s-3.5,2.9-4.1,3.7
		c-0.6,0.8-2.1,1.2-2,1.9c0.3,0.3,0.6,0.7,1,1c0.3,0.3,0.7,0.6,1,0.9c0.3-0.3,0.9-0.6,1.8-1c2.1-0.7,2.4-2.5,2.8-2
		c0.5,0.5-0.7,1.9-1.3,2.4c-0.7,0.5-1.9,0.8-1.4,1.7c0.1,0.2,0.3,0.3,0.5,0.5c1,0.6,2.1,1.2,3.3,1.8c-0.1-0.4-0.1-1.3,1-1.9
		c1.5-0.7,2.4-1.7,2.6-1.7c0.2,0,1.5,0.9,0.1,1.5c-1.4,0.7-2.4,1.1-2.3,1.8c0.1,0.3-0.1,0.5-0.3,0.7c0.6,0.2,1.3,0.4,1.9,0.6
		c1.3-0.1,2.7-0.4,3.3-0.9c0.8-0.7,2.5-2.7,2.9-2.8c0.5,0,1.4,0.1,1,0.8c-0.4,0.7-2.5,2.7-2.5,2.7l-0.7,0.8c1.2,0,2.5-0.1,3.8-0.3
		c0.3-0.5,0.9-1.4,2.1-2.5c1.8-1.7,2-2.4,3.8-3.6c1.9-1.2,1.5-1,1,0.1c-0.5,1.1-3.3,3.6-3.8,4.3c-0.2,0.3-0.5,0.6-0.7,1
		c3.3-1.3,6.6-4,9.5-8.5c0,0,1.3-0.7,0.9,0.2c-0.4,0.9-5.6,12.7-20.1,11.2c-14.5-1.5-15.8-11.4-15.2-14.9c0.6-3.5,1.8-3.8,3.5-4.7
		c1.8-0.9,5.6-3.5,4.6-9.3c-1-5.8-5.5-7.5-8.3-7.1C12.1,133.8,0.3,136,0.8,154c0.4,16.4,16.1,24.1,21.9,25.9
		c1.7,0.1,3.6,0.2,5.9,0.2c15.1,0.3,23.8-14.3,23.8-14.3c1.2-2,1.9-4.3,2.5-6.2c-0.7,1.2-2.4,3.4-6.3,7.3
		c-6.6,6.4-13.2,7.5-15.9,7.6c-2.7,0.1-6.3,0.3-6.7-0.1c-0.4-0.4,0.4-0.9,0.4-0.9s2.3,0.2,10.5-0.9c8.2-1.2,17.5-13.3,18-14.2
		c0.3-0.6,0.5-0.4,0.5-0.1c0.1-0.3,0.2-0.6,0.3-0.8c0.9-2,1-2.1,1.8-2.4c0.8-0.4,3.2-0.6,2.7,0.4c-0.5,1-0.8,3.5-2.7,4
		c-1.8,0.5-2.1,4.4-2,6.2c0.1,1.8,2.9,0,4.5-0.5c1.6-0.5,1.9,1.2-0.5,2.6c-2.4,1.3-2.3,0.7-2.4,2.9c-0.1,2.2,0.6,10.3,0.6,10.3
		s0.1-0.5,10.1-0.6c10-0.1,13.9-10.5,13.9-10.5c0.1,5.7,4.7,4,7.9,4C91.1,173.7,92.2,172,93,170.3z M87.7,142.3c0.4-0.3,1-0.7,1.8-1
		c-0.1-0.6-0.1-1.1-0.1-1.4c-0.1-0.1-0.2-0.2-0.2-0.3v-4.2c-0.7,0.1-1.3,0.2-1.8,0.4c-0.1,0.6-0.2,1.3-0.3,1.9
		c0.1,0.7,0.2,1.6,0.3,2.6C87.4,140.8,87.5,141.5,87.7,142.3z M90.6,132.7c0.8,0,1.9,0.1,3.1,0.2v-4.2c-0.1,0-0.2,0-0.2,0
		c-0.8,0-1.9,0-2.9,0V132.7z M103,114.1v2.1h3.5v-2.3h-3.1C103.2,113.9,103.1,114,103,114.1z M124.8,114c0-0.1,0-0.1,0-0.2h-2.8v2.3
		h2.8V114z M129.7,141.5v-3.8c0,0-0.1,0-0.1,0c-0.4,0-1.5-0.1-3.2-0.3v3.6c0.6,0.1,1.2,0.1,1.5,0.1c1,0,1.6,0.4,1.9,0.7
		C129.8,141.6,129.7,141.6,129.7,141.5z M101.4,129.1c-0.8,0-1.6-0.1-2.4-0.1v4.1c0.3,0,0.7,0,1,0c0.5,0,1,0,1.4,0V129.1z
		 M103,133.1c1.2,0,2.2,0,3.5-0.1v-3.8c-0.6-0.1-1.2-0.1-2-0.1c-0.5,0-1,0-1.5,0V133.1z M103,127.5c1.1,0.1,2.3,0.1,3.5,0.2V123
		c-1.1-0.2-2.3-0.3-3.5-0.3V127.5z M124.8,125.1c-0.9-0.1-1.8-0.3-2.8-0.5v5.3c1.1,0.3,2,0.4,2.8,0.5V125.1z M124.7,132
		c-1.1,0-1.9-0.1-2.7-0.1v3.3c0.8,0.1,1.8,0.1,2.8,0.2L124.7,132C124.8,132,124.8,132,124.7,132z M120.5,124.3
		c-0.5-0.1-1.1-0.2-1.7-0.3c-0.5-0.1-0.9-0.1-1.3-0.2v5c1,0.2,2,0.5,3,0.8V124.3z M113,128.2c0.6,0,1.1,0.1,1.5,0.1
		c0.4,0,0.9,0.1,1.3,0.2v-4.8c-1-0.1-1.9,0-2.8-0.1V128.2z M111.4,123.6c-1,0-2.1-0.1-3.3-0.3v4.6c1.2,0.1,2.3,0.2,3.3,0.2V123.6z
		 M120.5,122.5v-4.7h-3v4.2C118.3,122.1,119.3,122.2,120.5,122.5z M115.8,117.8H113v4c1.2,0,2.1,0,2.8,0V117.8z M111.4,117.8h-3.3
		v3.9c1,0,2.1,0,3.3,0V117.8z M111.4,133.1V130c-1.3-0.2-2.3-0.4-3.3-0.6v3.6c0.1,0,0.1,0,0.2,0C109.2,133,110.3,133,111.4,133.1z
		 M113,133.3c1,0.1,1.9,0.2,2.8,0.4v-2.9c-0.5-0.1-0.9-0.2-1.5-0.3c-0.5-0.1-0.9-0.1-1.3-0.2V133.3z M117.4,134
		c0.8,0.2,1.5,0.4,2.1,0.7c0.2,0.1,0.6,0.2,0.9,0.3v-3.3c-1-0.2-1.9-0.4-3-0.6V134z M117.4,140.2c0.8,0,1.5,0,1.9,0.1
		c0.2,0,0.7,0.1,1.2,0.1v-3.9c-1-0.2-1.9-0.3-3-0.5V140.2z M122.1,140.5c0.9,0.1,1.9,0.2,2.8,0.3v-3.7c-0.8-0.1-1.7-0.3-2.8-0.4
		V140.5z M129.7,135.4v-3.2c-1,0-2.1-0.1-3.3-0.1v3.3C127.6,135.4,128.7,135.4,129.7,135.4z M129.7,130.2v-4.6
		c-1.2,0-2.3-0.2-3.3-0.3v5C127.4,130.3,128.6,130.3,129.7,130.2z M126.4,117.8v5.9c1.2,0.1,2.3,0.2,3.3,0.3v-6.2H126.4z
		 M124.8,117.8h-2.8v5.1c0.3,0.1,0.6,0.1,0.9,0.2c0.6,0.1,1.3,0.3,1.9,0.4V117.8z M120.5,113.9h-3v2.3h3V113.9z M115.8,113.9H113
		v2.3h2.8V113.9z M111.4,113.9h-3.3v2.3h3.3V113.9z M103,117.8v3.8l0.1,0c0,0,1.3,0,3.4,0.1v-3.9H103z M101.4,117.8h-2.4v3.5
		l2.4,0.2V117.8z M98.9,122.9v4.5c0.7,0,1.6,0,2.4,0.1v-4.7C100.6,122.8,99.7,122.8,98.9,122.9z M97.6,123c-0.9,0.1-1.7,0.2-2.4,0.3
		v3.9c0.8,0.1,1.6,0.1,2.4,0.1V123z M95.1,128.7v4.2c0.8,0,1.6,0.1,2.4,0.1v-4.2C96.6,128.8,95.8,128.8,95.1,128.7z M95.2,140.8
		c0.8,0,1.7,0,2.5,0c-0.1-0.1-0.1-0.3-0.1-0.5V135c-0.8,0-1.6,0-2.4,0v4.3c0,0.1-0.1,0.1-0.1,0.2C95.1,140,95.1,140.4,95.2,140.8z
		 M99.3,140.7c0.8,0,1.5,0,2.1,0v-5.8c-0.8,0-1.6,0.1-2.4,0.1v3C98.9,138.6,99.1,139.6,99.3,140.7z M105.9,134.8
		c-0.8,0-1.8,0-2.9,0.1v2.5C103.7,136.1,104.8,135.3,105.9,134.8z M110.6,134.8c0.3,0.2,0.6,0.4,0.8,0.7v-0.6
		C111.1,134.8,110.8,134.8,110.6,134.8z M112.4,137.2c0.3,1.1,0.8,2.1,1.5,3c0.5,0,1.2,0,1.9,0v-4.6c-1.1-0.2-2.1-0.4-2.8-0.5v1.3
		C113,136.8,112.7,137,112.4,137.2z M115.4,141.8c0.1,0.1,0.2,0.2,0.4,0.3v-0.3C115.7,141.9,115.6,141.9,115.4,141.8z M117.2,143.2
		c1.1,0.6,2.2,1.1,3.3,1.4c0-0.1-0.1-0.2-0.1-0.4v-2c-1.1,0-2.1-0.1-3-0.2v0.5C117.4,142.8,117.4,143,117.2,143.2z M121.9,144.8
		c0.6,0.1,1.1,0.1,1.6,0.1c0.4,0,1-0.1,1.5-0.3c-0.1-0.2-0.2-0.4-0.2-0.7v-1.7c-0.5,0-1,0-1.5,0c-0.4,0-0.8,0-1.3,0v1.9
		C122.1,144.4,122,144.6,121.9,144.8z M126.4,144.1c1-0.4,2.1-1.1,3.1-1.9c-0.7,0-1.7,0-3.1,0.1v1.7
		C126.4,143.9,126.4,144,126.4,144.1z M131.4,140.2c0.6-0.8,1.1-1.6,1.6-2.6c-0.4,0-1,0-1.6,0V140.2z M134.3,132.4
		c-0.6,0-1.6-0.1-3-0.2v3.1c1.1,0,1.9-0.1,2.4-0.1C134.1,134.4,134.2,133.5,134.3,132.4z M134,126c-0.6-0.1-1.4-0.2-2.6-0.2v4.4
		c1.3-0.1,2.5-0.1,3.1-0.2C134.4,128.6,134.3,127.2,134,126z M133.5,124.1c-0.5-1.7-1.2-3.2-2.2-4.6v4.6
		C132.3,124.1,133,124.1,133.5,124.1z M128.6,116.2c-0.7-0.6-1.4-1.2-2.1-1.8v1.8H128.6z M122.3,112.3c-0.1,0-0.2,0-0.2-0.1v0.1
		H122.3z M120.5,111.7c-1-0.3-2-0.5-3.1-0.6c0,0.1,0,0.1,0,0.2v1h3V111.7z M115.9,110.8c-0.1,0-0.1,0-0.1,0c-0.9-0.1-1.9,0-2.8,0
		v1.4h2.8v-1C115.8,111.1,115.9,111,115.9,110.8z M111.4,111c-1.1,0.2-2.2,0.4-3.3,0.8v0.5h3.3V111z M101.4,115.2
		c-0.5,0.3-0.9,0.7-1.3,1h1.3V115.2z M95.2,121l2.3,0.2v-2.7C96.7,119.2,96,120.1,95.2,121z M91.1,126.9c0.8,0.1,1.7,0.2,2.7,0.3
		v-3.6c-0.2,0-0.4,0.1-0.6,0.1C92.4,124.7,91.7,125.8,91.1,126.9z M88.2,132.9l1-0.3c0,0,0,0,0.1,0v-2.5
		C88.8,131.1,88.5,132,88.2,132.9z M90.8,141c0.5-0.1,1.1-0.2,1.7-0.2c0.4,0,0.8,0,1.3,0c0-0.1,0-0.1,0-0.2
		c-0.1-0.7-0.1-1.1-0.1-1.1l0.1,0c0,0,0,0,0,0c0,0,0,0,0,0v-0.1c-0.1-1.3-0.1-3.1-0.1-4.3c-1.1,0-2.1,0.1-3,0.2v4.1l0.1,0
		C90.7,139.9,90.8,140.4,90.8,141z M91.1,143.5c1.5,10.7,8.2,18.5,16.1,23.8c8.9,6,23.2,2.3,23.2,2.3c-9.6,0.6-17-1.9-17-1.9
		c-14-3.4-18.2-19.3-19.3-25.6c-0.4,0.1-0.7,0.2-1.2,0.5C92.4,142.9,91.8,143.2,91.1,143.5z M154.5,151.7c0,0-3.7,4.4-7.1,7
		c-3.4,2.6-16.6,11.2-31.6,5.4c-9.3-3.6-14-11.9-16.2-17.7c-0.3-0.4-1.1-2.4-1.6-4.3c-1.3-0.1-2.2-0.1-2.8-0.2
		c1.9,13.2,11.6,26.4,30.6,26.3C146.2,168.2,154.5,151.7,154.5,151.7z M157.6,130.1c-0.3,16.8-11.7,31-28.5,31.7
		c-16.8,0.7-25.5-13-26.7-18.9c0,0,0-0.1,0-0.1c-0.6-0.2-1.5-0.4-2.8-0.5c0.4,2.3,1.1,4.7,1.6,6c5,9.7,16.5,16.6,24.8,16.7
		c10.5,0.1,12.6-3.2,23.3-10.2C160,147.8,157.6,130.1,157.6,130.1z M184.7,122.4c0.3-12.8-8-31.5-18.6-47.7
		c-10.6-16.2-12.8-24.6-12.9-30.3c-0.1-5.6,4.5-20.8,10.7-19.5c-0.3-0.5-0.7-1.1-1-1.8c-0.9-1.7-1.4-0.9-2.4,0.1
		c-1,1.1-1.6,1.6-2,0.5c-0.5-1.1,1.3-2.8,0.9-3.3c-0.3-0.5-1.4,0.8-2.5,2.4c-1.1,1.6-1.1,2.4-1.7,2.5c-0.6,0.2,0.2-1,0.6-2.5
		c0.5-1.6,0.9-2.5,1.9-3.8c0.9-1.3-1.1-0.8-2.5,0c-1.4,0.8-2.5,3.3-3.1,2.7c-0.6-0.6,1.6-3.8,1.1-3.8c-0.5,0-2.2,1.9-3.2,2.8
		c-0.9,0.9,0.3,1.4,0.8,2.7c0.5,1.3-6,8.2-7.4,15.6c-1,5.4,1.9,14.4,3.5,18.8c0.6,0.6,1.1,1.2,1.4,1.5c1.4,1.9-0.3,7.2,2.4,9.6
		c2.7,2.4,1.1,5.8,1.1,5.8l-1.6-0.3L149,75l0.2-2.1c0,0-2.5,1.1-2.5,0.6c0-0.5,0.6-2,0.6-3.2c0-1.1,0-3.5-0.2-6.3
		c-0.2-2.8-1.7-3.1-3.9-8c-1.3-2.8-5.2-3.7-8.3-4c-2,0.2-8.1,0.9-8.3,3.4c-0.4,2.9,5.1,5.7,5.1,5.7s-3.3-0.4-5.1-1.2
		c-1.8-0.8-5.2-4.9-8.8-5.5c-3.5-0.6-6.6,1.7-8.9,2.6c-2.3,0.8-6.6,0.1-6.6,0.1c-2.1,3.4-0.1,13,2.3,17.5c2.4,4.5,2.4,0.6,5.6,3.8
		c3.2,3.2,0,4.7,0.2,3.9c0.3-0.8,0-1.5-0.5-1.3c-0.5,0.1-1.3,1.3-2.2,3.3c-0.8,1.9,0.7,2.8,1.5,3.6c0.5,0.6,1.8,3.5,2.5,5.1
		c1.5-0.3,2.9-0.5,4.3-0.5c10.5,0,29.2,5.1,34.5,21c3.9,2.7,10.4,10.6,9,25.2c-1.6,15.9-11.5,25.2-24.9,30.5
		c-13.4,5.3-26.6,3.5-36-6.7c-5.9-6.4-8.1-13.9-8.9-18.6c-0.7,0.3-1.4,0.5-1.7,0.6c1.9,8.5,7.6,23.9,21.4,28.8
		c16.7,5.9,38.2,3.6,50.5-10.1c12.3-13.8,15.4-23.9,14.9-40.4c-0.6-16.5-13.4-35.7-14.9-37.5c-1.5-1.8-2.5-3.8-2.5-3.8
		s-0.6-0.8,0.2-0.7c0.8,0.1,2.1-0.1,5.8,5.9c3.6,6,13.6,24.2,13.3,35.8c-0.3,11.6-2.1,26.8-11.9,37.6c-9.8,10.8-22.3,17.7-35.7,17.7
		c-13.4,0-29.2-4.2-37-17.9c-3-5.4-4.6-9.9-5.3-13.4c0.5,5.7,1.9,10.5,2.8,12.3c1.1,2.1,4.2,6.8,6.6,10.4
		c15.3,14.3,36.1,11.2,36.1,11.2C175.4,176.9,184.4,135.2,184.7,122.4z"/>
	<path class="st0" d="M151.4,30.9c0.3-0.3,1.5-1.6,2-2.5c0.4-0.8,0.3-1.1,0-1.4c-0.3-0.3-1.8,1.6-1.8,1.6s-0.3,0.7-0.5,1.2
		C150.8,30.2,151,31.2,151.4,30.9z"/>
	<path class="st0" d="M149.4,35.5c0.2-0.5,0.7-1.1,1.1-1.7c0.4-0.6,0.1-1.7-0.4-2.1c-0.5-0.5-0.6,1.5-0.6,1.5s-0.5,0.5-0.7,0.9
		c-0.2,0.4-0.2,1.5-0.1,2.2C148.8,36.9,149.2,36.1,149.4,35.5z"/>
	<path class="st0" d="M148.5,41.3c0.8-0.1,0.2-1.2,0.1-1.6c-0.1-0.4-0.1-1.6-0.4-1.6c-0.3,0-0.2,1.3-0.4,1.5
		C147.8,39.6,147.7,41.4,148.5,41.3z"/>
	<path class="st0" d="M149,46.2c-0.1-1.1-0.2-0.8-0.7-0.5c-0.4,0.2-0.3,1.3-0.2,1.7c0,0,0.2,1.4,0.8,1.5
		C149.4,48.9,149,47.3,149,46.2z"/>
	<path class="st0" d="M150.5,54.5c0-0.5-0.8-2-1.1-2.6c-0.4-0.5-0.6,0.5-0.6,0.5s0.4,1.1,0.5,2c0.2,0.9,0.7,2,1.4,1.8
		C151.2,56.1,150.5,55.1,150.5,54.5z"/>
	<path class="st0" d="M153.2,62.9c0.5,0-0.2-1.4-0.8-2.7c-0.7-1.3-1.2-1.8-1.6-1.8c-0.4,0,0.1,1.4,0.1,1.4l1.1,2.3
		C152.1,62,152.7,62.9,153.2,62.9z"/>
	<path class="st0" d="M154.4,66.7c0,0,1.6,2.2,2.1,2.1c0.5-0.1,0.5-0.5,0.4-1c-0.1-0.4-1-0.9-2.2-2.4c-1.1-1.4-1-1.2-1-0.4
		C153.7,65.9,154.4,66.7,154.4,66.7z"/>
	<path class="st0" d="M132.7,56.7L132.7,56.7C132.3,56.5,132.7,56.7,132.7,56.7z"/>
	<path class="st0" d="M158,77.2c-1.3-0.6-1.8-1.9-1.8-1.9c0-0.1,0.6-2.3-0.1-3.1c-0.7-0.8-1.2-1.3-1.1,0.1c0.1,1.4,0.1,3.3-0.5,3.6
		c-0.6,0.3-2.1,1.9-4.2,1.5c-2.1-0.4-4.2-1.4-4.7-2.2c-0.6-0.8-0.9-3.4-1.1-5.6c-0.2-2.2-0.7-6.3-1.6-7.8c-0.8-1.5-4-4-6.2-4.8
		c-2-0.8-3.8-0.4-4-0.3c0.2,0.1,0.5,0.2,1.1,0.4c2,0.8,2.7,0.9,4.6,2.6c2,1.7,3.2,2.6,3.5,3.3c0.3,0.7,0.8,1.6,0.4,1.8
		c-0.4,0.2-1.3-1.2-3.1-2.1c-1.8-0.9-1.5-0.9-2.8-1.4c-1.2-0.6-2.6-1.7-2.9-1.9c-0.3-0.2-1.3-0.7-0.7,0.3c0.7,0.9,4,2.7,5.7,4.4
		c1.6,1.7,2.4,2.3,3.1,3.1c0.7,0.7,1.8,3.3,1.8,4.3c0.1,1.1,0.2,1.9-0.3,1.8c-0.5-0.1-1.4-0.9-3.6-3.1c-2.2-2.3-2-1.8-3.9-3.6
		c-1.9-1.8-3.7-2.9-3.8-2.6c-0.1,0.3-0.1,0.9,1.5,2.4c1.6,1.4,2.6,1.9,4.7,4.3c2.1,2.4,2.1,2.1,3.8,3.7c1.7,1.7,0.8,1.2,2.3,2.6
		c1.5,1.4,2.3,2.6,2.9,3.5c0.6,1,0.7,1.7,1.1,1.7c0.4,0.1,0.3-0.1,0.1-0.6c-0.2-0.6,0.9,0.1-1-2.1c-1.9-2.2-2.2-3-2.2-3
		s2.1,1.3,2.6,2c0.6,0.7,1,0.8,2.1,2.1c1.1,1.3,1.8,1.5,1.8,1.9c0.1,0.4-0.7,0.4-0.2,1.5c0.4,1.1,4.4,4.9,6.1,8.3
		c1.7,3.4,10,16,11.8,28.5c1.8,12.5,1,17.9-1.4,23.1c-2.4,5.1-13.3,24.3-33.2,27.5c0,0-3.5,0.7-4.1,0.8c-0.6,0.1-1.3,0.5,0.4,0.4
		c1.7-0.1,18.7-1.9,27-12.1c8.3-10.2,14-16.2,14-32.9c0-16.6-14.6-37.5-15.8-39.1c-1.2-1.6-3.8-4.9-3.8-4.9s1-1-0.1-2
		c-1.1-1-1.9-2.2-1-2.4c0.9-0.2,1.8,0.2,2.3,1c0.5,0.9,2.1,1.3,2.1,0.9c0-0.3-1.5-1.9-1.4-2.6c0.1-0.8,1.7-1.7,2.1-1.3
		c0.4,0.4,0.3,1.9,1.1,1.7C158.3,78.9,159.3,77.8,158,77.2z"/>
	<path class="st0" d="M131.6,40c0,0,0.6-0.8,0.2-0.8C131.4,39.1,130.6,39.7,131.6,40z"/>
	<path class="st0" d="M131,33.2c-0.1-0.6-0.5-0.7-0.8-0.4c-0.3,0.3,0.2,2.5,0.2,2.5s0.5,0.1,0.7-0.5C131.3,34.2,131.1,33.9,131,33.2
		z"/>
	<path class="st0" d="M130.7,30.2c0,0,0.7-0.4,0.6-0.8c0-0.5,0.3-1,0.4-1.8c0.1-0.8,0.3-0.9-0.2-1.4c-0.5-0.5-0.8-0.2-1.2,1.7
		C130,29.8,130.7,30.2,130.7,30.2z"/>
	<path class="st0" d="M134.1,21.3c-0.5-0.8-0.5-0.3-1-0.2c-0.6,0.1-0.9,3.4-0.9,3.4c0.2,1,1.2,0,1.2-0.5c0-0.4,0.4-1.2,0.7-1.6
		C134.3,22.2,134.6,22.1,134.1,21.3z"/>
	<path class="st0" d="M137.3,18.5c0.5-0.6,0.7-0.9,0.9-1.4c0.2-0.5-0.3-0.8-0.8-0.6c-0.5,0.2-1.8,2.8-1.8,2.8
		C135.8,20.9,136.9,19.1,137.3,18.5z"/>
	<path class="st0" d="M140.5,16.2c0.3,0,0.8-0.6,1.1-1.1c0.3-0.6,1.1-0.6,1.7-0.8c0.6-0.1,0.8-0.5,0.4-0.8c-0.4-0.3-0.9-0.2-1.6,0
		c-0.8,0.2-1.9,1.9-2,2C140,15.5,140.2,16.2,140.5,16.2z"/>
	<path class="st0" d="M144.5,9.7c0,0,0.3,0,0.6-0.2c0.3-0.2,0.1-0.7,0.5-1c0.4-0.3,0.5,0,1.1-0.4c0.6-0.4,0-0.6-0.3-0.8
		c-0.3-0.2-2,0.6-2.3,1.2C143.7,9,144.2,9.5,144.5,9.7z"/>
	<path class="st0" d="M145.8,12.1c-0.5,0.4,0.2,1.1,0.5,1.2c0.3,0.1,0.4-0.2,1.4-0.5c1-0.3,0.8-0.6,1-1c0.1-0.3-0.3-0.8-1.5-0.5
		C146,11.8,145.8,12.1,145.8,12.1z"/>
	<path class="st0" d="M152.5,12.3c0.7,0.1,0.8-0.7,1.7-0.7c0.9,0,0.9,0.9,1.4,0.9c0.5,0,0.6-0.9,0.2-1.3c-0.4-0.4-3.2-0.5-3.7-0.2
		C151.2,11.4,151.8,12.2,152.5,12.3z"/>
	<path class="st0" d="M151.1,7.6c0,0,1.6,0.3,1.1-0.5c-0.5-0.9,0.3-0.9-0.8-0.8C150.4,6.3,149.8,7.8,151.1,7.6z"/>
	<path class="st0" d="M156.2,8.8c0.2,0.2,0.1-0.6,0.7-0.9c0.6-0.3,1.6-1.4,0.8-1.3c-0.8,0.1-1.7,0.5-1.7,0.5l-0.7-0.5
		c0,0-0.7,0.3-0.3,0.8C155.4,7.9,156,8.6,156.2,8.8z"/>
	<path class="st0" d="M157.6,11.5c0,0-1.3,0.8-0.2,1.1c1.1,0.3,2.2,0.5,2.6,0.8c0.4,0.2,1.1-0.2,0.5-0.8
		C159.8,12,158.8,11.5,157.6,11.5z"/>
	<path class="st0" d="M163.2,9.6c1.1,1,1.6,1.4,1.9,1.2c0.3-0.3,0.6-1.4-0.5-1.9c-1.1-0.5-0.6-0.6-2-1.1c-1.3-0.5-3.2-0.8-1.9,0.6
		C160.7,8.4,162.1,8.6,163.2,9.6z"/>
	<path class="st0" d="M168.5,13.1c0.3,0.5,0.7,0.7,1.4,1.1c0.8,0.3,0.1-0.9-0.3-1.6c-0.4-0.7-1.6-1.2-2.6-1.4
		c-1-0.2-0.1,0.7-0.1,0.7S168.1,12.6,168.5,13.1z"/>
	<path class="st0" d="M173.1,16.5c0.6,0.5,0.9,0.8,1.2,0.3c0.3-0.4-0.3-0.6-0.7-1.1c-0.4-0.5-1-1.5-1.9-1.8
		c-0.9-0.3-0.3,0.9-0.3,0.9S172.5,16,173.1,16.5z"/>
	<path class="st0" d="M169.3,17c0,0-0.9-0.2-0.5,0.6c0.4,0.8,0.8,1.6,1.6,2.3c0.9,0.7,1,1,1.3,1.2c0.3,0.2,1.2,0.6,0.8-0.2
		c-0.4-0.8-0.9-1.6-1.7-2.4C170,17.5,169.3,17,169.3,17z"/>
	<path class="st0" d="M165,18.8c0.6,0.9,2.3,2.6,2.7,3c0.5,0.4,1.3,0.7,1.5,0.6c0.2-0.1-0.8-1.4-1.7-2.4c-0.9-1-1.2-1.3-1.2-1.3
		l-0.5-0.6C165.8,18.2,164.5,17.8,165,18.8z"/>
	<path class="st0" d="M162.7,13.6c-0.5,0.7-0.1,1.4,0.1,1.7c0.2,0.3,1.6,0.9,1.6,0.9l1.3,0.5c0,0,0.2-1.2-0.8-1.9
		C163.9,14.2,163.2,12.9,162.7,13.6z"/>
	<path class="st0" d="M166.4,127.9c0.1-29.2-27.3-48.7-31.6-52.9c-4.3-4.2-4.2-4.2-6.5-5.7c-2.4-1.6-4.8-2.7-6.4-4.1
		c-1.6-1.4-6.8-3.4-5.6-3.9c1.1-0.5,5.4,0.7,7.4,2.3c2,1.6,1.6,2.4,2.8,2.8c1.2,0.4,2.9,0.2,3.7,1.1c0.8,0.9,2.6,3.8,3.4,3.9
		c0.8,0.1,2.3-0.6,1.2-1.1c-1-0.6-0.2-0.1-2.1-2c-1.9-1.9-2.3-1.5-3.8-2.6c-1.6-1.1-2.6-3.3-6.3-4.4c-3.7-1.1-5-2.1-7.3-1.2
		c-2.4,0.9-2.7,1-4.5,1c-1.8,0-3.7-1.7-3.7,0.7c0,2.4-0.6,2.4-0.1,5.9c0.5,3.5,1.5,4.8,2.8,6.5c1.3,1.7-0.8,0.9,0.3,2.2
		c1.1,1.3,1.6,0,2-0.2c0.5-0.2,1,0.5,1,0.5s1.1-1.3,0.7-1.6c-0.4-0.4-4.7-2.8-5.1-4.3c-0.4-1.5-0.5-1.8-0.3-1.8
		c0.2,0,0.1-0.3,1.8,0.9c1.7,1.2,2.4,0.7,2.4,0.7l-1.7-2.2c0,0-2.7-2.3-2.6-2.9c0.1-0.6,0.4-1.3,1.6-0.5c1.1,0.7,2.4,1.4,2.9,1.8
		c0.4,0.4,1.1,0.7,1.1,0.5c0-0.2,0.4-2.3-1.1-3c-1.6-0.7-2.6-1-2.7-1.3c-0.1-0.2,1.4-1,1.8-1c0.4,0,1.3-0.4,2.1,0.4
		c0.8,0.8,2.3,1.1,2.2,1.7c-0.1,0.6-0.4,1.2-0.4,1.2l2.7-0.1c0,0,1.2,1.3,2.3,1.9c1.1,0.7,2.7,0.7,4.4,1.8c1.7,1.1,6.6,3.6,12.3,9.4
		c5.8,5.8,25.1,22.6,27.7,48.5c2.6,25.9-18.2,37.5-18.2,37.5S166.2,157,166.4,127.9z"/>
	<path class="st0" d="M116.3,69.6c0.3-0.7-0.4-1.5-1.3-1.5c-0.9,0-0.2,1.4-0.2,1.4S116,70.3,116.3,69.6z"/>
	<path class="st0" d="M120.3,71.6c-0.8-0.5-2.7-2.8-2.7-2.8c-0.4,0-0.6,1.5,0,2.1c0.6,0.7,2,2,3.4,2C122.3,73,121,72.1,120.3,71.6z"
		/>
	<path class="st0" d="M124,73.6c-0.9-0.3-0.9,1-0.6,1.2c0.3,0.2,0.9,0.2,2.1,0.9c1.2,0.7,0.6-0.7,0.2-1.1
		C125.4,74.2,124,73.6,124,73.6z"/>
	<path class="st0" d="M127.9,76.8c-0.7,0,0.2,0.9,0.2,0.9s1.2,1.9,2.3,2.1c1,0.2,0.1-1.1-0.2-1.7C129.8,77.6,128.6,76.8,127.9,76.8z
		"/>
	<path class="st0" d="M162.6,127.9c-3.1-19.2-11.4-28.4-11.4-28.4s0,0-5.1-7c-5.1-7-13.1-12.7-13.9-13.1c-0.8-0.3,0.4,2,0.4,2
		l2.4,2.4c9.9,6.2,20.6,25.3,22.8,30.4c2.1,5.1,4.5,18.4,4.5,18.4L162.6,127.9z"/>
	<path class="st0" d="M116.5,77.3c0.6,0.7,1.8,1.3,1.8,1.3s0.2-1.5-0.4-1.8C117.2,76.5,116,76.6,116.5,77.3z"/>
	<path class="st0" d="M120.9,79.7c0,0,2.6,1.8,3.2,1.5c0.6-0.3-1.6-2.4-2.9-2.4C119.8,78.8,120.9,79.7,120.9,79.7z"/>
	<path class="st0" d="M125.4,82.5l2.3,1.9c0,0,1.2,0.1,1.1-0.6c-0.1-0.7-0.7-1.2-3.1-2C123.4,81.1,125.4,82.5,125.4,82.5z"/>
	<path class="st0" d="M130.3,85.7l1.5,1.5l0.6,0.5c0,0,0.9-0.1,1-0.6c0.1-0.5-2.3-1.8-2.8-2.1C130,84.6,130.3,85.7,130.3,85.7z"/>
	<path class="st0" d="M134.5,88.1l-1.1,0.6c4.2,1.9,16.1,17.1,16.1,17.1C145.2,97.3,134.5,88.1,134.5,88.1z"/>
	<path class="st0" d="M114.3,85.1c-0.8-0.3-0.6,1.1-0.6,1.1l5.5,3.1c0,0,0.1,1.1,0-0.3C119.1,87.5,115.1,85.5,114.3,85.1z"/>
	<path class="st0" d="M116.1,81.3l-1,1.5c0,0,13.4,7,18.9,12.4C134,95.2,126,86.8,116.1,81.3z"/>
	<path class="st0" d="M160.3,78.5c0.9,1.6,13,16.3,15.2,24.6c2.3,8.2,8.1,24.3-2.5,49.7c0,0,7.4-8.3,7.7-32.1
		c0.2-23.8-19.2-43.3-20.1-44.2C159.7,75.6,159.4,76.9,160.3,78.5z"/>
	<path class="st0" d="M158,69.9c-0.6-0.1-0.8,1.3-0.8,1.3s1.1,3.4,1.6,3.4c0.4,0,1.9-0.1,1.9-0.1S158.6,70,158,69.9z"/>
	<path class="st0" d="M10.6,141.2c-0.3-0.2-0.2-0.2-0.8-1.4c-0.5-1.2-1,1.7-1,1.7l0,0.1c-0.4,0.9,0.2,1.5,0.8,1.3
		C10.3,142.7,10.9,141.4,10.6,141.2z"/>
	<path class="st0" d="M16.4,143.1c0.6-0.2,1.3-1.5,0.9-1.7c-0.3-0.2-0.2-0.2-0.8-1.4c-0.6-1.2-1,1.6-1,1.6l0,0.1
		C15.2,142.7,15.8,143.3,16.4,143.1z"/>
	<path class="st0" d="M13.3,147.3c0.6-0.2,1.3-1.5,0.9-1.7c-0.3-0.2-0.2-0.2-0.8-1.4c-0.5-1.2-1,1.6-1,1.6l0,0.1
		C12.1,146.8,12.7,147.4,13.3,147.3z"/>
	<path class="st0" d="M7,148.1c0.6-0.2,1.3-1.5,0.9-1.7c-0.3-0.2-0.2-0.2-0.8-1.4c-0.5-1.2-1,1.7-1,1.7l0,0.1
		C5.8,147.7,6.4,148.3,7,148.1z"/>
	<path class="st0" d="M5.6,153.4c0.8,0,0.7-0.7,0.6-1.3c-0.1-0.6-0.4-1.3-0.8-1.7c-0.5-0.3-0.3,1.1-0.4,1.6l0.1,0.2
		C5,152.2,4.8,153.4,5.6,153.4z"/>
	<path class="st0" d="M11.9,150.5c-0.1-0.7-1.2,0-1.4,0c0,0,0,0.9,0.1,2.3c0,1.4,0.3,1.1,0.6,1.1c0.3,0,0.7-0.4,0.7-1
		C11.8,152.4,12,151.2,11.9,150.5z"/>
	<path class="st0" d="M6.4,158.3c-0.3-0.5-1.5-1-1.4,0.4c0,0,0,1.2,0.7,1.2C6.4,159.8,6.7,158.7,6.4,158.3z"/>
	<path class="st0" d="M10.6,156.2c-0.3,0.3-0.8-0.6-0.3,1.1c0.5,1.7,0.2,3.1,0.7,3.2c0.5,0,0.6-1.4,0.6-2.4
		C11.6,157.1,10.9,155.9,10.6,156.2z"/>
	<path class="st0" d="M7.2,162.2c-1-0.2-1.1,0.4-1.1,0.4c0.1,0.1,0.5,1,0.8,1.6c0.3,0.6,1.1,1.6,1.1,1.6s0.5-1.7,0.3-2.3
		C7.9,163,8.2,162.4,7.2,162.2z"/>
	<path class="st0" d="M9.7,167c-1-0.6-0.5,0.6-0.5,0.6s1,1.3,1.4,1.9c0.4,0.6,0.6-0.7,0.5-0.9C11.2,168.5,10.7,167.7,9.7,167z"/>
	<path class="st0" d="M14.1,171.2c-1-0.2,0,1.1,0,1.1s0.2,0.1,1.1-0.1C15.9,172,15.1,171.3,14.1,171.2z"/>
	<path class="st0" d="M15,166.1c0.4-0.3-0.9-1.8-1.2-2.7c-0.2-0.9-1.3-1.7-1.7-1.6c-0.5,0.1-0.3,1.4-0.3,1.4s0.9,1.1,1.4,2.2
		C13.7,166.5,14.5,166.5,15,166.1z"/>
	<path class="st0" d="M15.1,167c-0.5,0.2,0.8,1.5,1,1.7c0,0,0.6,0.6,0.8,0.9c0.3,0.3,0.5,1,1,1c0.5,0,0.1-1.2-1.1-2.6
		C15.6,166.6,15.7,166.8,15.1,167z"/>
	<path class="st0" d="M21.2,171.1c-1.1-1-1.4-1.2-1.7-0.7c-0.3,0.5,0.9,1.4,0.9,1.4s2.2,2.1,3.4,2.2c1.2,0.1,0.8-0.8,0.6-1
		C24.3,172.7,22.3,172.1,21.2,171.1z"/>
	<path class="st0" d="M39.9,159.6c-0.7-0.2-1.1,1.2-1.1,1.2c-0.4,1-0.3,1.7,0.5,1.5c0.7-0.2,0.8-0.9,1.1-1.4
		C40.6,160.4,40.6,159.9,39.9,159.6z"/>
	<path class="st0" d="M27.6,157.5c-0.8,0.9-0.9,1.6,0,1.7c0.9,0.1,1.3-0.6,1.8-1c0.5-0.4,0.6-1-0.1-1.5
		C28.6,156.2,27.6,157.5,27.6,157.5z"/>
	<path class="st0" d="M30.8,153.9c-0.8,0.9-0.9,1.6,0,1.7c0.9,0.1,1.3-0.6,1.8-1c0.5-0.4,0.6-1-0.1-1.5
		C31.8,152.6,30.8,153.9,30.8,153.9z"/>
	<path class="st0" d="M52.1,153c-0.8,0.9-0.9,1.6,0,1.7c0.9,0.1,1.3-0.6,1.8-1c0.5-0.4,0.6-1-0.1-1.5C53.1,151.7,52.1,153,52.1,153z
		"/>
	<path class="st0" d="M65.4,168.4c-0.8-0.3-1.4,1.3-1.4,1.3c-0.5,1.1-0.4,1.8,0.5,1.6c0.9-0.2,1-1,1.4-1.5
		C66.2,169.3,66.2,168.7,65.4,168.4z"/>
	<path class="st0" d="M64,160.4c-0.8-0.3-1.4,1.3-1.4,1.3c-0.6,1.1-0.4,1.8,0.5,1.6c0.9-0.2,1-1,1.4-1.5
		C64.9,161.3,64.9,160.6,64,160.4z"/>
	<path class="st0" d="M66.6,157.5c0.4-0.5,0.3-1.2-0.5-1.4c-0.8-0.3-1.4,1.3-1.4,1.3c-0.5,1.1-0.4,1.8,0.5,1.6
		C66.2,158.8,66.3,158,66.6,157.5z"/>
	<path class="st0" d="M67.3,163.5c-0.8-0.3-1.4,1.7-1.4,1.7c-0.6,1.5-0.4,2.5,0.5,2.2c0.9-0.3,1.1-1.3,1.4-2
		C68.2,164.8,68.2,163.9,67.3,163.5z"/>
	<path class="st0" d="M80,134c-0.8-0.3-1.4,1.7-1.4,1.7c-0.6,1.5-0.4,2.5,0.5,2.2c0.9-0.3,1.1-1.3,1.4-2
		C80.9,135.2,80.8,134.3,80,134z"/>
	<path class="st0" d="M69.6,158.5c-0.8-0.3-1.4,1.7-1.4,1.7c-0.6,1.5-0.4,2.5,0.5,2.2c0.9-0.3,1-1.4,1.4-2
		C70.4,159.7,70.4,158.8,69.6,158.5z"/>
	<path class="st0" d="M70.8,157.1c0.9-0.4,1.1-2.2,1.5-3.3c0.4-1.1,0.4-2.5-0.4-3c-0.8-0.5-1.5,2.8-1.5,2.8
		C69.8,155.9,69.9,157.5,70.8,157.1z"/>
	<path class="st0" d="M73.3,147.6c-0.6,2.3-0.5,3.9,0.4,3.5c0.9-0.4,1.1-2.2,1.5-3.3c0.4-1.1,0.4-2.5-0.4-3
		C74,144.3,73.3,147.6,73.3,147.6z"/>
	<path class="st0" d="M75.8,141.4c-0.6,1.8-0.5,3,0.5,2.7c0.9-0.3,1.1-1.6,1.4-2.5c0.4-0.8,0.3-1.9-0.5-2.3
		C76.4,138.9,75.8,141.4,75.8,141.4z"/>
	<path class="st0" d="M63.5,173.3c-0.8-0.3-1.4,1.3-1.4,1.3c-0.5,1.1-0.4,1.8,0.5,1.6c0.9-0.2,1-1,1.4-1.5
		C64.4,174.2,64.4,173.6,63.5,173.3z"/>
	<path class="st0" d="M69.3,170.3c-0.8-0.2-1.4,1.3-1.4,1.3c-0.5,1.1-0.4,1.8,0.5,1.7c0.9-0.2,1-1,1.4-1.5
		C70.1,171.3,70.1,170.6,69.3,170.3z"/>
	<path class="st0" d="M45.4,152.4c-0.9,1.1-1,1.9-0.1,2c0.9,0.1,1.3-0.8,1.8-1.3c0.5-0.5,0.7-1.2,0-1.7
		C46.5,150.9,45.4,152.4,45.4,152.4z"/>
	<path class="st0" d="M34.4,158.7c-0.7-0.2-1.1,1.2-1.1,1.2c-0.4,1-0.3,1.7,0.5,1.5c0.7-0.2,0.8-0.9,1.1-1.4
		C35.1,159.5,35.1,158.9,34.4,158.7z"/>
	<path class="st0" d="M41.5,150.4c-0.7-0.2-1.1,1.2-1.1,1.2c-0.4,1-0.3,1.7,0.5,1.5c0.7-0.2,0.8-0.9,1.1-1.4
		C42.2,151.2,42.1,150.6,41.5,150.4z"/>
	<path class="st0" d="M38.5,153.8c-1-0.3-1.6,1.7-1.6,1.7c-0.6,1.4-0.4,2.4,0.7,2.1c1.1-0.3,1.2-1.3,1.6-2
		C39.6,154.9,39.5,154,38.5,153.8z"/>
	<path class="st0" d="M43.7,154.8c-1-0.3-1.6,1.7-1.6,1.7c-0.6,1.4-0.4,2.4,0.7,2.1c1.1-0.3,1.2-1.3,1.6-2
		C44.8,156,44.7,155.1,43.7,154.8z"/>
	<path class="st0" d="M50.6,147.5c-0.7,0.9-1.7,1.7-1.7,2.4c0,0.7,1.5,0.4,1.5,0.4s1-1.9,1.1-2.1C51.6,147.9,51.3,146.7,50.6,147.5z
		"/>
	<path class="st0" d="M55.5,148.1l-0.7,2.4c0,0,0.5,1.3,1.1,1.3c0.7,0,0.7-3.4,0.7-4.4C56.6,146.4,55.5,148.1,55.5,148.1z"/>
	<path class="st0" d="M53.4,145.5c0.1-0.9-0.3-1.2-0.9-1.5c-0.5-0.3-0.7,1.8-0.7,1.8C52.6,147.5,53.3,146.5,53.4,145.5z"/>
	<path class="st0" d="M73.9,172.2c-0.5-0.3-0.7,1.8-0.7,1.8c0.7,1.6,1.5,0.5,1.5-0.4C74.8,172.8,74.4,172.5,73.9,172.2z"/>
	<path class="st0" d="M88,171c-0.5-0.3-0.7,1.9-0.7,1.9c0.7,1.6,1.5,0.5,1.5-0.4C88.9,171.5,88.5,171.3,88,171z"/>
	<path class="st0" d="M58.8,143c-0.3,0.8-2.4,2.7-2.4,2.7c-0.5,1.2,1.2,0.3,2.2-0.3c1-0.5,0.9-1.5,0.8-2.8
		C59.2,141.4,59.1,142.2,58.8,143z"/>
	<path class="st0" d="M61.4,137.8c-0.5,0.1-1.5,2.1-1.5,2.1s0.1,0.7,0.5,0.7c0.4-0.1,0.8-0.5,1.6-2
		C62.8,137.1,61.9,137.7,61.4,137.8z"/>
	<path class="st0" d="M78.9,156.6c-0.6,0.5-0.2,3.5-0.2,3.5s0.6,0.8,1,0.4c0.4-0.4,0.5-1.2,0.4-3.4
		C80.1,154.9,79.5,156.2,78.9,156.6z"/>
	<path class="st0" d="M77.3,162.4c-0.6,0.5-0.2,3.5-0.2,3.5s0.6,0.8,1,0.4c0.4-0.4,0.5-1.2,0.4-3.4
		C78.4,160.6,77.8,161.9,77.3,162.4z"/>
	<path class="st0" d="M82.3,162.9c-0.8,0.6-0.1,5.1-0.1,5.1s0.9,1.2,1.4,0.7c0.6-0.5,0.7-1.7,0.4-5
		C83.8,160.4,83.1,162.3,82.3,162.9z"/>
	<path class="st0" d="M88.1,168.3c0.4-0.4,0.5-1.2,0.3-3.6c-0.2-2.4-0.7-1-1.3-0.6c-0.6,0.5-0.1,3.7-0.1,3.7S87.7,168.6,88.1,168.3z
		"/>
	<path class="st0" d="M83.8,157.7c-0.4,0.3-0.1,2.5-0.1,2.5s0.4,0.6,0.7,0.3c0.3-0.3,0.4-0.9,0.3-2.5
		C84.6,156.4,84.2,157.4,83.8,157.7z"/>
	<path class="st0" d="M75.3,168.4c-0.4,0.3-0.1,2.5-0.1,2.5s0.4,0.6,0.7,0.3c0.3-0.3,0.4-0.9,0.3-2.5
		C76.1,167.2,75.7,168.1,75.3,168.4z"/>
	<path class="st0" d="M64.1,136.1c0.4-0.6,0.9-0.7,1.8-1.7c0.9-1-0.3-1-1.3-0.4c-1.1,0.5-1.5,1.8-1.5,1.8S63.7,136.7,64.1,136.1z"/>
	<path class="st0" d="M62.2,152.9c0,0,6.9-15.2,9.9-20.1c3-4.8,11.8-17.5,15.2-19.7l-1.2-0.6c0,0-8.9,7-15.3,19.6
		c-6.4,12.6-9.6,18.4-9.6,18.4c0.1,0.3,0.7,1.6,0.7,1.6L62.2,152.9z"/>
	<path class="st0" d="M88.7,111.7c1-2.1,7.1-6,7.1-6s0.1-0.8-0.4-0.8c-0.6,0-6.9,4.7-7.6,5.4C87.1,111.1,88.7,111.7,88.7,111.7z"/>
	<path class="st0" d="M99.9,103.6c0,0-0.2-0.7-0.7-0.7c-0.5,0-2.7,1.2-2.7,1.2l0.6,1L99.9,103.6z"/>
	<polygon class="st0" points="104.7,102 104.4,100.9 101.4,101.8 101.9,102.9 	"/>
	<polygon class="st0" points="86.2,118.6 88.6,116.2 87.9,115.6 85.7,118.2 	"/>
	<polygon class="st0" points="90.9,114.2 91.6,115.2 93.9,113.1 92.8,112.1 	"/>
	<polygon class="st0" points="99.7,108.7 98.8,107.6 96.3,110.1 97.2,110.9 	"/>
	<path class="st0" d="M101.8,107l0.4,1.1l3-1.4c0,0,0.2-1.5-0.8-1.6C103.5,105.1,101.8,107,101.8,107z"/>
	<polygon class="st0" points="111.1,99.1 107.4,99.8 107.4,101.5 111.3,100.7 	"/>
	<polygon class="st0" points="108.5,106 112.5,105.2 112.2,103.9 108.3,104.6 	"/>
	<path class="st0" d="M114.4,103.5l-0.1,1.6l3,0c0,0,0.3-1.1-0.1-1.5C116.9,103.3,114.4,103.5,114.4,103.5z"/>
	<path class="st0" d="M118.9,105.2c0,0,3.6,0.6,3.9,0.9l-0.1-1.5l-3.8-0.4L118.9,105.2z"/>
	<polygon class="st0" points="124.4,106.3 127.2,108.2 127.2,105.9 124.4,105.4 	"/>
	<path class="st0" d="M129.1,107.2l-0.3,0.7v1.4c0,0,8.2,6.6,8.5,15.2C137.3,124.6,138.6,112.3,129.1,107.2z"/>
	<path class="st0" d="M135.1,110.5c0,0,6.4,1.9,5.8,15.8c-0.7,13.9-10.1,21.4-16.2,21.4c-6.2,0-9.7-3.6-9.7-3.6
		c-0.6-0.4-1.3-0.2,1.7,2.5c3,2.6,7.5,2.2,7.5,2.2c10.7-0.1,18.6-12.6,18.6-23.8c0-11.2-6.2-15.2-6.7-15.2
		C135.6,109.8,135.1,110.5,135.1,110.5z"/>
	<path class="st0" d="M135.5,108.2c0,0-2.3-3-3.5-3.5l-0.4,0.8c0,0,3,3.1,3.2,3.8L135.5,108.2z"/>
	<polygon class="st0" points="131.1,103.9 128.3,102 127.9,103.1 130.8,104.8 	"/>
	<path class="st0" d="M126.7,102.8l0.3-1.2c0,0-1.2-1.6-3.8-1.4l-0.1,1.6C123.1,101.7,126,101.6,126.7,102.8z"/>
	<polygon class="st0" points="116.6,99.1 113.6,98.6 113.3,100 116.6,100.1 	"/>
	<polygon class="st0" points="121.7,99.8 118.5,99 118.4,100.5 121.5,100.8 	"/>
	<path class="st0" d="M80.7,124.6c-1.6,1.3-9.9,15.4-10.5,17.6c-0.6,2.2-3,6.3-3.7,8.3c-0.7,2-1.3,4.3,0,3.4c0,0,1.8-3.3,4.6-9.1
		c2.7-5.8,9.1-18.5,10-19.1C81.8,125.1,82.3,123.3,80.7,124.6z"/>
	<path class="st0" d="M83.8,128.9c0.5-1.5-0.4-1.2-1.2-0.7c-0.8,0.5-1.2,3.3-0.9,3.2C82.8,131.3,83.3,130.4,83.8,128.9z"/>
	<path class="st0" d="M87.1,123.7c-0.7-0.7-1.5,0.1-2.1,1.3c-0.6,1.2,0.7,1.2,0.7,1.2S87.8,124.4,87.1,123.7z"/>
	<path class="st0" d="M83.3,120.2c-0.7,0.4-0.9,1.7-1.5,2.4c-0.6,0.7,1.4,0.5,1.4,0.5s0.7-2,1.2-2.9C84.9,119.3,84,119.8,83.3,120.2
		z"/>
	<path class="st0" d="M71.8,164.4c-0.7-0.2-1.5,3.3-1.5,3.3s0.7,0.9,1.3,0.8c0.7-0.1,0.2-0.8,0.8-2.1
		C73,165.2,72.5,164.6,71.8,164.4z"/>
	<path class="st0" d="M74.1,158.6c-0.7,0.3-1.7,3.3-1.7,3.7c0,0,0.2,0.3,1.1,0.3c0.8,0.1,1.1-1.8,1.3-3.1
		C75,158.3,74.8,158.3,74.1,158.6z"/>
	<path class="st0" d="M76.8,153.4c-0.8-0.5-0.4-0.9-0.9,0.8c-0.5,1.7-0.4,3.3,0.4,2.7C76.3,156.9,77.6,153.9,76.8,153.4z"/>
	<path class="st0" d="M77.5,148.5c-0.3,0.8-0.6,3.1,0,3.1c1.2,0,1.1-0.4,1.3-2.1C79.1,147.9,77.8,147.7,77.5,148.5z"/>
	<path class="st0" d="M80.7,144.7c0.2-1,0.6-2.7-0.4-2.2c-1,0.4-0.7,3.8-0.7,3.8C79.6,148,80.5,145.7,80.7,144.7z"/>
	<path class="st0" d="M81.3,151.1c-0.6-0.1-1,1.5-1,1.5s-0.2,1.1-0.2,1.6c0,0.5,1.2,0.4,1.7-0.7C82.3,152.3,81.9,151.2,81.3,151.1z"
		/>
</g>
</svg>
