<?xml version="1.0" encoding="utf-8"?>
<!-- Generator: Adobe Illustrator 21.1.0, SVG Export Plug-In . SVG Version: 6.00 Build 0)  -->
<svg version="1.1" id="Layer_1" xmlns="http://www.w3.org/2000/svg" xmlns:xlink="http://www.w3.org/1999/xlink" x="0px" y="0px"
	 width="125.1px" height="126.4px" viewBox="0 0 125.1 126.4" style="enable-background:new 0 0 125.1 126.4;" xml:space="preserve"
	>
<style type="text/css">
	.st0{fill:#808080;}
	.st1{fill:#BDBBBB;}
	.st2{fill:#58595B;}
	.st3{fill:#989898;}
	.st4{fill:#404041;}
	.st5{fill:#CCCCCC;}
	.st6{fill:#8D734A;}
</style>
<g>
	<g>
		<g>
			<g>
				<path class="st0" d="M92.1,51.2H32.9c-0.2,0-0.4-0.2-0.4-0.4V6.9c0-0.2,0.2-0.4,0.4-0.4h59.2c0.2,0,0.4,0.2,0.4,0.4v43.9
					C92.5,51,92.3,51.2,92.1,51.2z M33.3,50.4h58.4V7.3H33.3V50.4z"/>
			</g>
		</g>
		<g>
			<g>
				<path class="st1" d="M72.4,58.8H52.6c-0.2,0-0.4-0.2-0.4-0.4v-4.7c0-0.2,0.2-0.4,0.4-0.4h19.8c0.2,0,0.4,0.2,0.4,0.4v4.7
					C72.8,58.6,72.6,58.8,72.4,58.8z M53,58h19v-3.9H53V58z"/>
			</g>
		</g>
		<g>
			<g>
				<path class="st1" d="M100,51.8c-0.1,0-0.2,0-0.3-0.1l-2-2.1c-0.1-0.1-0.1-0.1-0.1-0.2c-5.5-25.4,0-41.7,0-41.8
					c0-0.1,0.1-0.1,0.1-0.2l2-1.7c0.2-0.1,0.4-0.1,0.6,0.1c0.1,0.2,0.1,0.4-0.1,0.6l-1.9,1.6c-0.5,1.4-5.2,17.1,0,41.2l1.9,2
					c0.2,0.2,0.2,0.4,0,0.6C100.2,51.7,100.1,51.8,100,51.8z"/>
			</g>
		</g>
		<g>
			<g>
				<path class="st1" d="M24.8,51.8c-0.1,0-0.2,0-0.3-0.1c-0.2-0.2-0.2-0.4,0-0.6l1.9-2c5.2-24,0.5-39.8,0-41.2l-1.9-1.6
					c-0.2-0.1-0.2-0.4-0.1-0.6c0.1-0.2,0.4-0.2,0.6-0.1l2,1.7c0.1,0,0.1,0.1,0.1,0.2c0.1,0.2,5.5,16.4,0,41.8c0,0.1-0.1,0.1-0.1,0.2
					l-2,2.1C25,51.7,24.9,51.8,24.8,51.8z"/>
			</g>
		</g>
		<g>
			<g>
				<path class="st1" d="M61.4,5.3c-11,0-17.5-2.4-17.6-2.5c-0.2-0.1-0.3-0.2-0.3-0.4v-2c0-0.2,0.2-0.4,0.4-0.4s0.4,0.2,0.4,0.4v1.7
					c2,0.7,15.7,4.9,36.4,0V0.4c0-0.2,0.2-0.4,0.4-0.4c0.2,0,0.4,0.2,0.4,0.4v2c0,0.2-0.1,0.3-0.3,0.4C73.6,4.6,66.9,5.3,61.4,5.3z"
					/>
			</g>
		</g>
		<g>
			<g>
				<path class="st0" d="M97.6,58.8H27.4c-1.5,0-2.8-1.2-2.8-2.8V2.8c0-1.5,1.2-2.8,2.8-2.8h29.9c0.2,0,0.4,0.2,0.4,0.4v1.5h9.6V0.4
					c0-0.2,0.2-0.4,0.4-0.4h29.9c1.5,0,2.8,1.2,2.8,2.8v53.3C100.4,57.6,99.1,58.8,97.6,58.8z M27.4,0.8c-1.1,0-2,0.9-2,2v53.3
					c0,1.1,0.9,2,2,2h70.2c1.1,0,2-0.9,2-2V2.8c0-1.1-0.9-2-2-2H68.1v1.5c0,0.2-0.2,0.4-0.4,0.4H57.3c-0.2,0-0.4-0.2-0.4-0.4V0.8
					H27.4z"/>
			</g>
		</g>
		<g>
			<g>
				<path class="st0" d="M124.7,80.6H0.4c-0.2,0-0.3-0.1-0.4-0.3C0,80.2,0,80,0.1,79.9l27-21.8c0.1-0.1,0.2-0.1,0.3-0.1h70.4
					c0.1,0,0.2,0,0.3,0.1l27,21.8c0.1,0.1,0.2,0.3,0.1,0.4C125.1,80.5,124.9,80.6,124.7,80.6z M1.5,79.8h122.1l-26-21H27.5L1.5,79.8
					z"/>
			</g>
		</g>
		<g>
			<g>
				<path class="st0" d="M124.7,88.3H0.4c-0.2,0-0.4-0.2-0.4-0.4v-7.7c0-0.2,0.2-0.4,0.4-0.4s0.4,0.2,0.4,0.4v7.3h123.5v-7.3
					c0-0.2,0.2-0.4,0.4-0.4s0.4,0.2,0.4,0.4v7.7C125.1,88.1,125,88.3,124.7,88.3z"/>
			</g>
		</g>
		<g>
			<g>
				<circle class="st2" cx="91.2" cy="84.3" r="2"/>
			</g>
		</g>
		<g>
			<g>
				<circle class="st2" cx="96.7" cy="84.3" r="2"/>
			</g>
		</g>
		<g>
			<g>
				<circle class="st2" cx="102.1" cy="84.3" r="2"/>
			</g>
		</g>
		<g>
			<g>
				<circle class="st2" cx="107.6" cy="84.3" r="2"/>
			</g>
		</g>
		<g>
			<g>
				<path class="st2" d="M86.9,84.3c0,1.1-0.9,2-2,2h-3.1c-1.1,0-2-0.9-2-2l0,0c0-1.1,0.9-2,2-2h3.1C86,82.4,86.9,83.2,86.9,84.3
					L86.9,84.3z"/>
			</g>
		</g>
		<g>
			<g>
				<g>
					<path class="st1" d="M103.6,70.5H21.3c-0.2,0-0.3-0.1-0.4-0.2c-0.1-0.2,0-0.3,0.1-0.4l9.1-8.8c0.1-0.1,0.2-0.1,0.3-0.1h64
						c0.1,0,0.2,0,0.3,0.1l9.1,8.8c0.1,0.1,0.2,0.3,0.1,0.4C103.9,70.4,103.8,70.5,103.6,70.5z M22.3,69.7h80.3l-8.3-8H30.6
						L22.3,69.7z"/>
				</g>
			</g>
			<g>
				<g>
					<path class="st1" d="M95.5,62.8H29.4c-0.2,0-0.4-0.2-0.4-0.4c0-0.2,0.2-0.4,0.4-0.4h66.2c0.2,0,0.4,0.2,0.4,0.4
						C95.9,62.6,95.8,62.8,95.5,62.8z"/>
				</g>
			</g>
			<g>
				<g>
					<path class="st1" d="M96.8,63.9H28.2c-0.2,0-0.4-0.2-0.4-0.4c0-0.2,0.2-0.4,0.4-0.4h68.6c0.2,0,0.4,0.2,0.4,0.4
						C97.2,63.7,97,63.9,96.8,63.9z"/>
				</g>
			</g>
			<g>
				<g>
					<path class="st1" d="M98.3,65.4H26.6c-0.2,0-0.4-0.2-0.4-0.4s0.2-0.4,0.4-0.4h71.7c0.2,0,0.4,0.2,0.4,0.4S98.5,65.4,98.3,65.4z
						"/>
				</g>
			</g>
			<g>
				<g>
					<path class="st1" d="M99.8,66.8H25.1c-0.2,0-0.4-0.2-0.4-0.4c0-0.2,0.2-0.4,0.4-0.4h74.7c0.2,0,0.4,0.2,0.4,0.4
						C100.2,66.7,100,66.8,99.8,66.8z"/>
				</g>
			</g>
			<g>
				<g>
					<path class="st1" d="M101.7,68.6H23.2c-0.2,0-0.4-0.2-0.4-0.4c0-0.2,0.2-0.4,0.4-0.4h78.5c0.2,0,0.4,0.2,0.4,0.4
						C102.1,68.5,101.9,68.6,101.7,68.6z"/>
				</g>
			</g>
			<g>
				<g>
					<path class="st1" d="M62.5,70.5c-0.2,0-0.4-0.2-0.4-0.4v-8.8c0-0.2,0.2-0.4,0.4-0.4c0.2,0,0.4,0.2,0.4,0.4v8.8
						C62.9,70.3,62.7,70.5,62.5,70.5z"/>
				</g>
			</g>
			<g>
				<g>
					<g>
						<path class="st1" d="M65.8,70.5c-0.2,0-0.4-0.2-0.4-0.4l-0.9-8.8c0-0.2,0.1-0.4,0.4-0.4c0.2,0,0.4,0.1,0.4,0.4l0.9,8.8
							C66.2,70.3,66.1,70.5,65.8,70.5C65.9,70.5,65.8,70.5,65.8,70.5z"/>
					</g>
				</g>
				<g>
					<g>
						<path class="st1" d="M68.7,70.5c-0.2,0-0.4-0.1-0.4-0.3L67,61.4c0-0.2,0.1-0.4,0.3-0.5c0.2,0,0.4,0.1,0.5,0.3l1.3,8.8
							C69.2,70.3,69,70.5,68.7,70.5C68.8,70.5,68.8,70.5,68.7,70.5z"/>
					</g>
				</g>
				<g>
					<g>
						<path class="st1" d="M72.1,70.5c-0.2,0-0.3-0.1-0.4-0.3l-2.2-8.8c-0.1-0.2,0.1-0.4,0.3-0.5c0.2-0.1,0.4,0.1,0.5,0.3l2.2,8.8
							C72.5,70.2,72.4,70.4,72.1,70.5C72.2,70.5,72.1,70.5,72.1,70.5z"/>
					</g>
				</g>
				<g>
					<g>
						<path class="st1" d="M75.4,70.5c-0.2,0-0.3-0.1-0.4-0.3L72,61.4c-0.1-0.2,0-0.4,0.2-0.5c0.2-0.1,0.4,0,0.5,0.2l3.1,8.8
							c0.1,0.2,0,0.4-0.2,0.5C75.5,70.5,75.5,70.5,75.4,70.5z"/>
					</g>
				</g>
				<g>
					<g>
						<path class="st1" d="M78.8,70.5c-0.2,0-0.3-0.1-0.4-0.2l-3.9-8.8c-0.1-0.2,0-0.4,0.2-0.5c0.2-0.1,0.4,0,0.5,0.2l3.9,8.8
							c0.1,0.2,0,0.4-0.2,0.5C78.9,70.5,78.9,70.5,78.8,70.5z"/>
					</g>
				</g>
				<g>
					<g>
						<path class="st1" d="M82.2,70.5c-0.1,0-0.3-0.1-0.4-0.2L77,61.5c-0.1-0.2,0-0.4,0.2-0.5c0.2-0.1,0.4,0,0.5,0.2l4.8,8.8
							c0.1,0.2,0,0.4-0.2,0.5C82.3,70.5,82.2,70.5,82.2,70.5z"/>
					</g>
				</g>
				<g>
					<g>
						<path class="st1" d="M85.5,70.5c-0.1,0-0.3-0.1-0.3-0.2l-5.7-8.8c-0.1-0.2-0.1-0.4,0.1-0.6c0.2-0.1,0.4-0.1,0.6,0.1l5.7,8.8
							c0.1,0.2,0.1,0.4-0.1,0.6C85.7,70.5,85.6,70.5,85.5,70.5z"/>
					</g>
				</g>
				<g>
					<g>
						<path class="st1" d="M88.9,70.5c-0.1,0-0.2-0.1-0.3-0.2L82,61.6c-0.1-0.2-0.1-0.4,0.1-0.6c0.2-0.1,0.4-0.1,0.6,0.1l6.6,8.8
							c0.1,0.2,0.1,0.4-0.1,0.6C89,70.5,88.9,70.5,88.9,70.5z"/>
					</g>
				</g>
				<g>
					<g>
						<path class="st1" d="M92.2,70.5c-0.1,0-0.2,0-0.3-0.1l-7.4-8.8c-0.1-0.2-0.1-0.4,0-0.6c0.2-0.1,0.4-0.1,0.6,0l7.4,8.8
							c0.1,0.2,0.1,0.4,0,0.6C92.4,70.5,92.3,70.5,92.2,70.5z"/>
					</g>
				</g>
				<g>
					<g>
						<path class="st1" d="M95.1,70.5c-0.1,0-0.2,0-0.3-0.1l-7.9-8.8c-0.1-0.2-0.1-0.4,0-0.6c0.2-0.1,0.4-0.1,0.6,0l7.9,8.8
							c0.1,0.2,0.1,0.4,0,0.6C95.3,70.5,95.2,70.5,95.1,70.5z"/>
					</g>
				</g>
				<g>
					<g>
						<path class="st1" d="M98,70.5c-0.1,0-0.2,0-0.3-0.1l-8.3-8.8c-0.2-0.2-0.1-0.4,0-0.6c0.2-0.2,0.4-0.1,0.6,0l8.3,8.8
							c0.2,0.2,0.1,0.4,0,0.6C98.2,70.5,98.1,70.5,98,70.5z"/>
					</g>
				</g>
				<g>
					<g>
						<path class="st1" d="M101,70.5c-0.1,0-0.2,0-0.3-0.1l-8.8-8.8c-0.2-0.2-0.2-0.4,0-0.6c0.2-0.2,0.4-0.2,0.6,0l8.8,8.8
							c0.2,0.2,0.2,0.4,0,0.6C101.2,70.5,101.1,70.5,101,70.5z"/>
					</g>
				</g>
			</g>
			<g>
				<g>
					<g>
						<path class="st1" d="M59.4,70.5C59.4,70.5,59.4,70.5,59.4,70.5c-0.3,0-0.4-0.2-0.4-0.4l0.9-8.8c0-0.2,0.2-0.4,0.4-0.4
							c0.2,0,0.4,0.2,0.4,0.4l-0.9,8.8C59.8,70.4,59.6,70.5,59.4,70.5z"/>
					</g>
				</g>
				<g>
					<g>
						<path class="st1" d="M56.5,70.5C56.5,70.5,56.5,70.5,56.5,70.5c-0.3,0-0.4-0.2-0.4-0.5l1.3-8.8c0-0.2,0.2-0.4,0.5-0.3
							c0.2,0,0.4,0.2,0.3,0.5l-1.3,8.8C56.9,70.4,56.7,70.5,56.5,70.5z"/>
					</g>
				</g>
				<g>
					<g>
						<path class="st1" d="M53.2,70.5C53.1,70.5,53.1,70.5,53.2,70.5c-0.3-0.1-0.4-0.3-0.4-0.5l2.2-8.8c0.1-0.2,0.3-0.3,0.5-0.3
							c0.2,0.1,0.3,0.3,0.3,0.5l-2.2,8.8C53.5,70.4,53.3,70.5,53.2,70.5z"/>
					</g>
				</g>
				<g>
					<g>
						<path class="st1" d="M49.8,70.5c0,0-0.1,0-0.1,0c-0.2-0.1-0.3-0.3-0.2-0.5l3.1-8.8c0.1-0.2,0.3-0.3,0.5-0.2
							c0.2,0.1,0.3,0.3,0.2,0.5l-3.1,8.8C50.1,70.4,50,70.5,49.8,70.5z"/>
					</g>
				</g>
				<g>
					<g>
						<path class="st1" d="M46.5,70.5c-0.1,0-0.1,0-0.2,0c-0.2-0.1-0.3-0.3-0.2-0.5l3.9-8.8c0.1-0.2,0.3-0.3,0.5-0.2
							c0.2,0.1,0.3,0.3,0.2,0.5l-3.9,8.8C46.8,70.4,46.6,70.5,46.5,70.5z"/>
					</g>
				</g>
				<g>
					<g>
						<path class="st1" d="M43.1,70.5c-0.1,0-0.1,0-0.2,0c-0.2-0.1-0.3-0.3-0.2-0.5l4.8-8.8c0.1-0.2,0.3-0.3,0.5-0.2
							c0.2,0.1,0.3,0.3,0.2,0.5l-4.8,8.8C43.4,70.4,43.2,70.5,43.1,70.5z"/>
					</g>
				</g>
				<g>
					<g>
						<path class="st1" d="M39.7,70.5c-0.1,0-0.2,0-0.2-0.1c-0.2-0.1-0.2-0.4-0.1-0.6l5.7-8.8c0.1-0.2,0.4-0.2,0.6-0.1
							c0.2,0.1,0.2,0.4,0.1,0.6l-5.7,8.8C40,70.4,39.9,70.5,39.7,70.5z"/>
					</g>
				</g>
				<g>
					<g>
						<path class="st1" d="M36.4,70.5c-0.1,0-0.2,0-0.2-0.1c-0.2-0.1-0.2-0.4-0.1-0.6l6.6-8.8c0.1-0.2,0.4-0.2,0.6-0.1
							c0.2,0.1,0.2,0.4,0.1,0.6l-6.6,8.8C36.6,70.5,36.5,70.5,36.4,70.5z"/>
					</g>
				</g>
				<g>
					<g>
						<path class="st1" d="M33,70.5c-0.1,0-0.2,0-0.3-0.1c-0.2-0.1-0.2-0.4,0-0.6l7.4-8.8c0.1-0.2,0.4-0.2,0.6,0
							c0.2,0.1,0.2,0.4,0,0.6l-7.4,8.8C33.3,70.5,33.2,70.5,33,70.5z"/>
					</g>
				</g>
				<g>
					<g>
						<path class="st1" d="M30.1,70.5c-0.1,0-0.2,0-0.3-0.1c-0.2-0.1-0.2-0.4,0-0.6l7.9-8.8c0.1-0.2,0.4-0.2,0.6,0
							c0.2,0.1,0.2,0.4,0,0.6l-7.9,8.8C30.3,70.5,30.2,70.5,30.1,70.5z"/>
					</g>
				</g>
				<g>
					<g>
						<path class="st1" d="M27.2,70.5c-0.1,0-0.2,0-0.3-0.1c-0.2-0.2-0.2-0.4,0-0.6l8.3-8.8c0.2-0.2,0.4-0.2,0.6,0
							c0.2,0.2,0.2,0.4,0,0.6l-8.3,8.8C27.4,70.5,27.3,70.5,27.2,70.5z"/>
					</g>
				</g>
				<g>
					<g>
						<path class="st1" d="M24.3,70.5c-0.1,0-0.2,0-0.3-0.1c-0.2-0.2-0.2-0.4,0-0.6l8.8-8.8c0.2-0.2,0.4-0.2,0.6,0
							c0.2,0.2,0.2,0.4,0,0.6l-8.8,8.8C24.5,70.5,24.4,70.5,24.3,70.5z"/>
					</g>
				</g>
			</g>
		</g>
		<g>
			<g>
				<g>
					<path class="st3" d="M101.8,38.5c-1,0-1.8-0.5-1.8-1.2c0-0.7,0.8-1.2,1.8-1.2c1,0,1.8,0.5,1.8,1.2
						C103.5,37.9,102.8,38.5,101.8,38.5z M101.8,36.8c-0.6,0-1,0.3-1,0.4c0,0.2,0.4,0.4,1,0.4c0.6,0,1-0.3,1-0.4
						C102.7,37.1,102.3,36.8,101.8,36.8z"/>
				</g>
			</g>
			<g>
				<g>
					<path class="st3" d="M102.3,39.6c-1,0-1.8-0.5-1.8-1.2c0-0.7,0.8-1.2,1.8-1.2c1,0,1.8,0.5,1.8,1.2
						C104.1,39,103.3,39.6,102.3,39.6z M102.3,37.9c-0.6,0-1,0.3-1,0.4c0,0.2,0.4,0.4,1,0.4c0.6,0,1-0.3,1-0.4
						C103.3,38.2,102.9,37.9,102.3,37.9z"/>
				</g>
			</g>
			<g>
				<g>
					<path class="st3" d="M102.9,40.7c-1,0-1.8-0.5-1.8-1.2c0-0.7,0.8-1.2,1.8-1.2c1,0,1.8,0.5,1.8,1.2
						C104.7,40.1,103.9,40.7,102.9,40.7z M102.9,39c-0.6,0-1,0.3-1,0.4c0,0.2,0.4,0.4,1,0.4c0.6,0,1-0.3,1-0.4
						C103.9,39.3,103.5,39,102.9,39z"/>
				</g>
			</g>
			<g>
				<g>
					<path class="st3" d="M103.5,41.8c-1,0-1.8-0.5-1.8-1.2c0-0.7,0.8-1.2,1.8-1.2c1,0,1.8,0.5,1.8,1.2
						C105.2,41.2,104.5,41.8,103.5,41.8z M103.5,40.1c-0.6,0-1,0.3-1,0.4c0,0.2,0.4,0.4,1,0.4c0.6,0,1-0.3,1-0.4
						C104.4,40.4,104,40.1,103.5,40.1z"/>
				</g>
			</g>
			<g>
				<g>
					<path class="st3" d="M104,42.9c-1,0-1.8-0.5-1.8-1.2c0-0.7,0.8-1.2,1.8-1.2c1,0,1.8,0.5,1.8,1.2C105.8,42.4,105,42.9,104,42.9z
						 M104,41.2c-0.6,0-1,0.3-1,0.4c0,0.2,0.4,0.4,1,0.4c0.6,0,1-0.3,1-0.4C105,41.5,104.6,41.2,104,41.2z"/>
				</g>
			</g>
			<g>
				<g>
					<path class="st3" d="M104.6,44c-1,0-1.8-0.5-1.8-1.2c0-0.7,0.8-1.2,1.8-1.2c1,0,1.8,0.5,1.8,1.2C106.4,43.5,105.6,44,104.6,44z
						 M104.6,42.3c-0.6,0-1,0.3-1,0.4c0,0.2,0.4,0.4,1,0.4c0.6,0,1-0.3,1-0.4C105.6,42.6,105.2,42.3,104.6,42.3z"/>
				</g>
			</g>
			<g>
				<g>
					<path class="st3" d="M105.2,45.1c-1,0-1.8-0.5-1.8-1.2s0.8-1.2,1.8-1.2c1,0,1.8,0.5,1.8,1.2S106.2,45.1,105.2,45.1z
						 M105.2,43.4c-0.6,0-1,0.3-1,0.4c0,0.2,0.4,0.4,1,0.4c0.6,0,1-0.3,1-0.4C106.1,43.7,105.8,43.4,105.2,43.4z"/>
				</g>
			</g>
			<g>
				<g>
					<path class="st3" d="M105.7,46.2c-1,0-1.8-0.5-1.8-1.2c0-0.7,0.8-1.2,1.8-1.2c1,0,1.8,0.5,1.8,1.2
						C107.5,45.7,106.7,46.2,105.7,46.2z M105.7,44.5c-0.6,0-1,0.3-1,0.4s0.4,0.4,1,0.4c0.6,0,1-0.3,1-0.4S106.3,44.5,105.7,44.5z"
						/>
				</g>
			</g>
			<g>
				<g>
					<path class="st3" d="M106.3,47.3c-1,0-1.8-0.5-1.8-1.2c0-0.7,0.8-1.2,1.8-1.2c1,0,1.8,0.5,1.8,1.2
						C108.1,46.8,107.3,47.3,106.3,47.3z M106.3,45.6c-0.6,0-1,0.3-1,0.4c0,0.2,0.4,0.4,1,0.4c0.6,0,1-0.3,1-0.4
						C107.3,45.9,106.9,45.6,106.3,45.6z"/>
				</g>
			</g>
			<g>
				<g>
					<path class="st3" d="M106.3,48.4c-1,0-1.8-0.5-1.8-1.2s0.8-1.2,1.8-1.2c1,0,1.8,0.5,1.8,1.2S107.3,48.4,106.3,48.4z
						 M106.3,46.7c-0.6,0-1,0.3-1,0.4c0,0.2,0.4,0.4,1,0.4c0.6,0,1-0.3,1-0.4C107.3,47,106.9,46.7,106.3,46.7z"/>
				</g>
			</g>
			<g>
				<g>
					<path class="st3" d="M106.3,49.5c-1,0-1.8-0.5-1.8-1.2c0-0.7,0.8-1.2,1.8-1.2c1,0,1.8,0.5,1.8,1.2
						C108.1,49,107.3,49.5,106.3,49.5z M106.3,47.8c-0.6,0-1,0.3-1,0.4c0,0.2,0.4,0.4,1,0.4c0.6,0,1-0.3,1-0.4
						C107.3,48.1,106.9,47.8,106.3,47.8z"/>
				</g>
			</g>
			<g>
				<g>
					<path class="st3" d="M106.3,50.6c-1,0-1.8-0.5-1.8-1.2c0-0.7,0.8-1.2,1.8-1.2c1,0,1.8,0.5,1.8,1.2
						C108.1,50.1,107.3,50.6,106.3,50.6z M106.3,48.9c-0.6,0-1,0.3-1,0.4c0,0.2,0.4,0.4,1,0.4c0.6,0,1-0.3,1-0.4
						C107.3,49.2,106.9,48.9,106.3,48.9z"/>
				</g>
			</g>
			<g>
				<g>
					<path class="st3" d="M106.3,51.7c-1,0-1.8-0.5-1.8-1.2c0-0.7,0.8-1.2,1.8-1.2c1,0,1.8,0.5,1.8,1.2
						C108.1,51.2,107.3,51.7,106.3,51.7z M106.3,50c-0.6,0-1,0.3-1,0.4c0,0.2,0.4,0.4,1,0.4c0.6,0,1-0.3,1-0.4
						C107.3,50.3,106.9,50,106.3,50z"/>
				</g>
			</g>
			<g>
				<g>
					<path class="st3" d="M106.3,52.8c-1,0-1.8-0.5-1.8-1.2c0-0.7,0.8-1.2,1.8-1.2c1,0,1.8,0.5,1.8,1.2
						C108.1,52.3,107.3,52.8,106.3,52.8z M106.3,51.1c-0.6,0-1,0.3-1,0.4c0,0.2,0.4,0.4,1,0.4c0.6,0,1-0.3,1-0.4
						C107.3,51.4,106.9,51.1,106.3,51.1z"/>
				</g>
			</g>
			<g>
				<g>
					<path class="st3" d="M106.3,53.9c-1,0-1.8-0.5-1.8-1.2c0-0.7,0.8-1.2,1.8-1.2c1,0,1.8,0.5,1.8,1.2
						C108.1,53.4,107.3,53.9,106.3,53.9z M106.3,52.2c-0.6,0-1,0.3-1,0.4c0,0.2,0.4,0.4,1,0.4c0.6,0,1-0.3,1-0.4
						C107.3,52.5,106.9,52.2,106.3,52.2z"/>
				</g>
			</g>
			<g>
				<g>
					<path class="st3" d="M106.3,55c-1,0-1.8-0.5-1.8-1.2c0-0.7,0.8-1.2,1.8-1.2c1,0,1.8,0.5,1.8,1.2C108.1,54.5,107.3,55,106.3,55z
						 M106.3,53.3c-0.6,0-1,0.3-1,0.4c0,0.2,0.4,0.4,1,0.4c0.6,0,1-0.3,1-0.4C107.3,53.6,106.9,53.3,106.3,53.3z"/>
				</g>
			</g>
			<g>
				<g>
					<path class="st3" d="M106.3,56.1c-1,0-1.8-0.5-1.8-1.2c0-0.7,0.8-1.2,1.8-1.2c1,0,1.8,0.5,1.8,1.2
						C108.1,55.6,107.3,56.1,106.3,56.1z M106.3,54.4c-0.6,0-1,0.3-1,0.4c0,0.2,0.4,0.4,1,0.4c0.6,0,1-0.3,1-0.4
						C107.3,54.7,106.9,54.4,106.3,54.4z"/>
				</g>
			</g>
			<g>
				<g>
					<path class="st3" d="M105.7,57.2c-1,0-1.8-0.5-1.8-1.2c0-0.7,0.8-1.2,1.8-1.2c1,0,1.8,0.5,1.8,1.2
						C107.5,56.7,106.7,57.2,105.7,57.2z M105.7,55.5c-0.6,0-1,0.3-1,0.4c0,0.2,0.4,0.4,1,0.4c0.6,0,1-0.3,1-0.4
						C106.7,55.8,106.3,55.5,105.7,55.5z"/>
				</g>
			</g>
			<g>
				<g>
					<path class="st3" d="M105.2,58.3c-1,0-1.8-0.5-1.8-1.2c0-0.7,0.8-1.2,1.8-1.2c1,0,1.8,0.5,1.8,1.2
						C106.9,57.8,106.2,58.3,105.2,58.3z M105.2,56.6c-0.6,0-1,0.3-1,0.4c0,0.2,0.4,0.4,1,0.4c0.6,0,1-0.3,1-0.4
						C106.1,56.9,105.8,56.6,105.2,56.6z"/>
				</g>
			</g>
			<g>
				<g>
					<path class="st3" d="M104.6,59.4c-1,0-1.8-0.5-1.8-1.2c0-0.7,0.8-1.2,1.8-1.2c1,0,1.8,0.5,1.8,1.2
						C106.4,58.9,105.6,59.4,104.6,59.4z M104.6,57.7c-0.6,0-1,0.3-1,0.4s0.4,0.4,1,0.4c0.6,0,1-0.3,1-0.4S105.2,57.7,104.6,57.7z"
						/>
				</g>
			</g>
			<g>
				<g>
					<path class="st3" d="M104,60.5c-1,0-1.8-0.5-1.8-1.2c0-0.7,0.8-1.2,1.8-1.2c1,0,1.8,0.5,1.8,1.2C105.8,60,105,60.5,104,60.5z
						 M104,58.8c-0.6,0-1,0.3-1,0.4c0,0.2,0.4,0.4,1,0.4c0.6,0,1-0.3,1-0.4C105,59.1,104.6,58.8,104,58.8z"/>
				</g>
			</g>
			<g>
				<g>
					<path class="st3" d="M103.5,61.6c-1,0-1.8-0.5-1.8-1.2c0-0.7,0.8-1.2,1.8-1.2c1,0,1.8,0.5,1.8,1.2
						C105.2,61.1,104.5,61.6,103.5,61.6z M103.5,59.9c-0.6,0-1,0.3-1,0.4c0,0.2,0.4,0.4,1,0.4c0.6,0,1-0.3,1-0.4
						C104.4,60.2,104,59.9,103.5,59.9z"/>
				</g>
			</g>
			<g>
				<g>
					<path class="st3" d="M102.9,62.7c-1,0-1.8-0.5-1.8-1.2s0.8-1.2,1.8-1.2c1,0,1.8,0.5,1.8,1.2S103.9,62.7,102.9,62.7z M102.9,61
						c-0.6,0-1,0.3-1,0.4s0.4,0.4,1,0.4c0.6,0,1-0.3,1-0.4S103.5,61,102.9,61z"/>
				</g>
			</g>
		</g>
		<g>
			<g>
				<path class="st1" d="M76.4,78.2H49.2c-0.4,0-0.7-0.2-0.9-0.4c-0.2-0.3-0.2-0.7,0-1.1l1.8-4.1c0.2-0.5,0.9-0.9,1.4-0.9H74
					c0.6,0,1.2,0.4,1.4,0.9l1.8,4.1c0.2,0.4,0.2,0.8,0,1.1C77.1,78,76.8,78.2,76.4,78.2z M51.6,72.5c-0.3,0-0.6,0.2-0.7,0.4L49,77
					c-0.1,0.2-0.1,0.3,0,0.3c0,0.1,0.1,0.1,0.2,0.1h27.2c0,0,0.2,0,0.2-0.1c0,0,0-0.1,0-0.3l-1.8-4.1c-0.1-0.2-0.4-0.4-0.7-0.4H51.6
					z"/>
			</g>
		</g>
	</g>
	<g>
		<g>
			<g>
				<path class="st4" d="M100.9,124.4H20.7c-0.2,0-0.4-0.2-0.4-0.4v-23.5c0-0.2,0.2-0.4,0.4-0.4h80.2c0.2,0,0.4,0.2,0.4,0.4V124
					C101.3,124.2,101.1,124.4,100.9,124.4z M21.1,123.6h79.4v-22.7H21.1V123.6z"/>
			</g>
			<g>
				<g>
					<path class="st5" d="M110.6,124.3c0,1.6-1.3,1.7-2.9,1.7H97c-1.6,0-2.9-0.1-2.9-1.7v0c0,0,2.9-6.1,2.9-11.8
						c0-5.7-2.9-11.7-2.9-11.7v-0.5c0-1.6,1.3-1.7,2.9-1.7h10.8c1.6,0,2.9,0.1,2.9,1.7V124.3z"/>
					<path class="st6" d="M107.8,126.4H97c-1.2,0-3.3,0-3.3-2.1c0-0.1,0-0.1,0-0.2c0.1-0.2,2.8-6.1,2.8-11.7
						c0-5.6-2.8-11.5-2.8-11.6c0-0.1,0-0.1,0-0.2v-0.5c0-2.1,2-2.1,3.3-2.1h10.8c1.2,0,3.3,0,3.3,2.1v24
						C111,126.4,109,126.4,107.8,126.4z M94.5,124.4c0,1,0.6,1.2,2.5,1.2h10.8c1.9,0,2.5-0.3,2.5-1.3v-24c0-1-0.6-1.3-2.5-1.3H97
						c-1.9,0-2.5,0.3-2.5,1.3v0.4c0.4,0.8,2.9,6.4,2.9,11.8C97.4,117.9,94.9,123.6,94.5,124.4z"/>
				</g>
				<g>
					<g>
						<line class="st5" x1="96.3" y1="107.1" x2="110.6" y2="107.1"/>
						<path class="st6" d="M110.6,107.5H96.3c-0.2,0-0.4-0.2-0.4-0.4c0-0.2,0.2-0.4,0.4-0.4h14.3c0.2,0,0.4,0.2,0.4,0.4
							C111,107.3,110.9,107.5,110.6,107.5z"/>
					</g>
					<g>
						<line class="st5" x1="96.8" y1="109.7" x2="110.6" y2="109.7"/>
						<path class="st6" d="M110.6,110.1H96.8c-0.2,0-0.4-0.2-0.4-0.4s0.2-0.4,0.4-0.4h13.8c0.2,0,0.4,0.2,0.4,0.4
							S110.9,110.1,110.6,110.1z"/>
					</g>
					<g>
						<line class="st5" x1="97.2" y1="112.3" x2="110.6" y2="112.3"/>
						<path class="st6" d="M110.6,112.7H97.2c-0.2,0-0.4-0.2-0.4-0.4s0.2-0.4,0.4-0.4h13.5c0.2,0,0.4,0.2,0.4,0.4
							S110.9,112.7,110.6,112.7z"/>
					</g>
					<g>
						<line class="st5" x1="96.9" y1="114.8" x2="110.6" y2="114.8"/>
						<path class="st6" d="M110.6,115.2H96.9c-0.2,0-0.4-0.2-0.4-0.4s0.2-0.4,0.4-0.4h13.7c0.2,0,0.4,0.2,0.4,0.4
							S110.9,115.2,110.6,115.2z"/>
					</g>
					<g>
						<line class="st5" x1="96.4" y1="117.4" x2="110.6" y2="117.4"/>
						<path class="st6" d="M110.6,117.8H96.4c-0.2,0-0.4-0.2-0.4-0.4s0.2-0.4,0.4-0.4h14.2c0.2,0,0.4,0.2,0.4,0.4
							S110.9,117.8,110.6,117.8z"/>
					</g>
				</g>
			</g>
			<g>
				<g>
					<path class="st5" d="M12.8,124.3c0,1.6,1.3,1.7,2.9,1.7h10.8c1.6,0,2.9-0.1,2.9-1.7v0c0,0-2.9-6.1-2.9-11.8
						c0-5.7,2.9-11.7,2.9-11.7v-0.5c0-1.6-1.3-1.7-2.9-1.7H15.6c-1.6,0-2.9,0.1-2.9,1.7V124.3z"/>
					<path class="st6" d="M26.4,126.4H15.6c-1.2,0-3.3,0-3.3-2.1v-24c0-2.1,2-2.1,3.3-2.1h10.8c1.2,0,3.3,0,3.3,2.1v0.5
						c0,0.1,0,0.1,0,0.2c0,0.1-2.8,6-2.8,11.6c0,5.6,2.8,11.6,2.8,11.7c0,0.1,0,0.1,0,0.2C29.7,126.4,27.6,126.4,26.4,126.4z
						 M15.6,98.9c-1.9,0-2.5,0.3-2.5,1.3v24c0,1,0.6,1.3,2.5,1.3h10.8c1.9,0,2.4-0.3,2.5-1.2c-0.4-0.8-2.9-6.5-2.9-11.9
						c0-5.5,2.5-11,2.9-11.8v-0.4c0-1-0.6-1.3-2.5-1.3H15.6z"/>
				</g>
				<g>
					<g>
						<line class="st5" x1="27.1" y1="107.1" x2="12.8" y2="107.1"/>
						<path class="st6" d="M27.1,107.5H12.8c-0.2,0-0.4-0.2-0.4-0.4c0-0.2,0.2-0.4,0.4-0.4h14.3c0.2,0,0.4,0.2,0.4,0.4
							C27.5,107.3,27.3,107.5,27.1,107.5z"/>
					</g>
					<g>
						<line class="st5" x1="26.6" y1="109.7" x2="12.8" y2="109.7"/>
						<path class="st6" d="M26.6,110.1H12.8c-0.2,0-0.4-0.2-0.4-0.4s0.2-0.4,0.4-0.4h13.8c0.2,0,0.4,0.2,0.4,0.4
							S26.8,110.1,26.6,110.1z"/>
					</g>
					<g>
						<line class="st5" x1="26.2" y1="112.3" x2="12.8" y2="112.3"/>
						<path class="st6" d="M26.2,112.7H12.8c-0.2,0-0.4-0.2-0.4-0.4s0.2-0.4,0.4-0.4h13.5c0.2,0,0.4,0.2,0.4,0.4
							S26.4,112.7,26.2,112.7z"/>
					</g>
					<g>
						<line class="st5" x1="26.5" y1="114.8" x2="12.8" y2="114.8"/>
						<path class="st6" d="M26.5,115.2H12.8c-0.2,0-0.4-0.2-0.4-0.4s0.2-0.4,0.4-0.4h13.7c0.2,0,0.4,0.2,0.4,0.4
							S26.7,115.2,26.5,115.2z"/>
					</g>
					<g>
						<line class="st5" x1="27" y1="117.4" x2="12.8" y2="117.4"/>
						<path class="st6" d="M27,117.8H12.8c-0.2,0-0.4-0.2-0.4-0.4s0.2-0.4,0.4-0.4H27c0.2,0,0.4,0.2,0.4,0.4S27.2,117.8,27,117.8z"
							/>
					</g>
				</g>
			</g>
		</g>
		<g>
			<g>
				<path class="st6" d="M61.1,109.8h0.5l-0.1,0.3h-0.8l0.1-0.5c-0.4,0.4-0.8,0.6-1.2,0.6c-0.7,0-1.1-0.4-1.1-1.2
					c0-1.1,0.8-2.1,1.8-2.1c0.5,0,0.8,0.2,1,0.6l0.4-1.6h-0.5l0.1-0.3H62L61.1,109.8z M61.1,108.1c0-0.6-0.3-0.9-0.9-0.9
					c-1,0-1.4,1-1.4,1.7c0,0.6,0.3,0.9,0.9,0.9C60.5,109.9,61.1,109.1,61.1,108.1z"/>
			</g>
			<g>
				<path class="st6" d="M63.1,109.8h0.5l-0.1,0.3h-1.3l0.1-0.3h0.5l0.5-2.6h-0.5l0.1-0.3h0.8L63.1,109.8z M63.5,106
					c0-0.2,0.2-0.3,0.3-0.3c0.1,0,0.2,0.1,0.2,0.2c0,0.1-0.1,0.3-0.3,0.3C63.5,106.2,63.5,106.1,63.5,106z"/>
			</g>
			<g>
				<path class="st6" d="M66.7,109.7c-0.4,0.3-0.8,0.5-1.2,0.5c-0.5,0-0.8-0.3-0.8-0.8c0-0.7,0.6-1.2,1.3-1.2c0.3,0,0.6,0.1,1,0.3
					L67,108c0-0.1,0-0.3,0-0.4c0-0.4-0.2-0.6-0.7-0.6c-0.4,0-0.8,0.2-1.1,0.5l-0.3-0.1c0.3-0.5,0.8-0.7,1.4-0.7c0.7,0,1,0.2,1,0.8
					c0,0.1,0,0.3-0.1,0.5l-0.4,1.7h0.5l-0.1,0.3h-0.8L66.7,109.7z M66.8,108.7c-0.3-0.2-0.6-0.3-0.9-0.3c-0.5,0-1,0.4-1,0.9
					c0,0.3,0.2,0.5,0.6,0.5c0.3,0,0.7-0.2,1.2-0.5L66.8,108.7z"/>
			</g>
			<g>
				<path class="st6" d="M69.4,110.9c0.6,0,1.2-0.3,1.4-1.3c-0.4,0.4-0.8,0.6-1.2,0.6c-0.7,0-1.1-0.4-1.1-1.2c0-1.2,0.8-2.1,1.8-2.1
					c0.5,0,0.8,0.2,1,0.6l0.1-0.6h0.8l-0.1,0.3h-0.5l-0.5,2.4c-0.2,0.9-0.7,1.6-1.8,1.6c-0.4,0-0.7-0.1-1-0.3l0.2-0.3
					C68.7,110.8,69,110.9,69.4,110.9z M71,108.1c0-0.6-0.3-0.9-0.9-0.9c-1,0-1.4,1-1.4,1.7c0,0.6,0.3,0.9,0.9,0.9
					C70.4,109.9,71,109.1,71,108.1z"/>
			</g>
			<g>
				<path class="st6" d="M73.4,107.4c0.5-0.3,0.8-0.4,1.2-0.4c0.5,0,0.6,0.2,0.6,0.6c0,0.2,0,0.5-0.4,2.3h0.5l-0.1,0.3h-1.3l0.1-0.3
					h0.5c0.4-1.9,0.4-2,0.4-2.2c0-0.2-0.1-0.3-0.4-0.3c-0.3,0-0.7,0.2-1.2,0.5l-0.4,2.1h0.5l-0.1,0.3H72l0.1-0.3h0.5l0.5-2.6h-0.5
					l0.1-0.3h0.8L73.4,107.4z"/>
			</g>
			<g>
				<path class="st6" d="M76.3,109c0-1,0.7-2.1,1.9-2.1c0.7,0,1.1,0.5,1.1,1.2c0,1.2-0.8,2.1-1.9,2.1
					C76.7,110.2,76.3,109.7,76.3,109z M78.9,108.1c0-0.6-0.3-0.9-0.9-0.9c-0.9,0-1.4,1-1.4,1.8c0,0.6,0.3,0.9,0.9,0.9
					C78.5,109.9,78.9,108.8,78.9,108.1z"/>
			</g>
			<g>
				<path class="st6" d="M80.1,110.1h-0.3L80,109h0.3l-0.1,0.4c0.2,0.3,0.5,0.5,0.9,0.5c0.5,0,0.9-0.3,0.9-0.7
					c0-0.2-0.2-0.4-0.5-0.5l-0.5-0.2c-0.5-0.1-0.7-0.3-0.7-0.6c0-0.6,0.5-1.1,1.2-1.1c0.4,0,0.7,0.1,0.9,0.4l0.1-0.3h0.3l-0.2,1
					h-0.3l0.1-0.4c-0.2-0.3-0.5-0.4-0.8-0.4c-0.7,0-0.8,0.4-0.8,0.7c0,0.2,0.1,0.3,0.5,0.4l0.6,0.2c0.4,0.1,0.6,0.3,0.6,0.7
					c0,0.5-0.5,1.1-1.3,1.1c-0.4,0-0.7-0.1-1-0.4L80.1,110.1z"/>
			</g>
			<g>
				<path class="st6" d="M85,107.2h-0.7l-0.5,2.2c0,0.1,0,0.2,0,0.3c0,0.2,0.1,0.3,0.3,0.3c0.1,0,0.2,0,0.3-0.1l-0.1,0.3
					c-0.1,0-0.3,0.1-0.4,0.1c-0.4,0-0.5-0.1-0.5-0.4c0-0.1,0-0.2,0.1-0.4l0.5-2.2h-0.5l0.1-0.3H84l0.2-0.8l0.4-0.3l-0.2,1h0.7
					L85,107.2z"/>
			</g>
			<g>
				<path class="st6" d="M85.9,109.8h0.5l-0.1,0.3H85l0.1-0.3h0.5l0.5-2.6h-0.5l0.1-0.3h0.8L85.9,109.8z M86.3,106
					c0-0.2,0.2-0.3,0.3-0.3c0.1,0,0.2,0.1,0.2,0.2c0,0.1-0.1,0.3-0.3,0.3C86.3,106.2,86.3,106.1,86.3,106z"/>
			</g>
			<g>
				<path class="st6" d="M89.4,107.2c-0.9,0-1.5,0.9-1.5,1.8c0,0.6,0.3,0.9,0.9,0.9c0.5,0,1-0.3,1.3-0.7l0.2,0.1
					c-0.4,0.6-1,0.9-1.6,0.9c-0.8,0-1.2-0.4-1.2-1.2c0-1.1,0.7-2.2,1.9-2.2c0.5,0,0.8,0.2,1,0.6l0.1-0.5h0.3l-0.2,1.1h-0.3
					C90.2,107.5,89.9,107.2,89.4,107.2z"/>
			</g>
		</g>
	</g>
</g>
</svg>
