<?xml version="1.0" encoding="utf-8"?>
<!-- Generator: Adobe Illustrator 21.1.0, SVG Export Plug-In . SVG Version: 6.00 Build 0)  -->
<svg version="1.1" id="Layer_1" xmlns="http://www.w3.org/2000/svg" xmlns:xlink="http://www.w3.org/1999/xlink" x="0px" y="0px"
	 width="153.4px" height="126.3px" viewBox="0 0 153.4 126.3" style="enable-background:new 0 0 153.4 126.3;" xml:space="preserve"
	>
<style type="text/css">
	.st0{fill:#BDBBBB;}
	.st1{fill:none;stroke:#BDBBBB;stroke-linecap:round;stroke-linejoin:round;stroke-miterlimit:10;}
	.st2{fill:#808080;}
	.st3{fill:#CEAF5B;}
	.st4{fill:#F2D383;}
	.st5{fill:none;stroke:#BDBBBB;stroke-width:0.5125;stroke-miterlimit:10;}
</style>
<g>
	<g>
		<g>
			<path class="st0" d="M76.5,79c-0.2,0-0.4-0.2-0.4-0.4V41.3c0-0.2,0.2-0.4,0.4-0.4h9.2c0.2,0,0.3,0.1,0.4,0.2
				c0.1,0.1,0,0.3-0.1,0.4l-2.6,3l2.6,2.8c0.1,0.1,0.1,0.3,0.1,0.4c-0.1,0.1-0.2,0.2-0.4,0.2h-8.8v30.5C76.9,78.8,76.8,79,76.5,79z
				 M76.9,47.3h7.9l-2.2-2.4c-0.1-0.1-0.1-0.4,0-0.5l2.3-2.6h-8V47.3z"/>
		</g>
		<g>
			<path class="st0" d="M147.4,108.1c-0.1,0-0.1,0-0.2,0L77,79.3L5.9,107.9c-0.2,0.1-0.4,0-0.5-0.2c-0.1-0.2,0-0.4,0.2-0.5
				l71.3-28.6c0.1,0,0.2,0,0.3,0l70.4,28.8c0.2,0.1,0.3,0.3,0.2,0.5C147.7,108,147.6,108.1,147.4,108.1z"/>
		</g>
		<g>
			<g>
				<g>
					<g>
						<path class="st0" d="M0.4,106.7c-0.2,0-0.3-0.1-0.4-0.3c-0.1-0.2,0-0.4,0.2-0.5l4.7-1.8l2.1-2.3c0.2-0.2,0.4-0.2,0.6,0
							c0.2,0.2,0.2,0.4,0,0.6l-2.2,2.3c0,0-0.1,0.1-0.1,0.1l-4.8,1.9C0.5,106.7,0.4,106.7,0.4,106.7z"/>
					</g>
					<g>
						<path class="st0" d="M6.1,104.4c-0.2,0-0.3-0.1-0.4-0.3l-0.5-1.3c0-0.1,0-0.2,0-0.4c0.1-0.1,1.4-2.3,3.4-3.1
							c1.4-0.6,2.6,1.2,3,2.4c0,0.1,0,0.2,0,0.3c0,0.1-0.1,0.2-0.2,0.2l-5.2,2C6.2,104.4,6.2,104.4,6.1,104.4z M6,102.8l0.3,0.7
							l4.4-1.7c-0.4-0.7-1.1-1.9-1.8-1.6C7.5,100.8,6.4,102.3,6,102.8z"/>
					</g>
					<g>
						<path class="st0" d="M3.8,105.1C3.8,105.1,3.7,105.1,3.8,105.1c-0.3,0-0.4-0.2-0.4-0.5c0.2-1.5,1-2.8,1.4-3.5
							c0.6-1.1,1.7-2.6,3.6-3.4c2.2-0.9,3.8,3,3.9,3.1c0.1,0.2,0,0.4-0.2,0.5l-0.9,0.3c-0.2,0.1-0.4,0-0.5-0.2
							c-0.1-0.2,0-0.4,0.2-0.5l0.5-0.2c-0.4-0.8-1.5-2.8-2.7-2.3c-1.7,0.7-2.7,2-3.2,3c-0.4,0.6-1.1,1.8-1.3,3.2
							C4.2,105,4,105.1,3.8,105.1z"/>
					</g>
					<g>
						<path class="st0" d="M7.6,99c-0.1,0-0.1,0-0.2,0c-0.1,0-0.2-0.1-0.2-0.2l-0.9-2.2c-0.1-0.2,0-0.4,0.1-0.5l0.8-0.5
							c0.1,0,0.1-0.1,0.2-0.1l0.9-0.1c0.2,0,0.4,0.1,0.4,0.2l0.9,2.2c0.1,0.2,0,0.4-0.2,0.5L7.7,99C7.7,99,7.6,99,7.6,99z M7.2,96.6
							l0.6,1.5l0.9-0.4l-0.6-1.5l-0.5,0.1L7.2,96.6z"/>
					</g>
					<g>
						<path class="st0" d="M9.7,101.7c-0.2,0-0.4-0.2-0.4-0.4c0-0.2,0.2-0.4,0.4-0.4l4.5-0.2c0.2,0,0.4,0.2,0.4,0.4
							c0,0.2-0.2,0.4-0.4,0.4L9.7,101.7C9.7,101.7,9.7,101.7,9.7,101.7z"/>
					</g>
					<g>
						<path class="st0" d="M9.2,98.4c-0.2,0-0.3-0.1-0.4-0.3L6.5,92c-0.1-0.2,0-0.4,0.2-0.5c0.2-0.1,0.4,0,0.5,0.2l2.4,6.1
							c0.1,0.2,0,0.4-0.2,0.5C9.3,98.3,9.3,98.4,9.2,98.4z"/>
					</g>
				</g>
				<g>
					<path class="st0" d="M8.9,97.2c-0.1,0-0.3-0.1-0.4-0.2c-0.1-0.2,0-0.4,0.2-0.5l5-2.6c0.2-0.1,0.4,0,0.5,0.2
						c0.1,0.2,0,0.4-0.2,0.5l-5,2.6C9,97.1,9,97.2,8.9,97.2z"/>
				</g>
			</g>
			<g>
				<path class="st1" d="M27.8,83.3"/>
			</g>
			<g>
				<g>
					<path class="st0" d="M20,98.6c-0.5,0-1-0.1-1.5-0.3c-1-0.4-1.7-1.2-2.1-2.1c-0.4-1-0.4-2,0-3c0.4-0.9,1.2-1.7,2.1-2.1
						l26.3-10.4c1-0.4,2-0.4,3,0c1,0.4,1.7,1.2,2.1,2.1l0,0c0.8,2-0.2,4.2-2.2,5L21.4,98.4C20.9,98.5,20.4,98.6,20,98.6z M46.3,81.2
						c-0.4,0-0.8,0.1-1.1,0.2L18.8,91.9c-0.8,0.3-1.4,0.9-1.7,1.6c-0.3,0.8-0.3,1.6,0,2.4c0.3,0.8,0.9,1.4,1.6,1.7
						c0.8,0.3,1.6,0.3,2.4,0l26.3-10.4c1.6-0.6,2.3-2.4,1.7-4c-0.3-0.8-0.9-1.4-1.6-1.7C47.1,81.3,46.7,81.2,46.3,81.2z"/>
				</g>
				<g>
					<g>
						<path class="st0" d="M36.2,93.5c-0.2,0-0.3-0.1-0.4-0.3l-0.4-0.9c-0.1-0.2,0-0.4,0.2-0.5c0.2-0.1,0.4,0,0.5,0.2l0.4,0.9
							c0.1,0.2,0,0.4-0.2,0.5C36.3,93.5,36.3,93.5,36.2,93.5z"/>
					</g>
					<g>
						<path class="st0" d="M37.2,93.2c-0.2,0-0.3-0.1-0.4-0.3L36.4,92c-0.1-0.2,0-0.4,0.2-0.5c0.2-0.1,0.4,0,0.5,0.2l0.4,0.9
							c0.1,0.2,0,0.4-0.2,0.5C37.3,93.1,37.2,93.2,37.2,93.2z"/>
					</g>
					<g>
						<path class="st0" d="M38.1,92.8c-0.2,0-0.3-0.1-0.4-0.3l-0.4-0.9c-0.1-0.2,0-0.4,0.2-0.5c0.2-0.1,0.4,0,0.5,0.2l0.4,0.9
							c0.1,0.2,0,0.4-0.2,0.5C38.2,92.8,38.2,92.8,38.1,92.8z"/>
					</g>
					<g>
						<path class="st0" d="M39.1,92.4c-0.2,0-0.3-0.1-0.4-0.3l-0.4-0.9c-0.1-0.2,0-0.4,0.2-0.5c0.2-0.1,0.4,0,0.5,0.2l0.4,0.9
							c0.1,0.2,0,0.4-0.2,0.5C39.2,92.4,39.1,92.4,39.1,92.4z"/>
					</g>
					<g>
						<path class="st0" d="M40,92c-0.2,0-0.3-0.1-0.4-0.3l-0.4-0.9c-0.1-0.2,0-0.4,0.2-0.5c0.2-0.1,0.4,0,0.5,0.2l0.4,0.9
							c0.1,0.2,0,0.4-0.2,0.5C40.1,92,40.1,92,40,92z"/>
					</g>
					<g>
						<path class="st0" d="M41,91.6c-0.2,0-0.3-0.1-0.4-0.3l-0.4-0.9c-0.1-0.2,0-0.4,0.2-0.5c0.2-0.1,0.4,0,0.5,0.2l0.4,0.9
							c0.1,0.2,0,0.4-0.2,0.5C41.1,91.6,41,91.6,41,91.6z"/>
					</g>
					<g>
						<path class="st0" d="M41.9,91.3c-0.2,0-0.3-0.1-0.4-0.3l-0.4-0.9c-0.1-0.2,0-0.4,0.2-0.5c0.2-0.1,0.4,0,0.5,0.2l0.4,0.9
							c0.1,0.2,0,0.4-0.2,0.5C42,91.3,42,91.3,41.9,91.3z"/>
					</g>
					<g>
						<path class="st0" d="M42.9,90.9c-0.2,0-0.3-0.1-0.4-0.3l-0.4-0.9c-0.1-0.2,0-0.4,0.2-0.5c0.2-0.1,0.4,0,0.5,0.2l0.4,0.9
							c0.1,0.2,0,0.4-0.2,0.5C43,90.9,42.9,90.9,42.9,90.9z"/>
					</g>
					<g>
						<path class="st0" d="M43.8,90.5c-0.2,0-0.3-0.1-0.4-0.3l-0.4-0.9c-0.1-0.2,0-0.4,0.2-0.5c0.2-0.1,0.4,0,0.5,0.2l0.4,0.9
							c0.1,0.2,0,0.4-0.2,0.5C43.9,90.5,43.9,90.5,43.8,90.5z"/>
					</g>
					<g>
						<path class="st0" d="M44.8,90.1c-0.2,0-0.3-0.1-0.4-0.3L44,88.9c-0.1-0.2,0-0.4,0.2-0.5c0.2-0.1,0.4,0,0.5,0.2l0.4,0.9
							c0.1,0.2,0,0.4-0.2,0.5C44.9,90.1,44.8,90.1,44.8,90.1z"/>
					</g>
					<g>
						<path class="st0" d="M45.7,89.8c-0.2,0-0.3-0.1-0.4-0.3L45,88.6c-0.1-0.2,0-0.4,0.2-0.5c0.2-0.1,0.4,0,0.5,0.2l0.4,0.9
							c0.1,0.2,0,0.4-0.2,0.5C45.8,89.7,45.8,89.8,45.7,89.8z"/>
					</g>
					<g>
						<path class="st0" d="M46.7,89.4c-0.2,0-0.3-0.1-0.4-0.3l-0.4-0.9c-0.1-0.2,0-0.4,0.2-0.5c0.2-0.1,0.4,0,0.5,0.2l0.4,0.9
							c0.1,0.2,0,0.4-0.2,0.5C46.8,89.4,46.7,89.4,46.7,89.4z"/>
					</g>
					<g>
						<path class="st0" d="M47.6,89c-0.2,0-0.3-0.1-0.4-0.3l-0.4-0.9c-0.1-0.2,0-0.4,0.2-0.5c0.2-0.1,0.4,0,0.5,0.2l0.4,0.9
							c0.1,0.2,0,0.4-0.2,0.5C47.7,89,47.7,89,47.6,89z"/>
					</g>
					<g>
						<g>
							<path class="st0" d="M49.5,83.4c-0.2,0-0.3-0.1-0.4-0.3c-0.1-0.2,0-0.4,0.2-0.5l0.9-0.4c0.2-0.1,0.4,0,0.5,0.2
								c0.1,0.2,0,0.4-0.2,0.5l-0.9,0.4C49.6,83.4,49.5,83.4,49.5,83.4z"/>
						</g>
						<g>
							<path class="st0" d="M45.6,81.3c-0.2,0-0.3-0.1-0.4-0.3L45,80c0-0.2,0.1-0.4,0.3-0.5c0.2,0,0.4,0.1,0.5,0.3l0.2,1
								C46,81,45.9,81.2,45.6,81.3C45.6,81.3,45.6,81.3,45.6,81.3z"/>
						</g>
						<g>
							<path class="st0" d="M48.3,81.8c-0.1,0-0.1,0-0.2-0.1c-0.2-0.1-0.2-0.4-0.1-0.6l0.5-0.8c0.1-0.2,0.4-0.2,0.6-0.1
								c0.2,0.1,0.2,0.4,0.1,0.6l-0.5,0.8C48.5,81.7,48.4,81.8,48.3,81.8z"/>
						</g>
						<g>
							<path class="st0" d="M49,82.6c-0.1,0-0.2,0-0.3-0.1c-0.1-0.2-0.1-0.4,0.1-0.6l0.8-0.6c0.2-0.1,0.4-0.1,0.6,0.1
								s0.1,0.4-0.1,0.6l-0.8,0.6C49.2,82.5,49.1,82.6,49,82.6z"/>
						</g>
						<g>
							<path class="st0" d="M46.5,81.3c-0.2,0-0.4-0.2-0.4-0.4l0-1c0-0.2,0.2-0.4,0.4-0.4c0,0,0,0,0,0c0.2,0,0.4,0.2,0.4,0.4l0,1
								C46.9,81.1,46.7,81.3,46.5,81.3C46.5,81.3,46.5,81.3,46.5,81.3z"/>
						</g>
						<g>
							<path class="st0" d="M47.4,81.4c0,0-0.1,0-0.1,0c-0.2-0.1-0.3-0.3-0.3-0.5l0.3-1c0.1-0.2,0.3-0.3,0.5-0.3
								c0.2,0.1,0.3,0.3,0.3,0.5l-0.3,1C47.8,81.3,47.6,81.4,47.4,81.4z"/>
						</g>
					</g>
					<g>
						<g>
							<path class="st0" d="M48.6,88.5c-0.1,0-0.3-0.1-0.3-0.2l-0.5-0.9c-0.1-0.2-0.1-0.4,0.1-0.5c0.2-0.1,0.4-0.1,0.5,0.1l0.5,0.9
								c0.1,0.2,0.1,0.4-0.1,0.5C48.7,88.5,48.7,88.5,48.6,88.5z"/>
						</g>
						<g>
							<path class="st0" d="M50.7,85.7C50.7,85.7,50.6,85.7,50.7,85.7l-1.1-0.3c-0.2-0.1-0.3-0.3-0.3-0.5c0.1-0.2,0.3-0.3,0.5-0.3
								l1,0.2c0.2,0.1,0.3,0.3,0.3,0.5C51,85.6,50.9,85.7,50.7,85.7z"/>
						</g>
						<g>
							<path class="st0" d="M49.7,84.4c-0.2,0-0.4-0.2-0.4-0.4c0-0.2,0.2-0.4,0.4-0.4l1-0.1c0.2,0,0.4,0.2,0.4,0.4
								c0,0.2-0.2,0.4-0.4,0.4L49.7,84.4C49.8,84.4,49.7,84.4,49.7,84.4z"/>
						</g>
						<g>
							<path class="st0" d="M49.5,87.8c-0.1,0-0.2,0-0.3-0.1l-0.7-0.7c-0.1-0.2-0.1-0.4,0-0.6c0.2-0.1,0.4-0.1,0.6,0l0.7,0.7
								c0.1,0.2,0.1,0.4,0,0.6C49.7,87.8,49.6,87.8,49.5,87.8z"/>
						</g>
						<g>
							<path class="st0" d="M50.3,86.8c-0.1,0-0.1,0-0.2,0l-0.9-0.5c-0.2-0.1-0.3-0.3-0.2-0.5c0.1-0.2,0.3-0.3,0.5-0.2l0.9,0.5
								c0.2,0.1,0.3,0.3,0.2,0.5C50.6,86.7,50.4,86.8,50.3,86.8z"/>
						</g>
					</g>
					<g>
						<path class="st0" d="M33.3,94.7c-0.2,0-0.3-0.1-0.4-0.3l-0.4-0.9c-0.1-0.2,0-0.4,0.2-0.5c0.2-0.1,0.4,0,0.5,0.2l0.4,0.9
							c0.1,0.2,0,0.4-0.2,0.5C33.4,94.7,33.4,94.7,33.3,94.7z"/>
					</g>
					<g>
						<path class="st0" d="M34.3,94.3c-0.2,0-0.3-0.1-0.4-0.3l-0.4-0.9c-0.1-0.2,0-0.4,0.2-0.5c0.2-0.1,0.4,0,0.5,0.2l0.4,0.9
							c0.1,0.2,0,0.4-0.2,0.5C34.4,94.3,34.3,94.3,34.3,94.3z"/>
					</g>
					<g>
						<path class="st0" d="M35.3,93.9c-0.2,0-0.3-0.1-0.4-0.3l-0.4-0.9c-0.1-0.2,0-0.4,0.2-0.5c0.2-0.1,0.4,0,0.5,0.2l0.4,0.9
							c0.1,0.2,0,0.4-0.2,0.5C35.3,93.9,35.3,93.9,35.3,93.9z"/>
					</g>
					<g>
						<path class="st0" d="M32.4,95c-0.2,0-0.3-0.1-0.4-0.3l-0.4-0.9c-0.1-0.2,0-0.4,0.2-0.5c0.2-0.1,0.4,0,0.5,0.2l0.4,0.9
							c0.1,0.2,0,0.4-0.2,0.5C32.5,95,32.4,95,32.4,95z"/>
					</g>
					<g>
						<path class="st0" d="M31.4,95.4c-0.2,0-0.3-0.1-0.4-0.3l-0.4-0.9c-0.1-0.2,0-0.4,0.2-0.5c0.2-0.1,0.4,0,0.5,0.2l0.4,0.9
							c0.1,0.2,0,0.4-0.2,0.5C31.5,95.4,31.5,95.4,31.4,95.4z"/>
					</g>
					<g>
						<path class="st0" d="M30.5,95.8c-0.2,0-0.3-0.1-0.4-0.3l-0.4-0.9c-0.1-0.2,0-0.4,0.2-0.5c0.2-0.1,0.4,0,0.5,0.2l0.4,0.9
							c0.1,0.2,0,0.4-0.2,0.5C30.6,95.8,30.5,95.8,30.5,95.8z"/>
					</g>
					<g>
						<path class="st0" d="M29.5,96.2c-0.2,0-0.3-0.1-0.4-0.3L28.8,95c-0.1-0.2,0-0.4,0.2-0.5c0.2-0.1,0.4,0,0.5,0.2l0.4,0.9
							c0.1,0.2,0,0.4-0.2,0.5C29.6,96.2,29.6,96.2,29.5,96.2z"/>
					</g>
					<g>
						<path class="st0" d="M28.6,96.6c-0.2,0-0.3-0.1-0.4-0.3l-0.4-0.9c-0.1-0.2,0-0.4,0.2-0.5c0.2-0.1,0.4,0,0.5,0.2L29,96
							c0.1,0.2,0,0.4-0.2,0.5C28.7,96.5,28.6,96.6,28.6,96.6z"/>
					</g>
					<g>
						<path class="st0" d="M27.6,96.9c-0.2,0-0.3-0.1-0.4-0.3l-0.4-0.9c-0.1-0.2,0-0.4,0.2-0.5c0.2-0.1,0.4,0,0.5,0.2l0.4,0.9
							c0.1,0.2,0,0.4-0.2,0.5C27.7,96.9,27.7,96.9,27.6,96.9z"/>
					</g>
					<g>
						<path class="st0" d="M26.7,97.3c-0.2,0-0.3-0.1-0.4-0.3L26,96.1c-0.1-0.2,0-0.4,0.2-0.5c0.2-0.1,0.4,0,0.5,0.2l0.4,0.9
							c0.1,0.2,0,0.4-0.2,0.5C26.8,97.3,26.7,97.3,26.7,97.3z"/>
					</g>
					<g>
						<path class="st0" d="M25.7,97.7c-0.2,0-0.3-0.1-0.4-0.3L25,96.5c-0.1-0.2,0-0.4,0.2-0.5c0.2-0.1,0.4,0,0.5,0.2l0.4,0.9
							c0.1,0.2,0,0.4-0.2,0.5C25.8,97.7,25.8,97.7,25.7,97.7z"/>
					</g>
					<g>
						<path class="st0" d="M24.8,98.1c-0.2,0-0.3-0.1-0.4-0.3l-0.4-0.9c-0.1-0.2,0-0.4,0.2-0.5c0.2-0.1,0.4,0,0.5,0.2l0.4,0.9
							c0.1,0.2,0,0.4-0.2,0.5C24.9,98.1,24.8,98.1,24.8,98.1z"/>
					</g>
					<g>
						<path class="st0" d="M23.8,98.4c-0.2,0-0.3-0.1-0.4-0.3l-0.4-0.9c-0.1-0.2,0-0.4,0.2-0.5c0.2-0.1,0.4,0,0.5,0.2l0.4,0.9
							c0.1,0.2,0,0.4-0.2,0.5C23.9,98.4,23.9,98.4,23.8,98.4z"/>
					</g>
					<g>
						<path class="st0" d="M22.9,98.8c-0.2,0-0.3-0.1-0.4-0.3l-0.4-0.9c-0.1-0.2,0-0.4,0.2-0.5c0.2-0.1,0.4,0,0.5,0.2l0.4,0.9
							c0.1,0.2,0,0.4-0.2,0.5C23,98.8,22.9,98.8,22.9,98.8z"/>
					</g>
					<g>
						<path class="st0" d="M21.9,99.2c-0.2,0-0.3-0.1-0.4-0.3L21.2,98c-0.1-0.2,0-0.4,0.2-0.5c0.2-0.1,0.4,0,0.5,0.2l0.4,0.9
							c0.1,0.2,0,0.4-0.2,0.5C22,99.2,22,99.2,21.9,99.2z"/>
					</g>
					<g>
						<path class="st0" d="M33.2,86.1c-0.2,0-0.3-0.1-0.4-0.3l-0.4-0.9c-0.1-0.2,0-0.4,0.2-0.5c0.2-0.1,0.4,0,0.5,0.2l0.4,0.9
							c0.1,0.2,0,0.4-0.2,0.5C33.3,86.1,33.3,86.1,33.2,86.1z"/>
					</g>
					<g>
						<path class="st0" d="M34.2,85.7c-0.2,0-0.3-0.1-0.4-0.3l-0.4-0.9c-0.1-0.2,0-0.4,0.2-0.5c0.2-0.1,0.4,0,0.5,0.2l0.4,0.9
							c0.1,0.2,0,0.4-0.2,0.5C34.3,85.7,34.2,85.7,34.2,85.7z"/>
					</g>
					<g>
						<path class="st0" d="M35.1,85.3c-0.2,0-0.3-0.1-0.4-0.3l-0.4-0.9c-0.1-0.2,0-0.4,0.2-0.5c0.2-0.1,0.4,0,0.5,0.2l0.4,0.9
							c0.1,0.2,0,0.4-0.2,0.5C35.2,85.3,35.2,85.3,35.1,85.3z"/>
					</g>
					<g>
						<path class="st0" d="M36.1,84.9c-0.2,0-0.3-0.1-0.4-0.3l-0.4-0.9c-0.1-0.2,0-0.4,0.2-0.5c0.2-0.1,0.4,0,0.5,0.2l0.4,0.9
							c0.1,0.2,0,0.4-0.2,0.5C36.2,84.9,36.1,84.9,36.1,84.9z"/>
					</g>
					<g>
						<path class="st0" d="M37,84.6c-0.2,0-0.3-0.1-0.4-0.3l-0.4-0.9c-0.1-0.2,0-0.4,0.2-0.5c0.2-0.1,0.4,0,0.5,0.2l0.4,0.9
							c0.1,0.2,0,0.4-0.2,0.5C37.1,84.5,37.1,84.6,37,84.6z"/>
					</g>
					<g>
						<path class="st0" d="M38,84.2c-0.2,0-0.3-0.1-0.4-0.3L37.2,83c-0.1-0.2,0-0.4,0.2-0.5c0.2-0.1,0.4,0,0.5,0.2l0.4,0.9
							c0.1,0.2,0,0.4-0.2,0.5C38.1,84.2,38,84.2,38,84.2z"/>
					</g>
					<g>
						<path class="st0" d="M38.9,83.8c-0.2,0-0.3-0.1-0.4-0.3l-0.4-0.9c-0.1-0.2,0-0.4,0.2-0.5c0.2-0.1,0.4,0,0.5,0.2l0.4,0.9
							c0.1,0.2,0,0.4-0.2,0.5C39,83.8,39,83.8,38.9,83.8z"/>
					</g>
					<g>
						<path class="st0" d="M39.9,83.4c-0.2,0-0.3-0.1-0.4-0.3l-0.4-0.9c-0.1-0.2,0-0.4,0.2-0.5c0.2-0.1,0.4,0,0.5,0.2l0.4,0.9
							c0.1,0.2,0,0.4-0.2,0.5C40,83.4,39.9,83.4,39.9,83.4z"/>
					</g>
					<g>
						<path class="st0" d="M40.8,83c-0.2,0-0.3-0.1-0.4-0.3l-0.4-0.9c-0.1-0.2,0-0.4,0.2-0.5c0.2-0.1,0.4,0,0.5,0.2l0.4,0.9
							c0.1,0.2,0,0.4-0.2,0.5C40.9,83,40.9,83,40.8,83z"/>
					</g>
					<g>
						<path class="st0" d="M41.8,82.7c-0.2,0-0.3-0.1-0.4-0.3L41,81.5c-0.1-0.2,0-0.4,0.2-0.5c0.2-0.1,0.4,0,0.5,0.2l0.4,0.9
							c0.1,0.2,0,0.4-0.2,0.5C41.9,82.7,41.8,82.7,41.8,82.7z"/>
					</g>
					<g>
						<path class="st0" d="M42.7,82.3c-0.2,0-0.3-0.1-0.4-0.3L42,81.1c-0.1-0.2,0-0.4,0.2-0.5c0.2-0.1,0.4,0,0.5,0.2l0.4,0.9
							c0.1,0.2,0,0.4-0.2,0.5C42.8,82.3,42.8,82.3,42.7,82.3z"/>
					</g>
					<g>
						<path class="st0" d="M43.7,81.9c-0.2,0-0.3-0.1-0.4-0.3L43,80.7c-0.1-0.2,0-0.4,0.2-0.5c0.2-0.1,0.4,0,0.5,0.2l0.4,0.9
							c0.1,0.2,0,0.4-0.2,0.5C43.8,81.9,43.7,81.9,43.7,81.9z"/>
					</g>
					<g>
						<path class="st0" d="M44.6,81.5c-0.2,0-0.3-0.1-0.4-0.3l-0.4-0.9c-0.1-0.2,0-0.4,0.2-0.5c0.2-0.1,0.4,0,0.5,0.2L45,81
							c0.1,0.2,0,0.4-0.2,0.5C44.7,81.5,44.7,81.5,44.6,81.5z"/>
					</g>
					<g>
						<path class="st0" d="M30.4,87.2c-0.2,0-0.3-0.1-0.4-0.3L29.6,86c-0.1-0.2,0-0.4,0.2-0.5c0.2-0.1,0.4,0,0.5,0.2l0.4,0.9
							c0.1,0.2,0,0.4-0.2,0.5C30.5,87.2,30.4,87.2,30.4,87.2z"/>
					</g>
					<g>
						<path class="st0" d="M31.3,86.8c-0.2,0-0.3-0.1-0.4-0.3l-0.4-0.9c-0.1-0.2,0-0.4,0.2-0.5c0.2-0.1,0.4,0,0.5,0.2l0.4,0.9
							c0.1,0.2,0,0.4-0.2,0.5C31.4,86.8,31.4,86.8,31.3,86.8z"/>
					</g>
					<g>
						<path class="st0" d="M32.3,86.4c-0.2,0-0.3-0.1-0.4-0.3l-0.4-0.9c-0.1-0.2,0-0.4,0.2-0.5c0.2-0.1,0.4,0,0.5,0.2l0.4,0.9
							c0.1,0.2,0,0.4-0.2,0.5C32.4,86.4,32.3,86.4,32.3,86.4z"/>
					</g>
					<g>
						<path class="st0" d="M29.4,87.6c-0.2,0-0.3-0.1-0.4-0.3l-0.4-0.9c-0.1-0.2,0-0.4,0.2-0.5c0.2-0.1,0.4,0,0.5,0.2l0.4,0.9
							c0.1,0.2,0,0.4-0.2,0.5C29.5,87.6,29.5,87.6,29.4,87.6z"/>
					</g>
					<g>
						<path class="st0" d="M28.5,88c-0.2,0-0.3-0.1-0.4-0.3l-0.4-0.9c-0.1-0.2,0-0.4,0.2-0.5c0.2-0.1,0.4,0,0.5,0.2l0.4,0.9
							c0.1,0.2,0,0.4-0.2,0.5C28.6,87.9,28.5,88,28.5,88z"/>
					</g>
					<g>
						<path class="st0" d="M27.5,88.3c-0.2,0-0.3-0.1-0.4-0.3l-0.4-0.9c-0.1-0.2,0-0.4,0.2-0.5c0.2-0.1,0.4,0,0.5,0.2l0.4,0.9
							c0.1,0.2,0,0.4-0.2,0.5C27.6,88.3,27.6,88.3,27.5,88.3z"/>
					</g>
					<g>
						<path class="st0" d="M26.6,88.7c-0.2,0-0.3-0.1-0.4-0.3l-0.4-0.9c-0.1-0.2,0-0.4,0.2-0.5c0.2-0.1,0.4,0,0.5,0.2l0.4,0.9
							c0.1,0.2,0,0.4-0.2,0.5C26.7,88.7,26.6,88.7,26.6,88.7z"/>
					</g>
					<g>
						<path class="st0" d="M25.6,89.1c-0.2,0-0.3-0.1-0.4-0.3l-0.4-0.9c-0.1-0.2,0-0.4,0.2-0.5c0.2-0.1,0.4,0,0.5,0.2l0.4,0.9
							c0.1,0.2,0,0.4-0.2,0.5C25.7,89.1,25.7,89.1,25.6,89.1z"/>
					</g>
					<g>
						<path class="st0" d="M24.7,89.5c-0.2,0-0.3-0.1-0.4-0.3l-0.4-0.9c-0.1-0.2,0-0.4,0.2-0.5c0.2-0.1,0.4,0,0.5,0.2l0.4,0.9
							c0.1,0.2,0,0.4-0.2,0.5C24.8,89.5,24.7,89.5,24.7,89.5z"/>
					</g>
					<g>
						<path class="st0" d="M23.7,89.8c-0.2,0-0.3-0.1-0.4-0.3L23,88.7c-0.1-0.2,0-0.4,0.2-0.5c0.2-0.1,0.4,0,0.5,0.2l0.4,0.9
							c0.1,0.2,0,0.4-0.2,0.5C23.8,89.8,23.8,89.8,23.7,89.8z"/>
					</g>
					<g>
						<path class="st0" d="M22.8,90.2c-0.2,0-0.3-0.1-0.4-0.3L22,89c-0.1-0.2,0-0.4,0.2-0.5c0.2-0.1,0.4,0,0.5,0.2l0.4,0.9
							c0.1,0.2,0,0.4-0.2,0.5C22.9,90.2,22.8,90.2,22.8,90.2z"/>
					</g>
					<g>
						<path class="st0" d="M21.8,90.6c-0.2,0-0.3-0.1-0.4-0.3l-0.4-0.9c-0.1-0.2,0-0.4,0.2-0.5c0.2-0.1,0.4,0,0.5,0.2l0.4,0.9
							c0.1,0.2,0,0.4-0.2,0.5C21.9,90.6,21.9,90.6,21.8,90.6z"/>
					</g>
					<g>
						<path class="st0" d="M20.9,91c-0.2,0-0.3-0.1-0.4-0.3l-0.4-0.9c-0.1-0.2,0-0.4,0.2-0.5c0.2-0.1,0.4,0,0.5,0.2l0.4,0.9
							c0.1,0.2,0,0.4-0.2,0.5C21,91,20.9,91,20.9,91z"/>
					</g>
					<g>
						<path class="st0" d="M19.9,91.4c-0.2,0-0.3-0.1-0.4-0.3l-0.4-0.9c-0.1-0.2,0-0.4,0.2-0.5c0.2-0.1,0.4,0,0.5,0.2l0.4,0.9
							c0.1,0.2,0,0.4-0.2,0.5C20,91.3,20,91.4,19.9,91.4z"/>
					</g>
					<g>
						<path class="st0" d="M19,91.7c-0.2,0-0.3-0.1-0.4-0.3l-0.4-0.9c-0.1-0.2,0-0.4,0.2-0.5c0.2-0.1,0.4,0,0.5,0.2l0.4,0.9
							c0.1,0.2,0,0.4-0.2,0.5C19.1,91.7,19,91.7,19,91.7z"/>
					</g>
					<g>
						<g>
							<path class="st0" d="M15.7,96.9c-0.2,0-0.3-0.1-0.4-0.3c-0.1-0.2,0-0.4,0.2-0.5l0.9-0.4c0.2-0.1,0.4,0,0.5,0.2
								c0.1,0.2,0,0.4-0.2,0.5l-0.9,0.4C15.8,96.8,15.7,96.9,15.7,96.9z"/>
						</g>
						<g>
							<path class="st0" d="M18,92.2c-0.1,0-0.3-0.1-0.3-0.2l-0.5-0.9c-0.1-0.2-0.1-0.4,0.1-0.5c0.2-0.1,0.4-0.1,0.5,0.1l0.5,0.9
								c0.1,0.2,0.1,0.4-0.1,0.5C18.2,92.2,18.1,92.2,18,92.2z"/>
						</g>
						<g>
							<path class="st0" d="M16.4,94.5C16.3,94.5,16.3,94.5,16.4,94.5l-1.1-0.3c-0.2-0.1-0.3-0.3-0.3-0.5c0.1-0.2,0.3-0.3,0.5-0.3
								l1,0.2c0.2,0.1,0.3,0.3,0.3,0.5C16.7,94.4,16.5,94.5,16.4,94.5z"/>
						</g>
						<g>
							<path class="st0" d="M15.4,95.6c-0.2,0-0.4-0.2-0.4-0.4c0-0.2,0.2-0.4,0.4-0.4l1-0.1c0.2,0,0.4,0.2,0.4,0.4
								c0,0.2-0.2,0.4-0.4,0.4L15.4,95.6C15.4,95.6,15.4,95.6,15.4,95.6z"/>
						</g>
						<g>
							<path class="st0" d="M17.3,92.9c-0.1,0-0.2,0-0.3-0.1L16.3,92c-0.1-0.2-0.1-0.4,0-0.6c0.2-0.1,0.4-0.1,0.6,0l0.7,0.7
								c0.1,0.2,0.1,0.4,0,0.6C17.5,92.8,17.4,92.9,17.3,92.9z"/>
						</g>
						<g>
							<path class="st0" d="M16.7,93.6c-0.1,0-0.1,0-0.2,0l-0.9-0.5c-0.2-0.1-0.3-0.3-0.2-0.5c0.1-0.2,0.4-0.3,0.5-0.2l0.9,0.5
								c0.2,0.1,0.3,0.3,0.2,0.5C17,93.5,16.9,93.6,16.7,93.6z"/>
						</g>
					</g>
					<g>
						<g>
							<path class="st0" d="M20.8,99.6c-0.2,0-0.3-0.1-0.4-0.3l-0.2-1c0-0.2,0.1-0.4,0.3-0.5c0.2,0,0.4,0.1,0.5,0.3l0.2,1
								C21.2,99.3,21.1,99.5,20.8,99.6C20.8,99.6,20.8,99.6,20.8,99.6z"/>
						</g>
						<g>
							<path class="st0" d="M17.3,99c-0.1,0-0.1,0-0.2-0.1c-0.2-0.1-0.2-0.4-0.1-0.6l0.5-0.9c0.1-0.2,0.4-0.2,0.6-0.1
								c0.2,0.1,0.2,0.4,0.1,0.6l-0.5,0.9C17.5,98.9,17.4,99,17.3,99z"/>
						</g>
						<g>
							<path class="st0" d="M16.3,98c-0.1,0-0.2,0-0.3-0.1c-0.1-0.2-0.1-0.4,0.1-0.6l0.8-0.6c0.2-0.1,0.4-0.1,0.6,0.1
								c0.1,0.2,0.1,0.4-0.1,0.6l-0.8,0.6C16.5,98,16.4,98,16.3,98z"/>
						</g>
						<g>
							<path class="st0" d="M19.6,99.7c-0.2,0-0.4-0.2-0.4-0.4l0-1c0-0.2,0.2-0.4,0.4-0.4c0,0,0,0,0,0c0.2,0,0.4,0.2,0.4,0.4l0,1
								C20,99.5,19.8,99.7,19.6,99.7C19.6,99.7,19.6,99.7,19.6,99.7z"/>
						</g>
						<g>
							<path class="st0" d="M18.4,99.5c0,0-0.1,0-0.1,0C18,99.4,17.9,99.2,18,99l0.3-1c0.1-0.2,0.3-0.3,0.5-0.3
								c0.2,0.1,0.3,0.3,0.3,0.5l-0.3,1C18.7,99.4,18.5,99.5,18.4,99.5z"/>
						</g>
					</g>
				</g>
			</g>
			<g>
				<g>
					<g>
						<path class="st0" d="M45.9,87.4c-0.4,0-0.8-0.1-1.2-0.2c-0.7-0.3-1.3-0.9-1.6-1.6c-0.3-0.7-0.3-1.5,0-2.2
							c0.3-0.7,0.9-1.3,1.6-1.6c0.7-0.3,1.5-0.3,2.2,0c0.7,0.3,1.3,0.9,1.6,1.6l0,0c0.6,1.5-0.1,3.2-1.6,3.8
							C46.6,87.3,46.2,87.4,45.9,87.4z M45.9,82.4c-0.3,0-0.5,0.1-0.8,0.2c-0.5,0.2-0.9,0.6-1.2,1.1c-0.2,0.5-0.2,1.1,0,1.6
							c0.2,0.5,0.6,0.9,1.1,1.2c0.5,0.2,1.1,0.2,1.6,0c1.1-0.4,1.6-1.7,1.2-2.7l0,0c-0.2-0.5-0.6-0.9-1.1-1.2
							C46.5,82.5,46.2,82.4,45.9,82.4z"/>
					</g>
					<g>
						<path class="st0" d="M45.9,86.5c-0.8,0-1.5-0.5-1.8-1.2c-0.4-1,0.1-2.1,1.1-2.5c1-0.4,2.1,0.1,2.5,1.1c0.2,0.5,0.2,1,0,1.5
							c-0.2,0.5-0.6,0.9-1.1,1C46.4,86.4,46.1,86.5,45.9,86.5z M45.9,83.3c-0.1,0-0.3,0-0.4,0.1c-0.6,0.2-0.9,0.9-0.7,1.5
							c0.2,0.6,0.9,0.9,1.5,0.6c0.3-0.1,0.5-0.3,0.6-0.6s0.1-0.6,0-0.9C46.8,83.6,46.3,83.3,45.9,83.3z"/>
					</g>
				</g>
				<g>
					<g>
						<path class="st0" d="M40.6,89.5c-0.4,0-0.8-0.1-1.2-0.2c-0.7-0.3-1.3-0.9-1.6-1.6c-0.6-1.5,0.1-3.2,1.6-3.8
							c1.5-0.6,3.2,0.1,3.8,1.6c0.6,1.5-0.1,3.2-1.6,3.8C41.3,89.5,40.9,89.5,40.6,89.5z M40.6,84.5c-0.3,0-0.5,0-0.8,0.1
							c-1.1,0.4-1.6,1.7-1.2,2.7c0.2,0.5,0.6,0.9,1.1,1.2c0.5,0.2,1.1,0.2,1.6,0c1.1-0.4,1.6-1.7,1.2-2.7l0,0
							C42.2,85,41.4,84.5,40.6,84.5z"/>
					</g>
					<g>
						<path class="st0" d="M40.6,88.6c-0.3,0-0.5-0.1-0.8-0.2c-0.5-0.2-0.9-0.6-1-1.1c-0.2-0.5-0.2-1,0-1.5c0.2-0.5,0.6-0.9,1.1-1
							c0.5-0.2,1-0.2,1.5,0c0.5,0.2,0.9,0.6,1,1.1l0,0c0.2,0.5,0.2,1,0,1.5s-0.6,0.9-1.1,1C41.1,88.5,40.8,88.6,40.6,88.6z
							 M40.6,85.4c-0.1,0-0.3,0-0.4,0.1c-0.3,0.1-0.5,0.3-0.6,0.6s-0.1,0.6,0,0.9c0.1,0.3,0.3,0.5,0.6,0.6c0.3,0.1,0.6,0.1,0.9,0
							c0.3-0.1,0.5-0.3,0.6-0.6c0.1-0.3,0.1-0.6,0-0.9l0,0c-0.1-0.3-0.3-0.5-0.6-0.6C40.9,85.5,40.7,85.4,40.6,85.4z"/>
					</g>
				</g>
				<g>
					<g>
						<path class="st0" d="M35.3,91.6c-0.4,0-0.8-0.1-1.2-0.2c-0.7-0.3-1.3-0.9-1.6-1.6c-0.3-0.7-0.3-1.5,0-2.2
							c0.3-0.7,0.9-1.3,1.6-1.6c0.7-0.3,1.5-0.3,2.2,0c0.7,0.3,1.3,0.9,1.6,1.6l0,0c0.3,0.7,0.3,1.5,0,2.2c-0.3,0.7-0.9,1.3-1.6,1.6
							C36,91.6,35.6,91.6,35.3,91.6z M35.3,86.6c-0.3,0-0.5,0.1-0.8,0.2c-0.5,0.2-0.9,0.6-1.2,1.1s-0.2,1.1,0,1.6
							c0.2,0.5,0.6,0.9,1.1,1.2s1.1,0.2,1.6,0c0.5-0.2,0.9-0.6,1.2-1.1c0.2-0.5,0.2-1.1,0-1.6l0,0c-0.2-0.5-0.6-0.9-1.1-1.2
							C35.8,86.7,35.5,86.6,35.3,86.6z"/>
					</g>
					<g>
						<path class="st0" d="M35.3,90.7c-0.8,0-1.5-0.5-1.8-1.2c-0.2-0.5-0.2-1,0-1.5c0.2-0.5,0.6-0.9,1.1-1c0.5-0.2,1-0.2,1.5,0
							c0.5,0.2,0.9,0.6,1,1.1l0,0c0.2,0.5,0.2,1,0,1.5c-0.2,0.5-0.6,0.9-1.1,1C35.7,90.6,35.5,90.7,35.3,90.7z M35.3,87.6
							c-0.1,0-0.3,0-0.4,0.1c-0.3,0.1-0.5,0.3-0.6,0.6c-0.1,0.3-0.1,0.6,0,0.9c0.2,0.6,0.9,0.9,1.5,0.7c0.3-0.1,0.5-0.3,0.6-0.6
							s0.1-0.6,0-0.9l0,0c-0.1-0.3-0.3-0.5-0.6-0.6C35.6,87.6,35.4,87.6,35.3,87.6z"/>
					</g>
				</g>
				<g>
					<g>
						<path class="st0" d="M29.9,93.7c-1.2,0-2.3-0.7-2.7-1.8c-0.6-1.5,0.1-3.2,1.6-3.8c1.5-0.6,3.2,0.1,3.8,1.6l0,0
							c0.6,1.5-0.1,3.2-1.6,3.8C30.7,93.7,30.3,93.7,29.9,93.7z M29.9,88.7c-0.3,0-0.5,0-0.8,0.1c-1.1,0.4-1.6,1.7-1.2,2.7
							c0.4,1.1,1.7,1.6,2.7,1.2c1.1-0.4,1.6-1.7,1.2-2.7C31.6,89.2,30.8,88.7,29.9,88.7z"/>
					</g>
					<g>
						<path class="st0" d="M29.9,92.8c-0.8,0-1.5-0.5-1.8-1.2c-0.2-0.5-0.2-1,0-1.5c0.2-0.5,0.6-0.9,1.1-1c1-0.4,2.1,0.1,2.5,1.1
							c0.2,0.5,0.2,1,0,1.5c-0.2,0.5-0.6,0.9-1.1,1C30.4,92.8,30.2,92.8,29.9,92.8z M29.9,89.7c-0.1,0-0.3,0-0.4,0.1
							c-0.3,0.1-0.5,0.3-0.6,0.6s-0.1,0.6,0,0.9c0.2,0.6,0.9,0.9,1.5,0.7c0.3-0.1,0.5-0.3,0.6-0.6s0.1-0.6,0-0.9
							C30.8,89.9,30.4,89.7,29.9,89.7z"/>
					</g>
				</g>
				<g>
					<g>
						<path class="st0" d="M24.6,95.9c-0.4,0-0.8-0.1-1.2-0.2c-0.7-0.3-1.3-0.9-1.6-1.6c-0.6-1.5,0.1-3.2,1.6-3.8
							c0.7-0.3,1.5-0.3,2.2,0c0.7,0.3,1.3,0.9,1.6,1.6l0,0c0.6,1.5-0.1,3.2-1.6,3.8C25.4,95.8,25,95.9,24.6,95.9z M24.6,90.8
							c-0.3,0-0.5,0.1-0.8,0.2c-1.1,0.4-1.6,1.7-1.2,2.7c0.2,0.5,0.6,0.9,1.1,1.2c0.5,0.2,1.1,0.2,1.6,0c1.1-0.4,1.6-1.7,1.2-2.7
							c-0.2-0.5-0.6-0.9-1.1-1.2C25.2,90.9,24.9,90.8,24.6,90.8z"/>
					</g>
					<g>
						<path class="st0" d="M24.6,94.9c-0.3,0-0.5-0.1-0.8-0.2c-0.5-0.2-0.9-0.6-1-1.1c-0.4-1,0.1-2.1,1.1-2.5c1-0.4,2.1,0.1,2.5,1.1
							c0.2,0.5,0.2,1,0,1.5c-0.2,0.5-0.6,0.9-1.1,1C25.1,94.9,24.9,94.9,24.6,94.9z M24.6,91.8c-0.1,0-0.3,0-0.4,0.1
							c-0.6,0.2-0.9,0.9-0.7,1.5c0.1,0.3,0.3,0.5,0.6,0.6c0.3,0.1,0.6,0.1,0.9,0c0.3-0.1,0.5-0.3,0.6-0.6s0.1-0.6,0-0.9
							C25.5,92.1,25.1,91.8,24.6,91.8z"/>
					</g>
				</g>
				<g>
					<path class="st0" d="M19.6,96.9c-0.1,0-0.1,0-0.2,0c-0.2,0-0.3-0.2-0.4-0.3L19,96c0,0,0,0-0.1,0l-0.5,0.3
						c-0.2,0.1-0.4,0.1-0.5,0c-0.1-0.1-0.2-0.2-0.2-0.2c-0.1-0.1-0.1-0.3,0-0.5L18,95c0,0,0,0,0,0c0,0,0,0,0,0l-0.6-0.1
						c-0.2,0-0.3-0.2-0.3-0.4c0-0.1,0-0.2,0-0.3c0-0.2,0.2-0.3,0.3-0.4l0.6-0.1c0,0,0,0,0-0.1l-0.3-0.5c-0.1-0.2-0.1-0.4,0-0.5
						c0.1-0.1,0.2-0.2,0.2-0.2c0.1-0.1,0.3-0.1,0.5,0l0.5,0.3c0,0,0,0,0,0c0,0,0,0,0,0l0.1-0.6c0-0.2,0.2-0.3,0.4-0.3
						c0.1,0,0.2,0,0.3,0c0.2,0,0.3,0.2,0.4,0.3l0.1,0.6c0,0,0,0,0.1,0l0.5-0.3c0.2-0.1,0.4-0.1,0.5,0c0.1,0.1,0.2,0.2,0.2,0.2
						c0.1,0.1,0.1,0.3,0,0.5l-0.3,0.5c0,0,0,0,0,0c0,0,0,0,0,0l0.6,0.1c0.2,0,0.3,0.2,0.3,0.4c0,0.1,0,0.2,0,0.3
						c0,0.2-0.2,0.3-0.3,0.4L21.2,95c0,0,0,0,0,0.1l0.3,0.5c0.1,0.2,0.1,0.4,0,0.5c-0.1,0.1-0.2,0.2-0.2,0.2c-0.1,0.1-0.3,0.1-0.5,0
						L20.3,96c0,0,0,0,0,0c0,0,0,0,0,0l-0.1,0.6c0,0.2-0.2,0.3-0.4,0.3C19.7,96.9,19.7,96.9,19.6,96.9z M18.9,95.1
						c0.1,0,0.1,0,0.2,0.1c0.1,0.1,0.2,0.1,0.3,0.1c0.1,0,0.1,0,0.2,0.1c0.1,0,0.1-0.1,0.2-0.1c0.1,0,0.1,0,0.2,0
						c0.1,0,0.1,0,0.2-0.1c0.1,0,0.1-0.1,0.2-0.1c0-0.1,0-0.1,0.1-0.2c0.1-0.1,0.1-0.2,0.1-0.3c0-0.1,0-0.1,0.1-0.2
						c0-0.1-0.1-0.1-0.1-0.2c0-0.1,0-0.1,0-0.2c0-0.1,0-0.1-0.1-0.2c0-0.1-0.1-0.1-0.1-0.2c-0.1,0-0.1,0-0.2-0.1
						c-0.1-0.1-0.2-0.1-0.3-0.1c-0.1,0-0.1,0-0.2-0.1c-0.1,0-0.1,0.1-0.2,0.1c-0.1,0-0.1,0-0.2,0c-0.1,0-0.1,0-0.2,0.1
						c-0.1,0-0.1,0.1-0.2,0.1c0,0.1,0,0.1-0.1,0.2c-0.1,0.1-0.1,0.2-0.1,0.3c0,0.1,0,0.1-0.1,0.2c0,0.1,0.1,0.1,0.1,0.2
						c0,0.1,0,0.1,0,0.2c0,0.1,0,0.1,0.1,0.2C18.9,94.9,18.9,95,18.9,95.1z"/>
				</g>
			</g>
			<g>
				<path class="st0" d="M46.4,62.5c-0.5,0-0.9-0.2-1.2-0.5c-0.2-0.1-0.2-0.4,0-0.6c0.1-0.2,0.4-0.2,0.6,0c0.2,0.2,0.5,0.3,0.7,0.3
					c0.3,0,0.6-0.1,0.8-0.3c0.2-0.2,0.3-0.5,0.3-0.8c0-0.1,0-0.3-0.1-0.4c-0.2-0.4-0.6-0.6-1-0.6c0,0,0,0,0,0c-0.4,0-0.8,0.2-1,0.6
					c-0.1,0.2-0.3,0.3-0.5,0.2c-0.2-0.1-0.3-0.3-0.2-0.5c0.3-0.6,1-1,1.7-1c0.7,0,1.4,0.4,1.8,1.1c0.1,0.2,0.2,0.5,0.2,0.7
					c0,0.5-0.2,1-0.5,1.3C47.4,62.3,46.9,62.5,46.4,62.5C46.4,62.5,46.4,62.5,46.4,62.5z"/>
			</g>
			<g>
				<path class="st0" d="M17.2,77.1c-0.1,0-0.2,0-0.3-0.1c-0.1-0.1-0.2-0.3-0.1-0.4l2.6-7c0-0.1,0.1-0.2,0.2-0.2l20.6-9.7
					c0.1,0,0.1,0,0.2,0l5.7-0.1c0.1,0,0.2,0,0.3,0.1c0.1,0.1,0.6,0.6,0.5,1.3c0,0.3-0.2,0.7-0.8,1c0,0-0.1,0-0.1,0l-5,0.5L24.3,72.7
					l0,0.9c0,0.2-0.1,0.3-0.2,0.4l-6.7,3.2C17.3,77.1,17.3,77.1,17.2,77.1z M20.1,70.1L17.9,76l5.5-2.6l0-0.9c0-0.1,0.1-0.3,0.2-0.3
					l16.8-10.4c0.1,0,0.1-0.1,0.2-0.1l5-0.5c0.2-0.1,0.3-0.2,0.3-0.4c0-0.2-0.1-0.4-0.2-0.5l-5.4,0.1L20.1,70.1z"/>
			</g>
			<g>
				<path class="st0" d="M21.3,85.3c-0.1,0-0.1,0-0.2,0l-3.6-1.9c-0.1,0-0.1-0.1-0.2-0.2c-0.2-0.4-1.7-4.3-1.8-4.8
					c-0.2-0.6,0.2-1.1,0.4-1.3c0,0,0,0,0.1,0c0,0,5.4-2.6,7.2-3.5c1.1-0.6,1.8-0.1,2,0.3l2.2,5.6c0.1,0.2,0,0.4-0.2,0.5
					c-0.2,0.1-0.4,0-0.5-0.2l-2.2-5.5c0,0-0.1-0.1-0.3-0.1c-0.1,0-0.4,0-0.6,0.2c-1.7,0.8-6.5,3.2-7.1,3.5c0,0.1-0.2,0.2-0.1,0.5
					c0.1,0.4,1.1,2.9,1.7,4.6l3.5,1.8c0.2,0.1,0.3,0.3,0.2,0.5C21.5,85.3,21.4,85.3,21.3,85.3z"/>
			</g>
			<g>
				<path class="st0" d="M47.8,60.3c-0.2,0-0.3-0.1-0.4-0.2c-0.1-0.2,0-0.4,0.2-0.5l29-12.2c0.2-0.1,0.4,0,0.5,0.2
					c0.1,0.2,0,0.4-0.2,0.5l-29,12.2C47.9,60.3,47.8,60.3,47.8,60.3z"/>
			</g>
			<g>
				<g>
					<g>
						<path class="st0" d="M17.3,90c-0.1,0-0.1,0-0.2,0c-0.1,0-0.2-0.1-0.2-0.2l-0.3-0.9c-0.1-0.2,0-0.4,0.2-0.5l8.2-3.2
							c0.2-0.1,0.4,0,0.5,0.2c0.1,0.2,0,0.4-0.2,0.5l-7.8,3.1l0,0.1l7.7-3c0.2-0.1,0.4,0,0.5,0.2c0.1,0.2,0,0.4-0.2,0.5l-8,3.2
							C17.4,89.9,17.3,90,17.3,90z"/>
					</g>
					<g>
						<path class="st0" d="M17.9,88.7c-0.2,0-0.3-0.1-0.4-0.3l-0.4-1c-0.1-0.2,0-0.4,0.1-0.5l8.1-5.4c0.2-0.1,0.4-0.1,0.6,0.1
							c0.1,0.2,0.1,0.4-0.1,0.6L18,87.5l0.3,0.7c0.1,0.2,0,0.4-0.2,0.5C18,88.7,17.9,88.7,17.9,88.7z"/>
					</g>
					<g>
						<path class="st1" d="M27.8,82.6"/>
					</g>
					<g>
						<path class="st0" d="M22,87.1c-0.2,0-0.3-0.1-0.4-0.3l-0.7-1.8c-0.1-0.2,0-0.4,0.2-0.5c0.2-0.1,0.4,0,0.5,0.2l0.7,1.8
							c0.1,0.2,0,0.4-0.2,0.5C22.1,87.1,22,87.1,22,87.1z"/>
					</g>
					<g>
						<path class="st0" d="M28.5,78.4c-0.2,0-0.3-0.1-0.4-0.3l-1.4-3.6c0-0.1,0-0.2,0-0.3l0.8-1.6c0.1-0.1,0.2-0.2,0.4-0.2
							c0.2,0,0.3,0.1,0.4,0.3L30,77c0.1,0.2,0,0.4-0.2,0.5c-0.2,0.1-0.4,0-0.5-0.2l-1.4-3.5l-0.3,0.7l1.4,3.4c0.1,0.2,0,0.4-0.2,0.5
							C28.6,78.4,28.5,78.4,28.5,78.4z"/>
					</g>
					<g>
						<path class="st0" d="M12.4,85c-0.3,0-0.5-0.2-0.8-0.4c-0.4-0.4-0.4-0.9-0.1-1.2c0.1-0.1,0.3-0.1,0.4-0.1
							c0.2,0,0.5,0.2,0.7,0.4c0.4,0.4,0.4,0.9,0.1,1.2C12.6,84.9,12.5,85,12.4,85z M12.1,84.4L12.1,84.4L12.1,84.4z"/>
					</g>
					<g>
						<path class="st0" d="M25.3,86.8c-0.1,0-0.1,0-0.2,0c-0.1-0.1-0.2-0.2-0.2-0.3c0-0.1-1.3-6.8,5-9.6c0.1,0,0.2,0,0.3,0
							c0.1,0.1,0.2,0.1,0.2,0.3c0.5,2,1.8,5.4,2.8,5.8c0.2,0.1,0.3,0.2,0.3,0.4c0,0.2-0.1,0.3-0.3,0.4l-7.8,3.1
							C25.4,86.8,25.3,86.8,25.3,86.8z M29.8,77.7c-4.4,2.2-4.3,6.6-4.2,8.1l6.7-2.7C31.1,81.9,30.1,78.9,29.8,77.7z"/>
					</g>
					<g>
						<path class="st0" d="M26,84.5c-0.2,0-0.3-0.1-0.4-0.3c-0.1-0.2,0.1-0.4,0.3-0.5l4.7-1.3c0.2-0.1,0.4,0.1,0.5,0.3
							c0.1,0.2-0.1,0.4-0.3,0.5l-4.7,1.3C26.1,84.5,26,84.5,26,84.5z"/>
					</g>
					<g>
						<path class="st0" d="M26.8,82.3c-0.2,0-0.4-0.2-0.4-0.4c0-0.2,0.2-0.4,0.4-0.4l3.6-0.1c0.2,0,0.4,0.2,0.4,0.4
							c0,0.2-0.2,0.4-0.4,0.4L26.8,82.3C26.8,82.3,26.8,82.3,26.8,82.3z"/>
					</g>
					<g>
						<path class="st0" d="M30.1,81.2c0,0-0.1,0-0.1,0l-2-0.6c-0.2-0.1-0.3-0.3-0.3-0.5c0.1-0.2,0.3-0.3,0.5-0.3l2,0.6
							c0.2,0.1,0.3,0.3,0.3,0.5C30.4,81.1,30.3,81.2,30.1,81.2z"/>
					</g>
					<g>
						<path class="st0" d="M20.5,87.7c0,0-0.1,0-0.1,0l-7.9-2.9c-0.2-0.1-0.3-0.3-0.2-0.5s0.3-0.3,0.5-0.2l7.9,2.9
							c0.2,0.1,0.3,0.3,0.2,0.5C20.8,87.6,20.7,87.7,20.5,87.7z"/>
					</g>
				</g>
				<g>
					<g>
						<g>
							<path class="st0" d="M36.1,69.8c-0.2,0-0.3-0.1-0.4-0.3l-0.4-1c-0.2-0.5,0.1-1.1,0.6-1.3c0.3-0.1,0.5-0.1,0.8,0
								c0.3,0.1,0.4,0.3,0.5,0.6l0.4,1.1c0.1,0.2,0,0.4-0.2,0.5c-0.2,0.1-0.4,0-0.5-0.2l-0.4-1.1c0-0.1-0.1-0.1-0.1-0.1
								c-0.1,0-0.1,0-0.2,0c-0.1,0-0.2,0.2-0.1,0.3l0.4,1c0.1,0.2,0,0.4-0.2,0.5C36.2,69.7,36.1,69.8,36.1,69.8z"/>
						</g>
					</g>
					<g>
						<path class="st0" d="M34.3,82.5c-0.8,0-1.2-0.2-1.3-0.3c-1.4-1.2-3.6-9.4-3.8-10.4c-0.1-0.2,0.1-0.4,0.2-0.5
							c1.3-0.5,7.8-3,9-2.9c3.9,0.4,7.7,9.3,7.9,9.7c0.1,0.2,0,0.4-0.2,0.5C39.1,81.9,35.8,82.5,34.3,82.5z M30,72
							c0.9,3.5,2.6,8.9,3.5,9.6c1,0.8,7.4-1.5,11.9-3.5c-1.2-2.7-4.3-8.6-7.1-8.9C37.6,69.2,33,70.9,30,72z"/>
					</g>
					<g>
						<path class="st0" d="M35.5,79.9c-0.6,0-1.1-0.1-1.3-0.3c-1.6-1.1-2.7-6.5-2.8-7.2c0-0.2,0.1-0.4,0.2-0.4
							c1.3-0.5,5.6-2.2,6.4-2c3.2,0.6,5.8,6.2,5.9,6.5c0,0.1,0,0.2,0,0.3c-0.1,0.1-0.1,0.2-0.3,0.2l-2.4,0.6l0.1,0.8
							c0,0.2-0.1,0.4-0.3,0.4C40.3,79.1,37.4,79.9,35.5,79.9z M32.2,72.7c0.4,1.8,1.3,5.6,2.4,6.3c0.6,0.4,3.7-0.2,5.8-0.7l-0.1-0.8
							c0-0.2,0.1-0.4,0.3-0.4l2.3-0.6c-0.7-1.3-2.8-5.2-5.1-5.6C37.5,70.8,34.7,71.7,32.2,72.7z"/>
					</g>
					<g>
						<path class="st0" d="M30.4,71.7c-0.2,0-0.3-0.1-0.4-0.3l-0.3-0.7c-0.1-0.2,0-0.4,0.2-0.5c0.2-0.1,0.4,0,0.5,0.2l0.3,0.7
							c0.1,0.2,0,0.4-0.2,0.5C30.5,71.7,30.5,71.7,30.4,71.7z"/>
					</g>
					<g>
						<path class="st0" d="M30.1,71.1c-0.1,0-0.2,0-0.2-0.1c-0.2-0.1-0.4-0.3-0.5-0.6c-0.1-0.3-0.1-0.6,0-0.8
							c0.1-0.1,0.2-0.3,0.3-0.3c0.4-0.1,0.8,0.1,1,0.6c0.1,0.3,0.1,0.6,0,0.8c-0.1,0.1-0.2,0.3-0.3,0.3C30.2,71,30.2,71.1,30.1,71.1
							z"/>
					</g>
					<g>
						<path class="st0" d="M43.8,73c-0.1,0-0.1,0-0.2,0c-0.1,0-0.2-0.1-0.2-0.2l-1.6-4c0-0.1,0-0.2,0-0.3c0-0.1,0.1-0.2,0.2-0.2
							l1-0.4c0.2-0.1,0.4,0,0.5,0.2l1.6,4c0,0.1,0,0.2,0,0.3c0,0.1-0.1,0.2-0.2,0.2L44,73C43.9,73,43.9,73,43.8,73z M42.8,68.8
							l1.3,3.2l0.2-0.1L43,68.7L42.8,68.8z"/>
					</g>
					<g>
						<path class="st0" d="M42.7,75.3c-0.1,0-0.2,0-0.3-0.1c-0.2-0.2-0.2-0.4,0-0.6l1.3-1.4l-1.8-4.6c-0.3-0.1-1.6,0.2-2.9,0.7
							c-0.2,0.1-0.4,0-0.5-0.2c-0.1-0.2,0-0.4,0.2-0.5c1.5-0.6,3.4-1.2,3.9-0.4l2,5c0.1,0.1,0,0.3-0.1,0.4L43,75.2
							C42.9,75.3,42.8,75.3,42.7,75.3z"/>
					</g>
				</g>
			</g>
			<g>
				<g>
					<path class="st0" d="M47.7,78.2c-0.2,0-0.3-0.1-0.4-0.3c-0.1-0.2,0-0.4,0.2-0.5l7.3-2.8c0.2-0.1,0.4,0,0.5,0.2
						c0.1,0.2,0,0.4-0.2,0.5l-7.3,2.8C47.8,78.2,47.8,78.2,47.7,78.2z"/>
				</g>
				<g>
					<path class="st0" d="M51.9,80.6c-0.1,0-0.2,0-0.3-0.1c-0.1-0.2-0.1-0.4,0-0.6l4.2-3.8c0.2-0.1,0.4-0.1,0.6,0
						c0.1,0.2,0.1,0.4,0,0.6l-4.2,3.8C52.1,80.5,52,80.6,51.9,80.6z"/>
				</g>
				<g>
					<path class="st0" d="M49.4,79c-0.1,0-0.2,0-0.2-0.1c-0.2-0.1-0.2-0.4-0.1-0.6l3.9-5.5c0.1-0.2,0.4-0.2,0.6-0.1
						c0.2,0.1,0.2,0.4,0.1,0.6l-3.9,5.5C49.7,78.9,49.5,79,49.4,79z"/>
				</g>
				<g>
					<path class="st0" d="M56.9,77.6c-0.1,0-0.2,0-0.3-0.1l-3.9-4.6c-0.1-0.2-0.1-0.4,0-0.6c0.2-0.1,0.4-0.1,0.6,0l3.9,4.6
						c0.1,0.2,0.1,0.4,0,0.6C57.1,77.6,57,77.6,56.9,77.6z"/>
				</g>
				<g>
					<g>
						<path class="st0" d="M59.2,78.5c-0.1,0-0.2,0-0.3-0.1l-6.3-7.4c-0.1-0.1-0.1-0.2-0.1-0.4c0-0.1,0.1-0.2,0.3-0.3l4.9-1.7
							c0.2-0.1,0.3,0,0.4,0.1l0.4,0.5l2.5-2.1c0.1-0.1,0.3-0.1,0.4-0.1c0.1,0,0.2,0.2,0.3,0.3c0,0,0.4,1.8,1.2,2.8
							c0.9,1,2.9,2,2.9,2c0.1,0.1,0.2,0.2,0.2,0.3c0,0.1,0,0.3-0.1,0.4l-6.5,5.6C59.4,78.4,59.3,78.5,59.2,78.5z M55.3,72.8l4,4.7
							l5.8-4.9c-0.7-0.4-2-1.1-2.7-2c-0.7-0.8-1.1-1.8-1.3-2.5L55.3,72.8z M53.6,70.8l1.2,1.4l3.2-2.6l-0.2-0.3L53.6,70.8z"/>
					</g>
					<g>
						<path class="st0" d="M56.8,75.7c-0.1,0-0.2,0-0.3-0.1c-0.1-0.2-0.1-0.4,0-0.6l5.8-4.9c0.2-0.1,0.4-0.1,0.6,0
							c0.1,0.2,0.1,0.4,0,0.6l-5.8,4.9C57,75.7,56.9,75.7,56.8,75.7z"/>
					</g>
					<g>
						<path class="st0" d="M57.1,71.2c-0.1,0-0.2,0-0.3-0.1l-1-1.2c-0.1-0.2-0.1-0.4,0-0.6c0.2-0.1,0.4-0.1,0.6,0l1,1.2
							c0.1,0.2,0.1,0.4,0,0.6C57.3,71.2,57.2,71.2,57.1,71.2z"/>
					</g>
					<g>
						<path class="st0" d="M55.7,72.3c-0.1,0-0.2,0-0.3-0.1l-1.5-1.7c-0.1-0.2-0.1-0.4,0-0.6s0.4-0.1,0.6,0l1.5,1.7
							c0.1,0.2,0.1,0.4,0,0.6C55.8,72.3,55.8,72.3,55.7,72.3z"/>
					</g>
				</g>
			</g>
			<g>
				<path class="st0" d="M19.9,74.2c-0.1,0-0.2,0-0.3-0.1c-0.1-0.1-0.2-0.3-0.1-0.4l1.1-2.8c0-0.1,0.1-0.2,0.3-0.2
					c0.1,0,0.3,0,0.4,0.1l1.8,1.5c0.1,0.1,0.2,0.2,0.1,0.4c0,0.1-0.1,0.3-0.2,0.3L20,74.1C20,74.2,19.9,74.2,19.9,74.2z M21.1,71.6
					L20.6,73l1.4-0.7L21.1,71.6z"/>
			</g>
			<g>
				<path class="st0" d="M23.6,71.6c-0.1,0-0.2,0-0.3-0.1l-1.4-1.1c-0.1-0.1-0.2-0.2-0.1-0.4c0-0.1,0.1-0.3,0.2-0.3l12.4-5.8
					c0.2-0.1,0.4,0,0.5,0.2c0.1,0.2,0,0.4-0.1,0.5l-11,7C23.7,71.6,23.7,71.6,23.6,71.6z M22.9,70.2l0.7,0.6l5.4-3.4L22.9,70.2z"/>
			</g>
		</g>
		<g>
			<g>
				<g>
					<g>
						<path class="st0" d="M153,106.7c0,0-0.1,0-0.1,0l-4.8-1.9c-0.1,0-0.1-0.1-0.1-0.1l-2.2-2.3c-0.2-0.2-0.1-0.4,0-0.6
							c0.2-0.2,0.4-0.1,0.6,0l2.1,2.3l4.7,1.8c0.2,0.1,0.3,0.3,0.2,0.5C153.4,106.6,153.2,106.7,153,106.7z"/>
					</g>
					<g>
						<path class="st0" d="M147.3,104.4c-0.1,0-0.1,0-0.1,0l-5.2-2c-0.1,0-0.2-0.1-0.2-0.2c0-0.1,0-0.2,0-0.3c0,0,0.3-0.7,0.8-1.4
							c0.9-1.2,1.7-1.2,2.3-1c2,0.8,3.3,3,3.4,3.1c0.1,0.1,0.1,0.2,0,0.4l-0.5,1.3c0,0.1-0.1,0.2-0.2,0.2
							C147.4,104.4,147.4,104.4,147.3,104.4z M142.7,101.8l4.4,1.7l0.3-0.7c-0.3-0.5-1.4-2-2.9-2.6c-0.4-0.2-0.8,0.1-1.3,0.7
							C143,101.2,142.8,101.6,142.7,101.8z"/>
					</g>
					<g>
						<path class="st0" d="M149.7,105.1c-0.2,0-0.4-0.1-0.4-0.3c-0.2-1.3-0.9-2.5-1.3-3.2c-0.6-1-1.5-2.3-3.2-3
							c-1.2-0.5-2.3,1.5-2.7,2.3l0.5,0.2c0.2,0.1,0.3,0.3,0.2,0.5c-0.1,0.2-0.3,0.3-0.5,0.2l-0.9-0.3c-0.2-0.1-0.3-0.3-0.2-0.5
							c0.1-0.2,1.6-4,3.9-3.1c1.9,0.8,3,2.3,3.6,3.4c0.4,0.7,1.2,2,1.4,3.5C150.1,104.9,149.9,105.1,149.7,105.1
							C149.7,105.1,149.7,105.1,149.7,105.1z"/>
					</g>
					<g>
						<path class="st0" d="M145.9,99c-0.1,0-0.1,0-0.1,0l-1.7-0.7c-0.2-0.1-0.3-0.3-0.2-0.5l0.9-2.2c0.1-0.2,0.2-0.3,0.4-0.2
							l0.9,0.1c0.1,0,0.1,0,0.2,0.1l0.8,0.5c0.1,0.1,0.2,0.3,0.1,0.5l-0.9,2.2c0,0.1-0.1,0.2-0.2,0.2C146,99,145.9,99,145.9,99z
							 M144.7,97.7l0.9,0.4l0.6-1.5l-0.4-0.3l-0.5-0.1L144.7,97.7z"/>
					</g>
					<g>
						<path class="st0" d="M143.7,101.7C143.7,101.7,143.7,101.7,143.7,101.7l-4.5-0.2c-0.2,0-0.4-0.2-0.4-0.4
							c0-0.2,0.2-0.4,0.4-0.4l4.5,0.2c0.2,0,0.4,0.2,0.4,0.4C144.1,101.5,143.9,101.7,143.7,101.7z"/>
					</g>
					<g>
						<path class="st0" d="M144.2,98.4c0,0-0.1,0-0.1,0c-0.2-0.1-0.3-0.3-0.2-0.5l2.4-6.1c0.1-0.2,0.3-0.3,0.5-0.2
							c0.2,0.1,0.3,0.3,0.2,0.5l-2.4,6.1C144.5,98.3,144.4,98.4,144.2,98.4z"/>
					</g>
				</g>
				<g>
					<path class="st0" d="M144.5,97.2c-0.1,0-0.1,0-0.2,0l-5-2.6c-0.2-0.1-0.3-0.3-0.2-0.5c0.1-0.2,0.3-0.3,0.5-0.2l5,2.6
						c0.2,0.1,0.3,0.3,0.2,0.5C144.8,97.1,144.7,97.2,144.5,97.2z"/>
				</g>
			</g>
			<g>
				<path class="st1" d="M125.7,83.3"/>
			</g>
			<g>
				<g>
					<path class="st0" d="M133.5,98.6c-0.5,0-1-0.1-1.4-0.3l-26.3-10.4c-2-0.8-3-3-2.2-5l0,0c0.4-1,1.1-1.7,2.1-2.1
						c0.9-0.4,2-0.4,3,0l26.3,10.4c1,0.4,1.7,1.1,2.1,2.1s0.4,2,0,3C136.5,97.7,135,98.6,133.5,98.6z M104.3,83.2
						c-0.6,1.6,0.1,3.4,1.7,4l26.3,10.4c1.6,0.6,3.4-0.1,4-1.7c0.3-0.8,0.3-1.6,0-2.4c-0.3-0.8-0.9-1.3-1.7-1.6l-26.3-10.4
						c-0.8-0.3-1.6-0.3-2.4,0C105.2,81.8,104.6,82.4,104.3,83.2L104.3,83.2z"/>
				</g>
				<g>
					<g>
						<path class="st0" d="M117.2,93.5c0,0-0.1,0-0.1,0c-0.2-0.1-0.3-0.3-0.2-0.5l0.4-0.9c0.1-0.2,0.3-0.3,0.5-0.2
							c0.2,0.1,0.3,0.3,0.2,0.5l-0.4,0.9C117.5,93.4,117.4,93.5,117.2,93.5z"/>
					</g>
					<g>
						<path class="st0" d="M116.3,93.2c0,0-0.1,0-0.1,0c-0.2-0.1-0.3-0.3-0.2-0.5l0.4-0.9c0.1-0.2,0.3-0.3,0.5-0.2
							c0.2,0.1,0.3,0.3,0.2,0.5l-0.4,0.9C116.6,93.1,116.4,93.2,116.3,93.2z"/>
					</g>
					<g>
						<path class="st0" d="M115.3,92.8c0,0-0.1,0-0.1,0c-0.2-0.1-0.3-0.3-0.2-0.5l0.4-0.9c0.1-0.2,0.3-0.3,0.5-0.2
							c0.2,0.1,0.3,0.3,0.2,0.5l-0.4,0.9C115.6,92.7,115.5,92.8,115.3,92.8z"/>
					</g>
					<g>
						<path class="st0" d="M114.4,92.4c0,0-0.1,0-0.1,0c-0.2-0.1-0.3-0.3-0.2-0.5l0.4-0.9c0.1-0.2,0.3-0.3,0.5-0.2
							c0.2,0.1,0.3,0.3,0.2,0.5l-0.4,0.9C114.7,92.3,114.5,92.4,114.4,92.4z"/>
					</g>
					<g>
						<path class="st0" d="M113.4,92c0,0-0.1,0-0.1,0c-0.2-0.1-0.3-0.3-0.2-0.5l0.4-0.9c0.1-0.2,0.3-0.3,0.5-0.2
							c0.2,0.1,0.3,0.3,0.2,0.5l-0.4,0.9C113.7,91.9,113.6,92,113.4,92z"/>
					</g>
					<g>
						<path class="st0" d="M112.5,91.6c0,0-0.1,0-0.1,0c-0.2-0.1-0.3-0.3-0.2-0.5l0.4-0.9c0.1-0.2,0.3-0.3,0.5-0.2
							c0.2,0.1,0.3,0.3,0.2,0.5l-0.4,0.9C112.8,91.5,112.6,91.6,112.5,91.6z"/>
					</g>
					<g>
						<path class="st0" d="M111.5,91.3c0,0-0.1,0-0.1,0c-0.2-0.1-0.3-0.3-0.2-0.5l0.4-0.9c0.1-0.2,0.3-0.3,0.5-0.2
							c0.2,0.1,0.3,0.3,0.2,0.5l-0.4,0.9C111.8,91.2,111.7,91.3,111.5,91.3z"/>
					</g>
					<g>
						<path class="st0" d="M110.6,90.9c0,0-0.1,0-0.1,0c-0.2-0.1-0.3-0.3-0.2-0.5l0.4-0.9c0.1-0.2,0.3-0.3,0.5-0.2
							c0.2,0.1,0.3,0.3,0.2,0.5l-0.4,0.9C110.9,90.8,110.7,90.9,110.6,90.9z"/>
					</g>
					<g>
						<path class="st0" d="M109.6,90.5c0,0-0.1,0-0.1,0c-0.2-0.1-0.3-0.3-0.2-0.5l0.4-0.9c0.1-0.2,0.3-0.3,0.5-0.2
							c0.2,0.1,0.3,0.3,0.2,0.5l-0.4,0.9C109.9,90.4,109.8,90.5,109.6,90.5z"/>
					</g>
					<g>
						<path class="st0" d="M108.7,90.1c0,0-0.1,0-0.1,0c-0.2-0.1-0.3-0.3-0.2-0.5l0.4-0.9c0.1-0.2,0.3-0.3,0.5-0.2
							c0.2,0.1,0.3,0.3,0.2,0.5l-0.4,0.9C109,90,108.8,90.1,108.7,90.1z"/>
					</g>
					<g>
						<path class="st0" d="M107.7,89.8c0,0-0.1,0-0.1,0c-0.2-0.1-0.3-0.3-0.2-0.5l0.4-0.9c0.1-0.2,0.3-0.3,0.5-0.2
							c0.2,0.1,0.3,0.3,0.2,0.5l-0.4,0.9C108,89.7,107.9,89.8,107.7,89.8z"/>
					</g>
					<g>
						<path class="st0" d="M106.8,89.4c0,0-0.1,0-0.1,0c-0.2-0.1-0.3-0.3-0.2-0.5l0.4-0.9c0.1-0.2,0.3-0.3,0.5-0.2
							c0.2,0.1,0.3,0.3,0.2,0.5l-0.4,0.9C107.1,89.3,106.9,89.4,106.8,89.4z"/>
					</g>
					<g>
						<path class="st0" d="M105.8,89c0,0-0.1,0-0.1,0c-0.2-0.1-0.3-0.3-0.2-0.5l0.4-0.9c0.1-0.2,0.3-0.3,0.5-0.2
							c0.2,0.1,0.3,0.3,0.2,0.5l-0.4,0.9C106.1,88.9,106,89,105.8,89z"/>
					</g>
					<g>
						<g>
							<path class="st0" d="M104,83.4c0,0-0.1,0-0.1,0l-0.9-0.4c-0.2-0.1-0.3-0.3-0.2-0.5c0.1-0.2,0.3-0.3,0.5-0.2l0.9,0.4
								c0.2,0.1,0.3,0.3,0.2,0.5C104.3,83.3,104.1,83.4,104,83.4z"/>
						</g>
						<g>
							<path class="st0" d="M107.9,81.3C107.9,81.3,107.8,81.3,107.9,81.3c-0.3-0.1-0.4-0.3-0.4-0.5l0.2-1c0-0.2,0.3-0.4,0.5-0.3
								c0.2,0,0.4,0.3,0.3,0.5l-0.2,1C108.2,81.2,108.1,81.3,107.9,81.3z"/>
						</g>
						<g>
							<path class="st0" d="M105.2,81.8c-0.1,0-0.3-0.1-0.3-0.2l-0.5-0.8c-0.1-0.2-0.1-0.4,0.1-0.6c0.2-0.1,0.4-0.1,0.6,0.1l0.5,0.8
								c0.1,0.2,0.1,0.4-0.1,0.6C105.3,81.8,105.2,81.8,105.2,81.8z"/>
						</g>
						<g>
							<path class="st0" d="M104.4,82.6c-0.1,0-0.2,0-0.3-0.1l-0.8-0.6c-0.2-0.1-0.2-0.4-0.1-0.6c0.1-0.2,0.4-0.2,0.6-0.1l0.8,0.6
								c0.2,0.1,0.2,0.4,0.1,0.6C104.7,82.5,104.5,82.6,104.4,82.6z"/>
						</g>
						<g>
							<path class="st0" d="M106.9,81.3C106.9,81.3,106.9,81.3,106.9,81.3c-0.2,0-0.4-0.2-0.4-0.4l0-1c0-0.2,0.2-0.4,0.4-0.4
								c0.2,0,0.4,0.2,0.4,0.4l0,1C107.3,81.1,107.1,81.3,106.9,81.3z"/>
						</g>
						<g>
							<path class="st0" d="M106,81.4c-0.2,0-0.3-0.1-0.4-0.3l-0.3-1c-0.1-0.2,0-0.4,0.3-0.5c0.2-0.1,0.4,0,0.5,0.3l0.3,1
								c0.1,0.2,0,0.4-0.3,0.5C106.1,81.4,106,81.4,106,81.4z"/>
						</g>
					</g>
					<g>
						<g>
							<path class="st0" d="M104.8,88.5c-0.1,0-0.1,0-0.2-0.1c-0.2-0.1-0.3-0.4-0.1-0.5l0.5-0.9c0.1-0.2,0.4-0.3,0.5-0.1
								c0.2,0.1,0.3,0.4,0.1,0.5l-0.5,0.9C105.1,88.5,105,88.5,104.8,88.5z"/>
						</g>
						<g>
							<path class="st0" d="M102.7,85.7c-0.2,0-0.3-0.1-0.4-0.3c-0.1-0.2,0.1-0.4,0.3-0.5l1-0.2c0.2-0.1,0.4,0.1,0.5,0.3
								c0.1,0.2-0.1,0.4-0.3,0.5L102.7,85.7C102.8,85.7,102.8,85.7,102.7,85.7z"/>
						</g>
						<g>
							<path class="st0" d="M103.7,84.4C103.7,84.4,103.7,84.4,103.7,84.4l-1-0.1c-0.2,0-0.4-0.2-0.4-0.4c0-0.2,0.2-0.4,0.4-0.4
								l1,0.1c0.2,0,0.4,0.2,0.4,0.4C104.1,84.2,103.9,84.4,103.7,84.4z"/>
						</g>
						<g>
							<path class="st0" d="M103.9,87.8c-0.1,0-0.2,0-0.3-0.1c-0.2-0.1-0.2-0.4,0-0.6l0.7-0.7c0.1-0.2,0.4-0.2,0.6,0
								c0.2,0.1,0.2,0.4,0,0.6l-0.7,0.7C104.2,87.8,104,87.8,103.9,87.8z"/>
						</g>
						<g>
							<path class="st0" d="M103.2,86.8c-0.1,0-0.3-0.1-0.4-0.2c-0.1-0.2,0-0.4,0.2-0.5l0.9-0.5c0.2-0.1,0.4,0,0.5,0.2
								c0.1,0.2,0,0.4-0.2,0.5l-0.9,0.5C103.3,86.8,103.2,86.8,103.2,86.8z"/>
						</g>
					</g>
					<g>
						<path class="st0" d="M120.1,94.7c0,0-0.1,0-0.1,0c-0.2-0.1-0.3-0.3-0.2-0.5l0.4-0.9c0.1-0.2,0.3-0.3,0.5-0.2
							c0.2,0.1,0.3,0.3,0.2,0.5l-0.4,0.9C120.4,94.6,120.3,94.7,120.1,94.7z"/>
					</g>
					<g>
						<path class="st0" d="M119.1,94.3c0,0-0.1,0-0.1,0c-0.2-0.1-0.3-0.3-0.2-0.5l0.4-0.9c0.1-0.2,0.3-0.3,0.5-0.2
							c0.2,0.1,0.3,0.3,0.2,0.5l-0.4,0.9C119.4,94.2,119.3,94.3,119.1,94.3z"/>
					</g>
					<g>
						<path class="st0" d="M118.2,93.9c0,0-0.1,0-0.1,0c-0.2-0.1-0.3-0.3-0.2-0.5l0.4-0.9c0.1-0.2,0.3-0.3,0.5-0.2
							c0.2,0.1,0.3,0.3,0.2,0.5l-0.4,0.9C118.5,93.8,118.3,93.9,118.2,93.9z"/>
					</g>
					<g>
						<path class="st0" d="M121,95c0,0-0.1,0-0.1,0c-0.2-0.1-0.3-0.3-0.2-0.5l0.4-0.9c0.1-0.2,0.3-0.3,0.5-0.2
							c0.2,0.1,0.3,0.3,0.2,0.5l-0.4,0.9C121.4,94.9,121.2,95,121,95z"/>
					</g>
					<g>
						<path class="st0" d="M122,95.4c0,0-0.1,0-0.1,0c-0.2-0.1-0.3-0.3-0.2-0.5l0.4-0.9c0.1-0.2,0.3-0.3,0.5-0.2
							c0.2,0.1,0.3,0.3,0.2,0.5l-0.4,0.9C122.3,95.3,122.2,95.4,122,95.4z"/>
					</g>
					<g>
						<path class="st0" d="M122.9,95.8c0,0-0.1,0-0.1,0c-0.2-0.1-0.3-0.3-0.2-0.5l0.4-0.9c0.1-0.2,0.3-0.3,0.5-0.2
							c0.2,0.1,0.3,0.3,0.2,0.5l-0.4,0.9C123.3,95.7,123.1,95.8,122.9,95.8z"/>
					</g>
					<g>
						<path class="st0" d="M123.9,96.2c0,0-0.1,0-0.1,0c-0.2-0.1-0.3-0.3-0.2-0.5l0.4-0.9c0.1-0.2,0.3-0.3,0.5-0.2
							c0.2,0.1,0.3,0.3,0.2,0.5l-0.4,0.9C124.2,96.1,124.1,96.2,123.9,96.2z"/>
					</g>
					<g>
						<path class="st0" d="M124.8,96.6c0,0-0.1,0-0.1,0c-0.2-0.1-0.3-0.3-0.2-0.5l0.4-0.9c0.1-0.2,0.3-0.3,0.5-0.2
							c0.2,0.1,0.3,0.3,0.2,0.5l-0.4,0.9C125.2,96.5,125,96.6,124.8,96.6z"/>
					</g>
					<g>
						<path class="st0" d="M125.8,96.9c0,0-0.1,0-0.1,0c-0.2-0.1-0.3-0.3-0.2-0.5l0.4-0.9c0.1-0.2,0.3-0.3,0.5-0.2
							c0.2,0.1,0.3,0.3,0.2,0.5l-0.4,0.9C126.1,96.8,126,96.9,125.8,96.9z"/>
					</g>
					<g>
						<path class="st0" d="M126.7,97.3c0,0-0.1,0-0.1,0c-0.2-0.1-0.3-0.3-0.2-0.5l0.4-0.9c0.1-0.2,0.3-0.3,0.5-0.2
							c0.2,0.1,0.3,0.3,0.2,0.5l-0.4,0.9C127.1,97.2,126.9,97.3,126.7,97.3z"/>
					</g>
					<g>
						<path class="st0" d="M127.7,97.7c0,0-0.1,0-0.1,0c-0.2-0.1-0.3-0.3-0.2-0.5l0.4-0.9c0.1-0.2,0.3-0.3,0.5-0.2
							c0.2,0.1,0.3,0.3,0.2,0.5l-0.4,0.9C128,97.6,127.9,97.7,127.7,97.7z"/>
					</g>
					<g>
						<path class="st0" d="M128.6,98.1c0,0-0.1,0-0.1,0c-0.2-0.1-0.3-0.3-0.2-0.5l0.4-0.9c0.1-0.2,0.3-0.3,0.5-0.2
							c0.2,0.1,0.3,0.3,0.2,0.5l-0.4,0.9C129,98,128.8,98.1,128.6,98.1z"/>
					</g>
					<g>
						<path class="st0" d="M129.6,98.4c0,0-0.1,0-0.1,0c-0.2-0.1-0.3-0.3-0.2-0.5l0.4-0.9c0.1-0.2,0.3-0.3,0.5-0.2
							c0.2,0.1,0.3,0.3,0.2,0.5l-0.4,0.9C129.9,98.3,129.8,98.4,129.6,98.4z"/>
					</g>
					<g>
						<path class="st0" d="M130.5,98.8c0,0-0.1,0-0.1,0c-0.2-0.1-0.3-0.3-0.2-0.5l0.4-0.9c0.1-0.2,0.3-0.3,0.5-0.2
							c0.2,0.1,0.3,0.3,0.2,0.5l-0.4,0.9C130.9,98.7,130.7,98.8,130.5,98.8z"/>
					</g>
					<g>
						<path class="st0" d="M131.5,99.2c0,0-0.1,0-0.1,0c-0.2-0.1-0.3-0.3-0.2-0.5l0.4-0.9c0.1-0.2,0.3-0.3,0.5-0.2
							c0.2,0.1,0.3,0.3,0.2,0.5l-0.4,0.9C131.8,99.1,131.7,99.2,131.5,99.2z"/>
					</g>
					<g>
						<path class="st0" d="M120.2,86.1c0,0-0.1,0-0.1,0c-0.2-0.1-0.3-0.3-0.2-0.5l0.4-0.9c0.1-0.2,0.3-0.3,0.5-0.2
							c0.2,0.1,0.3,0.3,0.2,0.5l-0.4,0.9C120.5,86,120.4,86.1,120.2,86.1z"/>
					</g>
					<g>
						<path class="st0" d="M119.3,85.7c0,0-0.1,0-0.1,0c-0.2-0.1-0.3-0.3-0.2-0.5l0.4-0.9c0.1-0.2,0.3-0.3,0.5-0.2
							c0.2,0.1,0.3,0.3,0.2,0.5l-0.4,0.9C119.6,85.6,119.4,85.7,119.3,85.7z"/>
					</g>
					<g>
						<path class="st0" d="M118.3,85.3c0,0-0.1,0-0.1,0c-0.2-0.1-0.3-0.3-0.2-0.5l0.4-0.9c0.1-0.2,0.3-0.3,0.5-0.2
							c0.2,0.1,0.3,0.3,0.2,0.5l-0.4,0.9C118.6,85.2,118.5,85.3,118.3,85.3z"/>
					</g>
					<g>
						<path class="st0" d="M117.4,84.9c0,0-0.1,0-0.1,0c-0.2-0.1-0.3-0.3-0.2-0.5l0.4-0.9c0.1-0.2,0.3-0.3,0.5-0.2
							c0.2,0.1,0.3,0.3,0.2,0.5l-0.4,0.9C117.7,84.8,117.5,84.9,117.4,84.9z"/>
					</g>
					<g>
						<path class="st0" d="M116.4,84.6c0,0-0.1,0-0.1,0c-0.2-0.1-0.3-0.3-0.2-0.5l0.4-0.9c0.1-0.2,0.3-0.3,0.5-0.2
							c0.2,0.1,0.3,0.3,0.2,0.5l-0.4,0.9C116.7,84.5,116.6,84.6,116.4,84.6z"/>
					</g>
					<g>
						<path class="st0" d="M115.4,84.2c0,0-0.1,0-0.1,0c-0.2-0.1-0.3-0.3-0.2-0.5l0.4-0.9c0.1-0.2,0.3-0.3,0.5-0.2
							c0.2,0.1,0.3,0.3,0.2,0.5l-0.4,0.9C115.8,84.1,115.6,84.2,115.4,84.2z"/>
					</g>
					<g>
						<path class="st0" d="M114.5,83.8c0,0-0.1,0-0.1,0c-0.2-0.1-0.3-0.3-0.2-0.5l0.4-0.9c0.1-0.2,0.3-0.3,0.5-0.2
							c0.2,0.1,0.3,0.3,0.2,0.5l-0.4,0.9C114.8,83.7,114.7,83.8,114.5,83.8z"/>
					</g>
					<g>
						<path class="st0" d="M113.5,83.4c0,0-0.1,0-0.1,0c-0.2-0.1-0.3-0.3-0.2-0.5l0.4-0.9c0.1-0.2,0.3-0.3,0.5-0.2
							c0.2,0.1,0.3,0.3,0.2,0.5l-0.4,0.9C113.9,83.3,113.7,83.4,113.5,83.4z"/>
					</g>
					<g>
						<path class="st0" d="M112.6,83c0,0-0.1,0-0.1,0c-0.2-0.1-0.3-0.3-0.2-0.5l0.4-0.9c0.1-0.2,0.3-0.3,0.5-0.2
							c0.2,0.1,0.3,0.3,0.2,0.5l-0.4,0.9C112.9,83,112.8,83,112.6,83z"/>
					</g>
					<g>
						<path class="st0" d="M111.6,82.7c0,0-0.1,0-0.1,0c-0.2-0.1-0.3-0.3-0.2-0.5l0.4-0.9c0.1-0.2,0.3-0.3,0.5-0.2
							c0.2,0.1,0.3,0.3,0.2,0.5l-0.4,0.9C112,82.6,111.8,82.7,111.6,82.7z"/>
					</g>
					<g>
						<path class="st0" d="M110.7,82.3c0,0-0.1,0-0.1,0c-0.2-0.1-0.3-0.3-0.2-0.5l0.4-0.9c0.1-0.2,0.3-0.3,0.5-0.2
							c0.2,0.1,0.3,0.3,0.2,0.5l-0.4,0.9C111,82.2,110.9,82.3,110.7,82.3z"/>
					</g>
					<g>
						<path class="st0" d="M109.7,81.9c0,0-0.1,0-0.1,0c-0.2-0.1-0.3-0.3-0.2-0.5l0.4-0.9c0.1-0.2,0.3-0.3,0.5-0.2
							c0.2,0.1,0.3,0.3,0.2,0.5l-0.4,0.9C110.1,81.8,109.9,81.9,109.7,81.9z"/>
					</g>
					<g>
						<path class="st0" d="M108.8,81.5c0,0-0.1,0-0.1,0c-0.2-0.1-0.3-0.3-0.2-0.5l0.4-0.9c0.1-0.2,0.3-0.3,0.5-0.2
							c0.2,0.1,0.3,0.3,0.2,0.5l-0.4,0.9C109.1,81.4,109,81.5,108.8,81.5z"/>
					</g>
					<g>
						<path class="st0" d="M123.1,87.2c0,0-0.1,0-0.1,0c-0.2-0.1-0.3-0.3-0.2-0.5l0.4-0.9c0.1-0.2,0.3-0.3,0.5-0.2
							c0.2,0.1,0.3,0.3,0.2,0.5l-0.4,0.9C123.4,87.1,123.2,87.2,123.1,87.2z"/>
					</g>
					<g>
						<path class="st0" d="M122.1,86.8c0,0-0.1,0-0.1,0c-0.2-0.1-0.3-0.3-0.2-0.5l0.4-0.9c0.1-0.2,0.3-0.3,0.5-0.2
							c0.2,0.1,0.3,0.3,0.2,0.5l-0.4,0.9C122.4,86.7,122.3,86.8,122.1,86.8z"/>
					</g>
					<g>
						<path class="st0" d="M121.2,86.4c0,0-0.1,0-0.1,0c-0.2-0.1-0.3-0.3-0.2-0.5l0.4-0.9c0.1-0.2,0.3-0.3,0.5-0.2
							c0.2,0.1,0.3,0.3,0.2,0.5l-0.4,0.9C121.5,86.3,121.3,86.4,121.2,86.4z"/>
					</g>
					<g>
						<path class="st0" d="M124,87.6c0,0-0.1,0-0.1,0c-0.2-0.1-0.3-0.3-0.2-0.5l0.4-0.9c0.1-0.2,0.3-0.3,0.5-0.2
							c0.2,0.1,0.3,0.3,0.2,0.5l-0.4,0.9C124.3,87.5,124.2,87.6,124,87.6z"/>
					</g>
					<g>
						<path class="st0" d="M125,88c0,0-0.1,0-0.1,0c-0.2-0.1-0.3-0.3-0.2-0.5l0.4-0.9c0.1-0.2,0.3-0.3,0.5-0.2
							c0.2,0.1,0.3,0.3,0.2,0.5l-0.4,0.9C125.3,87.9,125.1,88,125,88z"/>
					</g>
					<g>
						<path class="st0" d="M125.9,88.3c0,0-0.1,0-0.1,0c-0.2-0.1-0.3-0.3-0.2-0.5l0.4-0.9c0.1-0.2,0.3-0.3,0.5-0.2
							c0.2,0.1,0.3,0.3,0.2,0.5l-0.4,0.9C126.2,88.2,126.1,88.3,125.9,88.3z"/>
					</g>
					<g>
						<path class="st0" d="M126.9,88.7c0,0-0.1,0-0.1,0c-0.2-0.1-0.3-0.3-0.2-0.5l0.4-0.9c0.1-0.2,0.3-0.3,0.5-0.2
							c0.2,0.1,0.3,0.3,0.2,0.5l-0.4,0.9C127.2,88.6,127,88.7,126.9,88.7z"/>
					</g>
					<g>
						<path class="st0" d="M127.8,89.1c0,0-0.1,0-0.1,0c-0.2-0.1-0.3-0.3-0.2-0.5l0.4-0.9c0.1-0.2,0.3-0.3,0.5-0.2
							c0.2,0.1,0.3,0.3,0.2,0.5l-0.4,0.9C128.1,89,128,89.1,127.8,89.1z"/>
					</g>
					<g>
						<path class="st0" d="M128.8,89.5c0,0-0.1,0-0.1,0c-0.2-0.1-0.3-0.3-0.2-0.5l0.4-0.9c0.1-0.2,0.3-0.3,0.5-0.2
							c0.2,0.1,0.3,0.3,0.2,0.5l-0.4,0.9C129.1,89.4,128.9,89.5,128.8,89.5z"/>
					</g>
					<g>
						<path class="st0" d="M129.7,89.8c0,0-0.1,0-0.1,0c-0.2-0.1-0.3-0.3-0.2-0.5l0.4-0.9c0.1-0.2,0.3-0.3,0.5-0.2
							c0.2,0.1,0.3,0.3,0.2,0.5l-0.4,0.9C130,89.7,129.9,89.8,129.7,89.8z"/>
					</g>
					<g>
						<path class="st0" d="M130.7,90.2c0,0-0.1,0-0.1,0c-0.2-0.1-0.3-0.3-0.2-0.5l0.4-0.9c0.1-0.2,0.3-0.3,0.5-0.2
							c0.2,0.1,0.3,0.3,0.2,0.5L131,90C131,90.1,130.8,90.2,130.7,90.2z"/>
					</g>
					<g>
						<path class="st0" d="M131.6,90.6c0,0-0.1,0-0.1,0c-0.2-0.1-0.3-0.3-0.2-0.5l0.4-0.9c0.1-0.2,0.3-0.3,0.5-0.2
							c0.2,0.1,0.3,0.3,0.2,0.5l-0.4,0.9C131.9,90.5,131.8,90.6,131.6,90.6z"/>
					</g>
					<g>
						<path class="st0" d="M132.6,91c0,0-0.1,0-0.1,0c-0.2-0.1-0.3-0.3-0.2-0.5l0.4-0.9c0.1-0.2,0.3-0.3,0.5-0.2
							c0.2,0.1,0.3,0.3,0.2,0.5l-0.4,0.9C132.9,90.9,132.7,91,132.6,91z"/>
					</g>
					<g>
						<path class="st0" d="M133.5,91.4c0,0-0.1,0-0.1,0c-0.2-0.1-0.3-0.3-0.2-0.5l0.4-0.9c0.1-0.2,0.3-0.3,0.5-0.2
							c0.2,0.1,0.3,0.3,0.2,0.5l-0.4,0.9C133.8,91.3,133.7,91.4,133.5,91.4z"/>
					</g>
					<g>
						<path class="st0" d="M134.5,91.7c0,0-0.1,0-0.1,0c-0.2-0.1-0.3-0.3-0.2-0.5l0.4-0.9c0.1-0.2,0.3-0.3,0.5-0.2
							c0.2,0.1,0.3,0.3,0.2,0.5l-0.4,0.9C134.8,91.6,134.6,91.7,134.5,91.7z"/>
					</g>
					<g>
						<g>
							<path class="st0" d="M137.8,96.9c0,0-0.1,0-0.1,0l-0.9-0.4c-0.2-0.1-0.3-0.3-0.2-0.5c0.1-0.2,0.3-0.3,0.5-0.2l0.9,0.4
								c0.2,0.1,0.3,0.3,0.2,0.5C138.1,96.8,137.9,96.9,137.8,96.9z"/>
						</g>
						<g>
							<path class="st0" d="M135.4,92.2c-0.1,0-0.1,0-0.2-0.1c-0.2-0.1-0.3-0.4-0.1-0.5l0.5-0.9c0.1-0.2,0.4-0.3,0.5-0.1
								c0.2,0.1,0.3,0.4,0.1,0.5l-0.5,0.9C135.7,92.2,135.6,92.2,135.4,92.2z"/>
						</g>
						<g>
							<path class="st0" d="M137.1,94.5c-0.2,0-0.3-0.1-0.4-0.3c-0.1-0.2,0.1-0.4,0.3-0.5l1-0.2c0.2-0.1,0.4,0.1,0.5,0.3
								c0.1,0.2-0.1,0.4-0.3,0.5L137.1,94.5C137.1,94.5,137.1,94.5,137.1,94.5z"/>
						</g>
						<g>
							<path class="st0" d="M138.1,95.6C138.1,95.6,138.1,95.6,138.1,95.6l-1-0.1c-0.2,0-0.4-0.2-0.4-0.4s0.2-0.4,0.4-0.4l1,0.1
								c0.2,0,0.4,0.2,0.4,0.4C138.5,95.4,138.3,95.6,138.1,95.6z"/>
						</g>
						<g>
							<path class="st0" d="M136.2,92.9c-0.1,0-0.2,0-0.3-0.1c-0.2-0.1-0.2-0.4,0-0.6l0.7-0.7c0.1-0.2,0.4-0.2,0.6,0
								c0.2,0.1,0.2,0.4,0,0.6l-0.7,0.7C136.4,92.8,136.3,92.9,136.2,92.9z"/>
						</g>
						<g>
							<path class="st0" d="M136.7,93.6c-0.1,0-0.3-0.1-0.4-0.2c-0.1-0.2,0-0.4,0.2-0.5l0.9-0.5c0.2-0.1,0.4,0,0.5,0.2
								c0.1,0.2,0,0.4-0.2,0.5l-0.9,0.5C136.9,93.6,136.8,93.6,136.7,93.6z"/>
						</g>
					</g>
					<g>
						<g>
							<path class="st0" d="M132.7,99.6C132.7,99.6,132.6,99.6,132.7,99.6c-0.3-0.1-0.4-0.3-0.4-0.5l0.2-1c0-0.2,0.3-0.4,0.5-0.3
								c0.2,0,0.4,0.3,0.3,0.5l-0.2,1C133,99.5,132.9,99.6,132.7,99.6z"/>
						</g>
						<g>
							<path class="st0" d="M136.2,99c-0.1,0-0.3-0.1-0.3-0.2l-0.5-0.9c-0.1-0.2-0.1-0.4,0.1-0.6c0.2-0.1,0.4-0.1,0.6,0.1l0.5,0.9
								c0.1,0.2,0.1,0.4-0.1,0.6C136.3,98.9,136.2,99,136.2,99z"/>
						</g>
						<g>
							<path class="st0" d="M137.1,98c-0.1,0-0.2,0-0.3-0.1l-0.8-0.6c-0.2-0.1-0.2-0.4-0.1-0.6c0.1-0.2,0.4-0.2,0.6-0.1l0.8,0.6
								c0.2,0.1,0.2,0.4,0.1,0.6C137.4,97.9,137.2,98,137.1,98z"/>
						</g>
						<g>
							<path class="st0" d="M133.8,99.7C133.8,99.7,133.8,99.7,133.8,99.7c-0.2,0-0.4-0.2-0.4-0.4l0-1c0-0.2,0.2-0.4,0.4-0.4
								c0.2,0,0.4,0.2,0.4,0.4l0,1C134.2,99.5,134.1,99.7,133.8,99.7z"/>
						</g>
						<g>
							<path class="st0" d="M135.1,99.5c-0.2,0-0.3-0.1-0.4-0.3l-0.3-1c-0.1-0.2,0-0.4,0.3-0.5c0.2-0.1,0.4,0,0.5,0.3l0.3,1
								c0.1,0.2,0,0.4-0.3,0.5C135.2,99.5,135.1,99.5,135.1,99.5z"/>
						</g>
					</g>
				</g>
			</g>
			<g>
				<g>
					<g>
						<path class="st0" d="M107.6,87.4c-0.4,0-0.7-0.1-1.1-0.2c-1.5-0.6-2.2-2.3-1.6-3.8c0.3-0.7,0.8-1.3,1.5-1.6
							c0.7-0.3,1.5-0.3,2.2,0c1.5,0.6,2.2,2.3,1.6,3.8C109.8,86.7,108.7,87.4,107.6,87.4z M107.6,82.4c-0.3,0-0.6,0.1-0.8,0.2
							c-0.5,0.2-0.9,0.6-1.1,1.2c-0.4,1.1,0.1,2.3,1.2,2.7c1.1,0.4,2.3-0.1,2.7-1.2c0.4-1.1-0.1-2.3-1.2-2.7
							C108.1,82.4,107.8,82.4,107.6,82.4z"/>
					</g>
					<g>
						<path class="st0" d="M107.6,86.5c-0.2,0-0.5,0-0.7-0.1c-0.5-0.2-0.9-0.6-1.1-1c-0.2-0.5-0.2-1,0-1.5l0,0
							c0.2-0.5,0.6-0.9,1-1.1c0.5-0.2,1-0.2,1.5,0c1,0.4,1.5,1.5,1.1,2.5c-0.2,0.5-0.6,0.9-1,1.1C108.1,86.4,107.8,86.5,107.6,86.5z
							 M107.6,83.3c-0.2,0-0.3,0-0.5,0.1c-0.3,0.1-0.5,0.3-0.6,0.6l0,0c-0.1,0.3-0.1,0.6,0,0.9s0.3,0.5,0.6,0.6
							c0.3,0.1,0.6,0.1,0.9,0c0.3-0.1,0.5-0.3,0.6-0.6c0.2-0.6-0.1-1.3-0.7-1.5C107.8,83.4,107.7,83.3,107.6,83.3z M106.1,83.9
							L106.1,83.9L106.1,83.9z"/>
					</g>
				</g>
				<g>
					<g>
						<path class="st0" d="M112.9,89.5c-0.4,0-0.7-0.1-1.1-0.2c-1.5-0.6-2.2-2.3-1.6-3.8l0,0c0.6-1.5,2.3-2.2,3.8-1.6
							c1.5,0.6,2.2,2.3,1.6,3.8c-0.3,0.7-0.8,1.3-1.6,1.6C113.7,89.4,113.3,89.5,112.9,89.5z M110.9,85.8c-0.4,1.1,0.1,2.3,1.2,2.7
							c0.5,0.2,1.1,0.2,1.6,0c0.5-0.2,0.9-0.6,1.1-1.2c0.4-1.1-0.1-2.3-1.2-2.7C112.6,84.2,111.3,84.8,110.9,85.8L110.9,85.8z"/>
					</g>
					<g>
						<path class="st0" d="M112.9,88.6c-0.2,0-0.5,0-0.7-0.1c-1-0.4-1.5-1.5-1.1-2.5l0,0c0.2-0.5,0.6-0.9,1-1.1c0.5-0.2,1-0.2,1.5,0
							c0.5,0.2,0.9,0.6,1.1,1c0.2,0.5,0.2,1,0,1.5c-0.2,0.5-0.6,0.9-1,1.1C113.4,88.5,113.1,88.6,112.9,88.6z M111.8,86.2
							c-0.2,0.6,0.1,1.3,0.7,1.5c0.3,0.1,0.6,0.1,0.9,0c0.3-0.1,0.5-0.3,0.6-0.6c0.1-0.3,0.1-0.6,0-0.9c-0.1-0.3-0.3-0.5-0.6-0.6
							c-0.3-0.1-0.6-0.1-0.9,0C112.1,85.7,111.9,85.9,111.8,86.2L111.8,86.2z"/>
					</g>
				</g>
				<g>
					<g>
						<path class="st0" d="M118.2,91.6c-0.4,0-0.7-0.1-1.1-0.2c-0.7-0.3-1.3-0.8-1.6-1.6c-0.3-0.7-0.3-1.5,0-2.2l0,0
							c0.3-0.7,0.8-1.3,1.5-1.6c0.7-0.3,1.5-0.3,2.2,0c0.7,0.3,1.3,0.8,1.6,1.6c0.3,0.7,0.3,1.5,0,2.2c-0.3,0.7-0.8,1.3-1.5,1.6
							C119,91.6,118.6,91.6,118.2,91.6z M118.2,86.6c-0.3,0-0.6,0.1-0.8,0.2c-0.5,0.2-0.9,0.6-1.1,1.2l0,0c-0.2,0.5-0.2,1.1,0,1.6
							c0.2,0.5,0.6,0.9,1.2,1.1c0.5,0.2,1.1,0.2,1.6,0c0.5-0.2,0.9-0.6,1.1-1.2c0.2-0.5,0.2-1.1,0-1.6c-0.2-0.5-0.6-0.9-1.2-1.1
							C118.7,86.7,118.4,86.6,118.2,86.6z M115.9,87.8L115.9,87.8L115.9,87.8z"/>
					</g>
					<g>
						<path class="st0" d="M118.2,90.7c-0.2,0-0.5,0-0.7-0.1c-1-0.4-1.5-1.5-1.1-2.5l0,0c0.4-1,1.5-1.5,2.5-1.1
							c0.5,0.2,0.9,0.6,1.1,1c0.2,0.5,0.2,1,0,1.5C119.7,90.2,119,90.7,118.2,90.7z M117.1,88.3c-0.2,0.6,0.1,1.3,0.7,1.5
							c0.6,0.2,1.3-0.1,1.5-0.7c0.1-0.3,0.1-0.6,0-0.9c-0.1-0.3-0.3-0.5-0.6-0.6C118,87.4,117.3,87.7,117.1,88.3L117.1,88.3z"/>
					</g>
				</g>
				<g>
					<g>
						<path class="st0" d="M123.5,93.7c-0.4,0-0.7-0.1-1.1-0.2c-1.5-0.6-2.2-2.3-1.6-3.8l0,0c0.6-1.5,2.3-2.2,3.8-1.6
							c1.5,0.6,2.2,2.3,1.6,3.8C125.7,93,124.7,93.7,123.5,93.7z M121.5,90.1c-0.4,1.1,0.1,2.3,1.2,2.7c1.1,0.4,2.3-0.1,2.7-1.2
							c0.4-1.1-0.1-2.3-1.2-2.7C123.2,88.4,122,89,121.5,90.1L121.5,90.1z"/>
					</g>
					<g>
						<path class="st0" d="M123.5,92.8c-0.2,0-0.5,0-0.7-0.1c-1-0.4-1.5-1.5-1.1-2.5c0.2-0.5,0.6-0.9,1-1.1c0.5-0.2,1-0.2,1.5,0
							c1,0.4,1.5,1.5,1.1,2.5C125,92.3,124.3,92.8,123.5,92.8z M123.5,89.7c-0.2,0-0.3,0-0.5,0.1c-0.3,0.1-0.5,0.3-0.6,0.6
							c-0.2,0.6,0.1,1.3,0.7,1.5c0.6,0.2,1.3-0.1,1.5-0.7c0.2-0.6-0.1-1.3-0.7-1.5C123.8,89.7,123.6,89.7,123.5,89.7z"/>
					</g>
				</g>
				<g>
					<g>
						<path class="st0" d="M128.8,95.9c-0.4,0-0.7-0.1-1.1-0.2c-0.7-0.3-1.3-0.8-1.6-1.6c-0.3-0.7-0.3-1.5,0-2.2
							c0.3-0.7,0.8-1.3,1.5-1.6c0.7-0.3,1.5-0.3,2.2,0c0.7,0.3,1.3,0.8,1.6,1.6c0.3,0.7,0.3,1.5,0,2.2c-0.3,0.7-0.8,1.3-1.6,1.6
							C129.6,95.8,129.2,95.9,128.8,95.9z M128.8,90.8c-0.3,0-0.6,0.1-0.8,0.2c-0.5,0.2-0.9,0.6-1.1,1.2l0,0c-0.2,0.5-0.2,1.1,0,1.6
							c0.2,0.5,0.6,0.9,1.2,1.1c0.5,0.2,1.1,0.2,1.6,0c0.5-0.2,0.9-0.6,1.1-1.2c0.2-0.5,0.2-1.1,0-1.6c-0.2-0.5-0.6-0.9-1.2-1.1
							C129.3,90.9,129.1,90.8,128.8,90.8z M126.5,92L126.5,92L126.5,92z"/>
					</g>
					<g>
						<path class="st0" d="M128.8,94.9c-0.2,0-0.5,0-0.7-0.1c-1-0.4-1.5-1.5-1.1-2.5l0,0c0.4-1,1.5-1.5,2.5-1.1
							c1,0.4,1.5,1.5,1.1,2.5c-0.2,0.5-0.6,0.9-1,1.1C129.3,94.9,129.1,94.9,128.8,94.9z M127.7,92.5c-0.2,0.6,0.1,1.3,0.7,1.5
							c0.3,0.1,0.6,0.1,0.9,0c0.3-0.1,0.5-0.3,0.6-0.6c0.2-0.6-0.1-1.3-0.7-1.5C128.6,91.6,128,91.9,127.7,92.5L127.7,92.5z"/>
					</g>
				</g>
				<g>
					<path class="st0" d="M133.8,96.9c0,0-0.1,0-0.1,0c-0.2,0-0.3-0.1-0.4-0.3l-0.1-0.6c0,0,0,0,0,0c0,0,0,0,0,0l-0.5,0.3
						c-0.1,0.1-0.4,0.1-0.5,0c-0.1-0.1-0.2-0.1-0.2-0.2c-0.1-0.1-0.1-0.3,0-0.5l0.3-0.5c0,0,0,0,0-0.1l-0.6-0.1
						c-0.2,0-0.3-0.2-0.3-0.4c0-0.1,0-0.2,0-0.3c0-0.2,0.1-0.3,0.3-0.4l0.6-0.1c0,0,0,0,0,0c0,0,0,0,0,0l-0.3-0.5
						c-0.1-0.2-0.1-0.4,0-0.5c0.1-0.1,0.1-0.2,0.2-0.2c0.1-0.1,0.3-0.1,0.5,0l0.5,0.3c0,0,0,0,0.1,0l0.1-0.6c0-0.2,0.2-0.3,0.4-0.3
						c0.1,0,0.2,0,0.3,0c0.2,0,0.3,0.1,0.4,0.3l0.1,0.6c0,0,0,0,0,0c0,0,0,0,0,0l0.5-0.3c0.1-0.1,0.4-0.1,0.5,0
						c0.1,0.1,0.2,0.1,0.2,0.2c0.1,0.1,0.1,0.3,0,0.5l-0.3,0.5c0,0,0,0,0,0.1l0.6,0.1c0.2,0,0.3,0.2,0.3,0.4c0,0.1,0,0.2,0,0.3
						c0,0.2-0.1,0.3-0.3,0.4l-0.6,0.1c0,0,0,0,0,0s0,0,0,0l0.3,0.5c0.1,0.1,0.1,0.4,0,0.5c-0.1,0.1-0.1,0.2-0.2,0.2
						c-0.1,0.1-0.3,0.1-0.5,0l-0.5-0.3c0,0,0,0-0.1,0l-0.1,0.6c0,0.2-0.2,0.3-0.4,0.3C133.9,96.9,133.9,96.9,133.8,96.9z
						 M133.1,95.1c0.1,0,0.1,0,0.2,0.1c0,0,0.1,0.1,0.2,0.1c0.1,0,0.1,0,0.2,0c0.1,0,0.1,0,0.2,0.1c0.1,0,0.1-0.1,0.2-0.1
						c0.1,0,0.2-0.1,0.3-0.1c0.1,0,0.1-0.1,0.2-0.1c0-0.1,0-0.1,0.1-0.2c0,0,0.1-0.1,0.1-0.2c0-0.1,0-0.1,0-0.2c0-0.1,0-0.1,0.1-0.2
						c0-0.1-0.1-0.1-0.1-0.2c0-0.1-0.1-0.2-0.1-0.3c0-0.1-0.1-0.1-0.1-0.2c-0.1,0-0.1,0-0.2-0.1c0,0-0.1-0.1-0.2-0.1
						c-0.1,0-0.1,0-0.2,0c-0.1,0-0.1,0-0.2-0.1c-0.1,0-0.1,0.1-0.2,0.1c-0.1,0-0.2,0.1-0.3,0.1c-0.1,0-0.1,0.1-0.2,0.1
						c0,0.1,0,0.1-0.1,0.2c0,0-0.1,0.1-0.1,0.2c0,0.1,0,0.1,0,0.2c0,0.1,0,0.1-0.1,0.2c0,0.1,0.1,0.1,0.1,0.2c0,0.1,0.1,0.2,0.1,0.3
						C133.1,95,133.1,95,133.1,95.1z"/>
				</g>
			</g>
			<g>
				<path class="st0" d="M107,62.5C107,62.5,107,62.5,107,62.5c-1.1,0-1.9-0.9-1.9-1.9c0-0.3,0.1-0.5,0.2-0.7c0.3-0.7,1-1.1,1.8-1.1
					c0.7,0,1.3,0.4,1.7,1c0.1,0.2,0,0.4-0.2,0.5c-0.2,0.1-0.4,0-0.5-0.2c-0.2-0.4-0.5-0.6-1-0.6c-0.4,0-0.8,0.2-1,0.6
					c-0.1,0.1-0.1,0.3-0.1,0.4c0,0.6,0.5,1.1,1.1,1.1c0.3,0,0.5-0.1,0.7-0.3c0.2-0.1,0.4-0.1,0.6,0c0.1,0.2,0.1,0.4,0,0.6
					C107.9,62.3,107.5,62.5,107,62.5z"/>
			</g>
			<g>
				<path class="st0" d="M136.2,77.1c-0.1,0-0.1,0-0.2,0l-6.7-3.2c-0.1-0.1-0.2-0.2-0.2-0.4l0-0.9l-16.6-10.2l-5-0.5
					c0,0-0.1,0-0.1,0c-0.6-0.3-0.8-0.7-0.8-1c-0.1-0.7,0.5-1.2,0.5-1.3c0.1-0.1,0.2-0.1,0.3-0.1l5.7,0.1c0.1,0,0.1,0,0.2,0l20.6,9.7
					c0.1,0,0.2,0.1,0.2,0.2l2.6,7c0.1,0.2,0,0.3-0.1,0.4C136.4,77.1,136.3,77.1,136.2,77.1z M130,73.3l5.6,2.6l-2.2-5.9L113,60.4
					l-5.4-0.1c-0.1,0.1-0.2,0.3-0.2,0.5c0,0.1,0.2,0.3,0.3,0.4l5,0.5c0.1,0,0.1,0,0.2,0.1l16.8,10.4c0.1,0.1,0.2,0.2,0.2,0.3
					L130,73.3z"/>
			</g>
			<g>
				<path class="st0" d="M132.2,85.3c-0.1,0-0.3-0.1-0.4-0.2c-0.1-0.2,0-0.4,0.2-0.5l3.5-1.8c0.7-1.7,1.6-4.2,1.7-4.6
					c0.1-0.3,0-0.4-0.1-0.5c-0.6-0.3-5.4-2.7-7.1-3.5c-0.7-0.4-1-0.1-1,0l-2.2,5.5c-0.1,0.2-0.3,0.3-0.5,0.2
					c-0.2-0.1-0.3-0.3-0.2-0.5l2.2-5.5c0.2-0.4,0.9-0.9,2-0.3c1.8,0.9,7.2,3.5,7.2,3.5c0,0,0.1,0,0.1,0c0.2,0.2,0.5,0.6,0.4,1.3
					c-0.1,0.5-1.6,4.4-1.8,4.8c0,0.1-0.1,0.2-0.2,0.2l-3.6,1.9C132.3,85.3,132.2,85.3,132.2,85.3z"/>
			</g>
			<g>
				<path class="st0" d="M105.7,60.3c-0.1,0-0.1,0-0.2,0l-29-12.2c-0.2-0.1-0.3-0.3-0.2-0.5c0.1-0.2,0.3-0.3,0.5-0.2l29,12.2
					c0.2,0.1,0.3,0.3,0.2,0.5C106,60.2,105.8,60.3,105.7,60.3z"/>
			</g>
			<g>
				<g>
					<g>
						<path class="st0" d="M136.2,90c0,0-0.1,0-0.1,0l-8-3.2c-0.2-0.1-0.3-0.3-0.2-0.5c0.1-0.2,0.3-0.3,0.5-0.2l7.7,3l0-0.1
							l-7.8-3.1c-0.2-0.1-0.3-0.3-0.2-0.5c0.1-0.2,0.3-0.3,0.5-0.2l8.2,3.2c0.2,0.1,0.3,0.3,0.2,0.5l-0.3,0.9
							C136.5,89.9,136.3,90,136.2,90z"/>
					</g>
					<g>
						<path class="st0" d="M135.6,88.7c0,0-0.1,0-0.1,0c-0.2-0.1-0.3-0.3-0.2-0.5l0.3-0.7l-7.9-5.2c-0.2-0.1-0.2-0.4-0.1-0.6
							c0.1-0.2,0.4-0.2,0.6-0.1l8.1,5.4c0.2,0.1,0.2,0.3,0.2,0.5l-0.4,1C135.9,88.6,135.7,88.7,135.6,88.7z"/>
					</g>
					<g>
						<path class="st1" d="M125.7,82.6"/>
					</g>
					<g>
						<path class="st0" d="M131.5,87.1c0,0-0.1,0-0.1,0c-0.2-0.1-0.3-0.3-0.2-0.5l0.7-1.8c0.1-0.2,0.3-0.3,0.5-0.2
							c0.2,0.1,0.3,0.3,0.2,0.5l-0.7,1.8C131.8,87,131.6,87.1,131.5,87.1z"/>
					</g>
					<g>
						<path class="st0" d="M125,78.4c0,0-0.1,0-0.1,0c-0.2-0.1-0.3-0.3-0.2-0.5l1.4-3.4l-0.3-0.7l-1.4,3.5c-0.1,0.2-0.3,0.3-0.5,0.2
							c-0.2-0.1-0.3-0.3-0.2-0.5l1.7-4.4c0.1-0.1,0.2-0.2,0.4-0.3c0.2,0,0.3,0.1,0.4,0.2l0.8,1.6c0.1,0.1,0.1,0.2,0,0.3l-1.4,3.6
							C125.3,78.3,125.1,78.4,125,78.4z"/>
					</g>
					<g>
						<path class="st0" d="M141.1,85c-0.1,0-0.3,0-0.4-0.1c-0.1-0.1-0.2-0.2-0.2-0.4c0-0.2,0.1-0.5,0.3-0.8c0.2-0.3,0.5-0.4,0.7-0.4
							c0.2,0,0.3,0,0.4,0.1c0.3,0.2,0.3,0.7-0.1,1.2C141.6,84.8,141.3,85,141.1,85z"/>
					</g>
					<g>
						<path class="st0" d="M128.1,86.8c-0.1,0-0.1,0-0.1,0l-7.8-3.1c-0.2-0.1-0.3-0.2-0.3-0.4c0-0.2,0.1-0.3,0.3-0.4
							c1.1-0.4,2.3-3.8,2.8-5.8c0-0.1,0.1-0.2,0.2-0.3c0.1-0.1,0.2-0.1,0.3,0c6.3,2.9,5,9.6,5,9.6c0,0.1-0.1,0.2-0.2,0.3
							C128.3,86.8,128.2,86.8,128.1,86.8z M121.2,83.1l6.7,2.7c0.2-1.5,0.3-5.8-4.2-8.1C123.3,78.9,122.4,81.9,121.2,83.1z"/>
					</g>
					<g>
						<path class="st0" d="M127.5,84.5c0,0-0.1,0-0.1,0l-4.7-1.3c-0.2-0.1-0.3-0.3-0.3-0.5c0.1-0.2,0.3-0.3,0.5-0.3l4.7,1.3
							c0.2,0.1,0.3,0.3,0.3,0.5C127.8,84.4,127.6,84.5,127.5,84.5z"/>
					</g>
					<g>
						<path class="st0" d="M126.7,82.3C126.7,82.3,126.7,82.3,126.7,82.3l-3.6-0.1c-0.2,0-0.4-0.2-0.4-0.4c0-0.2,0.2-0.4,0.4-0.4
							l3.6,0.1c0.2,0,0.4,0.2,0.4,0.4C127.1,82.2,126.9,82.3,126.7,82.3z"/>
					</g>
					<g>
						<path class="st0" d="M123.3,81.2c-0.2,0-0.3-0.1-0.4-0.3c-0.1-0.2,0.1-0.4,0.3-0.5l2-0.6c0.2-0.1,0.4,0.1,0.5,0.3
							c0.1,0.2-0.1,0.4-0.3,0.5l-2,0.6C123.4,81.2,123.4,81.2,123.3,81.2z"/>
					</g>
					<g>
						<path class="st0" d="M132.9,87.7c-0.2,0-0.3-0.1-0.4-0.3c-0.1-0.2,0-0.4,0.2-0.5l7.9-2.9c0.2-0.1,0.4,0,0.5,0.2
							c0.1,0.2,0,0.4-0.2,0.5l-7.9,2.9C133,87.7,133,87.7,132.9,87.7z"/>
					</g>
				</g>
				<g>
					<g>
						<g>
							<path class="st0" d="M117.4,69.8c0,0-0.1,0-0.1,0c-0.2-0.1-0.3-0.3-0.2-0.5l0.4-1c0-0.1,0-0.3-0.1-0.3c-0.1,0-0.1,0-0.2,0
								c-0.1,0-0.1,0.1-0.1,0.1l-0.4,1.1c-0.1,0.2-0.3,0.3-0.5,0.2c-0.2-0.1-0.3-0.3-0.2-0.5l0.4-1.1c0.1-0.3,0.3-0.5,0.5-0.6
								c0.3-0.1,0.5-0.1,0.8,0c0.5,0.2,0.8,0.8,0.6,1.3l-0.4,1C117.7,69.7,117.5,69.8,117.4,69.8z"/>
						</g>
					</g>
					<g>
						<path class="st0" d="M119.2,82.5c-1.6,0-4.9-0.7-11.8-3.8c-0.2-0.1-0.3-0.3-0.2-0.5c0.2-0.4,3.9-9.3,7.9-9.7
							c1.2-0.1,7.7,2.4,9,2.9c0.2,0.1,0.3,0.3,0.2,0.5c-0.2,0.9-2.4,9.2-3.8,10.4C120.3,82.3,120,82.5,119.2,82.5z M108.1,78.2
							c4.5,2,10.9,4.3,11.9,3.5c0.9-0.7,2.6-6.2,3.5-9.6c-3-1.1-7.5-2.8-8.3-2.7C112.4,69.6,109.2,75.5,108.1,78.2z"/>
					</g>
					<g>
						<path class="st0" d="M117.9,79.9c-1.9,0-4.8-0.8-5.5-1c-0.2-0.1-0.3-0.2-0.3-0.4l0.1-0.8l-2.4-0.6c-0.1,0-0.2-0.1-0.3-0.2
							c-0.1-0.1-0.1-0.2,0-0.3c0.1-0.2,2.7-5.9,5.9-6.5c0.8-0.2,5.1,1.5,6.4,2c0.2,0.1,0.3,0.3,0.2,0.4c-0.1,0.6-1.2,6-2.8,7.2
							C119,79.8,118.5,79.9,117.9,79.9z M113,78.2c2.2,0.6,5.2,1.2,5.8,0.7c1.1-0.7,2-4.5,2.4-6.3c-2.5-1-5.2-1.9-5.7-1.8
							c-2.3,0.4-4.4,4.3-5.1,5.6l2.3,0.6c0.2,0,0.3,0.2,0.3,0.4L113,78.2z"/>
					</g>
					<g>
						<path class="st0" d="M123,71.7c0,0-0.1,0-0.1,0c-0.2-0.1-0.3-0.3-0.2-0.5l0.3-0.7c0.1-0.2,0.3-0.3,0.5-0.2
							c0.2,0.1,0.3,0.3,0.2,0.5l-0.3,0.7C123.3,71.6,123.2,71.7,123,71.7z"/>
					</g>
					<g>
						<path class="st0" d="M123.3,71.1c-0.1,0-0.1,0-0.2,0c-0.4-0.1-0.5-0.6-0.3-1.1c0.2-0.5,0.6-0.8,1-0.6c0.2,0.1,0.3,0.3,0.4,0.6
							c0,0.2,0,0.4-0.1,0.6c-0.1,0.2-0.2,0.4-0.3,0.5C123.6,71,123.5,71.1,123.3,71.1z M123.6,70.4L123.6,70.4L123.6,70.4z"/>
					</g>
					<g>
						<path class="st0" d="M109.6,73c-0.1,0-0.1,0-0.1,0l-1-0.4c-0.1,0-0.2-0.1-0.2-0.2s0-0.2,0-0.3l1.6-4c0.1-0.2,0.3-0.3,0.5-0.2
							l1,0.4c0.1,0,0.2,0.1,0.2,0.2c0,0.1,0,0.2,0,0.3l-1.6,4c0,0.1-0.1,0.2-0.2,0.2C109.7,73,109.7,73,109.6,73z M109.2,72l0.2,0.1
							l1.3-3.2l-0.2-0.1L109.2,72z"/>
					</g>
					<g>
						<path class="st0" d="M110.8,75.3c-0.1,0-0.2,0-0.3-0.1l-1.5-1.6c-0.1-0.1-0.1-0.3-0.1-0.4l2-4.9c0.5-0.8,2.4-0.3,3.9,0.3
							c0.2,0.1,0.3,0.3,0.2,0.5c-0.1,0.2-0.3,0.3-0.5,0.2c-1.2-0.5-2.6-0.8-2.9-0.7l-1.8,4.6l1.3,1.4c0.2,0.2,0.1,0.4,0,0.6
							C111,75.3,110.9,75.3,110.8,75.3z"/>
					</g>
				</g>
			</g>
			<g>
				<g>
					<path class="st0" d="M105.7,78.2c0,0-0.1,0-0.1,0l-7.3-2.8c-0.2-0.1-0.3-0.3-0.2-0.5c0.1-0.2,0.3-0.3,0.5-0.2l7.3,2.8
						c0.2,0.1,0.3,0.3,0.2,0.5C106,78.2,105.9,78.2,105.7,78.2z"/>
				</g>
				<g>
					<path class="st0" d="M101.5,80.6c-0.1,0-0.2,0-0.3-0.1L97,76.7c-0.2-0.1-0.2-0.4,0-0.6c0.1-0.2,0.4-0.2,0.6,0l4.2,3.8
						c0.2,0.1,0.2,0.4,0,0.6C101.7,80.5,101.6,80.6,101.5,80.6z"/>
				</g>
				<g>
					<path class="st0" d="M104,79c-0.1,0-0.2-0.1-0.3-0.2l-3.9-5.5c-0.1-0.2-0.1-0.4,0.1-0.6c0.2-0.1,0.4-0.1,0.6,0.1l3.9,5.5
						c0.1,0.2,0.1,0.4-0.1,0.6C104.2,78.9,104.1,79,104,79z"/>
				</g>
				<g>
					<path class="st0" d="M96.6,77.6c-0.1,0-0.2,0-0.3-0.1c-0.2-0.1-0.2-0.4,0-0.6l3.9-4.6c0.1-0.2,0.4-0.2,0.6,0
						c0.2,0.1,0.2,0.4,0,0.6l-3.9,4.6C96.8,77.5,96.7,77.6,96.6,77.6z"/>
				</g>
				<g>
					<g>
						<path class="st0" d="M94.3,78.5c-0.1,0-0.2,0-0.3-0.1l-6.5-5.6c-0.1-0.1-0.2-0.2-0.1-0.4c0-0.1,0.1-0.2,0.2-0.3
							c0,0,2.1-1,2.9-2c0.9-1,1.2-2.7,1.2-2.8c0-0.1,0.1-0.2,0.3-0.3c0.1,0,0.3,0,0.4,0.1l2.5,2.1l0.4-0.5c0.1-0.1,0.3-0.2,0.4-0.1
							l4.9,1.7c0.1,0,0.2,0.1,0.3,0.3c0,0.1,0,0.3-0.1,0.4l-6.3,7.4C94.5,78.4,94.4,78.5,94.3,78.5z M88.4,72.6l5.8,4.9l4-4.7
							l-5.8-4.7c-0.2,0.7-0.6,1.7-1.3,2.5C90.4,71.4,89.2,72.2,88.4,72.6z M95.5,69.7l3.2,2.6l1.2-1.4l-4.1-1.4L95.5,69.7z"/>
					</g>
					<g>
						<path class="st0" d="M96.6,75.7c-0.1,0-0.2,0-0.3-0.1l-5.8-4.9c-0.2-0.1-0.2-0.4,0-0.6c0.1-0.2,0.4-0.2,0.6,0l5.8,4.9
							c0.2,0.1,0.2,0.4,0,0.6C96.8,75.7,96.7,75.7,96.6,75.7z"/>
					</g>
					<g>
						<path class="st0" d="M96.3,71.2c-0.1,0-0.2,0-0.3-0.1c-0.2-0.1-0.2-0.4,0-0.6l1-1.2c0.1-0.2,0.4-0.2,0.6,0
							c0.2,0.1,0.2,0.4,0,0.6l-1,1.2C96.6,71.2,96.4,71.2,96.3,71.2z"/>
					</g>
					<g>
						<path class="st0" d="M97.8,72.3c-0.1,0-0.2,0-0.3-0.1c-0.2-0.1-0.2-0.4,0-0.6l1.5-1.7c0.1-0.2,0.4-0.2,0.6,0
							c0.2,0.1,0.2,0.4,0,0.6l-1.5,1.7C98,72.3,97.9,72.3,97.8,72.3z"/>
					</g>
				</g>
			</g>
			<g>
				<path class="st0" d="M133.6,74.2c-0.1,0-0.1,0-0.2,0l-2.9-1.4c-0.1-0.1-0.2-0.2-0.2-0.3c0-0.1,0-0.3,0.1-0.4l1.8-1.5
					c0.1-0.1,0.2-0.1,0.4-0.1c0.1,0,0.2,0.1,0.3,0.2l1.1,2.8c0.1,0.2,0,0.3-0.1,0.4C133.8,74.1,133.7,74.2,133.6,74.2z M131.5,72.3
					l1.4,0.7l-0.5-1.4L131.5,72.3z"/>
			</g>
			<g>
				<path class="st0" d="M129.9,71.6c-0.1,0-0.1,0-0.2-0.1l-11-7c-0.2-0.1-0.2-0.3-0.1-0.5c0.1-0.2,0.3-0.3,0.5-0.2l12.4,5.8
					c0.1,0.1,0.2,0.2,0.2,0.3c0,0.1,0,0.3-0.1,0.4l-1.4,1.1C130,71.6,129.9,71.6,129.9,71.6z M124.5,67.3l5.4,3.4l0.7-0.6
					L124.5,67.3z"/>
			</g>
		</g>
	</g>
	<g>
		<g>
			<path class="st2" d="M120.1,40.7c-8.2,0-15.5-4.8-18.7-12.4H49.2C46,35.9,38.7,40.7,30.5,40.7c-7.1,0-13.8-3.8-17.5-10
				c-0.1-0.1-0.1-0.3,0-0.4s0.2-0.2,0.3-0.2h20.2V10.6H13.4c-0.1,0-0.3-0.1-0.3-0.2s-0.1-0.3,0-0.4C16.7,3.8,23.4,0,30.5,0
				C38.7,0,46,4.8,49.2,12.4h52.2C104.6,4.8,111.9,0,120.1,0c11.2,0,20.4,9.1,20.4,20.4S131.3,40.7,120.1,40.7z M49,27.5h52.7
				c0.2,0,0.3,0.1,0.4,0.2c3,7.4,10.1,12.1,18.1,12.1c10.8,0,19.6-8.8,19.6-19.6s-8.8-19.6-19.6-19.6c-8,0-15.1,4.8-18.1,12.1
				c-0.1,0.1-0.2,0.2-0.4,0.2H49c-0.2,0-0.3-0.1-0.4-0.2c-3-7.4-10.1-12.1-18.1-12.1c-6.6,0-12.8,3.4-16.4,9H34
				c0.2,0,0.4,0.2,0.4,0.4v20.4c0,0.2-0.2,0.4-0.4,0.4H14.1c3.6,5.5,9.8,9,16.4,9c8,0,15.1-4.8,18.1-12.1
				C48.7,27.6,48.8,27.5,49,27.5z M126.2,31.3h-12.1c-0.1,0-0.3-0.1-0.3-0.2l-6.1-10.5c-0.1-0.1-0.1-0.3,0-0.4l6.1-10.5
				c0.1-0.1,0.2-0.2,0.3-0.2h12.1c0.1,0,0.3,0.1,0.3,0.2l6.1,10.5c0.1,0.1,0.1,0.3,0,0.4l-6.1,10.5
				C126.5,31.2,126.3,31.3,126.2,31.3z M114.3,30.5H126l5.8-10.1L126,10.2h-11.7l-5.8,10.1L114.3,30.5z"/>
		</g>
		<g>
			<path class="st3" d="M102.5,23.4H51c-0.2,0-0.4-0.2-0.4-0.4v-5.3c0-0.2,0.2-0.4,0.4-0.4h51.5c0.2,0,0.4,0.2,0.4,0.4V23
				C102.9,23.2,102.7,23.4,102.5,23.4z M51.4,22.6h50.7v-4.5H51.4V22.6z"/>
		</g>
	</g>
	<g>
		<g>
			<path class="st4" d="M76.7,126.3c-0.4,0-0.7,0-1.1,0l-0.2,0l-0.4-2.3c-0.4,0-0.7-0.1-1.1-0.2l-1.1,2.1l-0.2-0.1
				c-0.7-0.2-1.4-0.4-2-0.7l-0.2-0.1l0.4-2.3c-0.3-0.2-0.7-0.4-1-0.6l-1.8,1.5l-0.2-0.1c-0.6-0.4-1.2-0.9-1.7-1.4l-0.2-0.2l1.2-2
				c-0.3-0.3-0.5-0.6-0.7-0.9l-2.2,0.8l-0.1-0.2c-0.4-0.6-0.8-1.2-1.1-1.9l-0.1-0.2l1.8-1.5c-0.1-0.3-0.3-0.7-0.4-1l-2.3,0l-0.1-0.2
				c-0.2-0.7-0.3-1.4-0.4-2.1l0-0.2l2.2-0.8c0-0.2,0-0.4,0-0.6c0-0.2,0-0.4,0-0.6l-2.2-0.8l0-0.2c0.1-0.7,0.2-1.4,0.4-2.1l0.1-0.2
				l2.3,0c0.1-0.3,0.2-0.7,0.4-1l-1.8-1.5l0.1-0.2c0.3-0.6,0.7-1.3,1.1-1.9l0.1-0.2l2.2,0.8c0.2-0.3,0.5-0.6,0.7-0.8l-1.2-2l0.2-0.2
				c0.5-0.5,1.1-1,1.7-1.4l0.2-0.1l1.8,1.5c0.3-0.2,0.6-0.4,1-0.6l-0.4-2.3l0.2-0.1c0.6-0.3,1.3-0.5,2-0.7l0.2-0.1l1.1,2.1
				c0.4-0.1,0.7-0.1,1.1-0.2l0.4-2.3l0.2,0c0.7,0,1.4,0,2.2,0l0.2,0l0.4,2.3c0.4,0,0.7,0.1,1.1,0.2l1.1-2.1l0.2,0.1
				c0.7,0.2,1.4,0.5,2,0.7l0.2,0.1l-0.4,2.3c0.3,0.2,0.7,0.4,1,0.6l1.8-1.5l0.2,0.1c0.6,0.4,1.1,0.9,1.7,1.4l0.2,0.2l-1.2,2
				c0.3,0.3,0.5,0.6,0.7,0.8l2.2-0.8l0.1,0.2c0.4,0.6,0.8,1.2,1.1,1.9l0.1,0.2l-1.8,1.5c0.1,0.3,0.3,0.7,0.4,1l2.4,0l0.1,0.2
				c0.2,0.7,0.3,1.4,0.4,2.1l0,0.2l-2.2,0.8c0,0.2,0,0.4,0,0.6c0,0.2,0,0.4,0,0.6l2.2,0.8l0,0.2c-0.1,0.7-0.2,1.4-0.4,2.1l-0.1,0.2
				l-2.4,0c-0.1,0.4-0.2,0.7-0.4,1l1.8,1.5l-0.1,0.2c-0.3,0.6-0.7,1.3-1.1,1.9l-0.1,0.2L87,119c-0.2,0.3-0.5,0.6-0.7,0.9l1.2,2
				l-0.2,0.2c-0.5,0.5-1.1,1-1.7,1.4l-0.2,0.1l-1.8-1.5c-0.3,0.2-0.6,0.4-1,0.6l0.4,2.3l-0.2,0.1c-0.7,0.3-1.3,0.5-2,0.7l-0.2,0.1
				l-1.1-2.1c-0.4,0.1-0.7,0.1-1.1,0.2l-0.4,2.3l-0.2,0C77.4,126.3,77.1,126.3,76.7,126.3z M75.9,125.7c0.5,0,1.1,0,1.6,0l0.4-2.3
				l0.2,0c0.5-0.1,1-0.1,1.5-0.3l0.2-0.1l1.1,2c0.5-0.2,1-0.3,1.5-0.5l-0.4-2.3l0.2-0.1c0.5-0.2,0.9-0.5,1.3-0.8l0.2-0.1l1.8,1.5
				c0.4-0.3,0.8-0.7,1.2-1l-1.2-2l0.2-0.2c0.4-0.4,0.7-0.8,1-1.2l0.1-0.2l2.2,0.8c0.3-0.4,0.6-0.9,0.8-1.4l-1.8-1.5L88,116
				c0.2-0.5,0.4-0.9,0.5-1.4l0.1-0.2l2.3,0c0.1-0.5,0.2-1,0.3-1.6l-2.2-0.8l0-0.2c0-0.3,0-0.5,0-0.8c0-0.3,0-0.5,0-0.8l0-0.2
				l2.2-0.8c-0.1-0.5-0.2-1.1-0.3-1.6l-2.3,0l-0.1-0.2c-0.1-0.5-0.3-1-0.5-1.4l-0.1-0.2l1.8-1.5c-0.2-0.5-0.5-0.9-0.8-1.4l-2.2,0.8
				l-0.1-0.2c-0.3-0.4-0.6-0.8-1-1.2l-0.2-0.2l1.2-2c-0.4-0.4-0.8-0.7-1.2-1l-1.8,1.5l-0.2-0.1c-0.4-0.3-0.8-0.5-1.3-0.8L82,99.9
				l0.4-2.3c-0.5-0.2-1-0.4-1.5-0.5l-1.1,2l-0.2-0.1c-0.5-0.1-1-0.2-1.5-0.3l-0.2,0l-0.4-2.3c-0.5,0-1.1,0-1.6,0l-0.4,2.3l-0.2,0
				c-0.5,0.1-1,0.1-1.5,0.3l-0.2,0.1l-1.1-2c-0.5,0.2-1,0.3-1.5,0.5l0.4,2.3l-0.2,0.1c-0.5,0.2-0.9,0.5-1.3,0.8l-0.2,0.1L68,99.4
				c-0.4,0.3-0.8,0.7-1.2,1l1.2,2l-0.2,0.2c-0.4,0.4-0.7,0.8-1,1.2l-0.1,0.2l-2.2-0.8c-0.3,0.4-0.6,0.9-0.8,1.4l1.8,1.5l-0.1,0.2
				c-0.2,0.5-0.4,0.9-0.5,1.4l-0.1,0.2l-2.3,0c-0.1,0.5-0.2,1-0.3,1.6l2.2,0.8l0,0.2c0,0.2,0,0.5,0,0.8c0,0.3,0,0.5,0,0.8l0,0.2
				l-2.2,0.8c0.1,0.5,0.2,1.1,0.3,1.6l2.3,0l0.1,0.2c0.1,0.5,0.3,0.9,0.5,1.4l0.1,0.2l-1.8,1.5c0.2,0.5,0.5,0.9,0.8,1.4l2.2-0.8
				l0.1,0.2c0.3,0.4,0.6,0.8,1,1.2l0.2,0.2l-1.2,2c0.4,0.4,0.8,0.7,1.2,1l1.8-1.5l0.2,0.1c0.4,0.3,0.8,0.5,1.3,0.8l0.2,0.1l-0.4,2.3
				c0.5,0.2,1,0.4,1.5,0.5l1.1-2l0.2,0.1c0.5,0.1,1,0.2,1.5,0.3l0.2,0L75.9,125.7z"/>
		</g>
		<g>
			<g>
				<g>
					<g>
						<g>
							<g>
								<g>
									<rect x="67.5" y="110.9" class="st0" width="2.4" height="0.4"/>
								</g>
								<g>
									<rect x="83.6" y="110.9" class="st0" width="2.3" height="0.4"/>
								</g>
							</g>
						</g>
					</g>
				</g>
				<g>
					<g>
						<g>
							<g>
								<g>
									<polygon class="st0" points="75.3,120.2 74.9,120.1 75.3,117.8 75.7,117.9 									"/>
								</g>
								<g>
									<polygon class="st0" points="78.1,104.3 77.7,104.3 78.1,102 78.5,102.1 									"/>
								</g>
							</g>
						</g>
						<g>
							<g>
								<g>
									<path class="st5" d="M83.5,112.3"/>
								</g>
								<g>
									<path class="st5" d="M85.8,112.7"/>
								</g>
							</g>
						</g>
					</g>
				</g>
				<g>
					<g>
						<g>
							<g>
								<g>
									<g>
										<polygon class="st0" points="70.2,108.8 68.1,108 68.2,107.6 70.4,108.5 										"/>
									</g>
									<g>
										
											<rect x="84" y="112.8" transform="matrix(0.3529 -0.9357 0.9357 0.3529 -52.0707 152.546)" class="st0" width="0.4" height="2.3"/>
									</g>
								</g>
							</g>
						</g>
					</g>
					<g>
						<g>
							<g>
								<g>
									<g>
										<polygon class="st0" points="72.2,119.1 71.8,118.8 73,116.9 73.4,117.1 										"/>
									</g>
									<g>
										<polygon class="st0" points="80.5,105.3 80.1,105.1 81.3,103.1 81.7,103.3 										"/>
									</g>
								</g>
							</g>
							<g>
								<g>
									<g>
										<path class="st5" d="M82.6,114.6"/>
									</g>
									<g>
										<path class="st5" d="M84.6,115.8"/>
									</g>
								</g>
							</g>
						</g>
					</g>
				</g>
				<g>
					<g>
						<g>
							<g>
								<g>
									<polygon class="st0" points="71.3,106.8 69.5,105.3 69.8,105 71.6,106.5 									"/>
								</g>
								<g>
									
										<rect x="82.7" y="115.1" transform="matrix(0.641 -0.7676 0.7676 0.641 -59.4508 105.3537)" class="st0" width="0.4" height="2.3"/>
								</g>
							</g>
						</g>
					</g>
				</g>
				<g>
					<g>
						<g>
							<g>
								<g>
									
										<rect x="69.4" y="116" transform="matrix(0.7698 -0.6383 0.6383 0.7698 -57.9371 71.7878)" class="st0" width="2.3" height="0.4"/>
								</g>
								<g>
									
										<rect x="81.7" y="105.7" transform="matrix(0.7688 -0.6394 0.6394 0.7688 -48.5845 77.5041)" class="st0" width="2.3" height="0.4"/>
								</g>
							</g>
						</g>
					</g>
				</g>
				<g>
					<g>
						<g>
							<g>
								
									<rect x="72.6" y="102.9" transform="matrix(0.8705 -0.4921 0.4921 0.8705 -41.8036 49.2955)" class="st0" width="0.4" height="2.3"/>
							</g>
							<g>
								
									<rect x="80.5" y="116.9" transform="matrix(0.8702 -0.4927 0.4927 0.8702 -47.6987 55.0713)" class="st0" width="0.4" height="2.3"/>
							</g>
						</g>
					</g>
				</g>
				<g>
					<g>
						<g>
							<g>
								
									<rect x="68" y="113.5" transform="matrix(0.9448 -0.3276 0.3276 0.9448 -33.4371 28.9273)" class="st0" width="2.3" height="0.4"/>
							</g>
							<g>
								<polygon class="st0" points="83.3,109 83.2,108.6 85.4,107.9 85.5,108.3 								"/>
							</g>
						</g>
					</g>
				</g>
				<g>
					<g>
						<g>
							<g>
								
									<rect x="75.2" y="102" transform="matrix(0.9859 -0.1671 0.1671 0.9859 -16.1804 14.0483)" class="st0" width="0.4" height="2.4"/>
							</g>
							<g>
								
									<rect x="77.9" y="117.8" transform="matrix(0.986 -0.1666 0.1666 0.986 -18.7324 14.667)" class="st0" width="0.4" height="2.3"/>
							</g>
						</g>
					</g>
				</g>
			</g>
			<g>
				<path class="st0" d="M76.7,120.5c-5.2,0-9.4-4.2-9.4-9.4s4.2-9.4,9.4-9.4c5.2,0,9.4,4.2,9.4,9.4S81.9,120.5,76.7,120.5z
					 M76.7,102.1c-5,0-9,4-9,9s4,9,9,9c5,0,9-4,9-9S81.7,102.1,76.7,102.1z"/>
			</g>
			<g>
				<path class="st0" d="M76.7,118.2c-3.9,0-7.1-3.2-7.1-7.1c0-3.9,3.2-7.1,7.1-7.1c3.9,0,7.1,3.2,7.1,7.1
					C83.8,115,80.6,118.2,76.7,118.2z M76.7,104.4c-3.7,0-6.7,3-6.7,6.7c0,3.7,3,6.7,6.7,6.7c3.7,0,6.7-3,6.7-6.7
					C83.4,107.4,80.4,104.4,76.7,104.4z"/>
			</g>
		</g>
		<g>
			<g>
				<g>
					<g>
						<g>
							<g>
								<g>
									<path class="st5" d="M79.5,111.1"/>
								</g>
								<g>
									<path class="st5" d="M80.4,111.1"/>
								</g>
							</g>
						</g>
					</g>
				</g>
				<g>
					<g>
						<g>
							<g>
								<g>
									<path class="st5" d="M76.1,114.8"/>
								</g>
								<g>
									
										<rect x="75.4" y="113.8" transform="matrix(0.1715 -0.9852 0.9852 0.1715 -49.1257 169.5008)" class="st0" width="1.6" height="0.4"/>
								</g>
								<g>
									
										<rect x="76.4" y="108" transform="matrix(0.1715 -0.9852 0.9852 0.1715 -42.6207 165.7259)" class="st0" width="1.6" height="0.4"/>
								</g>
							</g>
						</g>
						<g>
							<g>
								<g>
									<path class="st5" d="M79.5,111.6"/>
								</g>
								<g>
									<path class="st5" d="M80.4,111.7"/>
								</g>
							</g>
						</g>
					</g>
				</g>
				<g>
					<g>
						<g>
							<g>
								<g>
									<g>
										<path class="st5" d="M79.1,112.5"/>
									</g>
									<g>
										<path class="st5" d="M79.9,113"/>
									</g>
								</g>
							</g>
						</g>
					</g>
				</g>
				<g>
					<g>
						<g>
							<g>
								<g>
									
										<rect x="73.7" y="112.7" transform="matrix(0.7698 -0.6383 0.6383 0.7698 -54.9506 73.5394)" class="st0" width="1.6" height="0.4"/>
								</g>
								<g>
									<polygon class="st0" points="78.5,109.9 78.2,109.6 79.5,108.5 79.7,108.9 									"/>
								</g>
							</g>
						</g>
					</g>
				</g>
				<g>
					<g>
						<g>
							<g>
								
									<rect x="75.1" y="107.7" transform="matrix(0.8703 -0.4925 0.4925 0.8703 -43.6908 51.1514)" class="st0" width="0.4" height="1.6"/>
							</g>
							<g>
								
									<rect x="78" y="112.8" transform="matrix(0.8705 -0.4922 0.4922 0.8705 -45.8008 53.1807)" class="st0" width="0.4" height="1.6"/>
							</g>
							<g>
								<path class="st5" d="M78.6,114.3"/>
							</g>
						</g>
					</g>
				</g>
				<g>
					<g>
						<g>
							<g>
								<path class="st5" d="M79.4,110.2"/>
							</g>
							<g>
								<path class="st5" d="M80.2,109.9"/>
							</g>
						</g>
					</g>
				</g>
			</g>
			<g>
				<path class="st0" d="M76.7,115c-2.2,0-3.9-1.8-3.9-3.9c0-2.2,1.8-3.9,3.9-3.9c2.2,0,3.9,1.8,3.9,3.9
					C80.7,113.2,78.9,115,76.7,115z M76.7,107.6c-1.9,0-3.5,1.6-3.5,3.5s1.6,3.5,3.5,3.5c1.9,0,3.5-1.6,3.5-3.5
					S78.7,107.6,76.7,107.6z"/>
			</g>
			<g>
				<path class="st0" d="M76.7,113.4c-0.1,0-0.3,0-0.4,0c-0.5-0.1-1-0.4-1.4-0.8c-0.4-0.4-0.6-1-0.6-1.5c0-1.3,1-2.3,2.3-2.3
					c0.1,0,0.3,0,0.4,0c0.5,0.1,1,0.4,1.4,0.8c0.4,0.4,0.6,1,0.6,1.5C79,112.4,78,113.4,76.7,113.4z M76.7,109.2
					c-1.1,0-1.9,0.9-1.9,1.9c0,0.5,0.2,0.9,0.5,1.2c0.3,0.3,0.7,0.6,1.1,0.6c0.1,0,0.2,0,0.3,0c1.1,0,1.9-0.9,1.9-1.9
					c0-0.5-0.2-0.9-0.5-1.2c-0.3-0.3-0.7-0.6-1.1-0.6C76.9,109.2,76.8,109.2,76.7,109.2z"/>
			</g>
		</g>
		<g>
			<path class="st5" d="M76.7,111.1"/>
		</g>
		<g>
			<path class="st5" d="M76.7,111.1"/>
		</g>
		<g>
			<path class="st5" d="M76.7,111.1"/>
		</g>
		<g>
			<path class="st5" d="M76.7,111.1"/>
		</g>
	</g>
</g>
</svg>
