<?xml version="1.0" encoding="utf-8"?>
<!-- Generator: Adobe Illustrator 21.1.0, SVG Export Plug-In . SVG Version: 6.00 Build 0)  -->
<svg version="1.1" id="Layer_1" xmlns="http://www.w3.org/2000/svg" xmlns:xlink="http://www.w3.org/1999/xlink" x="0px" y="0px"
	 width="134.2px" height="126.4px" viewBox="0 0 134.2 126.4" style="enable-background:new 0 0 134.2 126.4;" xml:space="preserve"
	>
<style type="text/css">
	.st0{fill:#E6E6E6;}
	.st1{fill:#999999;}
	.st2{fill:#B3B3B3;}
	.st3{fill:#A08054;}
	.st4{fill:#FFFFFF;}
	.st5{fill:none;stroke:#B3B3B3;stroke-linecap:round;stroke-linejoin:round;stroke-miterlimit:10;}
	.st6{fill:#58595B;}
	.st7{fill:#808080;}
	.st8{fill:#CEAF5B;}
</style>
<g>
	<g>
		<g>
			<path class="st0" d="M131.1,25.7c0.9-2.1,1.3-4.3,1.3-6.7c0-2.4-0.5-4.6-1.3-6.6l-3.1,1.2c0.7,1.7,1.1,3.5,1.1,5.4
				c0,1.9-0.4,3.7-1.1,5.3L131.1,25.7z"/>
		</g>
		<g>
			<path class="st0" d="M108.5,3l1.2,3.1c1.7-0.7,3.5-1.1,5.4-1.1c1.9,0,3.7,0.4,5.4,1.1l1.3-3.1c-2-0.8-4.3-1.3-6.6-1.3
				C112.8,1.7,110.6,2.2,108.5,3z"/>
		</g>
		<g>
			<path class="st1" d="M115.1,34.2c-1.1,0-2-0.9-2-2c0-1.1,0.9-2,2-2c1.1,0,2,0.9,2,2C117.1,33.3,116.2,34.2,115.1,34.2z M115.1,31
				c-0.7,0-1.2,0.5-1.2,1.2c0,0.7,0.5,1.2,1.2,1.2c0.7,0,1.2-0.5,1.2-1.2C116.3,31.5,115.8,31,115.1,31z"/>
		</g>
		<g>
			<path class="st1" d="M122.9,29.2h-15.5c-0.2,0-0.4-0.2-0.4-0.4v-3.4c0-0.2,0.2-0.4,0.4-0.4h15.5c0.2,0,0.4,0.2,0.4,0.4v3.4
				C123.3,29.1,123.1,29.2,122.9,29.2z M107.8,28.4h14.7v-2.6h-14.7V28.4z"/>
		</g>
		<g>
			<g>
				<path class="st2" d="M115.1,38c-10.5,0-19-8.5-19-19c0-10.5,8.5-19,19-19s19,8.5,19,19C134.2,29.5,125.6,38,115.1,38z
					 M115.1,0.8c-10,0-18.2,8.2-18.2,18.2c0,10,8.2,18.2,18.2,18.2c10,0,18.2-8.2,18.2-18.2C133.4,9,125.2,0.8,115.1,0.8z"/>
			</g>
			<g>
				<path class="st2" d="M115.1,36.7c-9.7,0-17.7-7.9-17.7-17.7c0-9.7,7.9-17.7,17.7-17.7c9.8,0,17.7,7.9,17.7,17.7
					C132.8,28.8,124.9,36.7,115.1,36.7z M115.1,2.1c-9.3,0-16.9,7.6-16.9,16.9s7.6,16.9,16.9,16.9S132,28.3,132,19
					S124.4,2.1,115.1,2.1z"/>
			</g>
			<g>
				<g>
					<g>
						<path class="st2" d="M115.1,5.4c-0.2,0-0.4-0.2-0.4-0.4V1.7c0-0.2,0.2-0.4,0.4-0.4c0.2,0,0.4,0.2,0.4,0.4V5
							C115.5,5.3,115.4,5.4,115.1,5.4z"/>
					</g>
				</g>
				<g>
					<g>
						<path class="st2" d="M101.2,19.4h-3.3c-0.2,0-0.4-0.2-0.4-0.4c0-0.2,0.2-0.4,0.4-0.4h3.3c0.2,0,0.4,0.2,0.4,0.4
							C101.6,19.2,101.4,19.4,101.2,19.4z"/>
					</g>
					<g>
						<path class="st2" d="M132.4,19.4h-3.3c-0.2,0-0.4-0.2-0.4-0.4c0-0.2,0.2-0.4,0.4-0.4h3.3c0.2,0,0.4,0.2,0.4,0.4
							C132.8,19.2,132.6,19.4,132.4,19.4z"/>
					</g>
				</g>
			</g>
			<g>
				<g>
					<g>
						<path class="st2" d="M111.5,5.9c-0.2,0-0.3-0.1-0.4-0.3l-0.9-3.2c-0.1-0.2,0.1-0.4,0.3-0.5c0.2-0.1,0.4,0.1,0.5,0.3l0.9,3.2
							c0.1,0.2-0.1,0.4-0.3,0.5C111.6,5.9,111.5,5.9,111.5,5.9z"/>
					</g>
				</g>
				<g>
					<g>
						<path class="st2" d="M128.6,15.8c-0.2,0-0.3-0.1-0.4-0.3c-0.1-0.2,0.1-0.4,0.3-0.5l3.2-0.9c0.2-0.1,0.4,0.1,0.5,0.3
							c0.1,0.2-0.1,0.4-0.3,0.5l-3.2,0.9C128.7,15.8,128.7,15.8,128.6,15.8z"/>
					</g>
					<g>
						<path class="st2" d="M98.4,23.9c-0.2,0-0.3-0.1-0.4-0.3c-0.1-0.2,0.1-0.4,0.3-0.5l3.2-0.9c0.2-0.1,0.4,0.1,0.5,0.3
							c0.1,0.2-0.1,0.4-0.3,0.5l-3.2,0.9C98.5,23.9,98.5,23.9,98.4,23.9z"/>
					</g>
				</g>
			</g>
			<g>
				<g>
					<g>
						<path class="st2" d="M115.1,5.4c-0.2,0-0.4-0.2-0.4-0.4V1.7c0-0.2,0.2-0.4,0.4-0.4c0.2,0,0.4,0.2,0.4,0.4V5
							C115.5,5.3,115.4,5.4,115.1,5.4z"/>
					</g>
				</g>
				<g>
					<g>
						<path class="st2" d="M101.2,19.4h-3.3c-0.2,0-0.4-0.2-0.4-0.4c0-0.2,0.2-0.4,0.4-0.4h3.3c0.2,0,0.4,0.2,0.4,0.4
							C101.6,19.2,101.4,19.4,101.2,19.4z"/>
					</g>
					<g>
						<path class="st2" d="M132.4,19.4h-3.3c-0.2,0-0.4-0.2-0.4-0.4c0-0.2,0.2-0.4,0.4-0.4h3.3c0.2,0,0.4,0.2,0.4,0.4
							C132.8,19.2,132.6,19.4,132.4,19.4z"/>
					</g>
				</g>
			</g>
			<g>
				<g>
					<g>
						<path class="st2" d="M111.5,5.9c-0.2,0-0.3-0.1-0.4-0.3l-0.9-3.2c-0.1-0.2,0.1-0.4,0.3-0.5c0.2-0.1,0.4,0.1,0.5,0.3l0.9,3.2
							c0.1,0.2-0.1,0.4-0.3,0.5C111.6,5.9,111.5,5.9,111.5,5.9z"/>
					</g>
				</g>
				<g>
					<g>
						<path class="st2" d="M128.6,15.8c-0.2,0-0.3-0.1-0.4-0.3c-0.1-0.2,0.1-0.4,0.3-0.5l3.2-0.9c0.2-0.1,0.4,0.1,0.5,0.3
							c0.1,0.2-0.1,0.4-0.3,0.5l-3.2,0.9C128.7,15.8,128.7,15.8,128.6,15.8z"/>
					</g>
					<g>
						<path class="st2" d="M98.4,23.9c-0.2,0-0.3-0.1-0.4-0.3c-0.1-0.2,0.1-0.4,0.3-0.5l3.2-0.9c0.2-0.1,0.4,0.1,0.5,0.3
							c0.1,0.2-0.1,0.4-0.3,0.5l-3.2,0.9C98.5,23.9,98.5,23.9,98.4,23.9z"/>
					</g>
				</g>
			</g>
			<g>
				<g>
					<g>
						<path class="st2" d="M108.1,7.3c-0.1,0-0.3-0.1-0.3-0.2l-1.7-2.9c-0.1-0.2,0-0.4,0.1-0.5c0.2-0.1,0.4,0,0.5,0.1l1.7,2.9
							c0.1,0.2,0,0.4-0.1,0.5C108.3,7.3,108.2,7.3,108.1,7.3z"/>
					</g>
				</g>
				<g>
					<g>
						<path class="st2" d="M127.2,12.4c-0.1,0-0.3-0.1-0.3-0.2c-0.1-0.2,0-0.4,0.1-0.5l2.9-1.7c0.2-0.1,0.4,0,0.5,0.1
							c0.1,0.2,0,0.4-0.1,0.5l-2.9,1.7C127.4,12.4,127.3,12.4,127.2,12.4z"/>
					</g>
				</g>
			</g>
			<g>
				<g>
					<g>
						<path class="st2" d="M105.2,9.5c-0.1,0-0.2,0-0.3-0.1l-2.3-2.3c-0.2-0.2-0.2-0.4,0-0.6s0.4-0.2,0.6,0l2.3,2.3
							c0.2,0.2,0.2,0.4,0,0.6C105.5,9.5,105.3,9.5,105.2,9.5z"/>
					</g>
				</g>
				<g>
					<g>
						<path class="st2" d="M125,9.5c-0.1,0-0.2,0-0.3-0.1c-0.2-0.2-0.2-0.4,0-0.6l2.3-2.3c0.2-0.2,0.4-0.2,0.6,0s0.2,0.4,0,0.6
							l-2.3,2.3C125.2,9.5,125.1,9.5,125,9.5z"/>
					</g>
				</g>
			</g>
			<g>
				<g>
					<g>
						<rect x="101.2" y="9.5" transform="matrix(0.5 -0.8661 0.8661 0.5 41.0998 93.5822)" class="st2" width="0.8" height="3.3"/>
					</g>
				</g>
				<g>
					<g>
						<path class="st2" d="M122.1,7.3c-0.1,0-0.1,0-0.2-0.1c-0.2-0.1-0.3-0.4-0.1-0.5l1.7-2.9c0.1-0.2,0.4-0.3,0.5-0.1
							c0.2,0.1,0.3,0.4,0.1,0.5l-1.7,2.9C122.4,7.2,122.3,7.3,122.1,7.3z"/>
					</g>
				</g>
			</g>
			<g>
				<g>
					<g>
						<path class="st2" d="M101.6,15.8c0,0-0.1,0-0.1,0l-3.2-0.9c-0.2-0.1-0.3-0.3-0.3-0.5c0.1-0.2,0.3-0.3,0.5-0.3l3.2,0.9
							c0.2,0.1,0.3,0.3,0.3,0.5C102,15.7,101.8,15.8,101.6,15.8z"/>
					</g>
					<g>
						<path class="st2" d="M131.8,23.9c0,0-0.1,0-0.1,0l-3.2-0.9c-0.2-0.1-0.3-0.3-0.3-0.5c0.1-0.2,0.3-0.3,0.5-0.3l3.2,0.9
							c0.2,0.1,0.3,0.3,0.3,0.5C132.2,23.8,132,23.9,131.8,23.9z"/>
					</g>
				</g>
				<g>
					<g>
						<path class="st2" d="M118.7,5.9c0,0-0.1,0-0.1,0c-0.2-0.1-0.3-0.3-0.3-0.5l0.9-3.2c0.1-0.2,0.3-0.3,0.5-0.3
							c0.2,0.1,0.3,0.3,0.3,0.5l-0.9,3.2C119.1,5.8,118.9,5.9,118.7,5.9z"/>
					</g>
				</g>
			</g>
			<g>
				<g>
					<g>
						<path class="st2" d="M113.3,5.6c-0.2,0-0.4-0.1-0.4-0.3l-0.4-3.3c0-0.2,0.1-0.4,0.3-0.4c0.2,0,0.4,0.1,0.4,0.3l0.4,3.3
							C113.7,5.3,113.6,5.5,113.3,5.6C113.3,5.6,113.3,5.6,113.3,5.6z"/>
					</g>
				</g>
				<g>
					<g>
						<path class="st2" d="M98,21.7c-0.2,0-0.4-0.1-0.4-0.3c0-0.2,0.1-0.4,0.3-0.4l3.3-0.4c0.2,0,0.4,0.1,0.4,0.3
							c0,0.2-0.1,0.4-0.3,0.4L98,21.7C98,21.7,98,21.7,98,21.7z"/>
					</g>
					<g>
						<path class="st2" d="M129,17.6c-0.2,0-0.4-0.1-0.4-0.3c0-0.2,0.1-0.4,0.3-0.4l3.3-0.4c0.2,0,0.4,0.1,0.4,0.3
							c0,0.2-0.1,0.4-0.3,0.4L129,17.6C129,17.6,129,17.6,129,17.6z"/>
					</g>
				</g>
			</g>
			<g>
				<g>
					<g>
						<path class="st2" d="M109.8,6.5c-0.2,0-0.3-0.1-0.4-0.2l-1.3-3.1c-0.1-0.2,0-0.4,0.2-0.5c0.2-0.1,0.4,0,0.5,0.2l1.3,3.1
							c0.1,0.2,0,0.4-0.2,0.5C109.9,6.5,109.8,6.5,109.8,6.5z"/>
					</g>
				</g>
				<g>
					<g>
						<path class="st2" d="M128,14.1c-0.2,0-0.3-0.1-0.4-0.2c-0.1-0.2,0-0.4,0.2-0.5L131,12c0.2-0.1,0.4,0,0.5,0.2
							c0.1,0.2,0,0.4-0.2,0.5l-3.1,1.3C128.1,14.1,128.1,14.1,128,14.1z"/>
					</g>
					<g>
						<path class="st2" d="M99.2,26c-0.2,0-0.3-0.1-0.4-0.2c-0.1-0.2,0-0.4,0.2-0.5l3.1-1.3c0.2-0.1,0.4,0,0.5,0.2
							c0.1,0.2,0,0.4-0.2,0.5L99.3,26C99.3,26,99.2,26,99.2,26z"/>
					</g>
				</g>
			</g>
			<g>
				<g>
					<g>
						<path class="st2" d="M106.6,8.3c-0.1,0-0.2-0.1-0.3-0.2l-2-2.6c-0.1-0.2-0.1-0.4,0.1-0.6c0.2-0.1,0.4-0.1,0.6,0.1l2,2.6
							c0.1,0.2,0.1,0.4-0.1,0.6C106.8,8.3,106.7,8.3,106.6,8.3z"/>
					</g>
				</g>
				<g>
					<g>
						<path class="st2" d="M126.2,10.9c-0.1,0-0.2-0.1-0.3-0.2c-0.1-0.2-0.1-0.4,0.1-0.6l2.6-2c0.2-0.1,0.4-0.1,0.6,0.1
							c0.1,0.2,0.1,0.4-0.1,0.6l-2.6,2C126.4,10.9,126.3,10.9,126.2,10.9z"/>
					</g>
				</g>
			</g>
			<g>
				<g>
					<g>
						<path class="st2" d="M104,10.9c-0.1,0-0.2,0-0.2-0.1l-2.6-2c-0.2-0.1-0.2-0.4-0.1-0.6c0.1-0.2,0.4-0.2,0.6-0.1l2.6,2
							c0.2,0.1,0.2,0.4,0.1,0.6C104.3,10.9,104.2,10.9,104,10.9z"/>
					</g>
				</g>
				<g>
					<g>
						<path class="st2" d="M123.6,8.3c-0.1,0-0.2,0-0.2-0.1c-0.2-0.1-0.2-0.4-0.1-0.6l2-2.6c0.1-0.2,0.4-0.2,0.6-0.1
							c0.2,0.1,0.2,0.4,0.1,0.6l-2,2.6C123.9,8.3,123.8,8.3,123.6,8.3z"/>
					</g>
				</g>
			</g>
			<g>
				<g>
					<g>
						<path class="st2" d="M102.2,14.1c-0.1,0-0.1,0-0.2,0L99,12.8c-0.2-0.1-0.3-0.3-0.2-0.5c0.1-0.2,0.3-0.3,0.5-0.2l3.1,1.3
							c0.2,0.1,0.3,0.3,0.2,0.5C102.5,14,102.4,14.1,102.2,14.1z"/>
					</g>
					<g>
						<path class="st2" d="M131.1,26c-0.1,0-0.1,0-0.2,0l-3.1-1.3c-0.2-0.1-0.3-0.3-0.2-0.5c0.1-0.2,0.3-0.3,0.5-0.2l3.1,1.3
							c0.2,0.1,0.3,0.3,0.2,0.5C131.4,25.9,131.3,26,131.1,26z"/>
					</g>
				</g>
				<g>
					<g>
						<path class="st2" d="M120.5,6.5c-0.1,0-0.1,0-0.2,0c-0.2-0.1-0.3-0.3-0.2-0.5l1.3-3.1c0.1-0.2,0.3-0.3,0.5-0.2
							c0.2,0.1,0.3,0.3,0.2,0.5l-1.3,3.1C120.8,6.4,120.6,6.5,120.5,6.5z"/>
					</g>
				</g>
			</g>
			<g>
				<g>
					<g>
						<path class="st2" d="M101.3,17.6C101.3,17.6,101.2,17.6,101.3,17.6l-3.3-0.4c-0.2,0-0.4-0.2-0.3-0.4c0-0.2,0.2-0.4,0.4-0.3
							l3.3,0.4c0.2,0,0.4,0.2,0.3,0.4C101.6,17.4,101.5,17.6,101.3,17.6z"/>
					</g>
					<g>
						<path class="st2" d="M132.3,21.7C132.3,21.7,132.2,21.7,132.3,21.7l-3.3-0.4c-0.2,0-0.4-0.2-0.3-0.4c0-0.2,0.2-0.4,0.4-0.3
							l3.3,0.4c0.2,0,0.4,0.2,0.3,0.4C132.6,21.5,132.5,21.7,132.3,21.7z"/>
					</g>
				</g>
				<g>
					<g>
						<path class="st2" d="M117,5.6C116.9,5.6,116.9,5.6,117,5.6c-0.3,0-0.4-0.2-0.4-0.5l0.4-3.3c0-0.2,0.2-0.4,0.4-0.3
							c0.2,0,0.4,0.2,0.3,0.4l-0.4,3.3C117.3,5.4,117.2,5.6,117,5.6z"/>
					</g>
				</g>
			</g>
		</g>
		<g>
			<path class="st3" d="M110,10V8.3l-0.4,0.3V8.4L110,8h0.3V10H110z"/>
			<path class="st3" d="M111.5,10c-0.3,0-0.6-0.2-0.6-0.6V8.6c0-0.3,0.3-0.6,0.6-0.6c0.3,0,0.6,0.2,0.6,0.6v0.9
				C112,9.8,111.8,10,111.5,10z M111.7,8.6c0-0.2-0.1-0.3-0.3-0.3c-0.2,0-0.3,0.1-0.3,0.3v0.8c0,0.2,0.1,0.3,0.3,0.3
				c0.2,0,0.3-0.1,0.3-0.3V8.6z"/>
		</g>
		<g>
			<path class="st3" d="M118.5,10V8.3l-0.4,0.3V8.4l0.4-0.3h0.3V10H118.5z"/>
			<path class="st3" d="M120.4,9.9c-0.1,0.1-0.2,0.2-0.4,0.2c-0.2,0-0.3-0.1-0.4-0.2c-0.1-0.1-0.1-0.2-0.1-0.4h0.3
				c0,0.2,0.1,0.3,0.3,0.3c0.1,0,0.2,0,0.2-0.1c0.1-0.1,0.1-0.2,0.1-0.3c0-0.2-0.1-0.4-0.3-0.4c-0.2,0-0.2,0.1-0.3,0.2h-0.3V8h1.1
				v0.2h-0.8v0.5c0.1-0.1,0.2-0.1,0.3-0.1c0.2,0,0.3,0,0.3,0.1c0.1,0.1,0.2,0.3,0.2,0.5C120.6,9.5,120.5,9.7,120.4,9.9z"/>
		</g>
		<g>
			<path class="st3" d="M105.5,16.2c-0.1,0.1-0.2,0.2-0.4,0.2c-0.2,0-0.3-0.1-0.4-0.2c-0.1-0.1-0.1-0.2-0.1-0.4h0.3
				c0,0.2,0.1,0.3,0.3,0.3c0.1,0,0.2,0,0.2-0.1c0.1-0.1,0.1-0.2,0.1-0.3c0-0.2-0.1-0.4-0.3-0.4c-0.2,0-0.2,0.1-0.3,0.2h-0.3v-1.1
				h1.1v0.2h-0.8v0.5c0.1-0.1,0.2-0.1,0.3-0.1c0.2,0,0.3,0,0.4,0.1c0.1,0.1,0.2,0.3,0.2,0.5C105.7,15.9,105.7,16.1,105.5,16.2z"/>
		</g>
		<g>
			<path class="st3" d="M123.8,16.3v-0.2l0.8-0.9c0.1-0.1,0.1-0.2,0.1-0.3c0-0.2-0.1-0.3-0.3-0.3c-0.1,0-0.3,0.1-0.3,0.3h-0.3
				c0-0.3,0.2-0.5,0.6-0.5c0.3,0,0.6,0.2,0.6,0.5c0,0.2-0.1,0.3-0.2,0.4l-0.6,0.7h0.8v0.2H123.8z"/>
			<path class="st3" d="M125.8,16.4c-0.3,0-0.6-0.2-0.6-0.6v-0.9c0-0.3,0.3-0.6,0.6-0.6c0.3,0,0.6,0.2,0.6,0.6v0.9
				C126.3,16.1,126.1,16.4,125.8,16.4z M126.1,14.9c0-0.2-0.1-0.3-0.3-0.3c-0.2,0-0.3,0.1-0.3,0.3v0.8c0,0.2,0.1,0.3,0.3,0.3
				c0.2,0,0.3-0.1,0.3-0.3V14.9z"/>
		</g>
		<g>
			<path class="st3" d="M105.1,23.8c-0.3,0-0.6-0.2-0.6-0.6v-0.9c0-0.3,0.3-0.6,0.6-0.6c0.3,0,0.6,0.2,0.6,0.6v0.9
				C105.7,23.5,105.4,23.8,105.1,23.8z M105.4,22.3c0-0.2-0.1-0.3-0.3-0.3c-0.2,0-0.3,0.1-0.3,0.3v0.8c0,0.2,0.1,0.3,0.3,0.3
				c0.2,0,0.3-0.1,0.3-0.3V22.3z"/>
		</g>
		<g>
			<path class="st3" d="M123.9,23.7v-0.2l0.7-0.9c0.1-0.1,0.1-0.2,0.1-0.3c0-0.2-0.1-0.3-0.3-0.3c-0.1,0-0.3,0.1-0.3,0.3h-0.3
				c0-0.3,0.2-0.6,0.6-0.6c0.3,0,0.6,0.2,0.6,0.5c0,0.2-0.1,0.3-0.2,0.4l-0.6,0.7h0.8v0.2H123.9z"/>
			<path class="st3" d="M126.4,23.6c-0.1,0.1-0.2,0.2-0.4,0.2c-0.2,0-0.3-0.1-0.4-0.2c-0.1-0.1-0.1-0.2-0.1-0.4h0.3
				c0,0.2,0.1,0.3,0.3,0.3c0.1,0,0.2,0,0.2-0.1c0.1-0.1,0.1-0.2,0.1-0.3c0-0.2-0.1-0.4-0.3-0.4c-0.2,0-0.2,0.1-0.3,0.2h-0.3v-1.1h1
				V22h-0.8v0.5c0.1-0.1,0.2-0.1,0.3-0.1c0.2,0,0.3,0,0.4,0.1c0.1,0.1,0.2,0.3,0.2,0.5C126.5,23.3,126.5,23.5,126.4,23.6z"/>
		</g>
		<g>
			<polygon class="st1" points="123.1,10.7 122.9,10.5 116.4,16.8 116.9,17.2 			"/>
		</g>
		<g>
			<path class="st1" d="M115.1,22.1c-1.7,0-3.1-1.4-3.1-3.1c0-1.7,1.4-3.1,3.1-3.1c1.7,0,3.1,1.4,3.1,3.1
				C118.2,20.7,116.8,22.1,115.1,22.1z M115.1,16.8c-1.2,0-2.3,1-2.3,2.3c0,1.2,1,2.3,2.3,2.3c1.2,0,2.3-1,2.3-2.3
				C117.4,17.8,116.4,16.8,115.1,16.8z"/>
		</g>
	</g>
	<g>
		<g>
			<g>
				<path class="st4" d="M32.9,22.9l8.5,11.6l7-4l9.8-6.7c0,0-7.6-4.4-13.8-4C38.2,20.1,32.6,22,32.9,22.9z"/>
				<path class="st2" d="M41.4,34.8c-0.1,0-0.2-0.1-0.3-0.2l-8.5-11.6c0,0,0-0.1-0.1-0.1c0-0.1,0-0.3,0.1-0.6
					c0.8-1.1,6.2-2.7,11.7-3.1c6.2-0.4,13.7,3.9,14,4.1c0.1,0.1,0.2,0.2,0.2,0.3c0,0.1-0.1,0.3-0.2,0.3l-9.8,6.7l-7,4.1
					C41.5,34.8,41.4,34.8,41.4,34.8z M33.3,22.8l8.2,11.1l6.7-3.9l9.2-6.3c-1.9-1-8-4-13-3.6C38.5,20.5,33.9,22.1,33.3,22.8z"/>
			</g>
			<g>
				<g>
					<g>
						<path class="st2" d="M15.2,44.5C15.2,44.5,15.1,44.5,15.2,44.5c-0.2,0-0.3-0.1-0.3-0.2l-0.4-0.6c-0.1-0.1-0.1-0.2-0.1-0.3
							s0.1-0.2,0.2-0.3l0.6-0.4c-0.1-0.1-0.1-0.2,0-0.3c0.1-0.1,0.2-0.2,0.3-0.2l1.4-0.1c0.1,0,0.3,0,0.4,0.2c0.1,0.1,0.1,0.3,0,0.4
							l-0.6,1.3c-0.1,0.1-0.2,0.2-0.3,0.2c-0.1,0-0.2,0-0.3-0.1l-0.6,0.4C15.3,44.4,15.3,44.5,15.2,44.5z M16.1,42.8
							c0,0.1,0,0.1-0.1,0.2c0.1,0,0.1,0,0.2,0l0.1-0.2L16.1,42.8z"/>
					</g>
				</g>
				<g>
					<g>
						<path class="st2" d="M5.3,52.4c-0.1,0-0.2-0.1-0.3-0.2l-1.2-1.7c-0.1-0.1-0.1-0.3,0-0.4C3.8,50,3.9,50,4.1,49.9l2.3-0.4
							c0.1,0,0.3,0,0.4,0.2c0.1,0.1,0.1,0.3,0,0.4l-1.1,2C5.6,52.3,5.5,52.4,5.3,52.4C5.3,52.4,5.3,52.4,5.3,52.4z M4.8,50.6
							l0.5,0.6l0.4-0.8L4.8,50.6z"/>
					</g>
				</g>
				<g>
					<g>
						<path class="st2" d="M24,37.5c-0.1,0-0.2-0.1-0.3-0.2c-0.1-0.1-0.1-0.3,0-0.4l1.1-2c0.1-0.1,0.2-0.2,0.3-0.2
							c0.1,0,0.3,0.1,0.4,0.2l1.2,1.7c0.1,0.1,0.1,0.3,0,0.4c-0.1,0.1-0.2,0.2-0.3,0.2L24,37.5C24.1,37.5,24.1,37.5,24,37.5z
							 M25.2,35.9l-0.4,0.8l0.8-0.1L25.2,35.9z"/>
					</g>
				</g>
				<g>
					<g>
						<path class="st2" d="M12.4,46c-0.1,0-0.2-0.1-0.3-0.2c-0.1-0.1-0.1-0.3,0-0.4l0.6-1.3c0.1-0.1,0.2-0.2,0.3-0.2
							c0.1,0,0.2,0,0.3,0.1l0.6-0.4c0.2-0.1,0.4-0.1,0.6,0.1l0.4,0.6c0.1,0.1,0.1,0.2,0.1,0.3c0,0.1-0.1,0.2-0.2,0.3l-0.6,0.4
							c0.1,0.1,0.1,0.2,0,0.3c-0.1,0.1-0.2,0.2-0.3,0.2L12.4,46C12.4,46,12.4,46,12.4,46z M13.1,44.9l-0.1,0.2l0.2,0
							c0-0.1,0-0.1,0.1-0.2C13.3,45,13.2,45,13.1,44.9z"/>
					</g>
				</g>
				<g>
					<g>
						<path class="st2" d="M25.6,41.4c-0.1,0-0.2-0.1-0.3-0.2l-4.8-6.6c-0.1-0.1-0.1-0.3,0-0.4c0.1-0.1,0.2-0.2,0.3-0.2l4.9-1
							c0.9-0.1,1.4,0.4,2,1.2l0.2,0.2c0.6,0.8,0.7,1.4,0.5,2.2c0,0,0,0.1,0,0.1l-2.4,4.5C25.9,41.3,25.7,41.3,25.6,41.4
							C25.6,41.4,25.6,41.4,25.6,41.4z M21.5,34.6l4.1,5.6l2.1-3.9c0.1-0.4,0.1-0.8-0.4-1.4L27,34.6c-0.6-0.8-0.8-0.9-1.2-0.9
							L21.5,34.6z"/>
					</g>
				</g>
				<g>
					<g>
						<g>
							<path class="st2" d="M20.5,35.5c-0.1,0-0.2-0.1-0.3-0.2c-0.1-0.2-0.1-0.4,0.1-0.6l0.5-0.4c0.2-0.1,0.4-0.1,0.6,0.1
								c0.1,0.2,0.1,0.4-0.1,0.6l-0.5,0.4C20.7,35.5,20.6,35.5,20.5,35.5z"/>
						</g>
					</g>
					<g>
						<g>
							<path class="st2" d="M24.7,41.3c-0.1,0-0.2-0.1-0.3-0.2c-0.1-0.2-0.1-0.4,0.1-0.6l0.5-0.4c0.2-0.1,0.4-0.1,0.6,0.1
								c0.1,0.2,0.1,0.4-0.1,0.6l-0.5,0.4C24.9,41.3,24.8,41.3,24.7,41.3z"/>
						</g>
					</g>
				</g>
				<g>
					<g>
						<path class="st2" d="M3.3,55.5c-0.1,0-0.2-0.1-0.3-0.2l-2.9-4c-0.1-0.2-0.1-0.4,0.1-0.6L1,50.2c0.1-0.1,0.2-0.1,0.3-0.1
							c0.1,0,0.2,0.1,0.3,0.2l2.9,4c0.1,0.1,0.1,0.2,0.1,0.3c0,0.1-0.1,0.2-0.2,0.3l-0.8,0.6C3.5,55.5,3.4,55.5,3.3,55.5z M1,51.2
							l2.5,3.4l0.1-0.1l-2.5-3.4L1,51.2z"/>
					</g>
				</g>
				<g>
					<g>
						<path class="st2" d="M5.4,55.6c-0.6,0-1.3-0.3-1.6-0.8l-2.9-4c-0.3-0.4-0.4-1-0.4-1.5c0.1-0.5,0.4-1,0.8-1.3L20,34.4
							c0.2-0.1,0.4-0.1,0.6,0.1l4.8,6.6c0.1,0.1,0.1,0.2,0.1,0.3c0,0.1-0.1,0.2-0.2,0.3L6.6,55.2C6.3,55.5,5.8,55.6,5.4,55.6z
							 M20.1,35.3L1.8,48.6c-0.6,0.4-0.7,1.2-0.3,1.7l2.9,4c0.4,0.6,1.2,0.7,1.7,0.3l18.3-13.3L20.1,35.3z"/>
					</g>
				</g>
				<g>
					<g>
						<path class="st2" d="M27.9,35.7C27.8,35.7,27.8,35.6,27.9,35.7c-0.2,0-0.3-0.1-0.3-0.2l-1-1.3c-0.1-0.2-0.1-0.4,0.1-0.6
							l2.4-1.7c0.2-0.1,0.4-0.1,0.6,0.1l1,1.3c0.1,0.1,0.1,0.2,0.1,0.3c0,0.1-0.1,0.2-0.2,0.3l-2.4,1.7C28,35.6,28,35.7,27.9,35.7z
							 M27.5,34l0.5,0.7l1.7-1.3l-0.5-0.7L27.5,34z"/>
					</g>
				</g>
				<g>
					<g>
						<path class="st2" d="M31.1,35C31,35,31,35,31.1,35c-0.2,0-0.3-0.1-0.3-0.2l-2.4-3.3c-0.1-0.1-0.1-0.2-0.1-0.3
							c0-0.1,0.1-0.2,0.2-0.3l2.2-1.6c0.2-0.1,0.4-0.1,0.6,0.1l2.4,3.3c0.1,0.2,0.1,0.4-0.1,0.6L31.3,35C31.2,35,31.1,35,31.1,35z
							 M29.2,31.4l1.9,2.7l1.6-1.2l-1.9-2.7L29.2,31.4z"/>
					</g>
				</g>
				<g>
					<g>
						<path class="st2" d="M34.3,34.7C34.3,34.7,34.3,34.7,34.3,34.7c-0.2,0-0.3-0.1-0.3-0.2l-4.3-6c-0.1-0.1-0.1-0.2-0.1-0.3
							c0-0.1,0.1-0.2,0.2-0.3l2.2-1.6c0.2-0.1,0.4-0.1,0.6,0.1l4.3,6c0.1,0.2,0.1,0.4-0.1,0.6l-2.2,1.6
							C34.5,34.7,34.4,34.7,34.3,34.7z M30.5,28.5l3.8,5.3l1.6-1.2l-3.8-5.3L30.5,28.5z"/>
					</g>
				</g>
				<g>
					<g>
						<path class="st2" d="M37.5,34.4C37.5,34.4,37.5,34.4,37.5,34.4c-0.2,0-0.3-0.1-0.3-0.2L31,25.6c-0.1-0.2-0.1-0.4,0.1-0.6
							l2.2-1.6c0.1-0.1,0.2-0.1,0.3-0.1c0.1,0,0.2,0.1,0.3,0.2l6.2,8.6c0.1,0.2,0.1,0.4-0.1,0.6l-2.2,1.6
							C37.7,34.4,37.6,34.4,37.5,34.4z M31.8,25.5l5.8,7.9l1.6-1.2l-5.8-7.9L31.8,25.5z"/>
					</g>
				</g>
				<g>
					<g>
						<g>
							<path class="st2" d="M1.2,50.9c-0.1,0-0.2-0.1-0.3-0.2c-0.1-0.2-0.1-0.4,0.1-0.6L17,38.6c0.2-0.1,0.4-0.1,0.6,0.1
								c0.1,0.2,0.1,0.4-0.1,0.6L1.5,50.8C1.4,50.9,1.3,50.9,1.2,50.9z"/>
						</g>
					</g>
				</g>
				<g>
					<g>
						<g>
							<path class="st2" d="M4.1,55c-0.1,0-0.2-0.1-0.3-0.2c-0.1-0.2-0.1-0.4,0.1-0.6L20,42.6c0.2-0.1,0.4-0.1,0.6,0.1
								c0.1,0.2,0.1,0.4-0.1,0.6L4.4,54.9C4.3,54.9,4.2,55,4.1,55z"/>
						</g>
					</g>
				</g>
				<g>
					<g>
						<g>
							<path class="st2" d="M9.5,49.6c0,0-0.1,0-0.1,0L7.6,49c-0.1,0-0.2-0.1-0.2-0.2c0-0.1,0-0.2,0-0.3c0.3-0.6,0.7-1.2,1.3-1.6
								c0.6-0.4,1.2-0.7,1.9-0.7c0.1,0,0.2,0,0.3,0.1c0.1,0.1,0.1,0.2,0.1,0.3l0,1.8c0,0.2-0.1,0.3-0.3,0.4c-0.2,0-0.4,0.1-0.5,0.2
								c-0.2,0.1-0.3,0.3-0.4,0.4C9.7,49.5,9.6,49.6,9.5,49.6z M8.3,48.4l1,0.3c0.1-0.1,0.3-0.3,0.4-0.4c0.2-0.1,0.3-0.2,0.5-0.3
								l0-1c-0.4,0.1-0.8,0.3-1.1,0.5C8.8,47.8,8.5,48.1,8.3,48.4z"/>
						</g>
					</g>
					<g>
						<g>
							<path class="st2" d="M9.6,49.3c0,0-0.1,0-0.1,0l-1.8-0.7c-0.1,0-0.1-0.1-0.2-0.1c-0.3-0.3-0.3-0.9,0.1-1.2
								c0.1-0.1,0.3-0.2,0.4-0.2c0-0.1,0.1-0.3,0.2-0.4c0.2-0.2,0.4-0.2,0.6-0.2c0.2,0,0.4,0.1,0.6,0.3c0.1,0.2,0.1,0.4,0,0.6
								c-0.2,0.1-0.4,0.1-0.6,0c0,0,0,0,0,0l-0.1,0.1c0,0,0,0,0,0l1.2,1.3c0.1,0.1,0.1,0.3,0,0.5C9.9,49.2,9.8,49.3,9.6,49.3z
								 M8.1,47.9L8.1,47.9L8.1,47.9L8.1,47.9L8.1,47.9z"/>
						</g>
					</g>
				</g>
				<g>
					<g>
						<g>
							<path class="st2" d="M21,40.4c0,0-0.1,0-0.1,0L19.8,40c-0.1,0-0.2-0.1-0.2-0.2c0-0.1,0-0.2,0-0.3c0.2-0.4,0.5-0.8,0.9-1.1
								c0.4-0.3,0.8-0.5,1.3-0.5c0.1,0,0.2,0,0.3,0.1c0.1,0.1,0.1,0.2,0.1,0.3l0,1.2c0,0.2-0.1,0.3-0.3,0.4c-0.1,0-0.2,0.1-0.3,0.1
								c-0.1,0.1-0.2,0.1-0.2,0.2C21.3,40.3,21.1,40.4,21,40.4z M20.5,39.4l0.4,0.1c0.1-0.1,0.1-0.1,0.2-0.2
								c0.1-0.1,0.2-0.1,0.3-0.2l0-0.4c-0.2,0.1-0.3,0.1-0.5,0.3C20.7,39.1,20.6,39.3,20.5,39.4z"/>
						</g>
					</g>
					<g>
						<g>
							<path class="st2" d="M21.1,40.2c0,0-0.1,0-0.1,0l-1.2-0.5c-0.1,0-0.1-0.1-0.2-0.1c-0.1-0.1-0.2-0.3-0.2-0.5
								c0-0.2,0.1-0.4,0.2-0.5c0.1-0.1,0.2-0.1,0.3-0.1c0-0.1,0.1-0.2,0.2-0.2c0.3-0.3,0.7-0.2,1,0c0.1,0.2,0.1,0.4,0,0.6
								c0,0-0.1,0.1-0.2,0.1l0.5,0.6c0.1,0.1,0.1,0.3,0,0.5C21.4,40.2,21.3,40.2,21.1,40.2z"/>
						</g>
					</g>
				</g>
				<g>
					<g>
						<g>
							<path class="st2" d="M19.6,38.4c0,0-0.1,0-0.1,0l-1.1-0.4c-0.1,0-0.2-0.1-0.2-0.2c0-0.1,0-0.2,0-0.3c0.2-0.4,0.5-0.8,0.9-1.1
								c0.4-0.3,0.8-0.5,1.3-0.5c0.1,0,0.2,0,0.3,0.1c0.1,0.1,0.1,0.2,0.1,0.3l0,1.2c0,0.2-0.1,0.3-0.3,0.4c-0.1,0-0.2,0.1-0.3,0.1
								c-0.1,0.1-0.2,0.1-0.2,0.2C19.9,38.4,19.7,38.4,19.6,38.4z M19.1,37.5l0.4,0.1c0.1-0.1,0.1-0.1,0.2-0.2
								c0.1-0.1,0.2-0.1,0.3-0.2l0-0.4c-0.2,0.1-0.3,0.1-0.5,0.3C19.3,37.2,19.2,37.3,19.1,37.5z"/>
						</g>
					</g>
					<g>
						<g>
							<path class="st5" d="M18.9,37"/>
						</g>
					</g>
					<g>
						<g>
							<path class="st2" d="M19.7,38.3c-0.1,0-0.2,0-0.3-0.1l-0.8-0.9c-0.1-0.2-0.1-0.4,0-0.6c0.2-0.1,0.4-0.1,0.6,0l0.8,0.9
								c0.1,0.2,0.1,0.4,0,0.6C19.9,38.2,19.8,38.3,19.7,38.3z"/>
						</g>
					</g>
				</g>
				<g>
					<g>
						<path class="st2" d="M21.1,44.6c-0.1,0-0.2-0.1-0.3-0.2L16,37.8c-0.1-0.2-0.1-0.4,0.1-0.6c0.2-0.1,0.4-0.1,0.6,0.1l4.8,6.6
							c0.1,0.2,0.1,0.4-0.1,0.6C21.3,44.5,21.2,44.6,21.1,44.6z"/>
					</g>
				</g>
				<g>
					<g>
						<g>
							<path class="st2" d="M22.4,42.7C22.4,42.7,22.3,42.7,22.4,42.7c-0.2,0-0.3-0.1-0.3-0.2L21,41.1c-0.1-0.1-0.1-0.2-0.1-0.3
								c0-0.1,0.1-0.2,0.2-0.3c0.3-0.2,1.9-1,2.5-0.2c0.6,0.9-0.7,2.1-1,2.3C22.6,42.7,22.5,42.7,22.4,42.7z M21.9,41l0.5,0.7
								c0.4-0.4,0.6-0.8,0.5-0.9C22.9,40.7,22.4,40.8,21.9,41z"/>
						</g>
					</g>
					<g>
						<g>
							<path class="st2" d="M22.1,42.7c-0.1,0-0.2-0.1-0.3-0.2l-0.8-1.1c-0.1-0.1-0.1-0.2-0.1-0.3c0-0.1,0.1-0.2,0.2-0.3l0.2-0.1
								c0.2-0.1,0.4-0.1,0.6,0.1c0.1,0.1,0.1,0.3,0,0.4l0.4,0.5c0.1,0,0.3,0,0.4,0.2c0.1,0.2,0.1,0.4-0.1,0.6l-0.2,0.1
								C22.2,42.7,22.1,42.7,22.1,42.7z"/>
						</g>
					</g>
				</g>
				<g>
					<g>
						<path class="st2" d="M18.3,39.6c-0.1,0-0.1,0-0.2,0c-0.1,0-0.1,0-0.2-0.1c-0.1,0-0.1-0.1-0.2-0.1c-0.1,0-0.1-0.1-0.2-0.2
							c-0.1-0.1-0.1-0.1-0.1-0.2c0-0.1-0.1-0.1-0.1-0.2c0-0.1,0-0.2,0-0.2c0-0.1,0-0.1,0-0.2c0,0,0.1-0.1,0.1-0.2
							c0,0,0.1-0.1,0.1-0.1c0,0,0.1-0.1,0.1-0.1c0,0,0.1,0,0.1,0c0,0,0.1,0,0.1,0c0,0,0.1,0,0.2,0c0,0,0.1,0,0.2,0
							c0.1,0,0.1,0,0.2,0.1c0.1,0,0.1,0.1,0.2,0.1c0.1,0.1,0.1,0.1,0.2,0.2c0.1,0.1,0.1,0.1,0.1,0.2c0,0.1,0.1,0.2,0.1,0.2
							c0,0.1,0,0.2,0,0.2c0,0.1,0,0.1,0,0.2c0,0-0.1,0.1-0.1,0.2c0,0.1-0.1,0.1-0.1,0.1c0,0,0,0,0,0l0,0c0,0,0,0,0,0l0,0
							c0,0-0.1,0.1-0.1,0.1c0,0-0.1,0.1-0.1,0.1C18.5,39.5,18.4,39.5,18.3,39.6C18.3,39.6,18.3,39.6,18.3,39.6z"/>
					</g>
				</g>
				<g>
					<g>
						<path class="st2" d="M21.2,43.2c-0.1,0-0.2,0-0.3-0.1l-0.2-0.3c0,0-0.1,0-0.1,0c-0.1,0-0.2-0.1-0.3-0.2l0,0
							c-0.1-0.1-0.1-0.2-0.1-0.3c0-0.1,0-0.1,0.1-0.2c0-0.1,0-0.3,0.2-0.4c0.2-0.1,0.5-0.1,0.6,0.1l0.6,0.8c0.1,0.1,0.1,0.2,0.1,0.3
							c0,0.1-0.1,0.2-0.2,0.3C21.4,43.2,21.3,43.2,21.2,43.2z"/>
					</g>
				</g>
			</g>
		</g>
		<g>
			<g>
				<path class="st4" d="M38.6,85.4c0,0-6.9-2.3-10.1-8.1c-6.1-11.1-4.4-24.6-2.6-28.8c2.7-6.4,9.3-9.6,12-11s5.4-5.8,10.8-10.1
					s17.5-4.5,17.5-4.5H68c0,0,12.1,0.2,17.5,4.5s8.1,8.7,10.8,10.1c2.7,1.4,9.3,4.6,12,11c1.8,4.2,3.5,17.8-2.6,28.8
					c-3.2,5.8-10.1,8.1-10.1,8.1"/>
				<path class="st2" d="M95.6,85.8c-0.2,0-0.3-0.1-0.4-0.3c-0.1-0.2,0-0.4,0.3-0.5c0.1,0,6.8-2.3,9.9-7.9
					c6.3-11.4,4.1-24.9,2.6-28.5c-2.5-5.9-8.4-9-11.3-10.5l-0.5-0.3c-1.4-0.7-2.7-2.2-4.4-4c-1.7-1.8-3.7-4-6.5-6.2
					C80,23.5,68.1,23.3,68,23.3h-1.7c-0.1,0-12,0.2-17.3,4.4c-2.7,2.1-4.8,4.4-6.5,6.2c-1.7,1.8-3.1,3.3-4.4,4l-0.5,0.3
					c-2.9,1.5-8.8,4.6-11.3,10.5c-1.5,3.6-3.7,17.1,2.6,28.5c3.1,5.6,9.8,7.9,9.9,7.9c0.2,0.1,0.3,0.3,0.3,0.5
					c-0.1,0.2-0.3,0.3-0.5,0.3c-0.3-0.1-7.1-2.4-10.3-8.2C21.7,65.8,24,52,25.5,48.3c2.6-6.2,8.7-9.4,11.6-10.9l0.5-0.3
					c1.3-0.7,2.6-2.1,4.2-3.8c1.7-1.8,3.8-4,6.5-6.2c5.5-4.3,17.3-4.5,17.8-4.5H68c0.5,0,12.3,0.2,17.8,4.5c2.8,2.2,4.9,4.4,6.5,6.2
					c1.7,1.8,3,3.2,4.2,3.8l0.5,0.3c2.9,1.5,9.1,4.8,11.6,10.9c1.6,3.7,3.8,17.5-2.6,29.2c-3.2,5.8-10,8.2-10.3,8.2
					C95.7,85.8,95.6,85.8,95.6,85.8z"/>
			</g>
			<g>
				<g>
					<g>
						<path class="st2" d="M88.4,81.8c-0.2,0-0.4,0-0.7-0.1l-9.9-2.7c-0.7-0.2-1.2-0.6-1.6-1.2c-0.3-0.6-0.4-1.3-0.3-1.9l7.5-28
							c0.1-0.2,0.2-0.4,0.3-0.6c0.9-2.3,2.7-4.2,5-5.4c2.4-1.2,5.1-1.5,7.6-0.8h0c1.4,0.4,2.7,1,3.8,1.9c1.1,0.8,2,1.9,2.7,3.1
							c0.7,1.2,1.1,2.5,1.3,3.9c0.2,1.4,0.1,2.8-0.3,4.2c-0.4,1.4-1.1,2.7-2.2,4c-0.9,1-1.9,1.9-2.9,2.7c-0.8,0.7-1.6,1.3-2.1,2
							c0,0.1-0.5,0.6-1.5,3.2c-0.6,1.5-1.2,3.5-2,5.9c-1.3,4.1-2.3,8-2.3,8c0,0,0,0,0,0C90.6,81.1,89.6,81.8,88.4,81.8z M93.7,41.5
							c-1.5,0-3.1,0.4-4.5,1.1c-2.1,1.1-3.8,2.9-4.7,5.1c-0.1,0.2-0.2,0.3-0.2,0.5l-7.5,28c-0.1,0.5-0.1,0.9,0.2,1.3
							c0.2,0.4,0.6,0.7,1.1,0.8L88,81c0.5,0.1,0.9,0.1,1.3-0.2c0.4-0.2,0.7-0.6,0.8-1.1c0,0,0,0,0,0l0,0c0,0,1-3.9,2.3-8
							c0.7-2.4,1.4-4.4,2-6c1-2.5,1.5-3.3,1.6-3.5c0.6-0.7,1.4-1.3,2.2-2c1-0.8,2-1.6,2.8-2.6c1-1.2,1.7-2.4,2.1-3.7
							c0.3-1.3,0.4-2.6,0.2-3.9c-0.2-1.3-0.6-2.5-1.2-3.6c-0.6-1.1-1.5-2.1-2.5-2.9c-1-0.8-2.2-1.4-3.5-1.7h0
							C95.4,41.6,94.5,41.5,93.7,41.5z M90.5,79.8L90.5,79.8L90.5,79.8z M88.4,80.4c-0.1,0-0.2,0-0.3,0l-9.9-2.7
							c-0.3-0.1-0.5-0.3-0.7-0.5c-0.2-0.3-0.2-0.6-0.1-0.9l7.5-28c0-0.1,0.1-0.2,0.2-0.3c1.7-4.4,6.4-6.7,11-5.5
							c4.9,1.3,7.8,6.4,6.5,11.3c-0.7,2.7-2.8,4.4-4.7,6c-0.9,0.7-1.7,1.4-2.3,2.1c-1.6,1.8-4.7,12.4-6.1,17.7
							C89.4,80,88.9,80.4,88.4,80.4z M93.7,42.9c-3.4,0-6.5,2.1-7.8,5.4c0,0,0,0.1-0.1,0.1c0,0,0,0.1-0.1,0.1l-7.5,28
							c0,0.1,0,0.2,0,0.2c0,0.1,0.1,0.1,0.2,0.2l9.9,2.7c0.2,0,0.3-0.1,0.4-0.2c0.2-0.6,4.2-15.7,6.3-18.1c0.7-0.8,1.5-1.5,2.4-2.2
							c1.8-1.5,3.8-3.1,4.4-5.6c1.2-4.5-1.5-9.1-6-10.3C95.1,43,94.4,42.9,93.7,42.9z"/>
					</g>
					<g>
						<g>
							<g>
								<path class="st3" d="M94.4,58.7c0,0-0.1,0-0.1,0l-5-1.4c-0.1,0-0.2-0.1-0.2-0.2l-2.6-4.5c-0.1-0.1-0.1-0.2,0-0.3l1.3-5
									c0-0.1,0.1-0.2,0.2-0.2l4.5-2.6c0.1-0.1,0.2-0.1,0.3,0l5,1.4c0.1,0,0.2,0.1,0.2,0.2l2.6,4.5c0.1,0.1,0.1,0.2,0,0.3l-1.4,5
									c0,0.1-0.1,0.2-0.2,0.2l-4.5,2.6C94.5,58.7,94.4,58.7,94.4,58.7z M89.6,56.6l4.7,1.3l4.2-2.4l1.3-4.7l-2.4-4.2l-4.7-1.3
									l-4.2,2.4l-1.3,4.7L89.6,56.6z"/>
							</g>
						</g>
						<g>
							<g>
								<path class="st6" d="M89.1,51.3l0.2,0c0,0.1,0,0.2,0,0.3c0,0.1,0,0.2,0.1,0.3c0,0.1,0.1,0.2,0.2,0.2
									c0.1,0.1,0.2,0.1,0.4,0.2c0.1,0,0.2,0,0.3,0c0.1,0,0.2,0,0.2-0.1c0.1,0,0.1-0.1,0.2-0.1c0-0.1,0.1-0.1,0.1-0.1
									c0,0,0-0.1,0-0.1c0-0.1,0-0.2,0-0.2c0-0.1-0.1-0.1-0.1-0.2c-0.1-0.1-0.1-0.1-0.2-0.1c-0.1,0-0.1-0.1-0.2-0.1
									c0,0-0.1,0-0.2-0.1c-0.1,0-0.1-0.1-0.2-0.1c-0.1,0-0.1-0.1-0.2-0.1c0,0-0.1-0.1-0.2-0.1c-0.1-0.1-0.1-0.1-0.2-0.2
									c0-0.1-0.1-0.1-0.1-0.2c0-0.1,0-0.2,0-0.3c0-0.1,0.1-0.2,0.1-0.2c0-0.1,0.1-0.1,0.2-0.2c0.1-0.1,0.2-0.1,0.3-0.1
									c0.1,0,0.3,0,0.5,0.1c0.1,0,0.2,0.1,0.3,0.1C91,49.9,91,50,91.1,50c0.1,0.1,0.1,0.1,0.1,0.2c0,0.1,0,0.2,0,0.2
									c0,0.1,0,0.1,0,0.2l-0.2,0c0,0,0-0.1,0-0.1c0,0,0-0.1,0-0.2c0-0.1,0-0.1-0.1-0.2c0-0.1-0.1-0.1-0.2-0.2
									c-0.1-0.1-0.2-0.1-0.3-0.1c-0.2-0.1-0.4-0.1-0.6,0c-0.2,0.1-0.3,0.2-0.3,0.3c0,0.1,0,0.1,0,0.2c0,0.1,0,0.1,0.1,0.2
									c0,0,0.1,0.1,0.1,0.1c0.1,0,0.1,0.1,0.2,0.1c0.1,0,0.1,0.1,0.2,0.1c0.2,0.1,0.4,0.2,0.5,0.3c0.2,0.2,0.3,0.4,0.3,0.7
									c0,0.1,0,0.1-0.1,0.2c0,0.1-0.1,0.1-0.1,0.2c-0.1,0.1-0.1,0.1-0.2,0.1c-0.1,0-0.2,0-0.3,0.1c-0.1,0-0.3,0-0.4-0.1
									c-0.2-0.1-0.3-0.1-0.5-0.2c-0.1-0.1-0.2-0.2-0.3-0.3s-0.1-0.2-0.1-0.3C89,51.5,89.1,51.4,89.1,51.3z"/>
							</g>
							<g>
								<path class="st6" d="M92.4,50.5l-0.9-0.2l0-0.2l1.9,0.5l0,0.2l-0.9-0.2l-0.6,2.4l-0.2,0L92.4,50.5z"/>
							</g>
							<g>
								<path class="st6" d="M93.1,52.9c-0.1-0.3-0.2-0.7,0-1.1c0.1-0.4,0.3-0.7,0.6-0.9c0.3-0.2,0.6-0.2,1-0.1s0.6,0.3,0.8,0.6
									c0.1,0.3,0.2,0.7,0,1.1c-0.1,0.4-0.3,0.7-0.6,0.9c-0.3,0.2-0.6,0.2-1,0.1C93.5,53.4,93.3,53.2,93.1,52.9z M93.5,51.4
									c-0.1,0.1-0.2,0.3-0.2,0.5c-0.1,0.2-0.1,0.4-0.1,0.6c0,0.2,0.1,0.3,0.1,0.4c0.1,0.1,0.2,0.2,0.3,0.3
									c0.1,0.1,0.2,0.1,0.4,0.2s0.3,0,0.4,0c0.1,0,0.2-0.1,0.4-0.1c0.1-0.1,0.2-0.2,0.3-0.3c0.1-0.1,0.2-0.3,0.2-0.5
									c0.1-0.2,0.1-0.4,0.1-0.6s-0.1-0.3-0.1-0.4c-0.1-0.1-0.2-0.2-0.3-0.3c-0.1-0.1-0.2-0.1-0.4-0.2c-0.1,0-0.3,0-0.4,0
									c-0.1,0-0.2,0-0.4,0.1C93.7,51.1,93.6,51.2,93.5,51.4z"/>
							</g>
							<g>
								<path class="st6" d="M96.3,51.4l0.9,0.2c0.5,0.1,0.8,0.5,0.6,0.9c0,0.1-0.1,0.2-0.1,0.3c0,0.1-0.1,0.1-0.1,0.2
									c-0.1,0-0.1,0.1-0.2,0.1c-0.1,0-0.1,0-0.2,0c-0.1,0-0.1,0-0.2,0c-0.1,0-0.1,0-0.1,0c0,0-0.1,0-0.1,0l-0.7-0.2L95.8,54
									l-0.2,0L96.3,51.4z M96.5,51.6l-0.3,1.1l0.7,0.2c0.5,0.1,0.7,0,0.8-0.4c0.1-0.4-0.1-0.6-0.5-0.7L96.5,51.6z"/>
							</g>
						</g>
					</g>
					<g>
						<g>
							<path class="st7" d="M84.9,75.6c-0.3,0-0.6,0-1-0.1C82,75,80.8,73,81.3,71c0.3-1,0.9-1.7,1.7-2.2c0.9-0.5,1.8-0.6,2.8-0.4
								c1,0.3,1.7,0.9,2.2,1.7c0.5,0.9,0.6,1.8,0.4,2.8c-0.3,1-0.9,1.7-1.7,2.2C86.2,75.5,85.5,75.6,84.9,75.6z M84.9,69.1
								c-0.5,0-1,0.1-1.4,0.4c-0.7,0.4-1.1,1-1.3,1.8c-0.4,1.5,0.5,3.1,2,3.5c1.5,0.4,3.1-0.5,3.5-2c0.2-0.7,0.1-1.5-0.3-2.2
								c-0.4-0.7-1-1.1-1.8-1.3C85.4,69.1,85.1,69.1,84.9,69.1z"/>
						</g>
						<g>
							<g>
								<path class="st7" d="M84.9,73.3c-0.1,0-0.2,0-0.3,0c-0.7-0.2-1.1-0.9-1-1.7c0.2-0.7,0.9-1.2,1.7-1c0.7,0.2,1.1,0.9,1,1.7
									C86,72.9,85.5,73.3,84.9,73.3z M84.9,71.4c-0.2,0-0.5,0.2-0.5,0.4c-0.1,0.3,0.1,0.6,0.4,0.7c0.3,0.1,0.6-0.1,0.7-0.4
									c0.1-0.3-0.1-0.6-0.4-0.7C85,71.4,84.9,71.4,84.9,71.4z"/>
							</g>
							<g>
								<g>
									<path class="st7" d="M85.1,71.4c0,0-0.1,0-0.1,0c-0.2-0.1-0.3-0.3-0.3-0.5L85,70c0.1-0.2,0.3-0.3,0.5-0.3
										c0.2,0.1,0.3,0.3,0.3,0.5l-0.2,0.9C85.5,71.3,85.3,71.4,85.1,71.4z"/>
								</g>
								<g>
									<path class="st7" d="M84.4,74.2c0,0-0.1,0-0.1,0c-0.2-0.1-0.3-0.3-0.3-0.5l0.2-0.9c0.1-0.2,0.3-0.3,0.5-0.3
										c0.2,0.1,0.3,0.3,0.3,0.5l-0.2,0.9C84.7,74,84.6,74.2,84.4,74.2z"/>
								</g>
							</g>
							<g>
								<g>
									<path class="st7" d="M84.2,71.6c-0.1,0-0.2,0-0.3-0.1l-0.6-0.6c-0.2-0.2-0.2-0.4,0-0.6s0.4-0.2,0.6,0l0.6,0.6
										c0.2,0.2,0.2,0.4,0,0.6C84.4,71.6,84.3,71.6,84.2,71.6z"/>
								</g>
								<g>
									<path class="st7" d="M86.2,73.7c-0.1,0-0.2,0-0.3-0.1l-0.6-0.6c-0.2-0.2-0.2-0.4,0-0.6s0.4-0.2,0.6,0l0.6,0.6
										c0.2,0.2,0.2,0.4,0,0.6C86.4,73.6,86.3,73.7,86.2,73.7z"/>
								</g>
							</g>
							<g>
								<g>
									<path class="st7" d="M85.8,72.1c-0.2,0-0.3-0.1-0.4-0.3c-0.1-0.2,0.1-0.4,0.3-0.5l0.9-0.2c0.2-0.1,0.4,0.1,0.5,0.3
										c0.1,0.2-0.1,0.4-0.3,0.5l-0.9,0.2C85.9,72.1,85.9,72.1,85.8,72.1z"/>
								</g>
								<g>
									<path class="st7" d="M83.1,72.8c-0.2,0-0.3-0.1-0.4-0.3c-0.1-0.2,0.1-0.4,0.3-0.5l0.9-0.2c0.2-0.1,0.4,0.1,0.5,0.3
										c0.1,0.2-0.1,0.4-0.3,0.5l-0.9,0.2C83.1,72.8,83.1,72.8,83.1,72.8z"/>
								</g>
							</g>
							<g>
								<g>
									<path class="st7" d="M85.1,71.4c0,0-0.1,0-0.1,0c-0.2-0.1-0.3-0.3-0.3-0.5L85,70c0.1-0.2,0.3-0.3,0.5-0.3
										c0.2,0.1,0.3,0.3,0.3,0.5l-0.2,0.9C85.5,71.3,85.3,71.4,85.1,71.4z"/>
								</g>
								<g>
									<path class="st7" d="M84.4,74.2c0,0-0.1,0-0.1,0c-0.2-0.1-0.3-0.3-0.3-0.5l0.2-0.9c0.1-0.2,0.3-0.3,0.5-0.3
										c0.2,0.1,0.3,0.3,0.3,0.5l-0.2,0.9C84.7,74,84.6,74.2,84.4,74.2z"/>
								</g>
							</g>
							<g>
								<g>
									<path class="st7" d="M84.2,71.6c-0.1,0-0.2,0-0.3-0.1l-0.6-0.6c-0.2-0.2-0.2-0.4,0-0.6s0.4-0.2,0.6,0l0.6,0.6
										c0.2,0.2,0.2,0.4,0,0.6C84.4,71.6,84.3,71.6,84.2,71.6z"/>
								</g>
								<g>
									<path class="st7" d="M86.2,73.7c-0.1,0-0.2,0-0.3-0.1l-0.6-0.6c-0.2-0.2-0.2-0.4,0-0.6s0.4-0.2,0.6,0l0.6,0.6
										c0.2,0.2,0.2,0.4,0,0.6C86.4,73.6,86.3,73.7,86.2,73.7z"/>
								</g>
							</g>
							<g>
								<g>
									<path class="st7" d="M85.8,72.1c-0.2,0-0.3-0.1-0.4-0.3c-0.1-0.2,0.1-0.4,0.3-0.5l0.9-0.2c0.2-0.1,0.4,0.1,0.5,0.3
										c0.1,0.2-0.1,0.4-0.3,0.5l-0.9,0.2C85.9,72.1,85.9,72.1,85.8,72.1z"/>
								</g>
								<g>
									<path class="st7" d="M83.1,72.8c-0.2,0-0.3-0.1-0.4-0.3c-0.1-0.2,0.1-0.4,0.3-0.5l0.9-0.2c0.2-0.1,0.4,0.1,0.5,0.3
										c0.1,0.2-0.1,0.4-0.3,0.5l-0.9,0.2C83.1,72.8,83.1,72.8,83.1,72.8z"/>
								</g>
							</g>
							<g>
								<g>
									<path class="st7" d="M85.1,71.4c0,0-0.1,0-0.1,0c-0.2-0.1-0.3-0.3-0.3-0.5L85,70c0.1-0.2,0.3-0.3,0.5-0.3
										c0.2,0.1,0.3,0.3,0.3,0.5l-0.2,0.9C85.5,71.3,85.3,71.4,85.1,71.4z"/>
								</g>
								<g>
									<path class="st7" d="M84.4,74.2c0,0-0.1,0-0.1,0c-0.2-0.1-0.3-0.3-0.3-0.5l0.2-0.9c0.1-0.2,0.3-0.3,0.5-0.3
										c0.2,0.1,0.3,0.3,0.3,0.5l-0.2,0.9C84.7,74,84.6,74.2,84.4,74.2z"/>
								</g>
							</g>
							<g>
								<g>
									<path class="st7" d="M84.2,71.6c-0.1,0-0.2,0-0.3-0.1l-0.6-0.6c-0.2-0.2-0.2-0.4,0-0.6s0.4-0.2,0.6,0l0.6,0.6
										c0.2,0.2,0.2,0.4,0,0.6C84.4,71.6,84.3,71.6,84.2,71.6z"/>
								</g>
								<g>
									<path class="st7" d="M86.2,73.7c-0.1,0-0.2,0-0.3-0.1l-0.6-0.6c-0.2-0.2-0.2-0.4,0-0.6s0.4-0.2,0.6,0l0.6,0.6
										c0.2,0.2,0.2,0.4,0,0.6C86.4,73.6,86.3,73.7,86.2,73.7z"/>
								</g>
							</g>
							<g>
								<g>
									<path class="st7" d="M85.8,72.1c-0.2,0-0.3-0.1-0.4-0.3c-0.1-0.2,0.1-0.4,0.3-0.5l0.9-0.2c0.2-0.1,0.4,0.1,0.5,0.3
										c0.1,0.2-0.1,0.4-0.3,0.5l-0.9,0.2C85.9,72.1,85.9,72.1,85.8,72.1z"/>
								</g>
								<g>
									<path class="st7" d="M83.1,72.8c-0.2,0-0.3-0.1-0.4-0.3c-0.1-0.2,0.1-0.4,0.3-0.5l0.9-0.2c0.2-0.1,0.4,0.1,0.5,0.3
										c0.1,0.2-0.1,0.4-0.3,0.5l-0.9,0.2C83.1,72.8,83.1,72.8,83.1,72.8z"/>
								</g>
							</g>
							<g>
								<g>
									<path class="st7" d="M85.1,71.4c0,0-0.1,0-0.1,0c-0.2-0.1-0.3-0.3-0.3-0.5L85,70c0.1-0.2,0.3-0.3,0.5-0.3
										c0.2,0.1,0.3,0.3,0.3,0.5l-0.2,0.9C85.5,71.3,85.3,71.4,85.1,71.4z"/>
								</g>
								<g>
									<path class="st7" d="M84.4,74.2c0,0-0.1,0-0.1,0c-0.2-0.1-0.3-0.3-0.3-0.5l0.2-0.9c0.1-0.2,0.3-0.3,0.5-0.3
										c0.2,0.1,0.3,0.3,0.3,0.5l-0.2,0.9C84.7,74,84.6,74.2,84.4,74.2z"/>
								</g>
							</g>
							<g>
								<g>
									<path class="st7" d="M84.2,71.6c-0.1,0-0.2,0-0.3-0.1l-0.6-0.6c-0.2-0.2-0.2-0.4,0-0.6s0.4-0.2,0.6,0l0.6,0.6
										c0.2,0.2,0.2,0.4,0,0.6C84.4,71.6,84.3,71.6,84.2,71.6z"/>
								</g>
								<g>
									<path class="st7" d="M86.2,73.7c-0.1,0-0.2,0-0.3-0.1l-0.6-0.6c-0.2-0.2-0.2-0.4,0-0.6s0.4-0.2,0.6,0l0.6,0.6
										c0.2,0.2,0.2,0.4,0,0.6C86.4,73.6,86.3,73.7,86.2,73.7z"/>
								</g>
							</g>
							<g>
								<g>
									<path class="st7" d="M85.8,72.1c-0.2,0-0.3-0.1-0.4-0.3c-0.1-0.2,0.1-0.4,0.3-0.5l0.9-0.2c0.2-0.1,0.4,0.1,0.5,0.3
										c0.1,0.2-0.1,0.4-0.3,0.5l-0.9,0.2C85.9,72.1,85.9,72.1,85.8,72.1z"/>
								</g>
								<g>
									<path class="st7" d="M83.1,72.8c-0.2,0-0.3-0.1-0.4-0.3c-0.1-0.2,0.1-0.4,0.3-0.5l0.9-0.2c0.2-0.1,0.4,0.1,0.5,0.3
										c0.1,0.2-0.1,0.4-0.3,0.5l-0.9,0.2C83.1,72.8,83.1,72.8,83.1,72.8z"/>
								</g>
							</g>
						</g>
					</g>
					<g>
						<g>
							<path class="st7" d="M86.6,65.8c-0.3,0-0.5,0-0.8-0.1C85,65.5,84.4,65,84,64.4c-0.4-0.7-0.5-1.5-0.3-2.2
								c0.4-1.6,2-2.5,3.6-2.1c0.8,0.2,1.4,0.7,1.8,1.4c0.4,0.7,0.5,1.5,0.3,2.2l0,0C89.1,65,87.9,65.8,86.6,65.8z M86.6,60.7
								c-0.4,0-0.7,0.1-1.1,0.3c-0.5,0.3-0.9,0.8-1,1.3c-0.2,0.6-0.1,1.1,0.2,1.6c0.3,0.5,0.8,0.9,1.3,1c1.2,0.3,2.3-0.4,2.6-1.5
								l0,0c0.2-0.6,0.1-1.1-0.2-1.6c-0.3-0.5-0.8-0.9-1.3-1C86.9,60.7,86.7,60.7,86.6,60.7z"/>
						</g>
						<g>
							<path class="st7" d="M87.5,64.5c0,0-0.1,0-0.1,0L85,63.8c-0.2-0.1-0.3-0.3-0.3-0.5l0.5-1.7c0-0.1,0.1-0.2,0.2-0.2
								c0.1-0.1,0.2-0.1,0.3,0l2.4,0.6c0.1,0,0.2,0.1,0.2,0.2c0.1,0.1,0.1,0.2,0,0.3l-0.5,1.7c0,0.1-0.1,0.2-0.2,0.2
								C87.7,64.4,87.6,64.5,87.5,64.5z M85.6,63.1l1.6,0.4l0.3-1l-1.6-0.4L85.6,63.1z"/>
						</g>
					</g>
				</g>
				<g>
					<g>
						<path class="st2" d="M45.7,81.8c-0.4,0-0.9-0.1-1.3-0.3c-0.6-0.3-1-0.9-1.2-1.6c0-0.2-1.1-4-2.3-8c-0.7-2.4-1.4-4.4-2-5.9
							c-1-2.6-1.4-3.2-1.5-3.2c-0.6-0.6-1.3-1.3-2.1-2c-1-0.8-2-1.7-2.9-2.7c-1.1-1.3-1.8-2.6-2.2-4c-0.4-1.4-0.5-2.8-0.3-4.2
							c0.2-1.4,0.6-2.7,1.3-3.9c0.7-1.2,1.6-2.2,2.7-3.1c1.1-0.9,2.4-1.5,3.8-1.9l0,0c2.6-0.7,5.3-0.4,7.6,0.8
							c2.3,1.2,4.1,3.1,5,5.5c0.1,0.1,0.2,0.4,0.2,0.6l7.5,28c0.2,0.7,0.1,1.4-0.3,1.9c-0.3,0.6-0.9,1-1.6,1.2l-9.9,2.7
							C46.2,81.8,46,81.8,45.7,81.8z M40.5,41.5c-0.9,0-1.7,0.1-2.6,0.3l0,0c-1.3,0.3-2.5,0.9-3.5,1.7c-1,0.8-1.8,1.7-2.5,2.9
							c-0.6,1.1-1.1,2.3-1.2,3.6c-0.2,1.3-0.1,2.6,0.2,3.9c0.3,1.3,1,2.5,2.1,3.7c0.9,1,1.9,1.8,2.8,2.6c0.8,0.7,1.6,1.4,2.2,2
							c0.2,0.2,0.7,0.9,1.6,3.5c0.6,1.6,1.3,3.6,2,6c1.2,4.1,2.3,7.9,2.3,8c0.1,0.5,0.4,0.8,0.8,1.1c0.4,0.2,0.9,0.3,1.3,0.2
							l9.9-2.7c0.5-0.1,0.8-0.4,1.1-0.8c0.2-0.4,0.3-0.9,0.2-1.3l-7.5-28c0-0.2-0.1-0.3-0.2-0.4c-0.9-2.2-2.6-4-4.7-5.1
							C43.6,41.8,42.1,41.5,40.5,41.5z M37.9,41.4L37.9,41.4L37.9,41.4z M45.8,80.4c-0.5,0-0.9-0.3-1.1-0.8
							c-1.4-5.3-4.5-15.9-6.1-17.7c-0.6-0.7-1.4-1.4-2.3-2.1c-1.8-1.5-3.9-3.3-4.7-6c-0.6-2.4-0.3-4.9,0.9-7
							c1.2-2.1,3.2-3.7,5.6-4.3l0,0c4.5-1.2,9.2,1.1,11,5.5c0.1,0.1,0.1,0.2,0.2,0.3l7.5,28c0.1,0.3,0,0.6-0.1,0.9
							c-0.2,0.3-0.4,0.4-0.7,0.5L46,80.3C45.9,80.4,45.8,80.4,45.8,80.4z M40.5,42.9c-0.7,0-1.5,0.1-2.2,0.3l0,0
							c-2.2,0.6-4,2-5.1,3.9c-1.1,1.9-1.4,4.2-0.8,6.4c0.6,2.4,2.6,4,4.4,5.6c0.9,0.7,1.7,1.4,2.4,2.2c2.1,2.4,6.1,17.4,6.3,18.1
							c0,0.2,0.2,0.3,0.4,0.2l9.9-2.7c0.1,0,0.2-0.1,0.2-0.2c0-0.1,0.1-0.2,0-0.2l-7.5-28c0,0,0-0.1-0.1-0.1c0,0,0-0.1-0.1-0.1
							C47.1,45,43.9,42.9,40.5,42.9z M38.2,42.8L38.2,42.8L38.2,42.8z"/>
					</g>
					<g>
						<path class="st7" d="M46.3,66.5c-0.1,0-0.1,0-0.2-0.1c-0.1-0.1-0.2-0.1-0.2-0.2l-0.6-2.4l-0.4,0.1c-0.1,0-0.3,0-0.4-0.1
							c-0.1-0.1-0.1-0.2-0.1-0.4l0.9-3.5c0-0.1,0.1-0.2,0.3-0.3c0.1,0,0.3,0,0.4,0.1l2.5,2.5c0.1,0.1,0.1,0.2,0.1,0.4
							c0,0.1-0.1,0.2-0.3,0.3l-0.4,0.1l0.6,2.4c0.1,0.2-0.1,0.4-0.3,0.5l-1.8,0.5C46.3,66.5,46.3,66.5,46.3,66.5z M45.5,62.9
							c0.1,0,0.1,0,0.2,0.1c0.1,0.1,0.2,0.1,0.2,0.2l0.6,2.4l1.1-0.3L47,62.9c0-0.1,0-0.2,0-0.3c0.1-0.1,0.1-0.2,0.2-0.2l0.1,0
							l-1.6-1.6L45.3,63l0.1,0C45.4,62.9,45.5,62.9,45.5,62.9z"/>
					</g>
					<g>
						<path class="st7" d="M49.5,75c-0.1,0-0.2,0-0.3-0.1l-2.5-2.5c-0.1-0.1-0.1-0.2-0.1-0.4c0-0.1,0.1-0.2,0.3-0.3l0.4-0.1
							l-0.6-2.4c-0.1-0.2,0.1-0.4,0.3-0.5l1.8-0.5c0.1,0,0.2,0,0.3,0c0.1,0.1,0.2,0.1,0.2,0.2l0.6,2.4l0.4-0.1c0.1,0,0.3,0,0.4,0.1
							c0.1,0.1,0.1,0.2,0.1,0.4l-0.9,3.5c0,0.1-0.1,0.2-0.3,0.3C49.6,74.9,49.5,75,49.5,75z M47.7,72.2l1.6,1.6l0.6-2.1l-0.1,0
							c-0.2,0.1-0.4-0.1-0.5-0.3L48.6,69l-1.1,0.3l0.6,2.4c0.1,0.2-0.1,0.4-0.3,0.5L47.7,72.2z"/>
					</g>
					<g>
						<g>
							<g>
								<polygon class="st7" points="44.9,50.5 45.7,49.8 44.7,49.5 44.7,49.7 43.3,50.1 43.5,50.6 44.9,50.3 								"/>
							</g>
							<g>
								<polygon class="st7" points="36.6,52.7 35.6,52.5 36.3,51.7 36.4,51.9 37.8,51.6 37.9,52.1 36.5,52.5 								"/>
							</g>
						</g>
						<g>
							<g>
								<polygon class="st7" points="38.3,47.7 38.6,47.3 38.2,47.2 38.2,47.3 37.6,47.5 37.7,47.7 38.3,47.6 								"/>
							</g>
							<g>
								<polygon class="st7" points="41.1,46.9 40.7,46.8 41,46.5 41,46.6 41.6,46.4 41.7,46.6 41.1,46.8 								"/>
							</g>
						</g>
						<g>
							<g>
								<path class="st8" d="M39.8,50.3c-0.1,0-0.1,0-0.2-0.1l-4.2-2.4c-0.1-0.1-0.2-0.2-0.2-0.3c0-0.1,0-0.2,0.1-0.3
									c1.8-2.6,5.3-3.5,8.1-2.2c0.1,0,0.2,0.1,0.2,0.2c0,0.1,0,0.2,0,0.3l-2.4,4.2C41,50,40.9,50.1,40.7,50c-0.3,0-0.5,0-0.7,0.2
									C39.9,50.3,39.9,50.3,39.8,50.3z M36.2,47.4l3.6,2.1c0.2-0.1,0.5-0.2,0.8-0.2l2.1-3.6C40.3,44.8,37.7,45.5,36.2,47.4z"/>
							</g>
							<g>
								<path class="st8" d="M46.3,54.1c-0.1,0-0.1,0-0.2-0.1l-4.2-2.4c-0.1-0.1-0.2-0.2-0.2-0.4c0-0.3,0-0.5-0.2-0.7
									c-0.1-0.1-0.1-0.3,0-0.4l2.4-4.2c0.1-0.1,0.2-0.2,0.3-0.2c0.1,0,0.2,0,0.3,0.1c2.6,1.8,3.5,5.3,2.2,8.1
									c0,0.1-0.1,0.2-0.2,0.2C46.4,54.1,46.4,54.1,46.3,54.1z M42.5,51l3.6,2.1c0.8-2.3,0.1-4.9-1.7-6.5l-2.1,3.6
									C42.4,50.5,42.5,50.8,42.5,51z"/>
							</g>
							<g>
								<path class="st8" d="M37,56.6c-0.1,0-0.2,0-0.2-0.1c-2.6-1.8-3.5-5.3-2.2-8.1c0-0.1,0.1-0.2,0.2-0.2c0.1,0,0.2,0,0.3,0
									l4.2,2.4c0.1,0.1,0.2,0.2,0.2,0.4c0,0.3,0,0.5,0.2,0.7c0.1,0.1,0.1,0.3,0,0.4l-2.4,4.2C37.3,56.5,37.2,56.5,37,56.6
									C37.1,56.6,37,56.6,37,56.6z M35.1,49.1c-0.8,2.3-0.1,4.9,1.7,6.5L39,52c-0.1-0.2-0.2-0.5-0.2-0.8L35.1,49.1z"/>
							</g>
							<g>
								<path class="st8" d="M40.6,57.8c-0.9,0-1.8-0.2-2.7-0.6c-0.1,0-0.2-0.1-0.2-0.2c0-0.1,0-0.2,0-0.3l2.4-4.2
									c0.1-0.1,0.2-0.2,0.4-0.2c0.3,0,0.5,0,0.7-0.2c0.1-0.1,0.3-0.1,0.4,0l4.2,2.4c0.1,0.1,0.2,0.2,0.2,0.3s0,0.2-0.1,0.3
									C44.8,56.8,42.7,57.8,40.6,57.8z M38.6,56.6c2.3,0.8,4.9,0.1,6.5-1.7l-3.6-2.1C41.3,52.9,41,53,40.7,53L38.6,56.6z"/>
							</g>
						</g>
						<g>
							<g>
								<path class="st7" d="M39.9,56c-0.1,0-0.2,0-0.3-0.1c-0.2-0.2-0.2-0.4,0-0.6c0,0,0.5-0.5,1-0.6c0.3-0.1,0.6,0,0.9,0
									c0.3,0,0.6,0.1,0.9,0c0.5-0.1,0.7-0.4,0.7-0.4c0.1-0.2,0.4-0.2,0.6-0.1c0.2,0.1,0.2,0.4,0.1,0.5c0,0.1-0.4,0.5-1.2,0.7
									c-0.5,0.1-0.9,0.1-1.2,0c-0.2,0-0.4,0-0.6,0c-0.3,0.1-0.6,0.3-0.7,0.4C40.1,55.9,40,56,39.9,56z"/>
							</g>
							<g>
								<path class="st7" d="M40.1,56.7c-0.1,0-0.2,0-0.3-0.1c-0.2-0.2-0.2-0.4,0-0.6c0,0,0.5-0.5,1-0.6c0.3-0.1,0.6,0,0.9,0
									c0.3,0,0.6,0.1,0.9,0c0.5-0.1,0.7-0.4,0.7-0.4c0.1-0.2,0.4-0.2,0.6-0.1s0.2,0.4,0.1,0.5c0,0.1-0.4,0.5-1.2,0.7
									c-0.5,0.1-0.9,0.1-1.2,0c-0.2,0-0.4,0-0.6,0c-0.3,0.1-0.6,0.3-0.7,0.4C40.3,56.6,40.2,56.7,40.1,56.7z"/>
							</g>
						</g>
						<g>
							<g>
								<path class="st7" d="M39.5,48.2c-0.2,0-0.3-0.1-0.4-0.3l-0.4-1.3c-0.1-0.2,0.1-0.4,0.3-0.5c0.2-0.1,0.4,0.1,0.5,0.3l0.4,1.3
									c0.1,0.2-0.1,0.4-0.3,0.5C39.6,48.2,39.6,48.2,39.5,48.2z"/>
							</g>
							<g>
								<path class="st7" d="M40.2,48.1c-0.2,0-0.3-0.1-0.4-0.3l-0.4-1.3c-0.1-0.2,0.1-0.4,0.3-0.5c0.2-0.1,0.4,0.1,0.5,0.3l0.4,1.3
									c0.1,0.2-0.1,0.4-0.3,0.5C40.3,48.1,40.2,48.1,40.2,48.1z"/>
							</g>
						</g>
					</g>
				</g>
			</g>
			<g>
				<g>
					<path class="st2" d="M77.9,42.6H56.2c-1.4,0-2.5-1.1-2.5-2.5v-6.6c0-0.2,0.2-0.4,0.4-0.4c0.2,0,0.4,0.2,0.4,0.4v6.6
						c0,0.9,0.8,1.7,1.7,1.7h21.7c0.9,0,1.7-0.8,1.7-1.7v-6.6c0-0.2,0.2-0.4,0.4-0.4c0.2,0,0.4,0.2,0.4,0.4v6.6
						C80.4,41.5,79.3,42.6,77.9,42.6z"/>
				</g>
				<g>
					<path class="st2" d="M80,40C80,40,80,40,80,40c-0.2,0-0.4-0.2-0.4-0.4c0.1-1.3,3-3.7,3.6-4.2c0.7-0.6,0.9-1,0.9-1.3
						c0-0.2,0-0.3-0.1-0.3l-1.6-0.7c-0.2-0.1-0.3-0.3-0.2-0.5c0.1-0.2,0.3-0.3,0.5-0.2l1.7,0.7c0.1,0,0.1,0,0.1,0.1
						c0,0,0.4,0.4,0.3,1c0,0.6-0.5,1.3-1.3,1.9c-2,1.6-3.3,3.1-3.3,3.6C80.4,39.9,80.3,40,80,40z"/>
				</g>
				<g>
					<path class="st2" d="M54.1,40c-0.2,0-0.4-0.2-0.4-0.4c0-0.5-1.3-2-3.3-3.6c-0.8-0.6-1.2-1.3-1.3-1.9c0-0.6,0.3-0.9,0.3-1
						c0,0,0.1-0.1,0.1-0.1l1.7-0.7c0.2-0.1,0.4,0,0.5,0.2c0.1,0.2,0,0.4-0.2,0.5l-1.6,0.7c0,0.1-0.1,0.2-0.1,0.3
						c0,0.3,0.2,0.7,0.9,1.3c0.6,0.5,3.5,2.8,3.6,4.2C54.6,39.8,54.4,40,54.1,40C54.2,40,54.2,40,54.1,40z"/>
				</g>
				<g>
					<path class="st7" d="M74.1,40.8H60c-1.8,0-3.2-1.4-3.2-3.2v-1.1c0-1.8,1.4-3.2,3.2-3.2h14.1c1.8,0,3.2,1.4,3.2,3.2v1.1
						C77.3,39.4,75.8,40.8,74.1,40.8z M60,34.1c-1.3,0-2.4,1.1-2.4,2.4v1.1c0,1.3,1.1,2.4,2.4,2.4h14.1c1.3,0,2.4-1.1,2.4-2.4v-1.1
						c0-1.3-1.1-2.4-2.4-2.4H60z"/>
				</g>
				<g>
					<path class="st7" d="M81.4,34.5c-0.1,0-0.1,0-0.2,0c-16.5-7.1-28.2-0.1-28.4,0c-0.2,0.1-0.4,0.1-0.5-0.1l-1.3-1.9
						C51,32.3,51,32.2,51,32.1c0-0.1,0.1-0.2,0.2-0.3c0.1-0.1,13.3-7.9,31.6,0c0.1,0,0.2,0.1,0.2,0.3c0,0.1,0,0.2,0,0.3l-1.3,1.9
						C81.7,34.4,81.5,34.5,81.4,34.5z M66.5,30.5c4.2,0,9.2,0.8,14.7,3.1l0.8-1.2c-9.2-3.8-16.9-3.6-21.8-2.8
						c-4.4,0.8-7.3,2.2-8.3,2.7l0.8,1.2C54.1,32.9,59.1,30.5,66.5,30.5z"/>
				</g>
			</g>
			<g>
				<g>
					<g>
						<g>
							<g>
								<g>
									<g>
										<path class="st3" d="M83.3,92.4c-0.1,0.1-0.2,0.1-0.4,0.1c-0.2,0-0.3-0.1-0.4-0.1c-0.1-0.1-0.1-0.2-0.1-0.3h0.3
											c0,0.2,0.1,0.2,0.3,0.2c0.1,0,0.1,0,0.2-0.1c0.1-0.1,0.1-0.2,0.1-0.3c0-0.2-0.1-0.4-0.3-0.4c-0.1,0-0.2,0.1-0.3,0.2h-0.2
											v-1h1v0.2h-0.7v0.5c0.1-0.1,0.2-0.1,0.3-0.1c0.1,0,0.2,0,0.3,0.1c0.1,0.1,0.2,0.3,0.2,0.5C83.5,92.1,83.5,92.2,83.3,92.4z
											"/>
									</g>
								</g>
								<g>
									<g>
										<path class="st3" d="M88.9,90.6l0.1,0.2l-0.2,0.1l-0.1-0.2l-0.6,0.4l-0.1-0.2l-0.1-1.4l0.2-0.1l0.1,1.4l0.4-0.2l-0.2-0.4
											l0.2-0.1l0.2,0.4l0.2-0.1l0.1,0.2L88.9,90.6z"/>
									</g>
								</g>
								<g>
									<g>
										<path class="st3" d="M92.9,86.9c-0.1,0.2-0.4,0.4-0.7,0.2l0.1-0.2c0.2,0.1,0.3,0,0.4-0.1c0.1-0.1,0.1-0.3-0.1-0.4
											c-0.2-0.1-0.3-0.1-0.4,0.1l0,0l-0.2-0.1l0,0c0.1-0.2,0-0.3-0.1-0.4c-0.2-0.1-0.3,0-0.4,0.1c-0.1,0.1,0,0.3,0.1,0.4
											l-0.1,0.2c-0.3-0.2-0.3-0.4-0.2-0.7c0.2-0.3,0.4-0.3,0.7-0.2c0.2,0.1,0.2,0.2,0.2,0.4c0.1-0.1,0.3-0.1,0.5,0
											C93,86.3,93,86.6,92.9,86.9z"/>
									</g>
								</g>
								<g>
									<g>
										<path class="st3" d="M73.1,86.8L73,86.6l1.7-0.3l-0.3-0.5L74.1,86L74,85.8l0.4-0.3l0.5,0.9l-0.2,0.1L73.1,86.8z"/>
									</g>
								</g>
								<g>
									<g>
										<path class="st3" d="M77.3,91.1c-0.3-0.2-0.4-0.4-0.2-0.7c0.1-0.1,0.2-0.2,0.3-0.3l0.8-0.5l0.2,0.1l-0.7,0.5
											c0.1,0,0.1,0,0.2,0.1c0.2,0.1,0.3,0.4,0.1,0.7C77.9,91.1,77.6,91.2,77.3,91.1z M77.8,90.3c-0.1-0.1-0.3,0-0.4,0.1
											c-0.1,0.2-0.1,0.3,0.1,0.4c0.1,0.1,0.3,0,0.4-0.1C77.9,90.6,77.9,90.4,77.8,90.3z"/>
									</g>
								</g>
							</g>
							<g>
								<g>
									<g>
										<path class="st2" d="M86.1,92.6c-0.2,0-0.3-0.1-0.4-0.3l-0.6-2.2c-0.1-0.2,0.1-0.4,0.3-0.5c0.2-0.1,0.4,0.1,0.5,0.3
											l0.6,2.2c0.1,0.2-0.1,0.4-0.3,0.5C86.2,92.6,86.2,92.6,86.1,92.6z"/>
									</g>
								</g>
								<g>
									<g>
										<path class="st2" d="M91.3,89.6c-0.1,0-0.2,0-0.3-0.1l-1.7-1.7c-0.2-0.2-0.2-0.4,0-0.6s0.4-0.2,0.6,0l1.7,1.7
											c0.2,0.2,0.2,0.4,0,0.6C91.5,89.6,91.4,89.6,91.3,89.6z"/>
									</g>
								</g>
								<g>
									<g>
										<path class="st2" d="M94.3,84.5c0,0-0.1,0-0.1,0l-2.3-0.6c-0.2-0.1-0.3-0.3-0.3-0.5c0.1-0.2,0.3-0.3,0.5-0.3l2.3,0.6
											c0.2,0.1,0.3,0.3,0.3,0.5C94.6,84.4,94.5,84.5,94.3,84.5z"/>
									</g>
								</g>
								<g>
									<g>
										<path class="st2" d="M74.7,89.9c-0.1,0-0.2,0-0.3-0.1c-0.2-0.2-0.2-0.4,0-0.6l1.8-1.8c0.2-0.2,0.4-0.2,0.6,0
											s0.2,0.4,0,0.6L75,89.8C74.9,89.9,74.8,89.9,74.7,89.9z"/>
									</g>
								</g>
								<g>
									<g>
										<path class="st2" d="M80.1,93c0,0-0.1,0-0.1,0c-0.2-0.1-0.3-0.3-0.3-0.5l0.7-2.5c0.1-0.2,0.3-0.3,0.5-0.3
											c0.2,0.1,0.3,0.3,0.3,0.5l-0.7,2.5C80.4,92.9,80.2,93,80.1,93z"/>
									</g>
								</g>
							</g>
						</g>
						<g>
							<path class="st2" d="M82.4,95c-0.1,0-0.2,0-0.2-0.1l-0.3-0.2l-0.3,0.2c-0.1,0.1-0.3,0.1-0.4-0.1l-0.3-0.2l-0.4,0.1
								c-0.1,0.1-0.3,0-0.4-0.1l-0.3-0.3l-0.4,0.1c-0.2,0-0.3,0-0.4-0.1l-0.2-0.3l-0.4,0.1c-0.2,0-0.3,0-0.4-0.2l-0.2-0.3l-0.4,0.1
								c-0.2,0-0.3,0-0.4-0.2l-0.2-0.3l-0.4,0c-0.2,0-0.3-0.1-0.4-0.2l-0.2-0.3l-0.4,0c-0.2,0-0.3-0.1-0.4-0.2l-0.1-0.3l-0.4,0
								c-0.2,0-0.3-0.1-0.3-0.3l-0.1-0.4l-0.4-0.1c-0.2,0-0.3-0.1-0.3-0.3l-0.1-0.4l-0.4-0.1c-0.2,0-0.3-0.2-0.3-0.3L72.5,90
								l-0.4-0.1c-0.2-0.1-0.3-0.2-0.3-0.3l0-0.4L71.5,89c-0.1-0.1-0.2-0.2-0.2-0.4l0-0.4l-0.3-0.2c-0.1-0.1-0.2-0.2-0.2-0.4l0-0.4
								l-0.3-0.2c-0.1-0.1-0.2-0.2-0.2-0.4l0.1-0.4L70,86.1c-0.1-0.1-0.2-0.3-0.2-0.4l0.1-0.4l-0.3-0.2c-0.1-0.1-0.2-0.3-0.1-0.4
								l0.1-0.4L69.4,84c-0.1-0.1-0.1-0.3-0.1-0.4l0.3-0.6c0.6-1.6,1.4-2.6,2.4-2.9c0.8-0.3,1.5,0.1,1.8,0.3c0.5,0.3,0.6,1,0.6,1.1
								c0.9,4,4.5,6.9,8.6,6.9c4.1,0,7.7-2.9,8.6-6.9c0-0.1,0.1-0.8,0.6-1.1c0.3-0.2,0.9-0.5,1.8-0.3c0.9,0.3,1.8,1.3,2.4,2.9
								l0.2,0.6c0.1,0.1,0,0.3-0.1,0.4l-0.3,0.3l0.1,0.4c0,0.2,0,0.3-0.1,0.4l-0.3,0.2l0.1,0.4c0,0.2,0,0.3-0.2,0.4l-0.3,0.2
								l0.1,0.4c0,0.2,0,0.3-0.2,0.4l-0.3,0.2l0,0.4c0,0.2-0.1,0.3-0.2,0.4l-0.3,0.2l0,0.4c0,0.2-0.1,0.3-0.2,0.4L94,89.1l0,0.4
								c0,0.2-0.1,0.3-0.3,0.3L93.3,90l-0.1,0.4c0,0.2-0.1,0.3-0.3,0.3l-0.4,0.1l-0.1,0.4c0,0.2-0.2,0.3-0.3,0.3l-0.4,0.1l-0.1,0.4
								c-0.1,0.2-0.2,0.3-0.3,0.3l-0.4,0l-0.1,0.3c-0.1,0.1-0.2,0.2-0.4,0.2l-0.4,0l-0.2,0.3c-0.1,0.1-0.2,0.2-0.4,0.2l-0.4,0
								l-0.2,0.3c-0.1,0.1-0.2,0.2-0.4,0.2l-0.4-0.1L87.9,94c-0.1,0.1-0.3,0.2-0.4,0.2l-0.4-0.1l-0.2,0.3c-0.1,0.1-0.3,0.2-0.4,0.1
								l-0.4-0.1l-0.3,0.3c-0.1,0.1-0.3,0.1-0.4,0.1l-0.4-0.1l-0.3,0.2c-0.1,0.1-0.3,0.1-0.4,0.1L84,94.7l-0.3,0.2
								c-0.1,0.1-0.3,0.1-0.4,0l-0.3-0.2L82.6,95C82.6,95,82.5,95,82.4,95z M81.9,93.9c0.1,0,0.2,0,0.2,0.1l0.3,0.2l0.3-0.2
								c0.1-0.1,0.3-0.1,0.4,0l0.3,0.2l0.3-0.2c0.1-0.1,0.3-0.1,0.4,0l0.3,0.2l0.3-0.2c0.1-0.1,0.3-0.1,0.4-0.1l0.3,0.1l0.3-0.2
								c0.1-0.1,0.3-0.1,0.4-0.1l0.3,0.1l0.2-0.3c0.1-0.1,0.2-0.2,0.4-0.1l0.3,0.1l0.2-0.3c0.1-0.1,0.2-0.2,0.4-0.2l0.4,0.1l0.2-0.3
								c0.1-0.1,0.2-0.2,0.4-0.2l0.4,0l0.2-0.3c0.1-0.1,0.2-0.2,0.4-0.2l0.4,0l0.1-0.3c0.1-0.1,0.2-0.2,0.3-0.2l0.4,0l0.1-0.3
								c0-0.1,0.2-0.2,0.3-0.3l0.4-0.1l0.1-0.3c0-0.1,0.1-0.3,0.3-0.3l0.3-0.1l0.1-0.4c0-0.1,0.1-0.3,0.3-0.3l0.3-0.1l0-0.4
								c0-0.1,0.1-0.3,0.2-0.3l0.3-0.1l0-0.4c0-0.1,0.1-0.3,0.2-0.4l0.3-0.2l0-0.4c0-0.1,0.1-0.3,0.2-0.4l0.3-0.2l-0.1-0.4
								c0-0.1,0-0.3,0.2-0.4l0.3-0.2l-0.1-0.3c0-0.1,0-0.3,0.1-0.4l0.3-0.2l-0.1-0.3c0-0.1,0-0.3,0.1-0.4l0.3-0.3l-0.1-0.3
								c-0.5-1.4-1.2-2.3-1.9-2.5c-0.5-0.2-0.9,0.1-1.1,0.2c-0.2,0.1-0.3,0.4-0.3,0.6c-1,4.4-4.9,7.6-9.4,7.6c0,0,0,0,0,0
								c0,0,0,0,0,0c-4.5,0-8.4-3.2-9.4-7.6c0-0.2-0.1-0.5-0.3-0.6c-0.2-0.1-0.6-0.3-1.1-0.2c-0.7,0.2-1.4,1.1-1.9,2.5l-0.2,0.3
								l0.2,0.2c0.1,0.1,0.1,0.3,0.1,0.4l-0.1,0.3l0.3,0.2c0.1,0.1,0.2,0.2,0.1,0.4l-0.1,0.3l0.3,0.2c0.1,0.1,0.2,0.2,0.2,0.4
								l-0.1,0.4l0.3,0.2c0.1,0.1,0.2,0.2,0.2,0.4l0,0.4l0.3,0.2c0.1,0.1,0.2,0.2,0.2,0.4l0,0.4l0.3,0.1c0.1,0.1,0.2,0.2,0.2,0.3
								l0,0.4l0.3,0.1c0.1,0,0.2,0.2,0.3,0.3l0.1,0.4l0.3,0.1c0.1,0,0.3,0.1,0.3,0.3l0.1,0.3l0.4,0.1c0.1,0,0.3,0.1,0.3,0.3l0.1,0.3
								l0.4,0c0.1,0,0.3,0.1,0.3,0.2l0.1,0.3l0.4,0c0.1,0,0.3,0.1,0.4,0.2l0.2,0.3l0.4,0c0.1,0,0.3,0.1,0.4,0.2l0.2,0.3l0.4-0.1
								c0.1,0,0.3,0,0.4,0.2l0.2,0.3l0.3-0.1c0.1,0,0.3,0,0.4,0.1l0.2,0.3l0.3-0.1c0.1,0,0.3,0,0.4,0.1l0.3,0.2l0.3-0.1
								c0.1-0.1,0.3,0,0.4,0.1l0.3,0.2l0.3-0.2C81.8,93.9,81.8,93.9,81.9,93.9z"/>
						</g>
					</g>
					<g>
						<g>
							<g>
								<g>
									<path class="st3" d="M51.2,92.5V91l-0.3,0.3V91l0.3-0.3h0.3v1.8H51.2z"/>
								</g>
							</g>
							<g>
								<g>
									<path class="st3" d="M56.5,91.3l-0.1-0.2l0.2-1.1c0-0.1,0-0.2,0-0.3c-0.1-0.1-0.2-0.2-0.4-0.1c-0.1,0.1-0.2,0.2-0.1,0.4
										l-0.2,0.1c-0.2-0.3-0.1-0.5,0.2-0.7c0.3-0.2,0.5-0.1,0.7,0.2c0.1,0.1,0.1,0.2,0,0.4l-0.1,0.9l0.6-0.4l0.1,0.2L56.5,91.3z"
										/>
								</g>
							</g>
							<g>
								<g>
									<path class="st3" d="M61.1,86.9c-0.1,0.2-0.4,0.4-0.7,0.2l0.1-0.2c0.2,0.1,0.3,0,0.4-0.1c0.1-0.1,0.1-0.3-0.1-0.4
										c-0.2-0.1-0.3-0.1-0.4,0.1l0,0l-0.2-0.1l0,0c0.1-0.2,0-0.3-0.1-0.4c-0.2-0.1-0.3,0-0.4,0.1c-0.1,0.1,0,0.3,0.1,0.4
										l-0.1,0.2c-0.3-0.2-0.3-0.5-0.2-0.7c0.2-0.3,0.4-0.3,0.7-0.2c0.2,0.1,0.2,0.2,0.2,0.4c0.1-0.1,0.3-0.1,0.5,0
										C61.3,86.3,61.3,86.6,61.1,86.9z"/>
								</g>
							</g>
							<g>
								<g>
									<path class="st3" d="M41.4,86.9l1.3-0.8L42.3,86l0.2-0.1L43,86l0.1,0.2l-1.6,0.9L41.4,86.9z"/>
								</g>
							</g>
							<g>
								<g>
									<path class="st3" d="M45.6,91.1c-0.2-0.1-0.3-0.4-0.2-0.7l0.4-0.7c0.2-0.3,0.5-0.3,0.7-0.2c0.2,0.1,0.4,0.4,0.2,0.7
										l-0.4,0.7C46.1,91.2,45.8,91.2,45.6,91.1z M46.5,90.1c0.1-0.1,0.1-0.3-0.1-0.4c-0.1-0.1-0.3,0-0.4,0.1l-0.4,0.7
										c-0.1,0.1-0.1,0.3,0.1,0.4c0.1,0.1,0.3,0,0.4-0.1L46.5,90.1z"/>
								</g>
							</g>
						</g>
						<g>
							<g>
								<g>
									<path class="st2" d="M54.4,92.6c-0.2,0-0.3-0.1-0.4-0.3l-0.6-2.2c-0.1-0.2,0.1-0.4,0.3-0.5c0.2-0.1,0.4,0.1,0.5,0.3
										l0.6,2.2c0.1,0.2-0.1,0.4-0.3,0.5C54.5,92.6,54.4,92.6,54.4,92.6z"/>
								</g>
							</g>
							<g>
								<g>
									<path class="st2" d="M59.6,89.6c-0.1,0-0.2,0-0.3-0.1l-1.7-1.7c-0.2-0.2-0.2-0.4,0-0.6s0.4-0.2,0.6,0l1.7,1.7
										c0.2,0.2,0.2,0.4,0,0.6C59.8,89.6,59.7,89.6,59.6,89.6z"/>
								</g>
							</g>
							<g>
								<g>
									<path class="st2" d="M39.9,84.6c-0.2,0-0.3-0.1-0.4-0.3c-0.1-0.2,0.1-0.4,0.3-0.5l2.3-0.6c0.2-0.1,0.4,0.1,0.5,0.3
										c0.1,0.2-0.1,0.4-0.3,0.5L40,84.6C39.9,84.6,39.9,84.6,39.9,84.6z"/>
								</g>
							</g>
							<g>
								<g>
									<path class="st2" d="M43,89.9c-0.1,0-0.2,0-0.3-0.1c-0.2-0.2-0.2-0.4,0-0.6l1.8-1.8c0.2-0.2,0.4-0.2,0.6,0s0.2,0.4,0,0.6
										l-1.8,1.8C43.2,89.9,43.1,89.9,43,89.9z"/>
								</g>
							</g>
							<g>
								<g>
									<path class="st2" d="M48.3,93c0,0-0.1,0-0.1,0C48,93,47.9,92.8,48,92.5l0.7-2.5c0.1-0.2,0.3-0.3,0.5-0.3
										c0.2,0.1,0.3,0.3,0.3,0.5l-0.7,2.5C48.7,92.9,48.5,93,48.3,93z"/>
								</g>
							</g>
						</g>
						<g>
							<g>
								<g>
									<path class="st2" d="M51.8,95c-0.1,0-0.1,0-0.2-0.1l-0.3-0.2L50.9,95c-0.1,0.1-0.3,0.1-0.4,0l-0.3-0.2l-0.3,0.2
										c-0.1,0.1-0.3,0.1-0.4-0.1l-0.3-0.2l-0.4,0.1c-0.1,0.1-0.3,0-0.4-0.1l-0.3-0.3l-0.4,0.1c-0.2,0-0.3,0-0.4-0.1L47,94.1
										l-0.4,0.1c-0.2,0-0.3,0-0.4-0.2L46,93.7l-0.4,0.1c-0.2,0-0.3,0-0.4-0.2L45,93.3l-0.4,0c-0.2,0-0.3-0.1-0.4-0.2l-0.2-0.3
										l-0.4,0c-0.2,0-0.3-0.1-0.4-0.2l-0.1-0.3l-0.4,0c-0.2,0-0.3-0.1-0.3-0.3l-0.1-0.4L42,91.4c-0.2,0-0.3-0.1-0.3-0.3l-0.1-0.4
										l-0.4-0.1c-0.2,0-0.3-0.2-0.3-0.3L40.9,90l-0.4-0.1c-0.2-0.1-0.3-0.2-0.3-0.3l0-0.4L39.8,89c-0.1-0.1-0.2-0.2-0.2-0.4
										l0-0.4l-0.3-0.2C39.1,88,39,87.8,39,87.7l0-0.4l-0.3-0.2c-0.1-0.1-0.2-0.2-0.2-0.4l0.1-0.4l-0.3-0.2
										c-0.1-0.1-0.2-0.3-0.2-0.4l0.1-0.4L38,85.1c-0.1-0.1-0.2-0.3-0.1-0.4l0.1-0.4L37.7,84c-0.1-0.1-0.1-0.3-0.1-0.4l0.3-0.6
										c0.6-1.6,1.4-2.6,2.4-2.9c0.8-0.3,1.5,0.1,1.8,0.3c0.5,0.3,0.6,1,0.6,1.1c0.9,4,4.5,6.9,8.6,6.9c4.1,0,7.7-2.9,8.6-6.9
										c0-0.1,0.1-0.8,0.6-1.1c0.3-0.2,0.9-0.5,1.8-0.3c0.9,0.3,1.8,1.3,2.4,2.9l0.2,0.6c0.1,0.1,0,0.3-0.1,0.4l-0.3,0.3l0.1,0.4
										c0,0.2,0,0.3-0.1,0.4l-0.3,0.2l0.1,0.4c0,0.2,0,0.3-0.2,0.4l-0.3,0.2l0.1,0.4c0,0.2,0,0.3-0.2,0.4l-0.3,0.2l0,0.4
										c0,0.2-0.1,0.3-0.2,0.4l-0.3,0.2l0,0.4c0,0.2-0.1,0.3-0.2,0.4l-0.3,0.1l0,0.4c0,0.2-0.1,0.3-0.3,0.3L61.6,90l-0.1,0.4
										c0,0.2-0.1,0.3-0.3,0.3l-0.4,0.1l-0.1,0.4c0,0.2-0.2,0.3-0.3,0.3l-0.4,0.1L60,91.9c-0.1,0.2-0.2,0.3-0.3,0.3l-0.4,0
										l-0.1,0.3c-0.1,0.1-0.2,0.2-0.4,0.2l-0.4,0l-0.2,0.3c-0.1,0.1-0.2,0.2-0.4,0.2l-0.4,0l-0.2,0.3c-0.1,0.1-0.2,0.2-0.4,0.2
										l-0.4-0.1L56.3,94c-0.1,0.1-0.3,0.2-0.4,0.2l-0.4-0.1l-0.2,0.3c-0.1,0.1-0.3,0.2-0.4,0.1l-0.4-0.1l-0.3,0.3
										c-0.1,0.1-0.3,0.1-0.4,0.1l-0.4-0.1l-0.3,0.2c-0.1,0.1-0.3,0.1-0.4,0.1l-0.3-0.2L52,94.9C51.9,95,51.9,95,51.8,95z
										 M51.2,93.9c0.1,0,0.1,0,0.2,0.1l0.3,0.2l0.3-0.2c0.1-0.1,0.3-0.1,0.4,0l0.3,0.2l0.3-0.2c0.1-0.1,0.3-0.1,0.4-0.1l0.3,0.1
										l0.3-0.2c0.1-0.1,0.3-0.1,0.4-0.1l0.3,0.1l0.2-0.3c0.1-0.1,0.2-0.2,0.4-0.1l0.3,0.1l0.2-0.3c0.1-0.1,0.2-0.2,0.4-0.2
										l0.4,0.1l0.2-0.3c0.1-0.1,0.2-0.2,0.4-0.2l0.4,0l0.2-0.3C57.9,92,58,92,58.1,92l0.4,0l0.1-0.3c0.1-0.1,0.2-0.2,0.3-0.2
										l0.4,0l0.1-0.3c0-0.1,0.2-0.2,0.3-0.3l0.4-0.1l0.1-0.3c0-0.1,0.1-0.3,0.3-0.3l0.3-0.1l0.1-0.4c0-0.1,0.1-0.3,0.3-0.3
										l0.3-0.1l0-0.4c0-0.1,0.1-0.3,0.2-0.3l0.3-0.1l0-0.4c0-0.1,0.1-0.3,0.2-0.4l0.3-0.2l0-0.4c0-0.1,0.1-0.3,0.2-0.4l0.3-0.2
										l-0.1-0.4c0-0.1,0-0.3,0.2-0.4l0.3-0.2l-0.1-0.3c0-0.1,0-0.3,0.1-0.4l0.3-0.2l-0.1-0.3c0-0.1,0-0.3,0.1-0.4l0.3-0.3
										l-0.1-0.3c-0.5-1.4-1.2-2.3-1.9-2.5c-0.5-0.2-0.9,0.1-1.1,0.2c-0.2,0.1-0.3,0.4-0.3,0.6c-1,4.4-4.9,7.6-9.4,7.6
										c0,0,0,0,0,0c0,0,0,0,0,0c-4.5,0-8.4-3.2-9.4-7.6c0-0.2-0.1-0.5-0.3-0.6c-0.2-0.1-0.6-0.3-1.1-0.2
										c-0.7,0.2-1.4,1.1-1.9,2.5l-0.2,0.3l0.2,0.2c0.1,0.1,0.1,0.3,0.1,0.4l-0.1,0.3l0.3,0.2c0.1,0.1,0.2,0.2,0.1,0.4L39,85.6
										l0.3,0.2c0.1,0.1,0.2,0.2,0.2,0.4l-0.1,0.4l0.3,0.2c0.1,0.1,0.2,0.2,0.2,0.4l0,0.4l0.3,0.2c0.1,0.1,0.2,0.2,0.2,0.4l0,0.4
										l0.3,0.1c0.1,0.1,0.2,0.2,0.2,0.3l0,0.4l0.3,0.1c0.1,0,0.2,0.2,0.3,0.3l0.1,0.4L42,90c0.1,0,0.3,0.1,0.3,0.3l0.1,0.3
										l0.4,0.1c0.1,0,0.3,0.1,0.3,0.3l0.1,0.3l0.4,0c0.1,0,0.3,0.1,0.3,0.2L44,92l0.4,0c0.1,0,0.3,0.1,0.4,0.2l0.2,0.3l0.4,0
										c0.1,0,0.3,0.1,0.4,0.2l0.2,0.3l0.4-0.1c0.1,0,0.3,0,0.4,0.2l0.2,0.3l0.3-0.1c0.1,0,0.3,0,0.4,0.1l0.2,0.3l0.3-0.1
										c0.1,0,0.3,0,0.4,0.1l0.3,0.2l0.3-0.1c0.1-0.1,0.3,0,0.4,0.1l0.3,0.2l0.3-0.2c0.1-0.1,0.3-0.1,0.4,0l0.3,0.2L51,94
										C51.1,93.9,51.2,93.9,51.2,93.9z"/>
								</g>
							</g>
						</g>
					</g>
				</g>
				<g>
					<path class="st2" d="M73.9,81.8c-0.2,0-0.4-0.2-0.4-0.4c0-0.1-0.2-1.2-1.6-1.7c-1.6-0.6-4.8-0.6-4.9-0.6c0,0-3.3,0.1-4.9,0.6
						c-1.4,0.5-1.6,1.7-1.6,1.7c0,0.2-0.2,0.4-0.4,0.4c-0.2,0-0.4-0.2-0.4-0.4c0-0.1,0.2-1.7,2.1-2.4c1.7-0.6,5-0.7,5.1-0.7
						c0.2,0,3.4,0.1,5.2,0.7c1.9,0.7,2.1,2.3,2.1,2.4C74.4,81.5,74.2,81.7,73.9,81.8C74,81.8,73.9,81.8,73.9,81.8z"/>
				</g>
			</g>
			<g>
				<g>
					<path class="st2" d="M104.3,106.4c-1.1,0-4.2-0.2-6.1-2.9c-2.2-3.1-2.5-6-2.5-6.1c0,0-0.4-2.2-1.6-2.2C92.7,95,90.5,95,90.4,95
						c-0.2,0-0.4-0.2-0.4-0.4c0-0.2,0.2-0.4,0.4-0.4c0.1,0,2.3,0,3.7,0.1c1.9,0.1,2.3,2.8,2.3,2.9c0,0,0.4,2.9,2.4,5.8
						c2,2.8,5.8,2.5,5.8,2.5c0.2,0,0.4,0.1,0.4,0.4s-0.1,0.4-0.4,0.4C104.7,106.4,104.5,106.4,104.3,106.4z"/>
				</g>
				<g>
					<path class="st2" d="M78.6,114.9c-0.2,0-0.4-0.2-0.4-0.4c0-0.2,0.1-0.4,0.4-0.4c1.5-0.2,1.9-1.4,2.1-3.9
						c0.2-2.1-1.3-9.4-1.4-9.5c0-0.2,0.1-0.4,0.3-0.5c0.2,0,0.4,0.1,0.5,0.3c0.1,0.3,1.5,7.5,1.4,9.7
						C81.3,112.1,81.2,114.6,78.6,114.9C78.7,114.9,78.7,114.9,78.6,114.9z"/>
				</g>
				<g>
					<path class="st2" d="M29.9,106.4c-0.2,0-0.4,0-0.4,0c-0.2,0-0.4-0.2-0.4-0.4c0-0.2,0.2-0.4,0.4-0.4c0,0,3.8,0.3,5.8-2.5
						c2.1-2.9,2.4-5.7,2.4-5.8c0-0.1,0.5-2.8,2.3-3c1.3-0.1,3.6-0.1,3.7-0.1c0.2,0,0.4,0.2,0.4,0.4c0,0.2-0.2,0.4-0.4,0.4
						c0,0-2.3,0-3.6,0.1c-1.3,0.1-1.6,2.2-1.6,2.3c0,0.1-0.4,3.1-2.5,6.1C34.1,106.1,31,106.4,29.9,106.4z"/>
				</g>
				<g>
					<path class="st2" d="M55.5,114.9C55.5,114.9,55.5,114.9,55.5,114.9c-2.5-0.3-2.7-2.8-2.8-4.6c-0.2-2.2,1.3-9.4,1.4-9.7
						c0-0.2,0.3-0.4,0.5-0.3c0.2,0,0.4,0.3,0.3,0.5c0,0.1-1.5,7.4-1.4,9.5c0.2,2.5,0.5,3.7,2.1,3.9c0.2,0,0.4,0.2,0.4,0.4
						C55.9,114.8,55.7,114.9,55.5,114.9z"/>
				</g>
				<g>
					<path class="st2" d="M57.2,101.4c-2,0-5.1-0.8-8.6-2.4c-2.5-1.1-4.1-2.4-5.1-4.2c-1.1-1.9-1.5-3.5-1.5-3.5
						c-0.1-0.2,0.1-0.4,0.3-0.5c0.2-0.1,0.4,0.1,0.5,0.3c0,0,0.4,1.5,1.5,3.3c1,1.7,2.4,2.9,4.8,3.9c5.1,2.2,8.8,2.7,9.7,2
						c0.2-0.2,0.6-0.6,1.1-1.1c1.8-1.8,4.6-4.6,6.8-4.4l1.1,0c2.2-0.1,5,2.6,6.8,4.4c0.5,0.5,0.9,0.9,1.1,1.1c0.9,0.7,4.6,0.2,9.7-2
						c2.4-1,3.8-2.2,4.8-3.9c1.1-1.8,1.5-3.3,1.5-3.3c0.1-0.2,0.3-0.3,0.5-0.3c0.2,0.1,0.3,0.3,0.3,0.5c0,0.1-0.4,1.6-1.5,3.5
						c-1.1,1.9-2.6,3.1-5.1,4.2c-5.1,2.2-9.2,2.9-10.5,1.9c-0.3-0.2-0.7-0.6-1.2-1.1c-1.6-1.6-4.3-4.2-6.1-4.2c0,0-0.1,0-0.1,0
						l-1.2,0c-1.9-0.1-4.6,2.6-6.2,4.2c-0.5,0.5-0.9,0.9-1.2,1.1C58.7,101.2,58.1,101.4,57.2,101.4z"/>
				</g>
			</g>
			<g>
				<path class="st4" d="M66.4,126c-18.7,0-32.1-5.6-42.8-10.1C7.8,109.2,2.1,95.7,1.2,90.2c-0.8-5,2-8.5,1.7-10.1
					s-4.2-1.6-1.5-10.4S14.1,59,20.5,58.1c6.4-0.9,11.9,3,12.6,8.1s-8.6,7.6-11.6,9.2c-3,1.7,1.3,4.9,2.4,7.6s-2.4,7.6-3.4,13.6
					c-1,6,12.4,11.1,21.2,14.8c8.8,3.7,24.7,3.9,24.7,3.9h1.4c0,0,15.9-0.2,24.7-3.9c8.8-3.7,22.2-8.7,21.2-14.8
					c-1-6-4.4-10.9-3.4-13.6c1-2.7,5.4-5.9,2.4-7.6c-3-1.7-12.3-4.2-11.6-9.2s6.3-8.9,12.6-8.1c6.4,0.9,16.4,2.8,19.1,11.6
					s-1.2,8.9-1.5,10.4s2.5,5.1,1.7,10.1c-0.9,5.5-6.6,19-22.3,25.7C99.9,120.4,86.5,126,67.8,126H66.4z"/>
				<path class="st7" d="M67.8,126.4h-1.4c-19,0-32.3-5.6-43-10.2c-15.6-6.6-21.6-19.9-22.6-26c-0.5-3.2,0.4-5.9,1.1-7.8
					c0.4-1,0.7-1.8,0.6-2.3c-0.1-0.3-0.3-0.5-0.6-0.8c-1.2-1.2-3-2.9-0.9-9.8c2.6-8.5,11.8-10.8,19.4-11.9c6.3-0.9,12.3,3,13.1,8.4
					c0.6,4.3-5.3,6.8-9.2,8.5c-1.1,0.4-2,0.8-2.6,1.2c-0.5,0.3-0.7,0.6-0.8,0.9c-0.2,0.9,0.7,2.2,1.7,3.4c0.7,0.9,1.3,1.8,1.7,2.7
					c0.6,1.7-0.2,3.9-1.2,6.7c-0.8,2.1-1.7,4.5-2.1,7.1c-0.9,5.3,10.5,10,18.8,13.5c0.7,0.3,1.4,0.6,2.1,0.9
					c8.6,3.6,24.4,3.8,24.5,3.8h1.4c0.2,0,15.9-0.2,24.5-3.8c0.7-0.3,1.4-0.6,2.1-0.9c8.3-3.5,19.7-8.2,18.8-13.5
					c-0.4-2.6-1.3-5-2.1-7.1c-1.1-2.8-1.9-5.1-1.2-6.7c0.4-0.9,1-1.8,1.7-2.7c0.9-1.2,1.8-2.5,1.7-3.4c-0.1-0.4-0.3-0.7-0.8-0.9
					c-0.6-0.3-1.5-0.7-2.6-1.2c-3.9-1.7-9.8-4.2-9.2-8.5c0.8-5.4,6.8-9.3,13.1-8.4c7.7,1.1,16.8,3.4,19.4,11.9
					c2.1,6.8,0.3,8.6-0.9,9.8c-0.3,0.3-0.6,0.6-0.6,0.8c-0.1,0.5,0.2,1.3,0.6,2.3c0.7,1.9,1.7,4.5,1.1,7.8c-1,6.1-7,19.4-22.6,26
					C100.1,120.8,86.8,126.4,67.8,126.4z M22.2,58.4c-0.6,0-1.1,0-1.7,0.1c-7.4,1-16.3,3.2-18.8,11.3c-2,6.4-0.4,7.9,0.7,9
					c0.4,0.4,0.7,0.7,0.9,1.2c0.1,0.7-0.2,1.6-0.6,2.7c-0.7,1.8-1.6,4.3-1.1,7.4c1,6,6.9,18.9,22.1,25.4
					c10.6,4.5,23.9,10.1,42.7,10.1h1.4c18.8,0,32.1-5.6,42.7-10.1c15.2-6.4,21.1-19.4,22.1-25.4c0.5-3-0.4-5.5-1.1-7.4
					c-0.4-1.1-0.7-2-0.6-2.7c0.1-0.5,0.5-0.9,0.9-1.2c1.1-1,2.6-2.6,0.7-9c-2.5-8.1-11.4-10.3-18.8-11.3c-5.9-0.8-11.5,2.7-12.2,7.7
					c-0.5,3.7,5,6,8.7,7.6c1.1,0.5,2,0.9,2.7,1.2c0.7,0.4,1.1,0.9,1.2,1.5c0.3,1.2-0.7,2.6-1.8,4c-0.6,0.9-1.3,1.8-1.6,2.6
					c-0.5,1.4,0.3,3.6,1.2,6.1c0.8,2.1,1.7,4.6,2.1,7.2c1,5.9-10.3,10.6-19.3,14.3c-0.7,0.3-1.4,0.6-2.1,0.9
					c-8.7,3.7-24.7,3.9-24.8,3.9h-1.4c-0.2,0-16.1-0.2-24.8-3.9c-0.7-0.3-1.4-0.6-2.1-0.9c-9-3.8-20.3-8.4-19.3-14.3
					c0.4-2.7,1.3-5.1,2.1-7.2c1-2.6,1.8-4.8,1.2-6.1c-0.3-0.8-1-1.7-1.6-2.6c-1.1-1.4-2.1-2.8-1.8-4c0.1-0.6,0.5-1.1,1.2-1.5
					c0.7-0.4,1.6-0.8,2.7-1.2c3.7-1.6,9.3-3.9,8.7-7.6C32.1,61.7,27.5,58.4,22.2,58.4z"/>
			</g>
		</g>
	</g>
</g>
</svg>
