<?xml version="1.0" encoding="utf-8"?>
<!-- Generator: Adobe Illustrator 22.0.1, SVG Export Plug-In . SVG Version: 6.00 Build 0)  -->
<svg version="1.1" id="Layer_1" xmlns="http://www.w3.org/2000/svg" xmlns:xlink="http://www.w3.org/1999/xlink" x="0px" y="0px"
	 width="783px" height="183.7px" viewBox="0 0 783 183.7" style="enable-background:new 0 0 783 183.7;" xml:space="preserve">
<style type="text/css">
	.st0{fill:none;stroke:#8C754B;stroke-miterlimit:10;}
	.st1{fill:none;stroke:#F0D283;stroke-miterlimit:10;}
	.st2{fill-rule:evenodd;clip-rule:evenodd;fill:none;stroke:#8C754B;stroke-miterlimit:10;}
	.st3{fill:none;stroke:#8C734B;stroke-miterlimit:10;}
	.st4{fill:#212221;stroke:#8C734B;stroke-miterlimit:10;}
</style>
<g>
	<g>
		<path class="st0" d="M591.8,44.6c0-24.3-19.7-44.1-44.1-44.1c-24.3,0-44.1,19.7-44.1,44.1c0,24.3,19.7,44.1,44.1,44.1
			C572,88.7,591.8,68.9,591.8,44.6z"/>
		<g>
			<path class="st0" d="M553.6,44.6c0-3.3-2.6-5.9-5.9-5.9c-3.3,0-5.9,2.6-5.9,5.9c0,3.3,2.6,5.9,5.9,5.9
				C550.9,50.5,553.6,47.8,553.6,44.6z"/>
			<path class="st0" d="M543.7,56.3v15.4c-13.3-1.9-23.4-13.3-23.4-27.1c0-3.6,0.7-7.1,2-10.2l13.3,7.7c-0.2,0.8-0.3,1.6-0.3,2.5
				C535.3,50,538.8,54.6,543.7,56.3z"/>
			<path class="st0" d="M560,44.6c0-0.8-0.1-1.7-0.2-2.5l13.3-7.7c1.3,3.2,2,6.6,2,10.2c0,13.8-10.2,25.2-23.4,27.1V56.3
				C556.5,54.6,560,50,560,44.6z"/>
			<path class="st0" d="M539.6,35.3l-13.3-7.7c5-6.3,12.8-10.4,21.4-10.4c8.7,0,16.4,4,21.4,10.4l-13.3,7.7c-2.2-1.9-5-3.1-8.1-3.1
				C544.6,32.2,541.7,33.4,539.6,35.3z"/>
		</g>
		<path class="st1" d="M580.3,44.6c0-18-14.6-32.6-32.6-32.6c-18,0-32.6,14.6-32.6,32.6c0,18,14.6,32.6,32.6,32.6
			C565.7,77.1,580.3,62.6,580.3,44.6z"/>
	</g>
	<g>
		<path class="st0" d="M591.8,137.3c0-24.3-19.7-44.1-44.1-44.1c-24.3,0-44.1,19.7-44.1,44.1c0,24.3,19.7,44.1,44.1,44.1
			C572,181.4,591.8,161.7,591.8,137.3z"/>
		<g>
			<path class="st0" d="M553.6,137.3c0-3.3-2.6-5.9-5.9-5.9c-3.3,0-5.9,2.6-5.9,5.9c0,3.3,2.6,5.9,5.9,5.9
				C550.9,143.2,553.6,140.6,553.6,137.3z"/>
			<path class="st0" d="M543.7,149v15.4c-13.3-1.9-23.4-13.3-23.4-27.1c0-3.6,0.7-7.1,2-10.2l13.3,7.7c-0.2,0.8-0.3,1.6-0.3,2.5
				C535.3,142.7,538.8,147.4,543.7,149z"/>
			<path class="st0" d="M560,137.3c0-0.8-0.1-1.7-0.2-2.5l13.3-7.7c1.3,3.2,2,6.6,2,10.2c0,13.8-10.2,25.2-23.4,27.1V149
				C556.5,147.4,560,142.7,560,137.3z"/>
			<path class="st0" d="M539.6,128l-13.3-7.7c5-6.3,12.8-10.4,21.4-10.4c8.7,0,16.4,4,21.4,10.4l-13.3,7.7c-2.2-1.9-5-3.1-8.1-3.1
				C544.6,124.9,541.7,126.1,539.6,128z"/>
		</g>
		<path class="st1" d="M580.3,137.3c0-18-14.6-32.6-32.6-32.6c-18,0-32.6,14.6-32.6,32.6c0,18,14.6,32.6,32.6,32.6
			C565.7,169.9,580.3,155.3,580.3,137.3z"/>
	</g>
	<path class="st0" d="M450.2,157.2l-6.1-4.4c0.1-0.2,0.1-0.4,0.2-0.6c0-0.1,0.1-0.2,0.1-0.2c0.1-0.2,0.2-0.5,0.2-0.7
		c0-0.1,0.1-0.2,0.1-0.3c0-0.1,0.1-0.2,0.1-0.4l0,0c0.1-0.2,0.1-0.4,0.2-0.6l8-0.2l0-0.3l0.1-0.6l0.2-1.4l-7.7-2.2
		c0-0.8,0-1.6-0.1-2.4l0.2-0.1l0,0l7.3-2.9l-0.1-0.5l-0.1-0.3l-0.1-0.5l-0.4-1.6l-8,0.6c-0.3-0.7-0.6-1.5-0.9-2.2l0.3-0.3l0.1-0.1
		l5.7-5.1l-0.2-0.3l-0.2-0.2l-0.2-0.3l-1.1-1.7l-7.4,3.3c-0.5-0.6-1-1.2-1.6-1.7l0.3-0.5l0.1-0.2l3.5-6.5l-0.1-0.1l-0.2-0.1
		l-0.1-0.1l-2-1.5l-5.8,5.7c-0.6-0.4-1.3-0.7-2-1.1l0.1-0.9l1.1-7.2l-2.8-0.9l-3.5,7.4c-0.7-0.1-1.5-0.2-2.2-0.3l-1.7-8.1l-2.8,0.1
		l0,0l-0.1,0l0,0l-0.7,7.3l0,0.4l-0.1,0.6c-0.7,0.1-1.4,0.3-2.1,0.5l-4.4-7.1l-2.1,0.9l-0.3,0.1l0,0l1.8,6.8l0.2,0.7
		c-0.1,0.1-0.2,0.1-0.3,0.2l0.1,0.4c-0.6,0.4-1.2,0.7-1.8,1.2l-6.6-5.2l-1.3,1.3l-0.4,0.3l-0.1,0.1l4.2,6.2l0.3,0.4
		c-0.1,0.1-0.2,0.2-0.3,0.4l0.1,0.2c-0.5,0.5-0.9,1.1-1.3,1.7l-8-2.7l-0.7,1.4l-0.3,0.5l-0.1,0.2l6.5,4.7l0.2,0.1
		c-0.1,0.2-0.1,0.4-0.2,0.6l0,0c-0.1,0.4-0.3,0.8-0.4,1.2l0,0.1c0,0,0,0.1-0.1,0.1l0,0c-0.1,0.2-0.1,0.4-0.2,0.6l-8.3,0.2l0,0
		l-0.3,2.3l8,2.3c0,0.4,0,0.9,0,1.3c0,0.3,0,0.6,0,0.9l-0.2,0.1c0,0.2,0,0.3,0,0.5l-7.2,2.9l-0.3,0.1l0,0l0.6,2.4l8.3-0.6
		c0.2,0.5,0.3,1,0.5,1.4c0.1,0.2,0.2,0.4,0.3,0.6l-0.3,0.3c0,0.1,0.1,0.2,0.1,0.3l-5.5,4.9l-0.3,0.3l-0.1,0.1l1.4,2.2l7.5-3.4
		c0.4,0.5,0.8,0.9,1.2,1.4c0.1,0.1,0.2,0.2,0.2,0.3l-0.3,0.5c0,0,0.1,0.1,0.1,0.1l-3.3,6.1l-0.3,0.5l-0.1,0.2l2.3,1.7l5.9-5.7
		c0.6,0.4,1.3,0.7,1.9,1.1l-1.1,7.3l0,0l-0.1,0.9l2.8,0.9l3.5-7.3c0.7,0.2,1.5,0.3,2.2,0.3l1.7,8.1l2.8-0.2l0-0.3l0.1-0.6l0.7-6.6
		c0,0,0,0,0,0c0,0,0.1,0,0.1,0c0,0,0,0,0,0l0.1-0.6c0.7-0.1,1.5-0.3,2.2-0.5l4.3,7l2.4-1l-0.1-0.3l-0.1-0.5l-1.7-6.6
		c0.1-0.1,0.2-0.1,0.3-0.2l-0.1-0.4c0.1-0.1,0.2-0.1,0.3-0.2c0.6-0.3,1.1-0.7,1.7-1.1l6.4,5l1.8-1.7l-0.2-0.2l-0.2-0.3l-4-5.9
		c0.1-0.1,0.2-0.2,0.3-0.4l-0.1-0.2c0.1-0.2,0.3-0.3,0.4-0.5c0.4-0.4,0.7-0.9,1.1-1.4l7.7,2.6l1.1-2.1L450.2,157.2L450.2,157.2z
		 M416.4,143.4C416.4,143.4,416.4,143.4,416.4,143.4c0-0.2,0.1-0.5,0.2-0.7l0-0.1c0-0.1,0.1-0.2,0.1-0.2c1.3-3.6,5.2-5.6,8.9-4.5
		c3.3,1,5.3,4.1,5.1,7.4l0,0c0,0.1,0,0.1,0,0.2c0,0.4-0.1,0.8-0.2,1.1c0,0.1,0,0.2-0.1,0.3c-1.2,3.8-5.2,6-9,4.8
		C417.8,150.6,415.7,147,416.4,143.4z"/>
	<g>
		<path class="st0" d="M355.3,128.3l8.4-3.3c0.6,0.9,1.1,1.8,1.6,2.7l-7,5.6c0.7,1.6,1.3,3.4,1.7,5.2l9,0.4c0.2,1,0.3,2,0.3,3.1
			l-8.7,2.3c0,0,0,0,0,0c0,1.9-0.2,3.7-0.5,5.4l8,4c-0.3,1-0.6,2-0.9,2.9l-8.8-1.4c-0.8,1.7-1.7,3.3-2.7,4.8l5.7,6.9
			c-0.7,0.8-1.3,1.6-2.1,2.3l-7.5-4.9c-1.4,1.2-2.9,2.3-4.5,3.3l2.4,8.7c-0.9,0.5-1.8,0.9-2.8,1.3l-4.8-7.5c-1.7,0.6-3.6,1-5.4,1.2
			l-1.4,8.9H332l-1.4-8.9c-1.9-0.2-3.7-0.6-5.4-1.2l-4.8,7.5c-1-0.4-1.9-0.8-2.8-1.3l2.4-8.7c-1.6-0.9-3.1-2-4.5-3.3l-7.5,4.9
			c-0.7-0.7-1.4-1.5-2.1-2.3l5.7-6.9c-1.1-1.5-2-3.1-2.7-4.8l-8.9,1.4c-0.4-1-0.7-1.9-0.9-2.9l8-4c-0.4-1.7-0.5-3.6-0.5-5.4
			c0,0,0,0,0,0l-8.7-2.3c0.1-1,0.2-2.1,0.3-3.1l9-0.4c0.4-1.8,1-3.5,1.7-5.2l-7-5.6c0.5-0.9,1-1.8,1.6-2.7l8.4,3.3
			c1.1-1.4,2.3-2.8,3.6-4l-4.1-8c0.8-0.6,1.7-1.3,2.5-1.8l6.3,6.4c1.5-0.9,3.2-1.6,4.9-2.2l-0.5-9c1-0.3,2-0.5,3.1-0.6l3.2,8.4
			c0.9-0.1,1.8-0.1,2.7-0.1c0.9,0,1.8,0,2.7,0.1l3.2-8.4c1,0.2,2.1,0.4,3.1,0.6l-0.5,9c1.7,0.6,3.4,1.3,4.9,2.2l6.3-6.4
			c0.9,0.6,1.7,1.2,2.5,1.8l-4.1,8C353,125.5,354.2,126.8,355.3,128.3z"/>
		<path class="st0" d="M354,144.5c0-11.3-9.1-20.4-20.4-20.4c-11.3,0-20.4,9.1-20.4,20.4c0,11.3,9.1,20.4,20.4,20.4
			C344.8,164.9,354,155.8,354,144.5z"/>
		<path class="st0" d="M348.9,144.5c0-8.5-6.9-15.3-15.3-15.3c-8.5,0-15.3,6.9-15.3,15.3c0,8.5,6.9,15.3,15.3,15.3
			C342.1,159.9,348.9,153,348.9,144.5z"/>
		<path class="st0" d="M341.3,144.5c0-4.3-3.5-7.7-7.7-7.7c-4.3,0-7.7,3.5-7.7,7.7c0,4.3,3.5,7.7,7.7,7.7
			C337.8,152.3,341.3,148.8,341.3,144.5z"/>
	</g>
	<line class="st0" x1="0" y1="92.6" x2="681.4" y2="92.6"/>
	<line class="st0" x1="0" y1="88.6" x2="681.4" y2="88.6"/>
	<line class="st0" x1="672.7" y1="88.6" x2="676.8" y2="92.6"/>
	<line class="st0" x1="668" y1="88.6" x2="672.1" y2="92.6"/>
	<line class="st0" x1="663.4" y1="88.6" x2="667.5" y2="92.6"/>
	<line class="st0" x1="658.7" y1="88.6" x2="662.8" y2="92.6"/>
	<line class="st0" x1="654.1" y1="88.6" x2="658.2" y2="92.6"/>
	<line class="st0" x1="649.4" y1="88.6" x2="653.5" y2="92.6"/>
	<line class="st0" x1="644.8" y1="88.6" x2="648.9" y2="92.6"/>
	<line class="st0" x1="640.1" y1="88.6" x2="644.2" y2="92.6"/>
	<line class="st0" x1="635.5" y1="88.6" x2="639.6" y2="92.6"/>
	<line class="st0" x1="630.8" y1="88.6" x2="634.9" y2="92.6"/>
	<line class="st0" x1="626.2" y1="88.6" x2="630.3" y2="92.6"/>
	<line class="st0" x1="621.5" y1="88.6" x2="625.6" y2="92.6"/>
	<line class="st0" x1="616.9" y1="88.6" x2="621" y2="92.6"/>
	<line class="st0" x1="612.2" y1="88.6" x2="616.3" y2="92.6"/>
	<line class="st0" x1="607.6" y1="88.6" x2="611.7" y2="92.6"/>
	<line class="st0" x1="602.9" y1="88.6" x2="607" y2="92.6"/>
	<line class="st0" x1="598.3" y1="88.6" x2="602.4" y2="92.6"/>
	<line class="st0" x1="593.6" y1="88.6" x2="597.7" y2="92.6"/>
	<line class="st0" x1="589" y1="88.6" x2="593.1" y2="92.6"/>
	<line class="st0" x1="584.4" y1="88.6" x2="588.4" y2="92.6"/>
	<line class="st0" x1="579.7" y1="88.6" x2="583.8" y2="92.6"/>
	<line class="st0" x1="575.1" y1="88.6" x2="579.1" y2="92.6"/>
	<line class="st0" x1="570.4" y1="88.6" x2="574.5" y2="92.6"/>
	<line class="st0" x1="565.8" y1="88.6" x2="569.8" y2="92.6"/>
	<line class="st0" x1="561.1" y1="88.6" x2="565.2" y2="92.6"/>
	<line class="st0" x1="556.5" y1="88.6" x2="560.5" y2="92.6"/>
	<line class="st0" x1="551.8" y1="88.6" x2="555.9" y2="92.6"/>
	<line class="st0" x1="547.2" y1="88.6" x2="551.2" y2="92.6"/>
	<line class="st0" x1="542.5" y1="88.6" x2="546.6" y2="92.6"/>
	<line class="st0" x1="537.9" y1="88.6" x2="541.9" y2="92.6"/>
	<line class="st0" x1="533.2" y1="88.6" x2="537.3" y2="92.6"/>
	<line class="st0" x1="528.6" y1="88.6" x2="532.6" y2="92.6"/>
	<line class="st0" x1="523.9" y1="88.6" x2="528" y2="92.6"/>
	<line class="st0" x1="519.3" y1="88.6" x2="523.3" y2="92.6"/>
	<line class="st0" x1="514.6" y1="88.6" x2="518.7" y2="92.6"/>
	<line class="st0" x1="510" y1="88.6" x2="514" y2="92.6"/>
	<line class="st0" x1="505.9" y1="88.6" x2="510" y2="92.6"/>
	<line class="st0" x1="501.8" y1="88.6" x2="505.9" y2="92.6"/>
	<line class="st0" x1="497.7" y1="88.6" x2="501.8" y2="92.6"/>
	<line class="st0" x1="493.6" y1="88.6" x2="497.7" y2="92.6"/>
	<line class="st0" x1="489.6" y1="88.6" x2="493.6" y2="92.6"/>
	<line class="st0" x1="485.5" y1="88.6" x2="489.6" y2="92.6"/>
	<line class="st0" x1="481.4" y1="88.6" x2="485.5" y2="92.6"/>
	<line class="st0" x1="477.3" y1="88.6" x2="481.4" y2="92.6"/>
	<line class="st0" x1="473.3" y1="88.6" x2="477.3" y2="92.6"/>
	<line class="st0" x1="469.2" y1="88.6" x2="473.3" y2="92.6"/>
	<line class="st0" x1="465.1" y1="88.6" x2="469.2" y2="92.6"/>
	<line class="st0" x1="461" y1="88.6" x2="465.1" y2="92.6"/>
	<line class="st0" x1="456.9" y1="88.6" x2="461" y2="92.6"/>
	<line class="st0" x1="452.9" y1="88.6" x2="456.9" y2="92.6"/>
	<line class="st0" x1="448.8" y1="88.6" x2="452.9" y2="92.6"/>
	<line class="st0" x1="444.7" y1="88.6" x2="448.8" y2="92.6"/>
	<line class="st0" x1="440.6" y1="88.6" x2="444.7" y2="92.6"/>
	<line class="st0" x1="436.5" y1="88.6" x2="440.6" y2="92.6"/>
	<line class="st0" x1="432.5" y1="88.6" x2="436.5" y2="92.6"/>
	<line class="st0" x1="428.4" y1="88.6" x2="432.5" y2="92.6"/>
	<line class="st0" x1="424.3" y1="88.6" x2="428.4" y2="92.6"/>
	<line class="st0" x1="420.2" y1="88.6" x2="424.3" y2="92.6"/>
	<line class="st0" x1="416.1" y1="88.6" x2="420.2" y2="92.6"/>
	<line class="st0" x1="412.1" y1="88.6" x2="416.1" y2="92.6"/>
	<line class="st0" x1="408" y1="88.6" x2="412.1" y2="92.6"/>
	<line class="st0" x1="403.9" y1="88.6" x2="408" y2="92.6"/>
	<line class="st0" x1="399.8" y1="88.6" x2="403.9" y2="92.6"/>
	<line class="st0" x1="395.7" y1="88.6" x2="399.8" y2="92.6"/>
	<line class="st0" x1="391.7" y1="88.6" x2="395.7" y2="92.6"/>
	<line class="st0" x1="387.6" y1="88.6" x2="391.7" y2="92.6"/>
	<line class="st0" x1="383.5" y1="88.6" x2="387.6" y2="92.6"/>
	<line class="st0" x1="379.4" y1="88.6" x2="383.5" y2="92.6"/>
	<line class="st0" x1="375.3" y1="88.6" x2="379.4" y2="92.6"/>
	<line class="st0" x1="371.3" y1="88.6" x2="375.3" y2="92.6"/>
	<line class="st0" x1="367.2" y1="88.6" x2="371.3" y2="92.6"/>
	<line class="st0" x1="363.1" y1="88.6" x2="367.2" y2="92.6"/>
	<line class="st0" x1="359" y1="88.6" x2="363.1" y2="92.6"/>
	<line class="st0" x1="355" y1="88.6" x2="359" y2="92.6"/>
	<line class="st0" x1="350.9" y1="88.6" x2="355" y2="92.6"/>
	<line class="st0" x1="346.8" y1="88.6" x2="350.9" y2="92.6"/>
	<line class="st0" x1="342.7" y1="88.6" x2="346.8" y2="92.6"/>
	<line class="st0" x1="338.6" y1="88.6" x2="342.7" y2="92.6"/>
	<line class="st0" x1="334.6" y1="88.6" x2="338.6" y2="92.6"/>
	<line class="st0" x1="330.5" y1="88.6" x2="334.6" y2="92.6"/>
	<line class="st0" x1="326.4" y1="88.6" x2="330.5" y2="92.6"/>
	<line class="st0" x1="322.3" y1="88.6" x2="326.4" y2="92.6"/>
	<line class="st0" x1="318.2" y1="88.6" x2="322.3" y2="92.6"/>
	<line class="st0" x1="314.2" y1="88.6" x2="318.2" y2="92.6"/>
	<line class="st0" x1="310.1" y1="88.6" x2="314.2" y2="92.6"/>
	<line class="st0" x1="306" y1="88.6" x2="310.1" y2="92.6"/>
	<line class="st0" x1="301.9" y1="88.6" x2="306" y2="92.6"/>
	<line class="st0" x1="297.8" y1="88.6" x2="301.9" y2="92.6"/>
	<line class="st0" x1="293.8" y1="88.6" x2="297.8" y2="92.6"/>
	<line class="st0" x1="289.7" y1="88.6" x2="293.8" y2="92.6"/>
	<line class="st0" x1="285.6" y1="88.6" x2="289.7" y2="92.6"/>
	<line class="st0" x1="281.5" y1="88.6" x2="285.6" y2="92.6"/>
	<line class="st0" x1="277.4" y1="88.6" x2="281.5" y2="92.6"/>
	<line class="st0" x1="273.4" y1="88.6" x2="277.4" y2="92.6"/>
	<line class="st0" x1="269.3" y1="88.6" x2="273.4" y2="92.6"/>
	<line class="st0" x1="265.2" y1="88.6" x2="269.3" y2="92.6"/>
	<line class="st0" x1="261.1" y1="88.6" x2="265.2" y2="92.6"/>
	<line class="st0" x1="257.1" y1="88.6" x2="261.1" y2="92.6"/>
	<line class="st0" x1="253" y1="88.6" x2="257.1" y2="92.6"/>
	<line class="st0" x1="248.9" y1="88.6" x2="253" y2="92.6"/>
	<line class="st0" x1="244.8" y1="88.6" x2="248.9" y2="92.6"/>
	<line class="st0" x1="240.7" y1="88.6" x2="244.8" y2="92.6"/>
	<line class="st0" x1="236.7" y1="88.6" x2="240.7" y2="92.6"/>
	<line class="st0" x1="232.6" y1="88.6" x2="236.7" y2="92.6"/>
	<line class="st0" x1="228.5" y1="88.6" x2="232.6" y2="92.6"/>
	<line class="st0" x1="224.4" y1="88.6" x2="228.5" y2="92.6"/>
	<line class="st0" x1="220.3" y1="88.6" x2="224.4" y2="92.6"/>
	<line class="st0" x1="216.3" y1="88.6" x2="220.3" y2="92.6"/>
	<line class="st0" x1="212.2" y1="88.6" x2="216.3" y2="92.6"/>
	<line class="st0" x1="208.1" y1="88.6" x2="212.2" y2="92.6"/>
	<line class="st0" x1="204" y1="88.6" x2="208.1" y2="92.6"/>
	<line class="st0" x1="199.9" y1="88.6" x2="204" y2="92.6"/>
	<line class="st0" x1="195.9" y1="88.6" x2="199.9" y2="92.6"/>
	<line class="st0" x1="191.8" y1="88.6" x2="195.9" y2="92.6"/>
	<line class="st0" x1="187.7" y1="88.6" x2="191.8" y2="92.6"/>
	<line class="st0" x1="183.6" y1="88.6" x2="187.7" y2="92.6"/>
	<line class="st0" x1="179.5" y1="88.6" x2="183.6" y2="92.6"/>
	<line class="st0" x1="175.5" y1="88.6" x2="179.5" y2="92.6"/>
	<line class="st0" x1="171.4" y1="88.6" x2="175.5" y2="92.6"/>
	<line class="st0" x1="167.3" y1="88.6" x2="171.4" y2="92.6"/>
	<line class="st0" x1="163.2" y1="88.6" x2="167.3" y2="92.6"/>
	<line class="st0" x1="159.2" y1="88.6" x2="163.2" y2="92.6"/>
	<line class="st0" x1="155.1" y1="88.6" x2="159.2" y2="92.6"/>
	<line class="st0" x1="151" y1="88.6" x2="155.1" y2="92.6"/>
	<line class="st0" x1="146.9" y1="88.6" x2="151" y2="92.6"/>
	<line class="st0" x1="142.8" y1="88.6" x2="146.9" y2="92.6"/>
	<line class="st0" x1="138.8" y1="88.6" x2="142.8" y2="92.6"/>
	<line class="st0" x1="134.7" y1="88.6" x2="138.8" y2="92.6"/>
	<line class="st0" x1="130.6" y1="88.6" x2="134.7" y2="92.6"/>
	<line class="st0" x1="126.5" y1="88.6" x2="130.6" y2="92.6"/>
	<line class="st0" x1="122.4" y1="88.6" x2="126.5" y2="92.6"/>
	<line class="st0" x1="118.4" y1="88.6" x2="122.4" y2="92.6"/>
	<line class="st0" x1="114.3" y1="88.6" x2="118.4" y2="92.6"/>
	<line class="st0" x1="110.2" y1="88.6" x2="114.3" y2="92.6"/>
	<line class="st0" x1="106" y1="88.6" x2="110.1" y2="92.6"/>
	<line class="st0" x1="101.9" y1="88.6" x2="106" y2="92.6"/>
	<line class="st0" x1="97.8" y1="88.6" x2="101.9" y2="92.6"/>
	<line class="st0" x1="93.8" y1="88.6" x2="97.8" y2="92.6"/>
	<line class="st0" x1="89.7" y1="88.6" x2="93.8" y2="92.6"/>
	<line class="st0" x1="85.6" y1="88.6" x2="89.7" y2="92.6"/>
	<line class="st0" x1="81.5" y1="88.6" x2="85.6" y2="92.6"/>
	<line class="st0" x1="77.4" y1="88.6" x2="81.5" y2="92.6"/>
	<line class="st0" x1="73.4" y1="88.6" x2="77.4" y2="92.6"/>
	<line class="st0" x1="69.3" y1="88.6" x2="73.4" y2="92.6"/>
	<line class="st0" x1="65.2" y1="88.6" x2="69.3" y2="92.6"/>
	<line class="st0" x1="61.1" y1="88.6" x2="65.2" y2="92.6"/>
	<line class="st0" x1="57" y1="88.6" x2="61.1" y2="92.6"/>
	<line class="st0" x1="53" y1="88.6" x2="57" y2="92.6"/>
	<line class="st0" x1="48.9" y1="88.6" x2="53" y2="92.6"/>
	<line class="st0" x1="44.8" y1="88.6" x2="48.9" y2="92.6"/>
	<line class="st0" x1="40.7" y1="88.6" x2="44.8" y2="92.6"/>
	<line class="st0" x1="36.6" y1="88.6" x2="40.7" y2="92.6"/>
	<line class="st0" x1="32.6" y1="88.6" x2="36.6" y2="92.6"/>
	<line class="st0" x1="28.5" y1="88.6" x2="32.6" y2="92.6"/>
	<line class="st0" x1="24.4" y1="88.6" x2="28.5" y2="92.6"/>
	<line class="st0" x1="20.3" y1="88.6" x2="24.4" y2="92.6"/>
	<line class="st0" x1="16.2" y1="88.6" x2="20.3" y2="92.6"/>
	<line class="st0" x1="12.2" y1="88.6" x2="16.2" y2="92.6"/>
	<g>
		<path class="st2" d="M681.2,73.9c0,0.4,0,0.7,0,1c0,12.4,0,24.8,0,37.2c0,0.9,0.3,1.1,1.1,1.1c6,0,11.9-0.1,17.9,0
			c2.6,0.1,4.9-0.5,7.3-1.4c5.2-2,10.4-4,15.6-5.9c1.5-0.6,1.5-0.5,1.5-2.1c0-7,0-14.1,0-21.1c0-0.8-0.2-1.1-1-1.4
			c-6.4-2.3-12.7-4.7-19.1-7c-0.5-0.2-1-0.3-1.4-0.3c-7,0-14,0-21,0C681.8,73.8,681.6,73.9,681.2,73.9z M691.9,93.7
			c0-2.1,1.8-4,3.9-4c2.2,0,4,1.8,4,4c0,2.1-1.8,3.9-3.9,3.9C693.8,97.6,691.9,95.8,691.9,93.7z"/>
		<path class="st2" d="M732.3,85.6c-1.7,0-3.3,0-5,0c-0.2,0-0.4,0-0.7,0c0,5.2,0,10.4,0,15.6c1.9,0,3.7,0,5.7,0
			C732.3,96.1,732.3,90.9,732.3,85.6z"/>
	</g>
	<path class="st0" d="M259.2,144.3c0,2.8-2.2,5-5,5c-2.8,0-5-2.2-5-5c0-2.8,2.2-5,5-5C256.9,139.3,259.2,141.6,259.2,144.3z"/>
	<g>
		<g>
			<polygon class="st0" points="254.2,136.4 254.2,108.9 263,114.9 			"/>
			<polygon class="st0" points="254.2,152.2 254.2,179.7 245.4,173.8 			"/>
		</g>
		<g>
			<polygon class="st0" points="262.1,144.3 289.6,144.3 283.6,153.1 			"/>
			<polygon class="st0" points="246.3,144.3 218.8,144.3 224.7,135.5 			"/>
		</g>
	</g>
	<g>
		<g>
			<polygon class="st0" points="259.8,138.7 279.2,119.3 281.3,129.7 			"/>
			<polygon class="st0" points="248.6,149.9 229.2,169.3 227.1,158.9 			"/>
		</g>
		<g>
			<polygon class="st0" points="259.8,149.9 279.2,169.3 268.8,171.4 			"/>
			<polygon class="st0" points="248.6,138.7 229.2,119.3 239.6,117.3 			"/>
		</g>
	</g>
	<circle class="st0" cx="423.4" cy="144.5" r="37.7"/>
	<g>
		<g>
			<g>
				<line class="st3" x1="160.3" y1="164.4" x2="134.1" y2="175.3"/>
				<line class="st3" x1="152.6" y1="182.9" x2="141.7" y2="156.7"/>
			</g>
			<g>
				<line class="st3" x1="160.3" y1="175.2" x2="134" y2="164.5"/>
				<line class="st3" x1="141.8" y1="183" x2="152.5" y2="156.7"/>
			</g>
		</g>
		<path class="st4" d="M157,169.8c0,5.4-4.4,9.8-9.8,9.8c-5.4,0-9.8-4.4-9.8-9.8c0-5.4,4.4-9.8,9.8-9.8
			C152.6,160,157,164.4,157,169.8z"/>
		<path class="st4" d="M152.1,169.8c0,2.7-2.2,4.9-4.9,4.9c-2.7,0-4.9-2.2-4.9-4.9s2.2-4.9,4.9-4.9
			C149.9,164.9,152.1,167.1,152.1,169.8z"/>
	</g>
	<g>
		<g>
			<g>
				<line class="st4" x1="172.2" y1="132.9" x2="172.2" y2="161.3"/>
				<line class="st4" x1="186.4" y1="147.1" x2="158" y2="147.1"/>
			</g>
		</g>
		<g>
			<g>
				<g>
					<line class="st4" x1="177.6" y1="133.9" x2="166.8" y2="160.2"/>
					<line class="st4" x1="185.3" y1="152.4" x2="159" y2="141.7"/>
				</g>
				<g>
					<line class="st4" x1="185.3" y1="141.6" x2="159.1" y2="152.6"/>
					<line class="st4" x1="177.7" y1="160.2" x2="166.7" y2="134"/>
				</g>
			</g>
		</g>
		<path class="st4" d="M182.2,147.1c0,5.5-4.5,10-10,10c-5.5,0-10-4.5-10-10c0-5.5,4.5-10,10-10
			C177.7,137.1,182.2,141.5,182.2,147.1z"/>
		<g>
			<g>
				<line class="st4" x1="182.2" y1="137" x2="162.1" y2="157.1"/>
				<line class="st4" x1="182.2" y1="157.1" x2="162.1" y2="137"/>
			</g>
		</g>
		<path class="st4" d="M177.1,147.1c0,2.7-2.2,4.9-4.9,4.9c-2.7,0-4.9-2.2-4.9-4.9c0-2.7,2.2-4.9,4.9-4.9
			C174.9,142.2,177.1,144.4,177.1,147.1z"/>
	</g>
	<g>
		<g>
			<g>
				<line class="st4" x1="147.2" y1="110.4" x2="147.2" y2="138.8"/>
				<line class="st4" x1="161.4" y1="124.6" x2="133" y2="124.6"/>
			</g>
		</g>
		<g>
			<g>
				<line class="st4" x1="157.2" y1="114.6" x2="137.1" y2="134.7"/>
				<line class="st4" x1="157.2" y1="134.7" x2="137.1" y2="114.6"/>
			</g>
		</g>
		<path class="st4" d="M157.7,124.6c0,5.8-4.7,10.6-10.6,10.6c-5.8,0-10.6-4.7-10.6-10.6c0-5.8,4.7-10.6,10.6-10.6
			C153,114.1,157.7,118.8,157.7,124.6z"/>
		<path class="st4" d="M152.1,124.6c0,2.7-2.2,4.9-4.9,4.9c-2.7,0-4.9-2.2-4.9-4.9c0-2.7,2.2-4.9,4.9-4.9
			C149.9,119.7,152.1,121.9,152.1,124.6z"/>
	</g>
	<g>
		<g>
			<line class="st3" x1="196.9" y1="110.4" x2="196.9" y2="138.8"/>
			<line class="st3" x1="211" y1="124.6" x2="182.7" y2="124.6"/>
		</g>
		<g>
			<line class="st3" x1="204.2" y1="112.5" x2="189.5" y2="136.8"/>
			<line class="st3" x1="209" y1="131.9" x2="184.7" y2="117.3"/>
		</g>
		<g>
			<line class="st3" x1="209.1" y1="117.5" x2="184.6" y2="131.7"/>
			<line class="st3" x1="204" y1="136.9" x2="189.7" y2="112.4"/>
		</g>
		<path class="st4" d="M206.7,124.6c0,5.4-4.4,9.8-9.8,9.8c-5.4,0-9.8-4.4-9.8-9.8c0-5.4,4.4-9.8,9.8-9.8
			C202.3,114.8,206.7,119.2,206.7,124.6z"/>
		<path class="st4" d="M201.7,124.6c0,2.7-2.2,4.9-4.9,4.9c-2.7,0-4.9-2.2-4.9-4.9c0-2.7,2.2-4.9,4.9-4.9
			C199.6,119.7,201.7,121.9,201.7,124.6z"/>
	</g>
	<g>
		<g>
			<g>
				<line class="st4" x1="210.6" y1="166.4" x2="183.1" y2="173.2"/>
				<line class="st4" x1="200.2" y1="183.6" x2="193.5" y2="156.1"/>
			</g>
		</g>
		<g>
			<g>
				<line class="st4" x1="210.6" y1="173.5" x2="183.2" y2="166.1"/>
				<line class="st4" x1="193.2" y1="183.5" x2="200.6" y2="156.1"/>
			</g>
		</g>
		<path class="st4" d="M204.3,177.3c-4.1,4.1-10.8,4.1-15,0c-4.1-4.1-4.1-10.8,0-15c4.1-4.1,10.8-4.1,15,0
			C208.5,166.5,208.4,173.2,204.3,177.3z"/>
		<g>
			<g>
				<line class="st4" x1="206.9" y1="159.8" x2="186.8" y2="179.8"/>
				<line class="st4" x1="206.9" y1="179.9" x2="186.8" y2="159.8"/>
			</g>
		</g>
		<path class="st4" d="M200.3,173.3c-1.9,1.9-5,1.9-6.9,0c-1.9-1.9-1.9-5,0-6.9c1.9-1.9,5-1.9,6.9,0
			C202.2,168.3,202.2,171.4,200.3,173.3z"/>
	</g>
	<g>
		<path class="st0" d="M110.1,140.5c0-0.6,0-1.2-0.1-1.8l5.3-1.8c-0.2-1.7-0.5-3.4-0.9-5l-5.6,0.1c-0.3-1.2-0.8-2.3-1.3-3.4l4.3-3.5
			c-0.7-1.5-1.6-3-2.5-4.4l-5.2,2c-0.7-1-1.5-1.9-2.4-2.8l2.9-4.8c-1.2-1.2-2.5-2.3-3.9-3.2l-4.2,3.6c-1-0.7-2.1-1.3-3.2-1.8l1-5.4
			c-1.5-0.7-3.1-1.3-4.7-1.7l-2.7,4.9c-1.2-0.3-2.4-0.5-3.6-0.6l-0.9-5.5c-0.8-0.1-1.7-0.1-2.5-0.1c-0.9,0-1.7,0-2.5,0.1l-0.9,5.5
			c-1.2,0.1-2.4,0.4-3.6,0.6l-2.7-4.9c-1.6,0.5-3.2,1-4.7,1.7l1,5.4c-1.1,0.5-2.2,1.2-3.2,1.8l-4.2-3.6c-1.4,1-2.7,2.1-3.9,3.2
			l2.8,4.8c-0.8,0.9-1.6,1.8-2.4,2.8l-5.2-2c-0.9,1.4-1.8,2.9-2.5,4.4l4.3,3.5c-0.5,1.1-0.9,2.3-1.3,3.4l-5.6-0.1
			c-0.4,1.6-0.7,3.3-0.9,5l5.3,1.8c0,0.6-0.1,1.2-0.1,1.8c0,0.6,0,1.2,0.1,1.8l-5.3,1.8c0.2,1.7,0.5,3.4,0.9,5l5.6-0.1
			c0.4,1.2,0.8,2.3,1.3,3.4l-4.3,3.5c0.7,1.5,1.6,3,2.5,4.4l5.2-2c0.7,1,1.5,1.9,2.4,2.8l-2.8,4.8c1.2,1.2,2.5,2.3,3.9,3.2l4.2-3.6
			c1,0.7,2.1,1.3,3.2,1.8l-1,5.4c1.5,0.7,3.1,1.3,4.7,1.7l2.7-4.9c1.2,0.3,2.4,0.5,3.6,0.6l0.9,5.5c0.8,0.1,1.7,0.1,2.5,0.1
			c0.9,0,1.7,0,2.5-0.1l0.9-5.5c1.2-0.1,2.4-0.4,3.6-0.6l2.7,4.9c1.6-0.5,3.2-1,4.7-1.7l-1-5.4c1.1-0.5,2.2-1.2,3.2-1.8l4.2,3.6
			c1.4-1,2.7-2.1,3.9-3.2l-2.9-4.8c0.8-0.9,1.6-1.8,2.4-2.8l5.2,2c0.9-1.4,1.8-2.8,2.5-4.4l-4.3-3.5c0.5-1.1,0.9-2.3,1.3-3.4
			l5.6,0.1c0.4-1.6,0.7-3.3,0.9-5l-5.3-1.8C110.1,141.7,110.1,141.1,110.1,140.5z"/>
		<g>
			<path class="st0" d="M85.1,140.4c0,2.8-2.3,5.1-5.1,5.1c-2.8,0-5.1-2.3-5.1-5.1c0-2.8,2.3-5.1,5.1-5.1
				C82.9,135.3,85.1,137.5,85.1,140.4z"/>
			<path class="st0" d="M76.6,130.2v-13.4c-11.5,1.7-20.3,11.5-20.3,23.5c0,3.1,0.6,6.1,1.7,8.8l11.5-6.7c-0.1-0.7-0.2-1.4-0.2-2.1
				C69.3,135.6,72.4,131.7,76.6,130.2z"/>
			<path class="st0" d="M90.7,140.4c0,0.7-0.1,1.4-0.2,2.1l11.5,6.7c1.1-2.7,1.7-5.7,1.7-8.8c0-11.9-8.8-21.8-20.3-23.5v13.4
				C87.7,131.7,90.7,135.6,90.7,140.4z"/>
			<path class="st0" d="M73,148.4l-11.5,6.7c4.3,5.5,11.1,9,18.6,9s14.2-3.5,18.6-9l-11.5-6.7c-1.9,1.6-4.3,2.6-7,2.6
				C77.3,151.1,74.9,150.1,73,148.4z"/>
		</g>
	</g>
	<path class="st0" d="M770.3,96.3c0,0,4.1-2.1,4.1-10.3s-6.2-11.3-11.3-11.3c-5.2,0-9.3,3.1-11.3,10.3c-2,7,1,14.4-5.2,14.4
		s-12.4,0-12.4,0V87h5.2c2.1-1-1.2-12.1,8.3-20.2c7.2-6.2,20.6-6.1,28.9,1.1c8.4,7.3,8.2,24.9-1,29.5
		C767.2,101.5,766.1,97.4,770.3,96.3z"/>
</g>
</svg>
