<?xml version="1.0" encoding="utf-8"?>
<!-- Generator: Adobe Illustrator 21.1.0, SVG Export Plug-In . SVG Version: 6.00 Build 0)  -->
<svg version="1.1" id="Layer_1" xmlns="http://www.w3.org/2000/svg" xmlns:xlink="http://www.w3.org/1999/xlink" x="0px" y="0px"
	 width="128.7px" height="120.9px" viewBox="0 0 128.7 120.9" style="enable-background:new 0 0 128.7 120.9;" xml:space="preserve"
	>
<style type="text/css">
	.st0{fill:#999999;}
	.st1{fill:#808080;}
	.st2{fill:#58595B;}
	.st3{fill:#8D734A;}
	.st4{fill:#F2F2F2;}
	.st5{fill:#B3B3B3;}
</style>
<g>
	<g>
		<circle class="st0" cx="64.4" cy="64.3" r="4.6"/>
	</g>
	<g>
		<g>
			<g>
				<g>
					<g>
						<rect x="64" y="33.9" class="st1" width="0.8" height="7.6"/>
					</g>
				</g>
				<g>
					<g>
						<rect x="87.3" y="63.9" class="st1" width="7.6" height="0.8"/>
					</g>
					<g>
						<rect x="33.9" y="63.9" class="st1" width="7.6" height="0.8"/>
					</g>
				</g>
			</g>
			<g>
				<g>
					<g>
						
							<rect x="79.5" y="45" transform="matrix(0.7071 -0.7071 0.7071 0.7071 -7.7007 72.1574)" class="st1" width="7.6" height="0.8"/>
					</g>
				</g>
				<g>
					<g>
						
							<rect x="82.8" y="79.4" transform="matrix(0.7071 -0.7071 0.7071 0.7071 -34.4705 83.2287)" class="st1" width="0.8" height="7.6"/>
					</g>
					<g>
						
							<rect x="45.1" y="41.7" transform="matrix(0.7071 -0.7071 0.7071 0.7071 -18.8305 45.529)" class="st1" width="0.8" height="7.6"/>
					</g>
				</g>
			</g>
		</g>
		<g>
			<g>
				<g>
					<g>
						
							<rect x="57.1" y="34.8" transform="matrix(0.9659 -0.2588 0.2588 0.9659 -8.0284 16.1995)" class="st1" width="0.8" height="7.6"/>
					</g>
				</g>
				<g>
					<g>
						
							<rect x="86.4" y="57" transform="matrix(0.9657 -0.2597 0.2597 0.9657 -11.8095 25.393)" class="st1" width="7.6" height="0.8"/>
					</g>
				</g>
			</g>
			<g>
				<g>
					<g>
						
							<rect x="73.9" y="40.8" transform="matrix(0.5003 -0.8658 0.8658 0.5003 3.1359 87.8731)" class="st1" width="7.6" height="0.8"/>
					</g>
				</g>
				<g>
					<g>
						<rect x="87.1" y="73.9" transform="matrix(0.5 -0.866 0.866 0.5 -23.4943 114.641)" class="st1" width="0.8" height="7.6"/>
					</g>
					<g>
						<rect x="40.9" y="47.2" transform="matrix(0.5 -0.866 0.866 0.5 -23.4831 61.2615)" class="st1" width="0.8" height="7.6"/>
					</g>
				</g>
			</g>
		</g>
		<g>
			<g>
				<g>
					<g>
						<rect x="50.6" y="37.4" transform="matrix(0.866 -0.5 0.5 0.866 -13.7767 31.0241)" class="st1" width="0.8" height="7.6"/>
					</g>
					<g>
						
							<rect x="77.3" y="83.6" transform="matrix(0.866 -0.5001 0.5001 0.866 -33.3002 50.5716)" class="st1" width="0.8" height="7.6"/>
					</g>
				</g>
				<g>
					<g>
						
							<rect x="83.7" y="50.6" transform="matrix(0.8661 -0.4999 0.4999 0.8661 -13.7709 50.5762)" class="st1" width="7.6" height="0.8"/>
					</g>
				</g>
			</g>
			<g>
				<g>
					<g>
						
							<rect x="67.5" y="38.1" transform="matrix(0.2586 -0.966 0.966 0.2586 15.6216 97.3846)" class="st1" width="7.6" height="0.8"/>
					</g>
				</g>
				<g>
					<g>
						
							<rect x="89.7" y="67.5" transform="matrix(0.2588 -0.9659 0.9659 0.2588 -2.0343 139.8621)" class="st1" width="0.8" height="7.6"/>
					</g>
					<g>
						
							<rect x="38.2" y="53.6" transform="matrix(0.2588 -0.9659 0.9659 0.2588 -26.8456 79.8407)" class="st1" width="0.8" height="7.6"/>
					</g>
				</g>
			</g>
		</g>
	</g>
	<g>
		<g>
			<g>
				<g>
					<g>
						<g>
							<g>
								<rect x="64" y="1.9" class="st1" width="0.8" height="5.6"/>
							</g>
						</g>
						<g>
							<g>
								<rect x="2" y="63.9" class="st1" width="5.6" height="0.8"/>
							</g>
							<g>
								<rect x="121.2" y="63.9" class="st1" width="5.6" height="0.8"/>
							</g>
						</g>
					</g>
					<g>
						<g>
							<g>
								
									<rect x="103.7" y="21.8" transform="matrix(0.7071 -0.7071 0.7071 0.7071 15.499 81.8446)" class="st1" width="5.6" height="0.8"/>
							</g>
						</g>
						<g>
							<g>
								
									<rect x="21.8" y="19.4" transform="matrix(0.7071 -0.7071 0.7071 0.7071 -9.1848 22.2292)" class="st1" width="0.8" height="5.6"/>
							</g>
							<g>
								
									<rect x="106.1" y="103.7" transform="matrix(0.7071 -0.7071 0.7071 0.7071 -44.1163 106.5285)" class="st1" width="0.8" height="5.6"/>
							</g>
						</g>
					</g>
				</g>
				<g>
					<g>
						<g>
							<g>
								
									<rect x="48.5" y="3.9" transform="matrix(0.9659 -0.2588 0.2588 0.9659 -7.109454e-02 12.883)" class="st1" width="0.8" height="5.6"/>
							</g>
						</g>
						<g>
							<g>
								
									<rect x="119.2" y="48.5" transform="matrix(0.9657 -0.2597 0.2597 0.9657 -8.512 33.3621)" class="st1" width="5.6" height="0.8"/>
							</g>
						</g>
					</g>
					<g>
						<g>
							<g>
								
									<rect x="91.4" y="12.3" transform="matrix(0.5003 -0.8658 0.8658 0.5003 36.0948 87.9084)" class="st1" width="5.6" height="0.8"/>
							</g>
						</g>
						<g>
							<g>
								<rect x="12.3" y="31.7" transform="matrix(0.5 -0.866 0.866 0.5 -23.5525 28.2895)" class="st1" width="0.8" height="5.6"/>
							</g>
							<g>
								
									<rect x="115.6" y="91.3" transform="matrix(0.5 -0.866 0.866 0.5 -23.5245 147.5126)" class="st1" width="0.8" height="5.6"/>
							</g>
						</g>
					</g>
				</g>
				<g>
					<g>
						<g>
							<g>
								<rect x="34.2" y="9.9" transform="matrix(0.866 -0.5 0.5 0.866 -1.7048 19.0031)" class="st1" width="0.8" height="5.6"/>
							</g>
							<g>
								
									<rect x="93.8" y="113.2" transform="matrix(0.866 -0.5 0.5 0.866 -45.3713 62.6532)" class="st1" width="0.8" height="5.6"/>
							</g>
						</g>
						<g>
							<g>
								
									<rect x="113.2" y="34.1" transform="matrix(0.8661 -0.4999 0.4999 0.8661 -1.7166 62.6112)" class="st1" width="5.6" height="0.8"/>
							</g>
						</g>
					</g>
					<g>
						<g>
							<g>
								
									<rect x="77" y="6.3" transform="matrix(0.2586 -0.966 0.966 0.2586 52.6604 82.063)" class="st1" width="5.6" height="0.8"/>
							</g>
						</g>
						<g>
							<g>
								
									<rect x="6.4" y="46.1" transform="matrix(0.2588 -0.9659 0.9659 0.2588 -42.1588 42.8066)" class="st1" width="0.8" height="5.6"/>
							</g>
							<g>
								
									<rect x="121.6" y="76.9" transform="matrix(0.2588 -0.9659 0.9659 0.2588 13.4375 176.9667)" class="st1" width="0.8" height="5.6"/>
							</g>
						</g>
					</g>
				</g>
			</g>
			<g>
				<g>
					<g>
						<g>
							<g>
								
									<rect x="56.2" y="2.4" transform="matrix(0.9914 -0.1305 0.1305 0.9914 -0.1943 7.4308)" class="st1" width="0.8" height="5.6"/>
							</g>
						</g>
						<g>
							<g>
								
									<rect x="120.7" y="56.1" transform="matrix(0.9914 -0.1309 0.1309 0.9914 -6.3328 16.6519)" class="st1" width="5.6" height="0.8"/>
							</g>
						</g>
					</g>
					<g>
						<g>
							<g>
								
									<rect x="97.9" y="16.6" transform="matrix(0.6087 -0.7934 0.7934 0.6087 25.9233 86.5253)" class="st1" width="5.6" height="0.8"/>
							</g>
						</g>
						<g>
							<g>
								
									<rect x="16.7" y="25.2" transform="matrix(0.6088 -0.7934 0.7934 0.6088 -15.5229 24.5034)" class="st1" width="0.8" height="5.6"/>
							</g>
							<g>
								
									<rect x="111.3" y="97.8" transform="matrix(0.6088 -0.7933 0.7933 0.6088 -36.1024 127.9482)" class="st1" width="0.8" height="5.6"/>
							</g>
						</g>
					</g>
				</g>
				<g>
					<g>
						<g>
							<g>
								
									<rect x="41.2" y="6.4" transform="matrix(0.9239 -0.3827 0.3827 0.9239 -0.3506 16.6148)" class="st1" width="0.8" height="5.6"/>
							</g>
						</g>
						<g>
							<g>
								
									<rect x="116.7" y="41.1" transform="matrix(0.9238 -0.3828 0.3828 0.9238 -6.7786 48.9044)" class="st1" width="5.6" height="0.8"/>
							</g>
						</g>
					</g>
					<g>
						<g>
							<g>
								
									<rect x="84.4" y="8.8" transform="matrix(0.3828 -0.9238 0.9238 0.3828 45.288 86.2182)" class="st1" width="5.6" height="0.8"/>
							</g>
						</g>
						<g>
							<g>
								
									<rect x="8.9" y="38.7" transform="matrix(0.3827 -0.9239 0.9239 0.3827 -32.5908 34.2123)" class="st1" width="0.8" height="5.6"/>
							</g>
							<g>
								
									<rect x="119.1" y="84.3" transform="matrix(0.3827 -0.9239 0.9239 0.3827 -6.7098 164.1216)" class="st1" width="0.8" height="5.6"/>
							</g>
						</g>
					</g>
				</g>
				<g>
					<g>
						<g>
							<g>
								
									<rect x="27.7" y="14.2" transform="matrix(0.7934 -0.6088 0.6088 0.7934 -4.5392 20.6138)" class="st1" width="0.8" height="5.6"/>
							</g>
							<g>
								
									<rect x="100.3" y="108.8" transform="matrix(0.7934 -0.6087 0.6087 0.7934 -47.118 84.3429)" class="st1" width="0.8" height="5.6"/>
							</g>
						</g>
						<g>
							<g>
								
									<rect x="108.9" y="27.6" transform="matrix(0.7929 -0.6093 0.6093 0.7929 6.0697 73.8484)" class="st1" width="5.6" height="0.8"/>
							</g>
						</g>
					</g>
					<g>
						<g>
							<g>
								
									<rect x="69.4" y="4.8" transform="matrix(0.1308 -0.9914 0.9914 0.1308 57.6125 76.0384)" class="st1" width="5.6" height="0.8"/>
							</g>
						</g>
						<g>
							<g>
								
									<rect x="4.8" y="53.7" transform="matrix(0.1305 -0.9914 0.9914 0.1305 -51.4485 54.3189)" class="st1" width="0.8" height="5.6"/>
							</g>
							<g>
								
									<rect x="123.1" y="69.3" transform="matrix(0.1305 -0.9914 0.9914 0.1305 35.9068 185.1158)" class="st1" width="0.8" height="5.6"/>
							</g>
						</g>
					</g>
				</g>
			</g>
		</g>
		<g>
			<g>
				<g>
					<g>
						<g>
							<g>
								
									<rect x="61.4" y="2" transform="matrix(0.9991 -4.355665e-02 4.355665e-02 0.9991 -0.1504 2.6966)" class="st1" width="0.8" height="5.6"/>
							</g>
						</g>
						<g>
							<g>
								
									<rect x="121.2" y="61.3" transform="matrix(0.9991 -4.292820e-02 4.292820e-02 0.9991 -2.5343 5.3801)" class="st1" width="5.6" height="0.8"/>
							</g>
						</g>
					</g>
					<g>
						<g>
							<g>
								
									<rect x="101.9" y="20" transform="matrix(0.6762 -0.7367 0.7367 0.6762 18.9094 83.7437)" class="st1" width="5.6" height="0.8"/>
							</g>
						</g>
						<g>
							<g>
								
									<rect x="20" y="21.2" transform="matrix(0.6756 -0.7373 0.7373 0.6756 -11.1024 22.8256)" class="st1" width="0.8" height="5.6"/>
							</g>
							<g>
								
									<rect x="107.9" y="101.8" transform="matrix(0.6755 -0.7373 0.7373 0.6755 -41.9953 113.8096)" class="st1" width="0.8" height="5.6"/>
							</g>
						</g>
					</g>
				</g>
				<g>
					<g>
						<g>
							<g>
								
									<rect x="46.1" y="4.7" transform="matrix(0.9537 -0.3007 0.3007 0.9537 -9.747502e-02 14.3329)" class="st1" width="0.8" height="5.6"/>
							</g>
						</g>
						<g>
							<g>
								
									<rect x="118.5" y="46" transform="matrix(0.9537 -0.3007 0.3007 0.9537 -8.3312 38.6223)" class="st1" width="5.6" height="0.8"/>
							</g>
						</g>
					</g>
					<g>
						<g>
							<g>
								
									<rect x="89.1" y="11" transform="matrix(0.462 -0.8869 0.8869 0.462 39.3052 87.634)" class="st1" width="5.6" height="0.8"/>
							</g>
						</g>
						<g>
							<g>
								
									<rect x="11.1" y="34" transform="matrix(0.4618 -0.887 0.887 0.4618 -26.4311 30.0139)" class="st1" width="0.8" height="5.6"/>
							</g>
							<g>
								
									<rect x="116.8" y="89" transform="matrix(0.4618 -0.887 0.887 0.4618 -18.3127 153.4011)" class="st1" width="0.8" height="5.6"/>
							</g>
						</g>
					</g>
				</g>
				<g>
					<g>
						<g>
							<g>
								
									<rect x="31.9" y="11.2" transform="matrix(0.8434 -0.5373 0.5373 0.8434 -2.4811 19.5486)" class="st1" width="0.8" height="5.6"/>
							</g>
							<g>
								
									<rect x="96" y="111.8" transform="matrix(0.8434 -0.5373 0.5373 0.8434 -46.4758 69.7476)" class="st1" width="0.8" height="5.6"/>
							</g>
						</g>
						<g>
							<g>
								
									<rect x="111.9" y="31.9" transform="matrix(0.8436 -0.537 0.537 0.8436 0.6094 66.6468)" class="st1" width="5.6" height="0.8"/>
							</g>
						</g>
					</g>
					<g>
						<g>
							<g>
								
									<rect x="74.5" y="5.7" transform="matrix(0.2167 -0.9762 0.9762 0.2167 54.5915 80.2162)" class="st1" width="5.6" height="0.8"/>
							</g>
						</g>
						<g>
							<g>
								
									<rect x="5.8" y="48.6" transform="matrix(0.2165 -0.9763 0.9763 0.2165 -45.3228 46.2845)" class="st1" width="0.8" height="5.6"/>
							</g>
							<g>
								
									<rect x="122.2" y="74.4" transform="matrix(0.2165 -0.9763 0.9763 0.2165 20.6765 180.1458)" class="st1" width="0.8" height="5.6"/>
							</g>
						</g>
					</g>
				</g>
			</g>
			<g>
				<g>
					<g>
						<g>
							<g>
								
									<rect x="53.6" y="2.8" transform="matrix(0.9848 -0.1737 0.1737 0.9848 -0.1523 9.4652)" class="st1" width="0.8" height="5.6"/>
							</g>
						</g>
						<g>
							<g>
								
									<rect x="120.3" y="53.6" transform="matrix(0.9848 -0.1739 0.1739 0.9848 -7.5146 22.2312)" class="st1" width="5.6" height="0.8"/>
							</g>
						</g>
					</g>
					<g>
						<g>
							<g>
								
									<rect x="95.8" y="15.1" transform="matrix(0.5737 -0.819 0.819 0.5737 29.3616 87.3621)" class="st1" width="5.6" height="0.8"/>
							</g>
						</g>
						<g>
							<g>
								
									<rect x="15.1" y="27.3" transform="matrix(0.5736 -0.8192 0.8192 0.5736 -18.0754 25.5573)" class="st1" width="0.8" height="5.6"/>
							</g>
							<g>
								
									<rect x="112.8" y="95.7" transform="matrix(0.5736 -0.8191 0.8191 0.5736 -32.4357 134.733)" class="st1" width="0.8" height="5.6"/>
							</g>
						</g>
					</g>
				</g>
				<g>
					<g>
						<g>
							<g>
								
									<rect x="38.8" y="7.5" transform="matrix(0.9063 -0.4226 0.4226 0.9063 -0.6759 17.5339)" class="st1" width="0.8" height="5.6"/>
							</g>
						</g>
						<g>
							<g>
								
									<rect x="115.6" y="38.7" transform="matrix(0.9066 -0.422 0.422 0.9066 -5.4463 53.6165)" class="st1" width="5.6" height="0.8"/>
							</g>
						</g>
					</g>
					<g>
						<g>
							<g>
								
									<rect x="82" y="7.9" transform="matrix(0.3419 -0.9397 0.9397 0.3419 48.0352 85.1248)" class="st1" width="5.6" height="0.8"/>
							</g>
						</g>
						<g>
							<g>
								
									<rect x="8" y="41.1" transform="matrix(0.342 -0.9397 0.9397 0.342 -35.7272 36.7163)" class="st1" width="0.8" height="5.6"/>
							</g>
							<g>
								
									<rect x="120" y="81.9" transform="matrix(0.342 -0.9397 0.9397 0.342 -0.3702 168.8718)" class="st1" width="0.8" height="5.6"/>
							</g>
						</g>
					</g>
				</g>
				<g>
					<g>
						<g>
							<g>
								
									<rect x="25.7" y="15.8" transform="matrix(0.766 -0.6428 0.6428 0.766 -5.8449 21.1024)" class="st1" width="0.8" height="5.6"/>
							</g>
							<g>
								
									<rect x="102.3" y="107.2" transform="matrix(0.766 -0.6429 0.6429 0.766 -46.675 91.778)" class="st1" width="0.8" height="5.6"/>
							</g>
						</g>
						<g>
							<g>
								
									<rect x="107.3" y="25.6" transform="matrix(0.766 -0.6429 0.6429 0.766 9.0757 76.8575)" class="st1" width="5.6" height="0.8"/>
							</g>
						</g>
					</g>
					<g>
						<g>
							<g>
								
									<rect x="66.8" y="4.5" transform="matrix(8.692592e-02 -0.9962 0.9962 8.692592e-02 58.6424 73.7661)" class="st1" width="5.6" height="0.8"/>
							</g>
						</g>
						<g>
							<g>
								
									<rect x="4.6" y="56.3" transform="matrix(8.711898e-02 -0.9962 0.9962 8.711898e-02 -54.3322 58.9063)" class="st1" width="0.8" height="5.6"/>
							</g>
							<g>
								
									<rect x="123.4" y="66.7" transform="matrix(8.711295e-02 -0.9962 0.9962 8.711295e-02 43.7742 186.7255)" class="st1" width="0.8" height="5.6"/>
							</g>
						</g>
					</g>
				</g>
			</g>
		</g>
		<g>
			<g>
				<g>
					<g>
						<g>
							<g>
								
									<rect x="58.8" y="2.1" transform="matrix(0.9962 -8.711898e-02 8.711898e-02 0.9962 -0.2017 5.176)" class="st1" width="0.8" height="5.6"/>
							</g>
						</g>
						<g>
							<g>
								
									<rect x="121" y="58.7" transform="matrix(0.9961 -8.789642e-02 8.789642e-02 0.9961 -4.7152 11.1099)" class="st1" width="5.6" height="0.8"/>
							</g>
						</g>
					</g>
					<g>
						<g>
							<g>
								
									<rect x="99.9" y="18.2" transform="matrix(0.6429 -0.766 0.766 0.6429 22.4105 85.2943)" class="st1" width="5.6" height="0.8"/>
							</g>
						</g>
						<g>
							<g>
								
									<rect x="18.3" y="23.2" transform="matrix(0.6428 -0.766 0.766 0.6428 -13.2345 23.6219)" class="st1" width="0.8" height="5.6"/>
							</g>
							<g>
								
									<rect x="109.7" y="99.8" transform="matrix(0.6427 -0.7661 0.7661 0.6427 -39.2608 120.9635)" class="st1" width="0.8" height="5.6"/>
							</g>
						</g>
					</g>
				</g>
				<g>
					<g>
						<g>
							<g>
								
									<rect x="43.6" y="5.5" transform="matrix(0.9397 -0.342 0.342 0.9397 -0.184 15.55)" class="st1" width="0.8" height="5.6"/>
							</g>
						</g>
						<g>
							<g>
								
									<rect x="117.6" y="43.5" transform="matrix(0.9397 -0.3419 0.3419 0.9397 -7.7546 43.8085)" class="st1" width="5.6" height="0.8"/>
							</g>
						</g>
					</g>
					<g>
						<g>
							<g>
								
									<rect x="86.8" y="9.9" transform="matrix(0.4228 -0.9062 0.9062 0.4228 42.4176 87.1278)" class="st1" width="5.6" height="0.8"/>
							</g>
						</g>
						<g>
							<g>
								
									<rect x="9.9" y="36.3" transform="matrix(0.4226 -0.9063 0.9063 0.4226 -29.525 31.9522)" class="st1" width="0.8" height="5.6"/>
							</g>
							<g>
								
									<rect x="118" y="86.7" transform="matrix(0.4226 -0.9063 0.9063 0.4226 -12.7707 159.0022)" class="st1" width="0.8" height="5.6"/>
							</g>
						</g>
					</g>
				</g>
				<g>
					<g>
						<g>
							<g>
								
									<rect x="29.8" y="12.7" transform="matrix(0.8192 -0.5735 0.5735 0.8192 -3.419 20.1275)" class="st1" width="0.8" height="5.6"/>
							</g>
							<g>
								
									<rect x="98.2" y="110.4" transform="matrix(0.8191 -0.5736 0.5736 0.8191 -47.082 77.042)" class="st1" width="0.8" height="5.6"/>
							</g>
						</g>
						<g>
							<g>
								
									<rect x="110.4" y="29.7" transform="matrix(0.8189 -0.5739 0.5739 0.8189 3.2144 70.4169)" class="st1" width="5.6" height="0.8"/>
							</g>
						</g>
					</g>
					<g>
						<g>
							<g>
								
									<rect x="71.9" y="5.2" transform="matrix(0.1739 -0.9848 0.9848 0.1739 56.1975 78.2417)" class="st1" width="5.6" height="0.8"/>
							</g>
						</g>
						<g>
							<g>
								
									<rect x="5.3" y="51.1" transform="matrix(0.1737 -0.9848 0.9848 0.1737 -48.3899 50.1916)" class="st1" width="0.8" height="5.6"/>
							</g>
							<g>
								
									<rect x="122.7" y="71.9" transform="matrix(0.1735 -0.9848 0.9848 0.1735 28.2317 182.9663)" class="st1" width="0.8" height="5.6"/>
							</g>
						</g>
					</g>
				</g>
			</g>
			<g>
				<g>
					<g>
						<g>
							<g>
								
									<rect x="51.1" y="3.3" transform="matrix(0.9763 -0.2165 0.2165 0.9763 -9.771181e-02 11.294)" class="st1" width="0.8" height="5.6"/>
							</g>
						</g>
						<g>
							<g>
								
									<rect x="119.8" y="51" transform="matrix(0.9762 -0.2167 0.2167 0.9762 -8.2252 27.7884)" class="st1" width="5.6" height="0.8"/>
							</g>
						</g>
					</g>
					<g>
						<g>
							<g>
								
									<rect x="93.6" y="13.6" transform="matrix(0.537 -0.8436 0.8436 0.537 32.7979 87.8014)" class="st1" width="5.6" height="0.8"/>
							</g>
						</g>
						<g>
							<g>
								
									<rect x="13.7" y="29.5" transform="matrix(0.5373 -0.8434 0.8434 0.5373 -20.6949 26.8468)" class="st1" width="0.8" height="5.6"/>
							</g>
							<g>
								
									<rect x="114.3" y="93.5" transform="matrix(0.5373 -0.8434 0.8434 0.5373 -28.1723 141.3475)" class="st1" width="0.8" height="5.6"/>
							</g>
						</g>
					</g>
				</g>
				<g>
					<g>
						<g>
							<g>
								
									<rect x="36.5" y="8.6" transform="matrix(0.887 -0.4618 0.4618 0.887 -1.0866 18.3184)" class="st1" width="0.8" height="5.6"/>
							</g>
						</g>
						<g>
							<g>
								
									<rect x="114.5" y="36.4" transform="matrix(0.8873 -0.4612 0.4612 0.8873 -3.7445 58.2474)" class="st1" width="5.6" height="0.8"/>
							</g>
						</g>
					</g>
					<g>
						<g>
							<g>
								
									<rect x="79.5" y="7" transform="matrix(0.3009 -0.9537 0.9537 0.3009 50.404 83.6481)" class="st1" width="5.6" height="0.8"/>
							</g>
						</g>
						<g>
							<g>
								
									<rect x="7.1" y="43.6" transform="matrix(0.3007 -0.9537 0.9537 0.3007 -38.991 39.6331)" class="st1" width="0.8" height="5.6"/>
							</g>
							<g>
								
									<rect x="120.8" y="79.5" transform="matrix(0.3007 -0.9537 0.9537 0.3007 6.2881 173.1147)" class="st1" width="0.8" height="5.6"/>
							</g>
						</g>
					</g>
				</g>
				<g>
					<g>
						<g>
							<g>
								
									<rect x="23.7" y="17.6" transform="matrix(0.7373 -0.6756 0.6756 0.7373 -7.4338 21.6604)" class="st1" width="0.8" height="5.6"/>
							</g>
							<g>
								
									<rect x="104.3" y="105.5" transform="matrix(0.7372 -0.6756 0.6756 0.7372 -45.6319 99.1891)" class="st1" width="0.8" height="5.6"/>
							</g>
						</g>
						<g>
							<g>
								
									<rect x="105.5" y="23.6" transform="matrix(0.7372 -0.6757 0.6757 0.7372 12.2226 79.4862)" class="st1" width="5.6" height="0.8"/>
							</g>
						</g>
					</g>
					<g>
						<g>
							<g>
								
									<rect x="64.1" y="4.3" transform="matrix(4.390451e-02 -0.999 0.999 4.390451e-02 59.2747 71.3906)" class="st1" width="5.6" height="0.8"/>
							</g>
						</g>
						<g>
							<g>
								
									<rect x="4.4" y="58.9" transform="matrix(4.370053e-02 -0.999 0.999 4.370053e-02 -57.0716 63.8277)" class="st1" width="0.8" height="5.6"/>
							</g>
							<g>
								
									<rect x="123.5" y="64.1" transform="matrix(4.355665e-02 -0.9991 0.9991 4.355665e-02 51.6538 187.8486)" class="st1" width="0.8" height="5.6"/>
							</g>
						</g>
					</g>
				</g>
			</g>
		</g>
	</g>
	<g>
		<g>
			<g>
				<path class="st2" d="M67.5,92.5h1.1l-10.9,27.1h-1.1L67.5,92.5z"/>
			</g>
		</g>
		<g>
			<g>
				<path class="st2" d="M71.4,101.1h12.3v0.8c-1.6,2-3.4,4.7-5,8.8c-1,2.5-1.9,5.9-2.2,8.8h-1.4c0.2-1.5,0.6-4.8,2.3-9
					c1.1-2.9,2.9-6,4.8-8.4H71.4V101.1z"/>
			</g>
		</g>
		<g>
			<g>
				<g>
					<path class="st3" d="M62.1,19.5v-6.2l-1.3,1.1v-0.8l1.3-1.1h0.7v7H62.1z"/>
				</g>
				<g>
					<path class="st3" d="M65.4,19.5v-0.6l2.7-3.5c0.3-0.3,0.4-0.6,0.4-1c0-0.8-0.4-1.3-1.2-1.3c-0.6,0-1.2,0.4-1.2,1.3h-0.7
						c0-1.1,0.8-1.9,1.9-1.9s1.9,0.7,1.9,1.9c0,0.6-0.2,0.9-0.6,1.4l-2.4,3.1h3v0.6H65.4z"/>
				</g>
			</g>
			<g>
				<g>
					<path class="st3" d="M112,67.5c-1.1,0-2-0.6-2-1.8h0.7c0.1,0.9,0.7,1.2,1.3,1.2c0.8,0,1.3-0.5,1.3-1.3s-0.4-1.3-1.4-1.3h-0.1
						v-0.6h0.1c0.9,0,1.2-0.5,1.2-1.3s-0.5-1.3-1.2-1.3s-1.2,0.5-1.3,1.2h-0.7c0.1-1.1,0.9-1.8,2-1.8s1.9,0.8,1.9,1.9
						c0,0.7-0.3,1.3-0.9,1.5c0.7,0.3,1.1,0.8,1.1,1.7C114.1,66.8,113.2,67.5,112,67.5z"/>
				</g>
			</g>
			<g>
				<g>
					<path class="st3" d="M106.9,89.4v1.1h-0.7v-1.1h-2.8v-0.6l2.5-5.2h0.8l-2.5,5.2h2v-2h0.7v2h0.9v0.6H106.9z"/>
				</g>
			</g>
			<g>
				<g>
					<path class="st3" d="M89.7,27.1v-6.2L88.4,22v-0.8l1.3-1.1h0.7v7C90.4,27.1,89.7,27.1,89.7,27.1z"/>
				</g>
			</g>
			<g>
				<g>
					<path class="st3" d="M37.2,27.1v-6.2L35.9,22v-0.8l1.3-1.1h0.7v7C37.9,27.1,37.2,27.1,37.2,27.1z"/>
				</g>
				<g>
					<path class="st3" d="M42.3,27.1v-6.2L41,22.1v-0.8l1.3-1.1H43v7h-0.7V27.1z"/>
				</g>
			</g>
			<g>
				<g>
					<path class="st3" d="M104,43.9v-0.6l2.7-3.5c0.3-0.3,0.4-0.6,0.4-1c0-0.8-0.4-1.3-1.2-1.3c-0.6,0-1.2,0.4-1.2,1.3H104
						c0-1.1,0.8-1.9,1.9-1.9s1.9,0.7,1.9,1.9c0,0.6-0.2,0.9-0.6,1.4l-2.4,3.1h3v0.6H104z"/>
				</g>
			</g>
			<g>
				<g>
					<path class="st3" d="M20.7,43.9v-6.2l-1.3,1.1V38l1.3-1.1h0.7v7H20.7z"/>
				</g>
				<g>
					<path class="st3" d="M25.9,43.9c-1.1,0-1.9-0.8-1.9-1.9v-3.2c0-1.2,0.8-1.9,1.9-1.9s1.9,0.8,1.9,1.9V42
						C27.8,43.2,26.9,43.9,25.9,43.9z M27.1,38.8c0-0.8-0.4-1.3-1.2-1.3c-0.8,0-1.2,0.6-1.2,1.3V42c0,0.8,0.4,1.3,1.2,1.3
						c0.8,0,1.2-0.6,1.2-1.3V38.8z"/>
				</g>
			</g>
			<g>
				<g>
					<path class="st3" d="M17.7,64L16,67.4h-0.7l1.6-3.1c-0.2,0.1-0.5,0.1-0.7,0.1c-1.1,0-1.8-0.8-1.8-2s0.7-2.1,1.9-2.1
						s1.9,0.8,1.9,2C18.1,62.9,18,63.4,17.7,64z M16.2,61c-0.7,0-1.2,0.6-1.2,1.4c0,0.8,0.4,1.4,1.2,1.4c0.7,0,1.2-0.5,1.2-1.4
						C17.4,61.6,16.9,61,16.2,61z"/>
				</g>
			</g>
			<g>
				<g>
					<polygon class="st3" points="63.4,64.5 78.2,13.5 64.8,64.9 					"/>
				</g>
				<g>
					
						<ellipse transform="matrix(0.6025 -0.7981 0.7981 0.6025 -25.7229 76.8407)" class="st3" cx="64.3" cy="64.2" rx="2.4" ry="2.4"/>
				</g>
			</g>
			<g>
				<path class="st3" d="M45.8,64.2c0,0.9-0.3,1.4-0.9,1.4c-0.5,0-0.9-0.5-0.9-1.4s0.4-1.4,0.9-1.4C45.5,62.8,45.8,63.3,45.8,64.2z
					 M44.4,64.2c0,0.7,0.2,1.1,0.5,1.1c0.4,0,0.6-0.4,0.6-1.1c0-0.7-0.2-1.1-0.5-1.1C44.6,63.1,44.4,63.5,44.4,64.2z"/>
			</g>
			<g>
				<path class="st3" d="M46.5,56.2V56l0.3-0.3c0.7-0.7,1-1,1-1.4c0-0.3-0.1-0.5-0.5-0.5c-0.2,0-0.4,0.1-0.6,0.2l-0.1-0.3
					c0.2-0.2,0.5-0.3,0.8-0.3c0.6,0,0.8,0.4,0.8,0.8c0,0.5-0.4,0.9-0.9,1.5L47,55.9l0,0h1.2v0.3H46.5z"/>
			</g>
			<g>
				<path class="st3" d="M50.5,54.8c0,0.9-0.3,1.4-0.9,1.4c-0.5,0-0.9-0.5-0.9-1.4s0.4-1.4,0.9-1.4C50.1,53.5,50.5,54,50.5,54.8z
					 M49,54.9c0,0.7,0.2,1.1,0.6,1.1c0.4,0,0.6-0.4,0.6-1.1c0-0.7-0.2-1.1-0.5-1.1C49.2,53.7,49,54.1,49,54.9z"/>
			</g>
			<g>
				<path class="st3" d="M53.6,49v-0.7h-1.3V48l1.2-1.7h0.4V48h0.4v0.3h-0.4V49H53.6z M53.6,48v-0.9c0-0.1,0-0.3,0-0.4l0,0
					c-0.1,0.2-0.1,0.3-0.2,0.4L52.7,48l0,0H53.6z"/>
			</g>
			<g>
				<path class="st3" d="M56.4,47.6c0,0.9-0.3,1.4-0.9,1.4c-0.5,0-0.9-0.5-0.9-1.4s0.4-1.4,0.9-1.4C56.1,46.2,56.4,46.8,56.4,47.6z
					 M54.9,47.7c0,0.7,0.2,1.1,0.6,1.1c0.4,0,0.6-0.4,0.6-1.1c0-0.7-0.2-1.1-0.6-1.1C55.2,46.5,54.9,46.9,54.9,47.7z"/>
			</g>
			<g>
				<path class="st3" d="M63.9,44c-0.1,0-0.2,0-0.3,0c-0.6,0.1-0.9,0.5-0.9,1l0,0c0.1-0.2,0.4-0.3,0.7-0.3c0.5,0,0.8,0.3,0.8,0.9
					c0,0.5-0.3,1-0.9,1c-0.6,0-1-0.4-1-1.2c0-0.5,0.2-1,0.5-1.2c0.2-0.2,0.5-0.4,0.9-0.4c0.1,0,0.2,0,0.3,0V44H63.9z M63.2,46.2
					c0.3,0,0.5-0.3,0.5-0.6c0-0.4-0.2-0.6-0.6-0.6c-0.2,0-0.4,0.1-0.5,0.3c0,0,0,0.1,0,0.2C62.6,45.9,62.8,46.2,63.2,46.2L63.2,46.2
					z"/>
			</g>
			<g>
				<path class="st3" d="M66.2,45.1c0,0.9-0.3,1.4-0.9,1.4c-0.5,0-0.9-0.5-0.9-1.4s0.4-1.4,0.9-1.4C65.9,43.7,66.2,44.2,66.2,45.1z
					 M64.8,45.1c0,0.7,0.2,1.1,0.5,1.1c0.4,0,0.6-0.4,0.6-1.1c0-0.7-0.2-1.1-0.5-1.1C65,44,64.8,44.4,64.8,45.1z"/>
			</g>
			<g>
				<path class="st3" d="M72.5,47.6c-0.3-0.1-0.4-0.4-0.4-0.6c0-0.4,0.4-0.7,0.8-0.7c0.5,0,0.8,0.3,0.8,0.7c0,0.2-0.1,0.5-0.4,0.6
					l0,0c0.3,0.1,0.5,0.4,0.5,0.7c0,0.5-0.4,0.8-0.9,0.8c-0.6,0-0.9-0.3-0.9-0.7C72,48,72.2,47.7,72.5,47.6L72.5,47.6z M73.5,48.3
					c0-0.3-0.2-0.5-0.6-0.6c-0.3,0.1-0.5,0.3-0.5,0.6s0.2,0.5,0.5,0.5C73.3,48.8,73.5,48.6,73.5,48.3z M72.5,46.9
					c0,0.3,0.2,0.4,0.5,0.5c0.2-0.1,0.4-0.2,0.4-0.5c0-0.2-0.1-0.4-0.5-0.4C72.6,46.5,72.5,46.7,72.5,46.9z"/>
			</g>
			<g>
				<path class="st3" d="M76,47.6c0,0.9-0.3,1.4-0.9,1.4c-0.5,0-0.9-0.5-0.9-1.4s0.4-1.4,0.9-1.4C75.7,46.3,76,46.8,76,47.6z
					 M74.5,47.7c0,0.7,0.2,1.1,0.6,1.1s0.6-0.4,0.6-1.1c0-0.7-0.2-1.1-0.6-1.1C74.7,46.5,74.5,46.9,74.5,47.7z"/>
			</g>
			<g>
				<polygon class="st3" points="76.8,54.6 76.8,54.6 76.3,54.8 76.2,54.6 76.8,54.2 77.2,54.2 77.2,57 76.8,57 				"/>
			</g>
			<g>
				<path class="st3" d="M79.5,55.6c0,0.9-0.3,1.4-0.9,1.4c-0.5,0-0.9-0.5-0.9-1.4s0.4-1.4,0.9-1.4C79.2,54.2,79.5,54.7,79.5,55.6z
					 M78.1,55.6c0,0.7,0.2,1.1,0.6,1.1s0.6-0.4,0.6-1.1c0-0.7-0.2-1.1-0.5-1.1C78.3,54.5,78.1,54.9,78.1,55.6z"/>
			</g>
			<g>
				<path class="st3" d="M81.7,55.6c0,0.9-0.3,1.4-0.9,1.4c-0.5,0-0.9-0.5-0.9-1.4s0.4-1.4,0.9-1.4C81.4,54.2,81.7,54.7,81.7,55.6z
					 M80.2,55.6c0,0.7,0.2,1.1,0.6,1.1s0.6-0.4,0.6-1.1c0-0.7-0.2-1.1-0.5-1.1C80.5,54.5,80.2,54.9,80.2,55.6z"/>
			</g>
			<g>
				<path class="st3" d="M84.7,64.2c0,0.9-0.3,1.4-0.9,1.4c-0.5,0-0.9-0.5-0.9-1.4s0.4-1.4,0.9-1.4C84.4,62.9,84.7,63.4,84.7,64.2z
					 M83.2,64.3c0,0.7,0.2,1.1,0.6,1.1s0.6-0.4,0.6-1.1c0-0.7-0.2-1.1-0.5-1.1C83.5,63.1,83.2,63.5,83.2,64.3z"/>
			</g>
			<g>
				<polygon class="st3" points="79.7,63.3 79.7,63.3 79.2,63.5 79.2,63.2 79.8,62.9 80.1,62.9 80.1,65.6 79.7,65.6 				"/>
			</g>
			<g>
				<path class="st3" d="M80.8,65.6v-0.2l0.3-0.3c0.7-0.7,1-1,1-1.4c0-0.3-0.1-0.5-0.5-0.5c-0.2,0-0.5,0.1-0.6,0.2l-0.1-0.3
					c0.2-0.2,0.5-0.3,0.8-0.3c0.6,0,0.8,0.4,0.8,0.8c0,0.5-0.4,0.9-0.9,1.5l-0.2,0.2l0,0h1.2v0.3H80.8z"/>
			</g>
			<g>
				<polygon class="st3" points="77.1,72.8 77.1,72.8 76.6,73.1 76.5,72.8 77.1,72.5 77.5,72.5 77.5,75.2 77.1,75.2 				"/>
			</g>
			<g>
				<path class="st3" d="M79.6,75.2v-0.7h-1.3v-0.2l1.2-1.7h0.4v1.7h0.4v0.3h-0.4v0.7h-0.3V75.2z M79.6,74.2v-0.9c0-0.1,0-0.3,0-0.4
					l0,0c-0.1,0.2-0.1,0.3-0.2,0.4l-0.7,0.9l0,0H79.6z"/>
			</g>
			<g>
				<path class="st3" d="M82.4,73.8c0,0.9-0.3,1.4-0.9,1.4c-0.5,0-0.9-0.5-0.9-1.4s0.4-1.4,0.9-1.4C82.1,72.5,82.4,73,82.4,73.8z
					 M80.9,73.9c0,0.7,0.2,1.1,0.5,1.1c0.4,0,0.6-0.4,0.6-1.1s-0.2-1.1-0.5-1.1C81.1,72.7,80.9,73.1,80.9,73.9z"/>
			</g>
			<g>
				<polygon class="st3" points="70.3,79.2 70.3,79.2 69.8,79.5 69.7,79.2 70.3,78.9 70.6,78.9 70.6,81.6 70.3,81.6 				"/>
			</g>
			<g>
				<path class="st3" d="M73.2,79.2c-0.1,0-0.2,0-0.3,0c-0.6,0.1-0.9,0.5-0.9,1l0,0c0.1-0.2,0.4-0.3,0.7-0.3c0.5,0,0.8,0.3,0.8,0.9
					c0,0.5-0.3,1-0.9,1s-1-0.4-1-1.2c0-0.5,0.2-1,0.5-1.2c0.2-0.2,0.5-0.4,0.9-0.4c0.1,0,0.2,0,0.3,0L73.2,79.2L73.2,79.2z
					 M72.5,81.4c0.3,0,0.5-0.3,0.5-0.7c0-0.4-0.2-0.6-0.6-0.6c-0.2,0-0.4,0.1-0.5,0.3c0,0,0,0.1,0,0.2C71.9,81,72.1,81.4,72.5,81.4
					L72.5,81.4z"/>
			</g>
			<g>
				<path class="st3" d="M75.6,80.2c0,0.9-0.3,1.4-0.9,1.4c-0.5,0-0.9-0.5-0.9-1.4s0.4-1.4,0.9-1.4C75.2,78.9,75.6,79.4,75.6,80.2z
					 M74.1,80.3c0,0.7,0.2,1.1,0.5,1.1c0.4,0,0.6-0.4,0.6-1.1s-0.2-1.1-0.6-1.1C74.3,79.1,74.1,79.5,74.1,80.3z"/>
			</g>
		</g>
		<g>
			<g>
				<polygon class="st2" points="18.3,79.5 22.3,75.4 0.5,75.4 4.6,79.5 				"/>
			</g>
			<g>
				<polygon class="st2" points="4.7,116.7 0.5,120.9 22.2,120.9 17.9,116.7 				"/>
			</g>
			<g>
				<polygon class="st4" points="43.4,79.5 47.4,75.4 25.7,75.4 29.7,79.5 				"/>
			</g>
			<g>
				<polygon class="st4" points="29.8,116.7 25.6,120.9 47.3,120.9 43,116.7 				"/>
			</g>
			<g>
				<g>
					<polygon class="st4" points="4.1,79.9 0,75.8 0,97.8 4.1,93.6 					"/>
				</g>
				<g>
					<polygon class="st4" points="18.6,116.5 22.7,120.6 22.7,98.6 18.6,102.8 					"/>
				</g>
				<g>
					<polygon class="st2" points="18.6,80 18.6,93.5 22.7,97.6 22.7,75.9 					"/>
				</g>
				<g>
					<polygon class="st2" points="4.1,102.9 0,98.7 0,120.5 4.1,116.3 					"/>
				</g>
				<g>
					<polygon class="st2" points="22.3,98.2 18.6,94.5 4.1,94.5 0.3,98.2 4.1,102 18.6,102 					"/>
				</g>
				<g>
					<polygon class="st2" points="29.3,79.9 25.1,75.8 25.1,97.8 29.3,93.6 					"/>
				</g>
				<g>
					<polygon class="st2" points="43.7,116.5 47.9,120.6 47.9,98.6 43.7,102.8 					"/>
				</g>
				<g>
					<polygon class="st2" points="43.7,80 43.7,93.5 47.9,97.6 47.9,75.9 					"/>
				</g>
				<g>
					<polygon class="st4" points="29.3,102.9 25.1,98.7 25.1,120.5 29.3,116.3 					"/>
				</g>
				<g>
					<polygon class="st2" points="47.4,98.2 43.7,94.5 29.2,94.5 25.5,98.2 29.2,102 43.7,102 					"/>
				</g>
			</g>
		</g>
	</g>
	<g>
		<g>
			<g>
				<g>
					<g>
						<rect x="0.1" y="63.9" class="st5" width="9.1" height="0.8"/>
					</g>
					<g>
						<rect x="119.6" y="63.9" class="st5" width="9.1" height="0.8"/>
					</g>
				</g>
				<g>
					<g>
						<rect x="64" class="st5" width="0.8" height="9.1"/>
					</g>
				</g>
			</g>
			<g>
				<g>
					<g>
						
							<rect x="21.7" y="17.5" transform="matrix(0.7071 -0.7071 0.7071 0.7071 -9.1174 22.0942)" class="st5" width="0.8" height="9.1"/>
					</g>
					<g>
						
							<rect x="106.3" y="102" transform="matrix(0.7071 -0.7071 0.7071 0.7071 -44.1136 106.6929)" class="st5" width="0.8" height="9.1"/>
					</g>
				</g>
				<g>
					<g>
						
							<rect x="102.1" y="21.6" transform="matrix(0.7071 -0.7071 0.7071 0.7071 15.6638 81.8418)" class="st5" width="9.1" height="0.8"/>
					</g>
				</g>
			</g>
		</g>
		<g>
			<g>
				<g>
					<g>
						
							<rect x="117.6" y="48.4" transform="matrix(0.9657 -0.2597 0.2597 0.9657 -8.4824 33.3939)" class="st5" width="9.1" height="0.8"/>
					</g>
				</g>
				<g>
					<g>
						
							<rect x="48.5" y="2" transform="matrix(0.9659 -0.2588 0.2588 0.9659 -3.003429e-02 12.8777)" class="st5" width="0.8" height="9.1"/>
					</g>
				</g>
			</g>
			<g>
				<g>
					<g>
						<rect x="12.2" y="29.9" transform="matrix(0.5 -0.866 0.866 0.5 -23.5116 28.1583)" class="st5" width="0.8" height="9.1"/>
					</g>
					<g>
						
							<rect x="115.8" y="89.6" transform="matrix(0.4999 -0.8661 0.8661 0.4999 -23.4422 147.7533)" class="st5" width="0.8" height="9.1"/>
					</g>
				</g>
				<g>
					<g>
						
							<rect x="89.7" y="12.1" transform="matrix(0.5003 -0.8658 0.8658 0.5003 36.2255 87.8484)" class="st5" width="9.1" height="0.8"/>
					</g>
				</g>
			</g>
		</g>
		<g>
			<g>
				<g>
					<g>
						
							<rect x="111.6" y="34" transform="matrix(0.8661 -0.4999 0.4999 0.8661 -1.6467 62.6671)" class="st5" width="9.1" height="0.8"/>
					</g>
				</g>
				<g>
					<g>
						<rect x="34.1" y="8" transform="matrix(0.866 -0.5 0.5 0.866 -1.6483 18.933)" class="st5" width="0.8" height="9.1"/>
					</g>
					<g>
						<rect x="93.9" y="111.6" transform="matrix(0.866 -0.5 0.5 0.866 -45.4256 62.7232)" class="st5" width="0.8" height="9.1"/>
					</g>
				</g>
			</g>
			<g>
				<g>
					<g>
						
							<rect x="6.2" y="44.3" transform="matrix(0.2588 -0.9659 0.9659 0.2588 -42.2886 42.6362)" class="st5" width="0.8" height="9.1"/>
					</g>
					<g>
						<polygon class="st5" points="126.4,81.3 117.6,79 117.9,78.2 126.6,80.6 						"/>
					</g>
				</g>
				<g>
					<g>
						
							<rect x="75.3" y="6.2" transform="matrix(0.2586 -0.966 0.966 0.2586 52.8777 82.047)" class="st5" width="9.1" height="0.8"/>
					</g>
				</g>
			</g>
		</g>
	</g>
</g>
</svg>
