<?xml version="1.0" encoding="utf-8"?>
<!-- Generator: Adobe Illustrator 22.0.1, SVG Export Plug-In . SVG Version: 6.00 Build 0)  -->
<svg version="1.1" id="Layer_1" xmlns="http://www.w3.org/2000/svg" xmlns:xlink="http://www.w3.org/1999/xlink" x="0px" y="0px"
	 width="241.1px" height="51px" viewBox="0 0 241.1 51" style="enable-background:new 0 0 241.1 51;" xml:space="preserve">
<style type="text/css">
	.st0{fill:none;stroke:#666666;stroke-linecap:round;stroke-linejoin:round;stroke-miterlimit:10;}
</style>
<g>
	<g>
		<path class="st0" d="M192.1,33.6V7.9c0-0.6,0.5-1,1-1L218,7.4c0.6,0,3,4.2,3.8,9.3c0.7,4.6,1.3,12.2-0.3,16.8
			c-0.7,2-1.3,2.8-2,3.2l-6.4,2.4"/>
		<path class="st0" d="M194.9,23.9V10.3c0-0.5,0.4-0.8,0.9-0.8l20.7,0.4c0.5,0,2.5,3.5,3.1,7.7c0.3,2.2,0.6,5.5,0.6,8.3L194.9,23.9z
			"/>
		<path class="st0" d="M218.5,7.4h2.5l-1-3.8c-1.5,0-6.9,1.5-6.9,1.5l-22.2-0.5c-0.7,0-1.3,0.5-1.3,1v2.3l2.6,1.1"/>
		<polyline class="st0" points="186.1,23.2 186.1,13.2 189.3,9.9 189.3,22.7 		"/>
		<g>
			<path class="st0" d="M192.5,4V1.9c0-0.7,0.6-1.4,1.4-1.4l0,0c0.8,0,1.4,0.6,1.4,1.4v2.4"/>
		</g>
		<rect x="225.1" y="13.9" class="st0" width="2.4" height="9.8"/>
		<path class="st0" d="M220.5,11.9c0,0,6.6,0,7,1.7v12.1l-4.5,2.2"/>
		<polygon class="st0" points="222.9,37.1 231.4,37.9 231.8,35.8 222.9,35.1 		"/>
		<g>
			<circle class="st0" cx="201.7" cy="42.9" r="5"/>
			<circle class="st0" cx="201.7" cy="42.9" r="3.4"/>
			<g>
				<g>
					<line class="st0" x1="199.5" y1="35.5" x2="200.5" y2="36.9"/>
					<line class="st0" x1="203.1" y1="48.9" x2="204" y2="50.2"/>
				</g>
				<g>
					<line class="st0" x1="209.1" y1="40.7" x2="207.7" y2="41.5"/>
					<line class="st0" x1="195.7" y1="44.2" x2="194.5" y2="45.1"/>
				</g>
			</g>
			<g>
				<g>
					<line class="st0" x1="201.5" y1="35.2" x2="202.1" y2="36.7"/>
					<line class="st0" x1="201.5" y1="49" x2="202.1" y2="50.5"/>
				</g>
				<g>
					<line class="st0" x1="209.4" y1="42.6" x2="207.9" y2="43.1"/>
					<line class="st0" x1="195.7" y1="42.6" x2="194.1" y2="43.1"/>
				</g>
			</g>
			<g>
				<g>
					<line class="st0" x1="203.5" y1="35.4" x2="203.6" y2="37.1"/>
					<line class="st0" x1="199.9" y1="48.7" x2="200.1" y2="50.3"/>
				</g>
				<g>
					<line class="st0" x1="209.3" y1="44.6" x2="207.6" y2="44.7"/>
					<line class="st0" x1="195.9" y1="41.1" x2="194.3" y2="41.1"/>
				</g>
			</g>
			<g>
				<g>
					<line class="st0" x1="205.3" y1="36.1" x2="205.1" y2="37.7"/>
					<line class="st0" x1="198.5" y1="48" x2="198.1" y2="49.6"/>
				</g>
				<g>
					<line class="st0" x1="208.5" y1="46.5" x2="206.9" y2="46.2"/>
					<line class="st0" x1="196.6" y1="39.5" x2="195" y2="39.3"/>
				</g>
			</g>
			<g>
				<g>
					<line class="st0" x1="206.9" y1="37.3" x2="206.3" y2="38.7"/>
					<line class="st0" x1="197.3" y1="47" x2="196.5" y2="48.5"/>
				</g>
				<g>
					<line class="st0" x1="207.3" y1="48.1" x2="205.9" y2="47.4"/>
					<line class="st0" x1="197.7" y1="38.3" x2="196.1" y2="37.6"/>
				</g>
			</g>
			<g>
				<g>
					<line class="st0" x1="208.2" y1="38.8" x2="207.2" y2="40"/>
					<line class="st0" x1="196.3" y1="45.7" x2="195.3" y2="47"/>
				</g>
				<g>
					<line class="st0" x1="205.8" y1="49.4" x2="204.5" y2="48.3"/>
					<line class="st0" x1="198.9" y1="37.5" x2="197.7" y2="36.4"/>
				</g>
			</g>
		</g>
		<g>
			<circle class="st0" cx="150.7" cy="42.9" r="5"/>
			<circle class="st0" cx="150.7" cy="42.9" r="3.4"/>
			<g>
				<g>
					<line class="st0" x1="148.5" y1="35.5" x2="149.3" y2="36.9"/>
					<line class="st0" x1="152" y1="48.9" x2="152.9" y2="50.2"/>
				</g>
				<g>
					<line class="st0" x1="158" y1="40.7" x2="156.7" y2="41.5"/>
					<line class="st0" x1="144.7" y1="44.2" x2="143.3" y2="45.1"/>
				</g>
			</g>
			<g>
				<g>
					<line class="st0" x1="150.4" y1="35.2" x2="150.9" y2="36.7"/>
					<line class="st0" x1="150.4" y1="49" x2="150.9" y2="50.5"/>
				</g>
				<g>
					<line class="st0" x1="158.4" y1="42.6" x2="156.8" y2="43.1"/>
					<line class="st0" x1="144.5" y1="42.6" x2="143" y2="43.1"/>
				</g>
			</g>
			<g>
				<g>
					<line class="st0" x1="152.4" y1="35.4" x2="152.5" y2="37.1"/>
					<line class="st0" x1="148.9" y1="48.7" x2="149" y2="50.3"/>
				</g>
				<g>
					<line class="st0" x1="158.1" y1="44.6" x2="156.5" y2="44.7"/>
					<line class="st0" x1="144.9" y1="41.1" x2="143.3" y2="41.1"/>
				</g>
			</g>
			<g>
				<g>
					<line class="st0" x1="154.3" y1="36.1" x2="154" y2="37.7"/>
					<line class="st0" x1="147.4" y1="48" x2="147.1" y2="49.6"/>
				</g>
				<g>
					<line class="st0" x1="157.5" y1="46.5" x2="155.9" y2="46.2"/>
					<line class="st0" x1="145.5" y1="39.5" x2="143.9" y2="39.3"/>
				</g>
			</g>
			<g>
				<g>
					<line class="st0" x1="155.9" y1="37.3" x2="155.3" y2="38.7"/>
					<line class="st0" x1="146.1" y1="47" x2="145.5" y2="48.5"/>
				</g>
				<g>
					<line class="st0" x1="156.3" y1="48.1" x2="154.9" y2="47.4"/>
					<line class="st0" x1="146.5" y1="38.3" x2="145.1" y2="37.6"/>
				</g>
			</g>
			<g>
				<g>
					<line class="st0" x1="157.2" y1="38.8" x2="156.1" y2="40"/>
					<line class="st0" x1="145.3" y1="45.7" x2="144.2" y2="47"/>
				</g>
				<g>
					<line class="st0" x1="154.8" y1="49.4" x2="153.5" y2="48.3"/>
					<line class="st0" x1="147.9" y1="37.5" x2="146.6" y2="36.4"/>
				</g>
			</g>
		</g>
		<polygon class="st0" points="190.7,35.1 195.7,30.7 210.2,32.4 215.1,38.3 213.2,39.1 209.2,34.3 196.5,32.8 192.2,36.7 		"/>
		<rect x="142.9" y="23.3" class="st0" width="46.5" height="7.5"/>
		<rect x="142.9" y="30.7" class="st0" width="46.5" height="2.5"/>
		<rect x="160.7" y="33.3" class="st0" width="28.7" height="5"/>
		<polygon class="st0" points="233.5,49.3 230.5,42 233.3,29.4 239,24 240.6,25.1 235.2,30.1 232.5,42.1 235.4,49 		"/>
		<ellipse transform="matrix(0.101 -0.9949 0.9949 0.101 165.6235 246.3335)" class="st0" cx="219.1" cy="31.5" rx="2.6" ry="0.7"/>
	</g>
	<g>
		<g>
			<polygon class="st0" points="66.7,34.2 73.8,41.7 73.8,38.5 66.7,31 			"/>
			<polygon class="st0" points="47.4,34.8 55.9,35.5 57.3,33.9 47.4,33.3 			"/>
			<g>
				<path class="st0" d="M14.6,10.1V8.6c0-0.6-0.5-1-1-1l0,0c-0.6,0-1,0.4-1,1v1.7"/>
			</g>
			<path class="st0" d="M39.3,26.9c0,0.9,0.4,1.5,0.8,1.5s0.8-0.7,0.8-1.5c0-0.9-0.4-1.5-0.8-1.5S39.3,26.1,39.3,26.9z"/>
			<g>
				<circle class="st0" cx="8.7" cy="42.7" r="5"/>
				<circle class="st0" cx="8.7" cy="42.7" r="3.4"/>
				<g>
					<g>
						<line class="st0" x1="11" y1="35.3" x2="10.1" y2="36.7"/>
						<line class="st0" x1="7.4" y1="48.7" x2="6.5" y2="50.1"/>
					</g>
					<g>
						<line class="st0" x1="1.3" y1="40.4" x2="2.7" y2="41.4"/>
						<line class="st0" x1="14.8" y1="44" x2="16.1" y2="45"/>
					</g>
				</g>
				<g>
					<g>
						<line class="st0" x1="9" y1="35" x2="8.5" y2="36.5"/>
						<line class="st0" x1="9" y1="48.8" x2="8.5" y2="50.4"/>
					</g>
					<g>
						<line class="st0" x1="1" y1="42.4" x2="2.5" y2="43"/>
						<line class="st0" x1="14.9" y1="42.4" x2="16.5" y2="43"/>
					</g>
				</g>
				<g>
					<g>
						<line class="st0" x1="7" y1="35.1" x2="6.9" y2="36.8"/>
						<line class="st0" x1="10.6" y1="48.6" x2="10.5" y2="50.2"/>
					</g>
					<g>
						<line class="st0" x1="1.2" y1="44.4" x2="2.9" y2="44.6"/>
						<line class="st0" x1="14.6" y1="40.8" x2="16.2" y2="41"/>
					</g>
				</g>
				<g>
					<g>
						<line class="st0" x1="5.1" y1="35.9" x2="5.4" y2="37.5"/>
						<line class="st0" x1="12.1" y1="47.9" x2="12.3" y2="49.5"/>
					</g>
					<g>
						<line class="st0" x1="1.9" y1="46.3" x2="3.5" y2="46"/>
						<line class="st0" x1="13.9" y1="39.4" x2="15.5" y2="39.1"/>
					</g>
				</g>
				<g>
					<g>
						<line class="st0" x1="3.5" y1="37.1" x2="4.1" y2="38.5"/>
						<line class="st0" x1="13.3" y1="46.8" x2="14" y2="48.3"/>
					</g>
					<g>
						<line class="st0" x1="3.1" y1="47.9" x2="4.5" y2="47.2"/>
						<line class="st0" x1="12.9" y1="38.1" x2="14.4" y2="37.5"/>
					</g>
				</g>
				<g>
					<g>
						<line class="st0" x1="2.2" y1="38.6" x2="3.3" y2="39.9"/>
						<line class="st0" x1="14.2" y1="45.5" x2="15.3" y2="46.8"/>
					</g>
					<g>
						<line class="st0" x1="4.6" y1="49.2" x2="5.9" y2="48.2"/>
						<line class="st0" x1="11.6" y1="37.2" x2="12.8" y2="36.2"/>
					</g>
				</g>
			</g>
			<g>
				<circle class="st0" cx="41.7" cy="42.7" r="5"/>
				<circle class="st0" cx="41.7" cy="42.7" r="3.4"/>
				<g>
					<g>
						<line class="st0" x1="44.1" y1="35.3" x2="43.1" y2="36.7"/>
						<line class="st0" x1="40.5" y1="48.7" x2="39.5" y2="50.1"/>
					</g>
					<g>
						<line class="st0" x1="34.4" y1="40.4" x2="35.7" y2="41.4"/>
						<line class="st0" x1="47.8" y1="44" x2="49.2" y2="45"/>
					</g>
				</g>
				<g>
					<g>
						<line class="st0" x1="42.1" y1="35" x2="41.5" y2="36.5"/>
						<line class="st0" x1="42.1" y1="48.8" x2="41.5" y2="50.4"/>
					</g>
					<g>
						<line class="st0" x1="34.1" y1="42.4" x2="35.6" y2="43"/>
						<line class="st0" x1="47.9" y1="42.4" x2="49.5" y2="43"/>
					</g>
				</g>
				<g>
					<g>
						<line class="st0" x1="40.1" y1="35.1" x2="39.9" y2="36.8"/>
						<line class="st0" x1="43.7" y1="48.6" x2="43.5" y2="50.2"/>
					</g>
					<g>
						<line class="st0" x1="34.2" y1="44.4" x2="35.9" y2="44.6"/>
						<line class="st0" x1="47.7" y1="40.8" x2="49.3" y2="41"/>
					</g>
				</g>
				<g>
					<g>
						<line class="st0" x1="38.1" y1="35.9" x2="38.5" y2="37.5"/>
						<line class="st0" x1="45.1" y1="47.9" x2="45.4" y2="49.5"/>
					</g>
					<g>
						<line class="st0" x1="34.9" y1="46.3" x2="36.5" y2="46"/>
						<line class="st0" x1="46.9" y1="39.4" x2="48.6" y2="39.1"/>
					</g>
				</g>
				<g>
					<g>
						<line class="st0" x1="36.5" y1="37.1" x2="37.2" y2="38.5"/>
						<line class="st0" x1="46.3" y1="46.8" x2="47" y2="48.3"/>
					</g>
					<g>
						<line class="st0" x1="36.1" y1="47.9" x2="37.6" y2="47.2"/>
						<line class="st0" x1="45.9" y1="38.1" x2="47.4" y2="37.5"/>
					</g>
				</g>
				<g>
					<g>
						<line class="st0" x1="35.3" y1="38.6" x2="36.3" y2="39.9"/>
						<line class="st0" x1="47.3" y1="45.5" x2="48.3" y2="46.8"/>
					</g>
					<g>
						<line class="st0" x1="37.7" y1="49.2" x2="38.9" y2="48.2"/>
						<line class="st0" x1="44.6" y1="37.2" x2="45.9" y2="36.2"/>
					</g>
				</g>
			</g>
			<path class="st0" d="M3.7,33.9c-1,0.6-2,1.4-2.7,2.3l-0.5-1c1-1.1,2-2.2,3.4-2.9L3.7,33.9z"/>
			<path class="st0" d="M3.9,31.1c1.4-0.6,3.1-1,4.8-1c5.6,0,10.3,3.7,11.9,8.8h9.2c1.4-4.4,5-7.7,9.6-8.6c0.7-0.2,5.3,0.2,7.3,0.2
				l-0.8,2.2c-1.8,0-5.2-0.2-5.7-0.2c-4.6,0.6-8.2,4.4-8.7,9.1H18.7c-0.5-5.2-4.8-9.2-10.2-9.2c-1.9,0-3.7,0.6-5.2,1.4L3.9,31.1z"/>
			<g>
				<path class="st0" d="M10.9,30.3l1.9-11.8c0.4-2.2,1.4-3.1,3.3-3.1h12.5c1.8,0,2.6,1.2,3.3,3.1L37.2,31"/>
			</g>
			<g>
				<path class="st0" d="M29.8,39h-9.2c-1.6-5-6.3-8.8-11.9-8.8c-0.2,0-0.3,0-0.6,0l2.2-13.1c0.6-2.6,1.8-3.8,4-3.8h15.2
					c2.2,0,3,1.5,4,3.8l5.7,13.4C34.8,31.4,31.2,34.7,29.8,39z"/>
			</g>
			<line class="st0" x1="17.9" y1="15.5" x2="17.9" y2="34.1"/>
			<line class="st0" x1="39.3" y1="26.9" x2="37.7" y2="26.9"/>
			<circle class="st0" cx="62.2" cy="42.9" r="7.2"/>
			<circle class="st0" cx="62.2" cy="42.9" r="5"/>
			<polyline class="st0" points="55,49.8 52.5,46.1 52.6,39.4 61.4,29.7 67.7,11 76.5,7.6 76.5,12.3 72.5,13.8 67.2,29.6 			"/>
			<path class="st0" d="M31.9,14l1.3-0.1c-0.9-1.8-1.9-3-4.2-3l-15.4-0.6c-2.3,0-3.7,1.7-4.2,3.8l1.8,0.8"/>
		</g>
	</g>
</g>
</svg>
