<?xml version="1.0" encoding="utf-8"?>
<!-- Generator: Adobe Illustrator 21.1.0, SVG Export Plug-In . SVG Version: 6.00 Build 0)  -->
<svg version="1.1" id="Layer_1" xmlns="http://www.w3.org/2000/svg" xmlns:xlink="http://www.w3.org/1999/xlink" x="0px" y="0px"
	 width="121.8px" height="126.4px" viewBox="0 0 121.8 126.4" style="enable-background:new 0 0 121.8 126.4;" xml:space="preserve"
	>
<style type="text/css">
	.st0{fill:#CEAF5B;}
	.st1{fill:none;stroke:#CEAF5B;stroke-linecap:round;stroke-linejoin:round;stroke-miterlimit:10;}
	.st2{fill:#F2D383;}
</style>
<g>
	<g>
		<g>
			<path class="st0" d="M0.4,90.4c-0.1,0-0.2,0-0.3-0.1C0,90.2,0,90.1,0,90v-3.3c0-0.2,0.2-0.4,0.4-0.4l17.1-1.7
				c0.1,0,0.2,0,0.3,0.1c0.1,0.1,0.1,0.2,0.1,0.3v3.3c0,0.2-0.2,0.4-0.4,0.4L0.4,90.4C0.4,90.4,0.4,90.4,0.4,90.4z M0.8,87.1v2.5
				l16.3-1.6v-2.5L0.8,87.1z M17.5,88.2L17.5,88.2L17.5,88.2z"/>
		</g>
		<g>
			<path class="st0" d="M16.4,83.4c-0.2,0-0.4-0.1-0.4-0.3l-1.7-11.9c0-0.2,0.1-0.4,0.3-0.5c0.2,0,0.4,0.1,0.5,0.3L16.8,83
				C16.8,83.2,16.6,83.4,16.4,83.4C16.4,83.4,16.4,83.4,16.4,83.4z"/>
		</g>
		<g>
			<path class="st0" d="M20.3,76.6h-2.8c-0.2,0-0.3-0.1-0.4-0.3c-0.1-0.2,0-0.3,0.1-0.4l5.8-4.7c0.1-0.1,0.2-0.1,0.3-0.1h2.8
				c0.2,0,0.3,0.1,0.4,0.3c0.1,0.2,0,0.3-0.1,0.4l-5.8,4.7C20.5,76.6,20.4,76.6,20.3,76.6z M18.6,75.8h1.5l4.8-3.9h-1.5L18.6,75.8z"
				/>
		</g>
		<g>
			<g>
				<path class="st0" d="M111.2,88c-0.1,0-0.1,0-0.2-0.1c-0.1-0.1-0.2-0.1-0.2-0.2l-5.1-18.5c0-0.1,0-0.2,0-0.3
					c0.1-0.1,0.1-0.2,0.2-0.2l4.9-1.3c0.2-0.1,0.4,0.1,0.5,0.3l5.1,18.5c0.1,0.2-0.1,0.4-0.3,0.5l-4.9,1.3
					C111.3,88,111.3,88,111.2,88z M106.6,69.3l4.9,17.7l4.1-1.1l-4.9-17.7L106.6,69.3z"/>
			</g>
			<g>
				<path class="st0" d="M116.5,91.7c-0.1,0-0.2,0-0.2-0.1l-5.3-3.8c-0.1-0.1-0.2-0.2-0.2-0.4c0-0.2,0.1-0.3,0.3-0.3l4.9-1.3
					c0.1,0,0.2,0,0.3,0.1l5.3,3.8c0.1,0.1,0.2,0.2,0.2,0.4c0,0.2-0.1,0.3-0.3,0.3l-4.9,1.3C116.6,91.7,116.6,91.7,116.5,91.7z
					 M112.2,87.7l4.4,3.2l3.9-1.1l-4.4-3.2L112.2,87.7z"/>
			</g>
			<g>
				<path class="st0" d="M106.1,69.5c-0.1,0-0.2,0-0.3-0.1c-0.1-0.1-0.1-0.3-0.1-0.4l2.6-5.9c0-0.1,0.1-0.2,0.3-0.2l4.9-1.3
					c0.1,0,0.3,0,0.4,0.1c0.1,0.1,0.1,0.3,0.1,0.4l-2.6,5.9c0,0.1-0.1,0.2-0.3,0.2l-4.9,1.3C106.2,69.5,106.2,69.5,106.1,69.5z
					 M109,63.5l-2.2,5l3.9-1.1l2.2-5L109,63.5z"/>
			</g>
		</g>
		<g>
			<path class="st1" d="M52.5,67.6"/>
		</g>
		<g>
			<g>
				<path class="st0" d="M86,90.5H29.5c-4,0-7.3-3.3-7.3-7.3c0-4,3.3-7.3,7.3-7.3H86c4,0,7.3,3.3,7.3,7.3
					C93.4,87.2,90.1,90.5,86,90.5z M29.5,76.7c-3.6,0-6.5,2.9-6.5,6.5c0,3.6,2.9,6.5,6.5,6.5H86c3.6,0,6.5-2.9,6.5-6.5
					c0-3.6-2.9-6.5-6.5-6.5H29.5z"/>
			</g>
			<g>
				<g>
					<path class="st0" d="M60.9,92.5c-0.2,0-0.4-0.2-0.4-0.4v-2c0-0.2,0.2-0.4,0.4-0.4s0.4,0.2,0.4,0.4v2
						C61.3,92.4,61.1,92.5,60.9,92.5z"/>
				</g>
				<g>
					<path class="st0" d="M62.9,92.5c-0.2,0-0.4-0.2-0.4-0.4v-2c0-0.2,0.2-0.4,0.4-0.4c0.2,0,0.4,0.2,0.4,0.4v2
						C63.3,92.4,63.1,92.5,62.9,92.5z"/>
				</g>
				<g>
					<path class="st0" d="M65,92.5c-0.2,0-0.4-0.2-0.4-0.4v-2c0-0.2,0.2-0.4,0.4-0.4c0.2,0,0.4,0.2,0.4,0.4v2
						C65.4,92.4,65.2,92.5,65,92.5z"/>
				</g>
				<g>
					<path class="st0" d="M67,92.5c-0.2,0-0.4-0.2-0.4-0.4v-2c0-0.2,0.2-0.4,0.4-0.4s0.4,0.2,0.4,0.4v2C67.4,92.4,67.2,92.5,67,92.5
						z"/>
				</g>
				<g>
					<path class="st0" d="M69,92.5c-0.2,0-0.4-0.2-0.4-0.4v-2c0-0.2,0.2-0.4,0.4-0.4s0.4,0.2,0.4,0.4v2C69.4,92.4,69.3,92.5,69,92.5
						z"/>
				</g>
				<g>
					<path class="st0" d="M71.1,92.5c-0.2,0-0.4-0.2-0.4-0.4v-2c0-0.2,0.2-0.4,0.4-0.4s0.4,0.2,0.4,0.4v2
						C71.5,92.4,71.3,92.5,71.1,92.5z"/>
				</g>
				<g>
					<path class="st0" d="M73.1,92.5c-0.2,0-0.4-0.2-0.4-0.4v-2c0-0.2,0.2-0.4,0.4-0.4c0.2,0,0.4,0.2,0.4,0.4v2
						C73.5,92.4,73.3,92.5,73.1,92.5z"/>
				</g>
				<g>
					<path class="st0" d="M75.2,92.5c-0.2,0-0.4-0.2-0.4-0.4v-2c0-0.2,0.2-0.4,0.4-0.4s0.4,0.2,0.4,0.4v2
						C75.6,92.4,75.4,92.5,75.2,92.5z"/>
				</g>
				<g>
					<path class="st0" d="M77.2,92.5c-0.2,0-0.4-0.2-0.4-0.4v-2c0-0.2,0.2-0.4,0.4-0.4s0.4,0.2,0.4,0.4v2
						C77.6,92.4,77.4,92.5,77.2,92.5z"/>
				</g>
				<g>
					<path class="st0" d="M79.2,92.5c-0.2,0-0.4-0.2-0.4-0.4v-2c0-0.2,0.2-0.4,0.4-0.4c0.2,0,0.4,0.2,0.4,0.4v2
						C79.6,92.4,79.5,92.5,79.2,92.5z"/>
				</g>
				<g>
					<path class="st0" d="M81.3,92.5c-0.2,0-0.4-0.2-0.4-0.4v-2c0-0.2,0.2-0.4,0.4-0.4s0.4,0.2,0.4,0.4v2
						C81.7,92.4,81.5,92.5,81.3,92.5z"/>
				</g>
				<g>
					<path class="st0" d="M83.3,92.5c-0.2,0-0.4-0.2-0.4-0.4v-2c0-0.2,0.2-0.4,0.4-0.4s0.4,0.2,0.4,0.4v2
						C83.7,92.4,83.6,92.5,83.3,92.5z"/>
				</g>
				<g>
					<path class="st0" d="M85.4,92.5c-0.2,0-0.4-0.2-0.4-0.4v-2c0-0.2,0.2-0.4,0.4-0.4s0.4,0.2,0.4,0.4v2
						C85.8,92.4,85.6,92.5,85.4,92.5z"/>
				</g>
				<g>
					<g>
						<path class="st0" d="M95,83.6h-2c-0.2,0-0.4-0.2-0.4-0.4s0.2-0.4,0.4-0.4h2c0.2,0,0.4,0.2,0.4,0.4S95.2,83.6,95,83.6z"/>
					</g>
					<g>
						<path class="st0" d="M87.2,76.8C87.2,76.8,87.2,76.8,87.2,76.8c-0.3,0-0.4-0.2-0.4-0.5l0.3-2c0-0.2,0.2-0.4,0.5-0.3
							c0.2,0,0.4,0.2,0.3,0.5l-0.3,2C87.6,76.6,87.4,76.8,87.2,76.8z"/>
					</g>
					<g>
						<path class="st0" d="M91.9,79.7c-0.1,0-0.2-0.1-0.3-0.2c-0.1-0.2-0.1-0.4,0.1-0.6l1.6-1.2c0.2-0.1,0.4-0.1,0.6,0.1
							c0.1,0.2,0.1,0.4-0.1,0.6l-1.6,1.2C92.1,79.7,92,79.7,91.9,79.7z"/>
					</g>
					<g>
						<path class="st0" d="M92.7,81.6c-0.2,0-0.3-0.1-0.4-0.3c-0.1-0.2,0-0.4,0.3-0.5l1.9-0.6c0.2-0.1,0.4,0,0.5,0.3
							c0.1,0.2,0,0.4-0.3,0.5l-1.9,0.6C92.8,81.6,92.8,81.6,92.7,81.6z"/>
					</g>
					<g>
						<path class="st0" d="M89.1,77.4c0,0-0.1,0-0.1,0c-0.2-0.1-0.3-0.3-0.2-0.5l0.7-1.9c0.1-0.2,0.3-0.3,0.5-0.2
							c0.2,0.1,0.3,0.3,0.2,0.5l-0.7,1.9C89.4,77.3,89.2,77.4,89.1,77.4z"/>
					</g>
					<g>
						<path class="st0" d="M90.7,78.3c-0.1,0-0.2,0-0.3-0.1c-0.2-0.1-0.2-0.4-0.1-0.6l1.3-1.6c0.1-0.2,0.4-0.2,0.6-0.1
							c0.2,0.1,0.2,0.4,0.1,0.6L91,78.2C90.9,78.3,90.8,78.3,90.7,78.3z"/>
					</g>
				</g>
				<g>
					<g>
						<path class="st0" d="M87.6,92.4c-0.2,0-0.4-0.1-0.4-0.3l-0.3-2c0-0.2,0.1-0.4,0.3-0.5c0.2,0,0.4,0.1,0.5,0.3l0.3,2
							C88,92.2,87.9,92.4,87.6,92.4C87.6,92.4,87.6,92.4,87.6,92.4z"/>
					</g>
					<g>
						<path class="st0" d="M93.6,88.7c-0.1,0-0.2,0-0.2-0.1l-1.6-1.2c-0.2-0.1-0.2-0.4-0.1-0.6c0.1-0.2,0.4-0.2,0.6-0.1l1.6,1.2
							c0.2,0.1,0.2,0.4,0.1,0.6C93.8,88.6,93.7,88.7,93.6,88.7z"/>
					</g>
					<g>
						<path class="st0" d="M94.6,86.2c0,0-0.1,0-0.1,0l-1.9-0.6c-0.2-0.1-0.3-0.3-0.3-0.5s0.3-0.3,0.5-0.3l1.9,0.6
							c0.2,0.1,0.3,0.3,0.3,0.5C95,86.1,94.8,86.2,94.6,86.2z"/>
					</g>
					<g>
						<path class="st0" d="M89.8,91.7c-0.2,0-0.3-0.1-0.4-0.3l-0.7-1.9c-0.1-0.2,0-0.4,0.2-0.5c0.2-0.1,0.4,0,0.5,0.2l0.7,1.9
							c0.1,0.2,0,0.4-0.2,0.5C89.9,91.7,89.8,91.7,89.8,91.7z"/>
					</g>
					<g>
						<path class="st0" d="M91.9,90.4c-0.1,0-0.2,0-0.3-0.1l-1.3-1.6c-0.1-0.2-0.1-0.4,0.1-0.6c0.2-0.1,0.4-0.1,0.6,0.1l1.3,1.6
							c0.1,0.2,0.1,0.4-0.1,0.6C92.1,90.4,92,90.4,91.9,90.4z"/>
					</g>
				</g>
				<g>
					<path class="st0" d="M54.7,92.5c-0.2,0-0.4-0.2-0.4-0.4v-2c0-0.2,0.2-0.4,0.4-0.4c0.2,0,0.4,0.2,0.4,0.4v2
						C55.1,92.4,55,92.5,54.7,92.5z"/>
				</g>
				<g>
					<path class="st0" d="M56.8,92.5c-0.2,0-0.4-0.2-0.4-0.4v-2c0-0.2,0.2-0.4,0.4-0.4c0.2,0,0.4,0.2,0.4,0.4v2
						C57.2,92.4,57,92.5,56.8,92.5z"/>
				</g>
				<g>
					<path class="st0" d="M58.8,92.5c-0.2,0-0.4-0.2-0.4-0.4v-2c0-0.2,0.2-0.4,0.4-0.4c0.2,0,0.4,0.2,0.4,0.4v2
						C59.2,92.4,59,92.5,58.8,92.5z"/>
				</g>
				<g>
					<path class="st0" d="M52.7,92.5c-0.2,0-0.4-0.2-0.4-0.4v-2c0-0.2,0.2-0.4,0.4-0.4c0.2,0,0.4,0.2,0.4,0.4v2
						C53.1,92.4,52.9,92.5,52.7,92.5z"/>
				</g>
				<g>
					<path class="st0" d="M50.7,92.5c-0.2,0-0.4-0.2-0.4-0.4v-2c0-0.2,0.2-0.4,0.4-0.4c0.2,0,0.4,0.2,0.4,0.4v2
						C51.1,92.4,50.9,92.5,50.7,92.5z"/>
				</g>
				<g>
					<path class="st0" d="M48.6,92.5c-0.2,0-0.4-0.2-0.4-0.4v-2c0-0.2,0.2-0.4,0.4-0.4c0.2,0,0.4,0.2,0.4,0.4v2
						C49,92.4,48.8,92.5,48.6,92.5z"/>
				</g>
				<g>
					<path class="st0" d="M46.6,92.5c-0.2,0-0.4-0.2-0.4-0.4v-2c0-0.2,0.2-0.4,0.4-0.4s0.4,0.2,0.4,0.4v2
						C47,92.4,46.8,92.5,46.6,92.5z"/>
				</g>
				<g>
					<path class="st0" d="M44.5,92.5c-0.2,0-0.4-0.2-0.4-0.4v-2c0-0.2,0.2-0.4,0.4-0.4c0.2,0,0.4,0.2,0.4,0.4v2
						C44.9,92.4,44.7,92.5,44.5,92.5z"/>
				</g>
				<g>
					<path class="st0" d="M42.5,92.5c-0.2,0-0.4-0.2-0.4-0.4v-2c0-0.2,0.2-0.4,0.4-0.4c0.2,0,0.4,0.2,0.4,0.4v2
						C42.9,92.4,42.7,92.5,42.5,92.5z"/>
				</g>
				<g>
					<path class="st0" d="M40.4,92.5c-0.2,0-0.4-0.2-0.4-0.4v-2c0-0.2,0.2-0.4,0.4-0.4c0.2,0,0.4,0.2,0.4,0.4v2
						C40.8,92.4,40.7,92.5,40.4,92.5z"/>
				</g>
				<g>
					<path class="st0" d="M38.4,92.5c-0.2,0-0.4-0.2-0.4-0.4v-2c0-0.2,0.2-0.4,0.4-0.4s0.4,0.2,0.4,0.4v2
						C38.8,92.4,38.6,92.5,38.4,92.5z"/>
				</g>
				<g>
					<path class="st0" d="M36.4,92.5c-0.2,0-0.4-0.2-0.4-0.4v-2c0-0.2,0.2-0.4,0.4-0.4c0.2,0,0.4,0.2,0.4,0.4v2
						C36.8,92.4,36.6,92.5,36.4,92.5z"/>
				</g>
				<g>
					<path class="st0" d="M34.3,92.5c-0.2,0-0.4-0.2-0.4-0.4v-2c0-0.2,0.2-0.4,0.4-0.4c0.2,0,0.4,0.2,0.4,0.4v2
						C34.7,92.4,34.5,92.5,34.3,92.5z"/>
				</g>
				<g>
					<path class="st0" d="M32.3,92.5c-0.2,0-0.4-0.2-0.4-0.4v-2c0-0.2,0.2-0.4,0.4-0.4c0.2,0,0.4,0.2,0.4,0.4v2
						C32.7,92.4,32.5,92.5,32.3,92.5z"/>
				</g>
				<g>
					<path class="st0" d="M30.2,92.5c-0.2,0-0.4-0.2-0.4-0.4v-2c0-0.2,0.2-0.4,0.4-0.4s0.4,0.2,0.4,0.4v2
						C30.6,92.4,30.5,92.5,30.2,92.5z"/>
				</g>
				<g>
					<path class="st0" d="M60.9,76.5c-0.2,0-0.4-0.2-0.4-0.4v-2c0-0.2,0.2-0.4,0.4-0.4s0.4,0.2,0.4,0.4v2
						C61.3,76.3,61.1,76.5,60.9,76.5z"/>
				</g>
				<g>
					<path class="st0" d="M62.9,76.5c-0.2,0-0.4-0.2-0.4-0.4v-2c0-0.2,0.2-0.4,0.4-0.4c0.2,0,0.4,0.2,0.4,0.4v2
						C63.3,76.3,63.1,76.5,62.9,76.5z"/>
				</g>
				<g>
					<path class="st0" d="M65,76.5c-0.2,0-0.4-0.2-0.4-0.4v-2c0-0.2,0.2-0.4,0.4-0.4c0.2,0,0.4,0.2,0.4,0.4v2
						C65.4,76.3,65.2,76.5,65,76.5z"/>
				</g>
				<g>
					<path class="st0" d="M67,76.5c-0.2,0-0.4-0.2-0.4-0.4v-2c0-0.2,0.2-0.4,0.4-0.4s0.4,0.2,0.4,0.4v2C67.4,76.3,67.2,76.5,67,76.5
						z"/>
				</g>
				<g>
					<path class="st0" d="M69,76.5c-0.2,0-0.4-0.2-0.4-0.4v-2c0-0.2,0.2-0.4,0.4-0.4s0.4,0.2,0.4,0.4v2C69.4,76.3,69.3,76.5,69,76.5
						z"/>
				</g>
				<g>
					<path class="st0" d="M71.1,76.5c-0.2,0-0.4-0.2-0.4-0.4v-2c0-0.2,0.2-0.4,0.4-0.4s0.4,0.2,0.4,0.4v2
						C71.5,76.3,71.3,76.5,71.1,76.5z"/>
				</g>
				<g>
					<path class="st0" d="M73.1,76.5c-0.2,0-0.4-0.2-0.4-0.4v-2c0-0.2,0.2-0.4,0.4-0.4c0.2,0,0.4,0.2,0.4,0.4v2
						C73.5,76.3,73.3,76.5,73.1,76.5z"/>
				</g>
				<g>
					<path class="st0" d="M75.2,76.5c-0.2,0-0.4-0.2-0.4-0.4v-2c0-0.2,0.2-0.4,0.4-0.4s0.4,0.2,0.4,0.4v2
						C75.6,76.3,75.4,76.5,75.2,76.5z"/>
				</g>
				<g>
					<path class="st0" d="M77.2,76.5c-0.2,0-0.4-0.2-0.4-0.4v-2c0-0.2,0.2-0.4,0.4-0.4s0.4,0.2,0.4,0.4v2
						C77.6,76.3,77.4,76.5,77.2,76.5z"/>
				</g>
				<g>
					<path class="st0" d="M79.2,76.5c-0.2,0-0.4-0.2-0.4-0.4v-2c0-0.2,0.2-0.4,0.4-0.4c0.2,0,0.4,0.2,0.4,0.4v2
						C79.6,76.3,79.5,76.5,79.2,76.5z"/>
				</g>
				<g>
					<path class="st0" d="M81.3,76.5c-0.2,0-0.4-0.2-0.4-0.4v-2c0-0.2,0.2-0.4,0.4-0.4s0.4,0.2,0.4,0.4v2
						C81.7,76.3,81.5,76.5,81.3,76.5z"/>
				</g>
				<g>
					<path class="st0" d="M83.3,76.5c-0.2,0-0.4-0.2-0.4-0.4v-2c0-0.2,0.2-0.4,0.4-0.4s0.4,0.2,0.4,0.4v2
						C83.7,76.3,83.6,76.5,83.3,76.5z"/>
				</g>
				<g>
					<path class="st0" d="M85.4,76.5c-0.2,0-0.4-0.2-0.4-0.4v-2c0-0.2,0.2-0.4,0.4-0.4s0.4,0.2,0.4,0.4v2
						C85.8,76.3,85.6,76.5,85.4,76.5z"/>
				</g>
				<g>
					<path class="st0" d="M54.7,76.5c-0.2,0-0.4-0.2-0.4-0.4v-2c0-0.2,0.2-0.4,0.4-0.4c0.2,0,0.4,0.2,0.4,0.4v2
						C55.1,76.3,55,76.5,54.7,76.5z"/>
				</g>
				<g>
					<path class="st0" d="M56.8,76.5c-0.2,0-0.4-0.2-0.4-0.4v-2c0-0.2,0.2-0.4,0.4-0.4c0.2,0,0.4,0.2,0.4,0.4v2
						C57.2,76.3,57,76.5,56.8,76.5z"/>
				</g>
				<g>
					<path class="st0" d="M58.8,76.5c-0.2,0-0.4-0.2-0.4-0.4v-2c0-0.2,0.2-0.4,0.4-0.4c0.2,0,0.4,0.2,0.4,0.4v2
						C59.2,76.3,59,76.5,58.8,76.5z"/>
				</g>
				<g>
					<path class="st0" d="M52.7,76.5c-0.2,0-0.4-0.2-0.4-0.4v-2c0-0.2,0.2-0.4,0.4-0.4c0.2,0,0.4,0.2,0.4,0.4v2
						C53.1,76.3,52.9,76.5,52.7,76.5z"/>
				</g>
				<g>
					<path class="st0" d="M50.7,76.5c-0.2,0-0.4-0.2-0.4-0.4v-2c0-0.2,0.2-0.4,0.4-0.4c0.2,0,0.4,0.2,0.4,0.4v2
						C51.1,76.3,50.9,76.5,50.7,76.5z"/>
				</g>
				<g>
					<path class="st0" d="M48.6,76.5c-0.2,0-0.4-0.2-0.4-0.4v-2c0-0.2,0.2-0.4,0.4-0.4c0.2,0,0.4,0.2,0.4,0.4v2
						C49,76.3,48.8,76.5,48.6,76.5z"/>
				</g>
				<g>
					<path class="st0" d="M46.6,76.5c-0.2,0-0.4-0.2-0.4-0.4v-2c0-0.2,0.2-0.4,0.4-0.4s0.4,0.2,0.4,0.4v2
						C47,76.3,46.8,76.5,46.6,76.5z"/>
				</g>
				<g>
					<path class="st0" d="M44.5,76.5c-0.2,0-0.4-0.2-0.4-0.4v-2c0-0.2,0.2-0.4,0.4-0.4c0.2,0,0.4,0.2,0.4,0.4v2
						C44.9,76.3,44.7,76.5,44.5,76.5z"/>
				</g>
				<g>
					<path class="st0" d="M42.5,76.5c-0.2,0-0.4-0.2-0.4-0.4v-2c0-0.2,0.2-0.4,0.4-0.4c0.2,0,0.4,0.2,0.4,0.4v2
						C42.9,76.3,42.7,76.5,42.5,76.5z"/>
				</g>
				<g>
					<path class="st0" d="M40.4,76.5c-0.2,0-0.4-0.2-0.4-0.4v-2c0-0.2,0.2-0.4,0.4-0.4c0.2,0,0.4,0.2,0.4,0.4v2
						C40.8,76.3,40.7,76.5,40.4,76.5z"/>
				</g>
				<g>
					<path class="st0" d="M38.4,76.5c-0.2,0-0.4-0.2-0.4-0.4v-2c0-0.2,0.2-0.4,0.4-0.4s0.4,0.2,0.4,0.4v2
						C38.8,76.3,38.6,76.5,38.4,76.5z"/>
				</g>
				<g>
					<path class="st0" d="M36.4,76.5c-0.2,0-0.4-0.2-0.4-0.4v-2c0-0.2,0.2-0.4,0.4-0.4c0.2,0,0.4,0.2,0.4,0.4v2
						C36.8,76.3,36.6,76.5,36.4,76.5z"/>
				</g>
				<g>
					<path class="st0" d="M34.3,76.5c-0.2,0-0.4-0.2-0.4-0.4v-2c0-0.2,0.2-0.4,0.4-0.4c0.2,0,0.4,0.2,0.4,0.4v2
						C34.7,76.3,34.5,76.5,34.3,76.5z"/>
				</g>
				<g>
					<path class="st0" d="M32.3,76.5c-0.2,0-0.4-0.2-0.4-0.4v-2c0-0.2,0.2-0.4,0.4-0.4c0.2,0,0.4,0.2,0.4,0.4v2
						C32.7,76.3,32.5,76.5,32.3,76.5z"/>
				</g>
				<g>
					<path class="st0" d="M30.2,76.5c-0.2,0-0.4-0.2-0.4-0.4v-2c0-0.2,0.2-0.4,0.4-0.4s0.4,0.2,0.4,0.4v2
						C30.6,76.3,30.5,76.5,30.2,76.5z"/>
				</g>
				<g>
					<g>
						<path class="st0" d="M22.3,83.6h-2c-0.2,0-0.4-0.2-0.4-0.4s0.2-0.4,0.4-0.4h2c0.2,0,0.4,0.2,0.4,0.4S22.6,83.6,22.3,83.6z"/>
					</g>
					<g>
						<path class="st0" d="M28.1,76.8c-0.2,0-0.4-0.1-0.4-0.3l-0.3-2c0-0.2,0.1-0.4,0.3-0.5c0.2,0,0.4,0.1,0.5,0.3l0.3,2
							C28.5,76.5,28.3,76.7,28.1,76.8C28.1,76.8,28.1,76.8,28.1,76.8z"/>
					</g>
					<g>
						<path class="st0" d="M23.4,79.7c-0.1,0-0.2,0-0.2-0.1l-1.6-1.2c-0.2-0.1-0.2-0.4-0.1-0.6c0.1-0.2,0.4-0.2,0.6-0.1l1.6,1.2
							c0.2,0.1,0.2,0.4,0.1,0.6C23.6,79.6,23.5,79.7,23.4,79.7z"/>
					</g>
					<g>
						<path class="st0" d="M22.6,81.6c0,0-0.1,0-0.1,0L20.5,81c-0.2-0.1-0.3-0.3-0.3-0.5c0.1-0.2,0.3-0.3,0.5-0.3l1.9,0.6
							c0.2,0.1,0.3,0.3,0.3,0.5C22.9,81.5,22.8,81.6,22.6,81.6z"/>
					</g>
					<g>
						<path class="st0" d="M26.2,77.4c-0.2,0-0.3-0.1-0.4-0.3l-0.7-1.9c-0.1-0.2,0-0.4,0.2-0.5c0.2-0.1,0.4,0,0.5,0.2l0.7,1.9
							c0.1,0.2,0,0.4-0.2,0.5C26.3,77.4,26.3,77.4,26.2,77.4z"/>
					</g>
					<g>
						<path class="st0" d="M24.6,78.3c-0.1,0-0.2,0-0.3-0.1l-1.3-1.6c-0.1-0.2-0.1-0.4,0.1-0.6c0.2-0.1,0.4-0.1,0.6,0.1l1.3,1.6
							c0.1,0.2,0.1,0.4-0.1,0.6C24.8,78.3,24.7,78.3,24.6,78.3z"/>
					</g>
				</g>
				<g>
					<g>
						<path class="st0" d="M27.7,92.4C27.7,92.4,27.7,92.4,27.7,92.4c-0.3,0-0.4-0.2-0.4-0.5l0.3-2c0-0.2,0.2-0.4,0.5-0.3
							c0.2,0,0.4,0.2,0.3,0.5l-0.3,2C28.1,92.3,27.9,92.4,27.7,92.4z"/>
					</g>
					<g>
						<path class="st0" d="M21.7,88.7c-0.1,0-0.2-0.1-0.3-0.2c-0.1-0.2-0.1-0.4,0.1-0.6l1.6-1.2c0.2-0.1,0.4-0.1,0.6,0.1
							c0.1,0.2,0.1,0.4-0.1,0.6L22,88.6C21.9,88.7,21.8,88.7,21.7,88.7z"/>
					</g>
					<g>
						<path class="st0" d="M20.7,86.2c-0.2,0-0.3-0.1-0.4-0.3c-0.1-0.2,0-0.4,0.3-0.5l1.9-0.6c0.2-0.1,0.4,0,0.5,0.3
							c0.1,0.2,0,0.4-0.3,0.5l-1.9,0.6C20.8,86.2,20.7,86.2,20.7,86.2z"/>
					</g>
					<g>
						<path class="st0" d="M25.5,91.7c0,0-0.1,0-0.1,0c-0.2-0.1-0.3-0.3-0.2-0.5l0.7-1.9c0.1-0.2,0.3-0.3,0.5-0.2
							c0.2,0.1,0.3,0.3,0.2,0.5l-0.7,1.9C25.8,91.6,25.7,91.7,25.5,91.7z"/>
					</g>
					<g>
						<path class="st0" d="M23.4,90.4c-0.1,0-0.2,0-0.3-0.1c-0.2-0.1-0.2-0.4-0.1-0.6l1.3-1.6c0.1-0.2,0.4-0.2,0.6-0.1
							c0.2,0.1,0.2,0.4,0.1,0.6l-1.3,1.6C23.6,90.4,23.5,90.4,23.4,90.4z"/>
					</g>
				</g>
			</g>
		</g>
		<g>
			<g>
				<g>
					<path class="st0" d="M85.2,88.7c-3,0-5.4-2.4-5.4-5.4c0-3,2.4-5.4,5.4-5.4c3,0,5.4,2.4,5.4,5.4C90.6,86.3,88.2,88.7,85.2,88.7z
						 M85.2,78.7c-2.5,0-4.6,2.1-4.6,4.6c0,2.5,2.1,4.6,4.6,4.6c2.5,0,4.6-2.1,4.6-4.6C89.8,80.7,87.7,78.7,85.2,78.7z"/>
				</g>
				<g>
					<path class="st0" d="M85.2,86.8c-1.9,0-3.5-1.6-3.5-3.5c0-1.9,1.6-3.5,3.5-3.5c1.9,0,3.5,1.6,3.5,3.5
						C88.7,85.2,87.1,86.8,85.2,86.8z M85.2,80.5c-1.5,0-2.7,1.2-2.7,2.7c0,1.5,1.2,2.7,2.7,2.7c1.5,0,2.7-1.2,2.7-2.7
						C87.9,81.8,86.7,80.5,85.2,80.5z"/>
				</g>
			</g>
			<g>
				<g>
					<path class="st0" d="M73.8,88.7c-3,0-5.4-2.4-5.4-5.4c0-3,2.4-5.4,5.4-5.4c3,0,5.4,2.4,5.4,5.4C79.2,86.3,76.8,88.7,73.8,88.7z
						 M73.8,78.7c-2.5,0-4.6,2.1-4.6,4.6c0,2.5,2.1,4.6,4.6,4.6c2.5,0,4.6-2.1,4.6-4.6C78.4,80.7,76.3,78.7,73.8,78.7z"/>
				</g>
				<g>
					<path class="st0" d="M73.8,86.8c-1.9,0-3.5-1.6-3.5-3.5c0-1.9,1.6-3.5,3.5-3.5c1.9,0,3.5,1.6,3.5,3.5
						C77.3,85.2,75.7,86.8,73.8,86.8z M73.8,80.5c-1.5,0-2.7,1.2-2.7,2.7c0,1.5,1.2,2.7,2.7,2.7c1.5,0,2.7-1.2,2.7-2.7
						C76.5,81.8,75.3,80.5,73.8,80.5z"/>
				</g>
			</g>
			<g>
				<g>
					<path class="st0" d="M62.4,88.7c-3,0-5.4-2.4-5.4-5.4c0-3,2.4-5.4,5.4-5.4s5.4,2.4,5.4,5.4C67.8,86.3,65.3,88.7,62.4,88.7z
						 M62.4,78.7c-2.5,0-4.6,2.1-4.6,4.6c0,2.5,2.1,4.6,4.6,4.6c2.5,0,4.6-2.1,4.6-4.6C67,80.7,64.9,78.7,62.4,78.7z"/>
				</g>
				<g>
					<path class="st0" d="M62.4,86.8c-1.9,0-3.5-1.6-3.5-3.5c0-1.9,1.6-3.5,3.5-3.5c1.9,0,3.5,1.6,3.5,3.5
						C65.9,85.2,64.3,86.8,62.4,86.8z M62.4,80.5c-1.5,0-2.7,1.2-2.7,2.7c0,1.5,1.2,2.7,2.7,2.7c1.5,0,2.7-1.2,2.7-2.7
						C65.1,81.8,63.9,80.5,62.4,80.5z"/>
				</g>
			</g>
			<g>
				<g>
					<path class="st0" d="M50.9,88.7c-3,0-5.4-2.4-5.4-5.4c0-3,2.4-5.4,5.4-5.4c3,0,5.4,2.4,5.4,5.4C56.3,86.3,53.9,88.7,50.9,88.7z
						 M50.9,78.7c-2.5,0-4.6,2.1-4.6,4.6c0,2.5,2.1,4.6,4.6,4.6s4.6-2.1,4.6-4.6C55.5,80.7,53.5,78.7,50.9,78.7z"/>
				</g>
				<g>
					<path class="st0" d="M50.9,86.8c-1.9,0-3.5-1.6-3.5-3.5c0-1.9,1.6-3.5,3.5-3.5c1.9,0,3.5,1.6,3.5,3.5
						C54.5,85.2,52.9,86.8,50.9,86.8z M50.9,80.5c-1.5,0-2.7,1.2-2.7,2.7c0,1.5,1.2,2.7,2.7,2.7c1.5,0,2.7-1.2,2.7-2.7
						C53.7,81.8,52.4,80.5,50.9,80.5z"/>
				</g>
			</g>
			<g>
				<g>
					<path class="st0" d="M39.5,88.7c-3,0-5.4-2.4-5.4-5.4c0-3,2.4-5.4,5.4-5.4c3,0,5.4,2.4,5.4,5.4C44.9,86.3,42.5,88.7,39.5,88.7z
						 M39.5,78.7c-2.5,0-4.6,2.1-4.6,4.6c0,2.5,2.1,4.6,4.6,4.6s4.6-2.1,4.6-4.6C44.1,80.7,42.1,78.7,39.5,78.7z"/>
				</g>
				<g>
					<path class="st0" d="M39.5,86.8c-1.9,0-3.5-1.6-3.5-3.5c0-1.9,1.6-3.5,3.5-3.5c1.9,0,3.5,1.6,3.5,3.5
						C43,85.2,41.5,86.8,39.5,86.8z M39.5,80.5c-1.5,0-2.7,1.2-2.7,2.7c0,1.5,1.2,2.7,2.7,2.7c1.5,0,2.7-1.2,2.7-2.7
						C42.2,81.8,41,80.5,39.5,80.5z"/>
				</g>
			</g>
			<g>
				<path class="st0" d="M30.6,86.6c-0.1,0-0.3-0.1-0.3-0.2l-0.7-1.2c-0.2,0-0.4,0-0.6,0l-0.7,1.2c-0.1,0.2-0.3,0.2-0.5,0.2
					c-0.2-0.1-0.4-0.1-0.6-0.2c-0.2-0.1-0.3-0.3-0.2-0.5l0.3-1.3c-0.1-0.1-0.3-0.3-0.4-0.4l-1.3,0.3c-0.2,0-0.4,0-0.5-0.2
					c-0.1-0.2-0.2-0.4-0.2-0.6c-0.1-0.2,0-0.4,0.2-0.5l1.2-0.7c0-0.1,0-0.2,0-0.3c0-0.1,0-0.2,0-0.3L25,81.2
					c-0.2-0.1-0.2-0.3-0.2-0.5c0.1-0.2,0.1-0.4,0.2-0.6c0.1-0.2,0.3-0.3,0.5-0.2l1.3,0.3c0.1-0.2,0.3-0.3,0.4-0.4l-0.3-1.3
					c0-0.2,0-0.4,0.2-0.5c0.2-0.1,0.4-0.2,0.6-0.2c0.2-0.1,0.4,0,0.5,0.2l0.7,1.2c0.2,0,0.4,0,0.6,0l0.7-1.2
					c0.1-0.2,0.3-0.2,0.5-0.2c0.2,0.1,0.4,0.1,0.6,0.2c0.2,0.1,0.3,0.3,0.2,0.5l-0.3,1.3c0.2,0.1,0.3,0.3,0.4,0.4l1.3-0.3
					c0.2,0,0.4,0,0.5,0.2c0.1,0.2,0.2,0.4,0.2,0.6c0.1,0.2,0,0.4-0.2,0.5L32.2,82c0,0.1,0,0.2,0,0.3c0,0.1,0,0.2,0,0.3l1.2,0.7
					c0.2,0.1,0.2,0.3,0.2,0.5c-0.1,0.2-0.1,0.4-0.2,0.6c-0.1,0.2-0.3,0.3-0.5,0.2l-1.3-0.3c-0.1,0.2-0.3,0.3-0.4,0.4l0.3,1.3
					c0,0.2,0,0.4-0.2,0.5c-0.2,0.1-0.4,0.2-0.6,0.2C30.6,86.6,30.6,86.6,30.6,86.6z M27,83.3c0.1,0,0.3,0.1,0.3,0.2
					c0.2,0.2,0.4,0.4,0.6,0.6c0.1,0.1,0.2,0.3,0.2,0.4l-0.2,0.9l0.5-0.8c0.1-0.1,0.2-0.2,0.4-0.2c0.3,0,0.6,0,0.8,0
					c0.2,0,0.3,0,0.4,0.2l0.5,0.8l-0.2-0.9c0-0.2,0-0.3,0.2-0.4c0.2-0.2,0.4-0.4,0.6-0.6c0.1-0.1,0.3-0.2,0.4-0.2l0.9,0.2l-0.8-0.5
					c-0.1-0.1-0.2-0.3-0.2-0.4c0-0.1,0-0.3,0-0.4c0-0.1,0-0.3,0-0.4c0-0.2,0-0.3,0.2-0.4l0.8-0.5l-0.9,0.2c-0.2,0-0.3,0-0.4-0.2
					c-0.2-0.2-0.4-0.4-0.6-0.6c-0.1-0.1-0.2-0.3-0.2-0.4l0.2-0.9L30,79.9C30,80,29.8,80.1,29.6,80c-0.3-0.1-0.6-0.1-0.8,0
					c-0.2,0-0.3,0-0.4-0.2l-0.5-0.8l0.2,0.9c0,0.2,0,0.3-0.2,0.4c-0.2,0.2-0.4,0.4-0.6,0.6c-0.1,0.1-0.3,0.2-0.4,0.2l-0.9-0.2
					l0.8,0.5c0.1,0.1,0.2,0.3,0.2,0.4c0,0.1,0,0.3,0,0.4c0,0.1,0,0.3,0,0.4c0,0.2,0,0.3-0.2,0.4l-0.8,0.5L27,83.3
					C27,83.3,27,83.3,27,83.3z"/>
			</g>
		</g>
		<g>
			<path class="st0" d="M96.8,82.4c-0.1,0-0.2,0-0.2-0.1c-0.1-0.1-0.1-0.2-0.2-0.3L96,78.5c0-0.1,0-0.2,0.1-0.3
				c0.1-0.1,0.2-0.1,0.3-0.2l11.9-1.5c0.2,0,0.4,0.1,0.4,0.3c0,0.2-0.1,0.4-0.3,0.4l-11.5,1.5l0.3,2.7l11.9-1.6
				c0.2,0,0.4,0.1,0.5,0.3c0,0.2-0.1,0.4-0.3,0.5L96.8,82.4C96.9,82.4,96.8,82.4,96.8,82.4z"/>
		</g>
		<g>
			<path class="st0" d="M103.8,42.6c-0.4,0-0.8-0.1-1.2-0.2c-0.8-0.3-1.4-0.9-1.8-1.6c-0.1-0.2,0-0.4,0.2-0.5c0.2-0.1,0.4,0,0.5,0.2
				c0.3,0.6,0.8,1,1.4,1.2c0.6,0.2,1.3,0.2,2-0.1c0.6-0.3,1.1-0.8,1.3-1.4c0.1-0.3,0.2-0.7,0.2-1c0-1-0.7-1.9-1.7-2.3
				c-0.9-0.3-1.9-0.2-2.6,0.5c-0.2,0.1-0.4,0.1-0.6,0c-0.1-0.2-0.1-0.4,0-0.6c0.9-0.8,2.3-1.1,3.4-0.6c1.3,0.5,2.1,1.7,2.2,3
				c0,0.5,0,0.9-0.2,1.3c-0.3,0.8-0.9,1.5-1.8,1.9C104.7,42.5,104.2,42.6,103.8,42.6z"/>
		</g>
		<g>
			<path class="st0" d="M110.8,41.5c-1.3,0-2-1-2.3-1.8l-1.7,0.1c-0.3,0-0.4-0.2-0.4-0.4c0-0.2,0.2-0.4,0.4-0.4l2-0.1
				c0.2,0,0.4,0.1,0.4,0.3c0,0.1,0.4,1.5,1.6,1.5c0,0,0,0,0,0c0.8,0,1.2-0.4,1.4-0.7c0.3-0.5,0.4-1.2,0.2-1.7
				c-0.5-1.3-1.9-1.1-1.9-1.1c-0.2,0-0.4-0.1-0.4-0.4c0-0.2,0.1-0.4,0.4-0.4c0.7-0.1,2.2,0.2,2.8,1.6c0.3,0.7,0.2,1.7-0.3,2.4
				C112.4,41.1,111.7,41.5,110.8,41.5C110.8,41.5,110.8,41.5,110.8,41.5z"/>
		</g>
		<g>
			<path class="st0" d="M37.7,48.2c-0.2,0-0.3-0.1-0.4-0.2c-0.1-0.1,0-0.3,0.1-0.4l9.3-10.4C46.8,37,46.9,37,47,37l46-3.1
				c0.1,0,0.1,0,0.2,0l10.6,3.5c0.1,0,0.2,0.1,0.2,0.2c0,0.1,0.7,1.4,0.1,2.4c-0.3,0.6-1,0.9-2,1c0,0-0.1,0-0.1,0l-9.8-2.8
				l-37.7,5.5L51.8,47c-0.1,0.1-0.2,0.1-0.3,0.2L37.7,48.2C37.7,48.2,37.7,48.2,37.7,48.2z M47.2,37.8l-8.5,9.5l12.6-0.9l2.6-3.3
				C53.9,43,54,43,54.1,43l38-5.5c0.1,0,0.1,0,0.2,0l9.8,2.8c0.6-0.1,1.1-0.3,1.3-0.6c0.3-0.5,0.1-1.2,0-1.5l-10.4-3.5L47.2,37.8z"
				/>
		</g>
		<g>
			<path class="st0" d="M39.2,66.3c-0.1,0-0.2,0-0.3-0.1L33.6,60c-0.1-0.1-0.1-0.2-0.1-0.3c0-0.4,0-9.1,0.2-10.2
				c0.2-1.4,1.4-1.8,1.4-1.8c0,0,0.1,0,0.1,0c0.1,0,12-1,15.9-1.3c2.8-0.2,3.1,1.6,3.1,1.6l0,12c0,0.2-0.2,0.4-0.4,0.4
				c-0.2,0-0.4-0.2-0.4-0.4V48.1l0,0c0,0-0.2-1.1-2.3-0.9c-3.8,0.3-15,1.2-15.9,1.3c-0.1,0.1-0.7,0.3-0.8,1.1
				c-0.1,0.8-0.2,6.8-0.2,9.9l5.2,6.1c0.1,0.2,0.1,0.4,0,0.6C39.4,66.3,39.3,66.3,39.2,66.3z"/>
		</g>
		<g>
			<g>
				<g>
					<path class="st0" d="M45.7,72H28.4c-0.2,0-0.4-0.2-0.4-0.4v-1.8c0-0.2,0.2-0.4,0.4-0.4h17.5c0.2,0,0.4,0.2,0.4,0.4
						s-0.2,0.4-0.4,0.4H28.8v1h16.9c0.2,0,0.4,0.2,0.4,0.4C46.1,71.8,45.9,72,45.7,72z"/>
				</g>
				<g>
					<path class="st0" d="M30.4,70.1c-0.2,0-0.4-0.2-0.4-0.4v-2.1c0-0.2,0.1-0.4,0.3-0.4l19.1-4.1c0.2,0,0.4,0.1,0.5,0.3
						c0,0.2-0.1,0.4-0.3,0.5l-18.8,4v1.8C30.8,69.9,30.6,70.1,30.4,70.1z"/>
				</g>
				<g>
					<path class="st1" d="M53,66.3"/>
				</g>
				<g>
					<path class="st0" d="M39.2,70.1c-0.2,0-0.4-0.2-0.4-0.4v-3.8c0-0.2,0.2-0.4,0.4-0.4c0.2,0,0.4,0.2,0.4,0.4v3.8
						C39.6,69.9,39.4,70.1,39.2,70.1z"/>
				</g>
				<g>
					<path class="st0" d="M57.6,58.8c-0.2,0-0.4-0.2-0.4-0.4v-7.7c0-0.1,0-0.2,0.1-0.3l2.7-2.4c0.1-0.1,0.3-0.1,0.4-0.1
						c0.1,0.1,0.2,0.2,0.2,0.4v9.4c0,0.2-0.2,0.4-0.4,0.4c-0.2,0-0.4-0.2-0.4-0.4v-8.5L58,50.8v7.5C58,58.6,57.9,58.8,57.6,58.8z"/>
				</g>
				<g>
					<path class="st0" d="M31.3,59.9c-0.2,0-0.5-0.1-0.7-0.3c-0.2-0.2-0.4-0.5-0.5-0.9c-0.3-0.8-0.1-1.6,0.5-1.7
						c0.5-0.2,1.1,0.3,1.4,1.2c0.3,0.8,0.1,1.6-0.5,1.7C31.5,59.9,31.4,59.9,31.3,59.9z M30.9,57.8c0,0.1-0.1,0.4,0,0.7
						c0.1,0.3,0.3,0.5,0.4,0.6c0-0.1,0.1-0.4,0-0.7v0C31.1,58,31,57.8,30.9,57.8z"/>
				</g>
				<g>
					<path class="st0" d="M45.6,72c-0.1,0-0.2-0.1-0.3-0.1c-0.1-0.1-0.1-0.2-0.1-0.3c0-0.1,2.5-13.3,16-13.9c0.1,0,0.2,0,0.3,0.1
						c0.1,0.1,0.1,0.2,0.1,0.3c-0.4,3-0.9,11.3,1.1,13.2c0.1,0.1,0.2,0.3,0.1,0.4c-0.1,0.2-0.2,0.3-0.4,0.3L45.6,72
						C45.6,72,45.6,72,45.6,72z M60.8,58.4c-11.2,0.8-14.1,10.5-14.7,12.8l15.5-0.1C59.8,68.1,60.5,60.4,60.8,58.4z"/>
				</g>
				<g>
					<path class="st0" d="M58.3,69.4C58.3,69.4,58.3,69.4,58.3,69.4l-9.8-1c-0.2,0-0.4-0.2-0.4-0.4c0-0.2,0.2-0.4,0.4-0.4l9.8,1
						c0.2,0,0.4,0.2,0.4,0.4C58.7,69.2,58.5,69.4,58.3,69.4z"/>
				</g>
				<g>
					<path class="st0" d="M58.3,67.2c0,0-0.1,0-0.1,0l-6.7-2.4c-0.2-0.1-0.3-0.3-0.2-0.5c0.1-0.2,0.3-0.3,0.5-0.2l6.7,2.4
						c0.2,0.1,0.3,0.3,0.2,0.5C58.6,67.1,58.5,67.2,58.3,67.2z"/>
				</g>
				<g>
					<path class="st0" d="M58.7,65.1c-0.1,0-0.2,0-0.2-0.1l-3.2-2.5c-0.2-0.1-0.2-0.4-0.1-0.6c0.1-0.2,0.4-0.2,0.6-0.1l3.2,2.5
						c0.2,0.1,0.2,0.4,0.1,0.6C58.9,65.1,58.8,65.1,58.7,65.1z"/>
				</g>
				<g>
					<path class="st0" d="M36,70.1c-0.2,0-0.3-0.1-0.4-0.2l-4.3-10.3c-0.1-0.2,0-0.4,0.2-0.5c0.2-0.1,0.4,0,0.5,0.2l4.3,10.3
						c0.1,0.2,0,0.4-0.2,0.5C36.1,70.1,36.1,70.1,36,70.1z"/>
				</g>
			</g>
			<g>
				<g>
					<g>
						<path class="st0" d="M80.7,48.6C80.7,48.6,80.7,48.6,80.7,48.6c-0.2,0-0.4-0.2-0.4-0.4l0-2.3c0-0.5-0.4-0.9-0.9-0.9
							c-0.2,0-0.5,0.1-0.6,0.3c-0.2,0.2-0.3,0.4-0.3,0.6l0,2.1c0,0.2-0.2,0.4-0.4,0.4c0,0,0,0,0,0c-0.2,0-0.4-0.2-0.4-0.4l0-2.1
							c0-0.4,0.2-0.9,0.5-1.2c0.3-0.3,0.7-0.5,1.2-0.5c0,0,0,0,0,0c0.9,0,1.7,0.8,1.7,1.7l0,2.3C81.1,48.4,80.9,48.6,80.7,48.6z"/>
					</g>
				</g>
				<g>
					<path class="st0" d="M81.9,72.5c-7.4,0-17.3-0.5-18.7-3.1c-1.7-3.2,0.5-21.1,0.6-21.9c0-0.2,0.2-0.4,0.4-0.4
						c1.7,0,16.6,0.1,18.6,1.2c6.8,3.6,7.2,22.7,7.3,23.5c0,0.2-0.2,0.4-0.4,0.4C88.9,72.3,85.8,72.5,81.9,72.5z M64.6,48
						C64,53.4,62.7,66.6,64,69c1.3,2.6,15.7,2.9,25.4,2.5c-0.1-2.8-0.9-19.3-6.8-22.4C81,48.3,69.4,48,64.6,48z"/>
				</g>
				<g>
					<path class="st0" d="M80.3,68.9C80.3,68.9,80.3,68.9,80.3,68.9c-1.2-0.1-11.4-1.2-12.9-3.5c-2.1-3.2,0.1-14.6,0.2-15
						c0-0.2,0.2-0.3,0.4-0.3c0,0,0,0,0,0c2,0,11.9,0.1,13.2,1c5.2,3.4,5.9,15.5,5.9,16c0,0.1,0,0.2-0.1,0.3
						c-0.1,0.1-0.2,0.1-0.3,0.1l-5.3-0.6l-0.6,1.8C80.7,68.8,80.5,68.9,80.3,68.9z M68.3,50.8c-0.3,1.9-2,11.5-0.2,14.1
						c1,1.5,7.6,2.7,12,3.1l0.6-1.8c0.1-0.2,0.2-0.3,0.4-0.3l5.2,0.6c-0.2-2.3-1.2-12.2-5.5-14.9C79.9,51.1,72.8,50.9,68.3,50.8z"/>
				</g>
				<g>
					<path class="st0" d="M66.2,47.8C66.2,47.8,66.2,47.8,66.2,47.8c-0.2,0-0.4-0.2-0.4-0.4l0-1.5c0-0.2,0.2-0.4,0.4-0.4
						c0,0,0,0,0,0c0.2,0,0.4,0.2,0.4,0.4l0,1.5C66.6,47.7,66.4,47.8,66.2,47.8z"/>
				</g>
				<g>
					<path class="st0" d="M66.2,46.4C66.2,46.4,66.2,46.4,66.2,46.4c-0.3,0-0.6-0.2-0.7-0.5c-0.1-0.3-0.2-0.6-0.2-0.9
						c0-0.9,0.4-1.5,0.9-1.5c0,0,0,0,0,0c0.5,0,0.9,0.6,0.9,1.5l0,0c0,0.5-0.2,1-0.4,1.2C66.6,46.3,66.4,46.4,66.2,46.4z M66.3,45.6
						L66.3,45.6L66.3,45.6z M66.2,44.3c-0.1,0.1-0.1,0.3-0.1,0.6c0,0.3,0.1,0.5,0.1,0.6c0.1-0.1,0.1-0.3,0.1-0.6c0,0,0,0,0,0
						C66.4,44.6,66.3,44.4,66.2,44.3z"/>
				</g>
				<g>
					<path class="st0" d="M92.2,60.1h-2.1c-0.2,0-0.4-0.2-0.4-0.4v-8.6c0-0.2,0.2-0.4,0.4-0.4h2.1c0.2,0,0.4,0.2,0.4,0.4v8.6
						C92.6,59.9,92.5,60.1,92.2,60.1z M90.6,59.3h1.3v-7.8h-1.3V59.3z"/>
				</g>
				<g>
					<path class="st0" d="M86.3,63.6c-0.1,0-0.3-0.1-0.4-0.2c-0.1-0.2,0-0.4,0.2-0.5l3.7-1.8V50.8c-0.1-0.5-3-1.1-6.3-1.1h0
						c-0.2,0-0.4-0.2-0.4-0.4c0-0.2,0.2-0.4,0.4-0.4c1.6,0,6.7,0.1,7,1.8l0,10.6c0,0.2-0.1,0.3-0.2,0.4l-3.9,1.9
						C86.4,63.6,86.4,63.6,86.3,63.6z"/>
				</g>
			</g>
		</g>
	</g>
	<g>
		<g>
			<g>
				<path class="st2" d="M60.9,15.3c-0.2,0-0.4-0.2-0.4-0.4V0.4c0-0.2,0.2-0.4,0.4-0.4s0.4,0.2,0.4,0.4v14.5
					C61.3,15.1,61.1,15.3,60.9,15.3z"/>
			</g>
			<g>
				<path class="st2" d="M60.9,126.4c-0.2,0-0.4-0.2-0.4-0.4v-14.5c0-0.2,0.2-0.4,0.4-0.4s0.4,0.2,0.4,0.4V126
					C61.3,126.2,61.1,126.4,60.9,126.4z"/>
			</g>
		</g>
		<g>
			<g>
				<path class="st2" d="M17,26c-0.1,0-0.2,0-0.3-0.1L5.1,15.6c-0.2-0.1-0.2-0.4,0-0.6c0.1-0.2,0.4-0.2,0.6,0l11.7,10.2
					c0.2,0.1,0.2,0.4,0,0.6C17.3,25.9,17.2,26,17,26z"/>
			</g>
			<g>
				<path class="st2" d="M116.4,112.8c-0.1,0-0.2,0-0.3-0.1l-11.7-10.2c-0.2-0.1-0.2-0.4,0-0.6c0.1-0.2,0.4-0.2,0.6,0l11.7,10.2
					c0.2,0.1,0.2,0.4,0,0.6C116.7,112.8,116.5,112.8,116.4,112.8z"/>
			</g>
		</g>
		<g>
			<g>
				<path class="st2" d="M104.7,26c-0.1,0-0.2,0-0.3-0.1c-0.1-0.2-0.1-0.4,0-0.6L116.2,15c0.2-0.1,0.4-0.1,0.6,0
					c0.1,0.2,0.1,0.4,0,0.6L105,25.9C104.9,25.9,104.8,26,104.7,26z"/>
			</g>
			<g>
				<path class="st2" d="M5.3,112.8c-0.1,0-0.2,0-0.3-0.1c-0.1-0.2-0.1-0.4,0-0.6l11.7-10.2c0.2-0.1,0.4-0.1,0.6,0
					c0.1,0.2,0.1,0.4,0,0.6L5.6,112.7C5.5,112.8,5.4,112.8,5.3,112.8z"/>
			</g>
		</g>
	</g>
</g>
</svg>
