<?xml version="1.0" encoding="utf-8"?>
<!-- Generator: Adobe Illustrator 22.0.0, SVG Export Plug-In . SVG Version: 6.00 Build 0)  -->
<svg version="1.1" id="Layer_1" xmlns="http://www.w3.org/2000/svg" xmlns:xlink="http://www.w3.org/1999/xlink" x="0px" y="0px"
	 width="80.3px" height="56.8px" viewBox="0 0 80.3 56.8" style="enable-background:new 0 0 80.3 56.8;" xml:space="preserve">
<style type="text/css">
	.st0{fill:#8C734B;}
</style>
<g>
	<g>
		<polygon class="st0" points="79.9,33.3 38,33.3 38,32.5 79.5,32.5 79.5,24.3 71.7,24.3 71.7,27.1 71.3,27.5 67.3,27.5 66.9,27.1 
			66.9,24.3 63.8,24.3 63.8,25.7 63.4,26.1 60.4,26.1 60,25.7 60,24.3 56.6,24.3 56.6,26.4 56.2,26.8 52.2,26.8 51.8,26.4 
			51.8,24.3 38,24.3 38,23.5 52.2,23.5 52.6,23.9 52.6,26 55.8,26 55.8,23.9 56.2,23.5 60.4,23.5 60.8,23.9 60.8,25.3 63,25.3 
			63,23.9 63.4,23.5 67.3,23.5 67.7,23.9 67.7,26.7 70.9,26.7 70.9,23.9 71.3,23.5 79.9,23.5 80.3,23.9 80.3,32.9 		"/>
	</g>
	<g>
		<path class="st0" d="M38,56.8h-27l-0.4-0.4v-5.7l-10.5-5L0,45.4V11.4l0.2-0.4l10.5-5V0.4L11.1,0h27l0.4,0.4v56L38,56.8z M11.5,56
			h26.2V0.8H11.5v5.5l-0.2,0.4l-10.5,5v33.4l10.5,5l0.2,0.4V56z"/>
	</g>
	<g>
		<path class="st0" d="M11.1,41.8H4.8l-0.4-0.4V15.4L4.8,15h6.3l0.4,0.4v26.1L11.1,41.8z M5.2,41h5.5V15.8H5.2V41z"/>
	</g>
</g>
</svg>
