<?xml version="1.0" encoding="utf-8"?>
<!-- Generator: Adobe Illustrator 22.0.1, SVG Export Plug-In . SVG Version: 6.00 Build 0)  -->
<svg version="1.1" id="Layer_1" xmlns="http://www.w3.org/2000/svg" xmlns:xlink="http://www.w3.org/1999/xlink" x="0px" y="0px"
	 width="305.5px" height="48.5px" viewBox="0 0 305.5 48.5" style="enable-background:new 0 0 305.5 48.5;" xml:space="preserve">
<style type="text/css">
	.st0{fill:none;stroke:#CEAF5B;stroke-linecap:round;stroke-linejoin:round;stroke-miterlimit:10;}
</style>
<g>
	<g>
		<g>
			<path class="st0" d="M274.9,39.1c0,3.1-2.6,5.7-5.7,5.7h-46c-3.1,0-5.7-2.6-5.7-5.7l0,0c0-3.1,2.6-5.7,5.7-5.7h46
				C272.3,33.4,274.9,36,274.9,39.1L274.9,39.1z"/>
			<g>
				<line class="st0" x1="248.7" y1="44.8" x2="248.7" y2="46.4"/>
				<line class="st0" x1="250.4" y1="44.8" x2="250.4" y2="46.4"/>
				<line class="st0" x1="252" y1="44.8" x2="252" y2="46.4"/>
				<line class="st0" x1="253.7" y1="44.8" x2="253.7" y2="46.4"/>
				<line class="st0" x1="255.4" y1="44.8" x2="255.4" y2="46.4"/>
				<line class="st0" x1="257.1" y1="44.8" x2="257.1" y2="46.4"/>
				<line class="st0" x1="258.7" y1="44.8" x2="258.7" y2="46.4"/>
				<line class="st0" x1="260.3" y1="44.8" x2="260.3" y2="46.4"/>
				<line class="st0" x1="262" y1="44.8" x2="262" y2="46.4"/>
				<line class="st0" x1="263.7" y1="44.8" x2="263.7" y2="46.4"/>
				<line class="st0" x1="265.4" y1="44.8" x2="265.4" y2="46.4"/>
				<line class="st0" x1="267" y1="44.8" x2="267" y2="46.4"/>
				<line class="st0" x1="268.7" y1="44.8" x2="268.7" y2="46.4"/>
				<g>
					<line class="st0" x1="276.5" y1="39.1" x2="274.9" y2="39.1"/>
					<line class="st0" x1="270.5" y1="31.9" x2="270.2" y2="33.5"/>
					<line class="st0" x1="275.4" y1="34.9" x2="274" y2="35.9"/>
					<line class="st0" x1="276.3" y1="37" x2="274.7" y2="37.5"/>
					<line class="st0" x1="272.3" y1="32.4" x2="271.7" y2="34"/>
					<line class="st0" x1="274" y1="33.5" x2="273" y2="34.8"/>
				</g>
				<g>
					<line class="st0" x1="270.5" y1="46.3" x2="270.2" y2="44.7"/>
					<line class="st0" x1="275.4" y1="43.2" x2="274" y2="42.3"/>
					<line class="st0" x1="276.3" y1="41.2" x2="274.7" y2="40.7"/>
					<line class="st0" x1="272.3" y1="45.6" x2="271.7" y2="44.1"/>
					<line class="st0" x1="274" y1="44.7" x2="273" y2="43.4"/>
				</g>
				<line class="st0" x1="243.7" y1="44.8" x2="243.7" y2="46.4"/>
				<line class="st0" x1="245.4" y1="44.8" x2="245.4" y2="46.4"/>
				<line class="st0" x1="247.1" y1="44.8" x2="247.1" y2="46.4"/>
				<line class="st0" x1="242.1" y1="44.8" x2="242.1" y2="46.4"/>
				<line class="st0" x1="240.4" y1="44.8" x2="240.4" y2="46.4"/>
				<line class="st0" x1="238.7" y1="44.8" x2="238.7" y2="46.4"/>
				<line class="st0" x1="237.1" y1="44.8" x2="237.1" y2="46.4"/>
				<line class="st0" x1="235.5" y1="44.8" x2="235.5" y2="46.4"/>
				<line class="st0" x1="233.8" y1="44.8" x2="233.8" y2="46.4"/>
				<line class="st0" x1="232.1" y1="44.8" x2="232.1" y2="46.4"/>
				<line class="st0" x1="230.4" y1="44.8" x2="230.4" y2="46.4"/>
				<line class="st0" x1="228.7" y1="44.8" x2="228.7" y2="46.4"/>
				<line class="st0" x1="227.1" y1="44.8" x2="227.1" y2="46.4"/>
				<line class="st0" x1="225.5" y1="44.8" x2="225.5" y2="46.4"/>
				<line class="st0" x1="223.8" y1="44.8" x2="223.8" y2="46.4"/>
				<line class="st0" x1="248.7" y1="31.6" x2="248.7" y2="33.3"/>
				<line class="st0" x1="250.4" y1="31.6" x2="250.4" y2="33.3"/>
				<line class="st0" x1="252" y1="31.6" x2="252" y2="33.3"/>
				<line class="st0" x1="253.7" y1="31.6" x2="253.7" y2="33.3"/>
				<line class="st0" x1="255.4" y1="31.6" x2="255.4" y2="33.3"/>
				<line class="st0" x1="257.1" y1="31.6" x2="257.1" y2="33.3"/>
				<line class="st0" x1="258.7" y1="31.6" x2="258.7" y2="33.3"/>
				<line class="st0" x1="260.3" y1="31.6" x2="260.3" y2="33.3"/>
				<line class="st0" x1="262" y1="31.6" x2="262" y2="33.3"/>
				<line class="st0" x1="263.7" y1="31.6" x2="263.7" y2="33.3"/>
				<line class="st0" x1="265.4" y1="31.6" x2="265.4" y2="33.3"/>
				<line class="st0" x1="267" y1="31.6" x2="267" y2="33.3"/>
				<line class="st0" x1="268.7" y1="31.6" x2="268.7" y2="33.3"/>
				<line class="st0" x1="243.7" y1="31.6" x2="243.7" y2="33.3"/>
				<line class="st0" x1="245.4" y1="31.6" x2="245.4" y2="33.3"/>
				<line class="st0" x1="247.1" y1="31.6" x2="247.1" y2="33.3"/>
				<line class="st0" x1="242.1" y1="31.6" x2="242.1" y2="33.3"/>
				<line class="st0" x1="240.4" y1="31.6" x2="240.4" y2="33.3"/>
				<line class="st0" x1="238.7" y1="31.6" x2="238.7" y2="33.3"/>
				<line class="st0" x1="237.1" y1="31.6" x2="237.1" y2="33.3"/>
				<line class="st0" x1="235.5" y1="31.6" x2="235.5" y2="33.3"/>
				<line class="st0" x1="233.8" y1="31.6" x2="233.8" y2="33.3"/>
				<line class="st0" x1="232.1" y1="31.6" x2="232.1" y2="33.3"/>
				<line class="st0" x1="230.4" y1="31.6" x2="230.4" y2="33.3"/>
				<line class="st0" x1="228.7" y1="31.6" x2="228.7" y2="33.3"/>
				<line class="st0" x1="227.1" y1="31.6" x2="227.1" y2="33.3"/>
				<line class="st0" x1="225.5" y1="31.6" x2="225.5" y2="33.3"/>
				<line class="st0" x1="223.8" y1="31.6" x2="223.8" y2="33.3"/>
				<g>
					<line class="st0" x1="215.7" y1="39.1" x2="217.4" y2="39.1"/>
					<line class="st0" x1="221.8" y1="31.9" x2="222" y2="33.5"/>
					<line class="st0" x1="216.9" y1="34.9" x2="218.2" y2="35.9"/>
					<line class="st0" x1="216" y1="37" x2="217.5" y2="37.5"/>
					<line class="st0" x1="219.9" y1="32.4" x2="220.5" y2="34"/>
					<line class="st0" x1="218.2" y1="33.5" x2="219.2" y2="34.8"/>
				</g>
				<g>
					<line class="st0" x1="221.8" y1="46.3" x2="222" y2="44.7"/>
					<line class="st0" x1="216.9" y1="43.2" x2="218.2" y2="42.3"/>
					<line class="st0" x1="216" y1="41.2" x2="217.5" y2="40.7"/>
					<line class="st0" x1="219.9" y1="45.6" x2="220.5" y2="44.1"/>
					<line class="st0" x1="218.2" y1="44.7" x2="219.2" y2="43.4"/>
				</g>
			</g>
		</g>
		<g>
			<g>
				<path class="st0" d="M272.6,39.2c0,2.2-1.8,4.1-4.1,4.1c-2.2,0-4.1-1.8-4.1-4.1c0-2.2,1.8-4.1,4.1-4.1
					C270.8,35.1,272.6,36.9,272.6,39.2z"/>
				<path class="st0" d="M271.1,39.2c0,1.4-1.1,2.6-2.6,2.6s-2.6-1.1-2.6-2.6c0-1.4,1.1-2.6,2.6-2.6S271.1,37.7,271.1,39.2z"/>
			</g>
			<g>
				<path class="st0" d="M263.3,39.2c0,2.2-1.8,4.1-4.1,4.1c-2.2,0-4.1-1.8-4.1-4.1c0-2.2,1.8-4.1,4.1-4.1S263.3,36.9,263.3,39.2z"
					/>
				<path class="st0" d="M261.8,39.2c0,1.4-1.1,2.6-2.6,2.6s-2.6-1.1-2.6-2.6c0-1.4,1.1-2.6,2.6-2.6
					C260.7,36.6,261.8,37.7,261.8,39.2z"/>
			</g>
			<g>
				<path class="st0" d="M254,39.2c0,2.2-1.8,4.1-4.1,4.1c-2.2,0-4.1-1.8-4.1-4.1c0-2.2,1.8-4.1,4.1-4.1S254,36.9,254,39.2z"/>
				<path class="st0" d="M252.5,39.2c0,1.4-1.1,2.6-2.6,2.6c-1.4,0-2.6-1.1-2.6-2.6c0-1.4,1.1-2.6,2.6-2.6S252.5,37.7,252.5,39.2z"
					/>
			</g>
			<g>
				<path class="st0" d="M244.7,39.2c0,2.2-1.8,4.1-4.1,4.1c-2.2,0-4.1-1.8-4.1-4.1c0-2.2,1.8-4.1,4.1-4.1S244.7,36.9,244.7,39.2z"
					/>
				<path class="st0" d="M243.2,39.2c0,1.4-1.1,2.6-2.6,2.6c-1.4,0-2.6-1.1-2.6-2.6c0-1.4,1.1-2.6,2.6-2.6
					C242,36.6,243.2,37.7,243.2,39.2z"/>
			</g>
			<g>
				<path class="st0" d="M235.5,39.2c0,2.2-1.8,4.1-4.1,4.1s-4.1-1.8-4.1-4.1c0-2.2,1.8-4.1,4.1-4.1S235.5,36.9,235.5,39.2z"/>
				<path class="st0" d="M233.9,39.2c0,1.4-1.1,2.6-2.6,2.6c-1.4,0-2.6-1.1-2.6-2.6c0-1.4,1.1-2.6,2.6-2.6
					C232.7,36.6,233.9,37.7,233.9,39.2z"/>
			</g>
			<path class="st0" d="M226,36.8l-1.3,0.3c-0.2-0.2-0.3-0.4-0.6-0.6l0.3-1.3c-0.2-0.1-0.2-0.2-0.4-0.2l-0.7,1.1c-0.2,0-0.2,0-0.4,0
				s-0.2,0-0.4,0l-0.7-1.1c-0.2,0.1-0.3,0.1-0.4,0.2l0.3,1.3c-0.2,0.2-0.4,0.3-0.6,0.6l-1.3-0.3c-0.1,0.2-0.2,0.2-0.2,0.4l1.1,0.7
				c0,0.2,0,0.2,0,0.4s0,0.2,0,0.4l-1.1,0.7c0.1,0.2,0.1,0.3,0.2,0.4l1.3-0.3c0.2,0.2,0.3,0.4,0.6,0.6l-0.3,1.3
				c0.2,0.1,0.2,0.2,0.4,0.2l0.7-1.1c0.2,0,0.2,0,0.4,0s0.2,0,0.4,0l0.7,1.1c0.2-0.1,0.3-0.1,0.4-0.2l-0.3-1.3
				c0.2-0.2,0.4-0.3,0.6-0.6l1.3,0.3c0.1-0.2,0.2-0.2,0.2-0.4l-1.1-0.7c0-0.2,0-0.2,0-0.4s0-0.2,0-0.4l1.1-0.7
				C226.2,37.1,226.1,36.9,226,36.8z"/>
		</g>
		<g>
			<g>
				<polyline class="st0" points="236.3,29.8 222.3,29.8 222.3,28.4 223.8,28.4 236.5,28.4 				"/>
				<polyline class="st0" points="223.9,28.4 223.9,26.6 239.5,23.3 				"/>
				<path class="st0" d="M242.3,25.6"/>
				<line class="st0" x1="231.1" y1="25.2" x2="231.1" y2="28.4"/>
				<polyline class="st0" points="246.1,19.1 246.1,12.8 248.3,10.8 248.3,18.4 				"/>
				<path class="st0" d="M224.9,19c0.2,0.5,0.1,1-0.2,1c-0.2,0.1-0.6-0.2-0.7-0.7c-0.2-0.5-0.1-1,0.2-1
					C224.4,18.2,224.7,18.5,224.9,19z"/>
				<path class="st0" d="M249,18.8c0,0-1.1,9,1,11l-13.6,0.1C236.3,29.8,238.1,19.2,249,18.8z"/>
				<line class="st0" x1="238.7" y1="26.8" x2="246.7" y2="27.7"/>
				<line class="st0" x1="241.2" y1="24" x2="246.7" y2="26"/>
				<line class="st0" x1="244.3" y1="22.2" x2="246.9" y2="24.2"/>
				<line class="st0" x1="228.5" y1="28.4" x2="225" y2="19.9"/>
			</g>
			<g>
				<g>
					<path class="st0" d="M262.8,10.6V8.9c0-0.6,0.5-1,1-1l0,0c0.6,0,1,0.5,1,1v1.8"/>
				</g>
				<path class="st0" d="M272.3,30.1c0,0-19.7,1-21.3-2.2c-1.4-2.6,0.6-17.6,0.6-17.6s13.4,0.1,15,1
					C271.9,14.1,272.3,30.1,272.3,30.1z"/>
				<path class="st0" d="M269.7,26.1l-4.6-0.6l-0.6,1.8c0,0-9.1-1-10.2-2.7c-1.7-2.6,0.2-12,0.2-12s9.5,0.1,10.6,0.7
					C269.2,16,269.7,26.1,269.7,26.1z"/>
				<line class="st0" x1="253.1" y1="10.2" x2="253.1" y2="9"/>
				<path class="st0" d="M253.5,8.1c0,0.5-0.2,0.9-0.5,0.9c-0.2,0-0.4-0.4-0.4-0.9s0.2-0.9,0.5-0.9C253.4,7.2,253.5,7.6,253.5,8.1z"
					/>
				<rect x="272.6" y="13.2" class="st0" width="1.7" height="7"/>
				<path class="st0" d="M267.2,11.6c0,0,5.2,0,5.4,1.2v8.6l-3.2,1.5"/>
			</g>
		</g>
		<path class="st0" d="M220.4,29.9c0,0-4.6,1.1-5,1.3c-0.3,0.2-0.9,0.6-1.1,1.4c-0.2,0.8-0.9,4.6-0.9,4.6"/>
		<g>
			<g>
				<polyline class="st0" points="184.6,45.3 192.9,45.3 197.6,43.2 				"/>
				<path class="st0" d="M194.6,43.1c0,0,3.3-2.5,6.6-2.5c2.5,0,2.5,4.8,2.5,4.8h-9v-2.3H194.6z"/>
				<path class="st0" d="M203.5,44.4h1.5c0,0,0-6.4-3.3-6.4s-5.8,1.8-7.1,2.8c-1,0.8-2.9,2.2-4,4.2"/>
				<polygon class="st0" points="203,38 200,38 200,34.2 201.5,33.8 203,34.2 				"/>
				<line class="st0" x1="201.7" y1="43.3" x2="208.7" y2="45.7"/>
				<line class="st0" x1="203" y1="38" x2="203" y2="27.4"/>
			</g>
			<line class="st0" x1="203.1" y1="36" x2="212.3" y2="35.1"/>
		</g>
		<g>
			<line class="st0" x1="274.4" y1="31.2" x2="287.1" y2="29.7"/>
			<line class="st0" x1="280.2" y1="36.6" x2="288.3" y2="32.3"/>
			<line class="st0" x1="276.8" y1="33" x2="285.2" y2="25.9"/>
			<line class="st0" x1="284.8" y1="25" x2="289.1" y2="33.9"/>
			<g>
				<path class="st0" d="M287.6,26l12.5-5.7c0,0-0.2,3,0.9,5.1c1,2.1,4,4.6,4,4.6l-12.6,6.2l-7-14.2l8.4-0.7l0.6,1.4"/>
				<line class="st0" x1="289.8" y1="30.8" x2="301" y2="25.4"/>
				<line class="st0" x1="290.9" y1="21.6" x2="292" y2="24"/>
				<line class="st0" x1="287.7" y1="21.8" x2="289.3" y2="25.1"/>
			</g>
		</g>
	</g>
	<g>
		<g>
			<g>
				<polyline class="st0" points="0.5,46.5 8.8,46.5 13.5,44.4 				"/>
				<path class="st0" d="M10.5,44.3c0,0,3.3-2.5,6.6-2.5c2.5,0,2.5,4.8,2.5,4.8h-9L10.5,44.3z"/>
				<path class="st0" d="M19.5,45.6H21c0,0,0-6.4-3.3-6.4S11.9,41,10.6,42c-1,0.8-2.9,2.2-4,4.2"/>
				<polygon class="st0" points="18.8,39.2 15.9,39.2 15.9,35.3 17.4,35 18.8,35.3 				"/>
				<line class="st0" x1="17.5" y1="44.5" x2="24.5" y2="46.9"/>
				<line class="st0" x1="18.8" y1="39.2" x2="18.9" y2="28.6"/>
			</g>
			<line class="st0" x1="19.1" y1="37.2" x2="28.2" y2="36.3"/>
		</g>
		<path class="st0" d="M55.7,28"/>
		<g>
			<path class="st0" d="M88.6,40.7c0,3.1-2.5,5.7-5.6,5.7l-46,0.1c-3.1,0-5.7-2.5-5.7-5.6l0,0c0-3.1,2.5-5.7,5.6-5.7l46-0.1
				C86.1,35,88.6,37.6,88.6,40.7L88.6,40.7z"/>
			<g>
				<line class="st0" x1="62.5" y1="46.4" x2="62.5" y2="48"/>
				<line class="st0" x1="64.2" y1="46.4" x2="64.2" y2="48"/>
				<line class="st0" x1="65.8" y1="46.4" x2="65.9" y2="48"/>
				<line class="st0" x1="67.5" y1="46.4" x2="67.5" y2="48"/>
				<line class="st0" x1="69.1" y1="46.4" x2="69.1" y2="48"/>
				<line class="st0" x1="70.8" y1="46.4" x2="70.8" y2="48"/>
				<line class="st0" x1="72.5" y1="46.4" x2="72.5" y2="48"/>
				<line class="st0" x1="74.1" y1="46.4" x2="74.1" y2="48"/>
				<line class="st0" x1="75.8" y1="46.4" x2="75.8" y2="48"/>
				<line class="st0" x1="77.5" y1="46.4" x2="77.5" y2="48"/>
				<line class="st0" x1="79.1" y1="46.3" x2="79.1" y2="48"/>
				<line class="st0" x1="80.8" y1="46.3" x2="80.8" y2="48"/>
				<line class="st0" x1="82.4" y1="46.3" x2="82.4" y2="48"/>
				<g>
					<line class="st0" x1="90.3" y1="40.7" x2="88.6" y2="40.7"/>
					<line class="st0" x1="84.2" y1="33.5" x2="83.9" y2="35.1"/>
					<line class="st0" x1="89.1" y1="36.5" x2="87.8" y2="37.5"/>
					<line class="st0" x1="89.9" y1="38.5" x2="88.4" y2="39.1"/>
					<line class="st0" x1="86" y1="34" x2="85.5" y2="35.6"/>
					<line class="st0" x1="87.8" y1="35.1" x2="86.7" y2="36.4"/>
				</g>
				<g>
					<line class="st0" x1="84.3" y1="47.9" x2="83.9" y2="46.2"/>
					<line class="st0" x1="89.1" y1="44.8" x2="87.8" y2="43.8"/>
					<line class="st0" x1="89.9" y1="42.8" x2="88.4" y2="42.3"/>
					<line class="st0" x1="86" y1="47.2" x2="85.5" y2="45.7"/>
					<line class="st0" x1="87.8" y1="46.2" x2="86.7" y2="44.9"/>
				</g>
				<line class="st0" x1="57.5" y1="46.4" x2="57.5" y2="48"/>
				<line class="st0" x1="59.1" y1="46.4" x2="59.1" y2="48"/>
				<line class="st0" x1="60.8" y1="46.4" x2="60.8" y2="48"/>
				<line class="st0" x1="55.9" y1="46.4" x2="55.9" y2="48"/>
				<line class="st0" x1="54.2" y1="46.4" x2="54.2" y2="48"/>
				<line class="st0" x1="52.5" y1="46.4" x2="52.5" y2="48"/>
				<line class="st0" x1="50.8" y1="46.4" x2="50.8" y2="48"/>
				<line class="st0" x1="49.2" y1="46.4" x2="49.2" y2="48"/>
				<line class="st0" x1="47.5" y1="46.4" x2="47.5" y2="48"/>
				<line class="st0" x1="45.9" y1="46.4" x2="45.9" y2="48"/>
				<line class="st0" x1="44.2" y1="46.4" x2="44.2" y2="48"/>
				<line class="st0" x1="42.5" y1="46.4" x2="42.6" y2="48"/>
				<line class="st0" x1="40.9" y1="46.4" x2="40.9" y2="48"/>
				<line class="st0" x1="39.2" y1="46.4" x2="39.2" y2="48"/>
				<line class="st0" x1="37.5" y1="46.4" x2="37.5" y2="48"/>
				<line class="st0" x1="62.5" y1="33.3" x2="62.5" y2="34.9"/>
				<line class="st0" x1="64.1" y1="33.3" x2="64.1" y2="34.9"/>
				<line class="st0" x1="65.8" y1="33.3" x2="65.8" y2="34.9"/>
				<line class="st0" x1="67.5" y1="33.3" x2="67.5" y2="34.9"/>
				<line class="st0" x1="69.1" y1="33.3" x2="69.1" y2="34.9"/>
				<line class="st0" x1="70.7" y1="33.3" x2="70.8" y2="34.9"/>
				<line class="st0" x1="72.4" y1="33.2" x2="72.4" y2="34.9"/>
				<line class="st0" x1="74.1" y1="33.2" x2="74.1" y2="34.9"/>
				<line class="st0" x1="75.8" y1="33.2" x2="75.8" y2="34.9"/>
				<line class="st0" x1="77.5" y1="33.2" x2="77.5" y2="34.9"/>
				<line class="st0" x1="79.1" y1="33.2" x2="79.1" y2="34.9"/>
				<line class="st0" x1="80.7" y1="33.2" x2="80.7" y2="34.9"/>
				<line class="st0" x1="82.4" y1="33.2" x2="82.4" y2="34.9"/>
				<line class="st0" x1="57.5" y1="33.3" x2="57.5" y2="34.9"/>
				<line class="st0" x1="59.1" y1="33.3" x2="59.1" y2="34.9"/>
				<line class="st0" x1="60.8" y1="33.3" x2="60.8" y2="34.9"/>
				<line class="st0" x1="55.8" y1="33.3" x2="55.8" y2="34.9"/>
				<line class="st0" x1="54.2" y1="33.3" x2="54.2" y2="34.9"/>
				<line class="st0" x1="52.5" y1="33.3" x2="52.5" y2="35"/>
				<line class="st0" x1="50.8" y1="33.3" x2="50.8" y2="35"/>
				<line class="st0" x1="49.1" y1="33.3" x2="49.1" y2="35"/>
				<line class="st0" x1="47.5" y1="33.3" x2="47.5" y2="35"/>
				<line class="st0" x1="45.9" y1="33.3" x2="45.9" y2="35"/>
				<line class="st0" x1="44.2" y1="33.3" x2="44.2" y2="35"/>
				<line class="st0" x1="42.5" y1="33.3" x2="42.5" y2="35"/>
				<line class="st0" x1="40.8" y1="33.3" x2="40.8" y2="35"/>
				<line class="st0" x1="39.2" y1="33.3" x2="39.2" y2="35"/>
				<line class="st0" x1="37.5" y1="33.3" x2="37.5" y2="35"/>
				<g>
					<line class="st0" x1="29.5" y1="40.8" x2="31.1" y2="40.8"/>
					<line class="st0" x1="35.5" y1="33.6" x2="35.8" y2="35.2"/>
					<line class="st0" x1="30.6" y1="36.6" x2="31.9" y2="37.6"/>
					<line class="st0" x1="29.8" y1="38.7" x2="31.3" y2="39.2"/>
					<line class="st0" x1="33.7" y1="34.2" x2="34.3" y2="35.7"/>
					<line class="st0" x1="31.9" y1="35.2" x2="33" y2="36.4"/>
				</g>
				<g>
					<line class="st0" x1="35.5" y1="48" x2="35.8" y2="46.4"/>
					<line class="st0" x1="30.7" y1="44.9" x2="31.9" y2="44"/>
					<line class="st0" x1="29.8" y1="42.8" x2="31.3" y2="42.4"/>
					<line class="st0" x1="33.7" y1="47.4" x2="34.3" y2="45.9"/>
					<line class="st0" x1="31.9" y1="46.4" x2="33" y2="45.1"/>
				</g>
			</g>
		</g>
		<g>
			<g>
				<path class="st0" d="M86.3,40.7c0,2.2-1.8,4.1-4.1,4.1s-4.1-1.8-4.1-4.1c0-2.2,1.8-4.1,4.1-4.1C84.5,36.7,86.3,38.4,86.3,40.7z"
					/>
				<path class="st0" d="M84.8,40.7c0,1.4-1.1,2.6-2.6,2.6c-1.4,0-2.6-1.1-2.6-2.6s1.1-2.6,2.6-2.6C83.7,38.2,84.8,39.3,84.8,40.7z"
					/>
			</g>
			<g>
				<path class="st0" d="M77.1,40.8c0,2.2-1.8,4.1-4.1,4.1s-4.1-1.8-4.1-4.1c0-2.2,1.8-4.1,4.1-4.1C75.2,36.7,77.1,38.5,77.1,40.8z"
					/>
				<path class="st0" d="M75.5,40.8c0,1.4-1.1,2.6-2.6,2.6c-1.4,0-2.6-1.1-2.6-2.6s1.1-2.6,2.6-2.6S75.5,39.3,75.5,40.8z"/>
			</g>
			<g>
				<path class="st0" d="M67.8,40.8c0,2.2-1.8,4.1-4.1,4.1c-2.2,0-4.1-1.8-4.1-4.1c0-2.2,1.8-4.1,4.1-4.1
					C65.9,36.7,67.8,38.5,67.8,40.8z"/>
				<path class="st0" d="M66.3,40.8c0,1.4-1.1,2.6-2.6,2.6c-1.4,0-2.6-1.1-2.6-2.6s1.1-2.6,2.6-2.6C65.1,38.2,66.3,39.3,66.3,40.8z"
					/>
			</g>
			<g>
				<path class="st0" d="M58.5,40.8c0,2.2-1.8,4.1-4.1,4.1c-2.2,0-4.1-1.8-4.1-4.1c0-2.2,1.8-4.1,4.1-4.1S58.5,38.5,58.5,40.8z"/>
				<path class="st0" d="M57,40.8c0,1.4-1.1,2.6-2.6,2.6c-1.4,0-2.6-1.1-2.6-2.6s1.1-2.6,2.6-2.6C55.8,38.3,56.9,39.4,57,40.8z"/>
			</g>
			<g>
				<path class="st0" d="M49.2,40.8c0,2.2-1.8,4.1-4.1,4.1c-2.2,0-4.1-1.8-4.1-4.1c0-2.2,1.8-4.1,4.1-4.1
					C47.4,36.8,49.1,38.5,49.2,40.8z"/>
				<path class="st0" d="M47.6,40.8c0,1.4-1.1,2.6-2.6,2.6s-2.6-1.1-2.6-2.6s1.1-2.6,2.6-2.6S47.6,39.4,47.6,40.8z"/>
			</g>
			<path class="st0" d="M39.8,38.4l-1.3,0.3c-0.2-0.2-0.3-0.4-0.6-0.6l0.3-1.3c-0.2-0.1-0.2-0.2-0.4-0.2l-0.7,1.1
				c-0.2,0-0.2,0-0.4,0s-0.2,0-0.4,0l-0.7-1.1c-0.2,0.1-0.3,0.1-0.4,0.2l0.3,1.3c-0.2,0.2-0.4,0.3-0.6,0.6l-1.3-0.3
				c-0.1,0.2-0.2,0.2-0.2,0.4l1.1,0.7c0,0.2,0,0.2,0,0.4s0,0.2,0,0.4L33.4,41c0.1,0.2,0.1,0.3,0.2,0.4l1.3-0.3
				c0.2,0.2,0.3,0.4,0.6,0.6L35.2,43c0.2,0.1,0.2,0.2,0.4,0.2l0.7-1.1c0.2,0,0.2,0,0.4,0s0.2,0,0.4,0l0.7,1.1
				c0.2-0.1,0.3-0.1,0.4-0.2l-0.3-1.2c0.2-0.2,0.4-0.3,0.6-0.6l1.3,0.3c0.1-0.2,0.2-0.2,0.2-0.4l-1.1-0.7c0-0.2,0-0.2,0-0.4
				s0-0.2,0-0.4l1.1-0.7C39.9,38.8,39.9,38.6,39.8,38.4z"/>
		</g>
		<path class="st0" d="M95.7,3.1c0.6-0.6,1.6-0.8,2.5-0.5c1,0.3,1.5,1.2,1.6,2.2c0,0.3,0,0.6-0.2,1c-0.5,1.3-1.8,1.9-3.1,1.4
			c-0.6-0.2-1-0.6-1.3-1.1"/>
		<path class="st0" d="M43.5,11.9l8.1-9l36.9-2.4l8.6,3.2c0,0,1,2.2-1.3,2.3l-8-2.3L56.1,9.4l-0.7,1.7L43.5,11.9z"/>
		<path class="st0" d="M56.7,21.9v-9.7c0,0-0.2-1.2-2.2-1c-3.3,0.2-13,1-13,1s-0.8,0.2-0.9,1.2c-0.2,0.9-0.2,8.2-0.2,8.2l4.3,5"/>
		<g>
			<g>
				<polyline class="st0" points="50.1,31.2 36,31.3 36,29.8 37.5,29.8 50.3,29.8 				"/>
				<polyline class="st0" points="37.6,29.8 37.6,28.1 53.2,24.8 				"/>
				<path class="st0" d="M56,27"/>
				<line class="st0" x1="44.8" y1="26.7" x2="44.8" y2="29.8"/>
				<polyline class="st0" points="59.8,20.5 59.8,14.2 62,12.3 62,19.9 				"/>
				<path class="st0" d="M31.9,19.8c0.2,0.5,0.1,1-0.2,1c-0.2,0.1-0.6-0.2-0.7-0.7c-0.2-0.5-0.1-1,0.2-1
					C31.5,19,31.8,19.3,31.9,19.8z"/>
				<path class="st0" d="M62.7,20.2c0,0-1.1,9,1,11H50C50,31.2,51.9,20.8,62.7,20.2z"/>
				<line class="st0" x1="52.4" y1="28.3" x2="60.3" y2="29.2"/>
				<line class="st0" x1="54.9" y1="25.4" x2="60.3" y2="27.3"/>
				<line class="st0" x1="58" y1="23.6" x2="60.7" y2="25.6"/>
				<line class="st0" x1="42.3" y1="29.8" x2="31.9" y2="20.8"/>
			</g>
			<g>
				<g>
					<path class="st0" d="M76.5,12v-1.7c0-0.6,0.5-1,1-1l0,0c0.6,0,1,0.5,1,1v1.8"/>
				</g>
				<path class="st0" d="M86,31.5c0,0-19.7,1-21.3-2.2c-1.3-2.5,0.5-17.6,0.5-17.6s13.4,0.1,15,0.9C85.6,15.5,86,31.5,86,31.5z"/>
				<path class="st0" d="M83.5,27.5l-4.6-0.6l-0.6,1.8c0,0-9.1-0.9-10.2-2.7c-1.7-2.6,0.2-12,0.2-12s9.5,0,10.6,0.7
					C83,17.4,83.5,27.5,83.5,27.5z"/>
				<line class="st0" x1="66.7" y1="11.6" x2="66.8" y2="10.4"/>
				<path class="st0" d="M67.2,9.6c0,0.5-0.2,0.9-0.5,0.9c-0.2,0-0.5-0.4-0.4-0.9c0-0.5,0.2-0.9,0.5-0.9S67.2,9,67.2,9.6z"/>
				
					<rect x="86.3" y="14.5" transform="matrix(1 -2.189208e-03 2.189208e-03 1 -3.919670e-02 0.1908)" class="st0" width="1.7" height="7"/>
				<path class="st0" d="M80.9,13.1c0,0,5.2,0,5.4,1.2v8.6l-3.2,1.5"/>
			</g>
		</g>
		<g>
			<line class="st0" x1="89.1" y1="31.8" x2="101.8" y2="31.9"/>
			<line class="st0" x1="94" y1="37.8" x2="102.7" y2="34.6"/>
			<line class="st0" x1="91.1" y1="33.9" x2="100.4" y2="27.8"/>
			<line class="st0" x1="100.1" y1="26.9" x2="103.3" y2="36.2"/>
			<g>
				<path class="st0" d="M102.7,28.2l13-4.1c0,0-0.5,3,0.2,5.2s3.4,5,3.4,5l-13.2,4.5l-5.1-15l8.5,0.3l0.5,1.4"/>
				<line class="st0" x1="104.3" y1="33.3" x2="116" y2="29.3"/>
				<line class="st0" x1="106.6" y1="24.4" x2="107.4" y2="26.8"/>
				<line class="st0" x1="103.4" y1="24" x2="104.6" y2="27.6"/>
			</g>
		</g>
		<polygon class="st0" points="52.7,5.3 49.3,9 54.5,8.6 		"/>
		<polygon class="st0" points="55.1,4.8 56.5,7.3 77.2,3.3 		"/>
	</g>
</g>
</svg>
