<?xml version="1.0" encoding="utf-8"?>
<!-- Generator: Adobe Illustrator 21.1.0, SVG Export Plug-In . SVG Version: 6.00 Build 0)  -->
<svg version="1.1" id="Layer_1" xmlns="http://www.w3.org/2000/svg" xmlns:xlink="http://www.w3.org/1999/xlink" x="0px" y="0px"
	 width="128.1px" height="126.4px" viewBox="0 0 128.1 126.4" style="enable-background:new 0 0 128.1 126.4;" xml:space="preserve"
	>
<style type="text/css">
	.st0{fill:#CDAE5B;}
	.st1{fill:#BDBBBB;}
	.st2{fill:#9F8054;}
	.st3{fill:none;stroke:#CDAE5B;stroke-miterlimit:10;}
	.st4{fill:none;stroke:#BDBBBB;stroke-miterlimit:10;}
	.st5{fill:none;stroke:#909295;stroke-miterlimit:10;}
	.st6{fill:#F2D383;}
	.st7{fill:none;stroke:#BDBBBB;stroke-width:0.5125;stroke-miterlimit:10;}
</style>
<g>
	<g>
		<g>
			<g>
				<g>
					<g>
						<path class="st0" d="M27.3,126.3l-0.3,0c-1.4-0.1-2.8-0.4-4.2-0.7l-0.3-0.1l0.1-4.7c-0.8-0.2-1.6-0.5-2.4-0.9l-2.9,3.6
							l-0.3-0.1c-1.3-0.6-2.5-1.3-3.7-2.1l-0.3-0.2l1.7-4.4c-0.7-0.5-1.3-1.1-1.9-1.6l-4,2.4l-0.2-0.2c-1-1-1.9-2.1-2.8-3.3
							l-0.2-0.3l3.1-3.5c-0.5-0.7-0.9-1.4-1.3-2.2l-4.6,0.9l-0.1-0.3c-0.6-1.3-1.1-2.7-1.5-4l-0.1-0.3l4.1-2.3
							c-0.1-0.4-0.2-0.8-0.3-1.2c-0.1-0.4-0.1-0.8-0.2-1.2l-4.6-0.7l0-0.3c-0.1-1.4-0.1-2.8,0-4.3l0-0.3l4.6-0.7
							c0.1-0.8,0.3-1.7,0.4-2.5l-4.1-2.3l0.1-0.3c0.4-1.4,0.9-2.7,1.5-4l0.1-0.3l4.6,0.9c0.4-0.7,0.8-1.5,1.3-2.2l-3-3.5l0.2-0.3
							c0.8-1.2,1.8-2.3,2.8-3.3l0.2-0.2l4,2.4c0.6-0.6,1.3-1.1,1.9-1.6l-1.7-4.4l0.3-0.2c1.2-0.8,2.4-1.5,3.7-2.1l0.3-0.1l2.9,3.6
							c0.8-0.3,1.6-0.6,2.4-0.9l-0.1-4.7l0.3-0.1c0.8-0.2,1.4-0.3,2.1-0.5c0.6-0.1,1.3-0.2,2.1-0.3l0.3,0l1.5,4.4c0.8,0,1.7,0,2.5,0
							l1.5-4.4l0.3,0c1.4,0.1,2.8,0.4,4.2,0.7l0.3,0.1L37.6,72c0.8,0.2,1.6,0.5,2.4,0.9l2.9-3.6l0.3,0.1c1.3,0.6,2.5,1.3,3.7,2.1
							l0.3,0.2L45.5,76c0.7,0.5,1.3,1.1,1.9,1.6l4-2.4l0.2,0.2c1,1,1.9,2.1,2.8,3.3l0.2,0.3l-3.1,3.5c0.5,0.7,0.9,1.4,1.3,2.2
							l4.6-0.9l0.1,0.3c0.6,1.3,1.1,2.7,1.5,4l0.1,0.3l-4.1,2.3c0.1,0.4,0.2,0.8,0.3,1.2l0,0c0.1,0.4,0.1,0.8,0.2,1.2l4.6,0.7l0,0.3
							c0.1,1.4,0.1,2.8,0,4.3l0,0.3l-4.6,0.7c-0.1,0.8-0.3,1.7-0.4,2.5l4.1,2.3l-0.1,0.3c-0.4,1.4-0.9,2.7-1.5,4l-0.1,0.3l-4.6-0.9
							c-0.4,0.7-0.8,1.5-1.3,2.2l3,3.5l-0.2,0.3c-0.8,1.2-1.8,2.3-2.8,3.3l-0.2,0.2l-4-2.4c-0.6,0.6-1.3,1.1-1.9,1.6l1.7,4.3
							l-0.3,0.2c-1.2,0.8-2.4,1.5-3.7,2.1l-0.3,0.1l-2.9-3.6c-0.8,0.3-1.6,0.6-2.4,0.9l0.1,4.7l-0.3,0.1c-0.8,0.2-1.5,0.3-2.1,0.5
							c-0.6,0.1-1.3,0.2-2.1,0.3l-0.3,0l-1.5-4.4c-0.8,0-1.7,0-2.5,0L27.3,126.3z M23.2,124.8c1.1,0.3,2.3,0.5,3.5,0.6l1.5-4.4
							l0.3,0c1,0.1,2,0.1,3,0l0.3,0l1.5,4.4c0.6-0.1,1.2-0.2,1.8-0.2c0.5-0.1,1.1-0.2,1.7-0.4l-0.1-4.6l0.3-0.1c1-0.3,1.9-0.6,2.8-1
							l0.3-0.1l2.9,3.6c1.1-0.5,2.1-1.1,3.1-1.8l-1.7-4.3l0.2-0.2c0.8-0.6,1.6-1.3,2.3-1.9l0.2-0.2l4,2.4c0.8-0.9,1.6-1.8,2.3-2.7
							l-3-3.5l0.2-0.3c0.6-0.9,1.1-1.7,1.5-2.6l0.1-0.3l4.5,0.9c0.5-1.1,0.9-2.2,1.2-3.3l-4-2.3l0.1-0.3c0.2-1,0.4-2,0.5-3l0-0.3
							l4.6-0.7c0.1-1.2,0.1-2.4,0-3.5l-4.6-0.7l0-0.3c-0.1-0.5-0.1-1-0.2-1.5l0,0c-0.1-0.5-0.2-1-0.3-1.5L54,90.3l4-2.3
							c-0.3-1.1-0.7-2.2-1.2-3.3l-4.5,0.9l-0.1-0.3c-0.5-0.9-1-1.8-1.5-2.6l-0.2-0.3l3-3.5c-0.7-0.9-1.5-1.9-2.3-2.7l-4,2.4
							l-0.2-0.2c-0.7-0.7-1.5-1.3-2.3-1.9l-0.2-0.2l1.7-4.3c-1-0.7-2-1.2-3.1-1.8l-2.9,3.6l-0.3-0.1c-0.9-0.4-1.9-0.7-2.8-1
							l-0.3-0.1l0.1-4.6c-1.1-0.3-2.3-0.5-3.5-0.6l-1.5,4.4l-0.3,0c-1-0.1-2-0.1-3,0l-0.3,0l-1.5-4.4c-0.6,0.1-1.2,0.2-1.8,0.2
							c-0.5,0.1-1.1,0.2-1.7,0.4l0.1,4.6L23,72.6c-1,0.3-1.9,0.6-2.8,1l-0.3,0.1L17,70.2c-1.1,0.5-2.1,1.1-3.1,1.8l1.7,4.3l-0.2,0.2
							c-0.8,0.6-1.6,1.3-2.3,1.9l-0.2,0.2l-4-2.4C8,77.1,7.3,78,6.6,79l3,3.5l-0.2,0.3c-0.6,0.9-1.1,1.7-1.5,2.6l-0.1,0.3l-4.5-0.9
							C2.8,85.8,2.3,86.9,2,88l4,2.3L6,90.6c-0.2,1-0.4,2-0.5,3l0,0.3l-4.6,0.7c-0.1,1.2-0.1,2.4,0,3.5l4.6,0.7l0,0.3
							c0.1,0.5,0.1,1,0.2,1.5c0.1,0.5,0.2,1,0.3,1.5l0.1,0.3l-4,2.3c0.3,1.1,0.7,2.2,1.2,3.3l4.5-0.9l0.1,0.3c0.5,0.9,1,1.8,1.5,2.6
							l0.2,0.3l-3,3.5c0.7,0.9,1.5,1.9,2.3,2.7l4-2.4l0.2,0.2c0.7,0.7,1.5,1.3,2.3,1.9l0.2,0.2l-1.7,4.3c1,0.6,2,1.2,3.1,1.8
							l2.9-3.6l0.3,0.1c0.9,0.4,1.9,0.7,2.8,1l0.3,0.1L23.2,124.8z"/>
					</g>
				</g>
				<g>
					<g>
						<g>
							<path class="st1" d="M30,100.9c-2.6,0-4.7-2.1-4.7-4.7s2.1-4.7,4.7-4.7c2.6,0,4.7,2.1,4.7,4.7S32.6,100.9,30,100.9z M30,92.4
								c-2.1,0-3.9,1.7-3.9,3.9c0,2.1,1.7,3.9,3.9,3.9c2.1,0,3.9-1.7,3.9-3.9C33.9,94.1,32.2,92.4,30,92.4z"/>
						</g>
					</g>
					<g>
						<g>
							<path class="st0" d="M11.4,104.2l-0.2-0.4c-1-2.4-1.5-5-1.5-7.5c0-10,7.5-18.6,17.3-20l0.5-0.1v11.9l-0.3,0.1
								c-3.5,1.2-5.8,4.4-5.8,8.1c0,0.6,0.1,1.1,0.2,1.7l0.1,0.3L11.4,104.2z M26.8,77.1c-9.3,1.6-16.2,9.7-16.2,19.2
								c0,2.3,0.4,4.6,1.2,6.8l9-5.2c-0.1-0.5-0.1-1.1-0.1-1.6c0-3.9,2.4-7.4,6.1-8.8V77.1z"/>
						</g>
					</g>
					<g>
						<g>
							<path class="st0" d="M48.7,104.2l-10.3-6l0.1-0.3c0.1-0.6,0.2-1.1,0.2-1.7c0-3.7-2.3-6.9-5.8-8.1l-0.3-0.1V76.1l0.5,0.1
								c9.9,1.4,17.3,10,17.3,20c0,2.6-0.5,5.1-1.5,7.5L48.7,104.2z M39.3,97.8l9,5.2c0.8-2.2,1.2-4.5,1.2-6.8
								c0-9.4-6.9-17.6-16.2-19.2v10.4c3.7,1.4,6.1,4.8,6.1,8.8C39.4,96.8,39.3,97.3,39.3,97.8z"/>
						</g>
					</g>
					<g>
						<g>
							<path class="st0" d="M30,116.5c-6.2,0-12-2.8-15.9-7.7l-0.3-0.4l10.3-6l0.2,0.2c1.6,1.4,3.6,2.1,5.6,2.1
								c2.1,0,4.1-0.8,5.6-2.1l0.2-0.2l10.3,6l-0.3,0.4C42,113.7,36.2,116.5,30,116.5z M15.1,108.7c3.7,4.4,9.1,7,14.9,7
								s11.2-2.5,14.9-7l-9-5.2c-1.7,1.4-3.8,2.1-5.9,2.1c-2.2,0-4.3-0.8-5.9-2.1L15.1,108.7z"/>
						</g>
					</g>
				</g>
			</g>
			<g>
				<g>
					<g>
						<path class="st2" d="M100.9,59.9L98.8,52c-0.8,0-1.6,0-2.4-0.1L94,59.8l-0.3-0.1c-0.9-0.1-1.9-0.3-2.8-0.6l-0.3-0.1l0.7-8.2
							c-0.8-0.3-1.5-0.5-2.3-0.9l-5,6.5l-0.3-0.2c-0.8-0.5-1.6-0.9-2.4-1.5L81,54.7l3.5-7.4c-0.6-0.5-1.2-1-1.8-1.6l-6.9,4.4
							l-0.2-0.3c-0.6-0.7-1.2-1.4-1.8-2.2l-0.2-0.3l5.8-5.8c-0.4-0.7-0.8-1.4-1.2-2.1l-8,1.8L70.1,41c-0.3-0.9-0.6-1.8-0.9-2.7
							L69.1,38l7.4-3.4c-0.1-0.4-0.2-0.8-0.2-1.2c-0.1-0.4-0.1-0.8-0.1-1.2l-8.1-1l0-0.3c0-0.9,0-1.9,0.1-2.8l0-0.3l8.2-0.7
							c0.1-0.8,0.3-1.6,0.5-2.4l-7.3-3.8l0.1-0.3c0.3-0.9,0.6-1.8,1-2.6l0.1-0.3l7.9,2.1c0.4-0.7,0.8-1.4,1.3-2.1l-5.5-6l0.2-0.3
							c0.6-0.7,1.2-1.4,1.9-2.1l0.2-0.2l6.7,4.7c0.6-0.5,1.2-1,1.9-1.5l-3.2-7.6l0.3-0.2c0.8-0.5,1.7-1,2.5-1.4l0.3-0.2l4.7,6.7
							c0.8-0.3,1.5-0.6,2.3-0.8l-0.4-8.2l0.3-0.1c0.5-0.1,0.9-0.2,1.4-0.2c0.5-0.1,0.9-0.1,1.4-0.2l0.3,0L97.4,8
							c0.8,0,1.6,0,2.4,0.1l2.4-7.8l0.3,0.1c0.9,0.1,1.9,0.3,2.8,0.6l0.3,0.1l-0.7,8.2c0.8,0.3,1.5,0.5,2.3,0.9l5-6.5l0.3,0.2
							c0.8,0.4,1.6,0.9,2.4,1.5l0.3,0.2l-3.5,7.4c0.6,0.5,1.2,1,1.8,1.6l6.9-4.4l0.2,0.3c0.6,0.7,1.2,1.4,1.8,2.2l0.2,0.3l-5.8,5.8
							c0.4,0.7,0.8,1.4,1.2,2.1l8-1.8l0.1,0.3c0.3,0.9,0.6,1.8,0.9,2.7l0.1,0.3l-7.4,3.4c0.1,0.4,0.2,0.8,0.2,1.2v0
							c0.1,0.4,0.1,0.8,0.1,1.2l8.1,1l0,0.3c0,0.9,0,1.9-0.1,2.8l0,0.3l-8.2,0.7c-0.1,0.8-0.3,1.6-0.5,2.4l7.3,3.8l-0.1,0.3
							c-0.3,0.9-0.7,1.8-1,2.6l-0.1,0.3l-7.9-2.1c-0.4,0.7-0.8,1.4-1.3,2.1l5.5,6l-0.2,0.3c-0.6,0.7-1.2,1.4-1.9,2.1l-0.2,0.2
							l-6.7-4.7c-0.6,0.5-1.2,1-1.9,1.5l3.2,7.6l-0.3,0.2c-0.8,0.5-1.6,1-2.5,1.4l-0.3,0.2l-4.7-6.7c-0.7,0.3-1.5,0.6-2.3,0.8
							l0.4,8.2l-0.3,0.1c-0.5,0.1-0.9,0.2-1.4,0.2c-0.5,0.1-0.9,0.1-1.4,0.2L100.9,59.9z M99.4,51.2l2.1,7.9c0.3,0,0.7-0.1,1-0.1
							c0.3-0.1,0.7-0.1,1-0.2l-0.4-8.1l0.3-0.1c0.9-0.2,1.9-0.6,2.8-0.9l0.3-0.1l4.6,6.7c0.6-0.3,1.2-0.6,1.8-1l-3.1-7.5l0.3-0.2
							c0.8-0.6,1.6-1.2,2.3-1.8l0.2-0.2l6.6,4.7c0.5-0.5,0.9-1,1.4-1.6l-5.5-6l0.2-0.3c0.6-0.8,1.1-1.7,1.5-2.5l0.1-0.3l7.9,2.1
							c0.3-0.6,0.5-1.3,0.8-1.9l-7.2-3.7l0.1-0.3c0.3-0.9,0.5-1.9,0.6-2.9l0-0.3l8.1-0.7c0-0.7,0.1-1.4,0-2.1l-8.1-1l0-0.3
							c0-0.5-0.1-1-0.2-1.5c-0.1-0.5-0.2-1-0.3-1.5l-0.1-0.3l7.4-3.4c-0.2-0.7-0.4-1.3-0.7-2l-7.9,1.8l-0.1-0.3
							c-0.4-0.9-0.9-1.8-1.4-2.6l-0.2-0.3l5.8-5.7c-0.4-0.6-0.8-1.1-1.3-1.6l-6.9,4.4l-0.2-0.2c-0.7-0.7-1.4-1.4-2.2-1.9l-0.3-0.2
							l3.5-7.4c-0.6-0.4-1.2-0.7-1.8-1.1l-4.9,6.5l-0.3-0.1c-0.9-0.4-1.8-0.8-2.8-1.1l-0.3-0.1l0.7-8.1c-0.7-0.2-1.4-0.3-2-0.4
							L100.4,9l-0.3,0c-1-0.1-2-0.1-3-0.1l-0.3,0L94.7,1c-0.3,0-0.7,0.1-1,0.1c-0.3,0.1-0.7,0.1-1,0.2L93,9.4l-0.3,0.1
							c-0.9,0.2-1.9,0.6-2.8,0.9l-0.3,0.1L85,3.9c-0.6,0.3-1.2,0.6-1.8,1l3.1,7.5L86,12.6c-0.8,0.6-1.6,1.2-2.3,1.8l-0.2,0.2
							L76.8,10c-0.5,0.5-0.9,1-1.4,1.6l5.5,6l-0.2,0.3c-0.6,0.8-1.1,1.7-1.5,2.5l-0.1,0.3l-7.9-2.1c-0.3,0.6-0.5,1.3-0.8,1.9
							l7.2,3.7l-0.1,0.3c-0.3,0.9-0.5,1.9-0.6,2.9l0,0.3l-8.1,0.7c0,0.7-0.1,1.4,0,2.1l8.1,1l0,0.3c0,0.5,0.1,1,0.2,1.5
							c0.1,0.5,0.2,1,0.3,1.5l0.1,0.3l-7.4,3.4c0.2,0.7,0.4,1.3,0.7,2l7.9-1.8l0.1,0.3c0.4,0.9,0.9,1.8,1.4,2.6l0.2,0.3l-5.8,5.7
							c0.4,0.6,0.8,1.1,1.3,1.6l6.9-4.4L83,45c0.7,0.7,1.4,1.4,2.2,1.9l0.3,0.2l-3.5,7.4c0.6,0.4,1.2,0.7,1.8,1.1l4.9-6.5l0.3,0.1
							c0.9,0.4,1.8,0.8,2.8,1.1l0.3,0.1l-0.7,8.1c0.7,0.2,1.4,0.3,2,0.4l2.4-7.8l0.3,0c1,0.1,2,0.1,3,0.1L99.4,51.2z"/>
					</g>
				</g>
				<g>
					<g>
						<path class="st1" d="M98.1,37.5c-1.9,0-3.7-0.7-5.1-2c-1.5-1.4-2.3-3.2-2.4-5.2c-0.2-4.1,3-7.6,7.2-7.8c4.1-0.2,7.6,3,7.8,7.2
							c0.1,2-0.6,3.9-2,5.4c-1.4,1.5-3.2,2.3-5.2,2.4C98.3,37.5,98.2,37.5,98.1,37.5z M98.1,23.3c-0.1,0-0.2,0-0.3,0
							c-3.7,0.2-6.6,3.3-6.4,7c0.1,1.8,0.8,3.4,2.2,4.6c1.3,1.2,3,1.8,4.8,1.8c1.8-0.1,3.4-0.8,4.6-2.2c1.2-1.3,1.8-3,1.8-4.8
							C104.6,26.2,101.7,23.3,98.1,23.3z"/>
					</g>
				</g>
			</g>
			<g>
				<g>
					<path class="st1" d="M98.1,126.4c-0.4,0-0.9,0-1.3,0l-0.3,0l-0.9-8.1c-0.8-0.1-1.6-0.2-2.4-0.4l-3.6,7.4l-0.3-0.1
						c-0.9-0.3-1.8-0.6-2.7-1l-0.3-0.1l1.9-8c-0.7-0.4-1.4-0.8-2.1-1.2l-5.9,5.7l-0.3-0.2c-0.8-0.6-1.5-1.2-2.2-1.8l-0.3-0.2
						l4.5-6.8c-0.5-0.6-1.1-1.2-1.6-1.8l-7.5,3.4l-0.2-0.3c-0.5-0.8-1-1.6-1.4-2.4l-0.2-0.3l6.6-4.9c-0.2-0.4-0.3-0.8-0.5-1.1
						c-0.1-0.4-0.3-0.7-0.4-1.1l-8.2,0.6l-0.1-0.3c-0.2-0.9-0.4-1.9-0.5-2.8l0-0.3l7.9-2.3c0-0.8-0.1-1.6,0-2.4L68.3,93l0-0.3
						c0.1-0.9,0.3-1.9,0.5-2.8l0.1-0.3l8.2,0.5c0.2-0.8,0.5-1.5,0.8-2.3L71.2,83l0.2-0.3c0.4-0.8,0.9-1.7,1.4-2.5l0.2-0.3l7.5,3.3
						c0.5-0.6,1-1.3,1.5-1.9l-4.6-6.8l0.3-0.2c0.7-0.7,1.4-1.3,2.2-1.8l0.3-0.2L86,78c0.7-0.4,1.4-0.9,2.1-1.2l-2-7.9l0.3-0.1
						c0.4-0.2,0.9-0.4,1.3-0.5c0.4-0.2,0.9-0.3,1.3-0.5l0.3-0.1L93,75c0.8-0.2,1.6-0.3,2.4-0.4l0.8-8.2l0.3,0c0.9,0,1.9-0.1,2.8,0
						l0.3,0l0.9,8.1c0.8,0.1,1.6,0.2,2.4,0.4l3.6-7.4l0.3,0.1c0.9,0.3,1.8,0.6,2.7,1l0.3,0.1l-1.9,8c0.7,0.4,1.4,0.8,2.1,1.2
						l5.9-5.7l0.3,0.2c0.8,0.6,1.5,1.2,2.2,1.8l0.3,0.2l-4.5,6.8c0.6,0.6,1.1,1.2,1.6,1.8l7.5-3.4l0.2,0.3c0.5,0.8,1,1.6,1.4,2.4
						l0.2,0.3l-6.6,4.9c0.2,0.4,0.3,0.8,0.5,1.1c0.1,0.4,0.3,0.8,0.4,1.1l8.2-0.6l0.1,0.3c0.2,0.9,0.4,1.9,0.5,2.8l0,0.3l-7.8,2.3
						c0,0.8,0.1,1.6,0,2.4l7.9,2.2l0,0.3c-0.1,0.9-0.3,1.9-0.5,2.8l-0.1,0.3l-8.2-0.5c-0.2,0.8-0.5,1.5-0.8,2.3l6.6,4.8l-0.2,0.3
						c-0.4,0.8-0.9,1.7-1.4,2.5l-0.2,0.3l-7.5-3.3c-0.5,0.6-1,1.3-1.5,1.9l4.6,6.8l-0.2,0.2c-0.7,0.7-1.4,1.3-2.2,1.8l-0.3,0.2
						l-5.9-5.7c-0.7,0.4-1.4,0.9-2.1,1.2l2,7.9l-0.3,0.1c-0.4,0.2-0.9,0.4-1.3,0.5c-0.4,0.2-0.9,0.3-1.3,0.5l-0.3,0.1l-3.6-7.3
						c-0.8,0.2-1.6,0.3-2.4,0.4l-0.8,8.2l-0.3,0C99.2,126.4,98.7,126.4,98.1,126.4z M97.2,125.6c0.7,0,1.4,0,2.1,0l0.8-8.1l0.3,0
						c1-0.1,2-0.3,2.9-0.5l0.3-0.1l3.6,7.3c0.3-0.1,0.7-0.2,1-0.3c0.3-0.1,0.6-0.2,1-0.4l-2-7.9l0.3-0.1c0.9-0.4,1.7-0.9,2.6-1.5
						l0.3-0.2l5.9,5.6c0.5-0.4,1.1-0.9,1.6-1.3l-4.6-6.7l0.2-0.2c0.7-0.7,1.3-1.5,1.9-2.3l0.2-0.3l7.5,3.3c0.4-0.6,0.7-1.2,1-1.8
						l-6.6-4.8l0.1-0.3c0.4-0.9,0.7-1.8,1-2.8l0.1-0.3l8.1,0.5c0.1-0.7,0.3-1.4,0.3-2l-7.8-2.2l0-0.3c0.1-1,0.1-2,0-3l0-0.3l7.8-2.3
						c-0.1-0.7-0.2-1.4-0.4-2l-8.1,0.6l-0.1-0.3c-0.1-0.5-0.3-0.9-0.5-1.4v0c-0.2-0.4-0.3-0.9-0.6-1.4l-0.1-0.3l6.6-4.8
						c-0.3-0.6-0.7-1.2-1-1.8l-7.4,3.3l-0.2-0.3c-0.6-0.8-1.2-1.5-1.9-2.3l-0.2-0.2l4.5-6.8c-0.5-0.5-1-0.9-1.6-1.3l-5.8,5.7
						l-0.3-0.2c-0.8-0.5-1.7-1-2.6-1.5l-0.3-0.1l1.9-7.9c-0.6-0.3-1.3-0.5-1.9-0.7l-3.5,7.3l-0.3-0.1c-0.9-0.2-1.9-0.4-2.9-0.5
						l-0.3,0L99,67.1c-0.7,0-1.4,0-2.1,0l-0.8,8.1l-0.3,0c-1,0.1-2,0.3-2.9,0.5l-0.3,0.1l-3.6-7.3c-0.3,0.1-0.7,0.2-1,0.3
						c-0.3,0.1-0.6,0.2-1,0.4l2,7.9l-0.3,0.1c-0.9,0.4-1.7,0.9-2.6,1.5L85.9,79L80,73.4c-0.5,0.4-1.1,0.9-1.6,1.3l4.6,6.7l-0.2,0.2
						c-0.7,0.7-1.3,1.5-1.9,2.3l-0.2,0.3L73.2,81c-0.4,0.6-0.7,1.2-1,1.8l6.6,4.8l-0.1,0.3c-0.4,0.9-0.7,1.8-1,2.8l-0.1,0.3
						l-8.1-0.5c-0.1,0.7-0.3,1.4-0.4,2l7.8,2.2l0,0.3c-0.1,1-0.1,2,0,3l0,0.3l-7.8,2.3c0.1,0.7,0.2,1.4,0.4,2l8.1-0.6l0.1,0.3
						c0.1,0.5,0.3,1,0.5,1.4c0.2,0.5,0.4,0.9,0.6,1.4l0.1,0.3l-6.6,4.8c0.3,0.6,0.7,1.2,1,1.8l7.4-3.3l0.2,0.3
						c0.6,0.8,1.2,1.6,1.9,2.3l0.2,0.2l-4.5,6.8c0.5,0.5,1,0.9,1.6,1.3l5.8-5.7l0.3,0.2c0.8,0.5,1.7,1,2.6,1.5l0.3,0.1l-1.9,7.9
						c0.6,0.3,1.3,0.5,1.9,0.7l3.5-7.3l0.3,0.1c0.9,0.2,1.9,0.4,2.9,0.5l0.3,0L97.2,125.6z"/>
				</g>
				<g>
					<path class="st1" d="M98.1,103.9c-1.3,0-2.7-0.4-3.8-1.1c-1.7-1-2.9-2.7-3.4-4.6c-0.5-1.9-0.2-4,0.9-5.7c1-1.7,2.7-2.9,4.6-3.4
						c4-1,8.1,1.5,9.1,5.5l0,0c0.5,1.9,0.2,4-0.9,5.7c-1,1.7-2.7,2.9-4.6,3.4C99.3,103.8,98.7,103.9,98.1,103.9z M98.1,89.7
						c-0.5,0-1.1,0.1-1.6,0.2c-1.7,0.4-3.2,1.5-4.1,3c-0.9,1.5-1.2,3.3-0.8,5.1c0.4,1.7,1.5,3.2,3,4.1c1.5,0.9,3.3,1.2,5.1,0.8
						c1.7-0.4,3.2-1.5,4.1-3c0.9-1.5,1.2-3.3,0.8-5.1C103.8,91.7,101.1,89.7,98.1,89.7z"/>
				</g>
			</g>
			<g>
				<g>
					<g>
						<path class="st1" d="M30,60.1c-0.6,0-1.3,0-2.1-0.1l-0.3,0l-0.7-4.6c-0.8-0.1-1.7-0.2-2.5-0.4L22.1,59l-0.3-0.1
							c-1.4-0.4-2.7-0.9-4-1.5l-0.3-0.1l0.9-4.6c-0.7-0.4-1.5-0.8-2.2-1.3l-3.5,3l-0.3-0.2c-1.1-0.8-2.3-1.8-3.3-2.8l-0.2-0.2l2.4-4
							c-0.6-0.6-1.1-1.3-1.6-1.9l-4.4,1.7l-0.2-0.3c-0.8-1.2-1.5-2.4-2.1-3.7l-0.1-0.3l3.6-2.9c-0.3-0.8-0.6-1.6-0.9-2.4L1,37.7
							l-0.1-0.3c-0.3-1.4-0.6-2.8-0.7-4.2l0-0.3l4.4-1.5c0-0.4,0-0.8,0-1.3c0-0.4,0-0.8,0-1.3l-4.4-1.5l0-0.3
							c0.1-1.4,0.4-2.8,0.7-4.2L1,22.4l4.7,0.1c0.2-0.8,0.5-1.6,0.9-2.4l-3.6-2.9L3,16.9c0.6-1.3,1.3-2.5,2.1-3.7l0.2-0.3l4.4,1.7
							c0.5-0.7,1-1.3,1.6-1.9l-2.4-4l0.2-0.2c1-1,2.1-1.9,3.3-2.8l0.3-0.2l3.5,3c0.7-0.5,1.4-0.9,2.2-1.3l-0.9-4.6l0.3-0.1
							c1.3-0.6,2.7-1.1,4-1.5l0.3-0.1l2.3,4.1C25.2,5,26,4.8,26.8,4.7l0.7-4.6l0.3,0c1.6-0.1,2.7-0.1,4.3,0l0.3,0l0.7,4.6
							c0.8,0.1,1.6,0.2,2.5,0.4L38,1.1l0.3,0.1c1.4,0.4,2.7,0.9,4,1.5l0.3,0.1l-0.9,4.6c0.7,0.4,1.5,0.8,2.2,1.3l3.5-3l0.3,0.2
							c1.2,0.8,2.3,1.8,3.3,2.8l0.2,0.2l-2.4,4c0.6,0.6,1.1,1.3,1.6,1.9l4.4-1.7l0.2,0.3c0.8,1.2,1.5,2.4,2.1,3.7l0.1,0.3l-3.6,2.9
							c0.3,0.8,0.6,1.6,0.9,2.4l4.7-0.1l0.1,0.3c0.3,1.4,0.6,2.8,0.7,4.2l0,0.3l-4.4,1.5c0,0.4,0,0.8,0,1.3c0,0.4,0,0.8,0,1.3
							l4.4,1.5l0,0.3c-0.1,1.4-0.4,2.8-0.7,4.2l-0.1,0.3l-4.7-0.1c-0.2,0.8-0.5,1.6-0.9,2.4l3.6,2.9l-0.1,0.3
							c-0.6,1.3-1.3,2.5-2.1,3.7l-0.2,0.3l-4.4-1.7c-0.5,0.7-1,1.3-1.6,1.9l2.4,4l-0.2,0.2c-1,1-2.1,1.9-3.3,2.8l-0.3,0.2l-3.5-3
							c-0.7,0.4-1.4,0.9-2.2,1.3l0.9,4.6l-0.3,0.1c-1.3,0.6-2.6,1.1-4,1.5L38,59l-2.3-4.1c-0.8,0.2-1.6,0.3-2.5,0.4L32.5,60l-0.3,0
							C31.4,60,30.7,60.1,30,60.1z M28.3,59.2c1.3,0.1,2.2,0.1,3.5,0l0.7-4.6l0.3,0c1-0.1,2-0.3,3-0.5l0.3-0.1l2.2,4
							c1.1-0.3,2.2-0.7,3.3-1.2l-0.9-4.5l0.3-0.1c0.9-0.5,1.8-1,2.6-1.5l0.3-0.2l3.5,3c0.9-0.7,1.8-1.5,2.7-2.3l-2.4-4l0.2-0.2
							c0.7-0.7,1.4-1.5,1.9-2.3l0.2-0.2l4.3,1.7c0.6-1,1.2-2,1.8-3.1l-3.6-2.9l0.1-0.3c0.4-0.9,0.7-1.9,1-2.8l0.1-0.3l4.6,0.1
							c0.3-1.2,0.5-2.3,0.6-3.5l-4.4-1.5l0-0.3c0-0.5,0-1,0-1.5c0-0.5,0-1,0-1.5l0-0.3l4.4-1.5c-0.1-1.2-0.3-2.3-0.6-3.5l-4.6,0.1
							L53.8,23c-0.3-1-0.6-1.9-1-2.8l-0.1-0.3l3.6-2.9c-0.5-1.1-1.1-2.1-1.8-3.1l-4.3,1.7l-0.2-0.2c-0.6-0.8-1.2-1.6-1.9-2.3
							l-0.2-0.2l2.4-4c-0.9-0.8-1.8-1.6-2.7-2.3l-3.5,3l-0.3-0.2c-0.8-0.5-1.7-1.1-2.6-1.5l-0.3-0.1l0.9-4.5
							c-1.1-0.5-2.2-0.9-3.3-1.2l-2.2,4L35.8,6c-1-0.2-2-0.4-3-0.5l-0.3,0l-0.7-4.6c-1.3-0.1-2.2-0.1-3.5,0l-0.7,4.6l-0.3,0
							c-1,0.1-2,0.3-3,0.5L24,6.1l-2.3-4c-1.1,0.3-2.2,0.7-3.3,1.2l0.9,4.5L19,7.9c-0.9,0.5-1.8,1-2.6,1.5l-0.3,0.2l-3.5-3
							C11.7,7.3,10.8,8,9.9,8.8l2.4,4L12.1,13c-0.7,0.7-1.4,1.5-1.9,2.3L10,15.6l-4.3-1.7c-0.6,1-1.2,2-1.8,3.1l3.6,2.9l-0.1,0.3
							c-0.4,0.9-0.7,1.9-1,2.8l-0.1,0.3l-4.6-0.1c-0.3,1.2-0.5,2.3-0.6,3.5l4.4,1.5l0,0.3c0,0.5-0.1,1-0.1,1.5c0,0.5,0,1,0.1,1.5
							l0,0.3L1,33.4c0.1,1.2,0.3,2.3,0.6,3.5l4.6-0.1l0.1,0.3c0.3,1,0.6,1.9,1,2.8l0.1,0.3l-3.6,2.9c0.5,1.1,1.1,2.1,1.8,3.1
							l4.3-1.7l0.2,0.2c0.6,0.8,1.2,1.6,1.9,2.3l0.2,0.2l-2.4,4c0.9,0.8,1.8,1.6,2.7,2.3l3.5-3l0.3,0.2c0.8,0.6,1.7,1.1,2.6,1.5
							l0.3,0.1l-0.9,4.5c1.1,0.5,2.2,0.9,3.3,1.2l2.3-4l0.3,0.1c1,0.2,2,0.4,3,0.5l0.3,0L28.3,59.2z"/>
					</g>
				</g>
				<g>
					<g>
						<g>
							<g>
								<g>
									<rect x="11.8" y="29.6" class="st0" width="4.7" height="0.8"/>
								</g>
							</g>
							<g>
								<g>
									<rect x="43.7" y="29.6" class="st0" width="4.6" height="0.8"/>
								</g>
							</g>
						</g>
						<g>
							<g>
								<g>
									<g>
										
											<rect x="25" y="45.3" transform="matrix(0.1728 -0.985 0.985 0.1728 -22.4777 64.7352)" class="st0" width="4.6" height="0.8"/>
									</g>
								</g>
								<g>
									<g>
										
											<rect x="30.5" y="13.9" transform="matrix(0.1728 -0.985 0.985 0.1728 13.0318 44.1618)" class="st0" width="4.6" height="0.8"/>
									</g>
								</g>
							</g>
							<g>
								<g>
									<g>
										<path class="st3" d="M43.5,32.4"/>
									</g>
								</g>
								<g>
									<g>
										<path class="st3" d="M48,33.2"/>
									</g>
								</g>
							</g>
						</g>
						<g>
							<g>
								<g>
									<g>
										
											<rect x="14.7" y="22.1" transform="matrix(0.3529 -0.9356 0.9356 0.3529 -13.0482 29.9467)" class="st0" width="0.8" height="4.6"/>
									</g>
								</g>
								<g>
									<g>
										
											<rect x="44.6" y="33.4" transform="matrix(0.3528 -0.9357 0.9357 0.3528 -4.2608 65.1748)" class="st0" width="0.8" height="4.6"/>
									</g>
								</g>
							</g>
							<g>
								<g>
									<g>
										<g>
											
												<rect x="19.5" y="43.3" transform="matrix(0.5165 -0.8563 0.8563 0.5165 -26.8705 39.8092)" class="st0" width="4.6" height="0.8"/>
										</g>
									</g>
									<g>
										<g>
											
												<rect x="36" y="16" transform="matrix(0.5165 -0.8563 0.8563 0.5165 4.4925 40.7056)" class="st0" width="4.6" height="0.8"/>
										</g>
									</g>
								</g>
								<g>
									<g>
										<g>
											<path class="st3" d="M41.7,37.1"/>
										</g>
									</g>
									<g>
										<g>
											<path class="st3" d="M45.7,39.5"/>
										</g>
									</g>
								</g>
							</g>
						</g>
						<g>
							<g>
								<g>
									
										<rect x="17.4" y="17.5" transform="matrix(0.641 -0.7676 0.7676 0.641 -8.8145 20.7828)" class="st0" width="0.8" height="4.6"/>
								</g>
							</g>
							<g>
								<g>
									
										<rect x="41.9" y="38" transform="matrix(0.6408 -0.7677 0.7677 0.6408 -15.714 46.9327)" class="st0" width="0.8" height="4.6"/>
								</g>
							</g>
						</g>
						<g>
							<g>
								<g>
									
										<rect x="15.5" y="39.8" transform="matrix(0.7695 -0.6386 0.6386 0.7695 -21.5932 20.6307)" class="st0" width="4.6" height="0.8"/>
								</g>
							</g>
							<g>
								<g>
									
										<rect x="40" y="19.4" transform="matrix(0.7695 -0.6386 0.6386 0.7695 -2.9171 31.6039)" class="st0" width="4.6" height="0.8"/>
								</g>
							</g>
						</g>
						<g>
							<g>
								<g>
									
										<rect x="21.8" y="13.8" transform="matrix(0.8706 -0.492 0.492 0.8706 -5.0721 13.0148)" class="st0" width="0.8" height="4.6"/>
								</g>
							</g>
							<g>
								<g>
									
										<rect x="37.5" y="41.6" transform="matrix(0.8704 -0.4923 0.4923 0.8704 -16.7116 24.3499)" class="st0" width="0.8" height="4.6"/>
								</g>
							</g>
						</g>
						<g>
							<g>
								<g>
									
										<rect x="12.7" y="34.8" transform="matrix(0.9453 -0.3262 0.3262 0.9453 -10.6775 6.8112)" class="st0" width="4.6" height="0.8"/>
								</g>
							</g>
							<g>
								<g>
									
										<rect x="42.8" y="24.4" transform="matrix(0.9453 -0.3262 0.3262 0.9453 -5.6295 16.0794)" class="st0" width="4.6" height="0.8"/>
								</g>
							</g>
						</g>
						<g>
							<g>
								<g>
									
										<rect x="27" y="12" transform="matrix(0.986 -0.1665 0.1665 0.986 -2.0045 4.7615)" class="st0" width="0.8" height="4.7"/>
								</g>
							</g>
							<g>
								<g>
									
										<rect x="32.3" y="43.5" transform="matrix(0.986 -0.1666 0.1666 0.986 -7.1692 6.0907)" class="st0" width="0.8" height="4.6"/>
								</g>
							</g>
						</g>
					</g>
					<g>
						<g>
							<path class="st1" d="M30.1,48.7c-10.3,0-18.7-8.4-18.7-18.7s8.4-18.7,18.7-18.7S48.7,19.8,48.7,30S40.3,48.7,30.1,48.7z
								 M30.1,12.2c-9.8,0-17.9,8-17.9,17.9s8,17.9,17.9,17.9c9.8,0,17.9-8,17.9-17.9S39.9,12.2,30.1,12.2z"/>
						</g>
					</g>
					<g>
						<g>
							<path class="st1" d="M30.1,44.1c-7.7,0-14-6.3-14-14s6.3-14,14-14c7.7,0,14,6.3,14,14S37.8,44.1,30.1,44.1z M30.1,16.8
								c-7.3,0-13.2,5.9-13.2,13.2s5.9,13.2,13.2,13.2c7.3,0,13.2-5.9,13.2-13.2S37.4,16.8,30.1,16.8z"/>
						</g>
					</g>
				</g>
				<g>
					<g>
						<g>
							<g>
								<g>
									<g>
										<g>
											<g>
												<path class="st4" d="M35.6,30"/>
											</g>
										</g>
										<g>
											<g>
												<path class="st5" d="M37.4,30"/>
											</g>
										</g>
									</g>
								</g>
							</g>
						</g>
						<g>
							<g>
								<g>
									<g>
										<g>
											<g>
												<path class="st5" d="M28.8,37.3"/>
											</g>
										</g>
										<g>
											<g>
												
													<rect x="27.4" y="35.4" transform="matrix(0.1728 -0.985 0.985 0.1728 -11.1962 58.1731)" class="st1" width="3.2" height="0.8"/>
											</g>
										</g>
										<g>
											<g>
												
													<rect x="29.4" y="23.9" transform="matrix(0.1728 -0.985 0.985 0.1728 1.7186 50.6893)" class="st1" width="3.2" height="0.8"/>
											</g>
										</g>
									</g>
								</g>
								<g>
									<g>
										<g>
											<g>
												<path class="st4" d="M35.5,31"/>
											</g>
										</g>
										<g>
											<g>
												<path class="st5" d="M37.3,31.3"/>
											</g>
										</g>
									</g>
								</g>
							</g>
						</g>
						<g>
							<g>
								<g>
									<g>
										<g>
											<g>
												<g>
													<path class="st4" d="M34.8,32.9"/>
												</g>
											</g>
											<g>
												<g>
													<path class="st5" d="M36.4,33.9"/>
												</g>
											</g>
										</g>
									</g>
								</g>
							</g>
						</g>
						<g>
							<g>
								<g>
									<g>
										<g>
											<g>
												
													<rect x="24" y="33.3" transform="matrix(0.769 -0.6392 0.6392 0.769 -15.6625 24.1416)" class="st1" width="3.2" height="0.8"/>
											</g>
										</g>
										<g>
											<g>
												
													<rect x="32.9" y="25.9" transform="matrix(0.7695 -0.6386 0.6386 0.7695 -8.8634 28.1007)" class="st1" width="3.2" height="0.8"/>
											</g>
										</g>
									</g>
								</g>
							</g>
						</g>
						<g>
							<g>
								<g>
									<g>
										<g>
											
												<rect x="26.8" y="23.4" transform="matrix(0.8705 -0.4921 0.4921 0.8705 -8.7775 16.6126)" class="st1" width="0.8" height="3.2"/>
										</g>
									</g>
									<g>
										<g>
											
												<rect x="32.5" y="33.5" transform="matrix(0.8706 -0.492 0.492 0.8706 -13.0072 20.7246)" class="st1" width="0.8" height="3.2"/>
										</g>
									</g>
									<g>
										<g>
											<path class="st4" d="M33.7,36.5"/>
										</g>
									</g>
								</g>
							</g>
						</g>
						<g>
							<g>
								<g>
									<g>
										<g>
											<path class="st4" d="M35.3,28.2"/>
										</g>
									</g>
									<g>
										<g>
											<path class="st5" d="M37,27.6"/>
										</g>
									</g>
								</g>
							</g>
						</g>
					</g>
					<g>
						<g>
							<path class="st1" d="M30,37.8c-4.3,0-7.8-3.5-7.8-7.8s3.5-7.8,7.8-7.8c4.3,0,7.8,3.5,7.8,7.8S34.3,37.8,30,37.8z M30,23
								c-3.9,0-7,3.1-7,7s3.1,7,7,7c3.9,0,7-3.1,7-7S33.9,23,30,23z"/>
						</g>
					</g>
					<g>
						<g>
							<path class="st1" d="M30,34.6c-0.3,0-0.5,0-0.8-0.1c-1.1-0.2-2-0.7-2.7-1.6c-0.7-0.8-1.1-1.9-1.1-3c0-2.5,2.1-4.6,4.6-4.6
								c0.3,0,0.5,0,0.8,0.1c1.1,0.2,2,0.7,2.7,1.6c0.7,0.8,1.1,1.9,1.1,3C34.6,32.6,32.6,34.6,30,34.6z M30,26.2
								c-2.1,0-3.8,1.7-3.8,3.8c0,0.9,0.3,1.8,0.9,2.5c0.6,0.7,1.4,1.1,2.2,1.3c0.2,0,0.4,0.1,0.7,0.1c2.1,0,3.8-1.7,3.8-3.8
								c0-0.9-0.3-1.8-0.9-2.5c-0.6-0.7-1.4-1.1-2.2-1.3C30.5,26.3,30.3,26.2,30,26.2z"/>
						</g>
					</g>
				</g>
				<g>
					<g>
						<path class="st4" d="M30,30"/>
					</g>
				</g>
				<g>
					<g>
						<path class="st4" d="M30,30"/>
					</g>
				</g>
				<g>
					<g>
						<path class="st4" d="M30,30"/>
					</g>
				</g>
				<g>
					<g>
						<path class="st4" d="M30,30"/>
					</g>
				</g>
			</g>
		</g>
	</g>
	<g>
		<g>
			<path class="st6" d="M64.1,75.9c-0.3,0-0.6,0-0.9,0l-0.2,0l-0.3-1.9c-0.3,0-0.6-0.1-0.8-0.1l-0.9,1.7l-0.2-0.1
				c-0.6-0.2-1.2-0.4-1.7-0.6l-0.2-0.1l0.4-1.9c-0.3-0.1-0.5-0.3-0.7-0.4l-1.5,1.3l-0.2-0.1c-0.5-0.4-1-0.7-1.4-1.2l-0.2-0.2l1-1.7
				c-0.2-0.2-0.4-0.4-0.5-0.6l-1.8,0.7l-0.1-0.2c-0.3-0.5-0.6-1-0.9-1.6l-0.1-0.2l1.5-1.2c-0.1-0.3-0.2-0.5-0.3-0.8l-1.9,0l-0.1-0.2
				c-0.1-0.6-0.3-1.2-0.3-1.8l0-0.2l1.8-0.6c0-0.1,0-0.3,0-0.4c0-0.1,0-0.3,0-0.4l-1.8-0.6l0-0.2c0.1-0.6,0.2-1.2,0.3-1.8l0.1-0.2
				l1.9,0c0.1-0.3,0.2-0.5,0.3-0.8l-1.5-1.2l0.1-0.2c0.3-0.5,0.6-1.1,0.9-1.6l0.1-0.2l1.8,0.7c0.2-0.2,0.4-0.4,0.5-0.6l-1-1.7
				l0.2-0.2c0.4-0.4,0.9-0.8,1.4-1.2l0.2-0.1l1.5,1.3c0.2-0.1,0.5-0.3,0.7-0.4l-0.4-1.9l0.2-0.1c0.5-0.2,1.1-0.5,1.7-0.6l0.2-0.1
				l0.9,1.7c0.3-0.1,0.6-0.1,0.8-0.1l0.3-1.9l0.2,0c0.6,0,1.2,0,1.8,0l0.2,0l0.3,1.9c0.3,0,0.6,0.1,0.8,0.1l0.9-1.7l0.2,0.1
				c0.6,0.2,1.2,0.4,1.7,0.6l0.2,0.1l-0.4,1.9c0.3,0.1,0.5,0.3,0.7,0.4l1.5-1.3l0.2,0.1c0.5,0.4,0.9,0.7,1.4,1.2l0.2,0.2L72,56
				c0.2,0.2,0.4,0.4,0.5,0.6l1.8-0.7l0.1,0.2c0.3,0.5,0.6,1,0.9,1.6l0.1,0.2L74,59.1c0.1,0.3,0.2,0.5,0.3,0.8l1.9,0l0.1,0.2
				c0.1,0.6,0.3,1.2,0.3,1.8l0,0.2l-1.8,0.6c0,0.1,0,0.3,0,0.4c0,0.1,0,0.3,0,0.4l1.8,0.6l0,0.2c-0.1,0.6-0.2,1.2-0.3,1.8l-0.1,0.2
				l-1.9,0c-0.1,0.3-0.2,0.5-0.3,0.8l1.5,1.2l-0.1,0.2c-0.3,0.5-0.6,1.1-0.9,1.6l-0.1,0.2l-1.8-0.7c-0.2,0.2-0.4,0.4-0.5,0.6l1,1.7
				l-0.2,0.2c-0.4,0.4-0.9,0.8-1.4,1.2l-0.2,0.1l-1.5-1.3c-0.2,0.1-0.5,0.3-0.7,0.4l0.4,1.9l-0.2,0.1c-0.5,0.2-1.1,0.5-1.7,0.6
				l-0.2,0.1l-0.9-1.7c-0.3,0.1-0.6,0.1-0.8,0.1l-0.3,1.9l-0.2,0C64.7,75.8,64.4,75.9,64.1,75.9z M63.4,75.2c0.4,0,0.8,0,1.2,0
				l0.3-1.9l0.2,0c0.4,0,0.8-0.1,1.2-0.2l0.2-0.1l0.9,1.7c0.4-0.1,0.8-0.3,1.2-0.4l-0.4-1.9l0.2-0.1c0.4-0.2,0.7-0.4,1.1-0.6
				l0.2-0.1l1.5,1.3c0.3-0.3,0.6-0.5,0.9-0.8l-1-1.7l0.2-0.2c0.3-0.3,0.6-0.6,0.8-0.9l0.1-0.2l1.8,0.7c0.2-0.3,0.4-0.7,0.6-1.1
				l-1.5-1.2l0.1-0.2c0.2-0.4,0.3-0.8,0.4-1.2l0.1-0.2l1.9,0c0.1-0.4,0.2-0.8,0.2-1.2l-1.8-0.6l0-0.2c0-0.2,0-0.4,0-0.6
				c0-0.2,0-0.4,0-0.6l0-0.2l1.8-0.6c0-0.4-0.1-0.8-0.2-1.2l-1.9,0l-0.1-0.2c-0.1-0.4-0.3-0.8-0.4-1.2l-0.1-0.2l1.5-1.2
				c-0.2-0.4-0.4-0.7-0.6-1.1l-1.8,0.7l-0.1-0.2c-0.2-0.3-0.5-0.6-0.8-0.9L71.3,56l1-1.6c-0.3-0.3-0.6-0.5-0.9-0.8l-1.5,1.3
				l-0.2-0.1c-0.3-0.2-0.7-0.4-1.1-0.6L68.4,54l0.4-1.9c-0.4-0.2-0.8-0.3-1.2-0.4l-0.9,1.7l-0.2-0.1c-0.4-0.1-0.8-0.2-1.2-0.2
				l-0.2,0l-0.3-1.9c-0.4,0-0.8,0-1.2,0l-0.3,1.9l-0.2,0c-0.4,0-0.8,0.1-1.2,0.2l-0.2,0.1l-0.9-1.7c-0.4,0.1-0.8,0.3-1.2,0.4
				l0.4,1.9l-0.2,0.1c-0.4,0.2-0.7,0.4-1.1,0.6l-0.2,0.1l-1.5-1.3c-0.3,0.2-0.6,0.5-0.9,0.8l1,1.6l-0.2,0.2
				c-0.3,0.3-0.6,0.6-0.8,0.9l-0.1,0.2L54,56.7c-0.2,0.3-0.4,0.7-0.6,1.1l1.5,1.2l-0.1,0.2c-0.2,0.4-0.3,0.8-0.4,1.2l-0.1,0.2
				l-1.9,0c-0.1,0.4-0.2,0.8-0.2,1.2l1.8,0.6l0,0.2c0,0.2,0,0.4,0,0.6c0,0.2,0,0.4,0,0.6l0,0.2l-1.8,0.6c0.1,0.4,0.1,0.8,0.2,1.2
				l1.9,0l0.1,0.2c0.1,0.4,0.3,0.8,0.4,1.2l0.1,0.2l-1.5,1.2c0.2,0.4,0.4,0.7,0.6,1.1l1.8-0.7l0.1,0.2c0.2,0.3,0.5,0.6,0.8,0.9
				l0.2,0.2l-1,1.6c0.3,0.3,0.6,0.5,0.9,0.8l1.5-1.3l0.2,0.1c0.3,0.2,0.7,0.4,1.1,0.6l0.2,0.1l-0.4,1.9c0.4,0.2,0.8,0.3,1.2,0.4
				l0.9-1.7l0.2,0.1c0.4,0.1,0.8,0.2,1.2,0.2l0.2,0L63.4,75.2z"/>
		</g>
		<g>
			<g>
				<g>
					<g>
						<g>
							<g>
								<g>
									<rect x="56.4" y="63" class="st1" width="2" height="0.4"/>
								</g>
								<g>
									<rect x="69.8" y="63" class="st1" width="1.9" height="0.4"/>
								</g>
							</g>
						</g>
					</g>
				</g>
				<g>
					<g>
						<g>
							<g>
								<g>
									<polygon class="st1" points="63,70.7 62.6,70.7 62.9,68.8 63.3,68.8 									"/>
								</g>
								<g>
									
										<rect x="64.3" y="56.4" transform="matrix(0.1735 -0.9848 0.9848 0.1735 -1.8907 111.0537)" class="st1" width="1.9" height="0.4"/>
								</g>
							</g>
						</g>
						<g>
							<g>
								<g>
									<path class="st7" d="M69.7,64.2"/>
								</g>
								<g>
									<path class="st7" d="M71.6,64.5"/>
								</g>
							</g>
						</g>
					</g>
				</g>
				<g>
					<g>
						<g>
							<g>
								<g>
									<g>
										
											<rect x="57.6" y="59.9" transform="matrix(0.3529 -0.9356 0.9356 0.3529 -19.5072 93.5057)" class="st1" width="0.4" height="1.9"/>
									</g>
									<g>
										
											<rect x="70.1" y="64.6" transform="matrix(0.3527 -0.9357 0.9357 0.3527 -15.8369 108.2039)" class="st1" width="0.4" height="1.9"/>
									</g>
								</g>
							</g>
						</g>
					</g>
					<g>
						<g>
							<g>
								<g>
									<g>
										<polygon class="st1" points="60.3,69.8 60,69.6 61,68 61.3,68.2 										"/>
									</g>
									<g>
										
											<rect x="66.5" y="57.3" transform="matrix(0.5159 -0.8567 0.8567 0.5159 -16.5855 85.6682)" class="st1" width="1.9" height="0.4"/>
									</g>
								</g>
							</g>
							<g>
								<g>
									<g>
										<path class="st7" d="M68.9,66.1"/>
									</g>
									<g>
										<path class="st7" d="M70.6,67.1"/>
									</g>
								</g>
							</g>
						</g>
					</g>
				</g>
				<g>
					<g>
						<g>
							<g>
								<g>
									
										<rect x="58.8" y="58" transform="matrix(0.6412 -0.7673 0.7673 0.6412 -24.0729 66.3956)" class="st1" width="0.4" height="1.9"/>
								</g>
								<g>
									
										<rect x="69" y="66.5" transform="matrix(0.6408 -0.7677 0.7677 0.6408 -26.9436 77.3362)" class="st1" width="0.4" height="1.9"/>
								</g>
							</g>
						</g>
					</g>
				</g>
				<g>
					<g>
						<g>
							<g>
								<g>
									
										<rect x="58" y="67.2" transform="matrix(0.7698 -0.6383 0.6383 0.7698 -29.4806 53.1617)" class="st1" width="1.9" height="0.4"/>
								</g>
								<g>
									
										<rect x="68.2" y="58.8" transform="matrix(0.7688 -0.6394 0.6394 0.7688 -21.7054 57.8677)" class="st1" width="1.9" height="0.4"/>
								</g>
							</g>
						</g>
					</g>
				</g>
				<g>
					<g>
						<g>
							<g>
								
									<rect x="60.6" y="56.5" transform="matrix(0.8705 -0.4922 0.4922 0.8705 -20.3841 37.3598)" class="st1" width="0.4" height="1.9"/>
							</g>
							<g>
								
									<rect x="67.1" y="68" transform="matrix(0.8703 -0.4925 0.4925 0.8703 -25.244 42.1141)" class="st1" width="0.4" height="1.9"/>
							</g>
						</g>
					</g>
				</g>
				<g>
					<g>
						<g>
							<g>
								
									<rect x="56.8" y="65.2" transform="matrix(0.9454 -0.3259 0.3259 0.9454 -18.1515 22.4044)" class="st1" width="1.9" height="0.4"/>
							</g>
							<g>
								<polygon class="st1" points="69.5,61.5 69.4,61.2 71.2,60.5 71.3,60.9 								"/>
							</g>
						</g>
					</g>
				</g>
				<g>
					<g>
						<g>
							<g>
								
									<rect x="62.8" y="55.7" transform="matrix(0.986 -0.1669 0.1669 0.986 -8.5736 11.3042)" class="st1" width="0.4" height="1.9"/>
							</g>
							<g>
								
									<rect x="65" y="68.8" transform="matrix(0.9861 -0.1664 0.1664 0.9861 -10.7014 11.8215)" class="st1" width="0.4" height="1.9"/>
							</g>
						</g>
					</g>
				</g>
			</g>
			<g>
				<path class="st1" d="M64.1,71c-4.3,0-7.8-3.5-7.8-7.8c0-4.3,3.5-7.8,7.8-7.8c4.3,0,7.8,3.5,7.8,7.8C71.9,67.5,68.4,71,64.1,71z
					 M64.1,55.8c-4.1,0-7.4,3.3-7.4,7.4c0,4.1,3.3,7.4,7.4,7.4c4.1,0,7.4-3.3,7.4-7.4C71.5,59.1,68.2,55.8,64.1,55.8z"/>
			</g>
			<g>
				<path class="st1" d="M64.1,69.1c-3.2,0-5.9-2.6-5.9-5.9c0-3.2,2.6-5.9,5.9-5.9c3.2,0,5.9,2.6,5.9,5.9
					C70,66.5,67.3,69.1,64.1,69.1z M64.1,57.7c-3,0-5.5,2.5-5.5,5.5c0,3,2.5,5.5,5.5,5.5c3,0,5.5-2.5,5.5-5.5
					C69.6,60.2,67.1,57.7,64.1,57.7z"/>
			</g>
		</g>
		<g>
			<g>
				<g>
					<g>
						<g>
							<g>
								<g>
									<path class="st7" d="M66.4,63.2"/>
								</g>
								<g>
									<path class="st7" d="M67.1,63.2"/>
								</g>
							</g>
						</g>
					</g>
				</g>
				<g>
					<g>
						<g>
							<g>
								<g>
									<path class="st7" d="M63.5,66.2"/>
								</g>
								<g>
									
										<rect x="63" y="65.4" transform="matrix(0.1715 -0.9852 0.9852 0.1715 -11.8808 117.0403)" class="st1" width="1.3" height="0.4"/>
								</g>
								<g>
									
										<rect x="63.8" y="60.6" transform="matrix(0.1734 -0.9849 0.9849 0.1734 -6.5952 113.7823)" class="st1" width="1.3" height="0.4"/>
								</g>
							</g>
						</g>
						<g>
							<g>
								<g>
									<path class="st7" d="M66.3,63.6"/>
								</g>
								<g>
									<path class="st7" d="M67.1,63.7"/>
								</g>
							</g>
						</g>
					</g>
				</g>
				<g>
					<g>
						<g>
							<g>
								<g>
									<g>
										<path class="st7" d="M66,64.4"/>
									</g>
									<g>
										<path class="st7" d="M66.7,64.8"/>
									</g>
								</g>
							</g>
						</g>
					</g>
				</g>
				<g>
					<g>
						<g>
							<g>
								<g>
									
										<rect x="61.5" y="64.5" transform="matrix(0.7698 -0.6383 0.6383 0.7698 -27.0081 54.6117)" class="st1" width="1.3" height="0.4"/>
								</g>
								<g>
									<polygon class="st1" points="65.5,62.2 65.3,61.9 66.3,61.1 66.6,61.4 									"/>
								</g>
							</g>
						</g>
					</g>
				</g>
				<g>
					<g>
						<g>
							<g>
								
									<rect x="62.7" y="60.4" transform="matrix(0.8704 -0.4924 0.4924 0.8704 -21.9341 38.8821)" class="st1" width="0.4" height="1.3"/>
							</g>
							<g>
								
									<rect x="65" y="64.6" transform="matrix(0.8703 -0.4925 0.4925 0.8703 -23.7014 40.6083)" class="st1" width="0.4" height="1.3"/>
							</g>
							<g>
								<path class="st7" d="M65.6,65.9"/>
							</g>
						</g>
					</g>
				</g>
				<g>
					<g>
						<g>
							<g>
								<path class="st7" d="M66.2,62.5"/>
							</g>
							<g>
								<path class="st7" d="M67,62.2"/>
							</g>
						</g>
					</g>
				</g>
			</g>
			<g>
				<path class="st1" d="M64.1,66.5c-1.8,0-3.3-1.5-3.3-3.3s1.5-3.3,3.3-3.3c1.8,0,3.3,1.5,3.3,3.3S65.9,66.5,64.1,66.5z M64.1,60.3
					c-1.6,0-2.9,1.3-2.9,2.9c0,1.6,1.3,2.9,2.9,2.9c1.6,0,2.9-1.3,2.9-2.9C66.9,61.6,65.7,60.3,64.1,60.3z"/>
			</g>
			<g>
				<path class="st1" d="M64.1,65.2c-0.1,0-0.2,0-0.3,0c-0.5-0.1-0.9-0.3-1.2-0.7c-0.3-0.4-0.5-0.8-0.5-1.3c0-1.1,0.9-2,2-2
					c0.1,0,0.2,0,0.3,0c0.5,0.1,0.9,0.3,1.2,0.7c0.3,0.4,0.5,0.8,0.5,1.3C66,64.3,65.1,65.2,64.1,65.2z M64.1,61.7
					c-0.9,0-1.5,0.7-1.5,1.5c0,0.4,0.1,0.7,0.4,1c0.2,0.3,0.6,0.5,0.9,0.5c0.1,0,0.2,0,0.3,0c0.9,0,1.5-0.7,1.5-1.5
					c0-0.4-0.1-0.7-0.4-1c-0.2-0.3-0.6-0.5-0.9-0.5C64.2,61.7,64.2,61.7,64.1,61.7z"/>
			</g>
		</g>
		<g>
			<path class="st7" d="M64.1,63.2"/>
		</g>
		<g>
			<path class="st7" d="M64.1,63.2"/>
		</g>
		<g>
			<path class="st7" d="M64.1,63.2"/>
		</g>
		<g>
			<path class="st7" d="M64.1,63.2"/>
		</g>
	</g>
</g>
</svg>
