<?xml version="1.0" encoding="utf-8"?>
<!-- Generator: Adobe Illustrator 21.1.0, SVG Export Plug-In . SVG Version: 6.00 Build 0)  -->
<svg version="1.1" id="Layer_1" xmlns="http://www.w3.org/2000/svg" xmlns:xlink="http://www.w3.org/1999/xlink" x="0px" y="0px"
	 width="142.6px" height="126.4px" viewBox="0 0 142.6 126.4" style="enable-background:new 0 0 142.6 126.4;" xml:space="preserve"
	>
<style type="text/css">
	.st0{fill:#4D4D4D;}
	.st1{fill:#8D734A;}
	.st2{fill:#B3B3B3;}
	.st3{fill:#BDBBBB;}
	.st4{fill:none;stroke:#BDBBBB;stroke-linecap:round;stroke-linejoin:round;stroke-miterlimit:10;}
</style>
<g>
	<g>
		<g>
			<polygon class="st0" points="115.8,47.8 54.9,47.8 54.9,47 115,47 115,34.8 103.4,34.8 103.4,39.5 96.8,39.5 96.8,34.8 
				91.9,34.8 91.9,37.4 86.8,37.4 86.8,34.8 81.5,34.8 81.5,38.4 74.9,38.4 74.9,34.8 54.9,34.8 54.9,34 75.7,34 75.7,37.6 
				80.7,37.6 80.7,34 87.6,34 87.6,36.6 91.1,36.6 91.1,34 97.6,34 97.6,38.7 102.6,38.7 102.6,34 115.8,34 			"/>
		</g>
		<g>
			<path class="st1" d="M54.9,81.8h-39c-0.2,0-0.4-0.2-0.4-0.4v-8.3L0.2,65.8c-0.1,0-0.2-0.2-0.2-0.3V16.4c0-0.2,0.1-0.3,0.2-0.4
				l15.2-7.2V0.4c0-0.2,0.2-0.4,0.4-0.4h39c0.2,0,0.4,0.2,0.4,0.4v81C55.3,81.6,55.1,81.8,54.9,81.8z M16.3,81h38.2V0.8H16.3V9
				c0,0.2-0.1,0.3-0.2,0.4L0.8,16.6v48.6L16,72.5c0.1,0.1,0.2,0.2,0.2,0.4L16.3,81L16.3,81z M15.9,9L15.9,9L15.9,9z"/>
		</g>
		<g>
			<path class="st2" d="M50.4,77.4H20.3c-0.2,0-0.4-0.2-0.4-0.4v-6.7L4.7,63c-0.1-0.1-0.2-0.2-0.2-0.4V19.2c0-0.2,0.1-0.3,0.2-0.4
				l15.2-7.2V4.8c0-0.2,0.2-0.4,0.4-0.4h30.1c0.2,0,0.4,0.2,0.4,0.4V77C50.8,77.2,50.6,77.4,50.4,77.4z M20.7,76.6H50V5.2H20.7v6.6
				c0,0.2-0.1,0.3-0.2,0.4L5.2,19.4v43l15.2,7.2c0.1,0.1,0.2,0.2,0.2,0.4v6.6H20.7z"/>
		</g>
		<g>
			<path class="st1" d="M18.1,58.8h-7.7c-0.2,0-0.4-0.2-0.4-0.4v-35c0-0.2,0.2-0.4,0.4-0.4h7.7c0.2,0,0.4,0.2,0.4,0.4v35
				C18.5,58.6,18.3,58.8,18.1,58.8z M10.8,58h6.9V23.8h-6.9C10.8,23.8,10.8,58,10.8,58z"/>
		</g>
	</g>
	<g>
		<g>
			<g>
				<path class="st3" d="M102.9,124.6H52.4c-3.6,0-6.6-3-6.6-6.6s3-6.6,6.6-6.6H103c3.6,0,6.6,3,6.6,6.6S106.6,124.6,102.9,124.6z
					 M52.4,112.2c-3.2,0-5.8,2.6-5.8,5.8s2.6,5.8,5.8,5.8H103c3.2,0,5.8-2.6,5.8-5.8s-2.6-5.8-5.8-5.8H52.4z"/>
			</g>
			<g>
				<g>
					<path class="st3" d="M80.4,126.4c-0.2,0-0.4-0.2-0.4-0.4v-1.8c0-0.2,0.2-0.4,0.4-0.4s0.4,0.2,0.4,0.4v1.8
						C80.8,126.2,80.6,126.4,80.4,126.4z"/>
				</g>
				<g>
					<path class="st3" d="M82.2,126.4c-0.2,0-0.4-0.2-0.4-0.4v-1.8c0-0.2,0.2-0.4,0.4-0.4s0.4,0.2,0.4,0.4v1.8
						C82.6,126.2,82.4,126.4,82.2,126.4z"/>
				</g>
				<g>
					<path class="st3" d="M84.1,126.4c-0.2,0-0.4-0.2-0.4-0.4v-1.8c0-0.2,0.2-0.4,0.4-0.4c0.2,0,0.4,0.2,0.4,0.4v1.8
						C84.5,126.2,84.3,126.4,84.1,126.4z"/>
				</g>
				<g>
					<path class="st3" d="M85.9,126.4c-0.2,0-0.4-0.2-0.4-0.4v-1.8c0-0.2,0.2-0.4,0.4-0.4c0.2,0,0.4,0.2,0.4,0.4v1.8
						C86.3,126.2,86.1,126.4,85.9,126.4z"/>
				</g>
				<g>
					<path class="st3" d="M87.7,126.4c-0.2,0-0.4-0.2-0.4-0.4v-1.8c0-0.2,0.2-0.4,0.4-0.4s0.4,0.2,0.4,0.4v1.8
						C88.1,126.2,87.9,126.4,87.7,126.4z"/>
				</g>
				<g>
					<path class="st3" d="M89.5,126.4c-0.2,0-0.4-0.2-0.4-0.4v-1.8c0-0.2,0.2-0.4,0.4-0.4c0.2,0,0.4,0.2,0.4,0.4v1.8
						C89.9,126.2,89.8,126.4,89.5,126.4z"/>
				</g>
				<g>
					<path class="st3" d="M91.4,126.4c-0.2,0-0.4-0.2-0.4-0.4v-1.8c0-0.2,0.2-0.4,0.4-0.4c0.2,0,0.4,0.2,0.4,0.4v1.8
						C91.8,126.2,91.6,126.4,91.4,126.4z"/>
				</g>
				<g>
					<path class="st3" d="M93.2,126.4c-0.2,0-0.4-0.2-0.4-0.4v-1.8c0-0.2,0.2-0.4,0.4-0.4s0.4,0.2,0.4,0.4v1.8
						C93.6,126.2,93.4,126.4,93.2,126.4z"/>
				</g>
				<g>
					<path class="st3" d="M95,126.4c-0.2,0-0.4-0.2-0.4-0.4v-1.8c0-0.2,0.2-0.4,0.4-0.4s0.4,0.2,0.4,0.4v1.8
						C95.4,126.2,95.2,126.4,95,126.4z"/>
				</g>
				<g>
					<path class="st3" d="M96.8,126.4c-0.2,0-0.4-0.2-0.4-0.4v-1.8c0-0.2,0.2-0.4,0.4-0.4s0.4,0.2,0.4,0.4v1.8
						C97.2,126.2,97.1,126.4,96.8,126.4z"/>
				</g>
				<g>
					<path class="st3" d="M98.7,126.4c-0.2,0-0.4-0.2-0.4-0.4v-1.8c0-0.2,0.2-0.4,0.4-0.4c0.2,0,0.4,0.2,0.4,0.4v1.8
						C99.1,126.2,98.9,126.4,98.7,126.4z"/>
				</g>
				<g>
					<path class="st3" d="M100.5,126.4c-0.2,0-0.4-0.2-0.4-0.4v-1.8c0-0.2,0.2-0.4,0.4-0.4s0.4,0.2,0.4,0.4v1.8
						C100.9,126.2,100.7,126.4,100.5,126.4z"/>
				</g>
				<g>
					<path class="st3" d="M102.3,126.4c-0.2,0-0.4-0.2-0.4-0.4v-1.8c0-0.2,0.2-0.4,0.4-0.4s0.4,0.2,0.4,0.4v1.8
						C102.7,126.2,102.5,126.4,102.3,126.4z"/>
				</g>
				<g>
					<g>
						<path class="st3" d="M110.9,118.4h-1.8c-0.2,0-0.4-0.2-0.4-0.4s0.2-0.4,0.4-0.4h1.8c0.2,0,0.4,0.2,0.4,0.4
							S111.1,118.4,110.9,118.4z"/>
					</g>
					<g>
						<path class="st3" d="M104,112.3L104,112.3c-0.3,0-0.4-0.2-0.4-0.5l0.3-1.8c0-0.2,0.3-0.4,0.5-0.3c0.2,0,0.4,0.2,0.3,0.5
							l-0.3,1.8C104.4,112.1,104.2,112.3,104,112.3z"/>
					</g>
					<g>
						<path class="st3" d="M108.2,114.9c-0.1,0-0.2-0.1-0.3-0.2c-0.1-0.2-0.1-0.4,0.1-0.6l1.5-1.1c0.2-0.1,0.4-0.1,0.6,0.1
							c0.1,0.2,0.1,0.4-0.1,0.6l-1.5,1.1C108.4,114.9,108.3,114.9,108.2,114.9z"/>
					</g>
					<g>
						<path class="st3" d="M108.9,116.6c-0.2,0-0.3-0.1-0.4-0.3c-0.1-0.2,0-0.4,0.3-0.5l1.7-0.6c0.2-0.1,0.4,0,0.5,0.3
							c0.1,0.2,0,0.4-0.3,0.5L108.9,116.6L108.9,116.6z"/>
					</g>
					<g>
						<path class="st3" d="M105.6,112.8L105.6,112.8c-0.3-0.1-0.4-0.3-0.3-0.5l0.6-1.7c0.1-0.2,0.3-0.3,0.5-0.2
							c0.2,0.1,0.3,0.3,0.2,0.5l-0.6,1.7C105.9,112.7,105.8,112.8,105.6,112.8z"/>
					</g>
					<g>
						<path class="st3" d="M107.1,113.7c-0.1,0-0.2,0-0.3-0.1c-0.2-0.1-0.2-0.4-0.1-0.6l1.1-1.4c0.1-0.2,0.4-0.2,0.6-0.1
							s0.2,0.4,0.1,0.6l-1.1,1.4C107.3,113.6,107.2,113.7,107.1,113.7z"/>
					</g>
				</g>
				<g>
					<g>
						<path class="st3" d="M104.3,126.3c-0.2,0-0.4-0.1-0.4-0.3l-0.3-1.8c0-0.2,0.1-0.4,0.3-0.5c0.2,0,0.4,0.1,0.5,0.3l0.3,1.8
							C104.7,126,104.6,126.3,104.3,126.3L104.3,126.3z"/>
					</g>
					<g>
						<path class="st3" d="M109.7,122.9c-0.1,0-0.2,0-0.2-0.1l-1.5-1.1c-0.2-0.1-0.2-0.4-0.1-0.6s0.4-0.2,0.6-0.1l1.5,1.1
							c0.2,0.1,0.2,0.4,0.1,0.6C109.9,122.9,109.8,122.9,109.7,122.9z"/>
					</g>
					<g>
						<path class="st3" d="M110.6,120.7L110.6,120.7l-1.8-0.6c-0.2-0.1-0.3-0.3-0.3-0.5s0.3-0.3,0.5-0.3l1.7,0.6
							c0.2,0.1,0.3,0.3,0.3,0.5C110.9,120.6,110.8,120.7,110.6,120.7z"/>
					</g>
					<g>
						<path class="st3" d="M106.3,125.7c-0.2,0-0.3-0.1-0.4-0.3l-0.6-1.7c-0.1-0.2,0-0.4,0.2-0.5s0.4,0,0.5,0.2l0.6,1.7
							c0.1,0.2,0,0.4-0.2,0.5C106.4,125.6,106.3,125.7,106.3,125.7z"/>
					</g>
					<g>
						<path class="st3" d="M108.2,124.5c-0.1,0-0.2,0-0.3-0.1l-1.1-1.4c-0.1-0.2-0.1-0.4,0.1-0.6c0.2-0.1,0.4-0.1,0.6,0.1l1.1,1.4
							c0.1,0.2,0.1,0.4-0.1,0.6C108.4,124.5,108.3,124.5,108.2,124.5z"/>
					</g>
				</g>
				<g>
					<path class="st3" d="M74.9,126.4c-0.2,0-0.4-0.2-0.4-0.4v-1.8c0-0.2,0.2-0.4,0.4-0.4c0.2,0,0.4,0.2,0.4,0.4v1.8
						C75.3,126.2,75.1,126.4,74.9,126.4z"/>
				</g>
				<g>
					<path class="st3" d="M76.7,126.4c-0.2,0-0.4-0.2-0.4-0.4v-1.8c0-0.2,0.2-0.4,0.4-0.4c0.2,0,0.4,0.2,0.4,0.4v1.8
						C77.1,126.2,77,126.4,76.7,126.4z"/>
				</g>
				<g>
					<path class="st3" d="M78.6,126.4c-0.2,0-0.4-0.2-0.4-0.4v-1.8c0-0.2,0.2-0.4,0.4-0.4s0.4,0.2,0.4,0.4v1.8
						C79,126.2,78.8,126.4,78.6,126.4z"/>
				</g>
				<g>
					<path class="st3" d="M73.1,126.4c-0.2,0-0.4-0.2-0.4-0.4v-1.8c0-0.2,0.2-0.4,0.4-0.4s0.4,0.2,0.4,0.4v1.8
						C73.5,126.2,73.3,126.4,73.1,126.4z"/>
				</g>
				<g>
					<path class="st3" d="M71.3,126.4c-0.2,0-0.4-0.2-0.4-0.4v-1.8c0-0.2,0.2-0.4,0.4-0.4s0.4,0.2,0.4,0.4v1.8
						C71.7,126.2,71.5,126.4,71.3,126.4z"/>
				</g>
				<g>
					<path class="st3" d="M69.4,126.4c-0.2,0-0.4-0.2-0.4-0.4v-1.8c0-0.2,0.2-0.4,0.4-0.4c0.2,0,0.4,0.2,0.4,0.4v1.8
						C69.8,126.2,69.7,126.4,69.4,126.4z"/>
				</g>
				<g>
					<path class="st3" d="M67.6,126.4c-0.2,0-0.4-0.2-0.4-0.4v-1.8c0-0.2,0.2-0.4,0.4-0.4s0.4,0.2,0.4,0.4v1.8
						C68,126.2,67.8,126.4,67.6,126.4z"/>
				</g>
				<g>
					<path class="st3" d="M65.8,126.4c-0.2,0-0.4-0.2-0.4-0.4v-1.8c0-0.2,0.2-0.4,0.4-0.4s0.4,0.2,0.4,0.4v1.8
						C66.2,126.2,66,126.4,65.8,126.4z"/>
				</g>
				<g>
					<path class="st3" d="M63.9,126.4c-0.2,0-0.4-0.2-0.4-0.4v-1.8c0-0.2,0.2-0.4,0.4-0.4c0.2,0,0.4,0.2,0.4,0.4v1.8
						C64.3,126.2,64.2,126.4,63.9,126.4z"/>
				</g>
				<g>
					<path class="st3" d="M62.1,126.4c-0.2,0-0.4-0.2-0.4-0.4v-1.8c0-0.2,0.2-0.4,0.4-0.4s0.4,0.2,0.4,0.4v1.8
						C62.5,126.2,62.3,126.4,62.1,126.4z"/>
				</g>
				<g>
					<path class="st3" d="M60.3,126.4c-0.2,0-0.4-0.2-0.4-0.4v-1.8c0-0.2,0.2-0.4,0.4-0.4s0.4,0.2,0.4,0.4v1.8
						C60.7,126.2,60.5,126.4,60.3,126.4z"/>
				</g>
				<g>
					<path class="st3" d="M58.5,126.4c-0.2,0-0.4-0.2-0.4-0.4v-1.8c0-0.2,0.2-0.4,0.4-0.4s0.4,0.2,0.4,0.4v1.8
						C58.9,126.2,58.7,126.4,58.5,126.4z"/>
				</g>
				<g>
					<path class="st3" d="M56.6,126.4c-0.2,0-0.4-0.2-0.4-0.4v-1.8c0-0.2,0.2-0.4,0.4-0.4s0.4,0.2,0.4,0.4v1.8
						C57,126.2,56.9,126.4,56.6,126.4z"/>
				</g>
				<g>
					<path class="st3" d="M54.8,126.4c-0.2,0-0.4-0.2-0.4-0.4v-1.8c0-0.2,0.2-0.4,0.4-0.4s0.4,0.2,0.4,0.4v1.8
						C55.2,126.2,55,126.4,54.8,126.4z"/>
				</g>
				<g>
					<path class="st3" d="M53,126.4c-0.2,0-0.4-0.2-0.4-0.4v-1.8c0-0.2,0.2-0.4,0.4-0.4s0.4,0.2,0.4,0.4v1.8
						C53.4,126.2,53.2,126.4,53,126.4z"/>
				</g>
				<g>
					<path class="st3" d="M80.4,112.1c-0.2,0-0.4-0.2-0.4-0.4v-1.8c0-0.2,0.2-0.4,0.4-0.4s0.4,0.2,0.4,0.4v1.8
						C80.8,111.9,80.6,112.1,80.4,112.1z"/>
				</g>
				<g>
					<path class="st3" d="M82.2,112.1c-0.2,0-0.4-0.2-0.4-0.4v-1.8c0-0.2,0.2-0.4,0.4-0.4s0.4,0.2,0.4,0.4v1.8
						C82.6,111.9,82.4,112.1,82.2,112.1z"/>
				</g>
				<g>
					<path class="st3" d="M84.1,112.1c-0.2,0-0.4-0.2-0.4-0.4v-1.8c0-0.2,0.2-0.4,0.4-0.4c0.2,0,0.4,0.2,0.4,0.4v1.8
						C84.5,111.9,84.3,112.1,84.1,112.1z"/>
				</g>
				<g>
					<path class="st3" d="M85.9,112.1c-0.2,0-0.4-0.2-0.4-0.4v-1.8c0-0.2,0.2-0.4,0.4-0.4c0.2,0,0.4,0.2,0.4,0.4v1.8
						C86.3,111.9,86.1,112.1,85.9,112.1z"/>
				</g>
				<g>
					<path class="st3" d="M87.7,112.1c-0.2,0-0.4-0.2-0.4-0.4v-1.8c0-0.2,0.2-0.4,0.4-0.4s0.4,0.2,0.4,0.4v1.8
						C88.1,111.9,87.9,112.1,87.7,112.1z"/>
				</g>
				<g>
					<path class="st3" d="M89.5,112.1c-0.2,0-0.4-0.2-0.4-0.4v-1.8c0-0.2,0.2-0.4,0.4-0.4c0.2,0,0.4,0.2,0.4,0.4v1.8
						C89.9,111.9,89.8,112.1,89.5,112.1z"/>
				</g>
				<g>
					<path class="st3" d="M91.4,112.1c-0.2,0-0.4-0.2-0.4-0.4v-1.8c0-0.2,0.2-0.4,0.4-0.4c0.2,0,0.4,0.2,0.4,0.4v1.8
						C91.8,111.9,91.6,112.1,91.4,112.1z"/>
				</g>
				<g>
					<path class="st3" d="M93.2,112.1c-0.2,0-0.4-0.2-0.4-0.4v-1.8c0-0.2,0.2-0.4,0.4-0.4s0.4,0.2,0.4,0.4v1.8
						C93.6,111.9,93.4,112.1,93.2,112.1z"/>
				</g>
				<g>
					<path class="st3" d="M95,112.1c-0.2,0-0.4-0.2-0.4-0.4v-1.8c0-0.2,0.2-0.4,0.4-0.4s0.4,0.2,0.4,0.4v1.8
						C95.4,111.9,95.2,112.1,95,112.1z"/>
				</g>
				<g>
					<path class="st3" d="M96.8,112.1c-0.2,0-0.4-0.2-0.4-0.4v-1.8c0-0.2,0.2-0.4,0.4-0.4s0.4,0.2,0.4,0.4v1.8
						C97.2,111.9,97.1,112.1,96.8,112.1z"/>
				</g>
				<g>
					<path class="st3" d="M98.7,112.1c-0.2,0-0.4-0.2-0.4-0.4v-1.8c0-0.2,0.2-0.4,0.4-0.4c0.2,0,0.4,0.2,0.4,0.4v1.8
						C99.1,111.9,98.9,112.1,98.7,112.1z"/>
				</g>
				<g>
					<path class="st3" d="M100.5,112.1c-0.2,0-0.4-0.2-0.4-0.4v-1.8c0-0.2,0.2-0.4,0.4-0.4s0.4,0.2,0.4,0.4v1.8
						C100.9,111.9,100.7,112.1,100.5,112.1z"/>
				</g>
				<g>
					<path class="st3" d="M102.3,112.1c-0.2,0-0.4-0.2-0.4-0.4v-1.8c0-0.2,0.2-0.4,0.4-0.4s0.4,0.2,0.4,0.4v1.8
						C102.7,111.9,102.5,112.1,102.3,112.1z"/>
				</g>
				<g>
					<path class="st3" d="M74.9,112.1c-0.2,0-0.4-0.2-0.4-0.4v-1.8c0-0.2,0.2-0.4,0.4-0.4c0.2,0,0.4,0.2,0.4,0.4v1.8
						C75.3,111.9,75.1,112.1,74.9,112.1z"/>
				</g>
				<g>
					<path class="st3" d="M76.7,112.1c-0.2,0-0.4-0.2-0.4-0.4v-1.8c0-0.2,0.2-0.4,0.4-0.4c0.2,0,0.4,0.2,0.4,0.4v1.8
						C77.1,111.9,77,112.1,76.7,112.1z"/>
				</g>
				<g>
					<path class="st3" d="M78.6,112.1c-0.2,0-0.4-0.2-0.4-0.4v-1.8c0-0.2,0.2-0.4,0.4-0.4s0.4,0.2,0.4,0.4v1.8
						C79,111.9,78.8,112.1,78.6,112.1z"/>
				</g>
				<g>
					<path class="st3" d="M73.1,112.1c-0.2,0-0.4-0.2-0.4-0.4v-1.8c0-0.2,0.2-0.4,0.4-0.4s0.4,0.2,0.4,0.4v1.8
						C73.5,111.9,73.3,112.1,73.1,112.1z"/>
				</g>
				<g>
					<path class="st3" d="M71.3,112.1c-0.2,0-0.4-0.2-0.4-0.4v-1.8c0-0.2,0.2-0.4,0.4-0.4s0.4,0.2,0.4,0.4v1.8
						C71.7,111.9,71.5,112.1,71.3,112.1z"/>
				</g>
				<g>
					<path class="st3" d="M69.4,112.1c-0.2,0-0.4-0.2-0.4-0.4v-1.8c0-0.2,0.2-0.4,0.4-0.4c0.2,0,0.4,0.2,0.4,0.4v1.8
						C69.8,111.9,69.7,112.1,69.4,112.1z"/>
				</g>
				<g>
					<path class="st3" d="M67.6,112.1c-0.2,0-0.4-0.2-0.4-0.4v-1.8c0-0.2,0.2-0.4,0.4-0.4s0.4,0.2,0.4,0.4v1.8
						C68,111.9,67.8,112.1,67.6,112.1z"/>
				</g>
				<g>
					<path class="st3" d="M65.8,112.1c-0.2,0-0.4-0.2-0.4-0.4v-1.8c0-0.2,0.2-0.4,0.4-0.4s0.4,0.2,0.4,0.4v1.8
						C66.2,111.9,66,112.1,65.8,112.1z"/>
				</g>
				<g>
					<path class="st3" d="M63.9,112.1c-0.2,0-0.4-0.2-0.4-0.4v-1.8c0-0.2,0.2-0.4,0.4-0.4c0.2,0,0.4,0.2,0.4,0.4v1.8
						C64.3,111.9,64.2,112.1,63.9,112.1z"/>
				</g>
				<g>
					<path class="st3" d="M62.1,112.1c-0.2,0-0.4-0.2-0.4-0.4v-1.8c0-0.2,0.2-0.4,0.4-0.4s0.4,0.2,0.4,0.4v1.8
						C62.5,111.9,62.3,112.1,62.1,112.1z"/>
				</g>
				<g>
					<path class="st3" d="M60.3,112.1c-0.2,0-0.4-0.2-0.4-0.4v-1.8c0-0.2,0.2-0.4,0.4-0.4s0.4,0.2,0.4,0.4v1.8
						C60.7,111.9,60.5,112.1,60.3,112.1z"/>
				</g>
				<g>
					<path class="st3" d="M58.5,112.1c-0.2,0-0.4-0.2-0.4-0.4v-1.8c0-0.2,0.2-0.4,0.4-0.4s0.4,0.2,0.4,0.4v1.8
						C58.9,111.9,58.7,112.1,58.5,112.1z"/>
				</g>
				<g>
					<path class="st3" d="M56.6,112.1c-0.2,0-0.4-0.2-0.4-0.4v-1.8c0-0.2,0.2-0.4,0.4-0.4s0.4,0.2,0.4,0.4v1.8
						C57,111.9,56.9,112.1,56.6,112.1z"/>
				</g>
				<g>
					<path class="st3" d="M54.8,112.1c-0.2,0-0.4-0.2-0.4-0.4v-1.8c0-0.2,0.2-0.4,0.4-0.4s0.4,0.2,0.4,0.4v1.8
						C55.2,111.9,55,112.1,54.8,112.1z"/>
				</g>
				<g>
					<path class="st3" d="M53,112.1c-0.2,0-0.4-0.2-0.4-0.4v-1.8c0-0.2,0.2-0.4,0.4-0.4s0.4,0.2,0.4,0.4v1.8
						C53.4,111.9,53.2,112.1,53,112.1z"/>
				</g>
				<g>
					<g>
						<path class="st3" d="M45.9,118.4h-1.8c-0.2,0-0.4-0.2-0.4-0.4s0.2-0.4,0.4-0.4h1.8c0.2,0,0.4,0.2,0.4,0.4
							S46.1,118.4,45.9,118.4z"/>
					</g>
					<g>
						<path class="st3" d="M51,112.3c-0.2,0-0.4-0.1-0.4-0.3l-0.3-1.8c0-0.2,0.1-0.4,0.3-0.5c0.2,0,0.4,0.1,0.5,0.3l0.3,1.8
							C51.5,112,51.3,112.2,51,112.3C51.1,112.3,51.1,112.3,51,112.3z"/>
					</g>
					<g>
						<path class="st3" d="M46.8,114.9c-0.1,0-0.2,0-0.2-0.1l-1.5-1.1c-0.2-0.1-0.2-0.4-0.1-0.6c0.1-0.2,0.4-0.2,0.6-0.1l1.5,1.1
							c0.2,0.1,0.2,0.4,0.1,0.6C47.1,114.8,47,114.9,46.8,114.9z"/>
					</g>
					<g>
						<path class="st3" d="M46.1,116.6L46.1,116.6l-1.8-0.6c-0.2-0.1-0.3-0.3-0.3-0.5c0.1-0.2,0.3-0.3,0.5-0.3l1.7,0.6
							c0.2,0.1,0.3,0.3,0.3,0.5C46.5,116.5,46.3,116.6,46.1,116.6z"/>
					</g>
					<g>
						<path class="st3" d="M49.4,112.8c-0.2,0-0.3-0.1-0.4-0.3l-0.6-1.7c-0.1-0.2,0-0.4,0.2-0.5s0.4,0,0.5,0.2l0.6,1.7
							c0.1,0.2,0,0.4-0.2,0.5C49.5,112.8,49.5,112.8,49.4,112.8z"/>
					</g>
					<g>
						<path class="st3" d="M48,113.7c-0.1,0-0.2,0-0.3-0.1l-1.1-1.4c-0.1-0.2-0.1-0.4,0.1-0.6c0.2-0.1,0.4-0.1,0.6,0.1l1.1,1.4
							c0.1,0.2,0.1,0.4-0.1,0.6C48.2,113.6,48.1,113.7,48,113.7z"/>
					</g>
				</g>
				<g>
					<g>
						<path class="st3" d="M50.8,126.3C50.7,126.3,50.7,126.3,50.8,126.3c-0.3,0-0.4-0.2-0.4-0.5l0.3-1.8c0-0.2,0.2-0.4,0.5-0.3
							c0.2,0,0.4,0.2,0.3,0.5l-0.3,1.8C51.1,126.2,50.9,126.3,50.8,126.3z"/>
					</g>
					<g>
						<path class="st3" d="M45.4,122.9c-0.1,0-0.2-0.1-0.3-0.2c-0.1-0.2-0.1-0.4,0.1-0.6l1.5-1.1c0.2-0.1,0.4-0.1,0.6,0.1
							c0.1,0.2,0.1,0.4-0.1,0.6l-1.5,1.1C45.5,122.9,45.5,122.9,45.4,122.9z"/>
					</g>
					<g>
						<path class="st3" d="M44.4,120.7c-0.2,0-0.3-0.1-0.4-0.3c-0.1-0.2,0-0.4,0.3-0.5l1.7-0.6c0.2-0.1,0.4,0,0.5,0.3
							c0.1,0.2,0,0.4-0.3,0.5L44.4,120.7C44.5,120.7,44.5,120.7,44.4,120.7z"/>
					</g>
					<g>
						<path class="st3" d="M48.8,125.7L48.8,125.7c-0.3-0.1-0.4-0.3-0.3-0.5l0.6-1.7c0.1-0.2,0.3-0.3,0.5-0.2
							c0.2,0.1,0.3,0.3,0.2,0.5l-0.6,1.7C49.1,125.6,48.9,125.7,48.8,125.7z"/>
					</g>
					<g>
						<path class="st3" d="M46.8,124.5c-0.1,0-0.2,0-0.3-0.1c-0.2-0.1-0.2-0.4-0.1-0.6l1.1-1.4c0.1-0.2,0.4-0.2,0.6-0.1
							c0.2,0.1,0.2,0.4,0.1,0.6l-1.1,1.4C47.1,124.5,47,124.5,46.8,124.5z"/>
					</g>
				</g>
			</g>
		</g>
		<g>
			<g>
				<g>
					<path class="st3" d="M102.2,122.9c-2.7,0-4.9-2.2-4.9-4.9c0-2.7,2.2-4.9,4.9-4.9c2.7,0,4.9,2.2,4.9,4.9
						C107,120.8,104.9,122.9,102.2,122.9z M102.2,114c-2.3,0-4.1,1.8-4.1,4.1s1.8,4.1,4.1,4.1c2.3,0,4.1-1.8,4.1-4.1
						S104.4,114,102.2,114z"/>
				</g>
				<g>
					<path class="st3" d="M102.2,121.3c-1.8,0-3.2-1.4-3.2-3.2c0-1.8,1.4-3.2,3.2-3.2s3.2,1.4,3.2,3.2
						C105.4,119.8,103.9,121.3,102.2,121.3z M102.2,115.7c-1.3,0-2.4,1.1-2.4,2.4s1.1,2.4,2.4,2.4s2.4-1.1,2.4-2.4
						C104.6,116.7,103.5,115.7,102.2,115.7z"/>
				</g>
			</g>
			<g>
				<g>
					<path class="st3" d="M91.9,122.9c-2.7,0-4.9-2.2-4.9-4.9c0-2.7,2.2-4.9,4.9-4.9c2.7,0,4.9,2.2,4.9,4.9
						C96.8,120.8,94.6,122.9,91.9,122.9z M91.9,114c-2.3,0-4.1,1.8-4.1,4.1s1.8,4.1,4.1,4.1c2.3,0,4.1-1.8,4.1-4.1
						S94.2,114,91.9,114z"/>
				</g>
				<g>
					<path class="st3" d="M91.9,121.3c-1.8,0-3.2-1.4-3.2-3.2c0-1.8,1.4-3.2,3.2-3.2c1.8,0,3.2,1.4,3.2,3.2
						C95.1,119.8,93.7,121.3,91.9,121.3z M91.9,115.7c-1.3,0-2.4,1.1-2.4,2.4s1.1,2.4,2.4,2.4s2.4-1.1,2.4-2.4
						C94.3,116.7,93.3,115.7,91.9,115.7z"/>
				</g>
			</g>
			<g>
				<g>
					<path class="st3" d="M81.7,122.9c-2.7,0-4.9-2.2-4.9-4.9c0-2.7,2.2-4.9,4.9-4.9c2.7,0,4.9,2.2,4.9,4.9
						C86.6,120.8,84.4,122.9,81.7,122.9z M81.7,114c-2.3,0-4.1,1.8-4.1,4.1s1.8,4.1,4.1,4.1c2.3,0,4.1-1.8,4.1-4.1S84,114,81.7,114z
						"/>
				</g>
				<g>
					<path class="st3" d="M81.7,121.3c-1.8,0-3.2-1.4-3.2-3.2c0-1.8,1.4-3.2,3.2-3.2c1.8,0,3.2,1.4,3.2,3.2
						C84.9,119.8,83.5,121.3,81.7,121.3z M81.7,115.7c-1.3,0-2.4,1.1-2.4,2.4s1.1,2.4,2.4,2.4s2.4-1.1,2.4-2.4
						C84.1,116.7,83.1,115.7,81.7,115.7z"/>
				</g>
			</g>
			<g>
				<g>
					<path class="st3" d="M71.5,122.9c-2.7,0-4.9-2.2-4.9-4.9c0-2.7,2.2-4.9,4.9-4.9c2.7,0,4.9,2.2,4.9,4.9
						C76.4,120.8,74.2,122.9,71.5,122.9z M71.5,114c-2.3,0-4.1,1.8-4.1,4.1s1.8,4.1,4.1,4.1c2.3,0,4.1-1.8,4.1-4.1
						S73.8,114,71.5,114z"/>
				</g>
				<g>
					<path class="st3" d="M71.5,121.3c-1.8,0-3.2-1.4-3.2-3.2c0-1.8,1.4-3.2,3.2-3.2c1.8,0,3.2,1.4,3.2,3.2
						C74.7,119.8,73.3,121.3,71.5,121.3z M71.5,115.7c-1.3,0-2.4,1.1-2.4,2.4s1.1,2.4,2.4,2.4s2.4-1.1,2.4-2.4
						C73.9,116.7,72.8,115.7,71.5,115.7z"/>
				</g>
			</g>
			<g>
				<g>
					<path class="st3" d="M61.3,122.9c-2.7,0-4.9-2.2-4.9-4.9c0-2.7,2.2-4.9,4.9-4.9s4.9,2.2,4.9,4.9
						C66.2,120.8,64,122.9,61.3,122.9z M61.3,114c-2.3,0-4.1,1.8-4.1,4.1s1.8,4.1,4.1,4.1s4.1-1.8,4.1-4.1S63.5,114,61.3,114z"/>
				</g>
				<g>
					<path class="st3" d="M61.3,121.3c-1.8,0-3.2-1.4-3.2-3.2c0-1.8,1.4-3.2,3.2-3.2s3.2,1.4,3.2,3.2
						C64.5,119.8,63.1,121.3,61.3,121.3z M61.3,115.7c-1.3,0-2.4,1.1-2.4,2.4s1.1,2.4,2.4,2.4c1.3,0,2.4-1.1,2.4-2.4
						C63.7,116.7,62.6,115.7,61.3,115.7z"/>
				</g>
			</g>
			<g>
				<path class="st3" d="M53.3,121.1c-0.1,0-0.3-0.1-0.3-0.2l-0.6-1c-0.2,0-0.3,0-0.5,0l-0.6,1c-0.1,0.2-0.3,0.2-0.5,0.2
					c-0.2-0.1-0.3-0.1-0.5-0.2s-0.3-0.3-0.2-0.5l0.3-1.2c-0.1-0.1-0.2-0.2-0.3-0.3l-1.2,0.3c-0.2,0-0.4,0-0.5-0.2s-0.2-0.3-0.2-0.5
					c-0.1-0.2,0-0.4,0.2-0.5l1-0.6c0-0.1,0-0.2,0-0.2c0-0.1,0-0.2,0-0.2l-1-0.6c-0.2-0.1-0.2-0.3-0.2-0.5c0.1-0.2,0.1-0.3,0.2-0.5
					c0.1-0.2,0.3-0.3,0.5-0.2l1.2,0.3c0.1-0.1,0.2-0.2,0.3-0.3l-0.3-1.2c0-0.2,0-0.4,0.2-0.5s0.3-0.2,0.5-0.2c0.2-0.1,0.4,0,0.5,0.2
					l0.6,1c0.2,0,0.3,0,0.5,0l0.6-1c0.1-0.2,0.3-0.2,0.5-0.2c0.2,0.1,0.3,0.1,0.5,0.2s0.3,0.3,0.2,0.5l-0.3,1.2
					c0.1,0.1,0.2,0.2,0.3,0.3l1.2-0.3c0.2,0,0.4,0,0.5,0.2s0.2,0.3,0.2,0.5c0.1,0.2,0,0.4-0.2,0.5l-1,0.6c0,0.1,0,0.2,0,0.2
					c0,0.1,0,0.2,0,0.2l1,0.6c0.2,0.1,0.2,0.3,0.2,0.5c-0.1,0.2-0.1,0.3-0.2,0.5c-0.1,0.2-0.3,0.3-0.5,0.2l-1.2-0.3
					c-0.1,0.1-0.2,0.2-0.3,0.3l0.3,1.2c0,0.2,0,0.4-0.2,0.5s-0.3,0.1-0.5,0.2C53.4,121.1,53.3,121.1,53.3,121.1z M50.1,118.1
					c0.1,0,0.3,0.1,0.3,0.2c0.1,0.2,0.3,0.4,0.5,0.5c0.1,0.1,0.2,0.3,0.2,0.4l-0.1,0.5l0.3-0.5c0.1-0.1,0.3-0.2,0.4-0.2
					c0.2,0,0.5,0,0.7,0s0.3,0,0.4,0.2l0.3,0.5l-0.1-0.5c0-0.2,0-0.3,0.2-0.4s0.4-0.3,0.5-0.5c0.1-0.1,0.3-0.2,0.4-0.2l0.5,0.1
					l-0.4-0.3c-0.1-0.1-0.2-0.3-0.2-0.4s0-0.2,0-0.4c0-0.1,0-0.2,0-0.4c0-0.2,0-0.3,0.2-0.4l0.5-0.3l-0.5,0.1c-0.2,0-0.3,0-0.4-0.2
					c-0.1-0.2-0.3-0.4-0.5-0.5c-0.1-0.1-0.2-0.3-0.2-0.4l0.1-0.5l-0.3,0.5c-0.1,0.1-0.2,0.2-0.4,0.2s-0.5,0-0.7,0s-0.3,0-0.4-0.2
					l-0.3-0.5l0.1,0.5c0,0.2,0,0.3-0.2,0.4s-0.4,0.3-0.5,0.5c-0.1,0.1-0.3,0.2-0.4,0.2l-0.5-0.1l0.5,0.3c0.1,0.1,0.2,0.3,0.2,0.4
					s0,0.2,0,0.4c0,0.1,0,0.2,0,0.4c0,0.2,0,0.3-0.2,0.4l-0.5,0.3L50.1,118.1C50,118.1,50.1,118.1,50.1,118.1z"/>
			</g>
		</g>
		<g>
			<g>
				<g>
					<path class="st3" d="M66.8,108.2H51.3c-0.2,0-0.4-0.2-0.4-0.4v-1.6c0-0.2,0.2-0.4,0.4-0.4H67c0.2,0,0.4,0.2,0.4,0.4
						c0,0.2-0.2,0.4-0.4,0.4H51.7v0.8h15.1c0.2,0,0.4,0.2,0.4,0.4S67,108.2,66.8,108.2z"/>
				</g>
				<g>
					<path class="st3" d="M53.1,106.6c-0.2,0-0.4-0.2-0.4-0.4v-1.9c0-0.2,0.1-0.4,0.3-0.4l17.1-3.7c0.2,0,0.4,0.1,0.5,0.3
						c0,0.2-0.1,0.4-0.3,0.5l-16.8,3.6v1.5C53.5,106.4,53.4,106.6,53.1,106.6z"/>
				</g>
				<g>
					<path class="st4" d="M73.4,103.2"/>
				</g>
				<g>
					<path class="st3" d="M61,106.6c-0.2,0-0.4-0.2-0.4-0.4v-3.4c0-0.2,0.2-0.4,0.4-0.4s0.4,0.2,0.4,0.4v3.4
						C61.4,106.4,61.2,106.6,61,106.6z"/>
				</g>
				<g>
					<path class="st3" d="M77.5,96.4c-0.2,0-0.4-0.2-0.4-0.4v-6.9c0-0.1,0-0.2,0.1-0.3l2.5-2.2c0.1-0.1,0.3-0.1,0.4-0.1
						c0.1,0.1,0.2,0.2,0.2,0.4v8.4c0,0.2-0.2,0.4-0.4,0.4s-0.4-0.2-0.4-0.4v-7.5l-1.7,1.5V96C77.9,96.2,77.7,96.4,77.5,96.4z"/>
				</g>
				<g>
					<path class="st3" d="M54,97.4c-0.1,0-0.2,0-0.4-0.1c-0.3-0.2-0.6-0.5-0.7-1c-0.1-0.5-0.1-0.9,0-1.3c0.1-0.2,0.2-0.3,0.4-0.4
						c0.5-0.2,1,0.3,1.3,1.1l0,0c0.1,0.5,0.1,0.9,0,1.3c-0.1,0.2-0.2,0.3-0.4,0.4C54.1,97.4,54,97.4,54,97.4z M53.6,95.6
						c0,0.1,0,0.3,0.1,0.5s0.2,0.4,0.3,0.5c0-0.1,0-0.3-0.1-0.5l0,0C53.8,95.8,53.7,95.6,53.6,95.6z"/>
				</g>
				<g>
					<path class="st3" d="M66.7,108.2c-0.1,0-0.2-0.1-0.3-0.1c-0.1-0.1-0.1-0.2-0.1-0.3c0-0.1,2.2-11.9,14.3-12.5
						c0.1,0,0.2,0,0.3,0.1c0.1,0.1,0.1,0.2,0.1,0.3c-0.3,2.7-0.8,10.1,0.9,11.7c0.1,0.1,0.2,0.3,0.1,0.4c-0.1,0.2-0.2,0.3-0.4,0.3
						L66.7,108.2L66.7,108.2z M80.2,96.1c-9.9,0.7-12.5,9.2-13,11.3l13.7-0.1C79.4,104.7,80,98.1,80.2,96.1z"/>
				</g>
				<g>
					<path class="st3" d="M78.1,105.9L78.1,105.9l-8.8-0.9c-0.2,0-0.4-0.2-0.4-0.4c0-0.2,0.2-0.4,0.4-0.4l8.7,0.9
						c0.2,0,0.4,0.2,0.4,0.4C78.5,105.7,78.3,105.9,78.1,105.9z"/>
				</g>
				<g>
					<path class="st3" d="M78.1,103.9L78.1,103.9l-6.1-2.1c-0.2-0.1-0.3-0.3-0.2-0.5c0.1-0.2,0.3-0.3,0.5-0.2l6,2.1
						c0.2,0.1,0.3,0.3,0.2,0.5C78.4,103.8,78.3,103.9,78.1,103.9z"/>
				</g>
				<g>
					<path class="st3" d="M78.4,102.1c-0.1,0-0.2,0-0.2-0.1l-2.9-2.3c-0.2-0.1-0.2-0.4-0.1-0.6s0.4-0.2,0.6-0.1l2.9,2.3
						c0.2,0.1,0.2,0.4,0.1,0.6C78.7,102,78.5,102.1,78.4,102.1z"/>
				</g>
				<g>
					<path class="st3" d="M58.2,106.6c-0.2,0-0.3-0.1-0.4-0.2l-3.9-9.3c-0.1-0.2,0-0.4,0.2-0.5s0.4,0,0.5,0.2l3.9,9.3
						C58.6,106.3,58.5,106.5,58.2,106.6L58.2,106.6z"/>
				</g>
			</g>
			<g>
				<g>
					<g>
						<path class="st3" d="M98.2,87.3L98.2,87.3c-0.2,0-0.4-0.2-0.4-0.4v-2c0-0.2-0.1-0.4-0.2-0.5s-0.3-0.2-0.5-0.2
							s-0.4,0.1-0.5,0.2s-0.2,0.3-0.2,0.5v1.8c0,0.2-0.2,0.4-0.4,0.4l0,0c-0.2,0-0.4-0.2-0.4-0.4v-1.8c0-0.4,0.2-0.8,0.5-1.1
							c0.3-0.3,0.7-0.5,1.1-0.4c0.4,0,0.8,0.2,1.1,0.5c0.3,0.3,0.4,0.7,0.4,1.1v2C98.6,87.1,98.4,87.3,98.2,87.3z"/>
					</g>
				</g>
				<g>
					<path class="st3" d="M99.3,108.7c-6.6,0-15.6-0.4-16.8-2.8C81,103,83,87,83.1,86.3c0-0.2,0.2-0.4,0.4-0.4l0,0
						c1.5,0,14.8,0.1,16.7,1.1c6.1,3.2,6.5,20.3,6.5,21.1c0,0.2-0.2,0.4-0.4,0.4C105.5,108.6,102.7,108.7,99.3,108.7z M83.8,86.8
						c-0.6,4.8-1.7,16.6-0.6,18.8c1.2,2.3,14,2.6,22.6,2.2c-0.1-2.6-0.9-17.3-6.1-20C98.5,87.1,89.7,86.8,83.8,86.8z"/>
				</g>
				<g>
					<path class="st3" d="M97.8,105.5L97.8,105.5c-1.1-0.1-10.3-1.1-11.6-3.2c-1.9-2.9,0-13.1,0.1-13.5c0-0.2,0.2-0.3,0.4-0.3l0,0
						c1.8,0,10.6,0.1,11.9,0.9c4.7,3,5.3,13.9,5.3,14.4c0,0.1,0,0.2-0.1,0.3c-0.1,0.1-0.2,0.1-0.3,0.1l-4.7-0.6l-0.5,1.6
						C98.1,105.4,98,105.5,97.8,105.5z M87,89.3c-0.6,3.1-1.6,10.5-0.2,12.6c0.8,1.3,6.8,2.4,10.7,2.8L98,103
						c0.1-0.2,0.2-0.3,0.4-0.3l4.6,0.6c-0.2-2.1-1.1-10.8-4.9-13.3C97.4,89.5,91.1,89.3,87,89.3z"/>
				</g>
				<g>
					<path class="st3" d="M85.2,86.6L85.2,86.6c-0.2,0-0.4-0.2-0.4-0.4v-1.3c0-0.2,0.2-0.4,0.4-0.4l0,0c0.2,0,0.4,0.2,0.4,0.4v1.3
						C85.6,86.5,85.4,86.6,85.2,86.6z"/>
				</g>
				<g>
					<path class="st3" d="M85.2,85.3L85.2,85.3c-0.5,0-0.9-0.6-0.9-1.4c0-0.5,0.2-0.9,0.4-1.1c0.1-0.1,0.3-0.2,0.5-0.2
						c0.3,0,0.5,0.2,0.7,0.5c0.1,0.2,0.2,0.5,0.2,0.9l0,0C86.1,84.8,85.7,85.3,85.2,85.3z M85.2,83.5c0,0.1-0.1,0.3-0.1,0.5
						s0,0.4,0.1,0.5c0-0.1,0.1-0.3,0.1-0.5l0,0C85.3,83.7,85.2,83.6,85.2,83.5z M85.7,84L85.7,84L85.7,84z"/>
				</g>
				<g>
					<path class="st3" d="M108.5,97.6h-1.9c-0.2,0-0.4-0.2-0.4-0.4v-7.7c0-0.2,0.2-0.4,0.4-0.4h1.9c0.2,0,0.4,0.2,0.4,0.4v7.7
						C108.9,97.4,108.7,97.6,108.5,97.6z M107,96.8h1.1v-6.9H107V96.8z"/>
				</g>
				<g>
					<path class="st3" d="M103.1,100.7c-0.1,0-0.3-0.1-0.4-0.2c-0.1-0.2,0-0.4,0.2-0.5l3.3-1.6v-9.2c-0.1-0.4-2.7-0.9-5.5-0.9l0,0
						l0,0c-0.2,0-0.4-0.2-0.4-0.4c0-0.2,0.2-0.4,0.4-0.4c1.8,0,6.1,0.2,6.3,1.6v9.5c0,0.2-0.1,0.3-0.2,0.4l-3.5,1.7
						C103.3,100.7,103.2,100.7,103.1,100.7z"/>
				</g>
			</g>
		</g>
		<g>
			<path class="st3" d="M41.6,116.2C41.6,116.2,41.5,116.2,41.6,116.2c-0.3-0.1-0.4-0.3-0.4-0.5s0.8-4.1,1-5
				c0.2-1.1,1.1-1.7,1.4-1.8c0.4-0.2,4.7-1.2,5.5-1.4c0.2-0.1,0.4,0.1,0.5,0.3c0.1,0.2-0.1,0.4-0.3,0.5c-1.9,0.5-5.1,1.3-5.4,1.4
				c-0.3,0.1-0.8,0.6-1,1.3c-0.2,0.8-1,4.9-1,5C42,116.1,41.8,116.2,41.6,116.2z"/>
		</g>
		<g>
			<g>
				<g>
					<path class="st3" d="M19.1,125.3H9.9c-0.2,0-0.4-0.2-0.4-0.4s0.2-0.4,0.4-0.4h9l5.1-2.4c0.2-0.1,0.4,0,0.5,0.2s0,0.4-0.2,0.5
						l-5.2,2.4C19.2,125.3,19.1,125.3,19.1,125.3z"/>
				</g>
				<g>
					<path class="st3" d="M30.8,125.3h-9.9c-0.2,0-0.4-0.2-0.4-0.4v-2.5c0-0.1,0.1-0.2,0.2-0.3c0.1-0.1,3.7-2.8,7.4-2.8
						c3.1,0,3.1,5.4,3.1,5.6C31.2,125.1,31,125.3,30.8,125.3z M21.3,124.5h9.1c-0.1-1.2-0.4-4.4-2.3-4.4c-3,0-6.1,2-6.8,2.5V124.5z"
						/>
				</g>
				<g>
					<path class="st3" d="M16.6,124.9c-0.1,0-0.1,0-0.2-0.1c-0.2-0.1-0.3-0.4-0.2-0.5c1.3-2.3,3.4-3.9,4.5-4.8
						c1.7-1.3,4.4-3.1,8.1-3.1c4,0,4,7.1,4,7.4c0,0.2-0.2,0.4-0.4,0.4h-1.7c-0.2,0-0.4-0.2-0.4-0.4c0-0.2,0.2-0.4,0.4-0.4H32
						c-0.1-1.4-0.5-6.2-3.2-6.2c-3.4,0-5.9,1.7-7.6,3c-1.1,0.8-3,2.4-4.3,4.6C16.9,124.8,16.7,124.9,16.6,124.9z"/>
				</g>
				<g>
					<path class="st3" d="M30.1,117.2h-3.2c-0.2,0-0.4-0.2-0.4-0.4v-4.2c0-0.2,0.1-0.3,0.3-0.4l1.6-0.4c0.1,0,0.1,0,0.2,0l1.6,0.4
						c0.2,0,0.3,0.2,0.3,0.4v4.2C30.5,117.1,30.3,117.2,30.1,117.2z M27.3,116.4h2.4v-3.5l-1.2-0.3l-1.2,0.3
						C27.3,112.9,27.3,116.4,27.3,116.4z"/>
				</g>
				<g>
					<path class="st3" d="M36.4,125.7L36.4,125.7l-7.8-2.6c-0.2-0.1-0.3-0.3-0.2-0.5c0.1-0.2,0.3-0.3,0.5-0.2l7.7,2.6
						c0.2,0.1,0.3,0.3,0.2,0.5C36.7,125.6,36.5,125.7,36.4,125.7z"/>
				</g>
				<g>
					<path class="st3" d="M30.1,117.2c-0.2,0-0.4-0.2-0.4-0.4v-11.7c0-0.2,0.2-0.4,0.4-0.4c0.2,0,0.4,0.2,0.4,0.4v11.7
						C30.5,117.1,30.3,117.2,30.1,117.2z"/>
				</g>
			</g>
			<g>
				<path class="st3" d="M30.3,115c-0.2,0-0.4-0.2-0.4-0.4c0-0.2,0.1-0.4,0.4-0.4l10.1-1c0.2,0,0.4,0.1,0.4,0.4s-0.1,0.4-0.4,0.4
					L30.3,115L30.3,115z"/>
			</g>
		</g>
		<g>
			<g>
				<path class="st3" d="M108.7,109.7c-0.2,0-0.4-0.2-0.4-0.4c0-0.2,0.1-0.4,0.4-0.4l13.9-1.6c0.2,0,0.4,0.1,0.4,0.4
					c0,0.2-0.1,0.4-0.4,0.4L108.7,109.7L108.7,109.7z"/>
			</g>
			<g>
				<path class="st3" d="M114.9,115.7c-0.1,0-0.3-0.1-0.4-0.2c-0.1-0.2,0-0.4,0.2-0.5l9-4.7c0.2-0.1,0.4,0,0.5,0.2s0,0.4-0.2,0.5
					L114.9,115.7C115.1,115.6,115,115.7,114.9,115.7z"/>
			</g>
			<g>
				<path class="st3" d="M111.3,111.7c-0.1,0-0.2,0-0.3-0.1c-0.1-0.2-0.1-0.4,0-0.6l9.2-7.8c0.2-0.1,0.4-0.1,0.6,0
					c0.1,0.2,0.1,0.4,0,0.6l-9.2,7.8C111.5,111.7,111.4,111.7,111.3,111.7z"/>
			</g>
			<g>
				<path class="st3" d="M124.8,112.7c-0.1,0-0.3-0.1-0.4-0.2l-4.7-9.7c-0.1-0.2,0-0.4,0.2-0.5s0.4,0,0.5,0.2l4.7,9.7
					C125.2,112.4,125.1,112.6,124.8,112.7C124.9,112.6,124.9,112.7,124.8,112.7z"/>
			</g>
			<g>
				<g>
					<path class="st3" d="M128.4,115.2c-0.1,0-0.3-0.1-0.4-0.2l-7.6-15.6c-0.1-0.1-0.1-0.3,0-0.4s0.2-0.2,0.3-0.2L130,98
						c0.2,0,0.3,0.1,0.4,0.2l0.6,1.3l5.6-2.6c0.1-0.1,0.3,0,0.4,0c0.1,0.1,0.2,0.2,0.2,0.3c0,0-0.1,3.3,1,5.5s4.2,4.9,4.3,4.9
						c0.1,0.1,0.2,0.2,0.1,0.4c0,0.1-0.1,0.3-0.2,0.3l-13.8,6.7C128.5,115.2,128.4,115.2,128.4,115.2z M123.5,103.9l5.1,10.4
						l12.9-6.3c-0.9-0.9-3.1-2.9-4-4.8c-0.9-1.8-1-4.1-1-5.2L123.5,103.9z M121.4,99.5l1.8,3.6l7.2-3.3l-0.5-1.1L121.4,99.5z"/>
				</g>
				<g>
					<path class="st3" d="M125.6,109.4c-0.1,0-0.3-0.1-0.4-0.2c-0.1-0.2,0-0.4,0.2-0.5l12.2-6c0.2-0.1,0.4,0,0.5,0.2s0,0.4-0.2,0.5
						L125.6,109.4L125.6,109.4z"/>
				</g>
				<g>
					<path class="st3" d="M128,101.8c-0.1,0-0.3-0.1-0.4-0.2l-1.2-2.5c-0.1-0.2,0-0.4,0.2-0.5s0.4,0,0.5,0.2l1.2,2.5
						c0.1,0.2,0,0.4-0.2,0.5C128.1,101.8,128.1,101.8,128,101.8z"/>
				</g>
				<g>
					<path class="st3" d="M125,103c-0.1,0-0.3-0.1-0.4-0.2l-1.8-3.6c-0.1-0.2,0-0.4,0.2-0.5s0.4,0,0.5,0.2l1.8,3.6
						C125.4,102.7,125.3,102.9,125,103C125.2,103,125.1,103,125,103z"/>
				</g>
			</g>
		</g>
	</g>
</g>
</svg>
