<?xml version="1.0" encoding="utf-8"?>
<!-- Generator: Adobe Illustrator 21.0.0, SVG Export Plug-In . SVG Version: 6.00 Build 0)  -->
<svg version="1.1" id="Layer_1" xmlns="http://www.w3.org/2000/svg" xmlns:xlink="http://www.w3.org/1999/xlink" x="0px" y="0px"
	 viewBox="0 0 978.6 230.2" style="enable-background:new 0 0 978.6 230.2;" xml:space="preserve">
<style type="text/css">
	.st0{clip-path:url(#SVGID_2_);}
	.st1{fill:#BDBBBB;}
	.st2{fill:#B3B3B3;}
	.st3{fill:#222222;}
	.st4{fill:#FFFFFF;}
</style>
<g>
	<defs>
		<rect id="SVGID_1_" x="0.3" y="56.6" width="977.6" height="173.6"/>
	</defs>
	<clipPath id="SVGID_2_">
		<use xlink:href="#SVGID_1_"  style="overflow:visible;"/>
	</clipPath>
	<g class="st0">
		<g>
			<polygon class="st1" points="-122.5,280.3 487.2,31.7 487.5,32.4 -122.2,281 			"/>
		</g>
		<g>
			<polygon class="st1" points="-98.5,280.2 487.3,31.8 487.6,32.5 -98.2,281 			"/>
		</g>
		<g>
			<polygon class="st1" points="-74.6,280.1 487.3,31.9 487.7,32.6 -74.2,280.9 			"/>
		</g>
		<g>
			<polygon class="st1" points="-50.4,280.3 487.4,31.6 487.7,32.3 -50.1,281.1 			"/>
		</g>
		<g>
			<polygon class="st1" points="-26.4,280.4 487.4,31.5 487.7,32.2 -26.1,281.2 			"/>
		</g>
		<g>
			<polygon class="st1" points="-2.6,280.3 487.5,31.7 487.9,32.4 -2.2,281.1 			"/>
		</g>
		<g>
			<polygon class="st1" points="21.4,280.2 487.6,31.6 487.9,32.4 21.8,280.9 			"/>
		</g>
		<g>
			<polygon class="st1" points="45.4,280.1 487.7,31.7 488.1,32.4 45.8,280.8 			"/>
		</g>
		<g>
			<polygon class="st1" points="69.4,280.2 487.7,31.6 488.1,32.3 69.8,280.9 			"/>
		</g>
		<g>
			<polygon class="st1" points="93.4,280.2 487.7,31.6 488.1,32.3 93.8,280.9 			"/>
		</g>
		<g>
			<polygon class="st1" points="117.3,280.2 487.9,31.7 488.3,32.4 117.8,280.9 			"/>
		</g>
		<g>
			<polygon class="st1" points="141.3,280.1 487.9,31.7 488.4,32.4 141.8,280.8 			"/>
		</g>
		<g>
			<polygon class="st1" points="165.2,280.1 488.1,31.8 488.6,32.4 165.7,280.7 			"/>
		</g>
		<g>
			<polygon class="st1" points="189.1,280.1 488.2,31.8 488.7,32.5 189.7,280.7 			"/>
		</g>
		<g>
			<polygon class="st1" points="213.2,280.1 488.2,31.8 488.8,32.4 213.7,280.7 			"/>
		</g>
		<g>
			<polygon class="st1" points="237.1,280.2 488.2,31.8 488.8,32.3 237.7,280.8 			"/>
		</g>
		<g>
			<polygon class="st1" points="261.3,280.4 488.1,31.7 488.7,32.2 261.9,280.9 			"/>
		</g>
		<g>
			<polygon class="st1" points="285.1,280.3 488.2,31.7 488.8,32.3 285.8,280.8 			"/>
		</g>
		<g>
			<polygon class="st1" points="309.1,280.2 488.4,31.8 489,32.2 309.7,280.7 			"/>
		</g>
		<g>
			<polygon class="st1" points="333.2,280.4 488.3,31.7 488.9,32.1 333.9,280.8 			"/>
		</g>
		<g>
			<polygon class="st1" points="357.1,280.4 488.3,31.8 489,32.2 357.8,280.8 			"/>
		</g>
		<g>
			<polygon class="st1" points="381.1,280.4 488.4,31.8 489.2,32.1 381.8,280.7 			"/>
		</g>
		<g>
			<polygon class="st1" points="405,280.4 488.5,31.9 489.3,32.1 405.7,280.7 			"/>
		</g>
		<g>
			<polygon class="st1" points="429,280.5 488.6,32 489.3,32.2 429.7,280.7 			"/>
		</g>
		<g>
			<polygon class="st1" points="453,280.5 488.6,31.9 489.4,32 453.8,280.6 			"/>
		</g>
		<g>
			
				<rect x="358.8" y="155.9" transform="matrix(4.857287e-02 -0.9988 0.9988 4.857287e-02 303.6138 631.3403)" class="st1" width="248.8" height="0.8"/>
		</g>
		<g>
			
				<rect x="494.9" y="31.9" transform="matrix(0.9988 -4.881126e-02 4.881126e-02 0.9988 -7.0387 24.3611)" class="st1" width="0.8" height="248.8"/>
		</g>
		<g>
			<polygon class="st1" points="488.9,32.1 489.7,32 525.6,280.5 524.8,280.6 			"/>
		</g>
		<g>
			<polygon class="st1" points="489.1,32.1 489.9,31.9 549.7,280.3 548.9,280.5 			"/>
		</g>
		<g>
			<polygon class="st1" points="489.2,32.1 489.9,31.9 573.6,280.4 572.8,280.6 			"/>
		</g>
		<g>
			<polygon class="st1" points="489.2,32.2 490,31.9 597.6,280.4 596.8,280.7 			"/>
		</g>
		<g>
			<polygon class="st1" points="489.3,32.2 490,31.8 621.6,280.2 620.9,280.6 			"/>
		</g>
		<g>
			<polygon class="st1" points="489.4,32.2 490.1,31.8 645.5,280.2 644.8,280.7 			"/>
		</g>
		<g>
			<polygon class="st1" points="489.5,32.2 490.1,31.8 669.4,280.2 668.8,280.7 			"/>
		</g>
		<g>
			<polygon class="st1" points="489.6,32.3 490.2,31.8 693.4,280.2 692.8,280.7 			"/>
		</g>
		<g>
			<polygon class="st1" points="489.7,32.3 490.3,31.8 717.4,280.3 716.8,280.8 			"/>
		</g>
		<g>
			<polygon class="st1" points="489.8,32.3 490.4,31.7 741.4,280.2 740.8,280.8 			"/>
		</g>
		<g>
			<polygon class="st1" points="489.9,32.3 490.4,31.7 765.3,280.2 764.7,280.8 			"/>
		</g>
		<g>
			<polygon class="st1" points="490,32.4 490.5,31.7 789.2,280.2 788.7,280.8 			"/>
		</g>
		<g>
			<polygon class="st1" points="490.1,32.3 490.5,31.6 813.2,280.1 812.7,280.7 			"/>
		</g>
		<g>
			<polygon class="st1" points="490.2,32.4 490.7,31.7 837.2,280.2 836.7,280.8 			"/>
		</g>
		<g>
			<polygon class="st1" points="490.2,32.4 490.7,31.7 861.1,280.1 860.6,280.8 			"/>
		</g>
		<g>
			<polygon class="st1" points="490.4,32.3 490.8,31.7 885.1,280.1 884.6,280.8 			"/>
		</g>
		<g>
			<polygon class="st1" points="490.4,32.3 490.8,31.6 909,280.1 908.6,280.8 			"/>
		</g>
		<g>
			<polygon class="st1" points="490.4,32.4 490.8,31.7 932.9,280.1 932.5,280.8 			"/>
		</g>
		<g>
			<polygon class="st1" points="490.5,32.4 490.9,31.7 956.9,280.2 956.6,280.9 			"/>
		</g>
		<g>
			<polygon class="st1" points="490.6,32.4 491,31.7 980.8,280.2 980.5,280.9 			"/>
		</g>
		<g>
			<polygon class="st1" points="490.7,32.4 491,31.6 1004.8,280.1 1004.4,280.8 			"/>
		</g>
		<g>
			<polygon class="st1" points="490.8,32.4 491.2,31.7 1028.9,280.2 1028.5,280.9 			"/>
		</g>
		<g>
			<polygon class="st1" points="491.1,32.4 491.4,31.6 1100.6,280 1100.3,280.7 			"/>
		</g>
		<g>
			<polygon class="st1" points="490.9,32.4 491.2,31.7 1052.8,280.1 1052.4,280.8 			"/>
		</g>
		<g>
			<polygon class="st1" points="491,32.4 491.3,31.6 1076.8,280 1076.5,280.8 			"/>
		</g>
	</g>
</g>
<g>
	<g>
		<g>
			<g>
				<path class="st2" d="M505.5,18.6h-32.4c-1.1,0-1.9-0.9-1.9-1.9l1.2-13.9c0-1,0.9-1.9,1.9-1.9h29.9c1.1,0,1.9,0.9,1.9,1.9
					l1.2,13.8c0,0.5-0.1,1-0.5,1.3C506.5,18.3,506,18.6,505.5,18.6z M474.3,1.7c-0.5,0-1.1,0.4-1.1,1.1L472,16.7
					c0,0.5,0.4,1.1,1.1,1.1h32.4c0.3,0,0.6-0.1,0.8-0.4c0.2-0.2,0.3-0.5,0.3-0.7l-1.2-13.8c0-0.6-0.4-1.2-1.1-1.2
					C504.3,1.7,474.3,1.7,474.3,1.7z"/>
			</g>
			<g>
				<path class="st2" d="M498,15.5h-17.5c-2.7,0-5-2.3-5-5V7.9c0-2.7,2.3-5,5-5H498c2.7,0,5,2.3,5,5v2.7
					C503,13.3,500.8,15.5,498,15.5z M480.5,3.8c-2.3,0-4.2,1.9-4.2,4.2v2.6c0,2.3,1.9,4.2,4.2,4.2H498c2.3,0,4.2-1.8,4.2-4.1V7.9
					c0-2.3-1.9-4.2-4.2-4.2L480.5,3.8L480.5,3.8z"/>
			</g>
			<g>
				<g>
					<path class="st2" d="M474.3,7.6c-0.7,0-1.2-0.5-1.2-1.2s0.5-1.2,1.2-1.2s1.2,0.5,1.2,1.2S474.9,7.6,474.3,7.6z M474.3,6
						c-0.2,0-0.4,0.2-0.4,0.4s0.2,0.4,0.4,0.4s0.4-0.2,0.4-0.4S474.5,6,474.3,6z"/>
				</g>
				<g>
					<path class="st2" d="M474,9.9c-0.7,0-1.2-0.5-1.2-1.2s0.5-1.2,1.2-1.2s1.2,0.5,1.2,1.2C475.2,9.4,474.7,9.9,474,9.9z M474,8.3
						c-0.2,0-0.4,0.2-0.4,0.4s0.2,0.4,0.4,0.4s0.4-0.2,0.4-0.4S474.3,8.3,474,8.3z"/>
				</g>
			</g>
			<g>
				<g>
					<path class="st2" d="M504.4,7.6c-0.7,0-1.2-0.5-1.2-1.2s0.5-1.2,1.2-1.2s1.2,0.5,1.2,1.2S505,7.6,504.4,7.6z M504.4,6
						c-0.2,0-0.4,0.2-0.4,0.4s0.2,0.4,0.4,0.4s0.4-0.2,0.4-0.4S504.6,6,504.4,6z"/>
				</g>
				<g>
					<path class="st2" d="M504.5,9.9c-0.7,0-1.2-0.5-1.2-1.2s0.5-1.2,1.2-1.2s1.2,0.5,1.2,1.2S505.2,9.9,504.5,9.9z M504.5,8.3
						c-0.2,0-0.4,0.2-0.4,0.4s0.2,0.4,0.4,0.4s0.4-0.2,0.4-0.4S504.7,8.3,504.5,8.3z"/>
				</g>
			</g>
			<g>
				<path class="st2" d="M475.1,4.9c-0.8,0-1.4-0.6-1.4-1.4c0-0.7,0.6-1.4,1.4-1.4c0.7,0,1.4,0.6,1.4,1.4
					C476.4,4.3,475.8,4.9,475.1,4.9z M475.1,3c-0.3,0-0.6,0.3-0.6,0.6s0.3,0.6,0.6,0.6c0.3,0,0.6-0.3,0.6-0.6
					C475.6,3.2,475.4,3,475.1,3z"/>
			</g>
			<g>
				<path class="st2" d="M503.3,4.9c-0.8,0-1.4-0.6-1.4-1.4c0-0.7,0.6-1.4,1.4-1.4c0.7,0,1.4,0.6,1.4,1.4S504.1,4.9,503.3,4.9z
					 M503.3,3c-0.3,0-0.6,0.3-0.6,0.6s0.3,0.6,0.6,0.6s0.6-0.3,0.6-0.6C503.9,3.2,503.6,3,503.3,3z"/>
			</g>
		</g>
		<g>
			<path class="st3" d="M469.9,25.3v-7.7c0-5,6-4.9,6-4.9h12.5h1.8h12.5c0,0,6-0.1,6,4.9v6.6"/>
			<path class="st2" d="M469.9,25.7c-0.2,0-0.4-0.2-0.4-0.4v-7.7c0-1.4,0.5-2.6,1.4-3.5c1.9-1.8,4.9-1.8,5-1.8h26.7
				c0.1,0,3.2,0,5,1.8c0.9,0.9,1.4,2.1,1.4,3.5v6.6c0,0.2-0.2,0.4-0.4,0.4s-0.4-0.2-0.4-0.4v-6.6c0-1.2-0.4-2.2-1.1-2.9
				c-1.6-1.6-4.4-1.6-4.5-1.6h-26.7c0,0-2.9,0-4.5,1.6c-0.7,0.7-1.1,1.7-1.1,2.9v7.7C470.3,25.5,470.1,25.7,469.9,25.7z"/>
		</g>
		<g>
			<g>
				<g>
					<rect x="478.5" y="7" class="st3" width="2.7" height="5.7"/>
					<path class="st2" d="M481.2,13.1h-2.7c-0.2,0-0.4-0.2-0.4-0.4V7c0-0.2,0.2-0.4,0.4-0.4h2.7c0.2,0,0.4,0.2,0.4,0.4v5.7
						C481.6,12.9,481.5,13.1,481.2,13.1z M478.9,12.3h1.9V7.4h-1.9V12.3z"/>
				</g>
				<g>
					<rect x="478.8" y="3" class="st3" width="2.2" height="4.1"/>
					<path class="st2" d="M481,7.4h-2.2c-0.2,0-0.4-0.2-0.4-0.4V3c0-0.2,0.2-0.4,0.4-0.4h2.2c0.2,0,0.4,0.2,0.4,0.4v4
						C481.4,7.3,481.2,7.4,481,7.4z M479.2,6.6h1.4V3.4h-1.4V6.6z"/>
				</g>
				<g>
					<circle class="st3" cx="479.9" cy="3" r="1.1"/>
					<path class="st2" d="M479.9,4.5c-0.8,0-1.5-0.7-1.5-1.5s0.7-1.5,1.5-1.5s1.5,0.7,1.5,1.5S480.7,4.5,479.9,4.5z M479.9,2.2
						c-0.4,0-0.7,0.3-0.7,0.7s0.3,0.7,0.7,0.7s0.7-0.3,0.7-0.7C480.6,2.6,480.3,2.2,479.9,2.2z"/>
				</g>
			</g>
			<g>
				<g>
					<g>
						<path class="st2" d="M479.3,9h-0.4c-0.2,0-0.4-0.2-0.4-0.4s0.2-0.4,0.4-0.4h0.4c0.2,0,0.4,0.2,0.4,0.4
							C479.7,8.9,479.5,9,479.3,9z"/>
					</g>
					<g>
						<path class="st2" d="M480.8,9h-0.4c-0.2,0-0.4-0.2-0.4-0.4s0.2-0.4,0.4-0.4h0.4c0.2,0,0.4,0.2,0.4,0.4
							C481.2,8.9,481,9,480.8,9z"/>
					</g>
				</g>
			</g>
			<g>
				<g>
					<g>
						<path class="st2" d="M479.3,10h-0.4c-0.2,0-0.4-0.2-0.4-0.4s0.2-0.4,0.4-0.4h0.4c0.2,0,0.4,0.2,0.4,0.4S479.5,10,479.3,10z"/>
					</g>
					<g>
						<path class="st2" d="M480.8,10h-0.4c-0.2,0-0.4-0.2-0.4-0.4s0.2-0.4,0.4-0.4h0.4c0.2,0,0.4,0.2,0.4,0.4S481,10,480.8,10z"/>
					</g>
				</g>
			</g>
			<g>
				<g>
					<g>
						<path class="st2" d="M479.3,10.9h-0.4c-0.2,0-0.4-0.2-0.4-0.4s0.2-0.4,0.4-0.4h0.4c0.2,0,0.4,0.2,0.4,0.4
							S479.5,10.9,479.3,10.9z"/>
					</g>
					<g>
						<path class="st2" d="M480.8,10.9h-0.4c-0.2,0-0.4-0.2-0.4-0.4s0.2-0.4,0.4-0.4h0.4c0.2,0,0.4,0.2,0.4,0.4S481,10.9,480.8,10.9
							z"/>
					</g>
				</g>
			</g>
		</g>
		<g>
			<g>
				<g>
					<g>
						<path class="st2" d="M504.1,16.6H501c-0.2,0-0.4-0.2-0.4-0.4v-0.8c0-0.2,0.2-0.4,0.4-0.4h3.1c0.2,0,0.4,0.2,0.4,0.4v0.8
							C504.5,16.4,504.3,16.6,504.1,16.6z"/>
					</g>
					<g>
						<path class="st2" d="M477.2,16.6h-3.1c-0.2,0-0.4-0.2-0.4-0.4v-0.8c0-0.2,0.2-0.4,0.4-0.4h3.1c0.2,0,0.4,0.2,0.4,0.4v0.8
							C477.6,16.4,477.4,16.6,477.2,16.6z"/>
					</g>
				</g>
			</g>
			<g>
				<g>
					<path class="st2" d="M506,20.5h-34.2c-0.2,0-0.4-0.2-0.4-0.4s0.2-0.4,0.4-0.4H506c0.2,0,0.4,0.2,0.4,0.4S506.3,20.5,506,20.5z"
						/>
				</g>
				<g>
					<path class="st2" d="M471.9,25.4c-0.2,0-0.4-0.2-0.4-0.4v-7c0-0.2,0.2-0.4,0.4-0.4s0.4,0.2,0.4,0.4v7
						C472.3,25.3,472.1,25.4,471.9,25.4z"/>
				</g>
				<g>
					<path class="st2" d="M506,25.4c-0.2,0-0.4-0.2-0.4-0.4v-6.9c0-0.2,0.2-0.4,0.4-0.4s0.4,0.2,0.4,0.4V25
						C506.4,25.2,506.3,25.4,506,25.4z"/>
				</g>
			</g>
		</g>
	</g>
	<g>
		<path class="st2" d="M544,51.6H434.4c-0.2,0-0.4-0.2-0.4-0.4s0.2-0.4,0.4-0.4h109.7c0.2,0,0.4,0.2,0.4,0.4
			C544.4,51.4,544.3,51.6,544,51.6z"/>
	</g>
	<g>
		<g>
			<path class="st2" d="M529.8,48.3h-29.4c-2.7,0-5-2.3-5-5V28.7c0-2.7,2.3-5,5-5h29.4c2.7,0,5,2.3,5,5v14.6
				C534.8,46.1,532.5,48.3,529.8,48.3z M500.4,24.6c-2.3,0-4.2,1.9-4.2,4.2v14.6c0,2.3,1.9,4.2,4.2,4.2h29.4c2.3,0,4.2-1.9,4.2-4.2
				V28.7c0-2.3-1.9-4.2-4.2-4.2h-29.4V24.6z"/>
		</g>
		<g>
			<path class="st3" d="M537.8,46.6c0.4-0.7,0.6-1.6,0.6-2.6l0,0c0-2.6-1.6-4.6-3.6-4.6h-41.7v7.2C493.1,46.6,537.8,46.6,537.8,46.6
				z"/>
			<path class="st2" d="M537.8,47h-44.7c-0.2,0-0.4-0.2-0.4-0.4v-7.2c0-0.2,0.2-0.4,0.4-0.4h41.7c2.2,0,4,2.3,4,5
				c0,1.1-0.2,2-0.6,2.8C538.1,46.9,537.9,47,537.8,47z M493.5,46.2h44.1c0.3-0.6,0.4-1.3,0.4-2.2c0-2.3-1.4-4.2-3.2-4.2h-41.3V46.2
				z"/>
		</g>
		<g>
			<g>
				<path class="st2" d="M517.4,39.8h-3.1c-0.2,0-0.4-0.2-0.4-0.4v-5.2c0-0.2,0.2-0.4,0.4-0.4h3.1c0.2,0,0.4,0.2,0.4,0.4v5.2
					C517.8,39.6,517.6,39.8,517.4,39.8z M514.7,39h2.3v-4.4h-2.3V39z"/>
			</g>
			<g>
				<path class="st2" d="M522.8,39.8h-3.1c-0.2,0-0.4-0.2-0.4-0.4v-5.2c0-0.2,0.2-0.4,0.4-0.4h3.1c0.2,0,0.4,0.2,0.4,0.4v5.2
					C523.2,39.6,523,39.8,522.8,39.8z M520,39h2.3v-4.4H520V39z"/>
			</g>
			<g>
				<path class="st2" d="M528.1,39.8H525c-0.2,0-0.4-0.2-0.4-0.4v-5.2c0-0.2,0.2-0.4,0.4-0.4h3.1c0.2,0,0.4,0.2,0.4,0.4v5.2
					C528.5,39.6,528.3,39.8,528.1,39.8z M525.4,39h2.3v-4.4h-2.3V39z"/>
			</g>
			<g>
				<path class="st2" d="M529.2,34.5h-15.5c-0.2,0-0.4-0.2-0.4-0.4s0.2-0.4,0.4-0.4h15.5c0.2,0,0.4,0.2,0.4,0.4
					S529.4,34.5,529.2,34.5z"/>
			</g>
			<g>
				<path class="st2" d="M529.2,36.3h-15.5c-0.2,0-0.4-0.2-0.4-0.4s0.2-0.4,0.4-0.4h15.5c0.2,0,0.4,0.2,0.4,0.4
					S529.4,36.3,529.2,36.3z"/>
			</g>
			<g>
				<path class="st2" d="M529.2,38.1h-15.5c-0.2,0-0.4-0.2-0.4-0.4s0.2-0.4,0.4-0.4h15.5c0.2,0,0.4,0.2,0.4,0.4
					C529.6,37.9,529.4,38.1,529.2,38.1z"/>
			</g>
		</g>
		<g>
			<g>
				<path class="st2" d="M450.9,39.8h-3.1c-0.2,0-0.4-0.2-0.4-0.4v-5.2c0-0.2,0.2-0.4,0.4-0.4h3.1c0.2,0,0.4,0.2,0.4,0.4v5.2
					C451.3,39.6,451.1,39.8,450.9,39.8z M448.2,39h2.3v-4.4h-2.3V39z"/>
			</g>
			<g>
				<path class="st2" d="M456.3,39.8h-3.1c-0.2,0-0.4-0.2-0.4-0.4v-5.2c0-0.2,0.2-0.4,0.4-0.4h3.1c0.2,0,0.4,0.2,0.4,0.4v5.2
					C456.7,39.6,456.5,39.8,456.3,39.8z M453.6,39h2.3v-4.4h-2.3V39z"/>
			</g>
			<g>
				<path class="st2" d="M461.6,39.8h-3.1c-0.2,0-0.4-0.2-0.4-0.4v-5.2c0-0.2,0.2-0.4,0.4-0.4h3.1c0.2,0,0.4,0.2,0.4,0.4v5.2
					C462,39.6,461.9,39.8,461.6,39.8z M458.9,39h2.3v-4.4h-2.3V39z"/>
			</g>
			<g>
				<path class="st2" d="M462.7,34.5h-15.5c-0.2,0-0.4-0.2-0.4-0.4s0.2-0.4,0.4-0.4h15.5c0.2,0,0.4,0.2,0.4,0.4
					S462.9,34.5,462.7,34.5z"/>
			</g>
			<g>
				<path class="st2" d="M462.7,36.3h-15.5c-0.2,0-0.4-0.2-0.4-0.4s0.2-0.4,0.4-0.4h15.5c0.2,0,0.4,0.2,0.4,0.4
					S462.9,36.3,462.7,36.3z"/>
			</g>
			<g>
				<path class="st2" d="M462.7,38.1h-15.5c-0.2,0-0.4-0.2-0.4-0.4s0.2-0.4,0.4-0.4h15.5c0.2,0,0.4,0.2,0.4,0.4
					C463.1,37.9,462.9,38.1,462.7,38.1z"/>
			</g>
		</g>
		<g>
			<g>
				<path class="st2" d="M509.3,34.6c-0.2,0-0.4-0.1-0.4-0.3s0.1-0.4,0.3-0.5l21.4-3.2c1.5-0.2,1.5-0.8,1.5-1v-0.2
					c0-0.5-0.7-0.7-1.4-0.7h-35.2c-0.9,0-2.1,0.4-2.6,1.3l-1.2,2.4c-0.1,0.2-0.3,0.3-0.5,0.2s-0.3-0.3-0.2-0.5l1.2-2.4
					c0.6-1.2,2.2-1.7,3.3-1.7h35.2c1.4,0,2.2,0.6,2.2,1.5v0.2c0,1-0.7,1.5-2.2,1.8L509.3,34.6C509.4,34.6,509.3,34.6,509.3,34.6z"/>
			</g>
			<g>
				<path class="st2" d="M510.8,34.2L510.8,34.2c-0.3-0.1-0.4-0.3-0.4-0.5l1.8-5.5c0.1-0.2,0.3-0.3,0.5-0.3c0.2,0.1,0.3,0.3,0.3,0.5
					l-1.8,5.5C511.2,34.1,511,34.2,510.8,34.2z"/>
			</g>
		</g>
		<g>
			<g>
				<path class="st2" d="M510.4,38.8c-0.2,0-0.3-0.1-0.4-0.2l-2-4.6c-0.2-0.5-0.9-1-1.5-1h-1c-0.1,0-0.3,0-0.4,0.2
					c-0.1,0.1-0.1,0.3,0,0.6l1.5,3.8c0.1,0.2,0,0.4-0.2,0.5s-0.4,0-0.5-0.2l-1.5-3.8c-0.2-0.5-0.1-1,0.1-1.3
					c0.2-0.3,0.6-0.5,1.1-0.5h1c0.9,0,1.8,0.8,2.2,1.5l2,4.7c0.1,0.2,0,0.4-0.2,0.5C510.5,38.8,510.4,38.8,510.4,38.8z"/>
			</g>
			<g>
				<g>
					<g>
						<path class="st2" d="M512.4,51.6c-0.1,0-0.1,0-0.2,0L507,49l-5.2,2.6c-0.2,0.1-0.4,0-0.5-0.2s0-0.4,0.2-0.5l5.4-2.7
							c0.1-0.1,0.2-0.1,0.4,0l5.4,2.7c0.2,0.1,0.3,0.3,0.2,0.5C512.6,51.5,512.5,51.6,512.4,51.6z"/>
					</g>
					<g>
						<path class="st2" d="M529.4,51.6c-0.1,0-0.1,0-0.2,0L524,49l-5.1,2.6c-0.2,0.1-0.4,0-0.5-0.2s0-0.4,0.2-0.5l5.3-2.7
							c0.1-0.1,0.2-0.1,0.4,0l5.4,2.7c0.2,0.1,0.3,0.3,0.2,0.5C529.7,51.5,529.5,51.6,529.4,51.6z"/>
					</g>
				</g>
				<g>
					<g>
						<rect x="491.6" y="46.6" class="st3" width="47.7" height="1.3"/>
						<path class="st2" d="M539.3,48.2h-47.7c-0.2,0-0.4-0.2-0.4-0.4v-1.3c0-0.2,0.2-0.4,0.4-0.4h47.7c0.2,0,0.4,0.2,0.4,0.4v1.3
							C539.7,48.1,539.5,48.2,539.3,48.2z M492,47.4h46.9V47H492V47.4z"/>
					</g>
					<g>
						<rect x="507" y="46.6" class="st3" width="17.1" height="1.8"/>
						<path class="st2" d="M524.1,48.9H507c-0.2,0-0.4-0.2-0.4-0.4v-1.8c0-0.2,0.2-0.4,0.4-0.4h17.1c0.2,0,0.4,0.2,0.4,0.4v1.8
							C524.5,48.7,524.3,48.9,524.1,48.9z M507.4,48.1h16.3v-1h-16.3V48.1z"/>
					</g>
					<g>
						<path class="st3" d="M492.4,36.2l15.8,1.5c1.9,0.2,2.9,0.8,3.7,1.8l4.5,7h-1.8l-4-5.8c-0.8-1-1.8-1.3-3.7-1.5l-16.1-1.6"/>
						<path class="st2" d="M516.4,47h-1.8c-0.1,0-0.3-0.1-0.3-0.2l-4-5.8c-0.7-0.9-1.4-1.1-3.4-1.3L490.8,38c-0.2,0-0.4-0.2-0.4-0.4
							s0.2-0.4,0.4-0.4l16.1,1.6c1.8,0.2,3,0.5,4,1.7l3.9,5.7h0.8l-4.1-6.3c-0.6-0.8-1.4-1.4-3.4-1.7l-15.8-1.5
							c-0.2,0-0.4-0.2-0.4-0.4s0.2-0.4,0.4-0.4l15.8,1.5c1.9,0.2,3,0.8,4,2l4.5,7c0.1,0.1,0.1,0.3,0,0.4
							C516.6,46.9,516.5,47,516.4,47z"/>
					</g>
					<g>
						<polygon class="st3" points="517,48.5 515.6,48.6 514.1,48.5 514.1,46.6 517,46.6 						"/>
						<path class="st2" d="M515.6,49C515.5,49,515.5,49,515.6,49l-1.5-0.2c-0.2,0-0.4-0.2-0.4-0.4v-1.8c0-0.2,0.2-0.4,0.4-0.4h2.9
							c0.2,0,0.4,0.2,0.4,0.4v1.8c0,0.2-0.2,0.4-0.4,0.4L515.6,49L515.6,49z M517,48.5L517,48.5L517,48.5z M514.5,48.1l1,0.1l1-0.1
							V47h-2.1L514.5,48.1L514.5,48.1z"/>
					</g>
				</g>
			</g>
		</g>
		<g>
			<path class="st2" d="M543,50.8c-0.1,0-0.3-0.1-0.3-0.2c-0.8-1.4-1.3-2.6-1.6-3.4c-0.2-0.4-0.3-0.7-0.4-0.9
				c-0.3-0.7-0.8-0.9-0.8-0.9c-0.2-0.1-0.3-0.3-0.2-0.5s0.3-0.3,0.5-0.2c0.1,0,0.7,0.3,1.2,1.2c0.1,0.2,0.2,0.5,0.4,1
				c0.3,0.8,0.8,2,1.6,3.3c0.1,0.2,0,0.4-0.1,0.5C543.1,50.8,543.1,50.8,543,50.8z"/>
		</g>
		<g>
			<path class="st2" d="M478,48.3h-29.4c-2.7,0-5-2.3-5-5V28.7c0-2.7,2.3-5,5-5H478c2.7,0,5,2.3,5,5v14.6
				C483,46,480.7,48.3,478,48.3z M448.6,24.6c-2.3,0-4.2,1.9-4.2,4.2v14.6c0,2.3,1.9,4.2,4.2,4.2H478c2.3,0,4.2-1.9,4.2-4.2V28.7
				c0-2.3-1.9-4.2-4.2-4.2h-29.4V24.6z"/>
		</g>
		<g>
			<path class="st3" d="M440.6,46.6c-0.4-0.7-0.6-1.6-0.6-2.6l0,0c0-2.6,1.6-4.6,3.6-4.6h41.7v7.2C485.3,46.6,440.6,46.6,440.6,46.6
				z"/>
			<path class="st2" d="M485.3,47h-44.7c-0.1,0-0.3-0.1-0.3-0.2c-0.4-0.7-0.6-1.7-0.6-2.8c0-2.8,1.8-5,4-5h41.7
				c0.2,0,0.4,0.2,0.4,0.4v7.2C485.7,46.8,485.5,47,485.3,47z M440.8,46.2h44.1v-6.4h-41.3c-1.8,0-3.2,1.9-3.2,4.2
				C440.4,44.9,440.6,45.6,440.8,46.2z"/>
		</g>
		<g>
			<g>
				<path class="st2" d="M469.1,34.6C469.1,34.6,469,34.6,469.1,34.6l-21.4-3.2c-1.4-0.2-2.2-0.8-2.2-1.8v-0.2
					c0-0.9,0.9-1.5,2.2-1.5h35.2c1.1,0,2.7,0.5,3.3,1.7l1.2,2.2c0.1,0.2,0,0.4-0.2,0.5s-0.4,0-0.5-0.2l-1.2-2.2
					c-0.5-0.9-1.7-1.3-2.6-1.3h-35.2c-0.7,0-1.4,0.2-1.4,0.7v0.2c0,0.2,0,0.8,1.5,1l21.4,3.2c0.2,0,0.4,0.2,0.3,0.5
					C469.4,34.5,469.3,34.6,469.1,34.6z"/>
			</g>
			<g>
				<path class="st2" d="M467.6,34.2c-0.2,0-0.3-0.1-0.4-0.3l-1.8-5.5c-0.1-0.2,0-0.4,0.3-0.5c0.2-0.1,0.4,0,0.5,0.3l1.8,5.5
					c0.1,0.2,0,0.4-0.3,0.5C467.6,34.2,467.6,34.2,467.6,34.2z"/>
			</g>
		</g>
		<g>
			<g>
				<path class="st2" d="M468,38.8c-0.1,0-0.1,0-0.2,0c-0.2-0.1-0.3-0.3-0.2-0.5l2-4.6c0.4-0.8,1.3-1.5,2.2-1.5h1
					c0.5,0,0.8,0.2,1.1,0.5c0.2,0.3,0.3,0.8,0.1,1.3l-1.5,3.9c-0.1,0.2-0.3,0.3-0.5,0.2s-0.3-0.3-0.2-0.5l1.5-3.8
					c0.1-0.2,0.1-0.4,0-0.6c-0.1-0.1-0.3-0.2-0.4-0.2h-1c-0.6,0-1.2,0.6-1.5,1.1l-2,4.6C468.3,38.7,468.2,38.8,468,38.8z"/>
			</g>
			<g>
				<g>
					<g>
						<path class="st2" d="M476.8,51.6c-0.1,0-0.1,0-0.2,0l-5.2-2.6l-5.1,2.6c-0.2,0.1-0.4,0-0.5-0.2s0-0.4,0.2-0.5l5.3-2.7
							c0.1-0.1,0.2-0.1,0.4,0l5.4,2.7c0.2,0.1,0.3,0.3,0.2,0.5C477,51.5,476.9,51.6,476.8,51.6z"/>
					</g>
					<g>
						<path class="st2" d="M449,51.6c-0.1,0-0.3-0.1-0.4-0.2c-0.1-0.2,0-0.4,0.2-0.5l5.4-2.7c0.1-0.1,0.2-0.1,0.4,0l5.4,2.7
							c0.2,0.1,0.3,0.3,0.2,0.5c-0.1,0.2-0.3,0.3-0.5,0.2l-5.2-2.6l-5.2,2.6C449.1,51.6,449.1,51.6,449,51.6z"/>
					</g>
				</g>
				<g>
					<g>
						<rect x="439.1" y="46.6" class="st3" width="47.7" height="1.3"/>
						<path class="st2" d="M486.8,48.3h-47.7c-0.2,0-0.4-0.2-0.4-0.4v-1.3c0-0.2,0.2-0.4,0.4-0.4h47.7c0.2,0,0.4,0.2,0.4,0.4v1.3
							C487.2,48.1,487,48.3,486.8,48.3z M439.5,47.5h46.9V47h-46.9L439.5,47.5L439.5,47.5z"/>
					</g>
					<g>
						<rect x="454.3" y="46.6" class="st3" width="17.1" height="1.8"/>
						<path class="st2" d="M471.4,48.8h-17.1c-0.2,0-0.4-0.2-0.4-0.4v-1.8c0-0.2,0.2-0.4,0.4-0.4h17.1c0.2,0,0.4,0.2,0.4,0.4v1.8
							C471.8,48.6,471.6,48.8,471.4,48.8z M454.7,48H471v-1h-16.3V48z"/>
					</g>
					<g>
						<path class="st3" d="M486,36.2l-15.8,1.6c-1.9,0.2-2.9,0.8-3.7,1.8l-4.5,7h1.8l4-5.8c0.8-1,1.8-1.3,3.7-1.5l16.1-1.6"/>
						<path class="st2" d="M463.8,47H462c-0.1,0-0.3-0.1-0.4-0.2c-0.1-0.1-0.1-0.3,0-0.4l4.5-7c0.9-1.2,2-1.8,4-2l15.8-1.6
							c0.2,0,0.4,0.1,0.4,0.4c0,0.2-0.1,0.4-0.4,0.4l-15.8,1.6c-1.9,0.2-2.7,0.8-3.4,1.7l-4.1,6.3h0.8l3.9-5.7
							c0.9-1.2,2.1-1.5,4-1.7l16.1-1.6c0.2,0,0.4,0.1,0.4,0.4c0,0.2-0.1,0.4-0.4,0.4l-16.1,1.6c-1.9,0.2-2.7,0.5-3.4,1.4l-4,5.8
							C464.1,47,463.9,47,463.8,47z"/>
					</g>
					<g>
						<polygon class="st3" points="461.4,48.5 462.9,48.6 464.4,48.5 464.4,46.6 461.4,46.6 						"/>
						<path class="st2" d="M462.9,49L462.9,49l-1.6-0.2c-0.2,0-0.4-0.2-0.4-0.4v-1.8c0-0.2,0.2-0.4,0.4-0.4h3c0.2,0,0.4,0.2,0.4,0.4
							v1.8c0,0.2-0.2,0.4-0.4,0.4L462.9,49L462.9,49z M461.8,48.1l1.1,0.1l1-0.1V47h-2.1V48.1z"/>
					</g>
				</g>
			</g>
		</g>
		<g>
			<g>
				<path class="st2" d="M550.5,51.9c-0.1,0-0.3-0.1-0.3-0.2c-0.1-0.2-0.1-0.4,0.1-0.5l0.8-0.5c0.1-0.1,0.3-0.1,0.4,0L552,51
					l0.5-0.3c0.1-0.1,0.3-0.1,0.4,0l0.5,0.3l0.5-0.3c0.1-0.1,0.3-0.1,0.4,0l0.6,0.3l0.2-0.1l-0.3-0.6l-5.5-1c-0.2,0-0.4-0.2-0.3-0.5
					c0-0.2,0.3-0.4,0.5-0.3l5.7,1c0.1,0,0.2,0.1,0.3,0.2l0.6,1c0.1,0.2,0.1,0.4-0.1,0.5l-0.7,0.5c-0.1,0.1-0.3,0.1-0.4,0l-0.6-0.4
					l-0.5,0.3c-0.1,0.1-0.3,0.1-0.4,0l-0.5-0.3l-0.5,0.3c-0.1,0.1-0.3,0.1-0.4,0l-0.5-0.3l-0.6,0.3
					C550.7,51.9,550.6,51.9,550.5,51.9z"/>
			</g>
			<g>
				<g>
					<path class="st2" d="M547.9,53.5c-0.1,0-0.2-0.1-0.3-0.2c-1.9-2.5-2.9-4.9-3.4-6.1c-0.1-0.4-0.3-0.7-0.3-0.8
						c-0.3-0.6-0.7-0.7-0.7-0.7c-0.2,0-0.4-0.2-0.3-0.5c0-0.2,0.2-0.4,0.4-0.3c0.1,0,0.8,0.1,1.3,1.1c0.1,0.2,0.2,0.5,0.4,0.9
						c0.5,1.2,1.4,3.5,3.3,5.9c0.1,0.2,0.1,0.4-0.1,0.6C548,53.5,548,53.5,547.9,53.5z"/>
				</g>
				<g>
					<path class="st2" d="M547,46.2L547,46.2l-1.5-0.2l-7.3-0.7c-0.2,0-0.4-0.2-0.4-0.4s0.2-0.4,0.4-0.4l8.7,0.9
						c0.2,0,0.4,0.2,0.4,0.4C547.4,46,547.2,46.2,547,46.2z"/>
				</g>
				<g>
					<path class="st2" d="M550,56.6H428.4c-2.2,0-3.1-0.2-3.4-0.8c-0.2-0.5,0.2-1.1,0.8-1.7c0.2-0.2,0.4-0.5,0.7-0.8
						c1.9-2.5,2.8-4.7,3.3-5.9c0.2-0.4,0.3-0.7,0.4-0.9c0.5-0.9,1.2-1.1,1.3-1.1l8.6-2.4c0.2-0.1,0.4,0.1,0.5,0.3s-0.1,0.4-0.3,0.5
						l-8.6,2.4c-0.1,0-0.4,0.1-0.7,0.7c-0.1,0.2-0.2,0.5-0.4,0.8c-0.5,1.2-1.4,3.6-3.4,6.1c-0.2,0.3-0.5,0.6-0.7,0.8
						c-0.3,0.3-0.7,0.8-0.7,0.9c0,0,0.4,0.3,2.7,0.3h121.7c2.2,0,2.6-0.2,2.7-0.3c0-0.1-0.4-0.6-0.7-0.9c-0.2-0.3-0.5-0.5-0.7-0.8
						c-2-2.6-2.9-5-3.4-6.2c-0.1-0.3-0.2-0.6-0.3-0.7c-0.3-0.5-0.7-0.7-0.7-0.7l-8.6-2.4c-0.2-0.1-0.3-0.3-0.3-0.5
						c0.1-0.2,0.3-0.3,0.5-0.3l8.6,2.4c0.1,0,0.7,0.2,1.2,1.1c0.1,0.2,0.2,0.5,0.3,0.8c0.5,1.2,1.4,3.5,3.3,6
						c0.2,0.3,0.4,0.5,0.7,0.8c0.6,0.7,1.1,1.2,0.8,1.7C553.2,56.4,552.3,56.6,550,56.6z"/>
				</g>
				<g>
					<path class="st2" d="M430.5,53.5c-0.1,0-0.2,0-0.2-0.1c-0.2-0.1-0.2-0.4-0.1-0.6c1.9-2.5,2.8-4.7,3.3-5.9
						c0.2-0.4,0.3-0.7,0.4-0.9c0.5-0.9,1.2-1.1,1.3-1.1c0.2,0,0.4,0.1,0.5,0.3c0,0.2-0.1,0.4-0.3,0.5c0,0-0.4,0.1-0.7,0.7
						c-0.1,0.2-0.2,0.5-0.4,0.8c-0.5,1.2-1.4,3.6-3.4,6.1C430.8,53.5,430.6,53.5,430.5,53.5z"/>
				</g>
				<g>
					<path class="st2" d="M435.4,50.8c-0.1,0-0.1,0-0.2-0.1c-0.2-0.1-0.3-0.4-0.1-0.5c0.8-1.4,1.3-2.6,1.6-3.3
						c0.2-0.4,0.3-0.8,0.4-1c0.4-0.9,1.1-1.2,1.1-1.2c0.2-0.1,0.4,0,0.5,0.2s0,0.4-0.2,0.5c0,0-0.4,0.2-0.8,0.9
						c-0.1,0.2-0.2,0.5-0.4,0.9c-0.3,0.8-0.8,2-1.6,3.4C435.7,50.7,435.5,50.8,435.4,50.8z"/>
				</g>
				<g>
					<path class="st2" d="M431.5,46.2c-0.2,0-0.4-0.2-0.4-0.4s0.1-0.4,0.4-0.4l1.4-0.2l7.2-0.7c0.2,0,0.4,0.1,0.4,0.4
						c0,0.2-0.1,0.4-0.4,0.4L431.5,46.2L431.5,46.2z"/>
				</g>
			</g>
			<g>
				<path class="st2" d="M427.9,51.9c-0.1,0-0.2,0-0.2-0.1l-0.5-0.3l-0.6,0.3c-0.1,0.1-0.3,0.1-0.4,0l-0.5-0.3l-0.5,0.3
					c-0.1,0.1-0.3,0.1-0.4,0l-0.5-0.3l-0.5,0.3c-0.1,0.1-0.3,0.1-0.4,0l-0.8-0.5c-0.1-0.1-0.2-0.2-0.2-0.3s0-0.2,0.1-0.3l0.7-1
					c0.1-0.1,0.2-0.1,0.3-0.2l5.6-1c0.2,0,0.4,0.1,0.5,0.3c0,0.2-0.1,0.4-0.3,0.5l-5.4,1l-0.4,0.6l0.2,0.1l0.5-0.3
					c0.1-0.1,0.3-0.1,0.4,0l0.5,0.3l0.5-0.3c0.1-0.1,0.3-0.1,0.4,0l0.5,0.3l0.6-0.3c0.1-0.1,0.3-0.1,0.4,0l0.7,0.5
					c0.2,0.1,0.2,0.4,0.1,0.6C428.1,51.9,428,51.9,427.9,51.9z"/>
			</g>
		</g>
		<g>
			<g>
				<path class="st2" d="M496.6,55.8c-0.2,0-0.4-0.2-0.4-0.4v-0.8c0-0.2,0.2-0.4,0.4-0.4s0.4,0.2,0.4,0.4v0.8
					C497,55.6,496.8,55.8,496.6,55.8z M496.6,53.4c-0.2,0-0.4-0.2-0.4-0.4v-0.8c0-0.2,0.2-0.4,0.4-0.4s0.4,0.2,0.4,0.4V53
					C497,53.2,496.8,53.4,496.6,53.4z"/>
			</g>
			<g>
				<path class="st2" d="M510.1,55.8c-0.2,0-0.4-0.2-0.4-0.4v-0.8c0-0.2,0.2-0.4,0.4-0.4s0.4,0.2,0.4,0.4v0.8
					C510.5,55.6,510.3,55.8,510.1,55.8z M510.1,53.4c-0.2,0-0.4-0.2-0.4-0.4v-0.8c0-0.2,0.2-0.4,0.4-0.4s0.4,0.2,0.4,0.4V53
					C510.5,53.2,510.3,53.4,510.1,53.4z"/>
			</g>
			<g>
				<path class="st2" d="M523.6,55.8c-0.2,0-0.4-0.2-0.4-0.4v-0.8c0-0.2,0.2-0.4,0.4-0.4s0.4,0.2,0.4,0.4v0.8
					C524,55.6,523.9,55.8,523.6,55.8z M523.6,53.4c-0.2,0-0.4-0.2-0.4-0.4v-0.8c0-0.2,0.2-0.4,0.4-0.4s0.4,0.2,0.4,0.4V53
					C524,53.2,523.9,53.4,523.6,53.4z"/>
			</g>
			<g>
				<path class="st2" d="M537.2,55.8c-0.2,0-0.4-0.2-0.4-0.4v-0.8c0-0.2,0.2-0.4,0.4-0.4s0.4,0.2,0.4,0.4v0.8
					C537.6,55.6,537.5,55.8,537.2,55.8z M537.2,53.4c-0.2,0-0.4-0.2-0.4-0.4v-0.8c0-0.2,0.2-0.4,0.4-0.4s0.4,0.2,0.4,0.4V53
					C537.6,53.2,537.5,53.4,537.2,53.4z"/>
			</g>
			<g>
				<path class="st2" d="M442.4,55.8c-0.2,0-0.4-0.2-0.4-0.4v-0.8c0-0.2,0.2-0.4,0.4-0.4s0.4,0.2,0.4,0.4v0.8
					C442.8,55.6,442.6,55.8,442.4,55.8z M442.4,53.4c-0.2,0-0.4-0.2-0.4-0.4v-0.8c0-0.2,0.2-0.4,0.4-0.4s0.4,0.2,0.4,0.4V53
					C442.8,53.2,442.6,53.4,442.4,53.4z"/>
			</g>
			<g>
				<path class="st2" d="M455.9,55.8c-0.2,0-0.4-0.2-0.4-0.4v-0.8c0-0.2,0.2-0.4,0.4-0.4s0.4,0.2,0.4,0.4v0.8
					C456.3,55.6,456.1,55.8,455.9,55.8z M455.9,53.4c-0.2,0-0.4-0.2-0.4-0.4v-0.8c0-0.2,0.2-0.4,0.4-0.4s0.4,0.2,0.4,0.4V53
					C456.3,53.2,456.1,53.4,455.9,53.4z"/>
			</g>
			<g>
				<path class="st2" d="M469.5,55.8c-0.2,0-0.4-0.2-0.4-0.4v-0.8c0-0.2,0.2-0.4,0.4-0.4s0.4,0.2,0.4,0.4v0.8
					C469.9,55.6,469.7,55.8,469.5,55.8z M469.5,53.4c-0.2,0-0.4-0.2-0.4-0.4v-0.8c0-0.2,0.2-0.4,0.4-0.4s0.4,0.2,0.4,0.4V53
					C469.9,53.2,469.7,53.4,469.5,53.4z"/>
			</g>
			<g>
				<path class="st2" d="M483,55.8c-0.2,0-0.4-0.2-0.4-0.4v-0.8c0-0.2,0.2-0.4,0.4-0.4s0.4,0.2,0.4,0.4v0.8
					C483.4,55.6,483.2,55.8,483,55.8z M483,53.4c-0.2,0-0.4-0.2-0.4-0.4v-0.8c0-0.2,0.2-0.4,0.4-0.4s0.4,0.2,0.4,0.4V53
					C483.4,53.2,483.2,53.4,483,53.4z"/>
			</g>
		</g>
	</g>
	<g>
		<g>
			<g>
				<path class="st3" d="M489.5,33h-0.6c-1,0-1.8-0.8-1.8-1.8v-1c0-1,0.8-1.8,1.8-1.8h0.6c1,0,1.8,0.8,1.8,1.8v1
					C491.2,32.2,490.4,33,489.5,33z"/>
				<path class="st2" d="M489.5,33.4h-0.6c-1.2,0-2.2-1-2.2-2.2v-1c0-1.2,1-2.2,2.2-2.2h0.6c1.2,0,2.2,1,2.2,2.2v1
					C491.6,32.4,490.7,33.4,489.5,33.4z M488.9,28.9c-0.7,0-1.4,0.6-1.4,1.4v1c0,0.7,0.6,1.4,1.4,1.4h0.6c0.7,0,1.4-0.6,1.4-1.4v-1
					c0-0.7-0.6-1.4-1.4-1.4C489.5,28.9,488.9,28.9,488.9,28.9z"/>
			</g>
			<g>
				<path class="st3" d="M486,36.2v-2.6c0-0.8,0.6-1.4,1.4-1.4h3.5c0.8,0,1.4,0.6,1.4,1.4v2.6l-1.6,1.4h-3.1L486,36.2z"/>
				<path class="st2" d="M490.8,38.1h-3.1c-0.1,0-0.2,0-0.3-0.1l-1.7-1.4c-0.1-0.1-0.1-0.2-0.1-0.3v-2.6c0-1,0.8-1.8,1.8-1.8h3.5
					c1,0,1.8,0.8,1.8,1.8v2.6c0,0.1,0,0.2-0.1,0.3L491,38C491,38,490.9,38.1,490.8,38.1z M487.9,37.3h2.8l1.4-1.2v-2.4
					c0-0.6-0.5-1-1-1h-3.5c-0.6,0-1,0.5-1,1v2.4L487.9,37.3z"/>
			</g>
		</g>
		<g>
			<g>
				<rect x="489.6" y="30.4" class="st4" width="1.1" height="1.8"/>
				<path class="st2" d="M490.7,32.6h-1.1c-0.2,0-0.4-0.2-0.4-0.4v-1.8c0-0.2,0.2-0.4,0.4-0.4h1.1c0.2,0,0.4,0.2,0.4,0.4v1.8
					C491.1,32.5,490.9,32.6,490.7,32.6z M490,31.8h0.3v-1H490V31.8z"/>
			</g>
			<g>
				<path class="st2" d="M492,33.1c-0.1,0-0.2,0-0.3-0.1c-0.1-0.2-0.1-0.4,0-0.6c0.1-0.1,8.5-7.5,8.5-12.1c0-0.8-0.3-1.5-0.9-2
					c-0.5-0.5-1.1-0.6-1.7-0.5c-3,0.9-6.2,9.4-7.2,12.7c-0.1,0.2-0.3,0.3-0.5,0.3c-0.2-0.1-0.3-0.3-0.3-0.5
					c0.1-0.5,3.7-12.1,7.7-13.2c0.9-0.2,1.7,0,2.4,0.6c0.8,0.7,1.2,1.6,1.2,2.6c0,4.9-8.4,12.4-8.8,12.7
					C492.2,33.1,492.1,33.1,492,33.1z"/>
			</g>
			<g>
				<path class="st2" d="M492.3,33.5c-0.1,0-0.2,0-0.3-0.1c-0.1-0.2-0.1-0.4,0.1-0.6c0.1-0.1,9.2-7.6,9.3-12.2
					c0-0.8-0.3-1.4-0.8-1.9s-1.1-0.6-1.7-0.5c-3,0.9-6.2,9.4-7.2,12.7c-0.1,0.2-0.3,0.3-0.5,0.3c-0.2-0.1-0.3-0.3-0.3-0.5
					c0.1-0.5,3.7-12.1,7.7-13.2c0.9-0.2,1.7,0,2.4,0.6c0.7,0.7,1.1,1.5,1.1,2.5c-0.1,4.9-9.2,12.5-9.6,12.8
					C492.5,33.5,492.4,33.5,492.3,33.5z"/>
			</g>
			<g>
				<polygon class="st4" points="494.3,33.4 492.4,34.5 492.4,33.5 494.3,32.5 				"/>
				<path class="st2" d="M492.4,34.9c-0.1,0-0.1,0-0.2-0.1c-0.1-0.1-0.2-0.2-0.2-0.3v-1c0-0.1,0.1-0.3,0.2-0.3l1.8-1
					c0.1-0.1,0.3-0.1,0.4,0c0.1,0.1,0.2,0.2,0.2,0.3v1c0,0.1-0.1,0.3-0.2,0.3l-1.8,1C492.6,34.9,492.5,34.9,492.4,34.9z M492.8,33.8
					L492.8,33.8l1-0.6L492.8,33.8z M494.3,33.4L494.3,33.4L494.3,33.4z"/>
			</g>
			<g>
				<polygon class="st4" points="494.3,34.9 492.4,35.9 492.4,35 494.3,33.9 				"/>
				<path class="st2" d="M492.4,36.3c-0.1,0-0.1,0-0.2-0.1c-0.1-0.1-0.2-0.2-0.2-0.3v-1c0-0.1,0.1-0.3,0.2-0.3l1.8-1
					c0.1-0.1,0.3-0.1,0.4,0c0.1,0.1,0.2,0.2,0.2,0.3v1c0,0.1-0.1,0.3-0.2,0.3l-1.8,1C492.6,36.3,492.5,36.3,492.4,36.3z M492.8,35.2
					L492.8,35.2l1-0.6L492.8,35.2z M494.3,34.9L494.3,34.9L494.3,34.9z"/>
			</g>
			<g>
				<path class="st2" d="M501.9,37.6c-0.1,0-0.2,0-0.3-0.1c-0.2-0.1-0.2-0.4,0-0.6c0.1-0.1,2.1-2.4,0.5-4.4c-1.2-1.5-5.9,0-7.7,0.8
					c-0.2,0.1-0.4,0-0.5-0.2s0-0.4,0.2-0.5c0.7-0.3,6.9-2.8,8.6-0.5c1.6,2,0.3,4.4-0.6,5.4C502.1,37.6,502,37.6,501.9,37.6z"/>
			</g>
			<g>
				<path class="st2" d="M503.7,37.8c-0.1,0-0.1,0-0.2,0c-0.2-0.1-0.3-0.3-0.2-0.5c0.6-1.2,0.5-2.3-0.3-3.3c-1.3-1.7-6.7,0-8.7,0.8
					c-0.2,0.1-0.4,0-0.5-0.2s0-0.4,0.2-0.5c0.8-0.3,7.7-2.9,9.6-0.5c0.9,1.2,1.1,2.6,0.4,4.1C504,37.8,503.9,37.8,503.7,37.8z"/>
			</g>
		</g>
		<g>
			<g>
				<rect x="487.7" y="30.4" class="st4" width="1.1" height="1.8"/>
				<path class="st2" d="M488.8,32.6h-1.1c-0.2,0-0.4-0.2-0.4-0.4v-1.8c0-0.2,0.2-0.4,0.4-0.4h1.1c0.2,0,0.4,0.2,0.4,0.4v1.8
					C489.2,32.5,489.1,32.6,488.8,32.6z M488.1,31.8h0.3v-1h-0.3V31.8z"/>
			</g>
			<g>
				<path class="st2" d="M486.4,33.1c-0.1,0-0.2,0-0.3-0.1c-0.4-0.3-8.8-7.8-8.8-12.7c0-1.1,0.4-2,1.2-2.6c0.8-0.7,1.6-0.9,2.4-0.6
					c4,1.2,7.6,12.7,7.7,13.2c0.1,0.2-0.1,0.4-0.3,0.5s-0.4-0.1-0.5-0.3c-1-3.2-4.2-11.8-7.2-12.7c-0.6-0.2-1.1,0-1.7,0.5
					c-0.6,0.5-0.9,1.2-0.9,2c0,4.6,8.4,12,8.5,12.1c0.2,0.1,0.2,0.4,0,0.6C486.7,33.1,486.6,33.1,486.4,33.1z"/>
			</g>
			<g>
				<path class="st2" d="M486.1,33.5c-0.1,0-0.2,0-0.3-0.1c-0.4-0.3-9.5-7.9-9.6-12.8c0-1,0.4-1.9,1.1-2.5c0.8-0.7,1.6-0.9,2.4-0.6
					c4,1.2,7.6,12.7,7.7,13.2c0.1,0.2-0.1,0.4-0.3,0.5s-0.4-0.1-0.5-0.3c-1-3.2-4.2-11.8-7.2-12.7c-0.6-0.2-1.1,0-1.7,0.5
					c-0.6,0.5-0.8,1.1-0.8,1.9c0.1,4.5,9.2,12.1,9.3,12.2c0.2,0.1,0.2,0.4,0.1,0.6C486.3,33.5,486.2,33.5,486.1,33.5z"/>
			</g>
			<g>
				<polygon class="st4" points="484.1,33.4 486,34.5 486,33.5 484.1,32.5 				"/>
				<path class="st2" d="M486,34.9c-0.1,0-0.1,0-0.2,0l-1.9-1c-0.1-0.1-0.2-0.2-0.2-0.4v-1c0-0.1,0.1-0.3,0.2-0.3
					c0.1-0.1,0.3-0.1,0.4,0l1.9,1c0.1,0.1,0.2,0.2,0.2,0.4v1c0,0.1-0.1,0.3-0.2,0.3C486.2,34.9,486.1,34.9,486,34.9z M484.5,33.2
					l1.1,0.6v-0.1L484.5,33.2L484.5,33.2z"/>
			</g>
			<g>
				<polygon class="st4" points="484.1,34.9 486,35.9 486,35 484.1,33.9 				"/>
				<path class="st2" d="M486,36.3c-0.1,0-0.1,0-0.2,0l-1.9-1c-0.1-0.1-0.2-0.2-0.2-0.4v-1c0-0.1,0.1-0.3,0.2-0.3
					c0.1-0.1,0.3-0.1,0.4,0l1.9,1c0.1,0.1,0.2,0.2,0.2,0.4v1c0,0.1-0.1,0.3-0.2,0.3C486.2,36.3,486.1,36.3,486,36.3z M484.5,34.6
					l1.1,0.6l0,0L484.5,34.6L484.5,34.6z"/>
			</g>
			<g>
				<path class="st2" d="M476.5,37.6c-0.1,0-0.2,0-0.3-0.1c-0.9-1-2.1-3.4-0.6-5.4c1.7-2.3,7.9,0.2,8.6,0.5c0.2,0.1,0.3,0.3,0.2,0.5
					s-0.3,0.3-0.5,0.2c-1.7-0.7-6.5-2.3-7.7-0.8c-1.5,2,0.5,4.3,0.5,4.4c0.1,0.2,0.1,0.4,0,0.6C476.7,37.6,476.6,37.6,476.5,37.6z"
					/>
			</g>
			<g>
				<path class="st2" d="M474.7,37.8c-0.2,0-0.3-0.1-0.4-0.2c-0.7-1.5-0.6-2.9,0.4-4.1c1.9-2.4,8.8,0.2,9.6,0.5
					c0.2,0.1,0.3,0.3,0.2,0.5s-0.3,0.3-0.5,0.2c-2-0.8-7.4-2.4-8.7-0.8c-0.8,0.9-0.8,2-0.3,3.3c0.1,0.2,0,0.4-0.2,0.5
					C474.8,37.8,474.7,37.8,474.7,37.8z"/>
			</g>
		</g>
	</g>
	<g>
		<path class="st2" d="M453,34.6c-0.1,0-0.2,0-0.3-0.1c-0.2-0.2-0.2-0.4,0-0.6c0,0,0.1-0.2,0.2-0.5c0.5-1.1,1.6-3.5,2.8-4.7
			c2.7-2.7,13.9-4,17.9-4.3c4.5-0.3,15.3-0.4,15.4-0.4h0.2c0.1,0,10.8,0.1,15.4,0.4c3.5,0.3,15.2,1.5,17.9,4.3
			c1.3,1.2,2.3,3.5,2.8,4.6c0.1,0.3,0.2,0.4,0.2,0.5c0.2,0.2,0.1,0.4,0,0.5c-0.2,0.2-0.4,0.1-0.6,0c-0.1-0.1-0.1-0.2-0.4-0.7
			c-0.5-1-1.5-3.2-2.7-4.3c-2.1-2.1-10.7-3.5-17.4-4.1c-4.6-0.3-15.2-0.4-15.3-0.4h-0.2c-0.1,0-10.8,0.1-15.3,0.4
			c-5.6,0.4-15.2,1.8-17.4,4c-1.1,1.1-2.1,3.4-2.6,4.4c-0.3,0.6-0.3,0.7-0.4,0.8C453.2,34.6,453.1,34.6,453,34.6z"/>
	</g>
	<g>
		<g>
			<path class="st2" d="M508.3,3.3c-0.7,0-1.2-0.6-1.2-1.4s0.5-1.4,1.2-1.4s1.2,0.6,1.2,1.4C509.5,2.6,508.9,3.3,508.3,3.3z
				 M508.3,1.2c-0.2,0-0.4,0.3-0.4,0.6c0,0.4,0.2,0.6,0.4,0.6s0.4-0.3,0.4-0.6S508.5,1.2,508.3,1.2z"/>
		</g>
		<g>
			<path class="st2" d="M508.3,3.4L508.3,3.4c-0.6,0-1.7-0.4-1.7-1.4c0-0.4,0.1-0.8,0.4-1c0.5-0.5,1.2-0.4,1.3-0.4
				c0.2,0,0.4,0.2,0.4,0.4s-0.2,0.4-0.4,0.4l0,0c-0.1,0-0.5,0-0.7,0.2c-0.1,0.1-0.2,0.2-0.2,0.4c0,0.6,0.9,0.6,0.9,0.6
				c0.2,0,0.4,0.2,0.4,0.4S508.5,3.4,508.3,3.4z"/>
		</g>
		<g>
			<path class="st2" d="M507,2.2h-1.2c-0.2,0-0.4-0.2-0.4-0.4s0.2-0.4,0.4-0.4h1.2c0.2,0,0.4,0.2,0.4,0.4S507.2,2.2,507,2.2z"/>
		</g>
	</g>
	<g>
		<g>
			<path class="st2" d="M470.3,3.3c-0.7,0-1.2-0.6-1.2-1.4s0.5-1.4,1.2-1.4s1.2,0.6,1.2,1.4C471.5,2.6,470.9,3.3,470.3,3.3z
				 M470.3,1.2c-0.2,0-0.4,0.3-0.4,0.6c0,0.4,0.2,0.6,0.4,0.6s0.4-0.3,0.4-0.6S470.5,1.2,470.3,1.2z"/>
		</g>
		<g>
			<path class="st2" d="M470.3,3.4c-0.2,0-0.4-0.2-0.4-0.4s0.2-0.4,0.4-0.4c0,0,0.9-0.1,0.9-0.6c0-0.2-0.1-0.3-0.2-0.4
				c-0.2-0.2-0.7-0.2-0.7-0.2c-0.2,0-0.4-0.2-0.4-0.4s0.2-0.4,0.4-0.4c0.1,0,0.8,0,1.3,0.4c0.3,0.3,0.4,0.6,0.4,1
				C472,3,470.9,3.3,470.3,3.4L470.3,3.4z"/>
		</g>
		<g>
			<path class="st2" d="M472.8,2.2h-1.2c-0.2,0-0.4-0.2-0.4-0.4s0.2-0.4,0.4-0.4h1.2c0.2,0,0.4,0.2,0.4,0.4S473,2.2,472.8,2.2z"/>
		</g>
	</g>
</g>
</svg>
