<?xml version="1.0" encoding="utf-8"?>
<!-- Generator: Adobe Illustrator 21.1.0, SVG Export Plug-In . SVG Version: 6.00 Build 0)  -->
<svg version="1.1" id="Layer_1" xmlns="http://www.w3.org/2000/svg" xmlns:xlink="http://www.w3.org/1999/xlink" x="0px" y="0px"
	 width="215.2px" height="56px" viewBox="0 0 215.2 56" style="enable-background:new 0 0 215.2 56;" xml:space="preserve">
<style type="text/css">
	.st0{fill:#BDBBBB;}
</style>
<g>
	<g>
		<path class="st0" d="M202.4,56H12.8V0h189.6V56z M13.6,55.2h188V0.8h-188V55.2z"/>
	</g>
	<g>
		<g>
			<path class="st0" d="M207.2,13.6h-5.6V8h5.6V13.6z M202.4,12.8h4v-4h-4V12.8z"/>
		</g>
		<g>
			<path class="st0" d="M207.2,48h-5.6v-5.6h5.6V48z M202.4,47.2h4v-4h-4V47.2z"/>
		</g>
		<g>
			<polygon class="st0" points="215.2,45.6 206.8,45.6 206.8,44.8 214.4,44.8 214.4,11.2 206.8,11.2 206.8,10.4 215.2,10.4 			"/>
		</g>
	</g>
	<g>
		<g>
			<path class="st0" d="M13.6,13.6H8V8h5.6V13.6z M8.8,12.8h4v-4h-4V12.8z"/>
		</g>
		<g>
			<path class="st0" d="M13.6,48H8v-5.6h5.6V48z M8.8,47.2h4v-4h-4V47.2z"/>
		</g>
		<g>
			<polygon class="st0" points="8.4,45.6 0,45.6 0,10.4 8.4,10.4 8.4,11.2 0.8,11.2 0.8,44.8 8.4,44.8 			"/>
		</g>
	</g>
</g>
</svg>
