<?xml version="1.0" encoding="utf-8"?>
<!-- Generator: Adobe Illustrator 22.0.1, SVG Export Plug-In . SVG Version: 6.00 Build 0)  -->
<svg version="1.1" id="Layer_1" xmlns="http://www.w3.org/2000/svg" xmlns:xlink="http://www.w3.org/1999/xlink" x="0px" y="0px"
	 width="766.4px" height="63.5px" viewBox="0 0 766.4 63.5" style="enable-background:new 0 0 766.4 63.5;" xml:space="preserve">
<style type="text/css">
	.st0{fill:none;stroke:#666666;stroke-linecap:round;stroke-linejoin:round;stroke-miterlimit:10;}
</style>
<g>
	<g>
		<g>
			<path class="st0" d="M345,51.6c0,3.9-3.2,7.1-7.1,7.1h-57.5c-3.9,0-7.1-3.2-7.1-7.1l0,0c0-3.9,3.2-7.1,7.1-7.1H338
				C341.9,44.5,345,47.7,345,51.6L345,51.6z"/>
			<g>
				<line class="st0" x1="312.4" y1="58.7" x2="312.4" y2="60.7"/>
				<line class="st0" x1="314.4" y1="58.7" x2="314.4" y2="60.7"/>
				<line class="st0" x1="316.5" y1="58.7" x2="316.5" y2="60.7"/>
				<line class="st0" x1="318.6" y1="58.7" x2="318.6" y2="60.7"/>
				<line class="st0" x1="320.7" y1="58.7" x2="320.7" y2="60.7"/>
				<line class="st0" x1="322.7" y1="58.7" x2="322.7" y2="60.7"/>
				<line class="st0" x1="324.8" y1="58.7" x2="324.8" y2="60.7"/>
				<line class="st0" x1="326.9" y1="58.7" x2="326.9" y2="60.7"/>
				<line class="st0" x1="329" y1="58.7" x2="329" y2="60.7"/>
				<line class="st0" x1="331.1" y1="58.7" x2="331.1" y2="60.7"/>
				<line class="st0" x1="333.1" y1="58.7" x2="333.1" y2="60.7"/>
				<line class="st0" x1="335.2" y1="58.7" x2="335.2" y2="60.7"/>
				<line class="st0" x1="337.3" y1="58.7" x2="337.3" y2="60.7"/>
				<g>
					<line class="st0" x1="347.1" y1="51.6" x2="345" y2="51.6"/>
					<line class="st0" x1="339.5" y1="42.6" x2="339.2" y2="44.6"/>
					<line class="st0" x1="345.6" y1="46.4" x2="344" y2="47.6"/>
					<line class="st0" x1="346.7" y1="49" x2="344.8" y2="49.6"/>
					<line class="st0" x1="341.8" y1="43.3" x2="341" y2="45.3"/>
					<line class="st0" x1="344" y1="44.6" x2="342.7" y2="46.2"/>
				</g>
				<g>
					<line class="st0" x1="339.5" y1="60.6" x2="339.2" y2="58.6"/>
					<line class="st0" x1="345.6" y1="56.8" x2="344" y2="55.6"/>
					<line class="st0" x1="346.7" y1="54.2" x2="344.8" y2="53.6"/>
					<line class="st0" x1="341.8" y1="59.8" x2="341" y2="57.9"/>
					<line class="st0" x1="344" y1="58.6" x2="342.7" y2="57"/>
				</g>
				<line class="st0" x1="306.1" y1="58.7" x2="306.1" y2="60.7"/>
				<line class="st0" x1="308.2" y1="58.7" x2="308.2" y2="60.7"/>
				<line class="st0" x1="310.3" y1="58.7" x2="310.3" y2="60.7"/>
				<line class="st0" x1="304" y1="58.7" x2="304" y2="60.7"/>
				<line class="st0" x1="302" y1="58.7" x2="302" y2="60.7"/>
				<line class="st0" x1="299.9" y1="58.7" x2="299.9" y2="60.7"/>
				<line class="st0" x1="297.8" y1="58.7" x2="297.8" y2="60.7"/>
				<line class="st0" x1="295.7" y1="58.7" x2="295.7" y2="60.7"/>
				<line class="st0" x1="293.6" y1="58.7" x2="293.6" y2="60.7"/>
				<line class="st0" x1="291.6" y1="58.7" x2="291.6" y2="60.7"/>
				<line class="st0" x1="289.5" y1="58.7" x2="289.5" y2="60.7"/>
				<line class="st0" x1="287.4" y1="58.7" x2="287.4" y2="60.7"/>
				<line class="st0" x1="285.3" y1="58.7" x2="285.3" y2="60.7"/>
				<line class="st0" x1="283.2" y1="58.7" x2="283.2" y2="60.7"/>
				<line class="st0" x1="281.2" y1="58.7" x2="281.2" y2="60.7"/>
				<line class="st0" x1="312.4" y1="42.3" x2="312.4" y2="44.4"/>
				<line class="st0" x1="314.4" y1="42.3" x2="314.4" y2="44.4"/>
				<line class="st0" x1="316.5" y1="42.3" x2="316.5" y2="44.4"/>
				<line class="st0" x1="318.6" y1="42.3" x2="318.6" y2="44.4"/>
				<line class="st0" x1="320.7" y1="42.3" x2="320.7" y2="44.4"/>
				<line class="st0" x1="322.7" y1="42.3" x2="322.7" y2="44.4"/>
				<line class="st0" x1="324.8" y1="42.3" x2="324.8" y2="44.4"/>
				<line class="st0" x1="326.9" y1="42.3" x2="326.9" y2="44.4"/>
				<line class="st0" x1="329" y1="42.3" x2="329" y2="44.4"/>
				<line class="st0" x1="331.1" y1="42.3" x2="331.1" y2="44.4"/>
				<line class="st0" x1="333.1" y1="42.3" x2="333.1" y2="44.4"/>
				<line class="st0" x1="335.2" y1="42.3" x2="335.2" y2="44.4"/>
				<line class="st0" x1="337.3" y1="42.3" x2="337.3" y2="44.4"/>
				<line class="st0" x1="306.1" y1="42.3" x2="306.1" y2="44.4"/>
				<line class="st0" x1="308.2" y1="42.3" x2="308.2" y2="44.4"/>
				<line class="st0" x1="310.3" y1="42.3" x2="310.3" y2="44.4"/>
				<line class="st0" x1="304" y1="42.3" x2="304" y2="44.4"/>
				<line class="st0" x1="302" y1="42.3" x2="302" y2="44.4"/>
				<line class="st0" x1="299.9" y1="42.3" x2="299.9" y2="44.4"/>
				<line class="st0" x1="297.8" y1="42.3" x2="297.8" y2="44.4"/>
				<line class="st0" x1="295.7" y1="42.3" x2="295.7" y2="44.4"/>
				<line class="st0" x1="293.6" y1="42.3" x2="293.6" y2="44.4"/>
				<line class="st0" x1="291.6" y1="42.3" x2="291.6" y2="44.4"/>
				<line class="st0" x1="289.5" y1="42.3" x2="289.5" y2="44.4"/>
				<line class="st0" x1="287.4" y1="42.3" x2="287.4" y2="44.4"/>
				<line class="st0" x1="285.3" y1="42.3" x2="285.3" y2="44.4"/>
				<line class="st0" x1="283.2" y1="42.3" x2="283.2" y2="44.4"/>
				<line class="st0" x1="281.2" y1="42.3" x2="281.2" y2="44.4"/>
				<g>
					<line class="st0" x1="271.1" y1="51.6" x2="273.1" y2="51.6"/>
					<line class="st0" x1="278.6" y1="42.6" x2="279" y2="44.6"/>
					<line class="st0" x1="272.5" y1="46.4" x2="274.2" y2="47.6"/>
					<line class="st0" x1="271.4" y1="49" x2="273.4" y2="49.6"/>
					<line class="st0" x1="276.4" y1="43.3" x2="277.1" y2="45.3"/>
					<line class="st0" x1="274.2" y1="44.6" x2="275.5" y2="46.2"/>
				</g>
				<g>
					<line class="st0" x1="278.6" y1="60.6" x2="279" y2="58.6"/>
					<line class="st0" x1="272.5" y1="56.8" x2="274.2" y2="55.6"/>
					<line class="st0" x1="271.4" y1="54.2" x2="273.4" y2="53.6"/>
					<line class="st0" x1="276.4" y1="59.8" x2="277.1" y2="57.9"/>
					<line class="st0" x1="274.2" y1="58.6" x2="275.5" y2="57"/>
				</g>
			</g>
		</g>
		<g>
			<g>
				<path class="st0" d="M342.2,51.7c0,2.8-2.3,5.1-5.1,5.1c-2.8,0-5.1-2.3-5.1-5.1c0-2.8,2.3-5.1,5.1-5.1
					C339.9,46.6,342.2,48.9,342.2,51.7z"/>
				<path class="st0" d="M340.3,51.7c0,1.8-1.4,3.2-3.2,3.2c-1.8,0-3.2-1.4-3.2-3.2c0-1.8,1.4-3.2,3.2-3.2
					C338.9,48.5,340.3,49.9,340.3,51.7z"/>
			</g>
			<g>
				<path class="st0" d="M330.6,51.7c0,2.8-2.3,5.1-5.1,5.1c-2.8,0-5.1-2.3-5.1-5.1c0-2.8,2.3-5.1,5.1-5.1
					C328.3,46.6,330.6,48.9,330.6,51.7z"/>
				<path class="st0" d="M328.7,51.7c0,1.8-1.4,3.2-3.2,3.2c-1.8,0-3.2-1.4-3.2-3.2c0-1.8,1.4-3.2,3.2-3.2
					C327.2,48.5,328.7,49.9,328.7,51.7z"/>
			</g>
			<g>
				<path class="st0" d="M319,51.7c0,2.8-2.3,5.1-5.1,5.1c-2.8,0-5.1-2.3-5.1-5.1c0-2.8,2.3-5.1,5.1-5.1
					C316.7,46.6,319,48.9,319,51.7z"/>
				<path class="st0" d="M317,51.7c0,1.8-1.4,3.2-3.2,3.2c-1.8,0-3.2-1.4-3.2-3.2c0-1.8,1.4-3.2,3.2-3.2
					C315.6,48.5,317,49.9,317,51.7z"/>
			</g>
			<g>
				<path class="st0" d="M307.3,51.7c0,2.8-2.3,5.1-5.1,5.1c-2.8,0-5.1-2.3-5.1-5.1c0-2.8,2.3-5.1,5.1-5.1
					C305.1,46.6,307.3,48.9,307.3,51.7z"/>
				<path class="st0" d="M305.4,51.7c0,1.8-1.4,3.2-3.2,3.2c-1.8,0-3.2-1.4-3.2-3.2c0-1.8,1.4-3.2,3.2-3.2
					C304,48.5,305.4,49.9,305.4,51.7z"/>
			</g>
			<g>
				<path class="st0" d="M295.7,51.7c0,2.8-2.3,5.1-5.1,5.1c-2.8,0-5.1-2.3-5.1-5.1c0-2.8,2.3-5.1,5.1-5.1
					C293.4,46.6,295.7,48.9,295.7,51.7z"/>
				<path class="st0" d="M293.8,51.7c0,1.8-1.4,3.2-3.2,3.2c-1.8,0-3.2-1.4-3.2-3.2c0-1.8,1.4-3.2,3.2-3.2
					C292.4,48.5,293.8,49.9,293.8,51.7z"/>
			</g>
			<path class="st0" d="M284,48.7l-1.6,0.4c-0.2-0.3-0.4-0.5-0.7-0.7l0.4-1.6c-0.2-0.1-0.3-0.2-0.5-0.2l-0.9,1.4c-0.2,0-0.3,0-0.5,0
				s-0.3,0-0.5,0l-0.9-1.4c-0.2,0.1-0.4,0.1-0.5,0.2l0.4,1.6c-0.3,0.2-0.5,0.4-0.7,0.7l-1.6-0.4c-0.1,0.2-0.2,0.3-0.2,0.5l1.4,0.9
				c0,0.2,0,0.3,0,0.5c0,0.2,0,0.3,0,0.5l-1.4,0.9c0.1,0.2,0.1,0.4,0.2,0.5l1.6-0.4c0.2,0.3,0.4,0.5,0.7,0.7l-0.4,1.6
				c0.2,0.1,0.3,0.2,0.5,0.2l0.9-1.4c0.2,0,0.3,0,0.5,0s0.3,0,0.5,0l0.9,1.4c0.2-0.1,0.4-0.1,0.5-0.2l-0.4-1.6
				c0.3-0.2,0.5-0.4,0.7-0.7l1.6,0.4c0.1-0.2,0.2-0.3,0.2-0.5l-1.4-0.9c0-0.2,0-0.3,0-0.5c0-0.2,0-0.3,0-0.5l1.4-0.9
				C284.1,49.1,284.1,48.9,284,48.7z"/>
		</g>
		<g>
			<g>
				<polyline class="st0" points="296.9,40 279.3,40 279.3,38.2 281.1,38.2 297.1,38.2 				"/>
				<polyline class="st0" points="281.3,38.2 281.3,36 300.8,31.9 				"/>
				<path class="st0" d="M304.3,34.7"/>
				<line class="st0" x1="290.3" y1="34.3" x2="290.3" y2="38.2"/>
				<polyline class="st0" points="309.1,26.6 309.1,18.8 311.9,16.3 311.9,25.8 				"/>
				<path class="st0" d="M282.6,26.5c0.2,0.6,0.1,1.2-0.2,1.3c-0.3,0.1-0.7-0.3-0.9-0.9c-0.2-0.6-0.1-1.2,0.2-1.3
					C282,25.5,282.4,25.9,282.6,26.5z"/>
				<path class="st0" d="M312.7,26.2c0,0-1.4,11.3,1.2,13.7L296.8,40C296.8,40,299.1,26.8,312.7,26.2z"/>
				<line class="st0" x1="299.8" y1="36.3" x2="309.7" y2="37.4"/>
				<line class="st0" x1="302.9" y1="32.7" x2="309.7" y2="35.2"/>
				<line class="st0" x1="306.8" y1="30.5" x2="310.1" y2="33"/>
				<line class="st0" x1="287.1" y1="38.2" x2="282.6" y2="27.6"/>
			</g>
			<g>
				<g>
					<path class="st0" d="M330,16l0-2.1c0-0.7,0.6-1.3,1.3-1.3l0,0c0.7,0,1.3,0.6,1.3,1.3l0,2.3"/>
				</g>
				<path class="st0" d="M341.8,40.4c0,0-24.6,1.2-26.6-2.7c-1.7-3.2,0.7-22,0.7-22s16.7,0.1,18.8,1.2
					C341.4,20.4,341.8,40.4,341.8,40.4z"/>
				<path class="st0" d="M338.6,35.4l-5.8-0.7l-0.7,2.2c0,0-11.4-1.2-12.8-3.4c-2.1-3.2,0.2-15,0.2-15s11.9,0.1,13.2,0.9
					C338,22.8,338.6,35.4,338.6,35.4z"/>
				<line class="st0" x1="317.8" y1="15.5" x2="317.8" y2="14"/>
				<path class="st0" d="M318.4,12.9c0,0.6-0.3,1.1-0.6,1.1c-0.3,0-0.5-0.5-0.5-1.1c0-0.6,0.3-1.1,0.6-1.1
					C318.1,11.8,318.4,12.3,318.4,12.9z"/>
				<rect x="342.2" y="19.2" class="st0" width="2.1" height="8.7"/>
				<path class="st0" d="M335.4,17.3c0,0,6.5,0,6.8,1.5v10.7l-4,1.9"/>
			</g>
		</g>
		<path class="st0" d="M276.9,40.1c0,0-5.7,1.4-6.2,1.6c-0.4,0.2-1.1,0.8-1.4,1.8c-0.2,1-1.1,5.7-1.1,5.7"/>
		<g>
			<g>
				<polyline class="st0" points="232.2,59.4 242.6,59.4 248.5,56.7 				"/>
				<path class="st0" d="M244.7,56.6c0,0,4.1-3.1,8.2-3.1c3.1,0,3.1,6,3.1,6h-11.3V56.6z"/>
				<path class="st0" d="M255.9,58.2h1.9c0,0,0-8-4.1-8c-4.1,0-7.2,2.2-8.9,3.5c-1.3,1-3.6,2.8-5,5.3"/>
				<polygon class="st0" points="255.1,50.3 251.5,50.3 251.5,45.5 253.3,45 255.1,45.5 				"/>
				<line class="st0" x1="253.5" y1="56.9" x2="262.3" y2="59.9"/>
				<line class="st0" x1="255.1" y1="50.3" x2="255.1" y2="37"/>
			</g>
			<line class="st0" x1="255.4" y1="47.7" x2="266.8" y2="46.6"/>
		</g>
		<g>
			<line class="st0" x1="344.5" y1="41.8" x2="360.3" y2="39.9"/>
			<line class="st0" x1="351.6" y1="48.5" x2="361.9" y2="43.1"/>
			<line class="st0" x1="347.5" y1="44" x2="358" y2="35.1"/>
			<line class="st0" x1="357.5" y1="34" x2="362.9" y2="45.1"/>
			<g>
				<path class="st0" d="M360.9,35.2l15.6-7.1c0,0-0.2,3.8,1.1,6.4c1.3,2.6,5,5.7,5,5.7l-15.7,7.7l-8.7-17.7l10.5-0.9l0.8,1.7"/>
				<line class="st0" x1="363.7" y1="41.3" x2="377.6" y2="34.5"/>
				<line class="st0" x1="365.1" y1="29.8" x2="366.5" y2="32.7"/>
				<line class="st0" x1="361.1" y1="30" x2="363.1" y2="34.1"/>
			</g>
		</g>
	</g>
	<g>
		<g>
			<g>
				<polyline class="st0" points="0.5,60.9 10.9,60.9 16.8,58.2 				"/>
				<path class="st0" d="M13,58.1c0,0,4.1-3.1,8.2-3.1c3.1,0,3.1,6,3.1,6l-11.3,0L13,58.1z"/>
				<path class="st0" d="M24.2,59.7l1.9,0c0,0,0-8-4.1-8c-4.1,0-7.2,2.2-8.9,3.5c-1.3,1-3.6,2.8-5,5.3"/>
				<polygon class="st0" points="23.4,51.8 19.8,51.8 19.8,46.9 21.6,46.5 23.4,46.9 				"/>
				<line class="st0" x1="21.8" y1="58.4" x2="30.5" y2="61.4"/>
				<line class="st0" x1="23.4" y1="51.8" x2="23.5" y2="38.5"/>
			</g>
			<line class="st0" x1="23.7" y1="49.2" x2="35.1" y2="48.1"/>
		</g>
		<path class="st0" d="M69.5,37.8"/>
		<g>
			<path class="st0" d="M110.6,53.6c0,3.9-3.1,7.1-7,7.1l-57.5,0.1c-3.9,0-7.1-3.1-7.1-7l0,0c0-3.9,3.1-7.1,7-7.1l57.5-0.1
				C107.5,46.5,110.6,49.7,110.6,53.6L110.6,53.6z"/>
			<g>
				<line class="st0" x1="78" y1="60.7" x2="78" y2="62.7"/>
				<line class="st0" x1="80.1" y1="60.7" x2="80.1" y2="62.7"/>
				<line class="st0" x1="82.1" y1="60.7" x2="82.2" y2="62.7"/>
				<line class="st0" x1="84.2" y1="60.7" x2="84.2" y2="62.7"/>
				<line class="st0" x1="86.3" y1="60.7" x2="86.3" y2="62.7"/>
				<line class="st0" x1="88.4" y1="60.7" x2="88.4" y2="62.7"/>
				<line class="st0" x1="90.5" y1="60.7" x2="90.5" y2="62.7"/>
				<line class="st0" x1="92.5" y1="60.7" x2="92.5" y2="62.7"/>
				<line class="st0" x1="94.6" y1="60.7" x2="94.6" y2="62.7"/>
				<line class="st0" x1="96.7" y1="60.7" x2="96.7" y2="62.7"/>
				<line class="st0" x1="98.8" y1="60.6" x2="98.8" y2="62.7"/>
				<line class="st0" x1="100.9" y1="60.6" x2="100.9" y2="62.7"/>
				<line class="st0" x1="102.9" y1="60.6" x2="102.9" y2="62.7"/>
				<g>
					<line class="st0" x1="112.7" y1="53.6" x2="110.6" y2="53.6"/>
					<line class="st0" x1="105.1" y1="44.6" x2="104.8" y2="46.6"/>
					<line class="st0" x1="111.2" y1="48.4" x2="109.6" y2="49.6"/>
					<line class="st0" x1="112.3" y1="50.9" x2="110.4" y2="51.6"/>
					<line class="st0" x1="107.4" y1="45.3" x2="106.7" y2="47.2"/>
					<line class="st0" x1="109.6" y1="46.6" x2="108.3" y2="48.2"/>
				</g>
				<g>
					<line class="st0" x1="105.2" y1="62.6" x2="104.8" y2="60.5"/>
					<line class="st0" x1="111.3" y1="58.7" x2="109.6" y2="57.5"/>
					<line class="st0" x1="112.3" y1="56.2" x2="110.4" y2="55.6"/>
					<line class="st0" x1="107.4" y1="61.8" x2="106.7" y2="59.9"/>
					<line class="st0" x1="109.6" y1="60.5" x2="108.3" y2="58.9"/>
				</g>
				<line class="st0" x1="71.8" y1="60.7" x2="71.8" y2="62.8"/>
				<line class="st0" x1="73.8" y1="60.7" x2="73.8" y2="62.7"/>
				<line class="st0" x1="75.9" y1="60.7" x2="75.9" y2="62.7"/>
				<line class="st0" x1="69.7" y1="60.7" x2="69.7" y2="62.8"/>
				<line class="st0" x1="67.6" y1="60.7" x2="67.6" y2="62.8"/>
				<line class="st0" x1="65.5" y1="60.7" x2="65.5" y2="62.8"/>
				<line class="st0" x1="63.4" y1="60.7" x2="63.4" y2="62.8"/>
				<line class="st0" x1="61.4" y1="60.7" x2="61.4" y2="62.8"/>
				<line class="st0" x1="59.3" y1="60.7" x2="59.3" y2="62.8"/>
				<line class="st0" x1="57.2" y1="60.7" x2="57.2" y2="62.8"/>
				<line class="st0" x1="55.1" y1="60.7" x2="55.1" y2="62.8"/>
				<line class="st0" x1="53" y1="60.7" x2="53.1" y2="62.8"/>
				<line class="st0" x1="51" y1="60.8" x2="51" y2="62.8"/>
				<line class="st0" x1="48.9" y1="60.8" x2="48.9" y2="62.8"/>
				<line class="st0" x1="46.8" y1="60.8" x2="46.8" y2="62.8"/>
				<line class="st0" x1="78" y1="44.4" x2="78" y2="46.4"/>
				<line class="st0" x1="80" y1="44.4" x2="80" y2="46.4"/>
				<line class="st0" x1="82.1" y1="44.4" x2="82.1" y2="46.4"/>
				<line class="st0" x1="84.2" y1="44.4" x2="84.2" y2="46.4"/>
				<line class="st0" x1="86.3" y1="44.4" x2="86.3" y2="46.4"/>
				<line class="st0" x1="88.3" y1="44.4" x2="88.4" y2="46.4"/>
				<line class="st0" x1="90.4" y1="44.3" x2="90.4" y2="46.4"/>
				<line class="st0" x1="92.5" y1="44.3" x2="92.5" y2="46.4"/>
				<line class="st0" x1="94.6" y1="44.3" x2="94.6" y2="46.4"/>
				<line class="st0" x1="96.7" y1="44.3" x2="96.7" y2="46.4"/>
				<line class="st0" x1="98.7" y1="44.3" x2="98.7" y2="46.4"/>
				<line class="st0" x1="100.8" y1="44.3" x2="100.8" y2="46.4"/>
				<line class="st0" x1="102.9" y1="44.3" x2="102.9" y2="46.4"/>
				<line class="st0" x1="71.7" y1="44.4" x2="71.7" y2="46.4"/>
				<line class="st0" x1="73.8" y1="44.4" x2="73.8" y2="46.4"/>
				<line class="st0" x1="75.9" y1="44.4" x2="75.9" y2="46.4"/>
				<line class="st0" x1="69.6" y1="44.4" x2="69.6" y2="46.4"/>
				<line class="st0" x1="67.6" y1="44.4" x2="67.6" y2="46.4"/>
				<line class="st0" x1="65.5" y1="44.4" x2="65.5" y2="46.5"/>
				<line class="st0" x1="63.4" y1="44.4" x2="63.4" y2="46.5"/>
				<line class="st0" x1="61.3" y1="44.4" x2="61.3" y2="46.5"/>
				<line class="st0" x1="59.2" y1="44.4" x2="59.3" y2="46.5"/>
				<line class="st0" x1="57.2" y1="44.4" x2="57.2" y2="46.5"/>
				<line class="st0" x1="55.1" y1="44.4" x2="55.1" y2="46.5"/>
				<line class="st0" x1="53" y1="44.4" x2="53" y2="46.5"/>
				<line class="st0" x1="50.9" y1="44.4" x2="50.9" y2="46.5"/>
				<line class="st0" x1="48.9" y1="44.4" x2="48.9" y2="46.5"/>
				<line class="st0" x1="46.8" y1="44.4" x2="46.8" y2="46.5"/>
				<g>
					<line class="st0" x1="36.7" y1="53.7" x2="38.8" y2="53.7"/>
					<line class="st0" x1="44.2" y1="44.7" x2="44.6" y2="46.7"/>
					<line class="st0" x1="38.1" y1="48.5" x2="39.8" y2="49.7"/>
					<line class="st0" x1="37.1" y1="51.1" x2="39" y2="51.7"/>
					<line class="st0" x1="42" y1="45.5" x2="42.7" y2="47.4"/>
					<line class="st0" x1="39.8" y1="46.8" x2="41.1" y2="48.3"/>
				</g>
				<g>
					<line class="st0" x1="44.3" y1="62.7" x2="44.6" y2="60.7"/>
					<line class="st0" x1="38.2" y1="58.9" x2="39.8" y2="57.7"/>
					<line class="st0" x1="37.1" y1="56.3" x2="39" y2="55.7"/>
					<line class="st0" x1="42" y1="62" x2="42.8" y2="60.1"/>
					<line class="st0" x1="39.8" y1="60.7" x2="41.1" y2="59.1"/>
				</g>
			</g>
		</g>
		<g>
			<g>
				<path class="st0" d="M107.8,53.6c0,2.8-2.3,5.1-5.1,5.1c-2.8,0-5.1-2.3-5.1-5.1c0-2.8,2.3-5.1,5.1-5.1
					C105.5,48.6,107.8,50.8,107.8,53.6z"/>
				<path class="st0" d="M105.9,53.6c0,1.8-1.4,3.2-3.2,3.2c-1.8,0-3.2-1.4-3.2-3.2c0-1.8,1.4-3.2,3.2-3.2
					C104.5,50.5,105.9,51.9,105.9,53.6z"/>
			</g>
			<g>
				<path class="st0" d="M96.2,53.7c0,2.8-2.3,5.1-5.1,5.1c-2.8,0-5.1-2.3-5.1-5.1c0-2.8,2.3-5.1,5.1-5.1
					C93.9,48.6,96.2,50.9,96.2,53.7z"/>
				<path class="st0" d="M94.3,53.7c0,1.8-1.4,3.2-3.2,3.2c-1.8,0-3.2-1.4-3.2-3.2c0-1.8,1.4-3.2,3.2-3.2
					C92.9,50.5,94.3,51.9,94.3,53.7z"/>
			</g>
			<g>
				<path class="st0" d="M84.6,53.7c0,2.8-2.3,5.1-5.1,5.1c-2.8,0-5.1-2.3-5.1-5.1c0-2.8,2.3-5.1,5.1-5.1
					C82.3,48.6,84.6,50.9,84.6,53.7z"/>
				<path class="st0" d="M82.7,53.7c0,1.8-1.4,3.2-3.2,3.2c-1.8,0-3.2-1.4-3.2-3.2c0-1.8,1.4-3.2,3.2-3.2
					C81.2,50.5,82.7,51.9,82.7,53.7z"/>
			</g>
			<g>
				<path class="st0" d="M73,53.7c0,2.8-2.3,5.1-5.1,5.1c-2.8,0-5.1-2.3-5.1-5.1c0-2.8,2.3-5.1,5.1-5.1C70.7,48.6,73,50.9,73,53.7z"
					/>
				<path class="st0" d="M71.1,53.7c0,1.8-1.4,3.2-3.2,3.2c-1.8,0-3.2-1.4-3.2-3.2c0-1.8,1.4-3.2,3.2-3.2C69.6,50.6,71,52,71.1,53.7
					z"/>
			</g>
			<g>
				<path class="st0" d="M61.4,53.7c0,2.8-2.3,5.1-5.1,5.1c-2.8,0-5.1-2.3-5.1-5.1c0-2.8,2.3-5.1,5.1-5.1
					C59.1,48.7,61.3,50.9,61.4,53.7z"/>
				<path class="st0" d="M59.4,53.8c0,1.8-1.4,3.2-3.2,3.2c-1.8,0-3.2-1.4-3.2-3.2c0-1.8,1.4-3.2,3.2-3.2C58,50.6,59.4,52,59.4,53.8
					z"/>
			</g>
			<path class="st0" d="M49.6,50.8L48,51.2c-0.2-0.3-0.4-0.5-0.7-0.7l0.4-1.6c-0.2-0.1-0.3-0.2-0.5-0.2l-0.9,1.4c-0.2,0-0.3,0-0.5,0
				c-0.2,0-0.3,0-0.5,0l-0.9-1.4c-0.2,0.1-0.4,0.1-0.5,0.2l0.4,1.6c-0.3,0.2-0.5,0.4-0.7,0.7l-1.6-0.4c-0.1,0.2-0.2,0.3-0.2,0.5
				l1.4,0.9c0,0.2,0,0.3,0,0.5s0,0.3,0,0.5l-1.4,0.9c0.1,0.2,0.1,0.4,0.2,0.5l1.6-0.4c0.2,0.3,0.4,0.5,0.7,0.7l-0.4,1.6
				c0.2,0.1,0.3,0.2,0.5,0.2l0.9-1.4c0.2,0,0.3,0,0.5,0s0.3,0,0.5,0l0.9,1.4c0.2-0.1,0.4-0.1,0.5-0.2L47.3,55
				c0.3-0.2,0.5-0.4,0.7-0.7l1.6,0.4c0.1-0.2,0.2-0.3,0.2-0.5l-1.4-0.9c0-0.2,0-0.3,0-0.5c0-0.2,0-0.3,0-0.5l1.4-0.9
				C49.7,51.2,49.7,51,49.6,50.8z"/>
		</g>
		<path class="st0" d="M119.5,6.6c0.8-0.7,2-1,3.1-0.6c1.2,0.4,1.9,1.5,2,2.7c0,0.4,0,0.8-0.2,1.2c-0.6,1.6-2.3,2.4-3.9,1.8
			c-0.7-0.3-1.3-0.8-1.6-1.4"/>
		<path class="st0" d="M54.3,17.6L64.4,6.4l46.1-3l10.8,4c0,0,1.3,2.7-1.6,2.9l-10-2.9l-39.6,7.1l-0.9,2.1L54.3,17.6z"/>
		<path class="st0" d="M70.7,30.1l0-12.1c0,0-0.2-1.5-2.7-1.3C63.9,17,51.8,18,51.8,18s-1,0.3-1.1,1.5c-0.2,1.1-0.2,10.3-0.2,10.3
			l5.4,6.3"/>
		<g>
			<g>
				<polyline class="st0" points="62.5,41.8 44.9,41.9 44.9,40 46.7,40 62.7,40 				"/>
				<polyline class="st0" points="46.9,40 46.9,37.9 66.4,33.7 				"/>
				<path class="st0" d="M69.9,36.5"/>
				<line class="st0" x1="55.9" y1="36.1" x2="55.9" y2="40"/>
				<polyline class="st0" points="74.6,28.4 74.6,20.5 77.4,18.1 77.4,27.6 				"/>
				<path class="st0" d="M39.8,27.5c0.2,0.6,0.1,1.2-0.2,1.3c-0.3,0.1-0.7-0.3-0.9-0.9c-0.2-0.6-0.1-1.2,0.2-1.3
					C39.2,26.5,39.6,26.9,39.8,27.5z"/>
				<path class="st0" d="M78.3,28c0,0-1.4,11.3,1.2,13.7l-17.1,0.1C62.4,41.8,64.7,28.7,78.3,28z"/>
				<line class="st0" x1="65.4" y1="38.1" x2="75.3" y2="39.2"/>
				<line class="st0" x1="68.5" y1="34.5" x2="75.3" y2="36.9"/>
				<line class="st0" x1="72.4" y1="32.3" x2="75.7" y2="34.8"/>
				<line class="st0" x1="52.7" y1="40" x2="39.8" y2="28.7"/>
			</g>
			<g>
				<g>
					<path class="st0" d="M95.5,17.7l0-2.1c0-0.7,0.6-1.3,1.3-1.3l0,0c0.7,0,1.3,0.6,1.3,1.3l0,2.3"/>
				</g>
				<path class="st0" d="M107.4,42.1c0,0-24.6,1.2-26.6-2.7c-1.7-3.2,0.6-22,0.6-22s16.7,0.1,18.8,1.1
					C106.9,22.1,107.4,42.1,107.4,42.1z"/>
				<path class="st0" d="M104.2,37.1l-5.8-0.7l-0.7,2.2c0,0-11.4-1.1-12.8-3.4c-2.1-3.2,0.2-15,0.2-15s11.9,0,13.2,0.9
					C103.6,24.5,104.2,37.1,104.2,37.1z"/>
				<line class="st0" x1="83.3" y1="17.2" x2="83.4" y2="15.7"/>
				<path class="st0" d="M83.9,14.7c0,0.6-0.3,1.1-0.6,1.1c-0.3,0-0.6-0.5-0.5-1.1c0-0.6,0.3-1.1,0.6-1.1
					C83.7,13.6,83.9,14,83.9,14.7z"/>
				
					<rect x="107.7" y="20.9" transform="matrix(1 -2.189218e-03 2.189218e-03 1 -5.503743e-02 0.2382)" class="st0" width="2.1" height="8.7"/>
				<path class="st0" d="M101,19.1c0,0,6.5,0,6.8,1.5l0,10.7l-4,1.9"/>
			</g>
		</g>
		<g>
			<line class="st0" x1="111.2" y1="42.5" x2="127.1" y2="42.6"/>
			<line class="st0" x1="117.4" y1="50" x2="128.3" y2="46"/>
			<line class="st0" x1="113.8" y1="45.1" x2="125.4" y2="37.5"/>
			<line class="st0" x1="125" y1="36.4" x2="129" y2="48"/>
			<g>
				<path class="st0" d="M128.3,38l16.3-5.1c0,0-0.6,3.8,0.3,6.5s4.2,6.3,4.2,6.3l-16.5,5.6l-6.4-18.7l10.6,0.4l0.6,1.8"/>
				<line class="st0" x1="130.3" y1="44.4" x2="144.9" y2="39.4"/>
				<line class="st0" x1="133.1" y1="33.2" x2="134.1" y2="36.2"/>
				<line class="st0" x1="129.1" y1="32.8" x2="130.6" y2="37.2"/>
			</g>
		</g>
		<polygon class="st0" points="65.7,9.4 61.5,14 68,13.5 		"/>
		<polygon class="st0" points="68.7,8.7 70.5,11.9 96.4,6.9 		"/>
	</g>
	<g>
		<path class="st0" d="M705.3,41.9V9.7c0-0.7,0.6-1.2,1.3-1.2l31.1,0.6c0.7,0,3.7,5.2,4.7,11.6c0.9,5.8,1.6,15.2-0.4,21
			c-0.9,2.5-1.6,3.5-2.5,4l-8,3"/>
		<path class="st0" d="M708.7,29.7V12.8c0-0.6,0.5-1,1.1-1l25.9,0.5c0.6,0,3.1,4.4,3.9,9.6c0.4,2.7,0.8,6.9,0.8,10.4L708.7,29.7z"/>
		<path class="st0" d="M738.2,9.1l3.1,0l-1.2-4.7c-1.9,0-8.6,1.9-8.6,1.9l-27.8-0.6c-0.9,0-1.6,0.6-1.6,1.2v2.9l3.2,1.4"/>
		<polyline class="st0" points="697.8,28.9 697.8,16.4 701.7,12.3 701.7,28.3 		"/>
		<g>
			<path class="st0" d="M705.7,4.9l0-2.7c0-0.9,0.8-1.7,1.8-1.7l0,0c1,0,1.8,0.8,1.8,1.7l0,3"/>
		</g>
		<rect x="746.5" y="17.3" class="st0" width="3" height="12.2"/>
		<path class="st0" d="M740.8,14.7c0,0,8.3,0,8.7,2.1v15.1l-5.6,2.7"/>
		<polygon class="st0" points="743.8,46.3 754.4,47.2 754.9,44.6 743.8,43.7 		"/>
		<g>
			<circle class="st0" cx="717.3" cy="53.5" r="6.2"/>
			<circle class="st0" cx="717.3" cy="53.5" r="4.3"/>
			<g>
				<g>
					<line class="st0" x1="714.5" y1="44.3" x2="715.7" y2="46"/>
					<line class="st0" x1="719" y1="61" x2="720.1" y2="62.6"/>
				</g>
				<g>
					<line class="st0" x1="726.5" y1="50.7" x2="724.8" y2="51.8"/>
					<line class="st0" x1="709.8" y1="55.1" x2="708.2" y2="56.3"/>
				</g>
			</g>
			<g>
				<g>
					<line class="st0" x1="717" y1="43.9" x2="717.7" y2="45.8"/>
					<line class="st0" x1="717" y1="61.1" x2="717.7" y2="63"/>
				</g>
				<g>
					<line class="st0" x1="726.9" y1="53.1" x2="725" y2="53.8"/>
					<line class="st0" x1="709.7" y1="53.1" x2="707.8" y2="53.8"/>
				</g>
			</g>
			<g>
				<g>
					<line class="st0" x1="719.5" y1="44.1" x2="719.6" y2="46.2"/>
					<line class="st0" x1="715" y1="60.8" x2="715.2" y2="62.8"/>
				</g>
				<g>
					<line class="st0" x1="726.7" y1="55.6" x2="724.6" y2="55.8"/>
					<line class="st0" x1="710" y1="51.2" x2="708" y2="51.3"/>
				</g>
			</g>
			<g>
				<g>
					<line class="st0" x1="721.8" y1="45" x2="721.5" y2="47"/>
					<line class="st0" x1="713.2" y1="59.9" x2="712.8" y2="61.9"/>
				</g>
				<g>
					<line class="st0" x1="725.8" y1="58" x2="723.8" y2="57.6"/>
					<line class="st0" x1="710.9" y1="49.3" x2="708.9" y2="49"/>
				</g>
			</g>
			<g>
				<g>
					<line class="st0" x1="723.8" y1="46.5" x2="723" y2="48.3"/>
					<line class="st0" x1="711.7" y1="58.6" x2="710.8" y2="60.5"/>
				</g>
				<g>
					<line class="st0" x1="724.3" y1="60" x2="722.5" y2="59.1"/>
					<line class="st0" x1="712.2" y1="47.8" x2="710.3" y2="46.9"/>
				</g>
			</g>
			<g>
				<g>
					<line class="st0" x1="725.4" y1="48.4" x2="724.1" y2="49.9"/>
					<line class="st0" x1="710.5" y1="57" x2="709.2" y2="58.6"/>
				</g>
				<g>
					<line class="st0" x1="722.4" y1="61.6" x2="720.8" y2="60.3"/>
					<line class="st0" x1="713.8" y1="46.7" x2="712.2" y2="45.4"/>
				</g>
			</g>
		</g>
		<g>
			<circle class="st0" cx="653.5" cy="53.5" r="6.2"/>
			<circle class="st0" cx="653.5" cy="53.5" r="4.3"/>
			<g>
				<g>
					<line class="st0" x1="650.7" y1="44.3" x2="651.8" y2="46"/>
					<line class="st0" x1="655.1" y1="61" x2="656.3" y2="62.6"/>
				</g>
				<g>
					<line class="st0" x1="662.6" y1="50.7" x2="661" y2="51.8"/>
					<line class="st0" x1="646" y1="55.1" x2="644.3" y2="56.3"/>
				</g>
			</g>
			<g>
				<g>
					<line class="st0" x1="653.1" y1="43.9" x2="653.8" y2="45.8"/>
					<line class="st0" x1="653.1" y1="61.1" x2="653.8" y2="63"/>
				</g>
				<g>
					<line class="st0" x1="663.1" y1="53.1" x2="661.1" y2="53.8"/>
					<line class="st0" x1="645.8" y1="53.1" x2="643.9" y2="53.8"/>
				</g>
			</g>
			<g>
				<g>
					<line class="st0" x1="655.6" y1="44.1" x2="655.8" y2="46.2"/>
					<line class="st0" x1="651.2" y1="60.8" x2="651.4" y2="62.8"/>
				</g>
				<g>
					<line class="st0" x1="662.8" y1="55.6" x2="660.8" y2="55.8"/>
					<line class="st0" x1="646.2" y1="51.2" x2="644.2" y2="51.3"/>
				</g>
			</g>
			<g>
				<g>
					<line class="st0" x1="658" y1="45" x2="657.6" y2="47"/>
					<line class="st0" x1="649.4" y1="59.9" x2="649" y2="61.9"/>
				</g>
				<g>
					<line class="st0" x1="662" y1="58" x2="660" y2="57.6"/>
					<line class="st0" x1="647" y1="49.3" x2="645" y2="49"/>
				</g>
			</g>
			<g>
				<g>
					<line class="st0" x1="660" y1="46.5" x2="659.2" y2="48.3"/>
					<line class="st0" x1="647.8" y1="58.6" x2="647" y2="60.5"/>
				</g>
				<g>
					<line class="st0" x1="660.5" y1="60" x2="658.7" y2="59.1"/>
					<line class="st0" x1="648.3" y1="47.8" x2="646.5" y2="46.9"/>
				</g>
			</g>
			<g>
				<g>
					<line class="st0" x1="661.6" y1="48.4" x2="660.3" y2="49.9"/>
					<line class="st0" x1="646.7" y1="57" x2="645.4" y2="58.6"/>
				</g>
				<g>
					<line class="st0" x1="658.6" y1="61.6" x2="657" y2="60.3"/>
					<line class="st0" x1="650" y1="46.7" x2="648.4" y2="45.4"/>
				</g>
			</g>
		</g>
		<polygon class="st0" points="703.5,43.8 709.7,38.2 727.9,40.4 734,47.7 731.6,48.7 726.6,42.8 710.8,40.9 705.4,45.8 		"/>
		<rect x="643.8" y="29" class="st0" width="58.1" height="9.4"/>
		<rect x="643.8" y="38.3" class="st0" width="58.1" height="3.1"/>
		<rect x="666" y="41.5" class="st0" width="35.9" height="6.3"/>
		<polygon class="st0" points="757,61.5 753.2,52.4 756.7,36.6 763.9,29.9 765.9,31.3 759.1,37.5 755.8,52.5 759.4,61.1 		"/>
		<ellipse transform="matrix(0.101 -0.9949 0.9949 0.101 625.2321 770.4842)" class="st0" cx="738.9" cy="39.3" rx="3.2" ry="0.9"/>
	</g>
	<g>
		<g>
			<polygon class="st0" points="548.5,42.6 557.4,52 557.4,48 548.5,38.6 			"/>
			<polygon class="st0" points="524.4,43.4 535,44.2 536.8,42.3 524.4,41.5 			"/>
			<g>
				<path class="st0" d="M483.4,12.5l0-1.9c0-0.7-0.6-1.2-1.3-1.2l0,0c-0.7,0-1.3,0.5-1.3,1.2l0,2.1"/>
			</g>
			<path class="st0" d="M514.3,33.5c0,1.1,0.5,1.9,1,1.9c0.5,0,1-0.9,1-1.9c0-1.1-0.5-1.9-1-1.9C514.7,31.6,514.3,32.5,514.3,33.5z"
				/>
			<g>
				<circle class="st0" cx="476" cy="53.2" r="6.3"/>
				<circle class="st0" cx="476" cy="53.2" r="4.3"/>
				<g>
					<g>
						<line class="st0" x1="478.9" y1="44" x2="477.7" y2="45.7"/>
						<line class="st0" x1="474.4" y1="60.8" x2="473.2" y2="62.5"/>
					</g>
					<g>
						<line class="st0" x1="466.8" y1="50.4" x2="468.5" y2="51.6"/>
						<line class="st0" x1="483.6" y1="54.9" x2="485.2" y2="56.1"/>
					</g>
				</g>
				<g>
					<g>
						<line class="st0" x1="476.4" y1="43.6" x2="475.7" y2="45.5"/>
						<line class="st0" x1="476.4" y1="60.9" x2="475.7" y2="62.9"/>
					</g>
					<g>
						<line class="st0" x1="466.4" y1="52.9" x2="468.3" y2="53.6"/>
						<line class="st0" x1="483.7" y1="52.9" x2="485.7" y2="53.6"/>
					</g>
				</g>
				<g>
					<g>
						<line class="st0" x1="473.9" y1="43.8" x2="473.7" y2="45.9"/>
						<line class="st0" x1="478.4" y1="60.6" x2="478.2" y2="62.6"/>
					</g>
					<g>
						<line class="st0" x1="466.6" y1="55.4" x2="468.7" y2="55.6"/>
						<line class="st0" x1="483.4" y1="50.9" x2="485.4" y2="51.1"/>
					</g>
				</g>
				<g>
					<g>
						<line class="st0" x1="471.5" y1="44.7" x2="471.9" y2="46.7"/>
						<line class="st0" x1="480.2" y1="59.7" x2="480.5" y2="61.8"/>
					</g>
					<g>
						<line class="st0" x1="467.5" y1="57.8" x2="469.5" y2="57.4"/>
						<line class="st0" x1="482.5" y1="49.1" x2="484.5" y2="48.7"/>
					</g>
				</g>
				<g>
					<g>
						<line class="st0" x1="469.5" y1="46.2" x2="470.3" y2="48"/>
						<line class="st0" x1="481.7" y1="58.4" x2="482.6" y2="60.3"/>
					</g>
					<g>
						<line class="st0" x1="469" y1="59.8" x2="470.8" y2="58.9"/>
						<line class="st0" x1="481.2" y1="47.5" x2="483.1" y2="46.7"/>
					</g>
				</g>
				<g>
					<g>
						<line class="st0" x1="467.9" y1="48.1" x2="469.2" y2="49.7"/>
						<line class="st0" x1="482.9" y1="56.8" x2="484.2" y2="58.4"/>
					</g>
					<g>
						<line class="st0" x1="470.9" y1="61.4" x2="472.5" y2="60.1"/>
						<line class="st0" x1="479.6" y1="46.4" x2="481.1" y2="45.1"/>
					</g>
				</g>
			</g>
			<g>
				<circle class="st0" cx="517.3" cy="53.2" r="6.3"/>
				<circle class="st0" cx="517.3" cy="53.2" r="4.3"/>
				<g>
					<g>
						<line class="st0" x1="520.2" y1="44" x2="519" y2="45.7"/>
						<line class="st0" x1="515.7" y1="60.8" x2="514.5" y2="62.5"/>
					</g>
					<g>
						<line class="st0" x1="508.1" y1="50.4" x2="509.8" y2="51.6"/>
						<line class="st0" x1="524.9" y1="54.9" x2="526.6" y2="56.1"/>
					</g>
				</g>
				<g>
					<g>
						<line class="st0" x1="517.7" y1="43.6" x2="517" y2="45.5"/>
						<line class="st0" x1="517.7" y1="60.9" x2="517" y2="62.9"/>
					</g>
					<g>
						<line class="st0" x1="507.7" y1="52.9" x2="509.6" y2="53.6"/>
						<line class="st0" x1="525" y1="52.9" x2="527" y2="53.6"/>
					</g>
				</g>
				<g>
					<g>
						<line class="st0" x1="515.2" y1="43.8" x2="515" y2="45.9"/>
						<line class="st0" x1="519.7" y1="60.6" x2="519.5" y2="62.6"/>
					</g>
					<g>
						<line class="st0" x1="507.9" y1="55.4" x2="510" y2="55.6"/>
						<line class="st0" x1="524.7" y1="50.9" x2="526.7" y2="51.1"/>
					</g>
				</g>
				<g>
					<g>
						<line class="st0" x1="512.8" y1="44.7" x2="513.2" y2="46.7"/>
						<line class="st0" x1="521.5" y1="59.7" x2="521.9" y2="61.8"/>
					</g>
					<g>
						<line class="st0" x1="508.8" y1="57.8" x2="510.8" y2="57.4"/>
						<line class="st0" x1="523.8" y1="49.1" x2="525.9" y2="48.7"/>
					</g>
				</g>
				<g>
					<g>
						<line class="st0" x1="510.8" y1="46.2" x2="511.6" y2="48"/>
						<line class="st0" x1="523" y1="58.4" x2="523.9" y2="60.3"/>
					</g>
					<g>
						<line class="st0" x1="510.3" y1="59.8" x2="512.1" y2="58.9"/>
						<line class="st0" x1="522.5" y1="47.5" x2="524.4" y2="46.7"/>
					</g>
				</g>
				<g>
					<g>
						<line class="st0" x1="509.2" y1="48.1" x2="510.5" y2="49.7"/>
						<line class="st0" x1="524.2" y1="56.8" x2="525.5" y2="58.4"/>
					</g>
					<g>
						<line class="st0" x1="512.2" y1="61.4" x2="513.8" y2="60.1"/>
						<line class="st0" x1="520.9" y1="46.4" x2="522.5" y2="45.1"/>
					</g>
				</g>
			</g>
			<path class="st0" d="M469.7,42.2c-1.3,0.8-2.5,1.8-3.4,2.9l-0.6-1.2c1.3-1.4,2.5-2.8,4.2-3.6L469.7,42.2z"/>
			<path class="st0" d="M470,38.8c1.8-0.8,3.9-1.2,6-1.2c7,0,12.9,4.6,14.9,11h11.5c1.7-5.5,6.3-9.6,12-10.7
				c0.9-0.2,6.6,0.2,9.1,0.2l-1,2.8c-2.2,0-6.5-0.3-7.1-0.2c-5.8,0.8-10.3,5.5-10.9,11.4h-16c-0.6-6.5-6-11.5-12.7-11.5
				c-2.4,0-4.6,0.7-6.5,1.8L470,38.8z"/>
			<g>
				<path class="st0" d="M478.7,37.8l2.4-14.7c0.5-2.7,1.8-3.9,4.1-3.9h15.6c2.3,0,3.2,1.5,4.1,3.9l6.6,15.6"/>
			</g>
			<g>
				<path class="st0" d="M502.4,48.6h-11.5c-2-6.3-7.9-11-14.9-11c-0.2,0-0.4,0-0.7,0l2.7-16.4c0.7-3.3,2.3-4.7,5-4.7h19
					c2.8,0,3.8,1.9,5,4.7l7.1,16.7C508.6,39.1,504.1,43.2,502.4,48.6z"/>
			</g>
			<line class="st0" x1="487.5" y1="19.3" x2="487.5" y2="42.5"/>
			<line class="st0" x1="514.3" y1="33.5" x2="512.3" y2="33.5"/>
			<circle class="st0" cx="542.9" cy="53.5" r="9"/>
			<circle class="st0" cx="542.9" cy="53.5" r="6.2"/>
			<polyline class="st0" points="533.9,62.1 530.7,57.5 530.9,49.1 541.9,37 549.8,13.6 560.7,9.4 560.7,15.2 555.7,17.1 
				549.1,36.9 			"/>
			<path class="st0" d="M505,17.4l1.6-0.1c-1.1-2.3-2.4-3.7-5.3-3.8l-19.3-0.7c-2.9,0-4.6,2.1-5.3,4.8l2.2,1"/>
		</g>
	</g>
</g>
</svg>
