<?xml version="1.0" encoding="utf-8"?>
<!-- Generator: Adobe Illustrator 21.1.0, SVG Export Plug-In . SVG Version: 6.00 Build 0)  -->
<svg version="1.1" id="Layer_1" xmlns="http://www.w3.org/2000/svg" xmlns:xlink="http://www.w3.org/1999/xlink" x="0px" y="0px"
	 width="123.7px" height="71px" viewBox="0 0 123.7 71" style="enable-background:new 0 0 123.7 71;" xml:space="preserve">
<style type="text/css">
	.st0{fill:none;stroke:#F2D383;stroke-miterlimit:10;}
	.st1{fill:none;stroke:#BDBBBB;stroke-miterlimit:10;}
	.st2{fill:none;stroke:#CCCCCC;stroke-miterlimit:10;}
</style>
<g>
	<g>
		<path class="st0" d="M58.7,35.5c0-0.6,0-1.2,0.1-1.8l-5.2-1.8c0.2-1.7,0.5-3.3,0.9-4.9l5.5,0.1c0.3-1.2,0.8-2.3,1.2-3.4l-4.3-3.5
			c0.7-1.5,1.6-2.9,2.5-4.3l5.1,2c0.7-1,1.5-1.9,2.3-2.8L64,10.4c1.2-1.2,2.5-2.2,3.8-3.2l4.1,3.6c1-0.7,2.1-1.3,3.1-1.8l-1-5.4
			c1.5-0.7,3.1-1.2,4.7-1.7l2.7,4.8C82.6,6.4,83.8,6.1,85,6l0.9-5.4c0.8-0.1,1.7-0.1,2.5-0.1c0.8,0,1.7,0,2.5,0.1L91.7,6
			c1.2,0.1,2.4,0.3,3.6,0.6L98,1.8c1.6,0.5,3.2,1,4.7,1.7l-1,5.4c1.1,0.5,2.1,1.1,3.1,1.8l4.1-3.6c1.4,1,2.6,2,3.8,3.2l-2.8,4.7
			c0.8,0.9,1.6,1.8,2.3,2.8l5.1-2c0.9,1.4,1.8,2.8,2.5,4.3l-4.3,3.5c0.5,1.1,0.9,2.2,1.2,3.4l5.5-0.1c0.4,1.6,0.7,3.2,0.9,4.9
			l-5.2,1.8c0,0.6,0.1,1.2,0.1,1.8c0,0.6,0,1.2-0.1,1.8l5.2,1.8c-0.2,1.7-0.5,3.3-0.9,4.9l-5.5-0.1c-0.3,1.2-0.8,2.3-1.2,3.4
			l4.3,3.5c-0.7,1.5-1.6,2.9-2.5,4.3l-5.1-2c-0.7,1-1.5,1.9-2.3,2.8l2.8,4.7c-1.2,1.2-2.5,2.2-3.8,3.2l-4.1-3.6
			c-1,0.7-2.1,1.3-3.1,1.8l1,5.4c-1.5,0.7-3.1,1.2-4.7,1.7l-2.7-4.8c-1.2,0.3-2.4,0.5-3.6,0.6l-0.9,5.4c-0.8,0.1-1.7,0.1-2.5,0.1
			c-0.8,0-1.7,0-2.5-0.1L85,65c-1.2-0.1-2.4-0.4-3.6-0.6l-2.7,4.8c-1.6-0.5-3.2-1-4.7-1.7l1-5.4C74,61.5,73,60.9,72,60.3l-4.1,3.6
			c-1.3-1-2.6-2.1-3.8-3.2l2.8-4.7c-0.8-0.9-1.6-1.8-2.3-2.8l-5.1,2c-0.9-1.4-1.8-2.8-2.5-4.3l4.3-3.5c-0.5-1.1-0.9-2.2-1.2-3.4
			L54.4,44c-0.4-1.6-0.7-3.2-0.9-4.9l5.2-1.8C58.7,36.7,58.7,36.1,58.7,35.5z"/>
		<g>
			<g>
				<g>
					<g>
						<g>
							<g>
								<line class="st1" x1="104.4" y1="35.5" x2="109.9" y2="35.5"/>
								<line class="st1" x1="66.8" y1="35.5" x2="72.2" y2="35.5"/>
							</g>
						</g>
					</g>
				</g>
				<g>
					<g>
						<g>
							<g>
								<line class="st1" x1="91.1" y1="51.4" x2="92.1" y2="56.7"/>
								<line class="st1" x1="84.6" y1="14.3" x2="85.6" y2="19.6"/>
							</g>
						</g>
						<g>
							<g>
								<path class="st1" d="M72.5,38.3"/>
								<path class="st1" d="M67.1,39.2"/>
							</g>
						</g>
					</g>
				</g>
				<g>
					<g>
						<g>
							<g>
								<g>
									<line class="st1" x1="103.4" y1="29.8" x2="108.5" y2="27.9"/>
									<line class="st1" x1="68.2" y1="43.1" x2="73.2" y2="41.2"/>
								</g>
							</g>
						</g>
					</g>
					<g>
						<g>
							<g>
								<g>
									<line class="st1" x1="96.7" y1="49.3" x2="99.5" y2="54"/>
									<line class="st1" x1="77.2" y1="17" x2="80" y2="21.7"/>
								</g>
							</g>
							<g>
								<g>
									<path class="st1" d="M74.5,43.8"/>
									<path class="st1" d="M69.9,46.6"/>
								</g>
							</g>
						</g>
					</g>
				</g>
				<g>
					<g>
						<g>
							<g>
								<line class="st1" x1="100.7" y1="25.2" x2="104.9" y2="21.7"/>
								<line class="st1" x1="71.8" y1="49.3" x2="76" y2="45.8"/>
							</g>
						</g>
					</g>
				</g>
				<g>
					<g>
						<g>
							<g>
								<line class="st1" x1="100.7" y1="45.8" x2="104.9" y2="49.3"/>
								<line class="st1" x1="71.8" y1="21.7" x2="75.9" y2="25.2"/>
							</g>
						</g>
					</g>
				</g>
				<g>
					<g>
						<g>
							<line class="st1" x1="96.3" y1="21.5" x2="98.9" y2="16.7"/>
							<line class="st1" x1="77.7" y1="54.3" x2="80.4" y2="49.5"/>
						</g>
					</g>
				</g>
				<g>
					<g>
						<g>
							<line class="st1" x1="103.6" y1="40.8" x2="108.7" y2="42.5"/>
							<line class="st1" x1="67.9" y1="28.5" x2="73.1" y2="30.2"/>
						</g>
					</g>
				</g>
				<g>
					<g>
						<g>
							<line class="st1" x1="91" y1="19.7" x2="91.9" y2="14.2"/>
							<line class="st1" x1="84.7" y1="56.8" x2="85.7" y2="51.4"/>
						</g>
					</g>
				</g>
			</g>
			<circle class="st1" cx="88.3" cy="35.5" r="21.6"/>
			<ellipse class="st1" cx="88.3" cy="35.5" rx="16.1" ry="16.1"/>
		</g>
		<g>
			<g>
				<g>
					<g>
						<g>
							<g>
								<path class="st1" d="M81.8,35.5"/>
								<path class="st1" d="M79.6,35.5"/>
							</g>
						</g>
					</g>
				</g>
				<g>
					<g>
						<g>
							<g>
								<path class="st1" d="M89.9,44.1"/>
								<line class="st1" x1="89.2" y1="40.4" x2="89.9" y2="44.1"/>
								<line class="st1" x1="86.8" y1="26.9" x2="87.5" y2="30.6"/>
							</g>
						</g>
						<g>
							<g>
								<path class="st1" d="M81.9,36.6"/>
								<path class="st1" d="M79.7,37"/>
							</g>
						</g>
					</g>
				</g>
				<g>
					<g>
						<g>
							<g>
								<g>
									<path class="st1" d="M82.8,38.9"/>
									<path class="st1" d="M80.9,40"/>
								</g>
							</g>
						</g>
					</g>
				</g>
				<g>
					<g>
						<g>
							<g>
								<line class="st1" x1="92.2" y1="38.7" x2="95.1" y2="41.1"/>
								<line class="st1" x1="81.6" y1="29.9" x2="84.5" y2="32.3"/>
							</g>
						</g>
					</g>
				</g>
				<g>
					<g>
						<g>
							<line class="st1" x1="90.8" y1="31.2" x2="92.7" y2="27.9"/>
							<line class="st1" x1="84.1" y1="43.1" x2="85.9" y2="39.8"/>
							<path class="st1" d="M84.1,43.1"/>
						</g>
					</g>
				</g>
				<g>
					<g>
						<g>
							<path class="st1" d="M82.2,33.4"/>
							<path class="st1" d="M80.1,32.6"/>
						</g>
					</g>
				</g>
			</g>
			<circle class="st1" cx="88.4" cy="35.5" r="8.7"/>
			<path class="st1" d="M83.4,35.5c0,2.7,2.2,5,5,5c0.3,0,0.6,0,0.9-0.1c1.2-0.2,2.2-0.8,2.9-1.7c0.7-0.9,1.2-2,1.2-3.2
				c0-2.7-2.2-5-5-5c-0.3,0-0.6,0-0.9,0.1c-1.2,0.2-2.2,0.8-2.9,1.7C83.8,33.2,83.4,34.3,83.4,35.5z"/>
		</g>
		<path class="st1" d="M88.4,35.5"/>
		<path class="st1" d="M88.4,35.5"/>
		<path class="st1" d="M88.4,35.5"/>
		<path class="st1" d="M88.4,35.5"/>
	</g>
	<g>
		<g>
			<circle class="st2" cx="14.4" cy="35.5" r="1.9"/>
			<path class="st2" d="M15.6,31.8V27c4.2,0.6,7.4,4.2,7.4,8.5c0,1.1-0.2,2.2-0.6,3.2l-4.2-2.4c0.1-0.3,0.1-0.5,0.1-0.8
				C18.3,33.8,17.2,32.3,15.6,31.8z"/>
			<path class="st2" d="M10.5,35.5c0,0.3,0,0.5,0.1,0.8l-4.2,2.4c-0.4-1-0.6-2.1-0.6-3.2c0-4.3,3.2-7.9,7.4-8.5v4.9
				C11.6,32.3,10.5,33.8,10.5,35.5z"/>
			<path class="st2" d="M16.9,38.4l4.2,2.4c-1.6,2-4,3.3-6.8,3.3c-2.7,0-5.2-1.3-6.8-3.3l4.2-2.4c0.7,0.6,1.6,1,2.6,1
				C15.4,39.4,16.3,39,16.9,38.4z"/>
		</g>
		<circle class="st2" cx="14.4" cy="35.5" r="13.9"/>
	</g>
</g>
</svg>
