<?xml version="1.0" encoding="utf-8"?>
<!-- Generator: Adobe Illustrator 22.0.1, SVG Export Plug-In . SVG Version: 6.00 Build 0)  -->
<svg version="1.1" id="Layer_1" xmlns="http://www.w3.org/2000/svg" xmlns:xlink="http://www.w3.org/1999/xlink" x="0px" y="0px"
	 width="241.1px" height="51px" viewBox="0 0 241.1 51" style="enable-background:new 0 0 241.1 51;" xml:space="preserve">
<style type="text/css">
	.st0{fill:none;stroke:#666666;stroke-linecap:round;stroke-linejoin:round;stroke-miterlimit:10;}
</style>
<g>
	<g>
		<g>
			<polygon class="st0" points="66.7,34.2 73.8,41.7 73.8,38.5 66.7,31 			"/>
			<polygon class="st0" points="47.4,34.8 55.9,35.5 57.3,33.9 47.4,33.3 			"/>
			<g>
				<path class="st0" d="M14.6,10.1V8.6c0-0.6-0.5-1-1-1l0,0c-0.6,0-1,0.4-1,1v1.7"/>
			</g>
			<path class="st0" d="M39.3,26.9c0,0.9,0.4,1.5,0.8,1.5s0.8-0.7,0.8-1.5c0-0.9-0.4-1.5-0.8-1.5S39.3,26.1,39.3,26.9z"/>
			<g>
				<circle class="st0" cx="8.7" cy="42.7" r="5"/>
				<circle class="st0" cx="8.7" cy="42.7" r="3.4"/>
				<g>
					<g>
						<line class="st0" x1="11" y1="35.3" x2="10.1" y2="36.7"/>
						<line class="st0" x1="7.4" y1="48.7" x2="6.5" y2="50.1"/>
					</g>
					<g>
						<line class="st0" x1="1.3" y1="40.4" x2="2.7" y2="41.4"/>
						<line class="st0" x1="14.8" y1="44" x2="16.1" y2="45"/>
					</g>
				</g>
				<g>
					<g>
						<line class="st0" x1="9" y1="35" x2="8.5" y2="36.5"/>
						<line class="st0" x1="9" y1="48.8" x2="8.5" y2="50.4"/>
					</g>
					<g>
						<line class="st0" x1="1" y1="42.4" x2="2.5" y2="43"/>
						<line class="st0" x1="14.9" y1="42.4" x2="16.5" y2="43"/>
					</g>
				</g>
				<g>
					<g>
						<line class="st0" x1="7" y1="35.1" x2="6.9" y2="36.8"/>
						<line class="st0" x1="10.6" y1="48.6" x2="10.5" y2="50.2"/>
					</g>
					<g>
						<line class="st0" x1="1.2" y1="44.4" x2="2.9" y2="44.6"/>
						<line class="st0" x1="14.6" y1="40.8" x2="16.2" y2="41"/>
					</g>
				</g>
				<g>
					<g>
						<line class="st0" x1="5.1" y1="35.9" x2="5.4" y2="37.5"/>
						<line class="st0" x1="12.1" y1="47.9" x2="12.3" y2="49.5"/>
					</g>
					<g>
						<line class="st0" x1="1.9" y1="46.3" x2="3.5" y2="46"/>
						<line class="st0" x1="13.9" y1="39.4" x2="15.5" y2="39.1"/>
					</g>
				</g>
				<g>
					<g>
						<line class="st0" x1="3.5" y1="37.1" x2="4.1" y2="38.5"/>
						<line class="st0" x1="13.3" y1="46.8" x2="14" y2="48.3"/>
					</g>
					<g>
						<line class="st0" x1="3.1" y1="47.9" x2="4.5" y2="47.2"/>
						<line class="st0" x1="12.9" y1="38.1" x2="14.4" y2="37.5"/>
					</g>
				</g>
				<g>
					<g>
						<line class="st0" x1="2.2" y1="38.6" x2="3.3" y2="39.9"/>
						<line class="st0" x1="14.2" y1="45.5" x2="15.3" y2="46.8"/>
					</g>
					<g>
						<line class="st0" x1="4.6" y1="49.2" x2="5.9" y2="48.2"/>
						<line class="st0" x1="11.6" y1="37.2" x2="12.8" y2="36.2"/>
					</g>
				</g>
			</g>
			<g>
				<circle class="st0" cx="41.7" cy="42.7" r="5"/>
				<circle class="st0" cx="41.7" cy="42.7" r="3.4"/>
				<g>
					<g>
						<line class="st0" x1="44.1" y1="35.3" x2="43.1" y2="36.7"/>
						<line class="st0" x1="40.5" y1="48.7" x2="39.5" y2="50.1"/>
					</g>
					<g>
						<line class="st0" x1="34.4" y1="40.4" x2="35.7" y2="41.4"/>
						<line class="st0" x1="47.8" y1="44" x2="49.2" y2="45"/>
					</g>
				</g>
				<g>
					<g>
						<line class="st0" x1="42.1" y1="35" x2="41.5" y2="36.5"/>
						<line class="st0" x1="42.1" y1="48.8" x2="41.5" y2="50.4"/>
					</g>
					<g>
						<line class="st0" x1="34.1" y1="42.4" x2="35.6" y2="43"/>
						<line class="st0" x1="47.9" y1="42.4" x2="49.5" y2="43"/>
					</g>
				</g>
				<g>
					<g>
						<line class="st0" x1="40.1" y1="35.1" x2="39.9" y2="36.8"/>
						<line class="st0" x1="43.7" y1="48.6" x2="43.5" y2="50.2"/>
					</g>
					<g>
						<line class="st0" x1="34.2" y1="44.4" x2="35.9" y2="44.6"/>
						<line class="st0" x1="47.7" y1="40.8" x2="49.3" y2="41"/>
					</g>
				</g>
				<g>
					<g>
						<line class="st0" x1="38.1" y1="35.9" x2="38.5" y2="37.5"/>
						<line class="st0" x1="45.1" y1="47.9" x2="45.4" y2="49.5"/>
					</g>
					<g>
						<line class="st0" x1="34.9" y1="46.3" x2="36.5" y2="46"/>
						<line class="st0" x1="46.9" y1="39.4" x2="48.6" y2="39.1"/>
					</g>
				</g>
				<g>
					<g>
						<line class="st0" x1="36.5" y1="37.1" x2="37.2" y2="38.5"/>
						<line class="st0" x1="46.3" y1="46.8" x2="47" y2="48.3"/>
					</g>
					<g>
						<line class="st0" x1="36.1" y1="47.9" x2="37.6" y2="47.2"/>
						<line class="st0" x1="45.9" y1="38.1" x2="47.4" y2="37.5"/>
					</g>
				</g>
				<g>
					<g>
						<line class="st0" x1="35.3" y1="38.6" x2="36.3" y2="39.9"/>
						<line class="st0" x1="47.3" y1="45.5" x2="48.3" y2="46.8"/>
					</g>
					<g>
						<line class="st0" x1="37.7" y1="49.2" x2="38.9" y2="48.2"/>
						<line class="st0" x1="44.6" y1="37.2" x2="45.9" y2="36.2"/>
					</g>
				</g>
			</g>
			<path class="st0" d="M3.7,33.9c-1,0.6-2,1.4-2.7,2.3l-0.5-1c1-1.1,2-2.2,3.4-2.9L3.7,33.9z"/>
			<path class="st0" d="M3.9,31.1c1.4-0.6,3.1-1,4.8-1c5.6,0,10.3,3.7,11.9,8.8h9.2c1.4-4.4,5-7.7,9.6-8.6c0.7-0.2,5.3,0.2,7.3,0.2
				l-0.8,2.2c-1.8,0-5.2-0.2-5.7-0.2c-4.6,0.6-8.2,4.4-8.7,9.1H18.7c-0.5-5.2-4.8-9.2-10.2-9.2c-1.9,0-3.7,0.6-5.2,1.4L3.9,31.1z"/>
			<g>
				<path class="st0" d="M10.9,30.3l1.9-11.8c0.4-2.2,1.4-3.1,3.3-3.1h12.5c1.8,0,2.6,1.2,3.3,3.1L37.2,31"/>
			</g>
			<g>
				<path class="st0" d="M29.8,39h-9.2c-1.6-5-6.3-8.8-11.9-8.8c-0.2,0-0.3,0-0.6,0l2.2-13.1c0.6-2.6,1.8-3.8,4-3.8h15.2
					c2.2,0,3,1.5,4,3.8l5.7,13.4C34.8,31.4,31.2,34.7,29.8,39z"/>
			</g>
			<line class="st0" x1="17.9" y1="15.5" x2="17.9" y2="34.1"/>
			<line class="st0" x1="39.3" y1="26.9" x2="37.7" y2="26.9"/>
			<circle class="st0" cx="62.2" cy="42.9" r="7.2"/>
			<circle class="st0" cx="62.2" cy="42.9" r="5"/>
			<polyline class="st0" points="55,49.8 52.5,46.1 52.6,39.4 61.4,29.7 67.7,11 76.5,7.6 76.5,12.3 72.5,13.8 67.2,29.6 			"/>
			<path class="st0" d="M31.9,14l1.3-0.1c-0.9-1.8-1.9-3-4.2-3l-15.4-0.6c-2.3,0-3.7,1.7-4.2,3.8l1.8,0.8"/>
		</g>
	</g>
	<g>
		<g>
			<path class="st0" d="M210.1,41.5c0,3.1-2.6,5.7-5.7,5.7h-46c-3.1,0-5.7-2.6-5.7-5.7l0,0c0-3.1,2.6-5.7,5.7-5.7h46
				C207.5,35.8,210.1,38.4,210.1,41.5L210.1,41.5z"/>
			<g>
				<line class="st0" x1="183.9" y1="47.2" x2="183.9" y2="48.8"/>
				<line class="st0" x1="185.6" y1="47.2" x2="185.6" y2="48.8"/>
				<line class="st0" x1="187.2" y1="47.2" x2="187.2" y2="48.8"/>
				<line class="st0" x1="188.9" y1="47.2" x2="188.9" y2="48.8"/>
				<line class="st0" x1="190.6" y1="47.2" x2="190.6" y2="48.8"/>
				<line class="st0" x1="192.4" y1="47.2" x2="192.4" y2="48.8"/>
				<line class="st0" x1="194" y1="47.2" x2="194" y2="48.8"/>
				<line class="st0" x1="195.5" y1="47.2" x2="195.5" y2="48.8"/>
				<line class="st0" x1="197.2" y1="47.2" x2="197.2" y2="48.8"/>
				<line class="st0" x1="199" y1="47.2" x2="199" y2="48.8"/>
				<line class="st0" x1="200.6" y1="47.2" x2="200.6" y2="48.8"/>
				<line class="st0" x1="202.2" y1="47.2" x2="202.2" y2="48.8"/>
				<line class="st0" x1="204" y1="47.2" x2="204" y2="48.8"/>
				<g>
					<line class="st0" x1="211.8" y1="41.5" x2="210.1" y2="41.5"/>
					<line class="st0" x1="205.8" y1="34.3" x2="205.5" y2="35.9"/>
					<line class="st0" x1="210.6" y1="37.3" x2="209.2" y2="38.3"/>
					<line class="st0" x1="211.5" y1="39.4" x2="210" y2="39.9"/>
					<line class="st0" x1="207.5" y1="34.8" x2="207" y2="36.4"/>
					<line class="st0" x1="209.2" y1="35.9" x2="208.2" y2="37.2"/>
				</g>
				<g>
					<line class="st0" x1="205.8" y1="48.7" x2="205.5" y2="47.1"/>
					<line class="st0" x1="210.6" y1="45.6" x2="209.2" y2="44.7"/>
					<line class="st0" x1="211.5" y1="43.6" x2="210" y2="43.1"/>
					<line class="st0" x1="207.5" y1="48" x2="207" y2="46.5"/>
					<line class="st0" x1="209.2" y1="47.1" x2="208.2" y2="45.8"/>
				</g>
				<line class="st0" x1="178.9" y1="47.2" x2="178.9" y2="48.8"/>
				<line class="st0" x1="180.6" y1="47.2" x2="180.6" y2="48.8"/>
				<line class="st0" x1="182.4" y1="47.2" x2="182.4" y2="48.8"/>
				<line class="st0" x1="177.4" y1="47.2" x2="177.4" y2="48.8"/>
				<line class="st0" x1="175.6" y1="47.2" x2="175.6" y2="48.8"/>
				<line class="st0" x1="173.9" y1="47.2" x2="173.9" y2="48.8"/>
				<line class="st0" x1="172.4" y1="47.2" x2="172.4" y2="48.8"/>
				<line class="st0" x1="170.8" y1="47.2" x2="170.8" y2="48.8"/>
				<line class="st0" x1="169.1" y1="47.2" x2="169.1" y2="48.8"/>
				<line class="st0" x1="167.4" y1="47.2" x2="167.4" y2="48.8"/>
				<line class="st0" x1="165.6" y1="47.2" x2="165.6" y2="48.8"/>
				<line class="st0" x1="163.9" y1="47.2" x2="163.9" y2="48.8"/>
				<line class="st0" x1="162.4" y1="47.2" x2="162.4" y2="48.8"/>
				<line class="st0" x1="160.8" y1="47.2" x2="160.8" y2="48.8"/>
				<line class="st0" x1="159.1" y1="47.2" x2="159.1" y2="48.8"/>
				<line class="st0" x1="183.9" y1="34" x2="183.9" y2="35.7"/>
				<line class="st0" x1="185.6" y1="34" x2="185.6" y2="35.7"/>
				<line class="st0" x1="187.2" y1="34" x2="187.2" y2="35.7"/>
				<line class="st0" x1="188.9" y1="34" x2="188.9" y2="35.7"/>
				<line class="st0" x1="190.6" y1="34" x2="190.6" y2="35.7"/>
				<line class="st0" x1="192.4" y1="34" x2="192.4" y2="35.7"/>
				<line class="st0" x1="194" y1="34" x2="194" y2="35.7"/>
				<line class="st0" x1="195.5" y1="34" x2="195.5" y2="35.7"/>
				<line class="st0" x1="197.2" y1="34" x2="197.2" y2="35.7"/>
				<line class="st0" x1="199" y1="34" x2="199" y2="35.7"/>
				<line class="st0" x1="200.6" y1="34" x2="200.6" y2="35.7"/>
				<line class="st0" x1="202.2" y1="34" x2="202.2" y2="35.7"/>
				<line class="st0" x1="204" y1="34" x2="204" y2="35.7"/>
				<line class="st0" x1="178.9" y1="34" x2="178.9" y2="35.7"/>
				<line class="st0" x1="180.6" y1="34" x2="180.6" y2="35.7"/>
				<line class="st0" x1="182.4" y1="34" x2="182.4" y2="35.7"/>
				<line class="st0" x1="177.4" y1="34" x2="177.4" y2="35.7"/>
				<line class="st0" x1="175.6" y1="34" x2="175.6" y2="35.7"/>
				<line class="st0" x1="173.9" y1="34" x2="173.9" y2="35.7"/>
				<line class="st0" x1="172.4" y1="34" x2="172.4" y2="35.7"/>
				<line class="st0" x1="170.8" y1="34" x2="170.8" y2="35.7"/>
				<line class="st0" x1="169.1" y1="34" x2="169.1" y2="35.7"/>
				<line class="st0" x1="167.4" y1="34" x2="167.4" y2="35.7"/>
				<line class="st0" x1="165.6" y1="34" x2="165.6" y2="35.7"/>
				<line class="st0" x1="163.9" y1="34" x2="163.9" y2="35.7"/>
				<line class="st0" x1="162.4" y1="34" x2="162.4" y2="35.7"/>
				<line class="st0" x1="160.8" y1="34" x2="160.8" y2="35.7"/>
				<line class="st0" x1="159.1" y1="34" x2="159.1" y2="35.7"/>
				<g>
					<line class="st0" x1="150.9" y1="41.5" x2="152.6" y2="41.5"/>
					<line class="st0" x1="157.1" y1="34.3" x2="157.2" y2="35.9"/>
					<line class="st0" x1="152.1" y1="37.3" x2="153.4" y2="38.3"/>
					<line class="st0" x1="151.2" y1="39.4" x2="152.8" y2="39.9"/>
					<line class="st0" x1="155.1" y1="34.8" x2="155.8" y2="36.4"/>
					<line class="st0" x1="153.4" y1="35.9" x2="154.4" y2="37.2"/>
				</g>
				<g>
					<line class="st0" x1="157.1" y1="48.7" x2="157.2" y2="47.1"/>
					<line class="st0" x1="152.1" y1="45.6" x2="153.4" y2="44.7"/>
					<line class="st0" x1="151.2" y1="43.6" x2="152.8" y2="43.1"/>
					<line class="st0" x1="155.1" y1="48" x2="155.8" y2="46.5"/>
					<line class="st0" x1="153.4" y1="47.1" x2="154.4" y2="45.8"/>
				</g>
			</g>
		</g>
		<g>
			<g>
				<path class="st0" d="M207.9,41.6c0,2.2-1.8,4.1-4.1,4.1c-2.2,0-4.1-1.8-4.1-4.1c0-2.2,1.8-4.1,4.1-4.1
					C206,37.5,207.9,39.3,207.9,41.6z"/>
				<path class="st0" d="M206.4,41.6c0,1.4-1.1,2.6-2.6,2.6s-2.6-1.1-2.6-2.6c0-1.4,1.1-2.6,2.6-2.6S206.4,40.1,206.4,41.6z"/>
			</g>
			<g>
				<path class="st0" d="M198.5,41.6c0,2.2-1.8,4.1-4.1,4.1c-2.2,0-4.1-1.8-4.1-4.1c0-2.2,1.8-4.1,4.1-4.1S198.5,39.3,198.5,41.6z"
					/>
				<path class="st0" d="M197,41.6c0,1.4-1.1,2.6-2.6,2.6s-2.6-1.1-2.6-2.6c0-1.4,1.1-2.6,2.6-2.6C196,39,197,40.1,197,41.6z"/>
			</g>
			<g>
				<path class="st0" d="M189.2,41.6c0,2.2-1.8,4.1-4.1,4.1c-2.2,0-4.1-1.8-4.1-4.1c0-2.2,1.8-4.1,4.1-4.1S189.2,39.3,189.2,41.6z"
					/>
				<path class="st0" d="M187.8,41.6c0,1.4-1.1,2.6-2.6,2.6c-1.4,0-2.6-1.1-2.6-2.6c0-1.4,1.1-2.6,2.6-2.6S187.8,40.1,187.8,41.6z"
					/>
			</g>
			<g>
				<path class="st0" d="M179.9,41.6c0,2.2-1.8,4.1-4.1,4.1c-2.2,0-4.1-1.8-4.1-4.1c0-2.2,1.8-4.1,4.1-4.1S179.9,39.3,179.9,41.6z"
					/>
				<path class="st0" d="M178.4,41.6c0,1.4-1.1,2.6-2.6,2.6c-1.4,0-2.6-1.1-2.6-2.6c0-1.4,1.1-2.6,2.6-2.6
					C177.2,39,178.4,40.1,178.4,41.6z"/>
			</g>
			<g>
				<path class="st0" d="M170.8,41.6c0,2.2-1.8,4.1-4.1,4.1s-4.1-1.8-4.1-4.1c0-2.2,1.8-4.1,4.1-4.1S170.8,39.3,170.8,41.6z"/>
				<path class="st0" d="M169.1,41.6c0,1.4-1.1,2.6-2.6,2.6c-1.4,0-2.6-1.1-2.6-2.6c0-1.4,1.1-2.6,2.6-2.6
					C167.9,39,169.1,40.1,169.1,41.6z"/>
			</g>
			<path class="st0" d="M161.2,39.2l-1.3,0.3c-0.2-0.2-0.3-0.4-0.6-0.6l0.3-1.3c-0.2-0.1-0.2-0.2-0.4-0.2l-0.7,1.1
				c-0.2,0-0.2,0-0.4,0s-0.2,0-0.4,0l-0.7-1.1c-0.2,0.1-0.3,0.1-0.4,0.2l0.3,1.3c-0.2,0.2-0.4,0.3-0.6,0.6l-1.3-0.3
				c-0.1,0.2-0.2,0.2-0.2,0.4l1.1,0.7c0,0.2,0,0.2,0,0.4s0,0.2,0,0.4l-1.1,0.7c0.1,0.2,0.1,0.3,0.2,0.4l1.3-0.3
				c0.2,0.2,0.3,0.4,0.6,0.6l-0.3,1.3c0.2,0.1,0.2,0.2,0.4,0.2l0.7-1.1c0.2,0,0.2,0,0.4,0s0.2,0,0.4,0l0.7,1.1
				c0.2-0.1,0.3-0.1,0.4-0.2l-0.3-1.3c0.2-0.2,0.4-0.3,0.6-0.6l1.3,0.3c0.1-0.2,0.2-0.2,0.2-0.4l-1.1-0.7c0-0.2,0-0.2,0-0.4
				s0-0.2,0-0.4l1.1-0.7C161.4,39.5,161.4,39.3,161.2,39.2z"/>
		</g>
		<g>
			<g>
				<polyline class="st0" points="171.6,32.2 157.6,32.2 157.6,30.8 159.1,30.8 171.8,30.8 				"/>
				<polyline class="st0" points="159.1,30.8 159.1,29 174.8,25.7 				"/>
				<path class="st0" d="M177.6,28"/>
				<line class="st0" x1="166.4" y1="27.6" x2="166.4" y2="30.8"/>
				<polyline class="st0" points="181.4,21.5 181.4,15.2 183.6,13.2 183.6,20.8 				"/>
				<path class="st0" d="M160.1,21.4c0.2,0.5,0.1,1-0.2,1c-0.2,0.1-0.6-0.2-0.7-0.7c-0.2-0.5-0.1-1,0.2-1
					C159.6,20.6,159.9,20.9,160.1,21.4z"/>
				<path class="st0" d="M184.2,21.2c0,0-1.1,9,1,11l-13.6,0.1C171.6,32.2,173.4,21.6,184.2,21.2z"/>
				<line class="st0" x1="173.9" y1="29.2" x2="181.9" y2="30.1"/>
				<line class="st0" x1="176.4" y1="26.4" x2="181.9" y2="28.4"/>
				<line class="st0" x1="179.6" y1="24.6" x2="182.1" y2="26.6"/>
				<line class="st0" x1="163.8" y1="30.8" x2="160.2" y2="22.3"/>
			</g>
			<g>
				<g>
					<path class="st0" d="M198,13v-1.7c0-0.6,0.5-1,1-1l0,0c0.6,0,1,0.5,1,1v1.8"/>
				</g>
				<path class="st0" d="M207.5,32.5c0,0-19.7,1-21.3-2.2c-1.4-2.6,0.6-17.6,0.6-17.6s13.4,0.1,15,1
					C207.1,16.5,207.5,32.5,207.5,32.5z"/>
				<path class="st0" d="M205,28.5l-4.6-0.6l-0.6,1.8c0,0-9.1-1-10.2-2.7c-1.7-2.6,0.2-12,0.2-12s9.5,0.1,10.6,0.7
					C204.5,18.4,205,28.5,205,28.5z"/>
				<line class="st0" x1="188.4" y1="12.6" x2="188.4" y2="11.4"/>
				<path class="st0" d="M188.8,10.5c0,0.5-0.2,0.9-0.5,0.9c-0.2,0-0.4-0.4-0.4-0.9s0.2-0.9,0.5-0.9C188.6,9.6,188.8,10,188.8,10.5z
					"/>
				<rect x="207.9" y="15.6" class="st0" width="1.7" height="7"/>
				<path class="st0" d="M202.5,14c0,0,5.2,0,5.4,1.2v8.6l-3.2,1.5"/>
			</g>
		</g>
		<path class="st0" d="M155.6,32.3c0,0-4.6,1.1-5,1.3c-0.3,0.2-0.9,0.6-1.1,1.4c-0.2,0.8-0.9,4.6-0.9,4.6"/>
		<g>
			<g>
				<polyline class="st0" points="119.9,47.7 128.1,47.7 132.9,45.6 				"/>
				<path class="st0" d="M129.9,45.5c0,0,3.3-2.5,6.6-2.5c2.5,0,2.5,4.8,2.5,4.8h-9v-2.3H129.9z"/>
				<path class="st0" d="M138.8,46.8h1.5c0,0,0-6.4-3.3-6.4s-5.8,1.8-7.1,2.8c-1,0.8-2.9,2.2-4,4.2"/>
				<polygon class="st0" points="138.2,40.4 135.2,40.4 135.2,36.6 136.8,36.2 138.2,36.6 				"/>
				<line class="st0" x1="136.9" y1="45.7" x2="143.9" y2="48.1"/>
				<line class="st0" x1="138.2" y1="40.4" x2="138.2" y2="29.8"/>
			</g>
			<line class="st0" x1="138.4" y1="38.4" x2="147.6" y2="37.5"/>
		</g>
		<g>
			<line class="st0" x1="209.6" y1="33.6" x2="222.4" y2="32.1"/>
			<line class="st0" x1="215.5" y1="39" x2="223.5" y2="34.7"/>
			<line class="st0" x1="212" y1="35.4" x2="220.5" y2="28.3"/>
			<line class="st0" x1="220" y1="27.4" x2="224.4" y2="36.3"/>
			<g>
				<path class="st0" d="M222.9,28.4l12.5-5.7c0,0-0.2,3,0.9,5.1c1,2.1,4,4.6,4,4.6l-12.6,6.2l-7-14.2l8.4-0.7l0.6,1.4"/>
				<line class="st0" x1="225" y1="33.2" x2="236.2" y2="27.8"/>
				<line class="st0" x1="226.1" y1="24" x2="227.2" y2="26.4"/>
				<line class="st0" x1="223" y1="24.2" x2="224.5" y2="27.5"/>
			</g>
		</g>
	</g>
</g>
</svg>
