<?xml version="1.0" encoding="utf-8"?>
<!-- Generator: Adobe Illustrator 22.0.1, SVG Export Plug-In . SVG Version: 6.00 Build 0)  -->
<svg version="1.1" id="Layer_1" xmlns="http://www.w3.org/2000/svg" xmlns:xlink="http://www.w3.org/1999/xlink" x="0px" y="0px"
	 width="764.8px" height="63.5px" viewBox="0 0 764.8 63.5" style="enable-background:new 0 0 764.8 63.5;" xml:space="preserve">
<style type="text/css">
	.st0{fill:none;stroke:#CEAF5B;stroke-linecap:round;stroke-linejoin:round;stroke-miterlimit:10;}
</style>
<g>
	<g>
		<g>
			<path class="st0" d="M343.5,51.6c0,3.9-3.2,7.1-7.1,7.1h-57.5c-3.9,0-7.1-3.2-7.1-7.1l0,0c0-3.9,3.2-7.1,7.1-7.1h57.5
				C340.3,44.5,343.5,47.7,343.5,51.6L343.5,51.6z"/>
			<g>
				<line class="st0" x1="310.8" y1="58.7" x2="310.8" y2="60.7"/>
				<line class="st0" x1="312.9" y1="58.7" x2="312.9" y2="60.7"/>
				<line class="st0" x1="314.9" y1="58.7" x2="314.9" y2="60.7"/>
				<line class="st0" x1="317" y1="58.7" x2="317" y2="60.7"/>
				<line class="st0" x1="319.1" y1="58.7" x2="319.1" y2="60.7"/>
				<line class="st0" x1="321.2" y1="58.7" x2="321.2" y2="60.7"/>
				<line class="st0" x1="323.3" y1="58.7" x2="323.3" y2="60.7"/>
				<line class="st0" x1="325.3" y1="58.7" x2="325.3" y2="60.7"/>
				<line class="st0" x1="327.4" y1="58.7" x2="327.4" y2="60.7"/>
				<line class="st0" x1="329.5" y1="58.7" x2="329.5" y2="60.7"/>
				<line class="st0" x1="331.6" y1="58.7" x2="331.6" y2="60.7"/>
				<line class="st0" x1="333.6" y1="58.7" x2="333.6" y2="60.7"/>
				<line class="st0" x1="335.7" y1="58.7" x2="335.7" y2="60.7"/>
				<g>
					<line class="st0" x1="345.5" y1="51.6" x2="343.5" y2="51.6"/>
					<line class="st0" x1="338" y1="42.6" x2="337.6" y2="44.6"/>
					<line class="st0" x1="344.1" y1="46.4" x2="342.4" y2="47.6"/>
					<line class="st0" x1="345.2" y1="49" x2="343.2" y2="49.6"/>
					<line class="st0" x1="340.2" y1="43.3" x2="339.5" y2="45.3"/>
					<line class="st0" x1="342.4" y1="44.6" x2="341.1" y2="46.2"/>
				</g>
				<g>
					<line class="st0" x1="338" y1="60.6" x2="337.6" y2="58.6"/>
					<line class="st0" x1="344.1" y1="56.8" x2="342.4" y2="55.6"/>
					<line class="st0" x1="345.2" y1="54.2" x2="343.2" y2="53.6"/>
					<line class="st0" x1="340.2" y1="59.8" x2="339.5" y2="57.9"/>
					<line class="st0" x1="342.4" y1="58.6" x2="341.1" y2="57"/>
				</g>
				<line class="st0" x1="304.5" y1="58.7" x2="304.5" y2="60.7"/>
				<line class="st0" x1="306.6" y1="58.7" x2="306.6" y2="60.7"/>
				<line class="st0" x1="308.7" y1="58.7" x2="308.7" y2="60.7"/>
				<line class="st0" x1="302.5" y1="58.7" x2="302.5" y2="60.7"/>
				<line class="st0" x1="300.4" y1="58.7" x2="300.4" y2="60.7"/>
				<line class="st0" x1="298.3" y1="58.7" x2="298.3" y2="60.7"/>
				<line class="st0" x1="296.2" y1="58.7" x2="296.2" y2="60.7"/>
				<line class="st0" x1="294.2" y1="58.7" x2="294.2" y2="60.7"/>
				<line class="st0" x1="292.1" y1="58.7" x2="292.1" y2="60.7"/>
				<line class="st0" x1="290" y1="58.7" x2="290" y2="60.7"/>
				<line class="st0" x1="287.9" y1="58.7" x2="287.9" y2="60.7"/>
				<line class="st0" x1="285.8" y1="58.7" x2="285.8" y2="60.7"/>
				<line class="st0" x1="283.8" y1="58.7" x2="283.8" y2="60.7"/>
				<line class="st0" x1="281.7" y1="58.7" x2="281.7" y2="60.7"/>
				<line class="st0" x1="279.6" y1="58.7" x2="279.6" y2="60.7"/>
				<line class="st0" x1="310.8" y1="42.3" x2="310.8" y2="44.4"/>
				<line class="st0" x1="312.9" y1="42.3" x2="312.9" y2="44.4"/>
				<line class="st0" x1="314.9" y1="42.3" x2="314.9" y2="44.4"/>
				<line class="st0" x1="317" y1="42.3" x2="317" y2="44.4"/>
				<line class="st0" x1="319.1" y1="42.3" x2="319.1" y2="44.4"/>
				<line class="st0" x1="321.2" y1="42.3" x2="321.2" y2="44.4"/>
				<line class="st0" x1="323.3" y1="42.3" x2="323.3" y2="44.4"/>
				<line class="st0" x1="325.3" y1="42.3" x2="325.3" y2="44.4"/>
				<line class="st0" x1="327.4" y1="42.3" x2="327.4" y2="44.4"/>
				<line class="st0" x1="329.5" y1="42.3" x2="329.5" y2="44.4"/>
				<line class="st0" x1="331.6" y1="42.3" x2="331.6" y2="44.4"/>
				<line class="st0" x1="333.6" y1="42.3" x2="333.6" y2="44.4"/>
				<line class="st0" x1="335.7" y1="42.3" x2="335.7" y2="44.4"/>
				<line class="st0" x1="304.5" y1="42.3" x2="304.5" y2="44.4"/>
				<line class="st0" x1="306.6" y1="42.3" x2="306.6" y2="44.4"/>
				<line class="st0" x1="308.7" y1="42.3" x2="308.7" y2="44.4"/>
				<line class="st0" x1="302.5" y1="42.3" x2="302.5" y2="44.4"/>
				<line class="st0" x1="300.4" y1="42.3" x2="300.4" y2="44.4"/>
				<line class="st0" x1="298.3" y1="42.3" x2="298.3" y2="44.4"/>
				<line class="st0" x1="296.2" y1="42.3" x2="296.2" y2="44.4"/>
				<line class="st0" x1="294.2" y1="42.3" x2="294.2" y2="44.4"/>
				<line class="st0" x1="292.1" y1="42.3" x2="292.1" y2="44.4"/>
				<line class="st0" x1="290" y1="42.3" x2="290" y2="44.4"/>
				<line class="st0" x1="287.9" y1="42.3" x2="287.9" y2="44.4"/>
				<line class="st0" x1="285.8" y1="42.3" x2="285.8" y2="44.4"/>
				<line class="st0" x1="283.8" y1="42.3" x2="283.8" y2="44.4"/>
				<line class="st0" x1="281.7" y1="42.3" x2="281.7" y2="44.4"/>
				<line class="st0" x1="279.6" y1="42.3" x2="279.6" y2="44.4"/>
				<g>
					<line class="st0" x1="269.5" y1="51.6" x2="271.6" y2="51.6"/>
					<line class="st0" x1="277.1" y1="42.6" x2="277.4" y2="44.6"/>
					<line class="st0" x1="271" y1="46.4" x2="272.6" y2="47.6"/>
					<line class="st0" x1="269.9" y1="49" x2="271.8" y2="49.6"/>
					<line class="st0" x1="274.8" y1="43.3" x2="275.5" y2="45.3"/>
					<line class="st0" x1="272.6" y1="44.6" x2="273.9" y2="46.2"/>
				</g>
				<g>
					<line class="st0" x1="277.1" y1="60.6" x2="277.4" y2="58.6"/>
					<line class="st0" x1="271" y1="56.8" x2="272.6" y2="55.6"/>
					<line class="st0" x1="269.9" y1="54.2" x2="271.8" y2="53.6"/>
					<line class="st0" x1="274.8" y1="59.8" x2="275.5" y2="57.9"/>
					<line class="st0" x1="272.6" y1="58.6" x2="273.9" y2="57"/>
				</g>
			</g>
		</g>
		<g>
			<g>
				<path class="st0" d="M340.6,51.7c0,2.8-2.3,5.1-5.1,5.1c-2.8,0-5.1-2.3-5.1-5.1c0-2.8,2.3-5.1,5.1-5.1
					C338.4,46.6,340.6,48.9,340.6,51.7z"/>
				<path class="st0" d="M338.7,51.7c0,1.8-1.4,3.2-3.2,3.2c-1.8,0-3.2-1.4-3.2-3.2c0-1.8,1.4-3.2,3.2-3.2
					C337.3,48.5,338.7,49.9,338.7,51.7z"/>
			</g>
			<g>
				<path class="st0" d="M329,51.7c0,2.8-2.3,5.1-5.1,5.1c-2.8,0-5.1-2.3-5.1-5.1c0-2.8,2.3-5.1,5.1-5.1
					C326.7,46.6,329,48.9,329,51.7z"/>
				<path class="st0" d="M327.1,51.7c0,1.8-1.4,3.2-3.2,3.2c-1.8,0-3.2-1.4-3.2-3.2c0-1.8,1.4-3.2,3.2-3.2
					C325.7,48.5,327.1,49.9,327.1,51.7z"/>
			</g>
			<g>
				<path class="st0" d="M317.4,51.7c0,2.8-2.3,5.1-5.1,5.1s-5.1-2.3-5.1-5.1c0-2.8,2.3-5.1,5.1-5.1S317.4,48.9,317.4,51.7z"/>
				<path class="st0" d="M315.5,51.7c0,1.8-1.4,3.2-3.2,3.2c-1.8,0-3.2-1.4-3.2-3.2c0-1.8,1.4-3.2,3.2-3.2
					C314.1,48.5,315.5,49.9,315.5,51.7z"/>
			</g>
			<g>
				<path class="st0" d="M305.8,51.7c0,2.8-2.3,5.1-5.1,5.1s-5.1-2.3-5.1-5.1c0-2.8,2.3-5.1,5.1-5.1S305.8,48.9,305.8,51.7z"/>
				<path class="st0" d="M303.9,51.7c0,1.8-1.4,3.2-3.2,3.2c-1.8,0-3.2-1.4-3.2-3.2c0-1.8,1.4-3.2,3.2-3.2
					C302.4,48.5,303.9,49.9,303.9,51.7z"/>
			</g>
			<g>
				<path class="st0" d="M294.2,51.7c0,2.8-2.3,5.1-5.1,5.1s-5.1-2.3-5.1-5.1c0-2.8,2.3-5.1,5.1-5.1S294.2,48.9,294.2,51.7z"/>
				<path class="st0" d="M292.2,51.7c0,1.8-1.4,3.2-3.2,3.2c-1.8,0-3.2-1.4-3.2-3.2c0-1.8,1.4-3.2,3.2-3.2
					C290.8,48.5,292.2,49.9,292.2,51.7z"/>
			</g>
			<path class="st0" d="M282.4,48.7l-1.6,0.4c-0.2-0.3-0.4-0.5-0.7-0.7l0.4-1.6c-0.2-0.1-0.3-0.2-0.5-0.2l-0.9,1.4
				c-0.2,0-0.3,0-0.5,0c-0.2,0-0.3,0-0.5,0l-0.9-1.4c-0.2,0.1-0.4,0.1-0.5,0.2l0.4,1.6c-0.3,0.2-0.5,0.4-0.7,0.7l-1.6-0.4
				c-0.1,0.2-0.2,0.3-0.2,0.5l1.4,0.9c0,0.2,0,0.3,0,0.5c0,0.2,0,0.3,0,0.5l-1.4,0.9c0.1,0.2,0.1,0.4,0.2,0.5l1.6-0.4
				c0.2,0.3,0.4,0.5,0.7,0.7l-0.4,1.6c0.2,0.1,0.3,0.2,0.5,0.2l0.9-1.4c0.2,0,0.3,0,0.5,0c0.2,0,0.3,0,0.5,0l0.9,1.4
				c0.2-0.1,0.4-0.1,0.5-0.2l-0.4-1.6c0.3-0.2,0.5-0.4,0.7-0.7l1.6,0.4c0.1-0.2,0.2-0.3,0.2-0.5l-1.4-0.9c0-0.2,0-0.3,0-0.5
				c0-0.2,0-0.3,0-0.5l1.4-0.9C282.6,49.1,282.5,48.9,282.4,48.7z"/>
		</g>
		<g>
			<g>
				<polyline class="st0" points="295.3,40 277.7,40 277.7,38.2 279.6,38.2 295.5,38.2 				"/>
				<polyline class="st0" points="279.8,38.2 279.8,36 299.2,31.9 				"/>
				<path class="st0" d="M302.8,34.7"/>
				<line class="st0" x1="288.7" y1="34.3" x2="288.7" y2="38.2"/>
				<polyline class="st0" points="307.5,26.6 307.5,18.8 310.3,16.3 310.3,25.8 				"/>
				<path class="st0" d="M281,26.5c0.2,0.6,0.1,1.2-0.2,1.3c-0.3,0.1-0.7-0.3-0.9-0.9c-0.2-0.6-0.1-1.2,0.2-1.3
					C280.4,25.5,280.8,25.9,281,26.5z"/>
				<path class="st0" d="M311.1,26.2c0,0-1.4,11.3,1.2,13.7L295.3,40C295.3,40,297.5,26.8,311.1,26.2z"/>
				<line class="st0" x1="298.2" y1="36.3" x2="308.2" y2="37.4"/>
				<line class="st0" x1="301.4" y1="32.7" x2="308.2" y2="35.2"/>
				<line class="st0" x1="305.2" y1="30.5" x2="308.5" y2="33"/>
				<line class="st0" x1="285.5" y1="38.2" x2="281.1" y2="27.6"/>
			</g>
			<g>
				<g>
					<path class="st0" d="M328.4,16l0-2.1c0-0.7,0.6-1.3,1.3-1.3l0,0c0.7,0,1.3,0.6,1.3,1.3l0,2.3"/>
				</g>
				<path class="st0" d="M340.2,40.4c0,0-24.6,1.2-26.6-2.7c-1.7-3.2,0.7-22,0.7-22s16.7,0.1,18.8,1.2
					C339.8,20.4,340.2,40.4,340.2,40.4z"/>
				<path class="st0" d="M337,35.4l-5.8-0.7l-0.7,2.2c0,0-11.4-1.2-12.8-3.4c-2.1-3.2,0.2-15,0.2-15s11.9,0.1,13.2,0.9
					C336.4,22.8,337,35.4,337,35.4z"/>
				<line class="st0" x1="316.2" y1="15.5" x2="316.2" y2="14"/>
				<path class="st0" d="M316.8,12.9c0,0.6-0.3,1.1-0.6,1.1c-0.3,0-0.5-0.5-0.5-1.1c0-0.6,0.3-1.1,0.6-1.1
					C316.6,11.8,316.8,12.3,316.8,12.9z"/>
				<rect x="340.6" y="19.2" class="st0" width="2.1" height="8.7"/>
				<path class="st0" d="M333.9,17.3c0,0,6.5,0,6.8,1.5v10.7l-4,1.9"/>
			</g>
		</g>
		<path class="st0" d="M275.4,40.1c0,0-5.7,1.4-6.2,1.6c-0.4,0.2-1.1,0.8-1.4,1.8c-0.2,1-1.1,5.7-1.1,5.7"/>
		<g>
			<g>
				<polyline class="st0" points="230.6,59.4 241,59.4 246.9,56.7 				"/>
				<path class="st0" d="M243.1,56.6c0,0,4.1-3.1,8.2-3.1c3.1,0,3.1,6,3.1,6h-11.3V56.6z"/>
				<path class="st0" d="M254.3,58.2h1.9c0,0,0-8-4.1-8s-7.2,2.2-8.9,3.5c-1.3,1-3.6,2.8-5,5.3"/>
				<polygon class="st0" points="253.6,50.3 249.9,50.3 249.9,45.5 251.7,45 253.6,45.5 				"/>
				<line class="st0" x1="252" y1="56.9" x2="260.7" y2="59.9"/>
				<line class="st0" x1="253.6" y1="50.3" x2="253.6" y2="37"/>
			</g>
			<line class="st0" x1="253.8" y1="47.7" x2="265.3" y2="46.6"/>
		</g>
		<g>
			<line class="st0" x1="342.9" y1="41.8" x2="358.8" y2="39.9"/>
			<line class="st0" x1="350.1" y1="48.5" x2="360.3" y2="43.1"/>
			<line class="st0" x1="345.9" y1="44" x2="356.4" y2="35.1"/>
			<line class="st0" x1="355.9" y1="34" x2="361.3" y2="45.1"/>
			<g>
				<path class="st0" d="M359.4,35.2l15.6-7.1c0,0-0.2,3.8,1.1,6.4s5,5.7,5,5.7l-15.7,7.7l-8.7-17.7l10.5-0.9l0.8,1.7"/>
				<line class="st0" x1="362.1" y1="41.3" x2="376.1" y2="34.5"/>
				<line class="st0" x1="363.5" y1="29.8" x2="364.9" y2="32.7"/>
				<line class="st0" x1="359.5" y1="30" x2="361.5" y2="34.1"/>
			</g>
		</g>
	</g>
	<g>
		<g>
			<g>
				<polyline class="st0" points="0.5,60.9 10.9,60.9 16.8,58.2 				"/>
				<path class="st0" d="M13,58.1c0,0,4.1-3.1,8.2-3.1c3.1,0,3.1,6,3.1,6l-11.3,0L13,58.1z"/>
				<path class="st0" d="M24.2,59.7l1.9,0c0,0,0-8-4.1-8c-4.1,0-7.2,2.2-8.9,3.5c-1.3,1-3.6,2.8-5,5.3"/>
				<polygon class="st0" points="23.4,51.8 19.8,51.8 19.8,46.9 21.6,46.5 23.4,46.9 				"/>
				<line class="st0" x1="21.8" y1="58.4" x2="30.5" y2="61.4"/>
				<line class="st0" x1="23.4" y1="51.8" x2="23.5" y2="38.5"/>
			</g>
			<line class="st0" x1="23.7" y1="49.2" x2="35.1" y2="48.1"/>
		</g>
		<path class="st0" d="M69.5,37.8"/>
		<g>
			<path class="st0" d="M110.6,53.6c0,3.9-3.1,7.1-7,7.1l-57.5,0.1c-3.9,0-7.1-3.1-7.1-7l0,0c0-3.9,3.1-7.1,7-7.1l57.5-0.1
				C107.5,46.5,110.6,49.7,110.6,53.6L110.6,53.6z"/>
			<g>
				<line class="st0" x1="78" y1="60.7" x2="78" y2="62.7"/>
				<line class="st0" x1="80.1" y1="60.7" x2="80.1" y2="62.7"/>
				<line class="st0" x1="82.1" y1="60.7" x2="82.2" y2="62.7"/>
				<line class="st0" x1="84.2" y1="60.7" x2="84.2" y2="62.7"/>
				<line class="st0" x1="86.3" y1="60.7" x2="86.3" y2="62.7"/>
				<line class="st0" x1="88.4" y1="60.7" x2="88.4" y2="62.7"/>
				<line class="st0" x1="90.5" y1="60.7" x2="90.5" y2="62.7"/>
				<line class="st0" x1="92.5" y1="60.7" x2="92.5" y2="62.7"/>
				<line class="st0" x1="94.6" y1="60.7" x2="94.6" y2="62.7"/>
				<line class="st0" x1="96.7" y1="60.7" x2="96.7" y2="62.7"/>
				<line class="st0" x1="98.8" y1="60.6" x2="98.8" y2="62.7"/>
				<line class="st0" x1="100.9" y1="60.6" x2="100.9" y2="62.7"/>
				<line class="st0" x1="102.9" y1="60.6" x2="102.9" y2="62.7"/>
				<g>
					<line class="st0" x1="112.7" y1="53.6" x2="110.6" y2="53.6"/>
					<line class="st0" x1="105.1" y1="44.6" x2="104.8" y2="46.6"/>
					<line class="st0" x1="111.2" y1="48.4" x2="109.6" y2="49.6"/>
					<line class="st0" x1="112.3" y1="50.9" x2="110.4" y2="51.6"/>
					<line class="st0" x1="107.4" y1="45.3" x2="106.7" y2="47.2"/>
					<line class="st0" x1="109.6" y1="46.6" x2="108.3" y2="48.2"/>
				</g>
				<g>
					<line class="st0" x1="105.2" y1="62.6" x2="104.8" y2="60.5"/>
					<line class="st0" x1="111.3" y1="58.7" x2="109.6" y2="57.5"/>
					<line class="st0" x1="112.3" y1="56.2" x2="110.4" y2="55.6"/>
					<line class="st0" x1="107.4" y1="61.8" x2="106.7" y2="59.9"/>
					<line class="st0" x1="109.6" y1="60.5" x2="108.3" y2="58.9"/>
				</g>
				<line class="st0" x1="71.8" y1="60.7" x2="71.8" y2="62.8"/>
				<line class="st0" x1="73.8" y1="60.7" x2="73.8" y2="62.7"/>
				<line class="st0" x1="75.9" y1="60.7" x2="75.9" y2="62.7"/>
				<line class="st0" x1="69.7" y1="60.7" x2="69.7" y2="62.8"/>
				<line class="st0" x1="67.6" y1="60.7" x2="67.6" y2="62.8"/>
				<line class="st0" x1="65.5" y1="60.7" x2="65.5" y2="62.8"/>
				<line class="st0" x1="63.4" y1="60.7" x2="63.4" y2="62.8"/>
				<line class="st0" x1="61.4" y1="60.7" x2="61.4" y2="62.8"/>
				<line class="st0" x1="59.3" y1="60.7" x2="59.3" y2="62.8"/>
				<line class="st0" x1="57.2" y1="60.7" x2="57.2" y2="62.8"/>
				<line class="st0" x1="55.1" y1="60.7" x2="55.1" y2="62.8"/>
				<line class="st0" x1="53" y1="60.7" x2="53.1" y2="62.8"/>
				<line class="st0" x1="51" y1="60.8" x2="51" y2="62.8"/>
				<line class="st0" x1="48.9" y1="60.8" x2="48.9" y2="62.8"/>
				<line class="st0" x1="46.8" y1="60.8" x2="46.8" y2="62.8"/>
				<line class="st0" x1="78" y1="44.4" x2="78" y2="46.4"/>
				<line class="st0" x1="80" y1="44.4" x2="80" y2="46.4"/>
				<line class="st0" x1="82.1" y1="44.4" x2="82.1" y2="46.4"/>
				<line class="st0" x1="84.2" y1="44.4" x2="84.2" y2="46.4"/>
				<line class="st0" x1="86.3" y1="44.4" x2="86.3" y2="46.4"/>
				<line class="st0" x1="88.3" y1="44.4" x2="88.4" y2="46.4"/>
				<line class="st0" x1="90.4" y1="44.3" x2="90.4" y2="46.4"/>
				<line class="st0" x1="92.5" y1="44.3" x2="92.5" y2="46.4"/>
				<line class="st0" x1="94.6" y1="44.3" x2="94.6" y2="46.4"/>
				<line class="st0" x1="96.7" y1="44.3" x2="96.7" y2="46.4"/>
				<line class="st0" x1="98.7" y1="44.3" x2="98.7" y2="46.4"/>
				<line class="st0" x1="100.8" y1="44.3" x2="100.8" y2="46.4"/>
				<line class="st0" x1="102.9" y1="44.3" x2="102.9" y2="46.4"/>
				<line class="st0" x1="71.7" y1="44.4" x2="71.7" y2="46.4"/>
				<line class="st0" x1="73.8" y1="44.4" x2="73.8" y2="46.4"/>
				<line class="st0" x1="75.9" y1="44.4" x2="75.9" y2="46.4"/>
				<line class="st0" x1="69.6" y1="44.4" x2="69.6" y2="46.4"/>
				<line class="st0" x1="67.6" y1="44.4" x2="67.6" y2="46.4"/>
				<line class="st0" x1="65.5" y1="44.4" x2="65.5" y2="46.5"/>
				<line class="st0" x1="63.4" y1="44.4" x2="63.4" y2="46.5"/>
				<line class="st0" x1="61.3" y1="44.4" x2="61.3" y2="46.5"/>
				<line class="st0" x1="59.2" y1="44.4" x2="59.3" y2="46.5"/>
				<line class="st0" x1="57.2" y1="44.4" x2="57.2" y2="46.5"/>
				<line class="st0" x1="55.1" y1="44.4" x2="55.1" y2="46.5"/>
				<line class="st0" x1="53" y1="44.4" x2="53" y2="46.5"/>
				<line class="st0" x1="50.9" y1="44.4" x2="50.9" y2="46.5"/>
				<line class="st0" x1="48.9" y1="44.4" x2="48.9" y2="46.5"/>
				<line class="st0" x1="46.8" y1="44.4" x2="46.8" y2="46.5"/>
				<g>
					<line class="st0" x1="36.7" y1="53.7" x2="38.8" y2="53.7"/>
					<line class="st0" x1="44.2" y1="44.7" x2="44.6" y2="46.7"/>
					<line class="st0" x1="38.1" y1="48.5" x2="39.8" y2="49.7"/>
					<line class="st0" x1="37.1" y1="51.1" x2="39" y2="51.7"/>
					<line class="st0" x1="42" y1="45.5" x2="42.7" y2="47.4"/>
					<line class="st0" x1="39.8" y1="46.8" x2="41.1" y2="48.3"/>
				</g>
				<g>
					<line class="st0" x1="44.3" y1="62.7" x2="44.6" y2="60.7"/>
					<line class="st0" x1="38.2" y1="58.9" x2="39.8" y2="57.7"/>
					<line class="st0" x1="37.1" y1="56.3" x2="39" y2="55.7"/>
					<line class="st0" x1="42" y1="62" x2="42.8" y2="60.1"/>
					<line class="st0" x1="39.8" y1="60.7" x2="41.1" y2="59.1"/>
				</g>
			</g>
		</g>
		<g>
			<g>
				<path class="st0" d="M107.8,53.6c0,2.8-2.3,5.1-5.1,5.1c-2.8,0-5.1-2.3-5.1-5.1c0-2.8,2.3-5.1,5.1-5.1
					C105.5,48.6,107.8,50.8,107.8,53.6z"/>
				<path class="st0" d="M105.9,53.6c0,1.8-1.4,3.2-3.2,3.2c-1.8,0-3.2-1.4-3.2-3.2c0-1.8,1.4-3.2,3.2-3.2
					C104.5,50.5,105.9,51.9,105.9,53.6z"/>
			</g>
			<g>
				<path class="st0" d="M96.2,53.7c0,2.8-2.3,5.1-5.1,5.1c-2.8,0-5.1-2.3-5.1-5.1c0-2.8,2.3-5.1,5.1-5.1
					C93.9,48.6,96.2,50.9,96.2,53.7z"/>
				<path class="st0" d="M94.3,53.7c0,1.8-1.4,3.2-3.2,3.2c-1.8,0-3.2-1.4-3.2-3.2c0-1.8,1.4-3.2,3.2-3.2
					C92.9,50.5,94.3,51.9,94.3,53.7z"/>
			</g>
			<g>
				<path class="st0" d="M84.6,53.7c0,2.8-2.3,5.1-5.1,5.1c-2.8,0-5.1-2.3-5.1-5.1c0-2.8,2.3-5.1,5.1-5.1
					C82.3,48.6,84.6,50.9,84.6,53.7z"/>
				<path class="st0" d="M82.7,53.7c0,1.8-1.4,3.2-3.2,3.2c-1.8,0-3.2-1.4-3.2-3.2c0-1.8,1.4-3.2,3.2-3.2
					C81.2,50.5,82.7,51.9,82.7,53.7z"/>
			</g>
			<g>
				<path class="st0" d="M73,53.7c0,2.8-2.3,5.1-5.1,5.1c-2.8,0-5.1-2.3-5.1-5.1c0-2.8,2.3-5.1,5.1-5.1C70.7,48.6,73,50.9,73,53.7z"
					/>
				<path class="st0" d="M71.1,53.7c0,1.8-1.4,3.2-3.2,3.2c-1.8,0-3.2-1.4-3.2-3.2c0-1.8,1.4-3.2,3.2-3.2C69.6,50.6,71,52,71.1,53.7
					z"/>
			</g>
			<g>
				<path class="st0" d="M61.4,53.7c0,2.8-2.3,5.1-5.1,5.1c-2.8,0-5.1-2.3-5.1-5.1c0-2.8,2.3-5.1,5.1-5.1
					C59.1,48.7,61.3,50.9,61.4,53.7z"/>
				<path class="st0" d="M59.4,53.8c0,1.8-1.4,3.2-3.2,3.2c-1.8,0-3.2-1.4-3.2-3.2c0-1.8,1.4-3.2,3.2-3.2C58,50.6,59.4,52,59.4,53.8
					z"/>
			</g>
			<path class="st0" d="M49.6,50.8L48,51.2c-0.2-0.3-0.4-0.5-0.7-0.7l0.4-1.6c-0.2-0.1-0.3-0.2-0.5-0.2l-0.9,1.4c-0.2,0-0.3,0-0.5,0
				c-0.2,0-0.3,0-0.5,0l-0.9-1.4c-0.2,0.1-0.4,0.1-0.5,0.2l0.4,1.6c-0.3,0.2-0.5,0.4-0.7,0.7l-1.6-0.4c-0.1,0.2-0.2,0.3-0.2,0.5
				l1.4,0.9c0,0.2,0,0.3,0,0.5s0,0.3,0,0.5l-1.4,0.9c0.1,0.2,0.1,0.4,0.2,0.5l1.6-0.4c0.2,0.3,0.4,0.5,0.7,0.7l-0.4,1.6
				c0.2,0.1,0.3,0.2,0.5,0.2l0.9-1.4c0.2,0,0.3,0,0.5,0s0.3,0,0.5,0l0.9,1.4c0.2-0.1,0.4-0.1,0.5-0.2L47.3,55
				c0.3-0.2,0.5-0.4,0.7-0.7l1.6,0.4c0.1-0.2,0.2-0.3,0.2-0.5l-1.4-0.9c0-0.2,0-0.3,0-0.5c0-0.2,0-0.3,0-0.5l1.4-0.9
				C49.7,51.2,49.7,51,49.6,50.8z"/>
		</g>
		<path class="st0" d="M119.5,6.6c0.8-0.7,2-1,3.1-0.6c1.2,0.4,1.9,1.5,2,2.7c0,0.4,0,0.8-0.2,1.2c-0.6,1.6-2.3,2.4-3.9,1.8
			c-0.7-0.3-1.3-0.8-1.6-1.4"/>
		<path class="st0" d="M54.3,17.6L64.4,6.4l46.1-3l10.8,4c0,0,1.3,2.7-1.6,2.9l-10-2.9l-39.6,7.1l-0.9,2.1L54.3,17.6z"/>
		<path class="st0" d="M70.7,30.1l0-12.1c0,0-0.2-1.5-2.7-1.3C63.9,17,51.8,18,51.8,18s-1,0.3-1.1,1.5c-0.2,1.1-0.2,10.3-0.2,10.3
			l5.4,6.3"/>
		<g>
			<g>
				<polyline class="st0" points="62.5,41.8 44.9,41.9 44.9,40 46.7,40 62.7,40 				"/>
				<polyline class="st0" points="46.9,40 46.9,37.9 66.4,33.7 				"/>
				<path class="st0" d="M69.9,36.5"/>
				<line class="st0" x1="55.9" y1="36.1" x2="55.9" y2="40"/>
				<polyline class="st0" points="74.6,28.4 74.6,20.5 77.4,18.1 77.4,27.6 				"/>
				<path class="st0" d="M39.8,27.5c0.2,0.6,0.1,1.2-0.2,1.3c-0.3,0.1-0.7-0.3-0.9-0.9c-0.2-0.6-0.1-1.2,0.2-1.3
					C39.2,26.5,39.6,26.9,39.8,27.5z"/>
				<path class="st0" d="M78.3,28c0,0-1.4,11.3,1.2,13.7l-17.1,0.1C62.4,41.8,64.7,28.7,78.3,28z"/>
				<line class="st0" x1="65.4" y1="38.1" x2="75.3" y2="39.2"/>
				<line class="st0" x1="68.5" y1="34.5" x2="75.3" y2="36.9"/>
				<line class="st0" x1="72.4" y1="32.3" x2="75.7" y2="34.8"/>
				<line class="st0" x1="52.7" y1="40" x2="39.8" y2="28.7"/>
			</g>
			<g>
				<g>
					<path class="st0" d="M95.5,17.7l0-2.1c0-0.7,0.6-1.3,1.3-1.3l0,0c0.7,0,1.3,0.6,1.3,1.3l0,2.3"/>
				</g>
				<path class="st0" d="M107.4,42.1c0,0-24.6,1.2-26.6-2.7c-1.7-3.2,0.6-22,0.6-22s16.7,0.1,18.8,1.1
					C106.9,22.1,107.4,42.1,107.4,42.1z"/>
				<path class="st0" d="M104.2,37.1l-5.8-0.7l-0.7,2.2c0,0-11.4-1.1-12.8-3.4c-2.1-3.2,0.2-15,0.2-15s11.9,0,13.2,0.9
					C103.6,24.5,104.2,37.1,104.2,37.1z"/>
				<line class="st0" x1="83.3" y1="17.2" x2="83.4" y2="15.7"/>
				<path class="st0" d="M83.9,14.7c0,0.6-0.3,1.1-0.6,1.1c-0.3,0-0.6-0.5-0.5-1.1c0-0.6,0.3-1.1,0.6-1.1
					C83.7,13.6,83.9,14,83.9,14.7z"/>
				
					<rect x="107.7" y="20.9" transform="matrix(1 -2.189218e-03 2.189218e-03 1 -5.503743e-02 0.2382)" class="st0" width="2.1" height="8.7"/>
				<path class="st0" d="M101,19.1c0,0,6.5,0,6.8,1.5l0,10.7l-4,1.9"/>
			</g>
		</g>
		<g>
			<line class="st0" x1="111.2" y1="42.5" x2="127.1" y2="42.6"/>
			<line class="st0" x1="117.4" y1="50" x2="128.3" y2="46"/>
			<line class="st0" x1="113.8" y1="45.1" x2="125.4" y2="37.5"/>
			<line class="st0" x1="125" y1="36.4" x2="129" y2="48"/>
			<g>
				<path class="st0" d="M128.3,38l16.3-5.1c0,0-0.6,3.8,0.3,6.5s4.2,6.3,4.2,6.3l-16.5,5.6l-6.4-18.7l10.6,0.4l0.6,1.8"/>
				<line class="st0" x1="130.3" y1="44.4" x2="144.9" y2="39.4"/>
				<line class="st0" x1="133.1" y1="33.2" x2="134.1" y2="36.2"/>
				<line class="st0" x1="129.1" y1="32.8" x2="130.6" y2="37.2"/>
			</g>
		</g>
		<polygon class="st0" points="65.7,9.4 61.5,14 68,13.5 		"/>
		<polygon class="st0" points="68.7,8.7 70.5,11.9 96.4,6.9 		"/>
	</g>
	<g>
		<path class="st0" d="M703.8,41.9V9.7c0-0.7,0.6-1.2,1.3-1.2l31.1,0.6c0.7,0,3.7,5.2,4.7,11.6c0.9,5.8,1.6,15.2-0.4,21
			c-0.9,2.5-1.6,3.5-2.5,4l-8,3"/>
		<path class="st0" d="M707.2,29.7V12.8c0-0.6,0.5-1,1.1-1l25.9,0.5c0.6,0,3.1,4.4,3.9,9.6c0.4,2.7,0.8,6.9,0.8,10.4L707.2,29.7z"/>
		<path class="st0" d="M736.7,9.1l3.1,0l-1.2-4.7c-1.9,0-8.6,1.9-8.6,1.9l-27.8-0.6c-0.9,0-1.6,0.6-1.6,1.2v2.9l3.2,1.4"/>
		<polyline class="st0" points="696.2,28.9 696.2,16.4 700.1,12.3 700.1,28.3 		"/>
		<g>
			<path class="st0" d="M704.2,4.9l0-2.7c0-0.9,0.8-1.7,1.8-1.7l0,0c1,0,1.8,0.8,1.8,1.7l0,3"/>
		</g>
		<rect x="744.9" y="17.3" class="st0" width="3" height="12.2"/>
		<path class="st0" d="M739.3,14.7c0,0,8.3,0,8.7,2.1v15.1l-5.6,2.7"/>
		<polygon class="st0" points="742.2,46.3 752.8,47.2 753.4,44.6 742.2,43.7 		"/>
		<g>
			<circle class="st0" cx="715.8" cy="53.5" r="6.2"/>
			<circle class="st0" cx="715.8" cy="53.5" r="4.3"/>
			<g>
				<g>
					<line class="st0" x1="712.9" y1="44.3" x2="714.1" y2="46"/>
					<line class="st0" x1="717.4" y1="61" x2="718.6" y2="62.6"/>
				</g>
				<g>
					<line class="st0" x1="724.9" y1="50.7" x2="723.2" y2="51.8"/>
					<line class="st0" x1="708.3" y1="55.1" x2="706.6" y2="56.3"/>
				</g>
			</g>
			<g>
				<g>
					<line class="st0" x1="715.4" y1="43.9" x2="716.1" y2="45.8"/>
					<line class="st0" x1="715.4" y1="61.1" x2="716.1" y2="63"/>
				</g>
				<g>
					<line class="st0" x1="725.3" y1="53.1" x2="723.4" y2="53.8"/>
					<line class="st0" x1="708.1" y1="53.1" x2="706.2" y2="53.8"/>
				</g>
			</g>
			<g>
				<g>
					<line class="st0" x1="717.9" y1="44.1" x2="718.1" y2="46.2"/>
					<line class="st0" x1="713.4" y1="60.8" x2="713.6" y2="62.8"/>
				</g>
				<g>
					<line class="st0" x1="725.1" y1="55.6" x2="723.1" y2="55.8"/>
					<line class="st0" x1="708.4" y1="51.2" x2="706.4" y2="51.3"/>
				</g>
			</g>
			<g>
				<g>
					<line class="st0" x1="720.2" y1="45" x2="719.9" y2="47"/>
					<line class="st0" x1="711.6" y1="59.9" x2="711.3" y2="61.9"/>
				</g>
				<g>
					<line class="st0" x1="724.2" y1="58" x2="722.2" y2="57.6"/>
					<line class="st0" x1="709.3" y1="49.3" x2="707.3" y2="49"/>
				</g>
			</g>
			<g>
				<g>
					<line class="st0" x1="722.3" y1="46.5" x2="721.4" y2="48.3"/>
					<line class="st0" x1="710.1" y1="58.6" x2="709.2" y2="60.5"/>
				</g>
				<g>
					<line class="st0" x1="722.8" y1="60" x2="720.9" y2="59.1"/>
					<line class="st0" x1="710.6" y1="47.8" x2="708.7" y2="46.9"/>
				</g>
			</g>
			<g>
				<g>
					<line class="st0" x1="723.9" y1="48.4" x2="722.6" y2="49.9"/>
					<line class="st0" x1="709" y1="57" x2="707.6" y2="58.6"/>
				</g>
				<g>
					<line class="st0" x1="720.8" y1="61.6" x2="719.3" y2="60.3"/>
					<line class="st0" x1="712.2" y1="46.7" x2="710.7" y2="45.4"/>
				</g>
			</g>
		</g>
		<g>
			<circle class="st0" cx="651.9" cy="53.5" r="6.2"/>
			<circle class="st0" cx="651.9" cy="53.5" r="4.3"/>
			<g>
				<g>
					<line class="st0" x1="649.1" y1="44.3" x2="650.3" y2="46"/>
					<line class="st0" x1="653.6" y1="61" x2="654.7" y2="62.6"/>
				</g>
				<g>
					<line class="st0" x1="661.1" y1="50.7" x2="659.4" y2="51.8"/>
					<line class="st0" x1="644.4" y1="55.1" x2="642.8" y2="56.3"/>
				</g>
			</g>
			<g>
				<g>
					<line class="st0" x1="651.6" y1="43.9" x2="652.3" y2="45.8"/>
					<line class="st0" x1="651.6" y1="61.1" x2="652.3" y2="63"/>
				</g>
				<g>
					<line class="st0" x1="661.5" y1="53.1" x2="659.6" y2="53.8"/>
					<line class="st0" x1="644.3" y1="53.1" x2="642.4" y2="53.8"/>
				</g>
			</g>
			<g>
				<g>
					<line class="st0" x1="654.1" y1="44.1" x2="654.2" y2="46.2"/>
					<line class="st0" x1="649.6" y1="60.8" x2="649.8" y2="62.8"/>
				</g>
				<g>
					<line class="st0" x1="661.3" y1="55.6" x2="659.2" y2="55.8"/>
					<line class="st0" x1="644.6" y1="51.2" x2="642.6" y2="51.3"/>
				</g>
			</g>
			<g>
				<g>
					<line class="st0" x1="656.4" y1="45" x2="656.1" y2="47"/>
					<line class="st0" x1="647.8" y1="59.9" x2="647.4" y2="61.9"/>
				</g>
				<g>
					<line class="st0" x1="660.4" y1="58" x2="658.4" y2="57.6"/>
					<line class="st0" x1="645.5" y1="49.3" x2="643.5" y2="49"/>
				</g>
			</g>
			<g>
				<g>
					<line class="st0" x1="658.4" y1="46.5" x2="657.6" y2="48.3"/>
					<line class="st0" x1="646.3" y1="58.6" x2="645.4" y2="60.5"/>
				</g>
				<g>
					<line class="st0" x1="658.9" y1="60" x2="657.1" y2="59.1"/>
					<line class="st0" x1="646.8" y1="47.8" x2="644.9" y2="46.9"/>
				</g>
			</g>
			<g>
				<g>
					<line class="st0" x1="660" y1="48.4" x2="658.7" y2="49.9"/>
					<line class="st0" x1="645.1" y1="57" x2="643.8" y2="58.6"/>
				</g>
				<g>
					<line class="st0" x1="657" y1="61.6" x2="655.5" y2="60.3"/>
					<line class="st0" x1="648.4" y1="46.7" x2="646.8" y2="45.4"/>
				</g>
			</g>
		</g>
		<polygon class="st0" points="701.9,43.8 708.2,38.2 726.3,40.4 732.4,47.7 730,48.7 725.1,42.8 709.2,40.9 703.8,45.8 		"/>
		<rect x="642.2" y="29" class="st0" width="58.1" height="9.4"/>
		<rect x="642.2" y="38.3" class="st0" width="58.1" height="3.1"/>
		<rect x="664.4" y="41.5" class="st0" width="35.9" height="6.3"/>
		<polygon class="st0" points="755.5,61.5 751.7,52.4 755.1,36.6 762.3,29.9 764.3,31.3 757.5,37.5 754.2,52.5 757.8,61.1 		"/>
		<ellipse transform="matrix(0.101 -0.9949 0.9949 0.101 623.8239 768.9257)" class="st0" cx="737.4" cy="39.3" rx="3.2" ry="0.9"/>
	</g>
	<g>
		<g>
			<polygon class="st0" points="546.9,42.6 555.8,52 555.8,48 546.9,38.6 			"/>
			<polygon class="st0" points="522.9,43.4 533.5,44.2 535.2,42.3 522.9,41.5 			"/>
			<g>
				<path class="st0" d="M481.9,12.5l0-1.9c0-0.7-0.6-1.2-1.3-1.2l0,0c-0.7,0-1.3,0.5-1.3,1.2l0,2.1"/>
			</g>
			<path class="st0" d="M512.7,33.5c0,1.1,0.5,1.9,1,1.9c0.5,0,1-0.9,1-1.9c0-1.1-0.5-1.9-1-1.9C513.2,31.6,512.7,32.5,512.7,33.5z"
				/>
			<g>
				<circle class="st0" cx="474.5" cy="53.2" r="6.3"/>
				<circle class="st0" cx="474.5" cy="53.2" r="4.3"/>
				<g>
					<g>
						<line class="st0" x1="477.3" y1="44" x2="476.1" y2="45.7"/>
						<line class="st0" x1="472.8" y1="60.8" x2="471.6" y2="62.5"/>
					</g>
					<g>
						<line class="st0" x1="465.2" y1="50.4" x2="466.9" y2="51.6"/>
						<line class="st0" x1="482" y1="54.9" x2="483.7" y2="56.1"/>
					</g>
				</g>
				<g>
					<g>
						<line class="st0" x1="474.8" y1="43.6" x2="474.1" y2="45.5"/>
						<line class="st0" x1="474.8" y1="60.9" x2="474.1" y2="62.9"/>
					</g>
					<g>
						<line class="st0" x1="464.8" y1="52.9" x2="466.8" y2="53.6"/>
						<line class="st0" x1="482.2" y1="52.9" x2="484.1" y2="53.6"/>
					</g>
				</g>
				<g>
					<g>
						<line class="st0" x1="472.3" y1="43.8" x2="472.1" y2="45.9"/>
						<line class="st0" x1="476.8" y1="60.6" x2="476.6" y2="62.6"/>
					</g>
					<g>
						<line class="st0" x1="465.1" y1="55.4" x2="467.1" y2="55.6"/>
						<line class="st0" x1="481.8" y1="50.9" x2="483.9" y2="51.1"/>
					</g>
				</g>
				<g>
					<g>
						<line class="st0" x1="469.9" y1="44.7" x2="470.3" y2="46.7"/>
						<line class="st0" x1="478.6" y1="59.7" x2="479" y2="61.8"/>
					</g>
					<g>
						<line class="st0" x1="465.9" y1="57.8" x2="468" y2="57.4"/>
						<line class="st0" x1="481" y1="49.1" x2="483" y2="48.7"/>
					</g>
				</g>
				<g>
					<g>
						<line class="st0" x1="467.9" y1="46.2" x2="468.8" y2="48"/>
						<line class="st0" x1="480.2" y1="58.4" x2="481" y2="60.3"/>
					</g>
					<g>
						<line class="st0" x1="467.4" y1="59.8" x2="469.3" y2="58.9"/>
						<line class="st0" x1="479.7" y1="47.5" x2="481.5" y2="46.7"/>
					</g>
				</g>
				<g>
					<g>
						<line class="st0" x1="466.3" y1="48.1" x2="467.6" y2="49.7"/>
						<line class="st0" x1="481.3" y1="56.8" x2="482.6" y2="58.4"/>
					</g>
					<g>
						<line class="st0" x1="469.3" y1="61.4" x2="470.9" y2="60.1"/>
						<line class="st0" x1="478" y1="46.4" x2="479.6" y2="45.1"/>
					</g>
				</g>
			</g>
			<g>
				<circle class="st0" cx="515.8" cy="53.2" r="6.3"/>
				<circle class="st0" cx="515.8" cy="53.2" r="4.3"/>
				<g>
					<g>
						<line class="st0" x1="518.6" y1="44" x2="517.4" y2="45.7"/>
						<line class="st0" x1="514.1" y1="60.8" x2="512.9" y2="62.5"/>
					</g>
					<g>
						<line class="st0" x1="506.6" y1="50.4" x2="508.2" y2="51.6"/>
						<line class="st0" x1="523.3" y1="54.9" x2="525" y2="56.1"/>
					</g>
				</g>
				<g>
					<g>
						<line class="st0" x1="516.1" y1="43.6" x2="515.4" y2="45.5"/>
						<line class="st0" x1="516.1" y1="60.9" x2="515.4" y2="62.9"/>
					</g>
					<g>
						<line class="st0" x1="506.1" y1="52.9" x2="508.1" y2="53.6"/>
						<line class="st0" x1="523.5" y1="52.9" x2="525.4" y2="53.6"/>
					</g>
				</g>
				<g>
					<g>
						<line class="st0" x1="513.6" y1="43.8" x2="513.4" y2="45.9"/>
						<line class="st0" x1="518.1" y1="60.6" x2="517.9" y2="62.6"/>
					</g>
					<g>
						<line class="st0" x1="506.4" y1="55.4" x2="508.4" y2="55.6"/>
						<line class="st0" x1="523.1" y1="50.9" x2="525.2" y2="51.1"/>
					</g>
				</g>
				<g>
					<g>
						<line class="st0" x1="511.3" y1="44.7" x2="511.6" y2="46.7"/>
						<line class="st0" x1="519.9" y1="59.7" x2="520.3" y2="61.8"/>
					</g>
					<g>
						<line class="st0" x1="507.3" y1="57.8" x2="509.3" y2="57.4"/>
						<line class="st0" x1="522.3" y1="49.1" x2="524.3" y2="48.7"/>
					</g>
				</g>
				<g>
					<g>
						<line class="st0" x1="509.2" y1="46.2" x2="510.1" y2="48"/>
						<line class="st0" x1="521.5" y1="58.4" x2="522.3" y2="60.3"/>
					</g>
					<g>
						<line class="st0" x1="508.7" y1="59.8" x2="510.6" y2="58.9"/>
						<line class="st0" x1="521" y1="47.5" x2="522.8" y2="46.7"/>
					</g>
				</g>
				<g>
					<g>
						<line class="st0" x1="507.6" y1="48.1" x2="508.9" y2="49.7"/>
						<line class="st0" x1="522.6" y1="56.8" x2="523.9" y2="58.4"/>
					</g>
					<g>
						<line class="st0" x1="510.6" y1="61.4" x2="512.2" y2="60.1"/>
						<line class="st0" x1="519.3" y1="46.4" x2="520.9" y2="45.1"/>
					</g>
				</g>
			</g>
			<path class="st0" d="M468.1,42.2c-1.3,0.8-2.5,1.8-3.4,2.9l-0.6-1.2c1.3-1.4,2.5-2.8,4.2-3.6L468.1,42.2z"/>
			<path class="st0" d="M468.5,38.8c1.8-0.8,3.9-1.2,6-1.2c7,0,12.9,4.6,14.9,11h11.5c1.7-5.5,6.3-9.6,12-10.7
				c0.9-0.2,6.6,0.2,9.1,0.2l-1,2.8c-2.2,0-6.5-0.3-7.1-0.2c-5.8,0.8-10.3,5.5-10.9,11.4h-16c-0.6-6.5-6-11.5-12.7-11.5
				c-2.4,0-4.6,0.7-6.5,1.8L468.5,38.8z"/>
			<g>
				<path class="st0" d="M477.1,37.8l2.4-14.7c0.5-2.7,1.8-3.9,4.1-3.9h15.6c2.3,0,3.2,1.5,4.1,3.9l6.6,15.6"/>
			</g>
			<g>
				<path class="st0" d="M500.9,48.6h-11.5c-2-6.3-7.9-11-14.9-11c-0.2,0-0.4,0-0.7,0l2.7-16.4c0.7-3.3,2.3-4.7,5-4.7h19
					c2.8,0,3.8,1.9,5,4.7l7.1,16.7C507,39.1,502.5,43.2,500.9,48.6z"/>
			</g>
			<line class="st0" x1="485.9" y1="19.3" x2="485.9" y2="42.5"/>
			<line class="st0" x1="512.7" y1="33.5" x2="510.8" y2="33.5"/>
			<circle class="st0" cx="541.4" cy="53.5" r="9"/>
			<circle class="st0" cx="541.4" cy="53.5" r="6.2"/>
			<polyline class="st0" points="532.4,62.1 529.1,57.5 529.4,49.1 540.3,37 548.2,13.6 559.2,9.4 559.2,15.2 554.1,17.1 
				547.5,36.9 			"/>
			<path class="st0" d="M503.4,17.4l1.6-0.1c-1.1-2.3-2.4-3.7-5.3-3.8l-19.3-0.7c-2.9,0-4.6,2.1-5.3,4.8l2.2,1"/>
		</g>
	</g>
</g>
</svg>
