<?xml version="1.0" encoding="utf-8"?>
<!-- Generator: Adobe Illustrator 22.0.0, SVG Export Plug-In . SVG Version: 6.00 Build 0)  -->
<svg version="1.1" id="Layer_1" xmlns="http://www.w3.org/2000/svg" xmlns:xlink="http://www.w3.org/1999/xlink" x="0px" y="0px"
	 width="56.8px" height="56.8px" viewBox="0 0 56.8 56.8" style="enable-background:new 0 0 56.8 56.8;" xml:space="preserve">
<style type="text/css">
	.st0{fill:#F0D283;}
	.st1{fill:#999999;}
	.st2{fill:#B3B3B3;}
	.st3{fill:#A08054;}
</style>
<g>
	<g>
		<path class="st0" d="M52.4,38.5c1.3-3.1,2-6.5,2-10.1c0-3.5-0.7-6.9-2-10l-4.6,1.9c1,2.5,1.6,5.2,1.6,8.1c0,2.8-0.6,5.6-1.6,8
			L52.4,38.5z"/>
	</g>
	<g>
		<path class="st0" d="M18.5,4.4L20.3,9c2.5-1.1,5.3-1.6,8.1-1.6C31.3,7.4,34,8,36.5,9l1.9-4.6c-3.1-1.3-6.4-2-10-2
			C24.9,2.4,21.5,3.1,18.5,4.4z"/>
	</g>
	<g>
		<path class="st1" d="M28.4,51c-1.5,0-2.8-1.3-2.8-2.8c0-1.5,1.3-2.8,2.8-2.8c1.5,0,2.8,1.3,2.8,2.8C31.2,49.7,29.9,51,28.4,51z
			 M28.4,46.2c-1.1,0-2,0.9-2,2c0,1.1,0.9,2,2,2c1.1,0,2-0.9,2-2C30.4,47.1,29.5,46.2,28.4,46.2z"/>
	</g>
	<g>
		<path class="st1" d="M40.1,43.6H16.7c-0.2,0-0.4-0.2-0.4-0.4V38c0-0.2,0.2-0.4,0.4-0.4h23.3c0.2,0,0.4,0.2,0.4,0.4v5.2
			C40.5,43.4,40.3,43.6,40.1,43.6z M17.1,42.8h22.5v-4.4H17.1V42.8z"/>
	</g>
	<g>
		<g>
			<path class="st2" d="M28.4,56.8C12.7,56.8,0,44.1,0,28.4S12.7,0,28.4,0c15.7,0,28.4,12.7,28.4,28.4S44.1,56.8,28.4,56.8z
				 M28.4,0.8C13.2,0.8,0.8,13.2,0.8,28.4C0.8,43.6,13.2,56,28.4,56S56,43.6,56,28.4C56,13.2,43.6,0.8,28.4,0.8z"/>
		</g>
		<g>
			<path class="st2" d="M28.4,54.8C13.8,54.8,2,43,2,28.4S13.8,2,28.4,2C43,2,54.8,13.8,54.8,28.4S43,54.8,28.4,54.8z M28.4,2.8
				C14.3,2.8,2.8,14.3,2.8,28.4C2.8,42.5,14.3,54,28.4,54S54,42.5,54,28.4C54,14.3,42.5,2.8,28.4,2.8z"/>
		</g>
		<g>
			<g>
				<g>
					<path class="st2" d="M28.4,7.8c-0.2,0-0.4-0.2-0.4-0.4v-5C28,2.2,28.2,2,28.4,2s0.4,0.2,0.4,0.4v5C28.8,7.6,28.6,7.8,28.4,7.8z
						"/>
				</g>
			</g>
			<g>
				<g>
					<path class="st2" d="M7.4,28.8h-5c-0.2,0-0.4-0.2-0.4-0.4S2.2,28,2.4,28h5c0.2,0,0.4,0.2,0.4,0.4S7.6,28.8,7.4,28.8z"/>
				</g>
				<g>
					<path class="st2" d="M54.4,28.8h-5c-0.2,0-0.4-0.2-0.4-0.4s0.2-0.4,0.4-0.4h5c0.2,0,0.4,0.2,0.4,0.4S54.6,28.8,54.4,28.8z"/>
				</g>
			</g>
		</g>
		<g>
			<g>
				<g>
					<path class="st2" d="M22.9,8.5c-0.2,0-0.3-0.1-0.4-0.3l-1.3-4.8c-0.1-0.2,0.1-0.4,0.3-0.5C21.8,2.8,22,3,22,3.2L23.3,8
						c0.1,0.2-0.1,0.4-0.3,0.5C23,8.5,23,8.5,22.9,8.5z"/>
				</g>
			</g>
			<g>
				<g>
					<path class="st2" d="M48.7,23.4c-0.2,0-0.3-0.1-0.4-0.3c-0.1-0.2,0.1-0.4,0.3-0.5l4.8-1.3c0.2-0.1,0.4,0.1,0.5,0.3
						c0.1,0.2-0.1,0.4-0.3,0.5l-4.8,1.3C48.8,23.4,48.7,23.4,48.7,23.4z"/>
				</g>
				<g>
					<path class="st2" d="M3.3,35.5c-0.2,0-0.3-0.1-0.4-0.3c-0.1-0.2,0.1-0.4,0.3-0.5L8,33.5c0.2-0.1,0.4,0.1,0.5,0.3
						c0.1,0.2-0.1,0.4-0.3,0.5l-4.8,1.3C3.3,35.5,3.3,35.5,3.3,35.5z"/>
				</g>
			</g>
		</g>
		<g>
			<g>
				<g>
					<path class="st2" d="M28.4,7.8c-0.2,0-0.4-0.2-0.4-0.4v-5C28,2.2,28.2,2,28.4,2s0.4,0.2,0.4,0.4v5C28.8,7.6,28.6,7.8,28.4,7.8z
						"/>
				</g>
			</g>
			<g>
				<g>
					<path class="st2" d="M7.4,28.8h-5c-0.2,0-0.4-0.2-0.4-0.4S2.2,28,2.4,28h5c0.2,0,0.4,0.2,0.4,0.4S7.6,28.8,7.4,28.8z"/>
				</g>
				<g>
					<path class="st2" d="M54.4,28.8h-5c-0.2,0-0.4-0.2-0.4-0.4s0.2-0.4,0.4-0.4h5c0.2,0,0.4,0.2,0.4,0.4S54.6,28.8,54.4,28.8z"/>
				</g>
			</g>
		</g>
		<g>
			<g>
				<g>
					<path class="st2" d="M22.9,8.5c-0.2,0-0.3-0.1-0.4-0.3l-1.3-4.8c-0.1-0.2,0.1-0.4,0.3-0.5C21.8,2.8,22,3,22,3.2L23.3,8
						c0.1,0.2-0.1,0.4-0.3,0.5C23,8.5,23,8.5,22.9,8.5z"/>
				</g>
			</g>
			<g>
				<g>
					<path class="st2" d="M48.7,23.4c-0.2,0-0.3-0.1-0.4-0.3c-0.1-0.2,0.1-0.4,0.3-0.5l4.8-1.3c0.2-0.1,0.4,0.1,0.5,0.3
						c0.1,0.2-0.1,0.4-0.3,0.5l-4.8,1.3C48.8,23.4,48.7,23.4,48.7,23.4z"/>
				</g>
				<g>
					<path class="st2" d="M3.3,35.5c-0.2,0-0.3-0.1-0.4-0.3c-0.1-0.2,0.1-0.4,0.3-0.5L8,33.5c0.2-0.1,0.4,0.1,0.5,0.3
						c0.1,0.2-0.1,0.4-0.3,0.5l-4.8,1.3C3.3,35.5,3.3,35.5,3.3,35.5z"/>
				</g>
			</g>
		</g>
		<g>
			<g>
				<g>
					<path class="st2" d="M17.9,10.6c-0.1,0-0.3-0.1-0.3-0.2L15,6.1c-0.1-0.2,0-0.4,0.1-0.5c0.2-0.1,0.4,0,0.5,0.1l2.5,4.3
						c0.1,0.2,0,0.4-0.1,0.5C18,10.6,17.9,10.6,17.9,10.6z"/>
				</g>
			</g>
			<g>
				<g>
					<path class="st2" d="M46.6,18.3c-0.1,0-0.3-0.1-0.3-0.2c-0.1-0.2,0-0.4,0.1-0.5l4.3-2.5c0.2-0.1,0.4,0,0.5,0.1
						c0.1,0.2,0,0.4-0.1,0.5l-4.3,2.5C46.7,18.3,46.7,18.3,46.6,18.3z"/>
				</g>
			</g>
		</g>
		<g>
			<g>
				<g>
					<path class="st2" d="M13.5,13.9c-0.1,0-0.2,0-0.3-0.1l-3.5-3.5c-0.2-0.2-0.2-0.4,0-0.6s0.4-0.2,0.6,0l3.5,3.5
						c0.2,0.2,0.2,0.4,0,0.6C13.7,13.9,13.6,13.9,13.5,13.9z"/>
				</g>
			</g>
			<g>
				<g>
					<path class="st2" d="M43.2,13.9c-0.1,0-0.2,0-0.3-0.1c-0.2-0.2-0.2-0.4,0-0.6l3.5-3.5c0.2-0.2,0.4-0.2,0.6,0s0.2,0.4,0,0.6
						l-3.5,3.5C43.5,13.9,43.4,13.9,43.2,13.9z"/>
				</g>
			</g>
		</g>
		<g>
			<g>
				<g>
					<rect x="7.6" y="14.2" transform="matrix(0.5 -0.866 0.866 0.5 -10.4022 15.2698)" class="st2" width="0.8" height="5"/>
				</g>
			</g>
			<g>
				<g>
					<path class="st2" d="M38.9,10.6c-0.1,0-0.1,0-0.2-0.1c-0.2-0.1-0.3-0.4-0.1-0.5L41,5.7c0.1-0.2,0.4-0.3,0.5-0.1
						c0.2,0.1,0.3,0.4,0.1,0.5l-2.5,4.3C39.2,10.5,39,10.6,38.9,10.6z"/>
				</g>
			</g>
		</g>
		<g>
			<g>
				<g>
					<path class="st2" d="M8.1,23.4c0,0-0.1,0-0.1,0l-4.8-1.3c-0.2-0.1-0.3-0.3-0.3-0.5c0.1-0.2,0.3-0.3,0.5-0.3l4.8,1.3
						c0.2,0.1,0.3,0.3,0.3,0.5C8.4,23.2,8.3,23.4,8.1,23.4z"/>
				</g>
				<g>
					<path class="st2" d="M53.5,35.5c0,0-0.1,0-0.1,0l-4.8-1.3c-0.2-0.1-0.3-0.3-0.3-0.5c0.1-0.2,0.3-0.3,0.5-0.3l4.8,1.3
						c0.2,0.1,0.3,0.3,0.3,0.5C53.8,35.4,53.7,35.5,53.5,35.5z"/>
				</g>
			</g>
			<g>
				<g>
					<path class="st2" d="M33.8,8.5c0,0-0.1,0-0.1,0c-0.2-0.1-0.3-0.3-0.3-0.5l1.3-4.8C34.8,3,35,2.8,35.2,2.9
						c0.2,0.1,0.3,0.3,0.3,0.5l-1.3,4.8C34.2,8.4,34,8.5,33.8,8.5z"/>
				</g>
			</g>
		</g>
		<g>
			<g>
				<g>
					<path class="st2" d="M25.6,8c-0.2,0-0.4-0.1-0.4-0.3l-0.7-4.9c0-0.2,0.1-0.4,0.3-0.4c0.2,0,0.4,0.1,0.4,0.3L26,7.5
						C26.1,7.7,25.9,7.9,25.6,8C25.7,8,25.7,8,25.6,8z"/>
				</g>
			</g>
			<g>
				<g>
					<path class="st2" d="M2.6,32.2c-0.2,0-0.4-0.1-0.4-0.3c0-0.2,0.1-0.4,0.3-0.4l4.9-0.7c0.2,0,0.4,0.1,0.4,0.3
						c0,0.2-0.1,0.4-0.3,0.4L2.6,32.2C2.6,32.2,2.6,32.2,2.6,32.2z"/>
				</g>
				<g>
					<path class="st2" d="M49.2,26.1c-0.2,0-0.4-0.1-0.4-0.3c0-0.2,0.1-0.4,0.3-0.4l4.9-0.7c0.2,0,0.4,0.1,0.4,0.3
						c0,0.2-0.1,0.4-0.3,0.4L49.2,26.1C49.3,26.1,49.2,26.1,49.2,26.1z"/>
				</g>
			</g>
		</g>
		<g>
			<g>
				<g>
					<path class="st2" d="M20.3,9.4c-0.2,0-0.3-0.1-0.4-0.2l-1.9-4.6c-0.1-0.2,0-0.4,0.2-0.5c0.2-0.1,0.4,0,0.5,0.2l1.9,4.6
						c0.1,0.2,0,0.4-0.2,0.5C20.4,9.4,20.4,9.4,20.3,9.4z"/>
				</g>
			</g>
			<g>
				<g>
					<path class="st2" d="M47.8,20.8c-0.2,0-0.3-0.1-0.4-0.2c-0.1-0.2,0-0.4,0.2-0.5l4.6-1.9c0.2-0.1,0.4,0,0.5,0.2
						c0.1,0.2,0,0.4-0.2,0.5L48,20.7C47.9,20.7,47.9,20.8,47.8,20.8z"/>
				</g>
				<g>
					<path class="st2" d="M4.4,38.8c-0.2,0-0.3-0.1-0.4-0.2c-0.1-0.2,0-0.4,0.2-0.5l4.6-1.9c0.2-0.1,0.4,0,0.5,0.2
						c0.1,0.2,0,0.4-0.2,0.5l-4.6,1.9C4.5,38.7,4.4,38.8,4.4,38.8z"/>
				</g>
			</g>
		</g>
		<g>
			<g>
				<g>
					<path class="st2" d="M15.6,12.1c-0.1,0-0.2-0.1-0.3-0.2l-3-4c-0.1-0.2-0.1-0.4,0.1-0.6c0.2-0.1,0.4-0.1,0.6,0.1l3,4
						c0.1,0.2,0.1,0.4-0.1,0.6C15.8,12.1,15.7,12.1,15.6,12.1z"/>
				</g>
			</g>
			<g>
				<g>
					<path class="st2" d="M45.1,16c-0.1,0-0.2-0.1-0.3-0.2c-0.1-0.2-0.1-0.4,0.1-0.6l4-3c0.2-0.1,0.4-0.1,0.6,0.1
						c0.1,0.2,0.1,0.4-0.1,0.6l-4,3C45.2,16,45.1,16,45.1,16z"/>
				</g>
			</g>
		</g>
		<g>
			<g>
				<g>
					<path class="st2" d="M11.7,16c-0.1,0-0.2,0-0.2-0.1l-4-3c-0.2-0.1-0.2-0.4-0.1-0.6c0.1-0.2,0.4-0.2,0.6-0.1l4,3
						c0.2,0.1,0.2,0.4,0.1,0.6C11.9,15.9,11.8,16,11.7,16z"/>
				</g>
			</g>
			<g>
				<g>
					<path class="st2" d="M41.2,12.1c-0.1,0-0.2,0-0.2-0.1c-0.2-0.1-0.2-0.4-0.1-0.6l3-4c0.1-0.2,0.4-0.2,0.6-0.1
						c0.2,0.1,0.2,0.4,0.1,0.6l-3,4C41.4,12.1,41.3,12.1,41.2,12.1z"/>
				</g>
			</g>
		</g>
		<g>
			<g>
				<g>
					<path class="st2" d="M9,20.8c-0.1,0-0.1,0-0.2,0l-4.6-1.9C4,18.7,3.9,18.5,4,18.3c0.1-0.2,0.3-0.3,0.5-0.2L9.1,20
						c0.2,0.1,0.3,0.3,0.2,0.5C9.3,20.7,9.1,20.8,9,20.8z"/>
				</g>
				<g>
					<path class="st2" d="M52.4,38.8c-0.1,0-0.1,0-0.2,0l-4.6-1.9c-0.2-0.1-0.3-0.3-0.2-0.5c0.1-0.2,0.3-0.3,0.5-0.2l4.6,1.9
						c0.2,0.1,0.3,0.3,0.2,0.5C52.7,38.7,52.6,38.8,52.4,38.8z"/>
				</g>
			</g>
			<g>
				<g>
					<path class="st2" d="M36.4,9.4c-0.1,0-0.1,0-0.2,0C36.1,9.3,36,9,36.1,8.8L38,4.2C38.1,4,38.3,3.9,38.5,4
						c0.2,0.1,0.3,0.3,0.2,0.5l-1.9,4.6C36.7,9.3,36.6,9.4,36.4,9.4z"/>
				</g>
			</g>
		</g>
		<g>
			<g>
				<g>
					<path class="st2" d="M7.5,26.1C7.5,26.1,7.5,26.1,7.5,26.1l-5-0.7c-0.2,0-0.4-0.2-0.3-0.4c0-0.2,0.2-0.4,0.4-0.3l4.9,0.7
						c0.2,0,0.4,0.2,0.3,0.4C7.9,25.9,7.7,26.1,7.5,26.1z"/>
				</g>
				<g>
					<path class="st2" d="M54.2,32.2C54.2,32.2,54.1,32.2,54.2,32.2l-5-0.7c-0.2,0-0.4-0.2-0.3-0.4c0-0.2,0.2-0.4,0.4-0.3l4.9,0.7
						c0.2,0,0.4,0.2,0.3,0.4C54.5,32,54.4,32.2,54.2,32.2z"/>
				</g>
			</g>
			<g>
				<g>
					<path class="st2" d="M31.1,8C31.1,8,31.1,8,31.1,8c-0.3,0-0.4-0.2-0.4-0.5l0.7-4.9c0-0.2,0.2-0.4,0.4-0.3
						c0.2,0,0.4,0.2,0.3,0.4l-0.7,4.9C31.5,7.8,31.3,8,31.1,8z"/>
				</g>
			</g>
		</g>
	</g>
	<g>
		<path class="st3" d="M20.6,14.8v-2.5l-0.6,0.5v-0.5l0.6-0.5H21v2.9H20.6z"/>
		<path class="st3" d="M22.9,14.8c-0.5,0-0.8-0.3-0.8-0.8v-1.3c0-0.5,0.4-0.8,0.8-0.8c0.5,0,0.8,0.3,0.8,0.8V14
			C23.7,14.5,23.3,14.8,22.9,14.8z M23.3,12.7c0-0.3-0.2-0.5-0.4-0.5c-0.3,0-0.4,0.2-0.4,0.5V14c0,0.3,0.2,0.5,0.4,0.5
			c0.3,0,0.4-0.2,0.4-0.5V12.7z"/>
	</g>
	<g>
		<path class="st3" d="M33.4,14.8v-2.5l-0.6,0.5v-0.5l0.6-0.5h0.4v2.9H33.4z"/>
		<path class="st3" d="M36.3,14.6c-0.1,0.1-0.3,0.2-0.6,0.2c-0.3,0-0.5-0.1-0.6-0.2c-0.2-0.2-0.2-0.3-0.2-0.6h0.4
			c0,0.3,0.2,0.4,0.4,0.4c0.1,0,0.2,0,0.3-0.1c0.1-0.1,0.1-0.3,0.1-0.5c0-0.4-0.1-0.6-0.4-0.6c-0.2,0-0.4,0.1-0.4,0.3h-0.4v-1.6h1.6
			v0.4h-1.2V13c0.1-0.1,0.3-0.2,0.5-0.2c0.2,0,0.4,0.1,0.5,0.2c0.2,0.2,0.3,0.5,0.3,0.8C36.5,14.1,36.5,14.4,36.3,14.6z"/>
	</g>
	<g>
		<path class="st3" d="M13.9,24.2c-0.1,0.1-0.3,0.2-0.6,0.2c-0.3,0-0.5-0.1-0.6-0.2c-0.2-0.2-0.2-0.3-0.2-0.6h0.4
			c0,0.3,0.2,0.4,0.4,0.4c0.1,0,0.2,0,0.3-0.1c0.1-0.1,0.1-0.3,0.1-0.5c0-0.3-0.1-0.6-0.4-0.6c-0.2,0-0.4,0.1-0.4,0.3h-0.4v-1.6h1.6
			v0.4h-1.2v0.8c0.1-0.1,0.3-0.2,0.5-0.2c0.2,0,0.4,0.1,0.5,0.2c0.2,0.2,0.3,0.5,0.3,0.8C14.2,23.7,14.1,24,13.9,24.2z"/>
	</g>
	<g>
		<path class="st3" d="M41.4,24.4V24l1.1-1.4c0.1-0.1,0.2-0.2,0.2-0.4c0-0.3-0.2-0.4-0.4-0.4c-0.2,0-0.4,0.1-0.4,0.5h-0.4
			c0-0.5,0.4-0.8,0.9-0.8c0.5,0,0.8,0.3,0.8,0.8c0,0.3-0.1,0.4-0.3,0.6L41.9,24h1.2v0.4H41.4z"/>
		<path class="st3" d="M44.4,24.4c-0.5,0-0.8-0.3-0.8-0.8v-1.3c0-0.5,0.4-0.8,0.8-0.8c0.5,0,0.8,0.3,0.8,0.8v1.3
			C45.2,24.1,44.9,24.4,44.4,24.4z M44.8,22.3c0-0.3-0.2-0.5-0.4-0.5c-0.3,0-0.4,0.2-0.4,0.5v1.3c0,0.3,0.2,0.5,0.4,0.5
			c0.3,0,0.4-0.2,0.4-0.5V22.3z"/>
	</g>
	<g>
		<path class="st3" d="M13.3,35.5c-0.5,0-0.8-0.3-0.8-0.8v-1.3c0-0.5,0.4-0.8,0.8-0.8c0.5,0,0.8,0.3,0.8,0.8v1.3
			C14.2,35.2,13.8,35.5,13.3,35.5z M13.7,33.4c0-0.3-0.2-0.5-0.4-0.5c-0.3,0-0.4,0.2-0.4,0.5v1.3c0,0.3,0.2,0.5,0.4,0.5
			c0.3,0,0.4-0.2,0.4-0.5V33.4z"/>
	</g>
	<g>
		<path class="st3" d="M41.6,35.5v-0.4l1.1-1.4c0.1-0.1,0.2-0.2,0.2-0.4c0-0.3-0.2-0.4-0.4-0.4c-0.2,0-0.4,0.1-0.4,0.5h-0.4
			c0-0.5,0.4-0.8,0.9-0.8c0.5,0,0.8,0.3,0.8,0.8c0,0.3-0.1,0.4-0.3,0.6l-0.9,1.1h1.2v0.4H41.6z"/>
		<path class="st3" d="M45.3,35.3c-0.1,0.1-0.3,0.2-0.6,0.2c-0.3,0-0.5-0.1-0.6-0.2c-0.2-0.2-0.2-0.3-0.2-0.6h0.4
			c0,0.3,0.2,0.4,0.4,0.4c0.1,0,0.2,0,0.3-0.1c0.1-0.1,0.1-0.3,0.1-0.5c0-0.3-0.1-0.6-0.4-0.6c-0.2,0-0.4,0.1-0.4,0.3h-0.4v-1.6h1.6
			v0.4h-1.2v0.8c0.1-0.1,0.3-0.2,0.5-0.2c0.2,0,0.4,0.1,0.5,0.2c0.2,0.2,0.3,0.5,0.3,0.8C45.5,34.8,45.5,35.1,45.3,35.3z"/>
	</g>
	<g>
		<polygon class="st1" points="40.4,15.9 40.1,15.7 30.3,25 31,25.7 		"/>
	</g>
	<g>
		<path class="st1" d="M28.4,32.8c-2.4,0-4.4-2-4.4-4.4c0-2.4,2-4.4,4.4-4.4s4.4,2,4.4,4.4C32.8,30.8,30.8,32.8,28.4,32.8z
			 M28.4,24.8c-2,0-3.6,1.6-3.6,3.6s1.6,3.6,3.6,3.6c2,0,3.6-1.6,3.6-3.6S30.4,24.8,28.4,24.8z"/>
	</g>
</g>
</svg>
