<?xml version="1.0" encoding="utf-8"?>
<!-- Generator: Adobe Illustrator 22.0.0, SVG Export Plug-In . SVG Version: 6.00 Build 0)  -->
<svg version="1.1" id="Layer_1" xmlns="http://www.w3.org/2000/svg" xmlns:xlink="http://www.w3.org/1999/xlink" x="0px" y="0px"
	 width="71.7px" height="71.7px" viewBox="0 0 71.7 71.7" style="enable-background:new 0 0 71.7 71.7;" xml:space="preserve">
<style type="text/css">
	.st0{fill:#666666;}
	.st1{fill:#999999;}
	.st2{fill:#B3B3B3;}
	.st3{fill:#A08054;}
</style>
<g>
	<g>
		<path class="st0" d="M66.2,48.6c1.7-3.9,2.6-8.3,2.6-12.8c0-4.5-0.9-8.8-2.5-12.6l-5.9,2.4c1.3,3.2,2.1,6.6,2.1,10.3
			c0,3.6-0.7,7-2,10.2L66.2,48.6z"/>
	</g>
	<g>
		<path class="st0" d="M23.3,5.4l2.3,5.9c3.2-1.3,6.7-2.1,10.3-2.1c3.6,0,7.1,0.7,10.2,2l2.4-5.8c-3.9-1.6-8.2-2.5-12.6-2.5
			C31.4,2.9,27.1,3.8,23.3,5.4z"/>
	</g>
	<g>
		<path class="st1" d="M35.8,64.3c-1.9,0-3.4-1.5-3.4-3.4s1.5-3.4,3.4-3.4c1.9,0,3.4,1.5,3.4,3.4S37.7,64.3,35.8,64.3z M35.8,58.2
			c-1.5,0-2.7,1.2-2.7,2.7s1.2,2.7,2.7,2.7c1.5,0,2.7-1.2,2.7-2.7S37.3,58.2,35.8,58.2z"/>
	</g>
	<g>
		<path class="st1" d="M50.7,55H21.1c-0.2,0-0.4-0.2-0.4-0.4v-6.5c0-0.2,0.2-0.3,0.4-0.3h29.6c0.2,0,0.3,0.2,0.3,0.3v6.5
			C51,54.8,50.9,55,50.7,55z M21.4,54.3h28.9v-5.8H21.4V54.3z"/>
	</g>
	<g>
		<g>
			<path class="st2" d="M35.9,71.7C16.1,71.7,0,55.6,0,35.9S16.1,0,35.9,0s35.9,16.1,35.9,35.9S55.6,71.7,35.9,71.7z M35.9,0.7
				C16.5,0.7,0.7,16.5,0.7,35.9C0.7,55.2,16.5,71,35.9,71S71,55.2,71,35.9C71,16.5,55.2,0.7,35.9,0.7z"/>
		</g>
		<g>
			<path class="st2" d="M35.9,69.2c-18.4,0-33.3-14.9-33.3-33.3c0-18.4,14.9-33.3,33.3-33.3s33.3,14.9,33.3,33.3
				C69.2,54.2,54.2,69.2,35.9,69.2z M35.9,3.2c-18,0-32.6,14.6-32.6,32.6c0,18,14.6,32.6,32.6,32.6s32.6-14.6,32.6-32.6
				C68.5,17.9,53.8,3.2,35.9,3.2z"/>
		</g>
		<g>
			<g>
				<g>
					<path class="st2" d="M35.8,9.5c-0.2,0-0.4-0.2-0.4-0.4V2.9c0-0.2,0.2-0.3,0.4-0.3c0.2,0,0.3,0.2,0.3,0.3v6.3
						C36.2,9.4,36,9.5,35.8,9.5z"/>
				</g>
			</g>
			<g>
				<g>
					<path class="st2" d="M9.2,36.2H2.9c-0.2,0-0.4-0.2-0.4-0.4c0-0.2,0.2-0.3,0.4-0.3h6.3c0.2,0,0.4,0.2,0.4,0.3
						C9.5,36,9.4,36.2,9.2,36.2z"/>
				</g>
				<g>
					<path class="st2" d="M68.8,36.2h-6.3c-0.2,0-0.3-0.2-0.3-0.4c0-0.2,0.2-0.3,0.3-0.3h6.3c0.2,0,0.3,0.2,0.3,0.3
						C69.2,36,69,36.2,68.8,36.2z"/>
				</g>
			</g>
		</g>
		<g>
			<g>
				<g>
					<path class="st2" d="M28.9,10.5c-0.2,0-0.3-0.1-0.3-0.3L27,4.1c0-0.2,0.1-0.4,0.2-0.4c0.2,0,0.4,0.1,0.4,0.2l1.6,6.1
						C29.3,10.2,29.2,10.4,28.9,10.5C29,10.5,29,10.5,28.9,10.5z"/>
				</g>
			</g>
			<g>
				<g>
					<path class="st2" d="M61.6,29.3c-0.2,0-0.3-0.1-0.3-0.3c0-0.2,0.1-0.4,0.2-0.4l6.1-1.6c0.2-0.1,0.4,0.1,0.4,0.2
						c0,0.2-0.1,0.4-0.2,0.4L61.6,29.3C61.6,29.3,61.6,29.3,61.6,29.3z"/>
				</g>
				<g>
					<path class="st2" d="M4,44.7c-0.2,0-0.3-0.1-0.3-0.3c0-0.2,0.1-0.4,0.2-0.4l6.1-1.6c0.2,0,0.4,0.1,0.4,0.2
						c0,0.2-0.1,0.4-0.2,0.4L4,44.7C4,44.7,4,44.7,4,44.7z"/>
				</g>
			</g>
		</g>
		<g>
			<g>
				<g>
					<path class="st2" d="M35.8,9.5c-0.2,0-0.4-0.2-0.4-0.4V2.9c0-0.2,0.2-0.3,0.4-0.3c0.2,0,0.3,0.2,0.3,0.3v6.3
						C36.2,9.4,36,9.5,35.8,9.5z"/>
				</g>
			</g>
			<g>
				<g>
					<path class="st2" d="M9.2,36.2H2.9c-0.2,0-0.4-0.2-0.4-0.4c0-0.2,0.2-0.3,0.4-0.3h6.3c0.2,0,0.4,0.2,0.4,0.3
						C9.5,36,9.4,36.2,9.2,36.2z"/>
				</g>
				<g>
					<path class="st2" d="M68.8,36.2h-6.3c-0.2,0-0.3-0.2-0.3-0.4c0-0.2,0.2-0.3,0.3-0.3h6.3c0.2,0,0.3,0.2,0.3,0.3
						C69.2,36,69,36.2,68.8,36.2z"/>
				</g>
			</g>
		</g>
		<g>
			<g>
				<g>
					<path class="st2" d="M28.9,10.5c-0.2,0-0.3-0.1-0.3-0.3L27,4.1c0-0.2,0.1-0.4,0.2-0.4c0.2,0,0.4,0.1,0.4,0.2l1.6,6.1
						C29.3,10.2,29.2,10.4,28.9,10.5C29,10.5,29,10.5,28.9,10.5z"/>
				</g>
			</g>
			<g>
				<g>
					<path class="st2" d="M61.6,29.3c-0.2,0-0.3-0.1-0.3-0.3c0-0.2,0.1-0.4,0.2-0.4l6.1-1.6c0.2-0.1,0.4,0.1,0.4,0.2
						c0,0.2-0.1,0.4-0.2,0.4L61.6,29.3C61.6,29.3,61.6,29.3,61.6,29.3z"/>
				</g>
				<g>
					<path class="st2" d="M4,44.7c-0.2,0-0.3-0.1-0.3-0.3c0-0.2,0.1-0.4,0.2-0.4l6.1-1.6c0.2,0,0.4,0.1,0.4,0.2
						c0,0.2-0.1,0.4-0.2,0.4L4,44.7C4,44.7,4,44.7,4,44.7z"/>
				</g>
			</g>
		</g>
		<g>
			<g>
				<g>
					<path class="st2" d="M22.5,13.1c-0.1,0-0.2-0.1-0.3-0.2L19,7.5c-0.1-0.2,0-0.4,0.1-0.5c0.2-0.1,0.4,0,0.5,0.1l3.2,5.5
						c0.1,0.2,0,0.4-0.1,0.5C22.6,13.1,22.6,13.1,22.5,13.1z"/>
				</g>
			</g>
			<g>
				<g>
					<path class="st2" d="M58.9,22.9c-0.1,0-0.2-0.1-0.3-0.2c-0.1-0.2,0-0.4,0.1-0.5l5.5-3.2c0.2-0.1,0.4,0,0.5,0.1
						c0.1,0.2,0,0.4-0.1,0.5l-5.5,3.2C59,22.9,59,22.9,58.9,22.9z"/>
				</g>
			</g>
		</g>
		<g>
			<g>
				<g>
					<path class="st2" d="M17,17.4c-0.1,0-0.2,0-0.2-0.1l-4.5-4.5c-0.1-0.1-0.1-0.4,0-0.5s0.4-0.1,0.5,0l4.5,4.5
						c0.1,0.1,0.1,0.4,0,0.5C17.2,17.3,17.1,17.4,17,17.4z"/>
				</g>
			</g>
			<g>
				<g>
					<path class="st2" d="M54.7,17.4c-0.1,0-0.2,0-0.2-0.1c-0.1-0.1-0.1-0.4,0-0.5l4.5-4.5c0.1-0.1,0.4-0.1,0.5,0s0.1,0.4,0,0.5
						l-4.5,4.5C54.9,17.3,54.8,17.4,54.7,17.4z"/>
				</g>
			</g>
		</g>
		<g>
			<g>
				<g>
					<rect x="9.7" y="17.8" transform="matrix(0.5 -0.866 0.866 0.5 -13.1326 19.1486)" class="st2" width="0.7" height="6.3"/>
				</g>
			</g>
			<g>
				<g>
					<path class="st2" d="M49.2,13.1c-0.1,0-0.1,0-0.2,0c-0.2-0.1-0.2-0.3-0.1-0.5L52,7.1C52.1,7,52.3,6.9,52.5,7
						c0.2,0.1,0.2,0.3,0.1,0.5l-3.2,5.5C49.4,13.1,49.3,13.1,49.2,13.1z"/>
				</g>
			</g>
		</g>
		<g>
			<g>
				<g>
					<path class="st2" d="M10.1,29.3C10.1,29.3,10,29.3,10.1,29.3l-6.2-1.6c-0.2,0-0.3-0.2-0.2-0.4c0-0.2,0.2-0.3,0.4-0.2l6.1,1.6
						c0.2,0,0.3,0.2,0.2,0.4C10.4,29.2,10.2,29.3,10.1,29.3z"/>
				</g>
				<g>
					<path class="st2" d="M67.7,44.7C67.7,44.7,67.6,44.7,67.7,44.7l-6.2-1.6c-0.2-0.1-0.3-0.2-0.2-0.4c0.1-0.2,0.2-0.3,0.4-0.2
						l6.1,1.6c0.2,0.1,0.3,0.2,0.2,0.4C68,44.6,67.8,44.7,67.7,44.7z"/>
				</g>
			</g>
			<g>
				<g>
					<path class="st2" d="M42.7,10.5C42.7,10.5,42.7,10.5,42.7,10.5c-0.3-0.1-0.4-0.3-0.3-0.4L44,3.9c0.1-0.2,0.2-0.3,0.4-0.2
						c0.2,0,0.3,0.2,0.2,0.4l-1.6,6.1C43,10.4,42.9,10.5,42.7,10.5z"/>
				</g>
			</g>
		</g>
		<g>
			<g>
				<g>
					<path class="st2" d="M32.4,9.8c-0.2,0-0.3-0.1-0.3-0.3l-0.8-6.3c0-0.2,0.1-0.4,0.3-0.4c0.2,0,0.4,0.1,0.4,0.3l0.8,6.3
						C32.7,9.6,32.6,9.7,32.4,9.8C32.4,9.8,32.4,9.8,32.4,9.8z"/>
				</g>
			</g>
			<g>
				<g>
					<path class="st2" d="M3.1,40.5c-0.2,0-0.3-0.1-0.3-0.3c0-0.2,0.1-0.4,0.3-0.4L9.4,39c0.2,0,0.4,0.1,0.4,0.3
						c0,0.2-0.1,0.4-0.3,0.4L3.1,40.5C3.2,40.5,3.2,40.5,3.1,40.5z"/>
				</g>
				<g>
					<path class="st2" d="M62.3,32.7c-0.2,0-0.3-0.1-0.3-0.3c0-0.2,0.1-0.4,0.3-0.4l6.3-0.8c0.2,0,0.4,0.1,0.4,0.3
						c0,0.2-0.1,0.4-0.3,0.4L62.3,32.7C62.3,32.7,62.3,32.7,62.3,32.7z"/>
				</g>
			</g>
		</g>
		<g>
			<g>
				<g>
					<path class="st2" d="M25.6,11.6c-0.1,0-0.3-0.1-0.3-0.2l-2.4-5.8c-0.1-0.2,0-0.4,0.2-0.5c0.2-0.1,0.4,0,0.5,0.2l2.4,5.8
						c0.1,0.2,0,0.4-0.2,0.5C25.7,11.6,25.7,11.6,25.6,11.6z"/>
				</g>
			</g>
			<g>
				<g>
					<path class="st2" d="M60.5,26c-0.1,0-0.3-0.1-0.3-0.2c-0.1-0.2,0-0.4,0.2-0.5l5.8-2.4c0.2-0.1,0.4,0,0.5,0.2
						c0.1,0.2,0,0.4-0.2,0.5L60.6,26C60.6,26,60.5,26,60.5,26z"/>
				</g>
				<g>
					<path class="st2" d="M5.4,48.8c-0.1,0-0.3-0.1-0.3-0.2c-0.1-0.2,0-0.4,0.2-0.5l5.8-2.4c0.2-0.1,0.4,0,0.5,0.2
						c0.1,0.2,0,0.4-0.2,0.5l-5.8,2.4C5.5,48.8,5.4,48.8,5.4,48.8z"/>
				</g>
			</g>
		</g>
		<g>
			<g>
				<g>
					<path class="st2" d="M19.6,15.1c-0.1,0-0.2,0-0.3-0.1l-3.8-5c-0.1-0.2-0.1-0.4,0.1-0.5c0.2-0.1,0.4-0.1,0.5,0.1l3.8,5
						c0.1,0.2,0.1,0.4-0.1,0.5C19.8,15,19.7,15.1,19.6,15.1z"/>
				</g>
			</g>
			<g>
				<g>
					<path class="st2" d="M57,20c-0.1,0-0.2,0-0.3-0.1c-0.1-0.2-0.1-0.4,0.1-0.5l5-3.8c0.2-0.1,0.4-0.1,0.5,0.1
						c0.1,0.2,0.1,0.4-0.1,0.5l-5,3.8C57.1,20,57.1,20,57,20z"/>
				</g>
			</g>
		</g>
		<g>
			<g>
				<g>
					<path class="st2" d="M14.7,20c-0.1,0-0.1,0-0.2-0.1l-5-3.8c-0.2-0.1-0.2-0.3-0.1-0.5c0.1-0.2,0.3-0.2,0.5-0.1l5,3.8
						c0.2,0.1,0.2,0.3,0.1,0.5C14.9,19.9,14.8,20,14.7,20z"/>
				</g>
			</g>
			<g>
				<g>
					<path class="st2" d="M52.1,15.1c-0.1,0-0.1,0-0.2-0.1c-0.2-0.1-0.2-0.3-0.1-0.5l3.8-5c0.1-0.2,0.3-0.2,0.5-0.1
						c0.2,0.1,0.2,0.3,0.1,0.5l-3.8,5C52.3,15,52.2,15.1,52.1,15.1z"/>
				</g>
			</g>
		</g>
		<g>
			<g>
				<g>
					<path class="st2" d="M11.2,26c0,0-0.1,0-0.1,0l-5.8-2.4C5.1,23.5,5,23.3,5,23.1c0.1-0.2,0.3-0.3,0.5-0.2l5.8,2.4
						c0.2,0.1,0.3,0.3,0.2,0.5C11.5,25.9,11.3,26,11.2,26z"/>
				</g>
				<g>
					<path class="st2" d="M66.3,48.8c0,0-0.1,0-0.1,0l-5.8-2.4c-0.2-0.1-0.3-0.3-0.2-0.5c0.1-0.2,0.3-0.3,0.5-0.2l5.8,2.4
						c0.2,0.1,0.3,0.3,0.2,0.5C66.6,48.7,66.4,48.8,66.3,48.8z"/>
				</g>
			</g>
			<g>
				<g>
					<path class="st2" d="M46,11.6c0,0-0.1,0-0.1,0c-0.2-0.1-0.3-0.3-0.2-0.5l2.4-5.8c0.1-0.2,0.3-0.3,0.5-0.2
						c0.2,0.1,0.3,0.3,0.2,0.5l-2.4,5.8C46.3,11.5,46.2,11.6,46,11.6z"/>
				</g>
			</g>
		</g>
		<g>
			<g>
				<g>
					<path class="st2" d="M9.4,32.7C9.4,32.7,9.4,32.7,9.4,32.7l-6.3-0.8c-0.2,0-0.3-0.2-0.3-0.4c0-0.2,0.2-0.3,0.4-0.3L9.5,32
						c0.2,0,0.3,0.2,0.3,0.4C9.7,32.6,9.6,32.7,9.4,32.7z"/>
				</g>
				<g>
					<path class="st2" d="M68.5,40.5C68.5,40.5,68.5,40.5,68.5,40.5l-6.3-0.8c-0.2,0-0.3-0.2-0.3-0.4c0-0.2,0.2-0.3,0.4-0.3l6.3,0.8
						c0.2,0,0.3,0.2,0.3,0.4C68.9,40.4,68.7,40.5,68.5,40.5z"/>
				</g>
			</g>
			<g>
				<g>
					<path class="st2" d="M39.3,9.8C39.3,9.8,39.3,9.8,39.3,9.8c-0.2,0-0.4-0.2-0.3-0.4l0.8-6.3c0-0.2,0.2-0.3,0.4-0.3
						c0.2,0,0.3,0.2,0.3,0.4l-0.8,6.3C39.6,9.6,39.5,9.8,39.3,9.8z"/>
				</g>
			</g>
		</g>
	</g>
	<g>
		<path class="st3" d="M26,18.6v-3.1l-0.7,0.6v-0.6l0.7-0.6h0.5v3.7H26z"/>
		<path class="st3" d="M28.9,18.7c-0.6,0-1.1-0.4-1.1-1.1v-1.7c0-0.7,0.5-1.1,1.1-1.1c0.6,0,1.1,0.4,1.1,1.1v1.7
			C29.9,18.3,29.4,18.7,28.9,18.7z M29.4,16c0-0.4-0.2-0.6-0.5-0.6c-0.3,0-0.5,0.3-0.5,0.6v1.6c0,0.4,0.2,0.6,0.5,0.6
			c0.3,0,0.5-0.3,0.5-0.6V16z"/>
	</g>
	<g>
		<path class="st3" d="M42.2,18.6v-3.1l-0.7,0.6v-0.6l0.7-0.6h0.5v3.7H42.2z"/>
		<path class="st3" d="M45.9,18.4c-0.2,0.2-0.4,0.3-0.8,0.3c-0.4,0-0.6-0.1-0.8-0.3c-0.2-0.2-0.3-0.4-0.3-0.7h0.5
			c0,0.3,0.2,0.5,0.5,0.5c0.2,0,0.3-0.1,0.4-0.1c0.2-0.2,0.2-0.4,0.2-0.7c0-0.4-0.1-0.8-0.5-0.8c-0.3,0-0.5,0.2-0.5,0.3h-0.5v-2h2
			v0.5h-1.5v1c0.1-0.1,0.3-0.2,0.6-0.2c0.3,0,0.5,0.1,0.7,0.2c0.3,0.3,0.3,0.6,0.3,1C46.2,17.8,46.1,18.1,45.9,18.4z"/>
	</g>
	<g>
		<path class="st3" d="M17.5,30.5c-0.2,0.2-0.4,0.3-0.8,0.3c-0.4,0-0.6-0.1-0.8-0.3c-0.2-0.2-0.3-0.4-0.3-0.7h0.5
			c0,0.3,0.2,0.5,0.5,0.5c0.2,0,0.3-0.1,0.4-0.1c0.2-0.2,0.2-0.4,0.2-0.7c0-0.4-0.1-0.8-0.5-0.8c-0.3,0-0.5,0.2-0.5,0.3h-0.5v-2h2
			v0.5h-1.5v1c0.1-0.1,0.3-0.2,0.6-0.2c0.3,0,0.5,0.1,0.7,0.2c0.3,0.3,0.3,0.6,0.3,1C17.8,29.9,17.8,30.2,17.5,30.5z"/>
	</g>
	<g>
		<path class="st3" d="M52.3,30.7v-0.5l1.4-1.7c0.1-0.2,0.2-0.3,0.2-0.5c0-0.3-0.2-0.6-0.5-0.6c-0.3,0-0.5,0.2-0.5,0.6h-0.5
			c0-0.6,0.4-1,1.1-1c0.6,0,1.1,0.4,1.1,1c0,0.3-0.1,0.5-0.3,0.8l-1.2,1.4h1.5v0.5H52.3z"/>
		<path class="st3" d="M56.1,30.8c-0.6,0-1.1-0.4-1.1-1.1v-1.7c0-0.7,0.5-1.1,1.1-1.1c0.6,0,1.1,0.4,1.1,1.1v1.7
			C57.2,30.4,56.7,30.8,56.1,30.8z M56.7,28.1c0-0.4-0.2-0.6-0.5-0.6c-0.3,0-0.5,0.3-0.5,0.6v1.6c0,0.4,0.2,0.6,0.5,0.6
			c0.3,0,0.5-0.3,0.5-0.6V28.1z"/>
	</g>
	<g>
		<path class="st3" d="M16.7,44.9c-0.6,0-1.1-0.4-1.1-1.1v-1.7c0-0.7,0.5-1.1,1.1-1.1c0.6,0,1.1,0.4,1.1,1.1v1.7
			C17.8,44.5,17.3,44.9,16.7,44.9z M17.3,42.2c0-0.4-0.2-0.6-0.5-0.6c-0.3,0-0.5,0.3-0.5,0.6v1.6c0,0.4,0.2,0.6,0.5,0.6
			c0.3,0,0.5-0.3,0.5-0.6V42.2z"/>
	</g>
	<g>
		<path class="st3" d="M52.6,44.9v-0.5l1.4-1.7c0.1-0.2,0.2-0.3,0.2-0.5c0-0.3-0.2-0.6-0.5-0.6c-0.3,0-0.5,0.2-0.5,0.6h-0.5
			c0-0.6,0.4-1,1.1-1c0.6,0,1.1,0.4,1.1,1c0,0.3-0.1,0.5-0.4,0.8l-1.2,1.4h1.5v0.5H52.6z"/>
		<path class="st3" d="M57.3,44.6c-0.2,0.2-0.4,0.3-0.8,0.3c-0.4,0-0.6-0.1-0.8-0.3c-0.2-0.2-0.3-0.4-0.3-0.7h0.5
			c0,0.3,0.2,0.5,0.5,0.5c0.2,0,0.3-0.1,0.4-0.1c0.2-0.2,0.2-0.4,0.2-0.7c0-0.4-0.1-0.8-0.5-0.8c-0.3,0-0.5,0.2-0.5,0.3h-0.5v-2h2
			v0.5H56v1c0.1-0.1,0.3-0.2,0.6-0.2c0.3,0,0.5,0.1,0.7,0.2c0.3,0.3,0.3,0.6,0.3,1C57.6,44,57.5,44.3,57.3,44.6z"/>
	</g>
	<g>
		<polygon class="st1" points="51,20.1 50.7,19.7 38.3,31.5 39.2,32.4 		"/>
	</g>
	<g>
		<path class="st1" d="M35.9,41.3c-3,0-5.4-2.4-5.4-5.4s2.4-5.4,5.4-5.4c3,0,5.4,2.4,5.4,5.4S38.8,41.3,35.9,41.3z M35.9,31.1
			c-2.6,0-4.7,2.1-4.7,4.7c0,2.6,2.1,4.7,4.7,4.7c2.6,0,4.7-2.1,4.7-4.7C40.6,33.3,38.5,31.1,35.9,31.1z"/>
	</g>
</g>
</svg>
