<?xml version="1.0" encoding="utf-8"?>
<!-- Generator: Adobe Illustrator 21.1.0, SVG Export Plug-In . SVG Version: 6.00 Build 0)  -->
<svg version="1.1" id="Layer_1" xmlns="http://www.w3.org/2000/svg" xmlns:xlink="http://www.w3.org/1999/xlink" x="0px" y="0px"
	 width="47.8px" height="38.5px" viewBox="0 0 47.8 38.5" style="enable-background:new 0 0 47.8 38.5;" xml:space="preserve">
<style type="text/css">
	.st0{fill:#BDBBBB;}
</style>
<g>
	<polygon class="st0" points="0,8.5 23.8,1 47.8,8.5 47.8,7.4 23.8,0 0,7.4 	"/>
	<polygon class="st0" points="0,14.9 0,16 23.8,8.5 47.8,16 47.8,14.9 23.8,7.5 	"/>
	<polygon class="st0" points="23.8,30 0,37.4 0,38.5 23.8,31 47.8,38.5 47.8,37.4 	"/>
	<polygon class="st0" points="47.8,23.5 47.8,22.4 23.8,15 0,22.4 0,23.5 23.8,16 	"/>
	<polygon class="st0" points="47.8,31 47.8,29.9 23.8,22.5 0,29.9 0,31 23.8,23.5 	"/>
</g>
</svg>
