<?xml version="1.0" encoding="utf-8"?>
<!-- Generator: Adobe Illustrator 21.0.2, SVG Export Plug-In . SVG Version: 6.00 Build 0)  -->
<svg version="1.1" id="Layer_1" xmlns="http://www.w3.org/2000/svg" xmlns:xlink="http://www.w3.org/1999/xlink" x="0px" y="0px"
	 width="129.8px" height="31.2px" viewBox="0 0 129.8 31.2" style="enable-background:new 0 0 129.8 31.2;" xml:space="preserve">
<style type="text/css">
	.st0{fill:#ED1616;}
</style>
<g>
	<g>
		<path class="st0" d="M21.2,7.8c-0.2-0.6-0.5-1.2-1-1.6c-0.5-0.5-1-1-1.6-1.3c-0.3-0.2-0.6-0.3-0.9-0.5c-0.4-0.2-0.8-0.5-1.3-0.6
			c-0.3-0.2-0.8-0.3-0.7-0.8c0-0.5,0.3-0.9,0.3-1.4c-0.1-0.5-0.4-0.8-0.9-0.9c-0.3-0.1-0.6-0.1-0.9,0c-0.2,0.1-0.4,0.2-0.6,0.6
			c-0.1,0.4-0.1,0.7-0.2,1c-0.1,0.3-0.4,1.1-0.9,1.2c-0.5,0.1-0.8,0.1-1.5,0.2c-0.7,0.1-1.5,0.1-2.2,0.2C8,4.1,7.2,4.4,6.3,4.6
			C5,5,3.8,5.3,2.5,5.6C1.5,5.8-0.2,6.7,0,8c0.1,0.4,0.6,0.9,1.1,1C1.7,9.1,2,8.4,2.4,8.1c0.5-0.3,1-0.5,1.5-0.7
			c0.5-0.2,1-0.4,1.5-0.5C6.7,6.5,8,6.3,9.3,6.2c0.3,0,1.4-0.4,1.6-0.1c0.2,0.2-0.5,0.9-0.7,1.1C9.8,7.8,9.4,8.4,8.9,9
			c-0.4,0.5-0.6,1.1-1.1,1.5c-0.3,0.2-0.5,0.3-0.9,0.4c-0.1,0-0.4,0-0.4,0.1c0,0.2,0.4,0.5,0.3,0.8c0,0.3-0.2,0.4-0.3,0.6
			C6.4,12.7,6.2,13,6,13.2c-0.4,0.5-0.8,1.2-1.1,1.8c-0.3,0.5-0.7,1.1-0.9,1.6c-0.6,1.3-1.2,2.5-1.6,3.9c-0.2,0.6-0.4,1.1-0.5,1.8
			c0,0.6-0.2,1.1-0.1,1.7c0,0.5,0.1,1.3,0.2,1.3c0.2,0.1,0.6-1.1,0.9-1.6c0.3-0.5,0.9-0.9,1.2-1.4c0.4-0.7,0.9-1.3,1.3-1.9
			c0.4-0.7,0.9-1.4,1.4-2.1c0.2-0.3,0.5-0.7,0.7-1c0.1-0.2,0.2-0.4,0.4-0.6c0.1-0.1,0.2-0.3,0.4-0.6c0.6-0.9,1.2-2.3,2.1-2.9
			c0.5-0.3,1.2-0.2,1.7-0.1c0.7,0.2,2,0.1,2.5,0.1c1.3-0.1,2.5-0.4,3.6-0.7c1.3-0.4,2.2-1.4,2.7-2.4C21.2,9.2,21.4,8.5,21.2,7.8z
			 M16.8,8.4c-1.4,0.5-2.7,1.1-4.2,1.3c-0.3,0.1-0.3,0-0.7,0l-0.1,0c0.2-0.2,0.4-0.4,0.6-0.7c0.2-0.2,0.3-0.5,0.4-0.7
			c0.4-0.5,0.6-1.1,1-1.6C14.3,6.3,14.5,5.4,15,5c0.3-0.2,0.7-0.2,1-0.1C16.4,4.9,16.7,5,17,5c0.7,0.2,1.6,0.4,2.3,0.8
			c0.2,0.1,0.3,0.3,0.3,0.5C19.4,7.4,17.7,8,16.8,8.4z"/>
	</g>
	<path class="st0" d="M15.3,21c0.1-0.3,0.2-0.5,0.3-0.8c0.3-0.7,0.7-1.3,1-1.9c0.6-1,1.4-2.1,2.1-3c0.4-0.6,0.8-1.3,1.3-1.9
		c0.7-0.8,1.5-1.8,1.7-2.9c0-0.2,0.2-0.6,0.3-0.8c0.2-0.3,0.6,0,0.8,0.2c0.4,0.4,0.5,1.1,0.6,1.7c0,0.4,0.1,0.8,0,1.2
		c-0.1,0.4-0.3,0.8-0.5,1.2c-0.5,1.2-1.2,2.4-1.9,3.5c-0.4,0.6-0.8,1-1.2,1.5c-0.1,0.2-0.3,0.4-0.7,0.8c-0.3,0.2-0.5,0.5-0.8,0.7
		c-0.5,0.4-0.9,0.6-1.3,0.9c-0.2,0.2-0.4,0.3-0.6,0.5c-0.2,0.2-0.4,0.5-0.6,0.7c-0.3,0.3-0.6,0.7-0.7,0.1C15,22.1,15.2,21.4,15.3,21
		z"/>
	<path class="st0" d="M24.6,20.1c0.5,0.3,0.8,0.6,1.3,0.7c1,0.1,2.3-0.5,2.4-1.6c0.1-0.8-0.4-1.3-1-1.8c-1.6-1.5-1.6-4-0.8-5.9
		c0.2-0.3,0.2-0.6,0.5-0.9c0.2-0.3,0.4-0.6,0.6-0.9c0.5-0.6,1.1-1.2,1.7-1.7c0,0,1.1-1,2-1.2c0.6-0.2,1.3-0.2,1.9-0.1
		c0.5,0.1,1.2,0.2,1.6,0.6c0.3,0.5,0.2,1-0.1,1.4c0,0-0.2,0.5-0.7,0.9c-0.2,0.2-0.3,0.4-0.8,0.6c-0.1,0.1-0.3,0.2-0.7,0.3
		c0,0-0.5,0.1-0.7,0.2c-0.3,0.1-0.6,0.1-0.8,0.2c-0.5,0.2-1.4,0.6-1.8,1c-0.2,0.2-0.4,0.4-0.6,0.6c-0.5,0.4-0.8,1-1.1,1.6
		c-0.3,0.6-0.3,1.2,0,1.8c0.4,0.7,0.9,1.2,1.3,1.8c0.3,0.5,0.5,1.5,0.4,2c-0.1,0.6-0.5,1.4-0.9,1.9c-0.4,0.6-0.9,1-1.3,1.5
		c-0.3,0.4-0.6,1-1.1,1.2c-0.6,0.3-1.3,0.2-1.8-0.2c-0.6-0.3-0.9-0.7-1.2-1.3c-0.3-0.5-0.6-1-0.7-1.5c-0.1-0.4-0.3-0.8-0.4-1.2
		c-0.1-0.3-0.5-0.5-0.6-0.8C21.2,19,21.8,19,22.1,19C23,19,23.8,19.6,24.6,20.1z"/>
	<path class="st0" d="M26,3.7c0.3-0.4,0.6-0.8,0.9-1.3c0.3-0.4,0.4-0.8,0.6-1.2c0.1-0.3,0.2-1.2,0.7-1.2c0.1,0.6,0.5,1.1,0.6,1.7
		c0.1,0.6,0.3,1.1,0.2,1.7c-0.1,0.7,0.1,1.3-0.3,1.9c-0.3,0.4-0.7,0.8-1.2,1.1c-0.4,0.2-0.8,0.3-1.3,0.4c-0.2,0-0.4-0.1-0.5,0
		c-0.2,0-0.4,0.2-0.6,0.2c-0.4,0.1,0-1.4,0.1-1.5C25.4,4.9,25.6,4.3,26,3.7z"/>
	<path class="st0" d="M60.7,8.7c-0.3,0.1-0.3,0.3-0.5,0.6c-0.2,0.2-0.6,0.4-0.8,0.5c-0.8,0.4-1.6,0.8-2.4,1.3
		c-0.3,0.2-0.7,0.4-1,0.5c-0.4,0.2-0.7,0.5-1.1,0.7c-0.2,0.1-0.7,0.6-0.9,0.5c0-0.8,0.5-1.5,0.5-2.4c0-0.7-0.2-2.4-0.6-2.3
		c-0.2,0.1-0.2,0.5-0.2,0.6c0,0.3-0.2,0.5-0.3,0.7c-0.1,0.2-0.3,0.5-0.4,0.7c-0.6,1.1-1.4,2.1-2.1,3.1c-0.5,0.7-1.2,1.4-1.7,1.9
		c-0.3,0.5-0.7,1-1.1,1.4c-0.4,0.5-0.8,1.1-1.3,1.6c-0.2,0.2-0.4,0.5-0.6,0.7c-0.2,0.2-0.5,0.5-0.7,0.8c-0.4,0.4-0.9,0.8-1.4,1
		c-0.6,0.2-1.3,0.3-2,0.2c-0.5-0.1-0.6-0.9-0.5-1.3c0.2-0.6,0.5-1.2,0.9-1.8c0.2-0.3,0.3-0.6,0.5-0.9c0.3-0.7,0.5-1.3,1.2-1.7
		c0.6-0.3,1.3-0.4,1.9-0.6c1.1-0.2,2.2-0.5,3-1.3c0.4-0.4,1-1,1.1-1.5c0,0,0.2-0.3,0.2-0.8c0-0.3,0.1-0.3,0.1-1
		c0-0.6-0.4-1.4-0.7-1.9C49.8,8,49.5,7.9,49.3,8c0,0,0.1,0.2-0.2,0.3c-0.6,0-1.4,0.2-1.9,0.4c-0.6,0.2-0.9,0.5-1.5,1
		c-0.5,0.4-0.9,0.8-1.5,1c-0.5,0.2-1.1,0.3-1.6,0.5c-0.4,0.1-0.7,0.1-1,0.2c-0.3,0.1-0.6,0.2-1,0.2c0-0.7,0.6-1.5,1-2.1
		c0.4-0.7,0.7-1.4,1-2.1c0.3-1,0.8-2.2,0.3-3.2c-0.2-0.4-0.7-0.8-1.1-0.5c-0.4,0.3-0.3,1.1-0.4,1.6c-0.1,0.6-0.6,1.1-0.9,1.6
		c-0.3,0.5-0.6,1-1,1.6C39,9,38.6,9.5,38.3,10c-0.2,0.4-0.6,0.8-0.8,1.2c-0.4,0.6-0.6,1.2-1.2,1.7c-0.4,0.4-1.1,0.7-1.6,0.9
		c-0.8,0.2-1.5,0.5-2.2,0.7c-0.5,0.2-1.1,0.2-1.6,0.2c-0.3,0-0.4-0.1-0.6-0.3C30,14.4,30,14,29.7,14.2c-0.4,0.3-0.1,1.2,0.2,1.5
		c0.5,0.5,1.1,0.7,1.8,0.8c0.4,0.1,1.2,0.3,1.8,0.2c0.2,0,0.5-0.1,0.6,0.1c0,0.2-0.2,0.5-0.3,0.7c-0.7,1.2-1.2,2.5-1.8,3.7
		c-0.2,0.4-1.2,3.6-0.8,3.7c0.1,0,0.5-0.5,0.6-0.6c0.2-0.2,0.4-0.3,0.7-0.5c0.4-0.4,0.8-0.8,1.2-1.2c0.9-1.1,1.6-2.2,2.4-3.4
		c0.4-0.6,0.7-1.2,1-1.8c0.3-0.5,0.8-1.7,1.4-2.1c1-0.7,1.6-1.1,2.2-1.6c0.5-0.4,0.8-0.5,1.2-0.6c0,0,0.8-0.3,1-0.2
		c0,0-0.3,0.4-0.6,0.7c-0.5,0.6-1,1.3-1.3,2c-0.4,0.7-0.7,1.3-0.7,2.1c-0.1,0.8-0.1,1.6,0,2.3c0.1,0.7,0.3,1.4,0.7,2
		c0.2,0.2,0.4,0.4,0.6,0.6c0.8,0.6,1.7,0.4,2.3-0.3c0.5-0.6,0.5,0,0.8,0.5c0.3,0.5,0.7,0.7,1.2,0.3c0.4-0.3,0.7-0.6,1-0.9
		c0.9-0.8,1.9-1.8,2.7-2.7c0.4-0.4,0.8-1,1.3-1.4c0.2-0.2,0.4-0.4,0.6-0.6c0.3-0.3,0.5-0.6,0.8-0.9c0.3-0.3,0.6-0.6,1-1
		c0.3-0.3,0.6-0.7,0.9-1c0.7-0.7,1.4-1.4,2.2-2c0.6-0.5,1.4-1,1.9-1.3c0.4-0.3,1-0.6,1.4-0.9c0.3-0.2,0.7-0.3,0.9-0.1
		c0.3,0.3,0.2,0.8,0.1,1c-0.3,0.5-0.5,1-0.7,1.5c-0.3,0.5-0.7,1.1-1,1.6c-0.4,0.5-0.7,1.1-1.1,1.6c-0.3,0.4-0.8,1.1-1.1,1.5
		c-0.4,0.6-0.8,1.1-1.2,1.7c-0.2,0.3-0.3,0.6-0.5,0.8c-0.1,0.2-0.2,0.4-0.4,0.7c-0.3,0.5-0.4,1.1-0.5,1.6c0,0.2-0.1,0.6,0,0.8
		c0.3,0.6,1,0.1,1.3-0.1c0.3-0.1,0.4-0.1,0.7-0.4c0.5-0.4,1-0.7,1.5-1.1c0.9-0.7,1.6-1.5,2.2-2.6c0.4-0.7,0.9-1.4,1.2-2.1
		c0.3-0.6,0.5-1.3,0.8-1.9c0.5-1.3,0.7-2.8,1-4.2C62.7,10,62.2,8,60.7,8.7z M45.3,12.2c0.5-0.6,0.9-1.1,1.5-1.7c0,0,1-0.8,1.2-0.9
		c0.5-0.3,1.2-0.2,1.5,0.1c0.4,0.4-0.1,1.3-1,1.9C47.7,12,47,12.5,46.3,13c-0.3,0.2-0.8,0.3-1,0.1C45.1,12.8,45.1,12.5,45.3,12.2z"
		/>
	<path class="st0" d="M87.5,4.6c0-0.7-0.2-1.1-0.7-1.6c-0.5-0.6-1.1-0.8-1.7-1.2c-0.6-0.4-1.3-0.6-2-0.9c-0.4-0.1-0.8-0.1-1.2-0.2
		c-1.8-0.4-3.7-0.5-5.6-0.7c-1.8-0.2-3.7,0-5.5,0c-1.7,0-3.3,0.1-5,0.2c-1.5,0.2-2.8,0.8-4.2,1.2C61,1.7,60.4,1.9,59.8,2
		c-0.7,0.1-1.4,0.3-1.9,0.8c-0.2,0.2-0.4,0.5-0.6,0.8c-0.1,0.3-0.1,0.7,0,1c0.2,0.4,0.6,0.9,1,1.1c0.3,0.1,0.6,0,0.9,0
		c0.4,0,0.7,0,1-0.1c0.3-0.1,0.9-0.1,1-0.5C61.3,4.9,61,4.5,61,4.3c-0.1-0.9,0.6-1,1.2-1.2c0.7-0.2,1.5-0.3,2.2-0.4
		c1.7-0.2,3.4-0.4,5.1-0.4c0.7,0,1.3-0.2,2-0.2c0.7,0.1,1.4,0.1,2.1,0.1c0.7,0,1.5,0.1,2.2,0.1c0.2,0,0.8,0,0.9,0.3
		c0.1,0.3-0.3,0.7-0.5,0.9C76,3.8,75.8,4,75.7,4.2c-0.2,0.2-0.4,0.5-0.6,0.8c-0.4,0.5-1,1.5-1.8,1.7c-0.2,0.1-0.6-0.1-0.8,0
		c-0.2,0.1-0.1,0.4-0.4,0.5c-0.2,0.1-0.6,0.2-0.8,0.3c-0.7,0.3-1.3,0.5-2,0.6c-0.3,0.1-0.5,0.1-0.9,0.2c0,0-0.6,0.1-0.9,0.3
		c0.3,0.3,1.1,0.3,1.5,0.3c0.6,0,1.1,0.1,1.7,0c0.2,0,1-0.2,0.8,0.2c-0.2,0.2-0.4,0.5-0.5,0.7c-0.8,1.2-1.8,2.4-2.6,3.6
		c-0.4,0.6-0.9,1.1-1.3,1.7c-0.4,0.6-0.8,1.1-1.3,1.9c-1,1.5-1.9,3.1-2.7,4.7c-0.4,0.8-0.7,1.6-0.9,2.5c-0.1,0.6-0.4,1.4-0.2,2
		c0.3,0.7,0.9-0.4,1.1-0.6c0.6-0.6,1.1-1.3,1.6-1.9c0.4-0.4,0.7-0.8,1.1-1.2c0.4-0.4,0.8-0.9,1.1-1.3c0.6-0.7,1.4-1.6,1.8-2.1
		c0.5-0.5,0.9-1.1,1.4-1.7c0.7-0.8,0.9-1.3,1.3-1.9c0.5-0.7,1-1.6,1.6-2.3c0.4-0.5,0.7-1.1,1.1-1.6c0.3-0.4,0.6-0.7,1.1-0.7
		c0.6,0,1.1,0.1,1.7,0.3c0.6,0.1,1.1,0.4,1.7,0.6c0.6,0.3,1,0.6,1.5,1c1,0.7,2.3,1.8,2.1,3.2c-0.1,0.7-0.5,1.2-1,1.6
		c-0.3,0.2-0.5,0.5-0.8,0.6c-0.3,0.2-0.6,0.4-0.9,0.5c-0.6,0.3-1.3,0.3-2,0.3c-0.6,0-1.6,0.1-2-0.5c-0.2-0.2-0.2-0.7-0.2-0.9
		c-0.1-0.4-0.2-0.6-0.3-0.9c-0.2-0.6-0.4-1-1-1.3c-0.1,0.1-0.1,0.3-0.1,0.4c-0.1,0.7-0.6,1-1.2,1.4c-0.8,0.4-0.8,1.3-0.8,2.1
		c0,0.7-0.1,1.5,0.3,2.1c0.3,0.5,0.9,1,1.3,1.4c0.2,0.2,0.4,0.4,0.7,0.5c0.3,0.1,0.6,0.1,0.9,0c0.8-0.1,1.5-0.3,2.3-0.5
		c0.3-0.1,0.6-0.2,0.9-0.3c0.3-0.1,0.8-0.3,1.1-0.5c0.7-0.3,1.2-0.7,1.9-1.1c1.3-0.8,2.1-2.1,2.4-3.5c0.1-0.6-0.1-1.3-0.3-1.9
		c-0.1-0.3-0.2-0.6-0.4-0.9c-0.2-0.4-0.3-0.7-0.6-1c-0.2-0.3-0.5-0.6-0.8-0.9c-0.2-0.2-0.5-0.5-0.7-0.7c-0.4-0.4-0.7-0.7-1.2-1
		c-0.3-0.2-0.6-0.4-0.8-0.6c-0.1-0.3,0.2-0.4,0.5-0.4c0.3-0.1,0.7-0.2,1-0.3c0.8-0.2,1.4-0.3,2.1-0.5c0.3-0.1,0.6-0.2,0.9-0.3
		c0.5-0.2,1-0.4,1-0.4c0.5-0.2,1-0.6,1.5-1C87,7,87.5,6,87.5,4.6z M85,4.9c-1.6,0.9-3.4,1.6-5.2,1.8c-0.4,0-2,0.5-2.1,0.2
		c-0.1-0.2,0.2-0.9,0.3-1.2c0.2-0.7,0.2-1.3,0.2-1.3c0.1-0.5-0.2-1.2,0-1.6c0.1-0.4,0.8-0.2,1.2-0.2c1.5,0.1,3,0.3,4.4,0.5
		c0.6,0.1,1.4,0.1,2,0.5C86.5,4,85.4,4.6,85,4.9z"/>
	<path class="st0" d="M85,17.6c0.4-0.7,0.7-1.4,1.1-2c0.5-0.7,0.9-1.3,1.4-1.9c0.5-0.6,1-1.3,1.4-2c0.3-0.6,0.8-1,1.1-1.6
		c0.3-0.6,0.6-1.1,1-1.7c0.3-0.5,0.5-1.2,1.2-1.3c0.7-0.1,1.1,0.3,1.2,0.9c0.1,0.6-0.3,1.1-0.6,1.6c-0.4,0.5-0.5,1.1-0.8,1.6
		c-0.7,1.1-1.3,2.3-1.9,3.5c-0.3,0.6-1.1,1.6-1.1,2.3c0.4-0.1,0.5-0.4,0.7-0.6c0.3-0.3,0.6-0.6,0.9-0.8c0.6-0.6,1.2-1.2,1.7-1.8
		c0.9-1.1,2.1-1.9,3.2-2.7c0.5-0.4,0.9-0.8,1.6-0.8c0.5-0.1,1.2,0.1,1.6,0.5c0.9,0.9,0.4,2.3,0.1,3.4c-0.3,1.4-0.8,2.7-1.4,4
		c-0.6,1.2-1.3,2.2-2.1,3.3c-0.4,0.5-1,1-1.5,1.5c-0.5,0.4-1,0.7-1.6,0.4c-0.4-0.2-0.7-0.7-0.8-1.2c-0.1-0.3,0-0.5,0.1-0.8
		c0.1-0.3,0.1-0.6,0.2-0.9c0.2-0.6,0.7-1.1,1.2-1.5c0.3-0.2,0.7-0.9,1.2-1.7c0.3-0.5,0.7-1,1-1.5c0.4-0.5,0.8-1.1,1.1-1.7
		c0.2-0.4,0.9-1.3,0.7-1.8c-0.2-0.6-0.9,0-1.2,0.3c-0.5,0.4-0.8,0.7-1.2,1.2c-0.3,0.5-0.9,0.9-1.2,1.4c-0.2,0.3-0.3,0.4-0.4,0.7
		c-0.2,0.2-0.3,0.4-0.5,0.7c-0.4,0.5-0.8,1.1-1.2,1.6c-0.8,1.1-1.6,2.2-2.4,3.3c-0.4,0.5-0.8,1-1.3,1.3c-0.4,0.2-0.9,0.8-1.4,0.9
		c-1,0.1-1.6-1.3-1.7-2.1C84.1,20.2,84.3,18.9,85,17.6z"/>
	<path class="st0" d="M97.8,20.2c0.3-0.5,0.5-1,0.8-1.4c0.2-0.3,0.3-0.7,0.5-1c0.4-0.7,0.8-1.4,1.2-2c0.6-0.8,1.2-1.6,1.8-2.4
		c0.5-0.6,0.9-1.2,1.4-1.8c0.5-0.7,1-1.2,1.5-1.9c0.4-0.5,0.9-1.3,1.3-1.9c0.3-0.5,0.8-1,1.1-1.6c0.4-0.6,0.6-1.3,0.8-1.9
		c0.1-0.3,0.2-0.5,0.1-0.9c0-0.2-0.2-0.8-0.1-1c0.3-0.6,0.9,1,0.9,1.2c0.4,1.5,0,2.9-0.4,4.4c-0.3,1.4-1,2.8-1.5,4.1
		c-0.7,1.6-1.3,2.4-2,3.6c-0.8,1.3-1.4,1.8-1.4,1.8c-0.4,0.5-1,0.9-1.6,1.3c-0.9,0.8-1.8,1.8-2.7,2.6c-0.2,0.2-0.4,0.4-0.6,0.6
		c-0.2,0.2-0.4,0.3-0.7,0.4c-0.3,0.1-0.5,0.2-0.7,0C97,21.8,97.5,20.7,97.8,20.2z"/>
	<path class="st0" d="M103.3,21.7c0.2-0.4,0.3-0.9,0.6-1.3c0.2-0.2,0.2-0.5,0.4-0.7c0.2-0.3,0.7-1,0.7-1c0.2-0.3,0.3-0.4,0.5-0.7
		c1-1.4,1.9-3,3.1-4.3c0.2-0.2,0.4-0.4,0.5-0.7c0.2-0.2,0.5-0.5,0.7-0.8c0.4-0.4,0.8-1,1-1.4c0.6-0.8,1.1-1.6,1.7-2.4
		c0.1-0.2,0.6-0.8,0.8-1.3c0.1-0.3,0.3-0.5,0.3-0.7c0,0,0.1-0.2,0.2-0.3c0.1-0.2,0.1-0.3,0.2-0.5c0.2-0.5,0.4-0.8,0.5-1.3
		c0.2-0.4,0.4-0.9,0.5-1.3c0.1-0.5,0.1-0.9,0.1-1.4c1.6-0.3,0.4,5.4,0.2,6.1c-0.8,2.6-1.7,5.3-3.2,7.6c-0.6,0.9-1.2,1.8-1.9,2.5
		c-0.2,0.2-0.4,0.3-0.5,0.5c-0.2,0.2-0.4,0.4-0.6,0.7c-0.4,0.4-1,0.9-1.5,1.2c-0.4,0.3-0.9,0.5-1.2,0.9c-0.4,0.4-0.9,0.5-1.3,0.9
		c-0.4,0.3-0.8,0.6-1.2,0.9c-0.4,0.2-0.8,0.6-1.2,0.5C102.2,23.6,103.2,21.8,103.3,21.7z"/>
	<path class="st0" d="M108.2,30c0.3-0.8,0.7-1.5,1.2-2.2c0.3-0.5,0.8-1,1.2-1.5c0.5-0.6,0.8-1,1.4-1.5c0.7-0.6,1.2-1.2,1.9-1.8
		c0.3-0.2,0.6-0.5,0.9-0.7c0.3-0.3,0.2-0.5,0.2-0.9c0.1-0.7,0.1-1.4,0.2-2c0.3-1.3,0.8-2.5,1.2-3.8c0.2-0.5,0.3-1.1,0.5-1.6
		c0.2-0.5,0.3-1.1,0.5-1.6c0.2-0.5,0.3-0.9,0.4-1.4c0.1-0.6,0.2-1.6-0.5-2c-0.2-0.1-0.4,0-0.6-0.3c0.1-0.6,1.2-0.2,1.5,0
		c0.4,0.3,0.7,0.8,0.8,1.3c0.1,0.6,0.2,1.3,0.2,1.9c0,0.5,0,1.2-0.1,2.3c-0.1,0.6-0.2,1.3-0.4,1.9c-0.2,0.7-0.2,1.4-0.4,2.1
		c0,0.2-0.2,0.7,0,0.8c0.1,0.2,0.4,0,0.6-0.1c0.5-0.3,0.9-0.8,1.3-1.1c0.4-0.3,0.5-0.5,0.9-0.8c0.4-0.3,0.7-0.6,1.1-0.9
		c0.3-0.3,0.6-0.5,0.9-0.8c0.2-0.2,0.4-0.4,0.6-0.6c1-0.9,1.9-1.8,2.9-2.7c0.4-0.4,0.8-0.7,1.1-1.1c0.4-0.4,0.3-0.9,0.5-1.4
		c0.2-0.5,1-0.3,1.3,0.2c0.3,0.5,0.3,1.3,0.1,1.8c-0.4,1.2-1.1,2.2-1.8,3.2c-0.8,1.2-1.5,2.5-2.5,3.5c-1.1,1.2-2,2.5-3.1,3.6
		c-0.5,0.5-1,1.1-1.5,1.6c-0.5,0.5-1.2,0.8-1.8,1.2c-1.5,0.9-2.9,1.6-4.4,2.4c-0.7,0.4-1.5,0.8-2.2,1.2c-0.6,0.3-1.1,0.7-1.6,1.1
		c-0.5,0.5-1,1-1.6,1.5c-0.2,0.2-0.6,0.6-0.9,0.6C107.7,31.2,108,30.3,108.2,30z"/>
</g>
</svg>
