<?xml version="1.0" encoding="utf-8"?>
<!-- Generator: Adobe Illustrator 21.1.0, SVG Export Plug-In . SVG Version: 6.00 Build 0)  -->
<svg version="1.1" id="Layer_1" xmlns="http://www.w3.org/2000/svg" xmlns:xlink="http://www.w3.org/1999/xlink" x="0px" y="0px"
	 width="2304px" height="322px" viewBox="0 0 2304 322" style="enable-background:new 0 0 2304 322;" xml:space="preserve">
<style type="text/css">
	.st0{clip-path:url(#SVGID_2_);}
	.st1{fill:none;stroke:#BDBBBB;stroke-linecap:round;stroke-linejoin:round;stroke-miterlimit:10;}
	.st2{fill:#FFFFFF;stroke:#BDBBBB;stroke-linecap:round;stroke-linejoin:round;stroke-miterlimit:10;}
	.st3{fill:#BDBBBB;}
	.st4{font-family:'DINPro-CondensedLight';}
	.st5{font-size:11.2px;}
	.st6{font-family:'Helvetica-Light';}
	.st7{font-size:8px;}
	.st8{fill:none;stroke:#8A8A8D;stroke-width:0.5;stroke-linecap:round;stroke-miterlimit:10;stroke-dasharray:5.3717,6.2669;}
	.st9{fill:#BDBBBB;stroke:#BDBBBB;stroke-linecap:round;stroke-linejoin:round;stroke-miterlimit:10;}
	.st10{font-family:'Helvetica_Condenced-Normal';}
	.st11{fill-rule:evenodd;clip-rule:evenodd;fill:#BDBBBB;}
</style>
<g>
	<defs>
		<rect id="SVGID_1_" width="2304" height="322"/>
	</defs>
	<clipPath id="SVGID_2_">
		<use xlink:href="#SVGID_1_"  style="overflow:visible;"/>
	</clipPath>
	<g class="st0">
		<polyline class="st1" points="1271.3,316 1225.9,297.7 1220.9,299.7 1207.4,294.2 1153.4,316 		"/>
		<polyline class="st1" points="1302.8,161 1318,161 1313.3,156 1318,150.5 1302.8,150.5 1302.8,189.5 		"/>
		<polyline class="st1" points="604.8,258.3 474.2,204.5 317.6,267.3 		"/>
		<polyline class="st1" points="1741.8,304.1 1999.4,200.2 2184,275.8 2321.4,220.2 		"/>
		<g>
			<polyline class="st1" points="1012,186.4 1009.8,186.4 1009.8,239.3 1012,240.6 			"/>
			<polyline class="st1" points="1064.8,186.4 1067.1,186.4 1067.1,239.3 1064.8,240.6 			"/>
			<polyline class="st1" points="1038.5,196.9 1012,186.4 1012,240.6 1038.4,251.4 1064.8,240.6 1064.8,186.4 1012.1,207.6 			"/>
			<polyline class="st1" points="1074,229.5 1067.2,231.9 1085.2,231.9 1079,226 1085.2,218.5 1067.2,218.5 			"/>
			<polyline class="st1" points="1002.8,229.5 1009.6,231.9 991.6,231.9 997.8,226 991.6,218.5 1009.6,218.5 			"/>
			<rect x="1002.6" y="215.1" class="st2" width="71.6" height="14.3"/>
			<polyline class="st1" points="1022.8,190.6 1036.3,185.2 1040.5,185.2 1054,190.7 			"/>
			<g>
				<text transform="matrix(1 0 0 1 1017.0605 226.5788)" class="st3 st4 st5">SKI-CROSS</text>
			</g>
		</g>
		<g>
			<polyline class="st1" points="1532.9,303.9 1726.8,225 1827,266.1 			"/>
			<g>
				<g>
					<line class="st1" x1="1492.8" y1="303.8" x2="1492.8" y2="272.4"/>
					<line class="st1" x1="1523.1" y1="260" x2="1523.1" y2="303.8"/>
					<line class="st1" x1="1492.8" y1="288.3" x2="1523.1" y2="288.3"/>
					<line class="st1" x1="1489.9" y1="273.5" x2="1525.9" y2="258.8"/>
					<g>
						<line class="st1" x1="1492.8" y1="273.5" x2="1523.1" y2="273.5"/>
						<line class="st1" x1="1492.8" y1="284.5" x2="1523.1" y2="284.5"/>
						<line class="st1" x1="1496.6" y1="273.5" x2="1496.6" y2="284.5"/>
						<line class="st1" x1="1501" y1="273.5" x2="1501" y2="284.5"/>
						<line class="st1" x1="1505.4" y1="273.5" x2="1505.4" y2="284.5"/>
						<line class="st1" x1="1509.8" y1="273.5" x2="1509.8" y2="284.5"/>
						<line class="st1" x1="1514.2" y1="273.5" x2="1514.2" y2="284.5"/>
						<line class="st1" x1="1518.6" y1="273.5" x2="1518.6" y2="284.5"/>
					</g>
					<polyline class="st1" points="1504.7,303.8 1504.7,293.1 1511.2,293.1 1511.2,303.8 					"/>
				</g>
			</g>
			<g>
				<g>
					<line class="st1" x1="1741.8" y1="230.7" x2="1741.8" y2="195.4"/>
					<line class="st1" x1="1711.4" y1="182.5" x2="1711.4" y2="231.1"/>
					<line class="st1" x1="1741.8" y1="211.3" x2="1711.4" y2="211.3"/>
					<line class="st1" x1="1744.6" y1="196.5" x2="1708.2" y2="181.5"/>
					<g>
						<line class="st1" x1="1741.8" y1="196.5" x2="1711.4" y2="196.5"/>
						<line class="st1" x1="1741.8" y1="207.5" x2="1711.4" y2="207.5"/>
						<line class="st1" x1="1737.9" y1="196.5" x2="1737.9" y2="207.5"/>
						<line class="st1" x1="1733.5" y1="196.5" x2="1733.5" y2="207.5"/>
						<line class="st1" x1="1729.1" y1="196.5" x2="1729.1" y2="207.5"/>
						<line class="st1" x1="1724.7" y1="196.5" x2="1724.7" y2="207.5"/>
						<line class="st1" x1="1720.3" y1="196.5" x2="1720.3" y2="207.5"/>
						<line class="st1" x1="1715.9" y1="196.5" x2="1715.9" y2="207.5"/>
					</g>
					<polyline class="st1" points="1729.9,226.2 1729.9,216.1 1723.4,216.1 1723.4,226.2 					"/>
				</g>
			</g>
			<line class="st1" x1="1711.4" y1="197.8" x2="1523.1" y2="274.6"/>
			<line class="st1" x1="1711.4" y1="205.1" x2="1523.1" y2="282"/>
			<g>
				<g>
					<path class="st1" d="M1554.5,286.6c0,2.7-1.3,5-3,5h-5.3c-1.7,0-3-2.2-3-5l0,0c0-2.7,1.3-5,3-5h5.3
						C1553.2,281.6,1554.5,283.9,1554.5,286.6L1554.5,286.6z"/>
					<line class="st1" x1="1543.3" y1="287.8" x2="1554.5" y2="287.8"/>
					<line class="st1" x1="1545.9" y1="281.7" x2="1545.9" y2="291.6"/>
					<line class="st1" x1="1551.7" y1="281.7" x2="1551.7" y2="291.6"/>
				</g>
				<rect x="1547.3" y="280.9" class="st1" width="3.1" height="0.8"/>
				<polyline class="st1" points="1548.9,280.9 1547.2,278.3 1549.8,271.1 				"/>
				
					<rect x="1547.7" y="270.4" transform="matrix(0.9244 -0.3814 0.3814 0.9244 13.7657 611.6115)" class="st1" width="4.7" height="1.3"/>
			</g>
			<g>
				<g>
					<path class="st1" d="M1589.1,265c0,2.7-1.3,5-3,5h-5.3c-1.7,0-3-2.2-3-5l0,0c0-2.7,1.3-5,3-5h5.3
						C1587.8,260,1589.1,262.3,1589.1,265L1589.1,265z"/>
					<line class="st1" x1="1577.9" y1="266.2" x2="1589.1" y2="266.2"/>
					<line class="st1" x1="1580.5" y1="260.1" x2="1580.5" y2="270"/>
					<line class="st1" x1="1586.3" y1="260.1" x2="1586.3" y2="270"/>
				</g>
				<rect x="1581.9" y="259.3" class="st1" width="3.1" height="0.8"/>
				<polyline class="st1" points="1583.5,259.3 1581.8,256.7 1584.4,249.5 				"/>
				
					<rect x="1582.3" y="248.8" transform="matrix(0.9244 -0.3813 0.3813 0.9244 24.6139 623.1573)" class="st1" width="4.7" height="1.3"/>
			</g>
			<g>
				<g>
					<path class="st1" d="M1623.9,258.2c0,2.7-1.3,5-3,5h-5.3c-1.7,0-3-2.2-3-5l0,0c0-2.7,1.3-5,3-5h5.3
						C1622.6,253.2,1623.9,255.4,1623.9,258.2L1623.9,258.2z"/>
					<line class="st1" x1="1612.7" y1="259.3" x2="1623.9" y2="259.3"/>
					<line class="st1" x1="1615.3" y1="253.3" x2="1615.3" y2="263.2"/>
					<line class="st1" x1="1621.1" y1="253.3" x2="1621.1" y2="263.2"/>
				</g>
				<rect x="1616.8" y="252.5" class="st1" width="3.1" height="0.8"/>
				<polyline class="st1" points="1618.3,252.5 1616.7,249.8 1619.3,242.7 				"/>
				
					<rect x="1617.1" y="242" transform="matrix(0.9244 -0.3814 0.3814 0.9244 29.8473 635.9479)" class="st1" width="4.7" height="1.3"/>
			</g>
			<g>
				<g>
					<path class="st1" d="M1658.5,236.6c0,2.7-1.3,5-3,5h-5.3c-1.7,0-3-2.2-3-5l0,0c0-2.7,1.3-5,3-5h5.3
						C1657.2,231.7,1658.5,233.9,1658.5,236.6L1658.5,236.6z"/>
					<line class="st1" x1="1647.3" y1="237.8" x2="1658.5" y2="237.8"/>
					<line class="st1" x1="1649.9" y1="231.7" x2="1649.9" y2="241.6"/>
					<line class="st1" x1="1655.7" y1="231.7" x2="1655.7" y2="241.6"/>
				</g>
				<rect x="1651.4" y="230.9" class="st1" width="3.1" height="0.8"/>
				<polyline class="st1" points="1652.9,230.9 1651.3,228.3 1653.9,221.1 				"/>
				
					<rect x="1651.7" y="220.5" transform="matrix(0.9244 -0.3814 0.3814 0.9244 40.6898 647.5223)" class="st1" width="4.7" height="1.3"/>
			</g>
			<g>
				<g>
					<path class="st1" d="M1693.2,230c0,2.7-1.3,5-3,5h-5.3c-1.7,0-3-2.2-3-5l0,0c0-2.7,1.3-5,3-5h5.3
						C1691.9,225,1693.2,227.3,1693.2,230L1693.2,230z"/>
					<line class="st1" x1="1682" y1="231.2" x2="1693.2" y2="231.2"/>
					<line class="st1" x1="1684.6" y1="225.1" x2="1684.6" y2="235"/>
					<line class="st1" x1="1690.4" y1="225.1" x2="1690.4" y2="235"/>
				</g>
				<rect x="1686.1" y="224.3" class="st1" width="3.1" height="0.8"/>
				<polyline class="st1" points="1687.6,224.3 1685.9,221.7 1688.5,214.5 				"/>
				
					<rect x="1686.4" y="213.9" transform="matrix(0.9244 -0.3814 0.3814 0.9244 45.8289 660.2403)" class="st1" width="4.7" height="1.3"/>
			</g>
		</g>
		<g>
			<polygon class="st1" points="670.8,306.8 679.4,280.7 688,306.7 			"/>
			<g>
				<g>
					<g>
						<polygon class="st1" points="688,306.7 679.4,298.1 670.8,306.7 						"/>
					</g>
				</g>
			</g>
			<g>
				<g>
					<g>
						<polygon class="st1" points="685.1,298 679.4,289.4 673.7,298.1 						"/>
					</g>
				</g>
			</g>
			<g>
				<g>
					<g>
						<polygon class="st1" points="682.3,289.3 679.4,280.7 676.5,289.4 						"/>
					</g>
				</g>
			</g>
			<line class="st1" x1="679.4" y1="280.7" x2="679.4" y2="315.9"/>
		</g>
		<polyline class="st1" points="756,279.9 654.2,238.1 605.3,258.1 		"/>
		<polyline class="st1" points="756,279.9 885.6,228.6 1026.1,285.3 1038.4,290.3 		"/>
		<polyline class="st1" points="317.6,267.3 189,215.3 121.5,241.8 -1.6,192.1 		"/>
		<g>
			<g>
				<g>
					<g>
						<polygon class="st1" points="155.7,276.1 168.5,276.1 162,273.5 						"/>
						<line class="st1" x1="168.5" y1="276" x2="168.5" y2="316"/>
						<line class="st1" x1="155.7" y1="316" x2="155.7" y2="276"/>
						<g>
							<path class="st1" d="M164.3,286.5h-4.8v-5.8c0-1.3,1.1-2.4,2.4-2.4l0,0c1.3,0,2.4,1.1,2.4,2.4V286.5z"/>
						</g>
						<g>
							<path class="st1" d="M164.5,297.4h-4.8v-5.8c0-1.3,1.1-2.4,2.4-2.4l0,0c1.3,0,2.4,1.1,2.4,2.4V297.4z"/>
						</g>
						<polyline class="st1" points="159.7,316 159.7,307.5 164.5,307.5 164.5,316 						"/>
						<line class="st1" x1="162.1" y1="307.5" x2="162.1" y2="316"/>
					</g>
				</g>
				<g>
					<g>
						<polygon class="st1" points="148.3,307.4 143.5,305.4 138.6,305.4 133.9,307.4 						"/>
						<polyline class="st1" points="126.6,316 126.6,280.6 155.7,280.6 155.7,316 						"/>
						<line class="st1" x1="146.1" y1="307.4" x2="146.1" y2="316"/>
						<line class="st1" x1="136.1" y1="316" x2="136.1" y2="307.4"/>
						<rect x="132.2" y="295.4" class="st1" width="3.5" height="3.9"/>
						<polyline class="st1" points="139.4,298.5 139.4,294 142.9,294 142.9,298.5 						"/>
						<rect x="137.8" y="298.5" class="st1" width="6.6" height="2.1"/>
						<rect x="146.4" y="295.4" class="st1" width="3.5" height="3.9"/>
						<rect x="132.2" y="284.3" class="st1" width="3.5" height="3.9"/>
						<polyline class="st1" points="139.4,287.5 139.4,283 142.9,283 142.9,287.5 						"/>
						<rect x="137.8" y="287.5" class="st1" width="6.6" height="2.1"/>
						<rect x="146.4" y="284.3" class="st1" width="3.5" height="3.9"/>
						<line class="st1" x1="126.6" y1="303" x2="155.7" y2="303"/>
						<line class="st1" x1="126.6" y1="291.8" x2="155.7" y2="291.8"/>
						<line class="st1" x1="141.1" y1="315.9" x2="141.1" y2="307.5"/>
						<polyline class="st1" points="134,316 134,313.8 128.2,313.8 128.2,316 						"/>
						<polyline class="st1" points="154,316 154,313.8 148.2,313.8 148.2,316 						"/>
						<rect x="161.2" y="301.3" class="st1" width="1.6" height="2.4"/>
						<rect x="119.2" y="301.3" class="st1" width="1.6" height="2.4"/>
					</g>
				</g>
				<g>
					<g>
						<polygon class="st1" points="113.7,276.1 126.6,276.1 120.1,273.5 						"/>
						<line class="st1" x1="126.6" y1="276" x2="126.6" y2="316"/>
						<line class="st1" x1="113.8" y1="316" x2="113.8" y2="276"/>
						<g>
							<path class="st1" d="M122.4,286.5h-4.8v-5.8c0-1.3,1.1-2.4,2.4-2.4l0,0c1.3,0,2.4,1.1,2.4,2.4V286.5z"/>
						</g>
						<g>
							<path class="st1" d="M122.6,297.4h-4.8v-5.8c0-1.3,1.1-2.4,2.4-2.4l0,0c1.3,0,2.4,1.1,2.4,2.4V297.4z"/>
						</g>
						<polyline class="st1" points="117.8,316 117.8,307.5 122.5,307.5 122.5,316 						"/>
						<line class="st1" x1="120.2" y1="307.5" x2="120.2" y2="316"/>
					</g>
				</g>
			</g>
			<g>
				<polygon class="st1" points="173,306.9 181.6,280.8 190.2,306.8 				"/>
				<g>
					<g>
						<g>
							<polygon class="st1" points="190.2,306.8 181.6,298.2 173,306.9 							"/>
						</g>
					</g>
				</g>
				<g>
					<g>
						<g>
							<polygon class="st1" points="187.3,298.2 181.6,289.5 175.9,298.2 							"/>
						</g>
					</g>
				</g>
				<g>
					<g>
						<g>
							<polygon class="st1" points="184.5,289.5 181.6,280.8 178.7,289.5 							"/>
						</g>
					</g>
				</g>
				<line class="st1" x1="181.6" y1="280.8" x2="181.6" y2="316"/>
			</g>
			<g>
				<polygon class="st1" points="206.9,306.9 215.5,280.8 224.1,306.8 				"/>
				<g>
					<g>
						<g>
							<polygon class="st1" points="224.1,306.8 215.5,298.2 206.9,306.9 							"/>
						</g>
					</g>
				</g>
				<g>
					<g>
						<g>
							<polygon class="st1" points="221.2,298.2 215.5,289.5 209.7,298.2 							"/>
						</g>
					</g>
				</g>
				<g>
					<g>
						<g>
							<polygon class="st1" points="218.3,289.5 215.5,280.8 212.6,289.5 							"/>
						</g>
					</g>
				</g>
				<line class="st1" x1="215.5" y1="280.8" x2="215.5" y2="316"/>
			</g>
			<g>
				<polygon class="st1" points="64.3,306.9 72.9,280.8 81.5,306.8 				"/>
				<g>
					<g>
						<g>
							<polygon class="st1" points="81.5,306.8 72.9,298.2 64.3,306.9 							"/>
						</g>
					</g>
				</g>
				<g>
					<g>
						<g>
							<polygon class="st1" points="78.7,298.2 72.9,289.5 67.2,298.2 							"/>
						</g>
					</g>
				</g>
				<g>
					<g>
						<g>
							<polygon class="st1" points="75.8,289.5 72.9,280.8 70.1,289.5 							"/>
						</g>
					</g>
				</g>
				<line class="st1" x1="72.9" y1="280.8" x2="72.9" y2="316"/>
			</g>
			<g>
				<polygon class="st1" points="11.2,306.9 19.8,280.8 28.4,306.8 				"/>
				<g>
					<g>
						<g>
							<polygon class="st1" points="28.4,306.8 19.8,298.2 11.2,306.9 							"/>
						</g>
					</g>
				</g>
				<g>
					<g>
						<g>
							<polygon class="st1" points="25.5,298.2 19.8,289.5 14.1,298.2 							"/>
						</g>
					</g>
				</g>
				<g>
					<g>
						<g>
							<polygon class="st1" points="22.7,289.5 19.8,280.8 16.9,289.5 							"/>
						</g>
					</g>
				</g>
				<line class="st1" x1="19.8" y1="280.8" x2="19.8" y2="316"/>
			</g>
			<g>
				<g>
					<g>
						<g>
							<polygon class="st1" points="200.3,310.7 197.5,302.1 194.6,310.8 							"/>
						</g>
					</g>
				</g>
				<line class="st1" x1="197.5" y1="302.1" x2="197.5" y2="315.9"/>
			</g>
			<g>
				<g>
					<g>
						<g>
							<polygon class="st1" points="51.2,310.7 48.3,302.1 45.5,310.8 							"/>
						</g>
					</g>
				</g>
				<line class="st1" x1="48.3" y1="302.1" x2="48.3" y2="315.9"/>
			</g>
		</g>
		<g>
			<g>
				<line class="st1" x1="1958.4" y1="119.6" x2="1958.4" y2="135.2"/>
				<line class="st1" x1="1966.3" y1="127.4" x2="1950.6" y2="127.4"/>
			</g>
			<line class="st1" x1="1964" y1="121.9" x2="1952.9" y2="132.9"/>
			<line class="st1" x1="1964" y1="132.9" x2="1952.9" y2="121.9"/>
		</g>
		<g>
			<g>
				<line class="st1" x1="320" y1="197.8" x2="320" y2="213.5"/>
				<line class="st1" x1="327.8" y1="205.6" x2="312.1" y2="205.6"/>
			</g>
			<line class="st1" x1="325.5" y1="200.1" x2="314.4" y2="211.2"/>
			<line class="st1" x1="325.5" y1="211.2" x2="314.4" y2="200.1"/>
		</g>
		<g>
			<g>
				<line class="st1" x1="703.5" y1="153.1" x2="703.5" y2="168.7"/>
				<line class="st1" x1="711.3" y1="160.9" x2="695.7" y2="160.9"/>
			</g>
			<line class="st1" x1="709" y1="155.4" x2="698" y2="166.4"/>
			<line class="st1" x1="709" y1="166.4" x2="698" y2="155.4"/>
		</g>
		<g>
			<g>
				<line class="st1" x1="1349.5" y1="164.4" x2="1349.5" y2="180"/>
				<line class="st1" x1="1357.4" y1="172.2" x2="1341.7" y2="172.2"/>
			</g>
			<line class="st1" x1="1355.1" y1="166.7" x2="1344" y2="177.7"/>
			<line class="st1" x1="1355.1" y1="177.7" x2="1344" y2="166.7"/>
		</g>
		<g>
			<g>
				<line class="st1" x1="1704.6" y1="46.6" x2="1704.6" y2="62.3"/>
				<line class="st1" x1="1712.5" y1="54.4" x2="1696.8" y2="54.4"/>
			</g>
			<line class="st1" x1="1710.2" y1="48.9" x2="1699.1" y2="60"/>
			<line class="st1" x1="1710.2" y1="60" x2="1699.1" y2="48.9"/>
		</g>
		<g>
			<g>
				<line class="st1" x1="2224.1" y1="70" x2="2224.1" y2="85.7"/>
				<line class="st1" x1="2232" y1="77.8" x2="2216.3" y2="77.8"/>
			</g>
			<line class="st1" x1="2229.7" y1="72.3" x2="2218.6" y2="83.4"/>
			<line class="st1" x1="2229.7" y1="83.4" x2="2218.6" y2="72.3"/>
		</g>
		<g>
			<g>
				<line class="st1" x1="428.6" y1="24.8" x2="428.6" y2="40.4"/>
				<line class="st1" x1="436.4" y1="32.6" x2="420.8" y2="32.6"/>
			</g>
			<line class="st1" x1="434.1" y1="27.1" x2="423" y2="38.1"/>
			<line class="st1" x1="434.1" y1="38.1" x2="423" y2="27.1"/>
		</g>
		<g>
			<g>
				<line class="st1" x1="192.2" y1="70" x2="192.2" y2="85.7"/>
				<line class="st1" x1="200.1" y1="77.8" x2="184.4" y2="77.8"/>
			</g>
			<line class="st1" x1="197.8" y1="72.3" x2="186.7" y2="83.4"/>
			<line class="st1" x1="197.8" y1="83.4" x2="186.7" y2="72.3"/>
		</g>
		<g>
			<g>
				<line class="st1" x1="566.2" y1="109" x2="566.2" y2="124.7"/>
				<line class="st1" x1="574.1" y1="116.8" x2="558.4" y2="116.8"/>
			</g>
			<line class="st1" x1="571.8" y1="111.3" x2="560.7" y2="122.4"/>
			<line class="st1" x1="571.8" y1="122.4" x2="560.7" y2="111.3"/>
		</g>
		<g>
			<polygon class="st1" points="702.4,250.7 711,224.6 719.6,250.7 			"/>
			<g>
				<g>
					<g>
						<polygon class="st1" points="719.6,250.7 711,242 702.4,250.7 						"/>
					</g>
				</g>
			</g>
			<g>
				<g>
					<g>
						<polygon class="st1" points="716.7,242 711,233.3 705.3,242 						"/>
					</g>
				</g>
			</g>
			<g>
				<g>
					<g>
						<polygon class="st1" points="713.9,233.3 711,224.6 708.1,233.3 						"/>
					</g>
				</g>
			</g>
			<line class="st1" x1="711" y1="225.4" x2="711" y2="260.6"/>
		</g>
		<g>
			<polygon class="st1" points="725.6,260.4 734.2,234.3 742.8,260.3 			"/>
			<g>
				<g>
					<g>
						<polygon class="st1" points="742.8,260.3 734.2,251.7 725.6,260.4 						"/>
					</g>
				</g>
			</g>
			<g>
				<g>
					<g>
						<polygon class="st1" points="739.9,251.6 734.2,243 728.5,251.7 						"/>
					</g>
				</g>
			</g>
			<g>
				<g>
					<g>
						<polygon class="st1" points="737.1,243 734.2,234.3 731.3,243 						"/>
					</g>
				</g>
			</g>
			<line class="st1" x1="734.2" y1="235.1" x2="734.2" y2="270.3"/>
		</g>
		<g>
			<polygon class="st1" points="591.5,245.7 600.1,219.6 608.7,245.6 			"/>
			<g>
				<g>
					<g>
						<polygon class="st1" points="608.7,245.6 600.1,237 591.5,245.6 						"/>
					</g>
				</g>
			</g>
			<g>
				<g>
					<g>
						<polygon class="st1" points="605.8,236.9 600.1,228.3 594.4,237 						"/>
					</g>
				</g>
			</g>
			<g>
				<g>
					<g>
						<polygon class="st1" points="603,228.2 600.1,219.6 597.2,228.3 						"/>
					</g>
				</g>
			</g>
			<line class="st1" x1="600.1" y1="219.6" x2="600.1" y2="255.9"/>
		</g>
		<g>
			<polygon class="st1" points="1385.4,205.7 1400.3,199.4 1415.4,199.4 1430.8,205.7 			"/>
			<line class="st1" x1="1392.3" y1="218.4" x2="1392.3" y2="224.8"/>
			<line class="st1" x1="1423.9" y1="237.7" x2="1423.9" y2="218.4"/>
			<line class="st1" x1="1392.3" y1="215" x2="1392.3" y2="205.7"/>
			<line class="st1" x1="1423.9" y1="205.7" x2="1423.9" y2="215"/>
			<polygon class="st1" points="1392.1,215.1 1384.3,218.4 1431.8,218.4 1423.8,215.1 			"/>
			<polyline class="st1" points="1394.6,215 1394.6,208.4 1400.9,208.4 1400.9,215 			"/>
			<polyline class="st1" points="1405,215 1405,208.4 1411.2,208.4 1411.2,215 			"/>
			<polyline class="st1" points="1403.5,229.2 1403.5,221.2 1412.9,221.2 1412.9,233.1 			"/>
			<polyline class="st1" points="1415.3,215 1415.3,208.4 1421.5,208.4 1421.5,215 			"/>
		</g>
		<g>
			<g>
				<polyline class="st1" points="1435.9,242.4 1435.9,216.4 1466.2,216.4 1466.2,254.7 				"/>
				<polyline class="st1" points="1466.2,216.4 1450.9,210.1 1435.9,216.4 				"/>
				<polyline class="st1" points="1448.4,247.5 1448.4,236.9 1453.9,236.9 1453.9,249.8 				"/>
				<rect x="1442" y="220.5" class="st1" width="3.6" height="9.6"/>
				<rect x="1449.3" y="220.5" class="st1" width="3.6" height="9.6"/>
				<rect x="1456.7" y="220.5" class="st1" width="3.6" height="9.6"/>
				<line class="st1" x1="1435.9" y1="232.4" x2="1466.2" y2="232.4"/>
				<polyline class="st1" points="1439.9,214.7 1439.9,208.7 1443.1,208.7 1443.1,213.2 				"/>
			</g>
		</g>
		<polyline class="st1" points="1501.6,268.7 1302.3,189.4 1224,221.2 		"/>
		<g>
			<line class="st1" x1="1142.7" y1="263.2" x2="1007.2" y2="315.9"/>
		</g>
		<g>
			<line class="st1" x1="1132.7" y1="263.8" x2="999.2" y2="315.9"/>
		</g>
		<g>
			<line class="st1" x1="1132.7" y1="260.5" x2="991.5" y2="315.8"/>
		</g>
		<g>
			<line class="st1" x1="1142.7" y1="253.1" x2="987.3" y2="314.1"/>
		</g>
		<g>
			<line class="st1" x1="1142.7" y1="249.8" x2="983.2" y2="312.5"/>
		</g>
		<text transform="matrix(1.0005 0 0 1 1129.7251 210.7145)" class="st3 st6 st7">600 W</text>
		<g>
			<g>
				<g>
					<g>
						<polygon class="st1" points="1380.3,213.2 1377.3,204.2 1374.3,213.2 						"/>
					</g>
				</g>
			</g>
			<line class="st1" x1="1377.3" y1="204.2" x2="1377.3" y2="218.6"/>
		</g>
		<g>
			<g>
				<path class="st3" d="M2047.6,17.9c-0.4-0.2-0.8-0.3-1.2-0.3c-0.4,0-0.6,0.2-0.6,0.4c0,0.3,0.2,0.4,1,0.7c0.5,0.2,1,0.5,1,1.4
					c0,1.1-0.8,1.5-1.8,1.5c-0.4,0-1.1,0-1.6-0.2l0-1.1c0.4,0.2,0.8,0.3,1.2,0.3c0.7,0,0.7-0.2,0.7-0.5c0-0.2-0.4-0.3-1-0.6
					c-0.5-0.2-1-0.6-1-1.5c0-0.5,0.4-1.5,1.8-1.5c0.6,0,1.1,0.1,1.4,0.2L2047.6,17.9z"/>
				<path class="st3" d="M2051.6,18.5c0-0.6-0.3-0.8-0.6-0.8c-0.5,0-0.6,0.4-0.6,1v2.7h-1.5v-3.9c0-0.5,0-0.8,0-1h1.4
					c0,0.2,0,0.5,0,0.8h0c0.2-0.5,0.6-0.9,1.4-0.9c1.1,0,1.4,0.8,1.4,1.8v3.2h-1.5V18.5z"/>
				<path class="st3" d="M2060.2,18.1c-0.2,0.9-0.7,1.7-1.4,2.3c-0.7,0.6-1.6,1-2.5,1c-0.8,0-1.5-0.3-2-0.8c-1-1.2-0.5-3.1,1-4.4
					c0.7-0.6,1.6-1,2.5-1c0.8,0,1.5,0.3,2,0.8C2060.2,16.5,2060.4,17.3,2060.2,18.1 M2061.1,15.4c-0.7-0.9-1.8-1.4-3.1-1.4
					c-1.2,0-2.4,0.5-3.5,1.3c-2.1,1.8-2.6,4.7-1.2,6.5c0.7,0.9,1.8,1.4,3.1,1.4c1.2,0,2.4-0.5,3.5-1.3c1-0.8,1.7-2,1.9-3.1
					C2062.1,17.5,2061.9,16.3,2061.1,15.4"/>
				<path class="st3" d="M2057.4,19c-0.4,0.3-1,0.3-1.3,0c-0.3-0.3-0.2-0.9,0.2-1.3c0.4-0.3,1-0.3,1.3,0
					C2058,18.1,2057.8,18.6,2057.4,19"/>
				<polygon class="st3" points="2062.2,16.7 2062.9,20.1 2062.9,20.1 2063.6,16.7 2065.3,16.7 2066,20.1 2066,20.1 2066.7,16.7 
					2068.1,16.7 2066.8,21.6 2065.2,21.6 2064.4,18 2064.4,18 2063.7,21.6 2062,21.6 2060.7,16.7 				"/>
				<path class="st3" d="M2071.6,17.9c-0.4-0.2-0.8-0.3-1.2-0.3c-0.4,0-0.6,0.2-0.6,0.4c0,0.3,0.2,0.4,1,0.7c0.5,0.2,1,0.5,1,1.4
					c0,1.1-0.8,1.5-1.8,1.5c-0.4,0-1.1,0-1.6-0.2l0-1.1c0.4,0.2,0.8,0.3,1.2,0.3c0.7,0,0.7-0.2,0.7-0.5c0-0.2-0.4-0.3-1-0.6
					c-0.5-0.2-1-0.6-1-1.5c0-0.5,0.4-1.5,1.8-1.5c0.6,0,1.1,0.1,1.4,0.2L2071.6,17.9z"/>
				<path class="st3" d="M2075.2,19.2c-0.6,0-1.5,0-1.5,0.9c0,0.6,0.5,0.6,0.6,0.6c0.1,0,0.9,0,0.9-1.2V19.2z M2072.9,16.9
					c0.4-0.1,1-0.3,1.6-0.3c1.7,0,2.1,0.7,2.1,1.8v1.8c0,0.7,0,1.1,0,1.4h-1.4l0-0.7h0c-0.1,0.3-0.6,0.8-1.3,0.8
					c-0.9,0-1.5-0.6-1.5-1.5c0-1.6,1.9-1.6,2.4-1.6h0.5c0-0.9-0.7-0.9-0.9-0.9c-0.4,0-0.8,0.1-1.4,0.4L2072.9,16.9z"/>
				<path class="st3" d="M2077.1,16.7h0.8v-1l1.4-0.5v1.5h1v1h-1v2.2c0,0.5,0.2,0.6,0.5,0.6c0.2,0,0.3,0,0.5-0.1v1
					c-0.1,0.1-0.6,0.1-1,0.1c-0.8,0-1.4-0.4-1.4-1.4v-2.5h-0.8V16.7z"/>
			</g>
		</g>
		<polyline class="st8" points="2144.9,167.7 2007.6,44.1 1773.3,122.2 		"/>
		<g>
			<polyline class="st1" points="2010.6,29.1 2019.1,17.6 2029.5,25.3 2021,36.8 			"/>
			<g>
				<g>
					<polyline class="st1" points="2007.4,28.6 1985.5,12.4 1991.9,3.8 2016.1,21.7 					"/>
					<polyline class="st1" points="2009.6,28.9 1987.2,12.3 1992.2,5.5 2015.4,22.6 					"/>
				</g>
				<line class="st1" x1="1996" y1="8.2" x2="1990.9" y2="15"/>
				<line class="st1" x1="1999.9" y1="11.1" x2="1994.9" y2="17.9"/>
				<line class="st1" x1="2003.9" y1="14" x2="1998.8" y2="20.9"/>
				<line class="st1" x1="2007.8" y1="16.9" x2="2002.8" y2="23.8"/>
				<line class="st1" x1="2011.8" y1="19.9" x2="2006.7" y2="26.7"/>
			</g>
			<g>
				<g>
					<polyline class="st1" points="2022.5,39.7 2044.4,55.9 2050.7,47.3 2026.5,29.4 					"/>
					<polyline class="st1" points="2021.6,37.6 2044,54.2 2049.1,47.4 2025.9,30.3 					"/>
				</g>
				<line class="st1" x1="2045.3" y1="44.6" x2="2040.3" y2="51.5"/>
				<line class="st1" x1="2041.4" y1="41.7" x2="2036.3" y2="48.6"/>
				<line class="st1" x1="2037.4" y1="38.8" x2="2032.4" y2="45.6"/>
				<line class="st1" x1="2033.5" y1="35.9" x2="2028.4" y2="42.7"/>
				<line class="st1" x1="2029.5" y1="33" x2="2024.5" y2="39.8"/>
			</g>
			
				<ellipse transform="matrix(0.5938 -0.8046 0.8046 0.5938 789.0734 1634.8032)" class="st1" cx="2013.6" cy="35.9" rx="4.6" ry="10.6"/>
			<line class="st1" x1="2012.5" y1="37.4" x2="2007.9" y2="43.6"/>
			<path class="st9" d="M2008.1,44.5c-0.2,0.3-0.6,0.4-0.9,0.1l0,0c-0.3-0.2-0.4-0.6-0.1-0.9l0,0c0.2-0.3,0.6-0.3,0.9-0.1l0,0
				C2008.3,43.8,2008.3,44.2,2008.1,44.5L2008.1,44.5z"/>
			<path class="st1" d="M2008.6,44.9c-0.4,0.6-1.3,0.7-1.8,0.3l0,0c-0.6-0.4-0.7-1.3-0.3-1.8l0,0c0.4-0.6,1.3-0.7,1.8-0.3l0,0
				C2009,43.5,2009.1,44.3,2008.6,44.9L2008.6,44.9z"/>
			<path class="st1" d="M2009.6,45.6c-0.8,1.1-2.4,1.3-3.5,0.5l0,0c-1.1-0.8-1.3-2.4-0.5-3.5l0,0c0.8-1.1,2.4-1.3,3.5-0.5l0,0
				C2010.2,42.9,2010.4,44.5,2009.6,45.6L2009.6,45.6z"/>
			<path class="st1" d="M2011,46.6c-1.4,1.9-4.1,2.3-6,0.9l0,0c-1.9-1.4-2.3-4.1-0.9-6l0,0c1.4-1.9,4.1-2.3,6-0.9l0,0
				C2012,42.1,2012.4,44.8,2011,46.6L2011,46.6z"/>
		</g>
		<g>
			<g>
				<text transform="matrix(0.8596 -0.5109 -4.849992e-03 1 1517.459 228.0611)"><tspan x="0" y="0" class="st3 st10 st5">BOARD -</tspan><tspan x="0" y="15.2" class="st3 st10 st5">   CROSS</tspan></text>
			</g>
			<line class="st1" x1="1514.3" y1="233.7" x2="1554" y2="210.4"/>
			<line class="st1" x1="1501" y1="226" x2="1554.4" y2="195.2"/>
			<g>
				<polyline class="st1" points="1528.6,194.9 1530.5,194.9 1542.6,202.1 				"/>
				<polyline class="st1" points="1528.6,194.9 1526.7,194.9 1501,210.4 				"/>
			</g>
			<polygon class="st1" points="1501,195.2 1527.7,179.8 1554.4,195.2 1554.4,226 1527.7,241.5 1501,226 			"/>
			<g>
				<line class="st1" x1="1501" y1="195.2" x2="1501" y2="181.5"/>
				<polygon class="st1" points="1491.7,187.6 1501,187.6 1501,181.5 1491.7,181.5 1494.6,184.1 				"/>
			</g>
			<line class="st1" x1="1501" y1="195.2" x2="1529.2" y2="209.7"/>
		</g>
		<g>
			<line class="st1" x1="1372" y1="304" x2="2646.8" y2="304"/>
			<line class="st1" x1="1372" y1="307" x2="2646.8" y2="307"/>
			<line class="st1" x1="1378.5" y1="310" x2="2646.8" y2="310"/>
			<line class="st1" x1="1385.7" y1="313" x2="2646.8" y2="313"/>
			<line class="st1" x1="1385.7" y1="316" x2="2647.2" y2="316"/>
		</g>
		<polyline class="st1" points="-1.6,315.9 892.2,315.9 1285.3,315.9 		"/>
		<g>
			<g>
				<g>
					<g>
						<line class="st1" x1="882.6" y1="270.9" x2="882.6" y2="277.8"/>
						<line class="st1" x1="886.1" y1="274.4" x2="879.2" y2="274.4"/>
					</g>
					<line class="st1" x1="885.1" y1="271.9" x2="880.2" y2="276.8"/>
					<line class="st1" x1="885.1" y1="276.8" x2="880.2" y2="271.9"/>
				</g>
				<g>
					<g>
						<line class="st1" x1="894.4" y1="265.3" x2="894.4" y2="272.3"/>
						<line class="st1" x1="897.9" y1="268.8" x2="891" y2="268.8"/>
					</g>
					<line class="st1" x1="896.9" y1="266.3" x2="892" y2="271.3"/>
					<line class="st1" x1="896.9" y1="271.3" x2="892" y2="266.3"/>
				</g>
				<g>
					<g>
						<line class="st1" x1="907.6" y1="271.6" x2="907.6" y2="278.5"/>
						<line class="st1" x1="911.1" y1="275.1" x2="904.2" y2="275.1"/>
					</g>
					<line class="st1" x1="910.1" y1="272.6" x2="905.2" y2="277.5"/>
					<line class="st1" x1="910.1" y1="277.5" x2="905.2" y2="272.6"/>
				</g>
				<g>
					<g>
						<line class="st1" x1="919.4" y1="283.4" x2="919.4" y2="290.3"/>
						<line class="st1" x1="922.9" y1="286.9" x2="916" y2="286.9"/>
					</g>
					<line class="st1" x1="921.9" y1="284.4" x2="917" y2="289.3"/>
					<line class="st1" x1="921.9" y1="289.3" x2="917" y2="284.4"/>
				</g>
			</g>
			<g>
				<polygon class="st1" points="865.2,302.6 871.1,308.8 871.1,306.2 865.2,300 				"/>
				<polygon class="st1" points="849.3,303.1 856.3,303.7 857.4,302.4 849.3,301.9 				"/>
				<g>
					<path class="st1" d="M822.2,282.7l0-1.3c0-0.4-0.4-0.8-0.9-0.8l0,0c-0.5,0-0.8,0.4-0.8,0.8l0,1.4"/>
				</g>
				
					<ellipse transform="matrix(1 -6.338678e-03 6.338678e-03 1 -1.8632 5.351)" class="st1" cx="843.2" cy="296.6" rx="0.6" ry="1.3"/>
				<g>
					
						<ellipse transform="matrix(0.2588 -0.9659 0.9659 0.2588 306.638 1018.9271)" class="st1" cx="817.3" cy="309.7" rx="4.2" ry="4.2"/>
					
						<ellipse transform="matrix(0.2588 -0.9659 0.9659 0.2588 306.638 1018.9271)" class="st1" cx="817.3" cy="309.7" rx="2.9" ry="2.9"/>
					<g>
						<g>
							<line class="st1" x1="819.1" y1="303.6" x2="818.4" y2="304.7"/>
							<line class="st1" x1="816.2" y1="314.6" x2="815.4" y2="315.8"/>
						</g>
						<g>
							<line class="st1" x1="811.2" y1="307.8" x2="812.3" y2="308.6"/>
							<line class="st1" x1="822.3" y1="310.8" x2="823.4" y2="311.5"/>
						</g>
					</g>
					<g>
						<g>
							<line class="st1" x1="817.5" y1="303.3" x2="817" y2="304.6"/>
							<line class="st1" x1="817.5" y1="314.8" x2="817" y2="316"/>
						</g>
						<g>
							<line class="st1" x1="810.9" y1="309.4" x2="812.2" y2="309.9"/>
							<line class="st1" x1="822.4" y1="309.4" x2="823.6" y2="309.9"/>
						</g>
					</g>
					<g>
						<g>
							<line class="st1" x1="815.8" y1="303.4" x2="815.7" y2="304.8"/>
							<line class="st1" x1="818.8" y1="314.5" x2="818.7" y2="315.9"/>
						</g>
						<g>
							<line class="st1" x1="811" y1="311.1" x2="812.4" y2="311.2"/>
							<line class="st1" x1="822.1" y1="308.1" x2="823.5" y2="308.2"/>
						</g>
					</g>
					<g>
						<g>
							<line class="st1" x1="814.3" y1="304" x2="814.5" y2="305.4"/>
							<line class="st1" x1="820" y1="314" x2="820.3" y2="315.3"/>
						</g>
						<g>
							<line class="st1" x1="811.6" y1="312.6" x2="813" y2="312.4"/>
							<line class="st1" x1="821.6" y1="306.9" x2="822.9" y2="306.7"/>
						</g>
					</g>
					<g>
						<g>
							<line class="st1" x1="812.9" y1="305" x2="813.5" y2="306.2"/>
							<line class="st1" x1="821" y1="313.1" x2="821.6" y2="314.3"/>
						</g>
						<g>
							<line class="st1" x1="812.6" y1="314" x2="813.8" y2="313.4"/>
							<line class="st1" x1="820.7" y1="305.9" x2="821.9" y2="305.3"/>
						</g>
					</g>
					<g>
						<g>
							<line class="st1" x1="811.9" y1="306.3" x2="812.7" y2="307.3"/>
							<line class="st1" x1="821.8" y1="312" x2="822.7" y2="313"/>
						</g>
						<g>
							<line class="st1" x1="813.9" y1="315.1" x2="814.9" y2="314.2"/>
							<line class="st1" x1="819.6" y1="305.1" x2="820.7" y2="304.2"/>
						</g>
					</g>
				</g>
				<g>
					
						<ellipse transform="matrix(0.2588 -0.9659 0.9659 0.2588 326.8977 1045.33)" class="st1" cx="844.6" cy="309.7" rx="4.2" ry="4.2"/>
					
						<ellipse transform="matrix(0.2588 -0.9659 0.9659 0.2588 326.8977 1045.33)" class="st1" cx="844.6" cy="309.7" rx="2.9" ry="2.9"/>
					<g>
						<g>
							<line class="st1" x1="846.5" y1="303.6" x2="845.7" y2="304.7"/>
							<line class="st1" x1="843.5" y1="314.6" x2="842.7" y2="315.8"/>
						</g>
						<g>
							<line class="st1" x1="838.5" y1="307.8" x2="839.6" y2="308.6"/>
							<line class="st1" x1="849.6" y1="310.8" x2="850.7" y2="311.5"/>
						</g>
					</g>
					<g>
						<g>
							<line class="st1" x1="844.8" y1="303.3" x2="844.4" y2="304.6"/>
							<line class="st1" x1="844.8" y1="314.8" x2="844.4" y2="316"/>
						</g>
						<g>
							<line class="st1" x1="838.2" y1="309.4" x2="839.5" y2="309.9"/>
							<line class="st1" x1="849.7" y1="309.4" x2="851" y2="309.9"/>
						</g>
					</g>
					<g>
						<g>
							<line class="st1" x1="843.2" y1="303.4" x2="843.1" y2="304.8"/>
							<line class="st1" x1="846.1" y1="314.5" x2="846" y2="315.9"/>
						</g>
						<g>
							<line class="st1" x1="838.4" y1="311.1" x2="839.7" y2="311.2"/>
							<line class="st1" x1="849.5" y1="308.1" x2="850.8" y2="308.2"/>
						</g>
					</g>
					<g>
						<g>
							<line class="st1" x1="841.6" y1="304" x2="841.8" y2="305.4"/>
							<line class="st1" x1="847.4" y1="314" x2="847.6" y2="315.3"/>
						</g>
						<g>
							<line class="st1" x1="839" y1="312.6" x2="840.3" y2="312.4"/>
							<line class="st1" x1="848.9" y1="306.9" x2="850.2" y2="306.7"/>
						</g>
					</g>
					<g>
						<g>
							<line class="st1" x1="840.3" y1="305" x2="840.8" y2="306.2"/>
							<line class="st1" x1="848.4" y1="313.1" x2="848.9" y2="314.3"/>
						</g>
						<g>
							<line class="st1" x1="839.9" y1="314" x2="841.2" y2="313.4"/>
							<line class="st1" x1="848" y1="305.9" x2="849.3" y2="305.3"/>
						</g>
					</g>
					<g>
						<g>
							<line class="st1" x1="839.2" y1="306.3" x2="840.1" y2="307.3"/>
							<line class="st1" x1="849.1" y1="312" x2="850" y2="313"/>
						</g>
						<g>
							<line class="st1" x1="841.2" y1="315.1" x2="842.2" y2="314.2"/>
							<line class="st1" x1="846.9" y1="305.1" x2="848" y2="304.2"/>
						</g>
					</g>
				</g>
				<path class="st1" d="M813,302.4c-0.9,0.5-1.6,1.2-2.3,1.9l-0.4-0.8c0.8-0.9,1.7-1.8,2.8-2.4L813,302.4z"/>
				<path class="st1" d="M813.3,300.1c1.2-0.5,2.6-0.8,4-0.8c4.6,0,8.6,3,9.9,7.2h7.6c1.1-3.6,4.2-6.4,8-7.1c0.6-0.1,4.3,0.2,6,0.2
					l-0.7,1.8c-1.5,0-4.3-0.2-4.7-0.2c-3.8,0.5-6.8,3.7-7.2,7.5h-10.6c-0.4-4.3-4-7.6-8.4-7.6c-1.6,0-3,0.4-4.3,1.2L813.3,300.1z"/>
				<g>
					<path class="st1" d="M819,299.5l1.6-9.7c0.4-1.8,1.2-2.6,2.7-2.6h10.3c1.5,0,2.1,1,2.7,2.6l4.4,10.3"/>
				</g>
				<g>
					<path class="st1" d="M834.7,306.6h-7.6c-1.3-4.2-5.2-7.2-9.9-7.2c-0.1,0-0.3,0-0.4,0l1.8-10.8c0.4-2.2,1.5-3.1,3.3-3.1h12.6
						c1.8,0,2.5,1.2,3.3,3.1l4.7,11C838.8,300.3,835.8,303,834.7,306.6z"/>
				</g>
				<line class="st1" x1="824.9" y1="287.2" x2="824.9" y2="302.5"/>
				<line class="st1" x1="842.6" y1="296.6" x2="841.3" y2="296.6"/>
				<circle class="st1" cx="861.5" cy="309.8" r="5.9"/>
				<circle class="st1" cx="861.5" cy="309.8" r="4.1"/>
				<polyline class="st1" points="855.6,315.5 853.4,312.5 853.6,306.9 860.8,298.9 866.1,283.4 873.3,280.6 873.3,284.5 870,285.8 
					865.6,298.8 				"/>
				<path class="st1" d="M836.4,285.9l1.1-0.1c-0.7-1.6-1.6-2.4-3.5-2.5l-12.8-0.4c-1.9,0-3.1,1.4-3.5,3.2l1.4,0.7"/>
			</g>
		</g>
		<text transform="matrix(1.0005 0 0 1 754.4004 294.5388)" class="st3 st6 st7">METRAC H7X</text>
		<text transform="matrix(1.0865 0 0 1 416 280.1403)" class="st3 st6 st7">MULI T10X</text>
		<g>
			<g>
				<g>
					<polyline class="st1" points="362.8,301.6 347.5,295.3 332.5,301.6 					"/>
					<polyline class="st1" points="332.5,316 332.5,301.6 346.1,301.6 362.9,301.6 362.9,316 					"/>
					<polyline class="st1" points="351.7,316 351.7,304.6 343.7,304.6 343.7,316 					"/>
					<g>
						<rect x="354.2" y="305.4" class="st1" width="4.9" height="7"/>
						<rect x="336.3" y="305.4" class="st1" width="4.9" height="7"/>
					</g>
					<line class="st1" x1="338.8" y1="299" x2="356.4" y2="299"/>
					<line class="st1" x1="344.6" y1="296.6" x2="350.5" y2="296.6"/>
					<path class="st1" d="M362.8,301.6"/>
					<polyline class="st1" points="345.1,316 345.1,305.9 350.2,305.9 350.2,316 					"/>
				</g>
			</g>
			<g>
				<g>
					<polyline class="st1" points="367,316 367,276.1 373.3,273.5 379.7,276.1 379.7,316 					"/>
					<rect x="371" y="306.7" class="st1" width="4.8" height="6.8"/>
					<line class="st1" x1="373.4" y1="306.7" x2="373.4" y2="313.4"/>
					<rect x="372.3" y="276.8" class="st1" width="2.1" height="4.3"/>
					<polyline class="st1" points="368.5,316 368.5,314.7 378.2,314.7 378.2,316 					"/>
					<rect x="369.7" y="313.4" class="st1" width="7.3" height="1.3"/>
					<rect x="369.2" y="305.6" class="st1" width="8.4" height="1.1"/>
					<g>
						<line class="st1" x1="367" y1="283.4" x2="379.8" y2="283.4"/>
						<line class="st1" x1="367" y1="290.9" x2="379.8" y2="290.9"/>
						<line class="st1" x1="371.2" y1="290.9" x2="371.2" y2="283.4"/>
						<line class="st1" x1="375.6" y1="283.4" x2="375.6" y2="290.9"/>
					</g>
					<g>
						<line class="st1" x1="367" y1="294.7" x2="379.8" y2="294.7"/>
						<line class="st1" x1="367" y1="302.2" x2="379.8" y2="302.2"/>
						<line class="st1" x1="371.2" y1="302.2" x2="371.2" y2="294.7"/>
						<line class="st1" x1="375.6" y1="294.7" x2="375.6" y2="302.2"/>
					</g>
				</g>
			</g>
			<g>
				<polygon class="st1" points="250,301.7 280.5,301.7 265,295.4 				"/>
				<line class="st1" x1="280.4" y1="301.6" x2="280.4" y2="316"/>
				<line class="st1" x1="250.1" y1="316" x2="250.1" y2="301.6"/>
				<g>
					<path class="st1" d="M258.5,312.9h-4.8v-5.8c0-1.3,1.1-2.4,2.4-2.4l0,0c1.3,0,2.4,1.1,2.4,2.4V312.9z"/>
					<line class="st1" x1="256.1" y1="304.7" x2="256.1" y2="312.9"/>
				</g>
				<g>
					<path class="st1" d="M267.4,312.9h-4.8v-5.8c0-1.3,1.1-2.4,2.4-2.4l0,0c1.3,0,2.4,1.1,2.4,2.4V312.9z"/>
					<line class="st1" x1="265" y1="304.7" x2="265" y2="312.9"/>
				</g>
				<g>
					<path class="st1" d="M276.3,312.9h-4.8v-5.8c0-1.3,1.1-2.4,2.4-2.4l0,0c1.3,0,2.4,1.1,2.4,2.4V312.9z"/>
					<line class="st1" x1="274" y1="304.7" x2="274" y2="312.9"/>
				</g>
				<polygon class="st1" points="290.8,302.1 304.8,302.1 297.7,299.2 				"/>
				<line class="st1" x1="290.8" y1="302.1" x2="290.8" y2="316"/>
				<line class="st1" x1="304.7" y1="313.9" x2="304.7" y2="302.1"/>
				<line class="st1" x1="290.8" y1="312.2" x2="304.7" y2="312.2"/>
				<rect x="292.8" y="305" class="st1" width="3.7" height="5.5"/>
				<rect x="298.6" y="305" class="st1" width="3.7" height="5.5"/>
				<line class="st1" x1="280.4" y1="308.2" x2="290.8" y2="308.2"/>
				<line class="st1" x1="282.9" y1="308.2" x2="282.9" y2="316"/>
				<line class="st1" x1="285.6" y1="308.2" x2="285.6" y2="316"/>
				<line class="st1" x1="288.3" y1="308.2" x2="288.3" y2="316"/>
				<polyline class="st1" points="256.8,298.9 256.8,295 254,295 254,300.1 				"/>
				<line class="st1" x1="304.8" y1="305.6" x2="310.6" y2="307.9"/>
				<polyline class="st1" points="309.2,315.9 309.2,313.9 290.8,313.9 				"/>
				<path class="st1" d="M304.9,315.9"/>
			</g>
			<g>
				<polygon class="st1" points="315.5,312.1 321.3,294.7 327,312 				"/>
				<g>
					<g>
						<g>
							<polygon class="st1" points="327,312 321.3,303.4 315.5,312.1 							"/>
						</g>
					</g>
				</g>
				<g>
					<g>
						<g>
							<polygon class="st1" points="324.1,303.4 321.3,294.7 318.4,303.4 							"/>
						</g>
					</g>
				</g>
				<line class="st1" x1="321.3" y1="294.7" x2="321.3" y2="316"/>
			</g>
		</g>
		<g>
			<path class="st1" d="M478.3,302.1v-21.3c0-0.5,0.4-0.8,0.9-0.8l20.6,0.4c0.5,0,2.4,3.5,3.1,7.6c0.6,3.9,1.1,10-0.2,13.9
				c-0.6,1.7-1.1,2.3-1.6,2.6l-5.3,2"/>
			<path class="st1" d="M480.6,294.1v-11.2c0-0.4,0.3-0.7,0.7-0.7l17.2,0.3c0.4,0,2,2.9,2.6,6.4c0.3,1.8,0.5,4.6,0.5,6.9
				L480.6,294.1z"/>
			<path class="st1" d="M500.1,280.5l2,0l-0.8-3.1c-1.2,0-5.7,1.3-5.7,1.3l-18.4-0.4c-0.6,0-1,0.4-1,0.8v1.9l2.1,0.9"/>
			<polyline class="st1" points="473.3,293.6 473.3,285.3 475.9,282.6 475.9,293.1 			"/>
			<g>
				<path class="st1" d="M478.6,277.7l0-1.8c0-0.6,0.5-1.1,1.2-1.1l0,0c0.7,0,1.2,0.5,1.2,1.1l0,2"/>
			</g>
			<rect x="505.5" y="285.9" class="st1" width="2" height="8.1"/>
			<path class="st1" d="M501.8,284.1c0,0,5.5,0,5.7,1.4v10l-3.7,1.8"/>
			<polygon class="st1" points="503.8,305.1 510.8,305.6 511.1,304 503.8,303.4 			"/>
			<g>
				
					<ellipse transform="matrix(0.9659 -0.2588 0.2588 0.9659 -63.6153 136.4073)" class="st1" cx="486.3" cy="309.8" rx="4.1" ry="4.1"/>
				
					<ellipse transform="matrix(0.9659 -0.2588 0.2588 0.9659 -63.6153 136.4073)" class="st1" cx="486.3" cy="309.8" rx="2.9" ry="2.9"/>
				<g>
					<g>
						<line class="st1" x1="484.4" y1="303.7" x2="485.2" y2="304.9"/>
						<line class="st1" x1="487.3" y1="314.8" x2="488.1" y2="315.9"/>
					</g>
					<g>
						<line class="st1" x1="492.3" y1="307.9" x2="491.2" y2="308.7"/>
						<line class="st1" x1="481.3" y1="310.9" x2="480.2" y2="311.7"/>
					</g>
				</g>
				<g>
					<g>
						<line class="st1" x1="486" y1="303.5" x2="486.5" y2="304.7"/>
						<line class="st1" x1="486" y1="314.9" x2="486.5" y2="316.1"/>
					</g>
					<g>
						<line class="st1" x1="492.6" y1="309.6" x2="491.3" y2="310"/>
						<line class="st1" x1="481.2" y1="309.6" x2="479.9" y2="310"/>
					</g>
				</g>
				<g>
					<g>
						<line class="st1" x1="487.7" y1="303.6" x2="487.8" y2="305"/>
						<line class="st1" x1="484.7" y1="314.6" x2="484.8" y2="316"/>
					</g>
					<g>
						<line class="st1" x1="492.4" y1="311.2" x2="491.1" y2="311.3"/>
						<line class="st1" x1="481.4" y1="308.3" x2="480.1" y2="308.4"/>
					</g>
				</g>
				<g>
					<g>
						<line class="st1" x1="489.2" y1="304.2" x2="489" y2="305.5"/>
						<line class="st1" x1="483.5" y1="314.1" x2="483.3" y2="315.4"/>
					</g>
					<g>
						<line class="st1" x1="491.8" y1="312.8" x2="490.5" y2="312.5"/>
						<line class="st1" x1="482" y1="307.1" x2="480.7" y2="306.8"/>
					</g>
				</g>
				<g>
					<g>
						<line class="st1" x1="490.6" y1="305.2" x2="490" y2="306.4"/>
						<line class="st1" x1="482.5" y1="313.2" x2="481.9" y2="314.4"/>
					</g>
					<g>
						<line class="st1" x1="490.9" y1="314.1" x2="489.7" y2="313.6"/>
						<line class="st1" x1="482.8" y1="306.1" x2="481.6" y2="305.5"/>
					</g>
				</g>
				<g>
					<g>
						<line class="st1" x1="491.6" y1="306.4" x2="490.8" y2="307.5"/>
						<line class="st1" x1="481.7" y1="312.1" x2="480.9" y2="313.2"/>
					</g>
					<g>
						<line class="st1" x1="489.6" y1="315.2" x2="488.6" y2="314.3"/>
						<line class="st1" x1="483.9" y1="305.3" x2="482.9" y2="304.4"/>
					</g>
				</g>
			</g>
			<g>
				
					<ellipse transform="matrix(0.9659 -0.2588 0.2588 0.9659 -65.0544 125.4762)" class="st1" cx="444" cy="309.8" rx="4.1" ry="4.1"/>
				
					<ellipse transform="matrix(0.9659 -0.2588 0.2588 0.9659 -65.0544 125.4762)" class="st1" cx="444" cy="309.8" rx="2.9" ry="2.9"/>
				<g>
					<g>
						<line class="st1" x1="442.2" y1="303.7" x2="442.9" y2="304.9"/>
						<line class="st1" x1="445.1" y1="314.8" x2="445.9" y2="315.9"/>
					</g>
					<g>
						<line class="st1" x1="450.1" y1="307.9" x2="449" y2="308.7"/>
						<line class="st1" x1="439.1" y1="310.9" x2="438" y2="311.7"/>
					</g>
				</g>
				<g>
					<g>
						<line class="st1" x1="443.8" y1="303.5" x2="444.2" y2="304.7"/>
						<line class="st1" x1="443.8" y1="314.9" x2="444.2" y2="316.1"/>
					</g>
					<g>
						<line class="st1" x1="450.3" y1="309.6" x2="449.1" y2="310"/>
						<line class="st1" x1="438.9" y1="309.6" x2="437.7" y2="310"/>
					</g>
				</g>
				<g>
					<g>
						<line class="st1" x1="445.4" y1="303.6" x2="445.5" y2="305"/>
						<line class="st1" x1="442.5" y1="314.6" x2="442.6" y2="316"/>
					</g>
					<g>
						<line class="st1" x1="450.2" y1="311.2" x2="448.8" y2="311.3"/>
						<line class="st1" x1="439.2" y1="308.3" x2="437.8" y2="308.4"/>
					</g>
				</g>
				<g>
					<g>
						<line class="st1" x1="447" y1="304.2" x2="446.7" y2="305.5"/>
						<line class="st1" x1="441.3" y1="314.1" x2="441" y2="315.4"/>
					</g>
					<g>
						<line class="st1" x1="449.6" y1="312.8" x2="448.3" y2="312.5"/>
						<line class="st1" x1="439.7" y1="307.1" x2="438.4" y2="306.8"/>
					</g>
				</g>
				<g>
					<g>
						<line class="st1" x1="448.3" y1="305.2" x2="447.8" y2="306.4"/>
						<line class="st1" x1="440.3" y1="313.2" x2="439.7" y2="314.4"/>
					</g>
					<g>
						<line class="st1" x1="448.7" y1="314.1" x2="447.4" y2="313.6"/>
						<line class="st1" x1="440.6" y1="306.1" x2="439.4" y2="305.5"/>
					</g>
				</g>
				<g>
					<g>
						<line class="st1" x1="449.4" y1="306.4" x2="448.5" y2="307.5"/>
						<line class="st1" x1="439.5" y1="312.1" x2="438.6" y2="313.2"/>
					</g>
					<g>
						<line class="st1" x1="447.4" y1="315.2" x2="446.3" y2="314.3"/>
						<line class="st1" x1="441.7" y1="305.3" x2="440.7" y2="304.4"/>
					</g>
				</g>
			</g>
			<polygon class="st1" points="477.1,303.4 481.2,299.7 493.2,301.1 497.3,306 495.7,306.6 492.4,302.7 481.9,301.5 478.3,304.7 
							"/>
			<rect x="437.6" y="293.6" class="st1" width="38.5" height="6.2"/>
			<rect x="437.6" y="299.8" class="st1" width="38.5" height="2.1"/>
			<rect x="452.3" y="301.9" class="st1" width="23.8" height="4.2"/>
			<polygon class="st1" points="512.5,315.1 510,309.1 512.3,298.6 517.1,294.2 518.4,295.1 513.9,299.3 511.7,309.2 514.1,314.8 
							"/>
			
				<ellipse transform="matrix(0.101 -0.9949 0.9949 0.101 151.1199 768.0771)" class="st1" cx="500.6" cy="300.4" rx="2.1" ry="0.6"/>
		</g>
		<polyline class="st1" points="990.4,316 976.3,310.3 976.5,310.3 953.4,301 943.9,304.8 925.8,297.5 900.5,307.7 898.1,306.7 
			875,316 		"/>
		<polyline class="st1" points="632.5,316 588.5,298.3 574.7,303.9 570.1,302 560.6,305.8 554.4,303.3 522.8,316 		"/>
		<path class="st11" d="M1930.9,206.4c0-0.1,0-0.1,0-0.2c0.1-0.2-0.9-1.7-0.9-1.8c0-0.4-0.7-2.4-0.6-2.8c0.1-0.6-0.2-0.9-0.6-1.1
			c-0.9-0.4-1.9-0.8-2.8-1.2c-0.6-0.3-1.3-0.6-1.9-0.9c-0.3-0.1-0.5-0.2-0.8-0.3c-0.3-0.1-0.5-0.2-0.8-0.3c-0.5-0.2-1-0.4-1.5-0.4
			c-0.2,0-0.3-0.1-0.3-0.2c0-0.2-0.1-0.4-0.1-0.6c0-0.1,0.2-0.2,0.3-0.3c0.3-0.1,0.5-0.2,0.8-0.3c0.1,0,0.1,0,0.2,0
			c0.8,0.3,1.6,0.5,2.4,0.8c0.5,0.1,0.9,0.3,1.4,0.3c0.3,0,0.7,0,1,0.3c0,0,0.1,0,0.2,0c0.4,0,0.8,0,1.3,0c0.1,0,0.2,0.1,0.3,0.1
			c0.4-0.4,0.9-0.2,1.3-0.3c0.1-0.4,0.1-0.8,0.1-1.2c0.1-0.7,1.1-1.4,1.8-1.2c0,0,0,0,0.1,0c0.6,0.5,1.2,0.9,1.3,1.7
			c0,0.1,0.1,0.3,0.1,0.4c0.1,0.1,0.3,0.2,0.4,0.3c0.1,0.1,0.3,0.2,0.4,0c0.1-0.2,0.3-0.2,0.5-0.1c0.2,0.1,0.4,0.2,0.6,0.3
			c0.1,0,0.1,0.1,0.2,0.2c0.1,0.1,0.1,0.1,0.2,0.2c0.4,0.2,0.9,0.5,1.3,0.7c0.4,0.2,0.7,0.5,1.1,0.7c0.5,0.3,1.1,0.6,1.6,0.8
			c0.6,0.3,1.2,0.5,1.8,0.8c0.3,0.1,0.6,0.2,1,0.3c0.1,0,0.1,0,0.2,0.1c0.2,0.1,0.4,0.2,0.7,0.1c0.2-0.1,0.5,0.1,0.5,0.4
			c0,0.4-0.1,0.7-0.4,1c-0.5,0.6-1.1,1.2-1.6,1.8c-0.4,0.5-0.8,0.9-1.2,1.4c-0.8,0.8-1.6,1.6-2.4,2.4c-1.3,1.3-2.7,2.5-4,3.8
			c-0.6,0.6-1.3,1.2-2,1.8c-0.3,0.3-0.7,0.5-1.2,0.6c-0.2,0-0.4,0-0.5-0.1c-0.1-0.1,0-0.3,0-0.5c0.2-0.5,0.6-0.7,1-0.9
			c0.9-0.5,1.7-1,2.4-1.8c-0.1,0-0.2-0.1-0.4-0.1c-0.1-0.2-0.2-0.6-0.6-0.5c0-0.2-0.1-0.3-0.3-0.3c-0.2-0.1-0.4-0.2-0.5-0.4
			c-0.4-0.4-0.5-1-0.6-1.5c-0.1-0.5-0.1-0.9-0.4-1.4C1930.9,206.7,1930.9,206.5,1930.9,206.4z M1937.8,206.6
			c-0.1-0.1-0.3-0.2-0.4-0.3c-0.3-0.4-0.7-0.8-1-1.2c-0.2-0.2-0.3-0.5-0.5-0.7c-0.2,0.2-0.3,0.4-0.5,0.5c-0.2,0.1-0.3,0.3-0.5,0.4
			c-0.3,0.2-0.6,0.4-0.8,0.6c-0.4,0.3-0.5,0.7-0.3,1.1c0,0.1,0.1,0.1,0.1,0.2c0.1,0.3,0.3,0.6,0.4,1c0.1,0.2,0.3,0.4,0.5,0.4
			c0.4-0.1,0.6,0.1,0.8,0.3c0.2,0.2,0.4,0.2,0.6,0c0.2-0.2,0.5-0.4,0.7-0.6c0.5-0.4,1-0.8,1.4-1.3
			C1938.2,206.8,1938,206.7,1937.8,206.6z M1940.9,204.6c0.5-0.4,1.2-1.9,1.3-2.2c0,0-0.2-0.2-0.4-0.4c-0.1,0.3-0.3,0.3-0.6,0.2
			c-0.2,0-0.4,0-0.6,0c-0.1,0-0.2,0-0.2-0.1c-0.2-0.2-0.4-0.2-0.6-0.2c-0.2,0-0.4-0.1-0.6-0.1c-0.5-0.1-1-0.2-1.5-0.3
			c0.3,0.4,0.6,0.8,0.9,1.3c0.2,0.3,0.2,0.8,0.7,1c0.1,0.1,0.2,0.3,0.3,0.4c0.1-0.1,0.2-0.1,0.4-0.2c0.5-0.3,0.8-0.1,0.9,0.4
			C1940.8,204.4,1940.9,204.5,1940.9,204.6z M1934.4,199.8C1934.4,199.8,1934.4,199.8,1934.4,199.8c-0.1,0.2-0.1,0.4-0.1,0.7
			c0.2-0.1,0.3-0.2,0.4-0.4C1934.6,200,1934.5,199.9,1934.4,199.8z"/>
		<path class="st3" d="M1906,254.9c0,0,0.2,0,0.5,0c0-0.2,0.1-0.3,0.1-0.3c0.1,0,0.1,0.1,0.1,0.3c2.6-0.2,11.2-0.7,11.2-0.7
			c0.1-0.5,0.4-0.4,0.4-0.4c0.1-0.2,0.3-0.1,0.3-0.1c0.1-0.1,0.3-0.1,0.3-0.1s0-0.1,0.2-0.1c0.1,0,0.1-0.1,0.3,0.1
			c0.1,0.1,0,0.2,0,0.2s0.1,0.1,0.2,0.2c0.1,0.1-0.1,0.4-0.1,0.4s0,0,0,0.2c0,0.1-0.2,0.3-0.2,0.3s0,0.1,0,0.2c0,0.1,0,0.3,0,0.4
			c-0.1,0-0.1,0,0,0.2c0.1,0.2,0.1,0.3,0,0.4c0,0.1,0.1,0.1,0.2,0.2c0,0.1,0,0.4-0.1,0.5c0,0.1,0.1,0.2,0.1,0.2c0,0.1,0,0.3,0,0.4
			c0,0.1,0.1,0.2,0.2,0.3c0.1,0.1,0.1,0.2,0.2,0.3c0.1,0,0.1,0,0.2,0.1c0,0.1,0.2,0.3,0.2,0.3s0.1,0,0.2,0.1
			c0.1,0.1,0.4,0.5,0.4,0.5c0.1,0,0.3,0.2,0.3,0.2s0.3,0,0.4,0.1c0.2,0.1,0.3,0.3,0.4,0.4c0.1,0.1,0.1,0,0.1-0.1
			c0.1-0.1,0.3,0,0.3,0l0.7-0.3c0,0,0-0.2,0.5-0.6c0.5-0.4,1.2-0.2,1.4-0.1c0.2,0.1,0.7,0.8,0.8,1c0.1,0.1,0,0.5-0.1,0.7
			c-0.1,0.2-0.2,0.1-0.2,0.1s0,0.1,0,0.1c0,0-0.1,0.3-0.3,0.4s-0.2,0.2-0.2,0.2c0,0.1-0.2,0-0.2,0l-0.1,0.1c0,0,0.3,0.4,0.3,0.6
			c0,0.1,0.1,0.3,0,0.3c-0.1,0-0.2,0-0.2,0s0.2,0.3,0.3,0.4c0,0.1,0.3,0.7,0.3,0.7c0.1,0.1,0.1,0.3,0.1,0.3s0.1,0.2,0.1,0.2
			c0,0.1,0.2,0.4,0.3,0.5c0,0.1,0.2,0.2,0.2,0.2c0,0,0,0.2,0,0.3c0.1,0,0.1,0.1,0.2,0.3c0.1,0.2,0,0.2,0,0.3c0,0,0.1,0.1,0.3,0.2
			c0.1,0.2,0,0.2,0,0.3c0,0.1,0.1,0.2,0.2,0.2c0.4,0.1,0.2,0.4,0.2,0.4s0.2,0.5,0.3,0.6c0.1,0.2,0,0.3,0,0.4c0,0.1,0.2,0.3,0.2,0.4
			c0,0.1,0.1,0.1,0.1,0.1s2.7-3.9,3.7-5.3c-0.1-0.1-0.1-0.2-0.1-0.3c0.1-0.1,0.2-0.1,0.3,0c0-0.1,0.1-0.1,0.1-0.1
			c0.1-0.1,0.2-0.2,0.1,0c0,0-0.1,0.1-0.1,0.2c0.1,0.1,0.1,0.2,0.1,0.3c-0.1,0.1-0.2,0.1-0.3,0.1c-1,1.4-3.6,5.2-3.6,5.2l-0.1,0.3
			c0.2,0.1,0.1,0.3,0,0.4c-0.1,0.1,0,0.1,0.1,0.2c0.1,0.1,0.2,0.3,0.2,0.3c2.1-0.9,7-3.2,7.1-3.2c0.1-0.1,0.5-0.3,0.4,0.2
			c-0.1,0.4-0.3,0.8-1.1,1.3c-0.9,0.5-4.6,1.8-6.1,2.4c-1.4,0.6-2.1,0.9-2.1,0.9c0.3,0.2,0.3,0.5,0.3,0.5s0.1,0,0.1,0.1
			c0,0.1,0.1,0.2,0.2,0.2c0.1,0,0,0.2,0,0.2l0.1,0.1c0.1,0,0.2,0.3,0.2,0.3c1.4,1.2,5.7,4.2,6,4.3c0.3,0.1,0.5,0.3,0.1,0.5
			c-0.4,0.3-1,0-1.3-0.2c-0.3-0.2-3.2-2.5-4.2-3.4c-1-0.9-2.7-2.1-2.7-2.1c-1.9,0.8-6.1,2.7-6.2,2.7c-0.1,0.1-0.5,0.4-1,0.3
			c-0.5-0.1-0.3-0.6,0-0.7c0.2-0.1,1-0.5,1.6-0.7c0.5-0.2,3.4-1.5,3.4-1.5l0.1-0.1c0,0,0.1,0.1,0-0.1c-0.1-0.2,0.2-0.3,0.2-0.3
			l0.1-0.1c0,0-0.1,0-0.2,0c-0.1,0-0.2,0-0.2-0.1c0-0.1-0.1-0.1-0.1-0.2c-0.1-0.1,0-0.1,0.2-0.1c0.1,0,0.6,0.2,0.6,0.2
			c0-0.1,0.2-0.1,0.2-0.1c0-0.1,0-0.2,0-0.2c-0.2-0.1-0.2-0.2-0.2-0.2l-1.7-1.3c-1,0.2-1.4-0.3-1.6-0.6c-0.2-0.3-0.3-0.7-0.3-0.7
			s-0.6-0.4-1.1-0.9c-0.5-0.4,0-0.8,0.3-0.7c0.3,0.1,0.5,0.2,0.5,0.2l0-0.1c0,0,0-0.4,0-0.6c0-0.1,0.1-0.8,0.1-1
			c0-0.2,0.2-0.9,0.2-1.1c0.1-0.2,0-0.4,0-0.6c0-0.2,0.2-0.5,0.2-0.5c0-0.1,0.1-0.3,0.1-0.4c0-0.1,0.1-0.3,0.1-0.3
			c0-0.1,0-0.3-0.1-0.4c-0.1-0.1-1-1.4-1.1-1.5c-0.1-0.1-0.2-0.3-0.2-0.5c0-0.1-0.1-0.3-0.1-0.4c-0.1-0.1-0.2-0.3-0.2-0.4
			c0-0.1-0.1-0.3-0.1-0.5c-0.1-0.2-0.2-0.6-0.1-0.8c0-0.1,0.1-0.2,0-0.2c0-0.1-0.1-0.3-0.1-0.4c0-0.1,0-0.2,0-0.3
			c0-0.1,0.2-0.6,0.2-0.8c0.1-0.2,0.1-0.2,0.1-0.2l0-0.3c-0.2,0-0.2-0.2-0.2-0.2s-8.6,0.4-11.1,0.5c0,0.1-0.1,0.2-0.1,0.3
			c-0.1,0-0.1-0.1-0.1-0.2c-0.2,0-0.4,0-0.4,0C1905.9,255.1,1905.9,255,1906,254.9z M1926.1,269c0.1,0,0.2,0.1,0.2,0.1
			s0.1-0.2,0.1-0.4c0-0.1,0.1-0.2,0.1-0.3c0-0.1,0-0.1,0-0.1l-0.1-0.2c0,0-0.2,0.8-0.3,0.9C1926,269,1926,269.1,1926.1,269z
			 M1923.8,265.5c0,0.1,0,0.1,0,0.1s0.2,0.1,0.2,0.3c0,0,0.3,0.1,0.4,0.1c0.1,0.1,0.1,0.1,0.2,0.2c0.1,0,0.6,0.1,0.6,0.1
			s-0.2-0.3-0.2-0.5c0,0-0.2-0.1-0.2-0.2c0,0,0,0-0.1-0.1c-0.1,0-0.2-0.1-0.3-0.2c-0.1-0.1-0.1-0.2-0.1-0.2c0-0.1-0.1-0.1-0.2-0.2
			c0,0-0.1-0.1-0.1-0.1s-0.3,0.1-0.4,0.1c-0.1,0-0.2,0.1-0.2,0.1s0.1,0.2,0.2,0.3C1923.7,265.3,1923.8,265.4,1923.8,265.5z
			 M1922.6,268.8c0,0,0.1-0.1,0.1,0c0.1,0,0.1-0.1,0.2,0c0,0-0.1-0.2-0.1-0.3c0,0-0.4,0.1-0.6,0.1L1922.6,268.8z"/>
		<g>
			<polygon class="st2" points="2141.2,217.3 2162.5,217.3 2162.5,231.3 2141.2,231.3 2147.7,225.2 			"/>
			<polygon class="st2" points="2240.8,217.3 2219.5,217.3 2219.5,231.3 2240.8,231.3 2234.3,225.2 			"/>
			<path class="st1" d="M2221.8,188.4v27.7c0,16.6-13.5,30.1-30.1,30.1c-16.6,0-30.1-13.5-30.1-30.1v-27.7"/>
			<path class="st1" d="M2213.5,188.4c-0.7,11.4-10.2,20.4-21.8,20.4c-11.6,0-21.1-9-21.8-20.4h-5.9v27.7
				c0,15.3,12.4,27.7,27.7,27.7c15.3,0,27.7-12.4,27.7-27.7v-27.7H2213.5z"/>
			<path class="st1" d="M2204.3,180c-2.5,4.3-7.2,7.3-12.6,7.3c-5.4,0-10.1-2.9-12.6-7.3"/>
			<line class="st1" x1="2219.5" y1="218.2" x2="2221.7" y2="218.2"/>
			<line class="st1" x1="2219.5" y1="214.9" x2="2221.7" y2="214.9"/>
			<line class="st1" x1="2219.5" y1="211.6" x2="2221.7" y2="211.6"/>
			<line class="st1" x1="2219.5" y1="208.3" x2="2221.7" y2="208.3"/>
			<line class="st1" x1="2219.5" y1="205" x2="2221.7" y2="205"/>
			<line class="st1" x1="2219.5" y1="201.6" x2="2221.7" y2="201.6"/>
			<line class="st1" x1="2219.5" y1="198.3" x2="2221.7" y2="198.3"/>
			<line class="st1" x1="2219.5" y1="195" x2="2221.7" y2="195"/>
			<line class="st1" x1="2219.5" y1="191.7" x2="2221.7" y2="191.7"/>
			<line class="st1" x1="2219.5" y1="188.4" x2="2221.7" y2="188.4"/>
			<line class="st1" x1="2161.6" y1="218.2" x2="2163.9" y2="218.2"/>
			<line class="st1" x1="2161.6" y1="214.9" x2="2163.9" y2="214.9"/>
			<line class="st1" x1="2161.6" y1="211.6" x2="2163.9" y2="211.6"/>
			<line class="st1" x1="2161.6" y1="208.3" x2="2163.9" y2="208.3"/>
			<line class="st1" x1="2161.6" y1="205" x2="2163.9" y2="205"/>
			<line class="st1" x1="2161.6" y1="201.6" x2="2163.9" y2="201.6"/>
			<line class="st1" x1="2161.6" y1="198.3" x2="2163.9" y2="198.3"/>
			<line class="st1" x1="2161.6" y1="195" x2="2163.9" y2="195"/>
			<line class="st1" x1="2161.6" y1="191.7" x2="2163.9" y2="191.7"/>
			<line class="st1" x1="2161.6" y1="188.4" x2="2163.9" y2="188.4"/>
			<rect x="2154.3" y="214.9" class="st2" width="74.8" height="15"/>
			<polyline class="st1" points="2169.9,188.4 2179.1,180 2172.8,180 2161.6,188.4 			"/>
			<polyline class="st1" points="2213.5,188.4 2204.3,180 2210.6,180 2221.8,188.4 			"/>
			<g>
				<text transform="matrix(1 0 0 1 2168.3008 226.5798)" class="st3 st4 st5">HALF - PIPE</text>
			</g>
		</g>
		<path class="st11" d="M1750.7,269.8c0.1,0.1,0.2,0.2,0.3,0.3c0.4,0.2,0.8,0.3,1.2,0.5c0.7,0.4,1.4,0.4,2.1,0.5
			c1.2,0.2,2.5,0.4,3.8,0.5c0.3,0,0.6,0.1,1,0.1c-0.3,0.9-1,1.3-1.9,1c-1.8-0.5-3.6-1-5.5-1.4c-2.3-0.5-4.7-1-7-1.5
			c-0.4-0.1-0.9-0.2-1.3-0.2c0.2-0.7,0.5-0.9,1.2-0.7c0.6,0.2,1.3,0.4,2,0.5c0,0,0-0.1,0.1-0.1c-0.2-0.1-0.4-0.2-0.6-0.3
			c-0.4-0.1-0.9-0.2-1.4-0.4c0.1-0.2,0.2-0.5,0.3-0.7c0-0.1,0.2-0.1,0.3-0.1c0.4,0.1,0.7,0.2,1.1,0.2c-0.1-0.5-0.1-1-0.2-1.6
			c-0.6-0.1-1.3-0.2-1.9-0.4c-0.4-0.1-0.8-0.3-1.1-0.5c-0.1,0-0.3,0-0.4,0c-1.9,1-3.8,2.1-5.7,3.1c-0.7,0.4-1.4,0.8-2.1,1.2
			c-0.2,0.1-0.3,0.2-0.3,0.4c0,0.1,0,0.2-0.1,0.3c0,0-0.1,0-0.2,0c0.1-0.3-0.6-0.2-0.3-0.6c0,0-0.1-0.1-0.2-0.2
			c0.2-0.2,0.3-0.2,0.7,0.1c2.7-1.5,5.4-3,8.1-4.5c-0.1-0.1-0.2-0.1-0.3-0.2c-0.2-0.1-0.3-0.2-0.3-0.5c0-0.3-0.1-0.4-0.5-0.5
			c-0.8-0.1-1.1-0.6-1-1.3c0-0.2,0-0.3,0-0.5c0-0.7-0.1-1.3,0-2c0.1-1.1,0.7-1.9,1.5-2.5c0.2-0.1,0.3-0.3,0.5-0.4
			c0.4-0.2,0.4-0.6,0.4-1c0-0.7,0.2-1.2,0.7-1.7c0.2-0.1,0.5-0.2,0.8-0.1c0.5,0.1,1,0.4,1.3,0.9c0.2,0.2,0.2,0.6,0.4,0.9
			c0.2,0,0.6,0,0.9,0.1c0.4,0,0.6,0.3,0.6,0.6c0,0.1,0.1,0.2,0.1,0.3c0.5,0.3,1,0.6,1.4,0.9c0.1,0.1,0.2,0.3,0.2,0.4
			c0.2,0.2,0.4,0.3,0.5,0.4c0.5,0.4,0.9,0.9,1.4,1.2c0.1,0.1,0.4,0.1,0.6,0.2c0.5,0.1,0.8,0.4,0.8,0.9c0,0.1,0.1,0.2,0.2,0.2
			c1,0.5,2,0.9,3.1,1.4c0.1,0,0.2,0.1,0.4,0.1c0,0,0-0.1,0-0.2c0.1,0.1,0.1,0.1,0.2,0.2c0-0.1,0.1-0.1,0.1-0.2
			c0.1,0.1,0.4,0.1,0.2,0.4c0.1,0,0.2,0,0.2,0c0.1,0.4,0,0.4-0.3,0.4c0.1,0.3-0.1,0.3-0.3,0.3c0-0.1,0-0.1,0-0.2
			c-0.4-0.2-0.4-0.2-0.2-0.4c-1.2-0.5-2.3-1-3.5-1.5c0,0-0.1,0-0.2,0c-0.5,0.4-0.9,0-1.3-0.1c-0.1,0-0.2-0.2-0.3-0.3
			c-0.5-0.2-1.1-0.4-1.7-0.7c-0.6-0.2-1.2-0.5-1.8-0.8c-0.1-0.1-0.2-0.1-0.3-0.2c-0.1,0.5-0.4,1-0.3,1.5c0,0.1,0,0.2,0,0.3
			c-0.2,0.7,0.1,1.1,0.6,1.6c0.7,0.6,1.2,1.4,1.8,2.1c0.3,0.4,0.6,0.8,0.6,1.4c0,0.1,0.1,0.3,0.2,0.4c0.2,0.3,0.4,0.5,0.1,0.9
			c0.3-0.2,0.5-0.1,0.7,0.1c0,0,0.1,0,0.1,0c0.5-0.2,0.7,0.3,1,0.5c0,0,0.1,0.1,0.1,0.1c1.2,0.4,2.4,0.8,3.6,0.8
			c1.3,0.1,2.5,0.2,3.7,0.3c0.3,0,0.4,0.1,0.3,0.4c-0.2,0.5-0.6,1-1.4,0.8c-2.2-0.5-4.5-1-6.7-1.4
			C1751.2,269.9,1751,269.9,1750.7,269.8z"/>
		<g>
			<path class="st1" d="M1974.4,303.9"/>
			<path class="st1" d="M2019.4,304"/>
			<g>
				<path class="st1" d="M1903.1,304c5.3-0.5,46.9-21.8,60.4-33.3l9.1-1l3,0.4"/>
				<path class="st1" d="M1924.1,304c0,0,43.1-20.2,59.5-43.2l9.9-1.1l3.1,0.6"/>
				<path class="st1" d="M1972.6,269.7c-17,15.7-55.5,34.3-55.5,34.3"/>
				<path class="st1" d="M1993.6,259.7c-15,25.2-55.4,44.3-55.4,44.3"/>
				<path class="st1" d="M2030.7,277.8"/>
				<path class="st1" d="M1903.1,304"/>
				<polyline class="st1" points="1992.9,288.2 2041.9,288.2 2041.9,304 				"/>
				<g>
					<polyline class="st1" points="2039,286.7 2061.2,286.7 2054.4,293.1 2061.2,301.3 2041.9,301.3 					"/>
					<line class="st1" x1="2041.9" y1="288.2" x2="2039" y2="286.7"/>
				</g>
				<g>
					<text transform="matrix(1 0 0 1 1999.7363 300.1794)" class="st3 st4 st5">AERIALS</text>
				</g>
				<path class="st1" d="M1974.4,303.9c0,0,35.6-22.6,40.5-56.1"/>
				<path class="st1" d="M2019.4,288.2v-36.9l-4.6-3.4l-13.5,2.2c-11.1,31.8-56.1,53.9-56.1,53.9"/>
				<line class="st1" x1="2039" y1="286.8" x2="2039" y2="288.1"/>
			</g>
		</g>
		<g>
			<polyline class="st1" points="1805.1,202.7 1784.2,202.7 1791.6,211.7 1784.2,218.7 1808.5,218.7 1808.5,216 			"/>
			<polyline class="st1" points="1864.4,216 1854.2,221.1 1835.7,221.1 1845.9,216 1864.4,216 1854.2,221.1 1841,238.9 
				1822.6,238.9 1835.7,221.1 			"/>
			<line class="st1" x1="1841" y1="238.9" x2="1864.4" y2="216"/>
			<polyline class="st1" points="1859.1,198.2 1805,198.2 1805,216 1845.9,216 			"/>
			<polyline class="st1" points="1887.7,193.1 1877.5,212.6 1877.5,198.2 1859.1,198.2 1869.3,193.1 1887.7,193.1 1877.5,198.2 
				1864.4,216 			"/>
			<line class="st1" x1="1864.4" y1="216" x2="1877.5" y2="212.6"/>
			<g>
				<text transform="matrix(1 0 0 1 1813.1016 211.0729)" class="st3 st4 st5">SLOPESTYLE</text>
			</g>
			<line class="st1" x1="1805" y1="216" x2="1808.5" y2="218.7"/>
		</g>
		<line class="st1" x1="2321.4" y1="220.2" x2="2470.5" y2="280.3"/>
		<text transform="matrix(1.0005 0 0 1 1330.4004 280.1403)" class="st3 st6 st7">400 PARK PRO</text>
		<g>
			<g>
				<path class="st1" d="M1290.1,309c0,3.1,2.5,5.6,5.6,5.6h45.4c3.1,0,5.6-2.5,5.6-5.6l0,0c0-3.1-2.5-5.6-5.6-5.6h-45.4
					C1292.6,303.4,1290.1,305.9,1290.1,309L1290.1,309z"/>
				<g>
					<line class="st1" x1="1315.9" y1="314.5" x2="1315.9" y2="316.1"/>
					<line class="st1" x1="1314.3" y1="314.5" x2="1314.3" y2="316.1"/>
					<line class="st1" x1="1312.7" y1="314.5" x2="1312.7" y2="316.1"/>
					<line class="st1" x1="1311" y1="314.5" x2="1311" y2="316.1"/>
					<line class="st1" x1="1309.4" y1="314.5" x2="1309.4" y2="316.1"/>
					<line class="st1" x1="1307.7" y1="314.5" x2="1307.7" y2="316.1"/>
					<line class="st1" x1="1306.1" y1="314.5" x2="1306.1" y2="316.1"/>
					<line class="st1" x1="1304.5" y1="314.5" x2="1304.5" y2="316.1"/>
					<line class="st1" x1="1302.8" y1="314.5" x2="1302.8" y2="316.1"/>
					<line class="st1" x1="1301.2" y1="314.5" x2="1301.2" y2="316.1"/>
					<line class="st1" x1="1299.5" y1="314.5" x2="1299.5" y2="316.1"/>
					<line class="st1" x1="1297.9" y1="314.5" x2="1297.9" y2="316.1"/>
					<line class="st1" x1="1296.2" y1="314.5" x2="1296.2" y2="316.1"/>
					<g>
						<line class="st1" x1="1288.5" y1="309" x2="1290.1" y2="309"/>
						<line class="st1" x1="1294.5" y1="301.9" x2="1294.7" y2="303.5"/>
						<line class="st1" x1="1289.7" y1="304.9" x2="1291" y2="305.8"/>
						<line class="st1" x1="1288.8" y1="306.9" x2="1290.3" y2="307.4"/>
						<line class="st1" x1="1292.7" y1="302.4" x2="1293.3" y2="303.9"/>
						<line class="st1" x1="1291" y1="303.5" x2="1292" y2="304.7"/>
					</g>
					<g>
						<line class="st1" x1="1294.5" y1="316" x2="1294.7" y2="314.4"/>
						<line class="st1" x1="1289.7" y1="313" x2="1291" y2="312.1"/>
						<line class="st1" x1="1288.8" y1="311" x2="1290.3" y2="310.5"/>
						<line class="st1" x1="1292.7" y1="315.5" x2="1293.3" y2="314"/>
						<line class="st1" x1="1291" y1="314.4" x2="1292" y2="313.2"/>
					</g>
					<line class="st1" x1="1320.9" y1="314.5" x2="1320.9" y2="316.1"/>
					<line class="st1" x1="1319.2" y1="314.5" x2="1319.2" y2="316.1"/>
					<line class="st1" x1="1317.6" y1="314.5" x2="1317.6" y2="316.1"/>
					<line class="st1" x1="1322.5" y1="314.5" x2="1322.5" y2="316.1"/>
					<line class="st1" x1="1324.1" y1="314.5" x2="1324.1" y2="316.1"/>
					<line class="st1" x1="1325.8" y1="314.5" x2="1325.8" y2="316.1"/>
					<line class="st1" x1="1327.4" y1="314.5" x2="1327.4" y2="316.1"/>
					<line class="st1" x1="1329.1" y1="314.5" x2="1329.1" y2="316.1"/>
					<line class="st1" x1="1330.7" y1="314.5" x2="1330.7" y2="316.1"/>
					<line class="st1" x1="1332.3" y1="314.5" x2="1332.3" y2="316.1"/>
					<line class="st1" x1="1334" y1="314.5" x2="1334" y2="316.1"/>
					<line class="st1" x1="1335.6" y1="314.5" x2="1335.6" y2="316.1"/>
					<line class="st1" x1="1337.3" y1="314.5" x2="1337.3" y2="316.1"/>
					<line class="st1" x1="1338.9" y1="314.5" x2="1338.9" y2="316.1"/>
					<line class="st1" x1="1340.6" y1="314.5" x2="1340.6" y2="316.1"/>
					<line class="st1" x1="1315.9" y1="301.6" x2="1315.9" y2="303.3"/>
					<line class="st1" x1="1314.3" y1="301.6" x2="1314.3" y2="303.3"/>
					<line class="st1" x1="1312.7" y1="301.6" x2="1312.7" y2="303.3"/>
					<line class="st1" x1="1311" y1="301.6" x2="1311" y2="303.3"/>
					<line class="st1" x1="1309.4" y1="301.6" x2="1309.4" y2="303.3"/>
					<line class="st1" x1="1307.7" y1="301.6" x2="1307.7" y2="303.3"/>
					<line class="st1" x1="1306.1" y1="301.6" x2="1306.1" y2="303.3"/>
					<line class="st1" x1="1304.5" y1="301.6" x2="1304.5" y2="303.3"/>
					<line class="st1" x1="1302.8" y1="301.6" x2="1302.8" y2="303.3"/>
					<line class="st1" x1="1301.2" y1="301.6" x2="1301.2" y2="303.3"/>
					<line class="st1" x1="1299.5" y1="301.6" x2="1299.5" y2="303.3"/>
					<line class="st1" x1="1297.9" y1="301.6" x2="1297.9" y2="303.3"/>
					<line class="st1" x1="1296.2" y1="301.6" x2="1296.2" y2="303.3"/>
					<line class="st1" x1="1320.9" y1="301.6" x2="1320.9" y2="303.3"/>
					<line class="st1" x1="1319.2" y1="301.6" x2="1319.2" y2="303.3"/>
					<line class="st1" x1="1317.6" y1="301.6" x2="1317.6" y2="303.3"/>
					<line class="st1" x1="1322.5" y1="301.6" x2="1322.5" y2="303.3"/>
					<line class="st1" x1="1324.1" y1="301.6" x2="1324.1" y2="303.3"/>
					<line class="st1" x1="1325.8" y1="301.6" x2="1325.8" y2="303.3"/>
					<line class="st1" x1="1327.4" y1="301.6" x2="1327.4" y2="303.3"/>
					<line class="st1" x1="1329.1" y1="301.6" x2="1329.1" y2="303.3"/>
					<line class="st1" x1="1330.7" y1="301.6" x2="1330.7" y2="303.3"/>
					<line class="st1" x1="1332.3" y1="301.6" x2="1332.3" y2="303.3"/>
					<line class="st1" x1="1334" y1="301.6" x2="1334" y2="303.3"/>
					<line class="st1" x1="1335.6" y1="301.6" x2="1335.6" y2="303.3"/>
					<line class="st1" x1="1337.3" y1="301.6" x2="1337.3" y2="303.3"/>
					<line class="st1" x1="1338.9" y1="301.6" x2="1338.9" y2="303.3"/>
					<line class="st1" x1="1340.6" y1="301.6" x2="1340.6" y2="303.3"/>
					<g>
						<line class="st1" x1="1348.5" y1="309" x2="1346.9" y2="309"/>
						<line class="st1" x1="1342.6" y1="301.9" x2="1342.3" y2="303.5"/>
						<line class="st1" x1="1347.4" y1="304.9" x2="1346.1" y2="305.8"/>
						<line class="st1" x1="1348.2" y1="306.9" x2="1346.7" y2="307.4"/>
						<line class="st1" x1="1344.3" y1="302.4" x2="1343.8" y2="303.9"/>
						<line class="st1" x1="1346.1" y1="303.5" x2="1345" y2="304.7"/>
					</g>
					<g>
						<line class="st1" x1="1342.6" y1="316" x2="1342.3" y2="314.4"/>
						<line class="st1" x1="1347.4" y1="313" x2="1346.1" y2="312.1"/>
						<line class="st1" x1="1348.2" y1="311" x2="1346.7" y2="310.5"/>
						<line class="st1" x1="1344.3" y1="315.5" x2="1343.8" y2="314"/>
						<line class="st1" x1="1346.1" y1="314.4" x2="1345" y2="313.2"/>
					</g>
				</g>
			</g>
			<g>
				<g>
					<circle class="st1" cx="1296.4" cy="309" r="4"/>
					<circle class="st1" cx="1296.4" cy="309" r="2.5"/>
				</g>
				<g>
					<circle class="st1" cx="1305.6" cy="309" r="4"/>
					<circle class="st1" cx="1305.6" cy="309" r="2.5"/>
				</g>
				<g>
					<circle class="st1" cx="1314.7" cy="309" r="4"/>
					<circle class="st1" cx="1314.7" cy="309" r="2.5"/>
				</g>
				<g>
					<circle class="st1" cx="1323.9" cy="309" r="4"/>
					<circle class="st1" cx="1323.9" cy="309" r="2.5"/>
				</g>
				<g>
					<circle class="st1" cx="1333.1" cy="309" r="4"/>
					<circle class="st1" cx="1333.1" cy="309" r="2.5"/>
				</g>
				<path class="st1" d="M1338.3,306.7l1.3,0.3c0.2-0.2,0.3-0.4,0.6-0.6l-0.3-1.3c0.1-0.1,0.3-0.1,0.4-0.2l0.7,1.1
					c0.1,0,0.3,0,0.4,0s0.3,0,0.4,0l0.7-1.1c0.1,0,0.3,0.1,0.4,0.2l-0.3,1.3c0.2,0.2,0.4,0.3,0.6,0.6l1.3-0.3
					c0.1,0.1,0.1,0.3,0.2,0.4l-1.1,0.7c0,0.1,0,0.3,0,0.4c0,0.1,0,0.3,0,0.4l1.1,0.7c0,0.1-0.1,0.3-0.2,0.4l-1.3-0.3
					c-0.2,0.2-0.3,0.4-0.6,0.6l0.3,1.3c-0.1,0.1-0.3,0.1-0.4,0.2l-0.7-1.1c-0.1,0-0.3,0-0.4,0s-0.3,0-0.4,0l-0.7,1.1
					c-0.1,0-0.3-0.1-0.4-0.2l0.3-1.3c-0.2-0.2-0.4-0.3-0.6-0.6l-1.3,0.3c-0.1-0.1-0.1-0.3-0.2-0.4l1.1-0.7c0-0.1,0-0.3,0-0.4
					c0-0.1,0-0.3,0-0.4l-1.1-0.7C1338.2,307,1338.3,306.8,1338.3,306.7z"/>
			</g>
			<g>
				<g>
					<polyline class="st1" points="1328.2,299.8 1342,299.8 1342,298.3 1340.6,298.3 1328,298.3 					"/>
					<polyline class="st1" points="1340.4,298.3 1340.4,296.7 1325.1,293.4 					"/>
					<path class="st1" d="M1322.3,295.6"/>
					<line class="st1" x1="1333.3" y1="295.3" x2="1333.3" y2="298.3"/>
					<polyline class="st1" points="1318.5,289.2 1318.5,283 1316.3,281.1 1316.3,288.6 					"/>
					
						<ellipse transform="matrix(0.2985 -0.9544 0.9544 0.2985 663.8768 1481.7144)" class="st1" cx="1339.9" cy="289.3" rx="0.9" ry="0.5"/>
					<path class="st1" d="M1315.7,288.9c0,0,1.1,8.9-1,10.8l13.5,0.1C1328.2,299.8,1326.4,289.4,1315.7,288.9z"/>
					<line class="st1" x1="1325.8" y1="296.9" x2="1318" y2="297.7"/>
					<line class="st1" x1="1323.4" y1="294.1" x2="1318" y2="296"/>
					<line class="st1" x1="1320.3" y1="292.3" x2="1317.7" y2="294.3"/>
					<line class="st1" x1="1335.9" y1="298.4" x2="1339.4" y2="290"/>
				</g>
				<g>
					<g>
						<path class="st1" d="M1302,280.8l0-1.7c0-0.6-0.5-1-1-1l0,0c-0.6,0-1,0.5-1,1l0,1.8"/>
					</g>
					<path class="st1" d="M1292.7,300.1c0,0,19.4,0.9,21-2.2c1.3-2.5-0.5-17.4-0.5-17.4s-13.2,0.1-14.8,0.9
						C1293,284.3,1292.7,300.1,1292.7,300.1z"/>
					<path class="st1" d="M1295.2,296.2l4.6-0.6l0.5,1.7c0,0,9-0.9,10.1-2.7c1.6-2.5-0.2-11.8-0.2-11.8s-9.4,0-10.5,0.7
						C1295.7,286.2,1295.2,296.2,1295.2,296.2z"/>
					<line class="st1" x1="1311.6" y1="280.4" x2="1311.6" y2="279.3"/>
					
						<ellipse transform="matrix(1 -6.338678e-03 6.338678e-03 1 -1.7383 8.3195)" class="st1" cx="1311.6" cy="278.4" rx="0.4" ry="0.9"/>
					
						<rect x="1290.7" y="283.4" transform="matrix(-1 -1.224647e-16 1.224647e-16 -1 2583.1301 573.6271)" class="st1" width="1.7" height="6.9"/>
					<path class="st1" d="M1297.7,281.9c0,0-5.1,0-5.4,1.2v8.5l3.1,1.5"/>
				</g>
			</g>
			<path class="st1" d="M1343.9,299.9c0,0,4.5,1.1,4.9,1.3c0.3,0.1,0.9,0.6,1.1,1.4c0.2,0.8,0.9,4.5,0.9,4.5"/>
			<g>
				<g>
					<polyline class="st1" points="1379.2,315.2 1371,315.2 1366.3,313 					"/>
					<path class="st1" d="M1369.4,312.9c0,0-3.2-2.5-6.5-2.5c-2.4,0-2.4,4.7-2.4,4.7h8.9V312.9z"/>
					<path class="st1" d="M1360.5,314.1h-1.5c0,0,0-6.3,3.3-6.3s5.7,1.7,7,2.7c1,0.8,2.8,2.2,3.9,4.2"/>
					<polygon class="st1" points="1361.1,307.9 1364,307.9 1364,304.1 1362.5,303.7 1361.1,304.1 					"/>
					<line class="st1" x1="1362.4" y1="313.2" x2="1355.5" y2="315.5"/>
					<line class="st1" x1="1361.1" y1="307.9" x2="1361.1" y2="297.4"/>
				</g>
				<line class="st1" x1="1360.9" y1="305.9" x2="1351.9" y2="305"/>
			</g>
			<g>
				<line class="st1" x1="1290.6" y1="301.2" x2="1278.1" y2="299.7"/>
				<line class="st1" x1="1284.9" y1="306.5" x2="1276.8" y2="302.3"/>
				<line class="st1" x1="1288.2" y1="303" x2="1279.9" y2="295.9"/>
				<line class="st1" x1="1280.3" y1="295.1" x2="1276.1" y2="303.8"/>
				<g>
					<path class="st1" d="M1277.6,296l-12.3-5.6c0,0,0.1,3-0.9,5.1c-1,2.1-3.9,4.5-3.9,4.5l12.4,6l6.8-14l-8.3-0.7l-0.7,1.3"/>
					<line class="st1" x1="1275.4" y1="300.9" x2="1264.4" y2="295.5"/>
					<line class="st1" x1="1274.3" y1="291.8" x2="1273.2" y2="294"/>
					<line class="st1" x1="1277.5" y1="291.9" x2="1275.9" y2="295.1"/>
				</g>
			</g>
		</g>
		<g>
			<g>
				<g>
					<polyline class="st1" points="1138.5,261.1 1146.1,258.1 1149.6,254.3 					"/>
					<path class="st1" d="M1146.8,255.4c0,0,2.1-3.5,5.1-4.7c2.3-0.9,4,3.5,4,3.5l-8.3,3.3L1146.8,255.4z"/>
					<path class="st1" d="M1155.5,253.3l1.4-0.6c0,0-2.3-5.9-5.4-4.7c-3,1.2-4.7,3.7-5.5,5.1c-0.7,1.1-1.8,3.1-2.1,5.4"/>
					<polygon class="st1" points="1152.7,247.7 1150,248.8 1148.6,245.2 1149.8,244.3 1151.3,244.2 					"/>
					<line class="st1" x1="1153.4" y1="253" x2="1160.7" y2="252.7"/>
					<line class="st1" x1="1152.7" y1="247.7" x2="1148.8" y2="237.9"/>
				</g>
				<line class="st1" x1="1152.1" y1="245.8" x2="1160.2" y2="241.6"/>
			</g>
			<path class="st1" d="M1182.4,224.1"/>
			<g>
				<path class="st1" d="M1217.2,223.7c1.1,2.9-0.3,6.1-3.1,7.2l-42.2,16.8c-2.9,1.1-6.1-0.3-7.2-3.1l0,0c-1.1-2.9,0.3-6.1,3.1-7.2
					l42.2-16.8C1212.8,219.5,1216.1,220.9,1217.2,223.7L1217.2,223.7z"/>
				<g>
					<line class="st1" x1="1195.3" y1="238.4" x2="1195.9" y2="239.9"/>
					<line class="st1" x1="1196.8" y1="237.8" x2="1197.4" y2="239.3"/>
					<line class="st1" x1="1198.3" y1="237.2" x2="1198.9" y2="238.7"/>
					<line class="st1" x1="1199.9" y1="236.6" x2="1200.5" y2="238.1"/>
					<line class="st1" x1="1201.4" y1="236" x2="1202" y2="237.5"/>
					<line class="st1" x1="1202.9" y1="235.4" x2="1203.5" y2="236.9"/>
					<line class="st1" x1="1204.4" y1="234.8" x2="1205" y2="236.3"/>
					<line class="st1" x1="1206" y1="234.2" x2="1206.6" y2="235.7"/>
					<line class="st1" x1="1207.5" y1="233.6" x2="1208.1" y2="235.1"/>
					<line class="st1" x1="1209" y1="233" x2="1209.6" y2="234.5"/>
					<line class="st1" x1="1210.5" y1="232.4" x2="1211.1" y2="233.9"/>
					<line class="st1" x1="1212.1" y1="231.8" x2="1212.7" y2="233.3"/>
					<line class="st1" x1="1213.6" y1="231.2" x2="1214.2" y2="232.7"/>
					<g>
						<line class="st1" x1="1218.7" y1="223.1" x2="1217.2" y2="223.7"/>
						<line class="st1" x1="1210.6" y1="218.8" x2="1210.9" y2="220.3"/>
						<line class="st1" x1="1216.1" y1="219.8" x2="1215.3" y2="221.1"/>
						<line class="st1" x1="1217.7" y1="221.3" x2="1216.4" y2="222.4"/>
						<line class="st1" x1="1212.4" y1="218.6" x2="1212.4" y2="220.3"/>
						<line class="st1" x1="1214.4" y1="218.9" x2="1213.9" y2="220.5"/>
					</g>
					<g>
						<line class="st1" x1="1215.8" y1="231.9" x2="1215" y2="230.5"/>
						<line class="st1" x1="1219.2" y1="227.4" x2="1217.6" y2="227"/>
						<line class="st1" x1="1219.2" y1="225.2" x2="1217.6" y2="225.3"/>
						<line class="st1" x1="1217.2" y1="230.7" x2="1216.1" y2="229.6"/>
						<line class="st1" x1="1218.5" y1="229.2" x2="1217.1" y2="228.4"/>
					</g>
					<line class="st1" x1="1190.7" y1="240.3" x2="1191.3" y2="241.8"/>
					<line class="st1" x1="1192.2" y1="239.7" x2="1192.8" y2="241.2"/>
					<line class="st1" x1="1193.8" y1="239" x2="1194.4" y2="240.5"/>
					<line class="st1" x1="1189.2" y1="240.9" x2="1189.8" y2="242.4"/>
					<line class="st1" x1="1187.7" y1="241.5" x2="1188.3" y2="243"/>
					<line class="st1" x1="1186.1" y1="242.1" x2="1186.7" y2="243.6"/>
					<line class="st1" x1="1184.6" y1="242.7" x2="1185.2" y2="244.2"/>
					<line class="st1" x1="1183.1" y1="243.3" x2="1183.7" y2="244.8"/>
					<line class="st1" x1="1181.6" y1="243.9" x2="1182.2" y2="245.4"/>
					<line class="st1" x1="1180" y1="244.5" x2="1180.6" y2="246"/>
					<line class="st1" x1="1178.5" y1="245.1" x2="1179.1" y2="246.6"/>
					<line class="st1" x1="1177" y1="245.7" x2="1177.6" y2="247.2"/>
					<line class="st1" x1="1175.5" y1="246.3" x2="1176.1" y2="247.8"/>
					<line class="st1" x1="1173.9" y1="246.9" x2="1174.5" y2="248.4"/>
					<line class="st1" x1="1172.4" y1="247.5" x2="1173" y2="249"/>
					<line class="st1" x1="1190.5" y1="226.5" x2="1191.1" y2="228"/>
					<line class="st1" x1="1192.1" y1="225.9" x2="1192.7" y2="227.4"/>
					<line class="st1" x1="1193.6" y1="225.3" x2="1194.2" y2="226.8"/>
					<line class="st1" x1="1195.1" y1="224.7" x2="1195.7" y2="226.2"/>
					<line class="st1" x1="1196.6" y1="224" x2="1197.2" y2="225.5"/>
					<line class="st1" x1="1198.2" y1="223.4" x2="1198.8" y2="224.9"/>
					<line class="st1" x1="1199.7" y1="222.8" x2="1200.3" y2="224.3"/>
					<line class="st1" x1="1201.2" y1="222.2" x2="1201.8" y2="223.7"/>
					<line class="st1" x1="1202.7" y1="221.6" x2="1203.3" y2="223.1"/>
					<line class="st1" x1="1204.3" y1="221" x2="1204.9" y2="222.5"/>
					<line class="st1" x1="1205.8" y1="220.4" x2="1206.4" y2="221.9"/>
					<line class="st1" x1="1207.3" y1="219.8" x2="1207.9" y2="221.3"/>
					<line class="st1" x1="1208.8" y1="219.2" x2="1209.4" y2="220.7"/>
					<line class="st1" x1="1186" y1="228.3" x2="1186.6" y2="229.8"/>
					<line class="st1" x1="1187.5" y1="227.7" x2="1188.1" y2="229.2"/>
					<line class="st1" x1="1189" y1="227.1" x2="1189.6" y2="228.6"/>
					<line class="st1" x1="1184.4" y1="228.9" x2="1185" y2="230.4"/>
					<line class="st1" x1="1182.9" y1="229.5" x2="1183.5" y2="231"/>
					<line class="st1" x1="1181.4" y1="230.1" x2="1182" y2="231.6"/>
					<line class="st1" x1="1179.9" y1="230.7" x2="1180.5" y2="232.2"/>
					<line class="st1" x1="1178.3" y1="231.3" x2="1178.9" y2="232.8"/>
					<line class="st1" x1="1176.8" y1="231.9" x2="1177.4" y2="233.4"/>
					<line class="st1" x1="1175.3" y1="232.5" x2="1175.9" y2="234"/>
					<line class="st1" x1="1173.8" y1="233.1" x2="1174.4" y2="234.6"/>
					<line class="st1" x1="1172.2" y1="233.7" x2="1172.8" y2="235.2"/>
					<line class="st1" x1="1170.7" y1="234.3" x2="1171.3" y2="235.8"/>
					<line class="st1" x1="1169.2" y1="234.9" x2="1169.8" y2="236.4"/>
					<line class="st1" x1="1167.7" y1="235.6" x2="1168.3" y2="237.1"/>
					<g>
						<line class="st1" x1="1163" y1="245.3" x2="1164.5" y2="244.7"/>
						<line class="st1" x1="1165.9" y1="236.5" x2="1166.7" y2="237.9"/>
						<line class="st1" x1="1162.5" y1="241.1" x2="1164.1" y2="241.5"/>
						<line class="st1" x1="1162.5" y1="243.3" x2="1164.1" y2="243.1"/>
						<line class="st1" x1="1164.5" y1="237.7" x2="1165.5" y2="238.9"/>
						<line class="st1" x1="1163.2" y1="239.3" x2="1164.6" y2="240.1"/>
					</g>
					<g>
						<line class="st1" x1="1171.1" y1="249.7" x2="1170.8" y2="248.1"/>
						<line class="st1" x1="1165.5" y1="248.7" x2="1166.4" y2="247.3"/>
						<line class="st1" x1="1164" y1="247.1" x2="1165.2" y2="246.1"/>
						<line class="st1" x1="1169.3" y1="249.8" x2="1169.2" y2="248.2"/>
						<line class="st1" x1="1167.3" y1="249.5" x2="1167.8" y2="247.9"/>
					</g>
				</g>
			</g>
			<g>
				<g>
					
						<ellipse transform="matrix(0.9294 -0.3691 0.3691 0.9294 2.0757 463.0577)" class="st1" cx="1211.4" cy="226.1" rx="4" ry="4"/>
					
						<ellipse transform="matrix(0.9294 -0.3691 0.3691 0.9294 2.0758 463.0578)" class="st1" cx="1211.4" cy="226.1" rx="2.5" ry="2.5"/>
				</g>
				<g>
					
						<ellipse transform="matrix(0.9294 -0.3691 0.3691 0.9294 0.2243 460.1502)" class="st1" cx="1202.9" cy="229.5" rx="4" ry="4"/>
					
						<ellipse transform="matrix(0.9294 -0.3691 0.3691 0.9294 0.2244 460.1502)" class="st1" cx="1202.9" cy="229.5" rx="2.5" ry="2.5"/>
				</g>
				<g>
					
						<ellipse transform="matrix(0.9294 -0.3691 0.3691 0.9294 -1.6271 457.2427)" class="st1" cx="1194.4" cy="232.9" rx="4" ry="4"/>
					
						<ellipse transform="matrix(0.9294 -0.3691 0.3691 0.9294 -1.627 457.2427)" class="st1" cx="1194.4" cy="232.9" rx="2.5" ry="2.5"/>
				</g>
				<g>
					
						<ellipse transform="matrix(0.9294 -0.3691 0.3691 0.9294 -3.4785 454.3351)" class="st1" cx="1185.9" cy="236.3" rx="4" ry="4"/>
					
						<ellipse transform="matrix(0.9294 -0.3691 0.3691 0.9294 -3.4784 454.3351)" class="st1" cx="1185.9" cy="236.3" rx="2.5" ry="2.5"/>
				</g>
				<g>
					
						<ellipse transform="matrix(0.9294 -0.3691 0.3691 0.9294 -5.3298 451.4276)" class="st1" cx="1177.3" cy="239.6" rx="4" ry="4"/>
					
						<ellipse transform="matrix(0.9294 -0.3691 0.3691 0.9294 -5.3298 451.4276)" class="st1" cx="1177.3" cy="239.6" rx="2.5" ry="2.5"/>
				</g>
				<path class="st1" d="M1171.6,239.4l-1.1,0.8c-0.2-0.1-0.5-0.3-0.7-0.3l-0.2-1.3c-0.1,0-0.3,0-0.4,0l-0.2,1.3
					c-0.1,0-0.3,0.1-0.4,0.1c-0.1,0.1-0.2,0.1-0.4,0.2l-1.1-0.8c-0.1,0.1-0.2,0.2-0.3,0.3l0.8,1.1c-0.1,0.2-0.3,0.5-0.3,0.7
					l-1.3,0.2c0,0.1,0,0.3,0,0.4l1.3,0.2c0,0.1,0.1,0.3,0.1,0.4c0.1,0.1,0.1,0.2,0.2,0.4l-0.8,1.1c0.1,0.1,0.2,0.2,0.3,0.3l1.1-0.8
					c0.2,0.1,0.5,0.3,0.7,0.3l0.2,1.3c0.1,0,0.3,0,0.4,0l0.2-1.3c0.1,0,0.3-0.1,0.4-0.1c0.1-0.1,0.2-0.1,0.4-0.2l1.1,0.8
					c0.1-0.1,0.2-0.2,0.3-0.3l-0.8-1.1c0.1-0.2,0.3-0.5,0.3-0.7l1.3-0.2c0-0.1,0-0.3,0-0.4l-1.3-0.2c0-0.1-0.1-0.3-0.1-0.4
					c-0.1-0.1-0.1-0.2-0.2-0.4l0.8-1.1C1171.8,239.6,1171.7,239.5,1171.6,239.4z"/>
			</g>
			<path class="st1" d="M1210.1,186.7c0.4-0.8,1.2-1.3,2.1-1.3c1,0,1.8,0.6,2.2,1.4c0.1,0.3,0.2,0.6,0.2,0.9c0,1.3-1,2.4-2.3,2.4
				c-0.6,0-1.2-0.2-1.6-0.6"/>
			<path class="st1" d="M1165.4,213.7l4.2-11.2l33-15.6l9.1-0.2c0,0,1.7,1.6-0.3,2.6l-8.2,0.8l-27,16.7l0,1.8L1165.4,213.7z"/>
			<path class="st1" d="M1181.1,218l-3.5-8.9c0,0-0.6-1.1-2.4-0.2c-2.9,1.4-11.5,5.7-11.5,5.7s-0.6,0.5-0.4,1.4
				c0.2,0.9,2.9,7.6,2.9,7.6l5.8,3.1"/>
			<line class="st1" x1="1214.4" y1="186.7" x2="1302.4" y2="150.5"/>
			<g>
				<g>
					<polyline class="st1" points="1178.4,229.1 1165.5,234.2 1165,232.8 1166.3,232.3 1178.1,227.7 					"/>
					<polyline class="st1" points="1166.5,232.2 1165.9,230.7 1178.9,222 					"/>
					<path class="st1" d="M1182.4,223"/>
					<line class="st1" x1="1171.9" y1="226.8" x2="1173.1" y2="229.6"/>
					<polyline class="st1" points="1183.5,215.7 1181.2,209.9 1182.5,207.3 1185.3,214.3 					"/>
					
						<ellipse transform="matrix(0.7769 -0.6296 0.6296 0.7769 116.2572 778.945)" class="st1" cx="1157.2" cy="225.4" rx="0.5" ry="0.9"/>
					<path class="st1" d="M1186,214.3c0,0,2.3,8.7,4.9,9.7l-12.5,5C1178.4,229.1,1176.2,218.8,1186,214.3z"/>
					<line class="st1" x1="1179.5" y1="225.5" x2="1187.1" y2="223.4"/>
					<line class="st1" x1="1180.8" y1="222" x2="1186.5" y2="221.8"/>
					<line class="st1" x1="1182.9" y1="219.2" x2="1186.1" y2="220.1"/>
					<line class="st1" x1="1170.7" y1="230.6" x2="1158" y2="226"/>
				</g>
				<g>
					<g>
						<path class="st1" d="M1195.7,201.8l-0.6-1.5c-0.2-0.5,0.1-1.1,0.6-1.3l0,0c0.5-0.2,1.1,0.1,1.3,0.6l0.7,1.7"/>
					</g>
					<path class="st1" d="M1211.5,216.3c0,0-17.7,8-20.3,5.7c-2.2-1.8-5.9-16.3-5.9-16.3s12.3-4.8,14.1-4.6
						C1205.4,201.7,1211.5,216.3,1211.5,216.3z"/>
					<path class="st1" d="M1207.7,213.5l-4.4,1.2l0.1,1.8c0,0-8.7,2.5-10.4,1.2c-2.4-1.7-4.2-11.1-4.2-11.1s8.8-3.4,10-3.2
						C1203.6,204.4,1207.7,213.5,1207.7,213.5z"/>
					<line class="st1" x1="1186.6" y1="205" x2="1186.2" y2="203.9"/>
					
						<ellipse transform="matrix(0.9317 -0.3632 0.3632 0.9317 7.2178 444.5434)" class="st1" cx="1185.9" cy="203.1" rx="0.4" ry="0.9"/>
					
						<rect x="1206.8" y="200.1" transform="matrix(0.9294 -0.3691 0.3691 0.9294 10.1518 460.0658)" class="st1" width="1.7" height="6.9"/>
					<path class="st1" d="M1200.1,201.2c0,0,4.8-1.9,5.4-0.9l3.1,7.9l-2.4,2.6"/>
				</g>
			</g>
			<g>
				<line class="st1" x1="1214.4" y1="215.4" x2="1226.1" y2="210.9"/>
				<line class="st1" x1="1221.1" y1="219.2" x2="1228" y2="213.1"/>
				<line class="st1" x1="1217.1" y1="216.6" x2="1223.4" y2="207.7"/>
				<line class="st1" x1="1222.8" y1="207" x2="1229.1" y2="214.4"/>
				<g>
					<path class="st1" d="M1225.7,207.2l10.5-8.5c0,0,0.6,2.9,2.1,4.7c1.5,1.8,4.9,3.4,4.9,3.4l-10.5,8.9l-10.1-11.9l7.9-2.8l1,1.1"
						/>
					<line class="st1" x1="1229" y1="211.3" x2="1238.3" y2="203.4"/>
					<line class="st1" x1="1227.8" y1="202.3" x2="1229.4" y2="204.2"/>
					<line class="st1" x1="1224.8" y1="203.2" x2="1227.1" y2="205.9"/>
				</g>
			</g>
			<polygon class="st1" points="1171.4,204.3 1169.7,208.9 1174.3,206.7 			"/>
			<polygon class="st1" points="1173.4,203 1175.6,204.8 1193.2,193.6 			"/>
		</g>
	</g>
</g>
</svg>
