<?xml version="1.0" encoding="utf-8"?>
<!-- Generator: Adobe Illustrator 21.0.2, SVG Export Plug-In . SVG Version: 6.00 Build 0)  -->
<svg version="1.1" id="Layer_1" xmlns="http://www.w3.org/2000/svg" xmlns:xlink="http://www.w3.org/1999/xlink" x="0px" y="0px"
	 width="450.1px" height="413.8px" viewBox="0 0 450.1 413.8" style="enable-background:new 0 0 450.1 413.8;" xml:space="preserve"
	>
<style type="text/css">
	.st0{fill:none;stroke:#F2D383;stroke-width:0.5518;stroke-miterlimit:10;}
	.st1{fill:#F2D383;}
	.st2{fill:#DBD9D6;}
	.st3{fill:#FFFFFF;}
</style>
<g>
	<g>
		<g>
			<path class="st0" d="M239.8,46.6"/>
		</g>
		<g>
			<path class="st0" d="M200.9,54.1"/>
		</g>
		<g>
			<path class="st1" d="M93.2,139.3l-1-0.9l117-132.7l11,12.4l16-18.1l0.5,0.6L357,136.7l-1,0.9L236.2,2.1l-15.1,17l31.5,35.6h-65
				l31.6-35.6l-10-11.3L93.2,139.3z M190.7,53.4h58.8l-29.4-33.2L190.7,53.4z"/>
		</g>
		<g>
			<g>
				<path class="st2" d="M223.9,217.7l-23.6-9.9l0.3-0.9c1.9-5.1,5.2-12.2,7.5-16.6c5.1-9.6,12.6-15.7,22.4-18.2l0.3-0.1
					c1.5-0.4,3.1-0.8,4.7-0.8c2.1,0,3.8,0.7,5.5,2c0.4,0.3,1.6,0.3,2.9,0.1c0.9-0.1,1.8-0.2,2.6-0.1c3.8,0.4,6.8,2,8.5,4.7
					c1.7,2.8,1.8,6.4,0.2,10.2l-0.8,1.9l-1.4-2.3c-0.5-0.8-0.9-1.5-1.4-2.2c-0.4-0.5-0.8-0.8-1-0.9c-3-0.6-8.8,3.1-9.8,6.3
					c-1.3,4.3,0,6.7,1.7,10c1.1,2.1,2.3,4.4,3.1,7.6l0.2,0.9L223.9,217.7z M202.9,206.7l21.1,8.9l19.4-7.3c-0.7-2.5-1.7-4.4-2.6-6.2
					c-1.8-3.5-3.4-6.4-1.9-11.5c1.3-4.2,8-8.6,12.1-7.7c1,0.2,1.8,1.1,2.2,1.6c0.3,0.4,0.5,0.7,0.8,1.1c0.6-2.4,0.3-4.6-0.7-6.4
					c-1.3-2.1-3.7-3.5-6.9-3.7c-0.7-0.1-1.5,0-2.3,0.1c-0.6,0.1-1.3,0.1-1.8,0.1c-0.7,0-1.8-0.1-2.5-0.7c-1.3-1.1-2.6-1.6-4.2-1.6
					c-1.4,0-2.7,0.4-4.2,0.7l-0.3,0.1c-9.2,2.3-16.3,8.1-21.1,17.1C207.8,195.3,204.8,201.7,202.9,206.7z"/>
			</g>
			<g>
				<path class="st2" d="M225,291.6l-0.4-0.2L44.8,218.6c-1.4-0.7-31.7-15.6-28-38.6l2,0.3c-3.4,21.6,26.5,36.3,26.8,36.5L225,289.4
					l179.5-72.7c0.2-0.1,30.2-14.9,26.8-36.4l2-0.3c3.6,23.1-26.7,38-28,38.6L225,291.6z"/>
			</g>
			<g>
				<path class="st2" d="M260.3,305.1h-70.4l18.4-35.3l0.4-0.1c4.4-1.8,9-3.6,13.8-5.5c-9.1-3.7-20.3-8.1-32.6-13.1l-66.1,26.8
					l-0.4-0.2l-56.2-22.8c-0.2-0.1-21.8-8.9-21.8-36h2c0,25.6,19.7,33.7,20.5,34.1l55.8,22.7L187,250
					c-67.7-27.2-168.4-67.9-169.8-69c-21.6-17.8-16.8-35.4-16.6-36.1l0.3-1.1l1,0.4L225,234.5l224.1-90.8l0.3,1.1
					c0.2,0.7,5,18.3-16.6,36.1c-1.4,1.1-102.1,41.8-169.8,69l63.3,25.7l55.8-22.7c0.8-0.3,20.6-8.5,20.6-34.1h2
					c0,27-21.6,35.9-21.8,36l-56.6,23L260.4,251c-12.3,5-23.5,9.4-32.6,13.1c4.8,1.9,9.4,3.8,13.8,5.5l0.4,0.1L260.3,305.1z
					 M193.2,303.1h63.7l-16.5-31.7c-3.8-1.5-9-3.6-15.4-6.2c-6.4,2.6-11.6,4.7-15.4,6.2L193.2,303.1z M192.4,249.9
					c11.4,4.6,22.4,9,32.6,13.1c10.2-4.1,21.2-8.5,32.6-13.1L225,236.7L192.4,249.9z M2.3,146.5c-0.6,4.1-1.3,18.4,16.1,32.8
					c2.5,1.5,95.4,39,171.2,69.5l32.6-13.2L2.3,146.5z M227.8,235.6l32.6,13.2c75.8-30.5,168.7-68,171.3-69.6
					c17.4-14.4,16.7-28.7,16-32.8L227.8,235.6z"/>
			</g>
		</g>
		<g>
			<path class="st2" d="M303.1,190.9c-17.4-26.3-46.6-42-78.1-42c-31,0-59.9,15.3-77.4,41l-1.7-1.1c17.9-26.2,47.5-41.9,79.1-41.9
				c32.2,0,62,16,79.8,42.9L303.1,190.9z"/>
		</g>
		<g>
			<path class="st2" d="M225,338.2c-36.5,0-70.3-21.2-86.2-54.1l1.8-0.9c15.5,32.2,48.7,53,84.4,53c35.8,0,67.9-19.9,83.9-52
				l1.8,0.9C294.5,317.9,261.6,338.2,225,338.2z"/>
		</g>
		<g>
			<path class="st2" d="M225,351.3c-41.8,0-79.2-23.3-97.6-60.8l1.8-0.9c18.1,36.8,54.8,59.6,95.8,59.6c41.3,0,79.2-24.2,96.7-61.6
				l1.9,0.9C305.8,326.6,267.1,351.3,225,351.3z"/>
		</g>
		<g>
			<path class="st2" d="M315.7,186.3c-19.6-31.6-53.5-50.4-90.7-50.4c-36,0-69.3,18-89.1,48.1l-1.7-1.1c20.2-30.7,54.1-49,90.8-49
				c37.8,0,72.4,19.2,92.4,51.4L315.7,186.3z"/>
		</g>
		<g>
			<path class="st1" d="M68.6,129.8l-1-0.9l78.1-88.2l38.2,43.2l41.8-47.2l32.8,36.7l13.8-15.6l16.2,18.5l22.9-25.8l69.8,76.6
				l-1,0.9l-68.7-75.4l-22,24.8l23,26.3l-48.1,0l23.2-26.3l-15.3-17.4l-12.9,14.5l9.7,10.8l-21.1,0l9.6-10.8l-31.9-35.6l-40.9,46.1
				l22.4,25.3l-46.6,0L183,84.9l-37.3-42.1L68.6,129.8z M163.7,108.8l40.4,0l-20.2-22.9L163.7,108.8z M267.4,102.1l42,0l-20.9-23.8
				L267.4,102.1z M258.5,75.4l-7.4,8.4l14.9,0L258.5,75.4z"/>
		</g>
	</g>
	<g>
		<path class="st1" d="M228.6,399.8c0,2.1-1.7,3.8-3.8,3.8c-2.1,0-3.8-1.7-3.8-3.8c0-2.1,1.7-3.8,3.8-3.8
			C226.9,396.1,228.6,397.7,228.6,399.8z"/>
	</g>
	<g>
		<g>
			<path class="st3" d="M89.8,307.4c2.4,4.7,0.6,10-5.2,12.9c-5.7,2.9-11.1,1.4-13.6-3.3c-1.3-2.5-1.2-5.2,0.1-8.1l-7.2,3.7l1.4,2.7
				l-1.7,0.9l-3.9-7.5l1.7-0.9l1.4,2.7l20.8-10.7l-1.4-2.7l1.7-0.9l2.5,4.8l-3.5,1.8C86,303.2,88.3,304.6,89.8,307.4z M83.6,318.3
				c4.9-2.5,6.4-6.4,4.4-10.2c-2-3.8-5.9-4.8-10.8-2.2c-4.7,2.4-6.4,6.4-4.5,10.2C74.6,319.8,78.7,320.8,83.6,318.3z"/>
		</g>
		<g>
			<path class="st3" d="M103,335.8c3.8-0.8,6.4-0.2,8.5,2.4l0.4,0.5l-1.8,1.5l-0.3-0.4c-3.1-3.8-7.4-3.5-12.7,0.9l-4.8,4l1.9,2.4
				l-1.5,1.2l-5.4-6.5l1.5-1.2l1.9,2.3l12.8-10.6l-1.9-2.3l1.5-1.2l3.5,4.2L103,335.8z"/>
		</g>
		<g>
			<path class="st3" d="M115.4,367.9l2.3,2l-1.2,1.5l-6.5-5.5l1.2-1.5l2.3,2l10.7-12.7l-2.3-2l1.2-1.5l4.1,3.5L115.4,367.9z
				 M131,347c0.6,0.5,0.8,1.5,0.2,2.1c-0.6,0.7-1.5,0.7-2.2,0.2c-0.7-0.6-0.7-1.5-0.2-2.2C129.4,346.5,130.4,346.4,131,347z"/>
		</g>
		<g>
			<path class="st3" d="M153.1,371.1c2.2,1.1,3.3,2.8,3,4.8c3.5-0.5,6-0.4,8,0.6c3.8,1.9,3.6,4.4,1.4,8.8l-5,10.1l2.7,1.4l-0.9,1.7
				l-7.6-3.8l0.9-1.7l2.7,1.4l4.9-9.9c1.7-3.5,2.2-5.1-0.3-6.4c-1.8-0.9-4.3-0.9-7.5-0.2l-6,12l2.7,1.4l-0.9,1.7l-7.6-3.8l0.9-1.7
				l2.7,1.4l4.9-9.9c1.7-3.5,2.2-5.1-0.3-6.4c-1.8-0.9-4.4-0.9-7.5-0.2l-6,12l2.7,1.4l-0.9,1.7l-7.6-3.8l0.9-1.7l2.7,1.4l7.4-14.9
				l-2.7-1.4l0.9-1.7l4.8,2.4l-1.3,2.5C148.6,370,151.2,370.1,153.1,371.1z"/>
		</g>
		<g>
			<path class="st3" d="M191.2,404.4c3.3,0.7,5.9-0.4,8-3.1l1.6,1.1c-2.4,3.5-6,5-10.2,4.1c-5.9-1.2-8.8-5.9-7.5-12.5
				c1.3-6.5,5.9-9.8,11.3-8.7c5.4,1.1,8.4,5.8,7.1,12.2l-0.1,0.6l-16-3.2C184.4,400,186.5,403.4,191.2,404.4z M199.4,395.6
				c0.6-4.4-1.6-7.6-5.4-8.4c-3.8-0.8-7.1,1.4-8.2,5.7L199.4,395.6z"/>
		</g>
		<g>
			<path class="st3" d="M259.7,384.4c5.2-1.2,9.8,1.9,11.3,8.2c1.5,6.3-1.3,11.1-6.5,12.3c-2.7,0.6-5.3-0.1-7.8-2.1l1.8,7.9l3-0.7
				l0.4,1.9l-8.3,1.9l-0.4-1.9l3-0.7l-5.3-22.8l-3,0.7l-0.4-1.9l5.3-1.2l0.9,3.9C254.6,387,256.6,385.1,259.7,384.4z M268.7,393.1
				c-1.2-5.3-4.6-7.7-8.8-6.8c-4.2,1-6.1,4.5-4.8,9.9c1.2,5.2,4.7,7.8,8.8,6.8C268,402.1,269.9,398.4,268.7,393.1z"/>
		</g>
		<g>
			<path class="st3" d="M292,377.7c0.1-3.9,1.3-6.2,4.3-7.7l0.6-0.3l1,2.1l-0.5,0.2c-4.4,2.2-5.1,6.4-2.1,12.6l2.8,5.6l2.7-1.4
				l0.8,1.7l-7.6,3.7l-0.8-1.7l2.7-1.3l-7.4-14.9l-2.7,1.4l-0.8-1.7l4.9-2.4L292,377.7z"/>
		</g>
		<g>
			<path class="st3" d="M309.9,352.6c0.6-0.5,1.6-0.4,2.1,0.3c0.5,0.7,0.4,1.7-0.3,2.2c-0.7,0.5-1.6,0.4-2.1-0.3
				C309.1,354,309.3,353.1,309.9,352.6z M326.8,372.5l2.4-1.8l1.2,1.5l-6.8,5.1l-1.1-1.5l2.4-1.8l-9.9-13.3l-2.4,1.8l-1.1-1.5
				l4.3-3.2L326.8,372.5z"/>
		</g>
		<g>
			<path class="st3" d="M357.7,342.4l2-2.3l1.4,1.3l-3.5,4l-2.4-2.1c0.6,3.1,0,5.8-1.8,7.9c-3.5,4.1-9.1,4.2-14,0
				c-4.9-4.3-5.4-9.7-1.9-13.8c2.1-2.4,4.6-3.2,7.6-2.8l-8-7l-2,2.3l-1.4-1.3l3.6-4.1L357.7,342.4z M350.1,339
				c-4.1-3.6-8.3-3.5-11.1-0.3c-2.8,3.3-2.2,7.2,1.9,10.9c4,3.5,8.3,3.6,11.1,0.4C354.8,346.7,354.2,342.5,350.1,339z"/>
		</g>
		<g>
			<path class="st3" d="M376.6,313c1.5-3,1.2-5.8-0.9-8.6l1.5-1.2c2.7,3.2,3.2,7.1,1.2,10.9c-2.7,5.3-8,6.9-14,3.9
				c-5.9-3-7.9-8.3-5.4-13.2c2.5-4.9,7.8-6.5,13.6-3.6l0.5,0.3l-7.3,14.5C370.6,318.4,374.4,317.2,376.6,313z M370.3,302.8
				c-4.1-1.8-7.8-0.5-9.5,3c-1.8,3.5-0.6,7.2,3.3,9.4L370.3,302.8z"/>
		</g>
	</g>
</g>
</svg>
