<?xml version="1.0" encoding="utf-8"?><svg width="171.7" height="67" viewBox="0 0 171.7 67" xmlns="http://www.w3.org/2000/svg" xmlns:xlink="http://www.w3.org/1999/xlink"><svg id="PistenBully" width="161.8" height="38.8" viewBox="0 0 161.8 38.8" xmlns="http://www.w3.org/2000/svg"><style>.ast0{fill:#ed1616}</style><path class="ast0" d="M26.4 9.8c-.2-.7-.6-1.5-1.2-2.1-.6-.6-1.3-1.3-1.9-1.6-.4-.2-.8-.4-1.1-.6-.5-.3-1-.6-1.6-.8-.4-.2-1-.4-.9-1 .1-.6.4-1 .3-1.8-.1-.6-.5-1-1.1-1.2-.4-.2-.7-.2-1 0-.3.3-.5.3-.8.8-.1.6-.1.9-.3 1.4-.1.4-.6 1.4-1.1 1.5-.6.1-1 .2-1.8.2-.9.2-1.9.1-2.8.2-1.2.3-2.2.6-3.2 1L3.1 7C1.9 7.3-.2 8.3 0 10c.1.6.8 1.1 1.4 1.2.7.1 1.1-.8 1.7-1.1.6-.4 1.2-.6 1.8-.9.6-.2 1.3-.5 1.9-.6 1.5-.5 3.2-.6 4.9-.8.3-.1 1.7-.6 2-.2.2.2-.6 1.2-.8 1.4-.6.7-1.2 1.5-1.7 2.2-.5.6-.8 1.4-1.4 1.9-.3.3-.6.4-1 .5-.2 0-.5 0-.6.2s.5.6.4 1c0 .3-.2.5-.4.8-.2.3-.3.7-.6 1-.5.7-1 1.4-1.4 2.2-.4.6-.9 1.4-1.2 2-.7 1.6-1.5 3.2-2.1 4.8-.2.7-.6 1.4-.6 2.2-.1.7-.2 1.4-.2 2.1 0 .6.2 1.6.3 1.6.2.1.7-1.4 1.1-2 .4-.6 1-1.1 1.4-1.8.5-.8 1.1-1.6 1.6-2.4.5-.9 1.1-1.8 1.8-2.6.3-.4.6-.9.9-1.3.2-.2.3-.6.5-.8.2-.2.3-.4.6-.8.8-1.1 1.4-2.9 2.6-3.6.6-.4 1.4-.2 2.1-.1.9.2 2.5.2 3.1.2 1.6-.1 3.1-.5 4.5-1 1.6-.6 2.8-1.8 3.4-3 .5-.8.7-1.7.4-2.5zm-5.4.6c-1.7.6-3.4 1.4-5.2 1.7-.4.1-.4 0-.8 0h-.2c.3-.2.5-.6.7-.9.2-.2.3-.6.6-.8.5-.6.8-1.3 1.3-1.9.5-.6.7-1.8 1.4-2.3.3-.4.8-.3 1.2-.2.4.1.8.2 1.2.2.9.2 2 .6 2.8 1.1.3.2.4.4.3.6-.1 1.4-2.2 2.1-3.3 2.5zm-1.9 15.8c.1-.4.2-.6.4-1 .4-.8.9-1.6 1.3-2.4.7-1.3 1.7-2.6 2.6-3.8.6-.7 1-1.7 1.7-2.3.9-1 1.8-2.2 2.2-3.6.1-.2.2-.8.3-1 .3-.4.7 0 1 .2.5.6.6 1.4.7 2.1.1.5.2 1 .1 1.5-.1.6-.3 1-.6 1.5-.6 1.5-1.5 3-2.4 4.3-.5.7-1 1.2-1.5 1.8-.2.2-.4.6-.9 1-.3.2-.6.6-1 .9-.6.5-1.1.8-1.7 1.1-.3.2-.5.3-.7.6-.2.3-.5.6-.7.9-.4.4-.8.9-.9.1-.3-.6 0-1.4.1-1.9zM30.7 25c.6.3 1 .7 1.7.8 1.2.2 2.9-.6 3-2 .1-1-.6-1.6-1.2-2.2-2.1-1.8-2.1-5-1-7.4.2-.4.3-.8.6-1.1.2-.3.5-.7.8-1 .6-.7 1.4-1.5 2.2-2.1 0 0 1.4-1.2 2.4-1.5.8-.2 1.6-.2 2.4-.2.6.1 1.5.2 1.9.8.4.6.3 1.2-.1 1.8 0 0-.2.6-.9 1.1-.2.2-.4.5-1 .7-.2.1-.4.2-.8.3 0 0-.7.2-1 .2-.3.1-.7.2-1 .2-.7.2-1.8.7-2.3 1.2l-.7.7c-.6.6-1 1.3-1.4 2-.4.7-.4 1.5 0 2.3.5.8 1.1 1.4 1.7 2.2.4.6.6 1.8.6 2.6-.1.8-.6 1.8-1.1 2.4-.5.7-1.1 1.3-1.6 1.9-.4.5-.7 1.2-1.4 1.5-.7.4-1.6.2-2.2-.2-.7-.4-1.1-.9-1.5-1.6-.4-.6-.7-1.2-.9-1.9-.1-.5-.3-1-.6-1.5-.2-.3-.6-.6-.7-1-.1-.5.6-.5 1-.5 1.1.2 2.1 1 3.1 1.5zm1.7-20.4c.3-.6.7-1 1.1-1.6.3-.5.6-1 .7-1.5.1-.3.2-1.5.8-1.4.2.7.6 1.4.7 2.2.2.7.4 1.3.3 2.1-.1.9.2 1.6-.3 2.3-.3.5-.9 1-1.4 1.3-.5.3-1 .4-1.6.5-.2 0-.5-.1-.6 0-.2.1-.5.2-.7.2-.6.2.1-1.8.1-1.8.1-.8.4-1.6.9-2.3z"/><path class="ast0" d="M75.7 10.9c-.4.2-.4.4-.6.7-.2.2-.7.5-1 .6-1 .5-2.1 1-3 1.7-.4.2-.9.5-1.3.7-.5.2-1 .6-1.4.9-.3.2-.8.7-1.1.6 0-1 .6-1.9.6-3 0-1-.2-3-.7-2.9-.2.1-.2.6-.2.8-.1.4-.2.6-.3.9-.2.2-.4.6-.6.9-.8 1.4-1.7 2.6-2.6 3.8-.6.9-1.5 1.7-2.1 2.4-.4.6-.9 1.2-1.3 1.8-.5.6-1 1.4-1.6 2-.2.3-.5.6-.7.9-.2.2-.6.6-.9 1-.5.6-1 1-1.8 1.2-.8.2-1.7.4-2.5.2-.6-.2-.7-1-.6-1.6.2-.8.6-1.5 1-2.2.2-.3.4-.8.6-1.2.4-.8.6-1.6 1.5-2.1.7-.4 1.6-.6 2.4-.7 1.3-.2 2.8-.6 3.8-1.6.6-.5 1.2-1.3 1.4-1.8 0 0 .2-.3.2-1 0-.4.2-.4.1-1.3-.1-.7-.5-1.7-.8-2.3-.1-.2-.4-.3-.6-.1 0 0 .2.3-.2.4-.8 0-1.7.2-2.3.6-.7.3-1.2.6-1.9 1.2-.6.5-1.1 1-1.9 1.3-.6.2-1.4.4-2 .6-.5.2-.8.2-1.3.3-.4.2-.7.2-1.2.2 0-.9.8-1.8 1.2-2.6.5-.9.9-1.8 1.2-2.6.4-1.2 1-2.7.3-4-.2-.4-.9-1-1.4-.6-.6.4-.4 1.4-.6 2-.2.8-.8 1.4-1.1 2-.4.6-.7 1.3-1.2 2s-1 1.4-1.4 1.9c-.3.6-.7 1-1 1.5-.5.8-.8 1.4-1.4 2.2-.6.6-1.4.9-2.1 1-1 .2-1.8.6-2.8.9-.6-.1-1.4 0-2 0-.3 0-.6-.1-.7-.3-.2-.2-.3-.7-.6-.4-.4.4-.2 1.4.2 1.8.6.6 1.4.9 2.2 1 .5.1 1.5.4 2.2.2.2-.1.6-.2.7.2.1.2-.3.6-.4.9-.8 1.5-1.5 3.1-2.2 4.6-.2.5-1.4 4.6-1 4.6.2 0 .6-.6.7-.7.3-.2.6-.4.9-.7.6-.5 1-1 1.5-1.5 1.2-1.3 2-2.7 3-4.2.5-.7.9-1.4 1.3-2.2.3-.6 1-2.1 1.8-2.6 1.2-.8 1.9-1.4 2.8-2 .6-.5 1-.6 1.4-.8 0 0 1-.4 1.2-.2 0 0-.4.6-.7.9-.6.7-1.2 1.6-1.7 2.6-.5.9-.9 1.6-.9 2.6-.1 1-.2 1.9 0 2.9.2.9.4 1.8.9 2.5.2.3.5.6.7.7 1 .7 2.1.6 2.9-.3.6-.7.6.1 1 .6.4.6.9.9 1.4.3.5-.3.9-.8 1.3-1.1 1.1-1 2.3-2.2 3.4-3.4.5-.5 1-1.2 1.6-1.8.2-.2.5-.5.8-.7.3-.4.6-.8 1-1.1l1.2-1.2c.4-.4.7-.8 1.1-1.2.9-.9 1.8-1.8 2.7-2.6.7-.6 1.7-1.3 2.3-1.7.5-.3 1.2-.8 1.7-1 .4-.2.8-.4 1.2-.1s.3 1 .2 1.3c-.3.6-.6 1.2-1 1.8-.3.6-.9 1.4-1.3 2-.5.7-.9 1.4-1.4 2-.4.6-1 1.4-1.4 1.9-.5.7-1 1.4-1.4 2.2-.2.3-.4.7-.6 1-.2.3-.3.6-.5.9-.3.6-.6 1.4-.6 2-.1.3-.2.7 0 1 .3.7 1.2.1 1.7-.1.4-.2.5-.2.9-.5.6-.5 1.3-.9 1.8-1.3 1.2-.9 2.1-1.9 2.7-3.2.5-.9 1-1.7 1.4-2.6.3-.8.6-1.6 1-2.4.6-1.7.9-3.4 1.2-5.2 0-1.4-.5-3.9-2.4-3zm-19.2 4.3c.6-.8 1.1-1.4 1.8-2.1 0 0 1.3-1 1.5-1.2.6-.4 1.5-.2 1.9.1.5.5-.2 1.7-1.2 2.3-1 .6-1.9 1.1-2.7 1.8-.4.2-1 .3-1.2.2-.3-.3-.3-.8-.1-1.1z"/><path class="ast0" d="M109.1 5.8c0-.9-.3-1.4-.9-2-.6-.7-1.4-1-2.2-1.5-.7-.6-1.7-.8-2.6-1.1-.4-.2-.9-.2-1.4-.3-2.3-.4-4.6-.6-7-.8-2.3-.2-4.6 0-6.9 0-2-.1-4.1.1-6.2.3-1.8.2-3.5 1-5.3 1.5-.7.2-1.4.4-2.2.6-.9.2-1.8.4-2.4 1-.3.3-.6.6-.7 1s-.2.8 0 1.3c.2.4.7 1.1 1.3 1.2.4.2.8.1 1.1 0H75c.3-.1 1.1-.2 1.3-.6.2-.3-.2-.8-.2-1-.2-1 .7-1.3 1.5-1.5.9-.3 1.8-.3 2.7-.5 2.1-.2 4.2-.5 6.4-.5.9 0 1.6-.3 2.5-.2.9.1 1.8.2 2.6.2.9 0 1.8.1 2.7.2.2 0 1 0 1 .3.2.3-.4.9-.6 1.2-.2.3-.4.6-.6.8-.2.3-.6.6-.8 1-.5.6-1.3 1.9-2.3 2.1-.3.1-.7-.1-1 .1-.2 0-.1.2-.5.4-.2.2-.7.3-1 .4-.8.3-1.7.6-2.5.8-.4.1-.6.2-1.1.2 0 0-.7.2-1 .3.4.3 1.4.3 1.8.4.7.1 1.4.1 2.2 0 .2 0 1.3-.2 1 .2-.2.3-.5.6-.6.9-1 1.5-2.2 3-3.2 4.5-.5.7-1.1 1.4-1.6 2.2-.5.7-1 1.4-1.6 2.3-1.3 1.9-2.3 3.8-3.4 5.9-.5 1-.9 2.1-1.2 3.1-.2.7-.6 1.8-.2 2.5.3.9 1.1-.5 1.4-.8.7-.7 1.3-1.6 2-2.3.5-.6.9-1 1.4-1.5.5-.6 1-1.1 1.4-1.6.8-1 1.7-2 2.2-2.6.6-.6 1.1-1.4 1.8-2.1.8-1 1.1-1.6 1.7-2.4.6-1 1.3-2 2-2.9.6-.6.9-1.4 1.4-2 .4-.5.7-.9 1.4-.9.8 0 1.4.2 2.2.3.7.2 1.4.5 2.1.8.7.3 1.3.8 1.9 1.3 1.2.9 2.9 2.2 2.6 4-.1.9-.6 1.5-1.2 2-.3.2-.6.6-1 .8-.3.2-.7.5-1.1.6-.9.6-1.7.6-2.6.6-.8.1-1.9.2-2.5-.6-.2-.2-.2-.9-.3-1.2-.1-.5-.2-.7-.4-1.1-.2-.7-.6-1.2-1.2-1.7-.1.2-.1.3-.2.6-.1.9-.7 1.3-1.4 1.7-1 .5-1 1.7-1 2.6 0 .9-.2 1.8.4 2.6.4.6 1 1.3 1.7 1.8.2.2.5.5.8.6.3.1.8.1 1.1.1 1-.1 1.8-.4 2.8-.6.4-.1.8-.2 1.1-.3.4-.2 1-.4 1.4-.6.8-.4 1.5-.9 2.3-1.4 1.6-1 2.6-2.6 3-4.3.2-.8-.2-1.7-.4-2.4-.2-.4-.2-.7-.4-1.1-.2-.5-.4-.9-.7-1.2-.3-.4-.6-.8-1-1.1-.2-.2-.6-.6-1-.9-.5-.5-1-.9-1.5-1.2-.3-.2-.7-.6-1-.8-.1-.5.3-.5.6-.5.4-.1.9-.2 1.3-.3 1-.2 1.8-.3 2.6-.6.4-.1.8-.2 1.2-.4.6-.2 1.3-.6 1.3-.6.6-.3 1.3-.8 1.9-1.3 1.1-1 1.7-2.4 1.7-4zm-3.2.3c-2 1.1-4.3 2-6.5 2.2-.4.1-2.5.6-2.6.2-.1-.2.2-1.1.3-1.4.3-.9.2-1.6.2-1.6.1-.6-.2-1.4-.1-2 .2-.5 1-.3 1.4-.3 1.8.1 3.7.4 5.5.6.8.1 1.8.2 2.4.6 1.3.6 0 1.4-.6 1.7zm0 15.9c.5-.8.9-1.7 1.4-2.5.6-.8 1.1-1.7 1.8-2.4.6-.8 1.2-1.6 1.7-2.5.4-.7 1-1.3 1.4-1.9l1.2-2.1c.4-.6.6-1.4 1.5-1.6.9-.2 1.4.3 1.5 1.2.2.8-.3 1.4-.8 2.1-.5.6-.6 1.4-1 2-1 1.4-1.6 2.9-2.4 4.3-.4.8-1.4 2-1.4 3 .5-.2.6-.5.9-.8.3-.4.8-.7 1.2-1 .7-.7 1.4-1.5 2.2-2.2 1.1-1.4 2.6-2.3 4-3.4.6-.5 1.1-1 2-1 .6-.1 1.5.2 1.9.6 1.1 1.1.5 3 .2 4.2-.4 1.7-1 3.4-1.8 5-.7 1.5-1.6 2.8-2.6 4.1-.5.6-1.3 1.3-1.8 1.8-.6.6-1.3.9-2 .5-.6-.3-.9-.9-1-1.4-.1-.4.1-.6.2-1s.1-.8.2-1.2c.2-.7.9-1.4 1.4-1.8.3-.3.9-1.2 1.5-2.1.4-.6.8-1.2 1.3-1.8s1-1.4 1.4-2.2c.3-.6 1.1-1.6.9-2.2-.3-.8-1.1 0-1.4.3-.6.5-1 .9-1.4 1.5-.4.6-1 1.2-1.5 1.8-.3.4-.3.6-.6.8-.2.3-.4.6-.6.8-.5.6-1 1.4-1.5 2-1 1.4-2 2.7-3 4.1-.5.6-1 1.2-1.7 1.6-.6.3-1.2 1-1.8 1.1-1.2.2-2-1.6-2.2-2.6-.4-1.9-.1-3.6.7-5.1zm16 3.1c.3-.6.6-1.2 1-1.8.2-.4.4-.9.6-1.3.5-.8 1-1.7 1.5-2.5.7-1 1.5-2 2.3-3 .6-.7 1.2-1.4 1.7-2.2.6-.9 1.3-1.5 1.8-2.3.5-.7 1-1.5 1.6-2.4.4-.6 1-1.3 1.4-2 .5-.8.7-1.6 1-2.4.2-.4.2-.6.2-1 0-.2-.2-1-.1-1.2.4-.7 1.1 1.3 1.2 1.5.5 1.8-.1 3.6-.5 5.4-.4 1.8-1.2 3.4-1.9 5.1-.8 2-1.6 3-2.5 4.5-1 1.7-1.8 2.3-1.8 2.3-.6.7-1.3 1-2 1.6-1.2 1-2.2 2.2-3.4 3.2-.3.2-.6.5-.8.7-.2.2-.5.3-.9.5-.3.1-.6.2-.9 0-.4-.6.1-2 .5-2.7zm6.8 1.9c.2-.6.4-1 .7-1.6.2-.3.2-.6.5-.9.2-.3.9-1.2.9-1.3.2-.4.4-.6.6-.9 1.3-1.8 2.4-3.7 3.8-5.3.2-.3.5-.6.6-.9.2-.3.6-.6.8-1 .5-.6 1-1.3 1.3-1.8l2.1-3c.2-.2.7-1 1-1.6.2-.3.3-.6.4-.8 0 0 .2-.3.2-.4.1-.2.2-.4.2-.6.3-.6.5-1 .6-1.6.2-.6.5-1.1.6-1.7s.1-1 .2-1.7c2-.3.5 6.7.2 7.7-1 3.3-2.2 6.6-4 9.5-.7 1-1.4 2.2-2.3 3.1-.2.2-.5.4-.6.6-.2.3-.6.6-.8.8-.6.6-1.2 1-1.8 1.5-.5.4-1.1.6-1.5 1.1-.5.4-1.1.6-1.7 1.1l-1.5 1.2c-.5.3-1 .7-1.5.6-.3.3 1-1.9 1-2.1zm6.1 10.4c.4-1 .9-1.9 1.4-2.8.4-.6 1-1.3 1.5-1.8.6-.7 1-1.3 1.7-1.9.8-.8 1.5-1.5 2.4-2.2.4-.3.8-.6 1-1 .3-.3.2-.6.2-1.1.1-.8.1-1.7.2-2.5.4-1.7 1-3.2 1.5-4.8.2-.6.4-1.4.6-2 .2-.6.4-1.4.6-2.1.2-.6.4-1.1.6-1.7.2-.8.2-2.1-.6-2.5-.2-.2-.6-.1-.7-.3.1-.7 1.4-.2 1.8.1.5.4.9 1 1 1.7.2.7.2 1.6.2 2.4 0 .6 0 1.5-.2 2.8-.1.8-.2 1.6-.5 2.4-.2.9-.3 1.8-.5 2.6-.1.2-.2.9-.1 1 .2.2.6-.1.8-.2.6-.4 1.1-1 1.7-1.4.5-.4.6-.6 1.1-1 .5-.4 1-.8 1.4-1.2.4-.3.8-.6 1.2-1l.7-.7c1.2-1.1 2.4-2.2 3.6-3.4.5-.5 1-.9 1.4-1.4.5-.5.4-1.1.6-1.8.2-.6 1.3-.3 1.6.2.4.6.4 1.6.2 2.2-.5 1.4-1.4 2.7-2.2 3.9-1 1.4-1.9 3.1-3.1 4.4-1.4 1.4-2.5 3.1-3.9 4.5-.6.6-1.3 1.4-1.9 1.9-.6.6-1.5 1-2.2 1.4-1.8 1-3.7 2-5.5 3-1 .5-1.8 1-2.8 1.5-.7.4-1.4.8-2 1.4-.6.6-1.3 1.2-1.9 1.8-.2.2-.8.8-1.1.8-.4.3.1-.8.2-1.2z"/></svg><svg id="Reform" width="171.7" height="27.4" viewBox="0 0 171.7 27.4" y="39" xmlns="http://www.w3.org/2000/svg"><style>.bst0{fill:#ed1616}</style><path class="bst0" d="M129 27.4h28c.1 0 1.4 0 2-1.4l1.2-2.4h-9v-6.1c0-.5-.4-.9-.9-.9h-.4c-.5 0-1 .4-1 .9v6l-.3.1h-10.2V6.3l-10.2 21-.1.1h.9zm22.2-20.8c0-.5-.4-.9-.9-.9h-.4c-.5 0-1 .4-1 .9v2.5c0 .5.4.9 1 .9h.4c.5 0 .9-.4.9-.9V6.6z"/><path class="bst0" d="M144.7 14.3h14.7c1.2 0 2.2 1 2.2 2.1v4.5l9.9-19.8c.1-.2.2-.6.1-.9-.2-.2-.4-.2-.6-.2h-28c-.1 0-1.4 0-2 1.4l-1 2.1h19.5c1.2 0 2.2 1 2.2 2.1v4.6c0 1.1-1 2.1-2.2 2.1h-14.7c-.5 0-1 .4-1 .9v.3c0 .4.4.8.9.8zM15.9 23.4l.2-.3v-6.9l-.1-.4-.2-.2-.3-.3-.4-.1-.4-.2c-.6 0-1.1 0-1.7-.1-.6 0-1.1-.1-1.7-.1h-.1l-.6-.5-.2-.2V13.3l.3-.4.4-.2h1.7c.6-.1 1.1-.1 1.8-.1l.3-.1.5-.2.1-.2.2-.2v-.1c0-.1.1-.2.2-.3V5.8l-.1-.4V5l-.3-.3-.5-.3-.2-.1-.2-.1H1.3l-.3.2H.9c-.1.1-.2.2-.3.2 0 0-.1.1-.2.1l-.2.4c-.1.2-.1.3-.2.4v17.1l.2.6c0 .1.1.2.2.2.1.1.1.2.2.2l.2.2.3.2h4.6l.3-.1.4-.2.4-.5c.1-.2.1-.2.2-.5v-6c.1-.3.2-.6.2-.8l.1-.1.4-.2.6-.1.6.3.1.4.1.4v5.8c0 .1.1.2.1.3s0 .2.1.2l.3.6.2.2.4.2.8.1h3.9l.5-.2.2-.2c.1 0 .2-.1.3-.2zM8.8 12.2l-.5.2h-.5l-.5-.2-.2-.3c-.1 0-.1-.2-.2-.3l.1-.3V7.8l.2-.4.2-.2.4-.2h.7l.3.2.1.1c.1.2.2.5.3.8v3.6l-.4.5zm25.4 11.4l.2-.3.1-.2v-2.2c0-.2 0-.3-.1-.5l-.4-.6v-.1c-.1-.1-.2-.2-.3-.2h-.1c-.3 0-.6-.1-1-.1-.2 0-.8 0-1.7-.1-.7 0-1.8-.1-3-.1h-.1l-.3-.1-.5-.5-.1-.4c-.1-.1-.1-.3-.1-.7v-.1l.3-.6c.2-.2.3-.3.6-.5l.2-.1c1-.1 2.2-.1 3.2-.2.8 0 1.5-.1 2.3-.1l.4-.2s.1-.1.2-.1c.1-.1.2-.1.2-.2l.2-.5v-2.6l-.1-.2s0-.1-.1-.1c-.1-.1-.1-.2-.2-.2v.2s-.2-.1-.4-.1c-1.4-.1-2.9-.1-4.3-.1h-.6l-.7-.1-.6-.2-.7-.5V9.5l.5-.5.5-.1.5-.2H33l.6-.2c.2-.1.3-.2.6-.2l.1-.3.2-.5V5.6l-.1-.5c-.1-.1-.2-.1-.2-.3l-.1-.2-.4-.3-.7-.1H20.6l-.3.1-.4.6-.3.6V23l.1.4.3.4.4.2.2.1h12.9l.3-.2.4-.3zm13.4-7.4c.9 0 1.6-.1 2.1-.1.6 0 1.1 0 1.3-.1.4 0 .7 0 1-.1l.2-.2.4-.4.2-.2c0-.2.1-.4.2-.6v-1.8h-.1c-.1-.1-.2-.2-.3-.4l-.4-.3-.5-.2h-3.9l-1-.2-.3-.3-.1-.2V10l.1-.3v-.3L47 9h.4c.1 0 .2 0 .2-.1 1-.1 2-.1 3-.2l1.2-.1.3-.1.3-.2.2-.2c0-.1.1-.2.3-.3l.1-.4V5.2c0-.1 0-.1-.1-.2l-.3-.3-.6-.4h-.1c-.1 0-.2 0-.3-.1H39.4l-.3.1-.3.2c-.1.1-.2.2-.4.3l-.2.2-.1.2-.1.4v17.1l.2.5.5.6c.2.1.4.2.6.2H45l.5-.2c.1-.1.2-.2.5-.3l.2-.3.2-.3v-2.7c0-.8 0-1.7.1-2.7l.2-.6.6-.6c0 .1.1 0 .3-.1zm25.2 6.4v-.5l.1-.6V5.9c-.1-.2-.1-.2-.2-.3v-.2l-.1-.2-.3-.4-.3-.3-.2-.2H58.2c-.2 0-.4.1-.6.1l-.1.1c-.2.1-.3.2-.5.3l-.3.3-.2.4-.1.3v17l.3.8.3.2.3.2.9.2h13.2l.5-.2c.2-.2.5-.4.6-.5l.3-.9zm-7.1-2.4l-.1.5-.5.4h-.7l-.6-.4c-.2-.2-.2-.4-.3-.6V7.8l.1-.3.5-.5h.8l.5.2.3.6v12.4zm19.7 2.2c.1.2.1.3.1.4v.2l.3.6.3.3.2.1.8.2H91l.5-.2.2-.1c.1-.1.1-.2.2-.2l.2-.2.2-.3v-6.9l-.1-.3-.5-.6-.4-.2-.5-.2c-.6 0-1.1 0-1.7-.1h-.4c-.4 0-.9-.1-1.3-.1h-.1l-.6-.4-.2-.2V13.4l.3-.4.4-.2h1.7c.6 0 1.1-.1 1.6-.1h.1l.3-.1.4-.2.1-.1.2-.2.1-.1c0-.1.1-.2.2-.3V9c-.1-.6-.1-1.1 0-1.8.1-1.4.1-2.2-1.3-2.5l-.2-.1H77.2l-.2.1h-.2c-.1.1-.2.1-.2.2-.1.1-.2.1-.3.1l-.3.5c-.1.2-.1.3-.1.3v17l.2.6c0 .1.2.3.2.4l.3.3.3.2.4.1h4.2l.2-.1.4-.2.2-.4c.1-.2.1-.3.2-.6v-6c.1-.3.2-.6.2-.8l.1-.1.4-.2.6-.1.6.3.2.4.1.4v2.9c.7.7.7 1.6.7 2.5zM85 12.2l-.5.2H84l-.5-.2-.2-.2c-.1 0-.1-.2-.2-.5l-.1-.2V7.9l.2-.4.2-.2.5-.3.6.1.3.2.2.1c.2.2.2.5.3.7v3.6l-.3.5zm36.1 11.2l.2-.2v-.4l.1-.5V5.5l-.2-.4-.3-.4c-.1 0-.1-.1-.2-.1-.1-.1-.2-.2-.3-.2-.2 0-.2-.1-.3-.1-.1 0-.2-.1-.3-.1H95.7v18l.2.6.2.3.3.4.2.2.4.2.2.1h4.6l.4-.2.3-.3.2-.3V8l.3-.6.5-.3h.2c.2 0 .3.1.5.1h.1l.4.2.1.1c.2.3.2.6.3.9 0 2.5 0 5 .1 7.4v7.3c0 .1 0 .2.1.2 0 .1.1.2.1.2l.2.2c.1.1.2.2.3.2h.1l.6.2h4.8l.2-.1c.2-.1.3-.2.5-.3l.2-.3V23l.1-.2v-2.3c0-4.2.1-8.5.1-12.6v-.1l.3-.6.2-.2h.8l.3.2.2.1.2.6v7.2c0 2.1.1 4.6.1 7.2v.2l.1.1c0 .1.1.2.2.4l.2.3.2.3.4.3.2.1h4.5l.6-.2.1-.4z"/></svg></svg>