<?xml version="1.0" encoding="utf-8"?>
<!-- Generator: Adobe Illustrator 21.0.2, SVG Export Plug-In . SVG Version: 6.00 Build 0)  -->
<svg version="1.1" id="Layer_1" xmlns="http://www.w3.org/2000/svg" xmlns:xlink="http://www.w3.org/1999/xlink" x="0px" y="0px"
	 width="3664.9px" height="255.4px" viewBox="0 0 3664.9 255.4" style="enable-background:new 0 0 3664.9 255.4;"
	 xml:space="preserve">
<style type="text/css">
	.st0{fill:#FFFFFF;}
</style>
<path class="st0" d="M2211.4,255.4h2.7l1-0.4h28.7l-1,0.4h2.7l1-0.4h973.7l1,0.4h2.7l-1-0.4h28.7l1,0.4h2.7l-1-0.4h31.4L2733.5,32
	l-0.2-0.1l-549.9,222l-2.4,1h31.4L2211.4,255.4z M2248.9,254l484.4-195.6L3217.6,254H2248.9z M3220.3,254L2733.5,57.4l-0.2-0.1
	l-487,196.7h-28.7l515.7-208.3L3249,254H3220.3z M2186.2,254l547.1-221l547.1,221h-28.7L2733.5,44.7l-0.2-0.1L2214.9,254H2186.2z"/>
<path class="st0" d="M946.8,67.5l465.3,187.9h-2.7L946.7,68.5L483.9,255.4h-2.7L946.8,67.5L946.8,67.5z M946.7,54.8L449.8,255.4h2.7
	L946.7,55.9l494.2,199.5h2.7L946.7,54.8L946.7,54.8z M421.1,255.4L946.7,43.2l525.5,212.2h2.7l-528-213.2l-0.2-0.1L418.5,255.4
	H421.1z"/>
<polygon class="st0" points="3664.9,254 3019.5,44.5 2686.1,179.2 2402.5,64.7 2335,92 2107.2,0 1832.4,111 1557.5,0 1300.8,103.6 
	1229.1,74.7 984.8,173.3 594,15.5 0,255.4 "/>
</svg>
