<?xml version="1.0" encoding="utf-8"?>
<!-- Generator: Adobe Illustrator 21.1.0, SVG Export Plug-In . SVG Version: 6.00 Build 0)  -->
<svg version="1.1" id="Layer_1" xmlns="http://www.w3.org/2000/svg" xmlns:xlink="http://www.w3.org/1999/xlink" x="0px" y="0px"
	 width="1022.4px" height="230.2px" viewBox="0 0 1022.4 230.2" style="enable-background:new 0 0 1022.4 230.2;"
	 xml:space="preserve">
<style type="text/css">
	.st0{clip-path:url(#SVGID_2_);}
	.st1{fill:#BDBBBB;}
	.st2{fill:#B3B3B3;}
	.st3{fill:#222222;}
	.st4{fill:#FFFFFF;}
</style>
<g>
	<g>
		<defs>
			<rect id="SVGID_1_" width="1022.4" height="230.2"/>
		</defs>
		<clipPath id="SVGID_2_">
			<use xlink:href="#SVGID_1_"  style="overflow:visible;"/>
		</clipPath>
		<g class="st0">
			<g>
				<g>
					<g>
						
							<rect x="-109.3" y="156.7" transform="matrix(0.9268 -0.3756 0.3756 0.9268 -42.92 93.9806)" class="st1" width="657.8" height="0.8"/>
					</g>
					<g>
						
							<rect x="-86.2" y="156.7" transform="matrix(0.9215 -0.3885 0.3885 0.9215 -42.8296 102.3289)" class="st1" width="635.7" height="0.8"/>
					</g>
					<g>
						
							<rect x="-63.2" y="156.7" transform="matrix(0.9156 -0.4021 0.4021 0.9156 -42.5967 111.2575)" class="st1" width="613.7" height="0.8"/>
					</g>
					<g>
						
							<rect x="-40.2" y="156.7" transform="matrix(0.9086 -0.4177 0.4177 0.9086 -42.2342 121.1617)" class="st1" width="591.9" height="0.8"/>
					</g>
					<g>
						
							<rect x="-17.4" y="156.7" transform="matrix(0.901 -0.4339 0.4339 0.901 -41.6415 131.712)" class="st1" width="570.3" height="0.8"/>
					</g>
					<g>
						
							<rect x="5.3" y="156.7" transform="matrix(0.8929 -0.4503 0.4503 0.8929 -40.765 142.8159)" class="st1" width="548.9" height="0.8"/>
					</g>
					<g>
						
							<rect x="28" y="156.6" transform="matrix(0.8836 -0.4682 0.4682 0.8836 -39.5672 154.8974)" class="st1" width="527.6" height="0.8"/>
					</g>
					<g>
						
							<rect x="50.6" y="156.6" transform="matrix(0.8732 -0.4874 0.4874 0.8732 -38.0082 168.0012)" class="st1" width="506.6" height="0.8"/>
					</g>
					<g>
						
							<rect x="73" y="156.6" transform="matrix(0.861 -0.5086 0.5086 0.861 -35.9643 182.4837)" class="st1" width="485.8" height="0.8"/>
					</g>
					<g>
						
							<rect x="95.2" y="156.6" transform="matrix(0.8473 -0.5311 0.5311 0.8473 -33.3359 198.1163)" class="st1" width="465.4" height="0.8"/>
					</g>
					<g>
						
							<rect x="117.3" y="156.6" transform="matrix(0.8321 -0.5547 0.5547 0.8321 -30.014 214.9507)" class="st1" width="445.3" height="0.8"/>
					</g>
					<g>
						
							<rect x="139.2" y="156.6" transform="matrix(0.8145 -0.5801 0.5801 0.8145 -25.8162 233.3324)" class="st1" width="425.6" height="0.8"/>
					</g>
					<g>
						
							<rect x="160.8" y="156.6" transform="matrix(0.7946 -0.6072 0.6072 0.7946 -20.5754 253.2656)" class="st1" width="406.4" height="0.8"/>
					</g>
					<g>
						
							<rect x="182.2" y="156.6" transform="matrix(0.7713 -0.6365 0.6365 0.7713 -13.9426 275.2823)" class="st1" width="387.7" height="0.8"/>
					</g>
					<g>
						
							<rect x="203.3" y="156.6" transform="matrix(0.7442 -0.668 0.668 0.7442 -5.6182 299.4107)" class="st1" width="369.6" height="0.8"/>
					</g>
					<g>
						
							<rect x="224" y="156.6" transform="matrix(0.7129 -0.7012 0.7012 0.7129 4.7375 325.6527)" class="st1" width="352.2" height="0.8"/>
					</g>
					<g>
						
							<rect x="244.4" y="156.6" transform="matrix(0.6762 -0.7367 0.7367 0.6762 17.7719 354.5128)" class="st1" width="335.5" height="0.8"/>
					</g>
					<g>
						
							<rect x="264.2" y="156.6" transform="matrix(0.6349 -0.7726 0.7726 0.6349 33.5223 385.0154)" class="st1" width="319.8" height="0.8"/>
					</g>
					<g>
						
							<rect x="283.6" y="156.6" transform="matrix(0.5876 -0.8092 0.8092 0.5876 52.8061 417.6872)" class="st1" width="305.2" height="0.8"/>
					</g>
					<g>
						
							<rect x="302.3" y="156.6" transform="matrix(0.5315 -0.8471 0.8471 0.5315 76.9628 453.2287)" class="st1" width="291.8" height="0.8"/>
					</g>
					<g>
						
							<rect x="320.3" y="156.6" transform="matrix(0.469 -0.8832 0.8832 0.469 105.7034 489.8857)" class="st1" width="279.8" height="0.8"/>
					</g>
					<g>
						
							<rect x="337.6" y="156.6" transform="matrix(0.3985 -0.9172 0.9172 0.3985 140.0396 527.6157)" class="st1" width="269.4" height="0.8"/>
					</g>
					<g>
						
							<rect x="353.9" y="156.6" transform="matrix(0.3203 -0.9473 0.9473 0.3203 180.387 565.4977)" class="st1" width="260.8" height="0.8"/>
					</g>
					<g>
						
							<rect x="369.2" y="156.6" transform="matrix(0.2345 -0.9721 0.9721 0.2345 227.2804 602.7001)" class="st1" width="254.1" height="0.8"/>
					</g>
					<g>
						
							<rect x="383.6" y="156.6" transform="matrix(0.1427 -0.9898 0.9898 0.1427 280.4073 637.7988)" class="st1" width="249.6" height="0.8"/>
					</g>
					<g>
						
							<rect x="396.7" y="156.6" transform="matrix(4.886523e-02 -0.9988 0.9988 4.886523e-02 338.0802 669.1047)" class="st1" width="247.3" height="0.8"/>
					</g>
					<g>
						
							<rect x="532" y="33.4" transform="matrix(0.9988 -4.851788e-02 4.851788e-02 0.9988 -6.9922 26.0159)" class="st1" width="0.8" height="247.3"/>
					</g>
					<g>
						
							<rect x="544" y="32.2" transform="matrix(0.9896 -0.1439 0.1439 0.9896 -16.9286 79.9989)" class="st1" width="0.8" height="249.6"/>
					</g>
					<g>
						
							<rect x="556.1" y="29.9" transform="matrix(0.9719 -0.2355 0.2355 0.9719 -21.3219 135.4615)" class="st1" width="0.8" height="254.1"/>
					</g>
					<g>
						
							<rect x="568.1" y="26.6" transform="matrix(0.9471 -0.3209 0.3209 0.9471 -20.3154 190.7411)" class="st1" width="0.8" height="260.8"/>
					</g>
					<g>
						
							<rect x="580.1" y="22.3" transform="matrix(0.9168 -0.3994 0.3994 0.9168 -14.3897 244.947)" class="st1" width="0.8" height="269.4"/>
					</g>
					<g>
						
							<rect x="592.2" y="17.1" transform="matrix(0.8826 -0.4701 0.4701 0.8826 -4.2541 296.9615)" class="st1" width="0.8" height="279.8"/>
					</g>
					<g>
						
							<rect x="604.2" y="11.1" transform="matrix(0.8464 -0.5325 0.5325 0.8464 9.2367 346.0288)" class="st1" width="0.8" height="291.8"/>
					</g>
					<g>
						
							<rect x="616.2" y="4.4" transform="matrix(0.8092 -0.5875 0.5875 0.8092 25.3862 392.1822)" class="st1" width="0.8" height="305.2"/>
					</g>
					<g>
						
							<rect x="628.2" y="-2.9" transform="matrix(0.7722 -0.6354 0.6354 0.7722 43.448 435.186)" class="st1" width="0.8" height="319.8"/>
					</g>
					<g>
						
							<rect x="640.2" y="-10.7" transform="matrix(0.7362 -0.6768 0.6768 0.7362 62.7612 475.0012)" class="st1" width="0.8" height="335.5"/>
					</g>
					<g>
						
							<rect x="652.3" y="-19" transform="matrix(0.7014 -0.7128 0.7128 0.7014 82.9843 512.087)" class="st1" width="0.8" height="352.1"/>
					</g>
					<g>
						
							<rect x="664.3" y="-27.7" transform="matrix(0.6684 -0.7438 0.7438 0.6684 103.6175 546.4317)" class="st1" width="0.8" height="369.5"/>
					</g>
					<g>
						
							<rect x="676.3" y="-36.8" transform="matrix(0.6372 -0.7707 0.7707 0.6372 124.5278 578.524)" class="st1" width="0.8" height="387.6"/>
					</g>
					<g>
						
							<rect x="688.4" y="-46.2" transform="matrix(0.6078 -0.7941 0.7941 0.6078 145.4505 608.5018)" class="st1" width="0.8" height="406.3"/>
					</g>
					<g>
						
							<rect x="700.4" y="-55.7" transform="matrix(0.5804 -0.8143 0.8143 0.5804 166.1774 636.5153)" class="st1" width="0.8" height="425.5"/>
					</g>
					<g>
						
							<rect x="712.4" y="-65.6" transform="matrix(0.5547 -0.832 0.832 0.5547 186.753 662.9714)" class="st1" width="0.8" height="445.2"/>
					</g>
					<g>
						
							<rect x="724.4" y="-75.6" transform="matrix(0.5309 -0.8475 0.8475 0.5309 206.9796 687.8915)" class="st1" width="0.8" height="465.2"/>
					</g>
					<g>
						
							<rect x="736.4" y="-85.9" transform="matrix(0.5085 -0.8611 0.8611 0.5085 226.9823 711.6249)" class="st1" width="0.8" height="485.7"/>
					</g>
					<g>
						
							<rect x="748.4" y="-96.2" transform="matrix(0.4877 -0.873 0.873 0.4877 246.5517 734.1454)" class="st1" width="0.8" height="506.4"/>
					</g>
					<g>
						
							<rect x="760.4" y="-106.7" transform="matrix(0.4683 -0.8836 0.8836 0.4683 265.8433 755.7524)" class="st1" width="0.8" height="527.4"/>
					</g>
					<g>
						
							<rect x="772.4" y="-117.3" transform="matrix(0.4502 -0.8929 0.8929 0.4502 284.7275 776.4164)" class="st1" width="0.8" height="548.6"/>
					</g>
					<g>
						
							<rect x="784.5" y="-128" transform="matrix(0.4332 -0.9013 0.9013 0.4332 303.3406 796.3787)" class="st1" width="0.8" height="570"/>
					</g>
					<g>
						
							<rect x="796.5" y="-138.8" transform="matrix(0.4174 -0.9087 0.9087 0.4174 321.6276 815.6556)" class="st1" width="0.8" height="591.7"/>
					</g>
					<g>
						
							<rect x="832.6" y="-171.7" transform="matrix(0.3755 -0.9268 0.9268 0.3755 374.6772 870.0068)" class="st1" width="0.8" height="657.4"/>
					</g>
					<g>
						
							<rect x="808.5" y="-149.7" transform="matrix(0.4025 -0.9154 0.9154 0.4025 339.6589 834.2944)" class="st1" width="0.8" height="613.4"/>
					</g>
					<g>
						
							<rect x="820.6" y="-160.7" transform="matrix(0.3886 -0.9214 0.9214 0.3886 357.3382 852.4213)" class="st1" width="0.8" height="635.4"/>
					</g>
				</g>
			</g>
			<g>
				<g>
					<g>
						<g>
							<path class="st2" d="M541.7,18.6h-32.4c-1.1,0-1.9-0.9-1.9-1.9l1.2-13.9c0-1,0.9-1.9,1.9-1.9h29.9c1.1,0,1.9,0.9,1.9,1.9
								l1.2,13.8c0,0.5-0.1,1-0.5,1.3C542.7,18.3,542.2,18.6,541.7,18.6z M510.5,1.7c-0.5,0-1.1,0.4-1.1,1.1l-1.2,13.9
								c0,0.5,0.4,1.1,1.1,1.1h32.4c0.3,0,0.6-0.1,0.8-0.4c0.2-0.2,0.3-0.5,0.3-0.7l-1.2-13.8c0-0.6-0.4-1.2-1.1-1.2H510.5z"/>
						</g>
						<g>
							<path class="st2" d="M534.2,15.5h-17.5c-2.7,0-5-2.3-5-5V7.9c0-2.7,2.3-5,5-5h17.5c2.7,0,5,2.3,5,5v2.7
								C539.2,13.3,537,15.5,534.2,15.5z M516.7,3.8c-2.3,0-4.2,1.9-4.2,4.2v2.6c0,2.3,1.9,4.2,4.2,4.2h17.5c2.3,0,4.2-1.8,4.2-4.1
								V7.9c0-2.3-1.9-4.2-4.2-4.2H516.7z"/>
						</g>
						<g>
							<g>
								<path class="st2" d="M510.5,7.6c-0.7,0-1.2-0.5-1.2-1.2s0.5-1.2,1.2-1.2s1.2,0.5,1.2,1.2S511.1,7.6,510.5,7.6z M510.5,6
									c-0.2,0-0.4,0.2-0.4,0.4s0.2,0.4,0.4,0.4s0.4-0.2,0.4-0.4S510.7,6,510.5,6z"/>
							</g>
							<g>
								<path class="st2" d="M510.2,9.9c-0.7,0-1.2-0.5-1.2-1.2c0-0.7,0.5-1.2,1.2-1.2s1.2,0.5,1.2,1.2
									C511.4,9.4,510.9,9.9,510.2,9.9z M510.2,8.3c-0.2,0-0.4,0.2-0.4,0.4s0.2,0.4,0.4,0.4s0.4-0.2,0.4-0.4S510.5,8.3,510.2,8.3z"
									/>
							</g>
						</g>
						<g>
							<g>
								<path class="st2" d="M540.6,7.6c-0.7,0-1.2-0.5-1.2-1.2s0.5-1.2,1.2-1.2c0.7,0,1.2,0.5,1.2,1.2S541.2,7.6,540.6,7.6z
									 M540.6,6c-0.2,0-0.4,0.2-0.4,0.4s0.2,0.4,0.4,0.4c0.2,0,0.4-0.2,0.4-0.4S540.8,6,540.6,6z"/>
							</g>
							<g>
								<path class="st2" d="M540.7,9.9c-0.7,0-1.2-0.5-1.2-1.2c0-0.7,0.5-1.2,1.2-1.2c0.7,0,1.2,0.5,1.2,1.2
									C541.9,9.4,541.4,9.9,540.7,9.9z M540.7,8.3c-0.2,0-0.4,0.2-0.4,0.4s0.2,0.4,0.4,0.4c0.2,0,0.4-0.2,0.4-0.4
									S540.9,8.3,540.7,8.3z"/>
							</g>
						</g>
						<g>
							<path class="st2" d="M511.3,4.9c-0.8,0-1.4-0.6-1.4-1.4c0-0.7,0.6-1.4,1.4-1.4c0.7,0,1.4,0.6,1.4,1.4
								C512.6,4.3,512,4.9,511.3,4.9z M511.3,3c-0.3,0-0.6,0.3-0.6,0.6c0,0.3,0.3,0.6,0.6,0.6c0.3,0,0.6-0.3,0.6-0.6
								C511.8,3.2,511.6,3,511.3,3z"/>
						</g>
						<g>
							<path class="st2" d="M539.5,4.9c-0.8,0-1.4-0.6-1.4-1.4c0-0.7,0.6-1.4,1.4-1.4c0.7,0,1.4,0.6,1.4,1.4
								C540.9,4.3,540.3,4.9,539.5,4.9z M539.5,3c-0.3,0-0.6,0.3-0.6,0.6c0,0.3,0.3,0.6,0.6,0.6s0.6-0.3,0.6-0.6
								C540.1,3.2,539.8,3,539.5,3z"/>
						</g>
					</g>
					<g>
						<path class="st3" d="M506.1,25.3v-7.7c0-5,6-4.9,6-4.9h12.5h1.8h12.5c0,0,6-0.1,6,4.9v6.6"/>
						<path class="st2" d="M506.1,25.7c-0.2,0-0.4-0.2-0.4-0.4v-7.7c0-1.4,0.5-2.6,1.4-3.5c1.9-1.8,4.9-1.8,5-1.8h26.7
							c0.1,0,3.2,0,5,1.8c0.9,0.9,1.4,2.1,1.4,3.5v6.6c0,0.2-0.2,0.4-0.4,0.4c-0.2,0-0.4-0.2-0.4-0.4v-6.6c0-1.2-0.4-2.2-1.1-2.9
							c-1.6-1.6-4.4-1.6-4.5-1.6h-26.7c0,0-2.9,0-4.5,1.6c-0.7,0.7-1.1,1.7-1.1,2.9v7.7C506.5,25.5,506.3,25.7,506.1,25.7z"/>
					</g>
					<g>
						<g>
							<g>
								<rect x="514.7" y="7" class="st3" width="2.7" height="5.7"/>
								<path class="st2" d="M517.4,13.1h-2.7c-0.2,0-0.4-0.2-0.4-0.4V7c0-0.2,0.2-0.4,0.4-0.4h2.7c0.2,0,0.4,0.2,0.4,0.4v5.7
									C517.8,12.9,517.7,13.1,517.4,13.1z M515.1,12.3h1.9V7.4h-1.9V12.3z"/>
							</g>
							<g>
								<rect x="515" y="3" class="st3" width="2.2" height="4.1"/>
								<path class="st2" d="M517.2,7.4H515c-0.2,0-0.4-0.2-0.4-0.4V3c0-0.2,0.2-0.4,0.4-0.4h2.2c0.2,0,0.4,0.2,0.4,0.4V7
									C517.6,7.3,517.4,7.4,517.2,7.4z M515.4,6.6h1.4V3.4h-1.4V6.6z"/>
							</g>
							<g>
								<circle class="st3" cx="516.1" cy="3" r="1.1"/>
								<path class="st2" d="M516.1,4.5c-0.8,0-1.5-0.7-1.5-1.5s0.7-1.5,1.5-1.5c0.8,0,1.5,0.7,1.5,1.5S516.9,4.5,516.1,4.5z
									 M516.1,2.2c-0.4,0-0.7,0.3-0.7,0.7c0,0.4,0.3,0.7,0.7,0.7c0.4,0,0.7-0.3,0.7-0.7C516.8,2.6,516.5,2.2,516.1,2.2z"/>
							</g>
						</g>
						<g>
							<g>
								<g>
									<path class="st2" d="M515.5,9h-0.4c-0.2,0-0.4-0.2-0.4-0.4c0-0.2,0.2-0.4,0.4-0.4h0.4c0.2,0,0.4,0.2,0.4,0.4
										C515.9,8.9,515.7,9,515.5,9z"/>
								</g>
								<g>
									<path class="st2" d="M517,9h-0.4c-0.2,0-0.4-0.2-0.4-0.4c0-0.2,0.2-0.4,0.4-0.4h0.4c0.2,0,0.4,0.2,0.4,0.4
										C517.4,8.9,517.2,9,517,9z"/>
								</g>
							</g>
						</g>
						<g>
							<g>
								<g>
									<path class="st2" d="M515.5,10h-0.4c-0.2,0-0.4-0.2-0.4-0.4c0-0.2,0.2-0.4,0.4-0.4h0.4c0.2,0,0.4,0.2,0.4,0.4
										C515.9,9.8,515.7,10,515.5,10z"/>
								</g>
								<g>
									<path class="st2" d="M517,10h-0.4c-0.2,0-0.4-0.2-0.4-0.4c0-0.2,0.2-0.4,0.4-0.4h0.4c0.2,0,0.4,0.2,0.4,0.4
										C517.4,9.8,517.2,10,517,10z"/>
								</g>
							</g>
						</g>
						<g>
							<g>
								<g>
									<path class="st2" d="M515.5,10.9h-0.4c-0.2,0-0.4-0.2-0.4-0.4c0-0.2,0.2-0.4,0.4-0.4h0.4c0.2,0,0.4,0.2,0.4,0.4
										C515.9,10.7,515.7,10.9,515.5,10.9z"/>
								</g>
								<g>
									<path class="st2" d="M517,10.9h-0.4c-0.2,0-0.4-0.2-0.4-0.4c0-0.2,0.2-0.4,0.4-0.4h0.4c0.2,0,0.4,0.2,0.4,0.4
										C517.4,10.7,517.2,10.9,517,10.9z"/>
								</g>
							</g>
						</g>
					</g>
					<g>
						<g>
							<g>
								<g>
									<path class="st2" d="M540.3,16.6h-3.1c-0.2,0-0.4-0.2-0.4-0.4v-0.8c0-0.2,0.2-0.4,0.4-0.4h3.1c0.2,0,0.4,0.2,0.4,0.4v0.8
										C540.7,16.4,540.5,16.6,540.3,16.6z"/>
								</g>
								<g>
									<path class="st2" d="M513.4,16.6h-3.1c-0.2,0-0.4-0.2-0.4-0.4v-0.8c0-0.2,0.2-0.4,0.4-0.4h3.1c0.2,0,0.4,0.2,0.4,0.4v0.8
										C513.8,16.4,513.6,16.6,513.4,16.6z"/>
								</g>
							</g>
						</g>
						<g>
							<g>
								<path class="st2" d="M542.2,20.5h-34.2c-0.2,0-0.4-0.2-0.4-0.4s0.2-0.4,0.4-0.4h34.2c0.2,0,0.4,0.2,0.4,0.4
									S542.5,20.5,542.2,20.5z"/>
							</g>
							<g>
								<path class="st2" d="M508.1,25.4c-0.2,0-0.4-0.2-0.4-0.4v-7c0-0.2,0.2-0.4,0.4-0.4s0.4,0.2,0.4,0.4v7
									C508.5,25.3,508.3,25.4,508.1,25.4z"/>
							</g>
							<g>
								<path class="st2" d="M542.2,25.4c-0.2,0-0.4-0.2-0.4-0.4v-6.9c0-0.2,0.2-0.4,0.4-0.4c0.2,0,0.4,0.2,0.4,0.4V25
									C542.6,25.2,542.5,25.4,542.2,25.4z"/>
							</g>
						</g>
					</g>
				</g>
				<g>
					<path class="st2" d="M580.2,51.6H470.6c-0.2,0-0.4-0.2-0.4-0.4c0-0.2,0.2-0.4,0.4-0.4h109.7c0.2,0,0.4,0.2,0.4,0.4
						C580.6,51.4,580.5,51.6,580.2,51.6z"/>
				</g>
				<g>
					<g>
						<path class="st2" d="M566,48.3h-29.4c-2.7,0-5-2.3-5-5V28.7c0-2.7,2.3-5,5-5H566c2.7,0,5,2.3,5,5v14.6
							C571,46.1,568.7,48.3,566,48.3z M536.6,24.6c-2.3,0-4.2,1.9-4.2,4.2v14.6c0,2.3,1.9,4.2,4.2,4.2H566c2.3,0,4.2-1.9,4.2-4.2
							V28.7c0-2.3-1.9-4.2-4.2-4.2H536.6z"/>
					</g>
					<g>
						<path class="st3" d="M574,46.6c0.4-0.7,0.6-1.6,0.6-2.6l0,0c0-2.6-1.6-4.6-3.6-4.6h-41.7v7.2H574z"/>
						<path class="st2" d="M574,47h-44.7c-0.2,0-0.4-0.2-0.4-0.4v-7.2c0-0.2,0.2-0.4,0.4-0.4H571c2.2,0,4,2.3,4,5
							c0,1.1-0.2,2-0.6,2.8C574.3,46.9,574.1,47,574,47z M529.7,46.2h44.1c0.3-0.6,0.4-1.3,0.4-2.2c0-2.3-1.4-4.2-3.2-4.2h-41.3
							V46.2z"/>
					</g>
					<g>
						<g>
							<path class="st2" d="M553.6,39.8h-3.1c-0.2,0-0.4-0.2-0.4-0.4v-5.2c0-0.2,0.2-0.4,0.4-0.4h3.1c0.2,0,0.4,0.2,0.4,0.4v5.2
								C554,39.6,553.8,39.8,553.6,39.8z M550.9,39h2.3v-4.4h-2.3V39z"/>
						</g>
						<g>
							<path class="st2" d="M559,39.8h-3.1c-0.2,0-0.4-0.2-0.4-0.4v-5.2c0-0.2,0.2-0.4,0.4-0.4h3.1c0.2,0,0.4,0.2,0.4,0.4v5.2
								C559.4,39.6,559.2,39.8,559,39.8z M556.2,39h2.3v-4.4h-2.3V39z"/>
						</g>
						<g>
							<path class="st2" d="M564.3,39.8h-3.1c-0.2,0-0.4-0.2-0.4-0.4v-5.2c0-0.2,0.2-0.4,0.4-0.4h3.1c0.2,0,0.4,0.2,0.4,0.4v5.2
								C564.7,39.6,564.5,39.8,564.3,39.8z M561.6,39h2.3v-4.4h-2.3V39z"/>
						</g>
						<g>
							<path class="st2" d="M565.4,34.5h-15.5c-0.2,0-0.4-0.2-0.4-0.4s0.2-0.4,0.4-0.4h15.5c0.2,0,0.4,0.2,0.4,0.4
								S565.6,34.5,565.4,34.5z"/>
						</g>
						<g>
							<path class="st2" d="M565.4,36.3h-15.5c-0.2,0-0.4-0.2-0.4-0.4s0.2-0.4,0.4-0.4h15.5c0.2,0,0.4,0.2,0.4,0.4
								S565.6,36.3,565.4,36.3z"/>
						</g>
						<g>
							<path class="st2" d="M565.4,38.1h-15.5c-0.2,0-0.4-0.2-0.4-0.4c0-0.2,0.2-0.4,0.4-0.4h15.5c0.2,0,0.4,0.2,0.4,0.4
								C565.8,37.9,565.6,38.1,565.4,38.1z"/>
						</g>
					</g>
					<g>
						<g>
							<path class="st2" d="M487.1,39.8H484c-0.2,0-0.4-0.2-0.4-0.4v-5.2c0-0.2,0.2-0.4,0.4-0.4h3.1c0.2,0,0.4,0.2,0.4,0.4v5.2
								C487.5,39.6,487.3,39.8,487.1,39.8z M484.4,39h2.3v-4.4h-2.3V39z"/>
						</g>
						<g>
							<path class="st2" d="M492.5,39.8h-3.1c-0.2,0-0.4-0.2-0.4-0.4v-5.2c0-0.2,0.2-0.4,0.4-0.4h3.1c0.2,0,0.4,0.2,0.4,0.4v5.2
								C492.9,39.6,492.7,39.8,492.5,39.8z M489.8,39h2.3v-4.4h-2.3V39z"/>
						</g>
						<g>
							<path class="st2" d="M497.8,39.8h-3.1c-0.2,0-0.4-0.2-0.4-0.4v-5.2c0-0.2,0.2-0.4,0.4-0.4h3.1c0.2,0,0.4,0.2,0.4,0.4v5.2
								C498.2,39.6,498.1,39.8,497.8,39.8z M495.1,39h2.3v-4.4h-2.3V39z"/>
						</g>
						<g>
							<path class="st2" d="M498.9,34.5h-15.5c-0.2,0-0.4-0.2-0.4-0.4s0.2-0.4,0.4-0.4h15.5c0.2,0,0.4,0.2,0.4,0.4
								S499.1,34.5,498.9,34.5z"/>
						</g>
						<g>
							<path class="st2" d="M498.9,36.3h-15.5c-0.2,0-0.4-0.2-0.4-0.4s0.2-0.4,0.4-0.4h15.5c0.2,0,0.4,0.2,0.4,0.4
								S499.1,36.3,498.9,36.3z"/>
						</g>
						<g>
							<path class="st2" d="M498.9,38.1h-15.5c-0.2,0-0.4-0.2-0.4-0.4c0-0.2,0.2-0.4,0.4-0.4h15.5c0.2,0,0.4,0.2,0.4,0.4
								C499.3,37.9,499.1,38.1,498.9,38.1z"/>
						</g>
					</g>
					<g>
						<g>
							<path class="st2" d="M545.5,34.6c-0.2,0-0.4-0.1-0.4-0.3c0-0.2,0.1-0.4,0.3-0.5l21.4-3.2c1.5-0.2,1.5-0.8,1.5-1v-0.2
								c0-0.5-0.7-0.7-1.4-0.7h-35.2c-0.9,0-2.1,0.4-2.6,1.3l-1.2,2.4c-0.1,0.2-0.3,0.3-0.5,0.2c-0.2-0.1-0.3-0.3-0.2-0.5l1.2-2.4
								c0.6-1.2,2.2-1.7,3.3-1.7h35.2c1.4,0,2.2,0.6,2.2,1.5v0.2c0,1-0.7,1.5-2.2,1.8L545.5,34.6C545.6,34.6,545.5,34.6,545.5,34.6z
								"/>
						</g>
						<g>
							<path class="st2" d="M547,34.2c0,0-0.1,0-0.1,0c-0.2-0.1-0.3-0.3-0.3-0.5l1.8-5.5c0.1-0.2,0.3-0.3,0.5-0.3
								c0.2,0.1,0.3,0.3,0.3,0.5l-1.8,5.5C547.4,34.1,547.2,34.2,547,34.2z"/>
						</g>
					</g>
					<g>
						<g>
							<path class="st2" d="M546.6,38.8c-0.2,0-0.3-0.1-0.4-0.2l-2-4.6c-0.2-0.5-0.9-1-1.5-1h-1c-0.1,0-0.3,0-0.4,0.2
								c-0.1,0.1-0.1,0.3,0,0.6l1.5,3.8c0.1,0.2,0,0.4-0.2,0.5c-0.2,0.1-0.4,0-0.5-0.2l-1.5-3.8c-0.2-0.5-0.1-1,0.1-1.3
								c0.2-0.3,0.6-0.5,1.1-0.5h1c0.9,0,1.8,0.8,2.2,1.5l2,4.7c0.1,0.2,0,0.4-0.2,0.5C546.7,38.8,546.6,38.8,546.6,38.8z"/>
						</g>
						<g>
							<g>
								<g>
									<path class="st2" d="M548.6,51.6c-0.1,0-0.1,0-0.2,0l-5.2-2.6l-5.2,2.6c-0.2,0.1-0.4,0-0.5-0.2c-0.1-0.2,0-0.4,0.2-0.5
										l5.4-2.7c0.1-0.1,0.2-0.1,0.4,0l5.4,2.7c0.2,0.1,0.3,0.3,0.2,0.5C548.8,51.5,548.7,51.6,548.6,51.6z"/>
								</g>
								<g>
									<path class="st2" d="M565.6,51.6c-0.1,0-0.1,0-0.2,0l-5.2-2.6l-5.1,2.6c-0.2,0.1-0.4,0-0.5-0.2c-0.1-0.2,0-0.4,0.2-0.5
										l5.3-2.7c0.1-0.1,0.2-0.1,0.4,0l5.4,2.7c0.2,0.1,0.3,0.3,0.2,0.5C565.9,51.5,565.7,51.6,565.6,51.6z"/>
								</g>
							</g>
							<g>
								<g>
									<rect x="527.8" y="46.6" class="st3" width="47.7" height="1.3"/>
									<path class="st2" d="M575.5,48.2h-47.7c-0.2,0-0.4-0.2-0.4-0.4v-1.3c0-0.2,0.2-0.4,0.4-0.4h47.7c0.2,0,0.4,0.2,0.4,0.4v1.3
										C575.9,48.1,575.7,48.2,575.5,48.2z M528.2,47.4h46.9V47h-46.9V47.4z"/>
								</g>
								<g>
									<rect x="543.2" y="46.6" class="st3" width="17.1" height="1.8"/>
									<path class="st2" d="M560.3,48.9h-17.1c-0.2,0-0.4-0.2-0.4-0.4v-1.8c0-0.2,0.2-0.4,0.4-0.4h17.1c0.2,0,0.4,0.2,0.4,0.4v1.8
										C560.7,48.7,560.5,48.9,560.3,48.9z M543.6,48.1h16.3v-1h-16.3V48.1z"/>
								</g>
								<g>
									<path class="st3" d="M528.6,36.2l15.8,1.5c1.9,0.2,2.9,0.8,3.7,1.8l4.5,7h-1.8l-4-5.8c-0.8-1-1.8-1.3-3.7-1.5L527,37.6"/>
									<path class="st2" d="M552.6,47h-1.8c-0.1,0-0.3-0.1-0.3-0.2l-4-5.8c-0.7-0.9-1.4-1.1-3.4-1.3L527,38
										c-0.2,0-0.4-0.2-0.4-0.4c0-0.2,0.2-0.4,0.4-0.4l16.1,1.6c1.8,0.2,3,0.5,4,1.7l3.9,5.7h0.8l-4.1-6.3
										c-0.6-0.8-1.4-1.4-3.4-1.7l-15.8-1.5c-0.2,0-0.4-0.2-0.4-0.4c0-0.2,0.2-0.4,0.4-0.4l15.8,1.5c1.9,0.2,3,0.8,4,2l4.5,7
										c0.1,0.1,0.1,0.3,0,0.4C552.8,46.9,552.7,47,552.6,47z"/>
								</g>
								<g>
									<polygon class="st3" points="553.2,48.5 551.8,48.6 550.3,48.5 550.3,46.6 553.2,46.6 									"/>
									<path class="st2" d="M551.8,49C551.7,49,551.7,49,551.8,49l-1.5-0.2c-0.2,0-0.4-0.2-0.4-0.4v-1.8c0-0.2,0.2-0.4,0.4-0.4
										h2.9c0.2,0,0.4,0.2,0.4,0.4v1.8c0,0.2-0.2,0.4-0.4,0.4L551.8,49C551.8,49,551.8,49,551.8,49z M553.2,48.5L553.2,48.5
										L553.2,48.5z M550.7,48.1l1,0.1l1-0.1V47h-2.1V48.1z"/>
								</g>
							</g>
						</g>
					</g>
					<g>
						<path class="st2" d="M579.2,50.8c-0.1,0-0.3-0.1-0.3-0.2c-0.8-1.4-1.3-2.6-1.6-3.4c-0.2-0.4-0.3-0.7-0.4-0.9
							c-0.3-0.7-0.8-0.9-0.8-0.9c-0.2-0.1-0.3-0.3-0.2-0.5c0.1-0.2,0.3-0.3,0.5-0.2c0.1,0,0.7,0.3,1.2,1.2c0.1,0.2,0.2,0.5,0.4,1
							c0.3,0.8,0.8,2,1.6,3.3c0.1,0.2,0,0.4-0.1,0.5C579.3,50.8,579.3,50.8,579.2,50.8z"/>
					</g>
					<g>
						<path class="st2" d="M514.2,48.3h-29.4c-2.7,0-5-2.3-5-5V28.7c0-2.7,2.3-5,5-5h29.4c2.7,0,5,2.3,5,5v14.6
							C519.2,46,516.9,48.3,514.2,48.3z M484.8,24.6c-2.3,0-4.2,1.9-4.2,4.2v14.6c0,2.3,1.9,4.2,4.2,4.2h29.4c2.3,0,4.2-1.9,4.2-4.2
							V28.7c0-2.3-1.9-4.2-4.2-4.2H484.8z"/>
					</g>
					<g>
						<path class="st3" d="M476.8,46.6c-0.4-0.7-0.6-1.6-0.6-2.6l0,0c0-2.6,1.6-4.6,3.6-4.6h41.7v7.2H476.8z"/>
						<path class="st2" d="M521.5,47h-44.7c-0.1,0-0.3-0.1-0.3-0.2c-0.4-0.7-0.6-1.7-0.6-2.8c0-2.8,1.8-5,4-5h41.7
							c0.2,0,0.4,0.2,0.4,0.4v7.2C521.9,46.8,521.7,47,521.5,47z M477,46.2h44.1v-6.4h-41.3c-1.8,0-3.2,1.9-3.2,4.2
							C476.6,44.9,476.8,45.6,477,46.2z"/>
					</g>
					<g>
						<g>
							<path class="st2" d="M505.3,34.6C505.3,34.6,505.2,34.6,505.3,34.6l-21.4-3.2c-1.4-0.2-2.2-0.8-2.2-1.8v-0.2
								c0-0.9,0.9-1.5,2.2-1.5h35.2c1.1,0,2.7,0.5,3.3,1.7l1.2,2.2c0.1,0.2,0,0.4-0.2,0.5c-0.2,0.1-0.4,0-0.5-0.2l-1.2-2.2
								c-0.5-0.9-1.7-1.3-2.6-1.3h-35.2c-0.7,0-1.4,0.2-1.4,0.7v0.2c0,0.2,0,0.8,1.5,1l21.4,3.2c0.2,0,0.4,0.2,0.3,0.5
								C505.6,34.5,505.5,34.6,505.3,34.6z"/>
						</g>
						<g>
							<path class="st2" d="M503.8,34.2c-0.2,0-0.3-0.1-0.4-0.3l-1.8-5.5c-0.1-0.2,0-0.4,0.3-0.5c0.2-0.1,0.4,0,0.5,0.3l1.8,5.5
								c0.1,0.2,0,0.4-0.3,0.5C503.8,34.2,503.8,34.2,503.8,34.2z"/>
						</g>
					</g>
					<g>
						<g>
							<path class="st2" d="M504.2,38.8c-0.1,0-0.1,0-0.2,0c-0.2-0.1-0.3-0.3-0.2-0.5l2-4.6c0.4-0.8,1.3-1.5,2.2-1.5h1
								c0.5,0,0.8,0.2,1.1,0.5c0.2,0.3,0.3,0.8,0.1,1.3l-1.5,3.9c-0.1,0.2-0.3,0.3-0.5,0.2c-0.2-0.1-0.3-0.3-0.2-0.5l1.5-3.8
								c0.1-0.2,0.1-0.4,0-0.6c-0.1-0.1-0.3-0.2-0.4-0.2h-1c-0.6,0-1.2,0.6-1.5,1.1l-2,4.6C504.5,38.7,504.4,38.8,504.2,38.8z"/>
						</g>
						<g>
							<g>
								<g>
									<path class="st2" d="M513,51.6c-0.1,0-0.1,0-0.2,0l-5.2-2.6l-5.1,2.6c-0.2,0.1-0.4,0-0.5-0.2c-0.1-0.2,0-0.4,0.2-0.5
										l5.3-2.7c0.1-0.1,0.2-0.1,0.4,0l5.4,2.7c0.2,0.1,0.3,0.3,0.2,0.5C513.2,51.5,513.1,51.6,513,51.6z"/>
								</g>
								<g>
									<path class="st2" d="M485.2,51.6c-0.1,0-0.3-0.1-0.4-0.2c-0.1-0.2,0-0.4,0.2-0.5l5.4-2.7c0.1-0.1,0.2-0.1,0.4,0l5.4,2.7
										c0.2,0.1,0.3,0.3,0.2,0.5c-0.1,0.2-0.3,0.3-0.5,0.2l-5.2-2.6l-5.2,2.6C485.3,51.6,485.3,51.6,485.2,51.6z"/>
								</g>
							</g>
							<g>
								<g>
									<rect x="475.3" y="46.6" class="st3" width="47.7" height="1.3"/>
									<path class="st2" d="M523,48.3h-47.7c-0.2,0-0.4-0.2-0.4-0.4v-1.3c0-0.2,0.2-0.4,0.4-0.4H523c0.2,0,0.4,0.2,0.4,0.4v1.3
										C523.4,48.1,523.2,48.3,523,48.3z M475.7,47.5h46.9V47h-46.9V47.5z"/>
								</g>
								<g>
									<rect x="490.5" y="46.6" class="st3" width="17.1" height="1.8"/>
									<path class="st2" d="M507.6,48.8h-17.1c-0.2,0-0.4-0.2-0.4-0.4v-1.8c0-0.2,0.2-0.4,0.4-0.4h17.1c0.2,0,0.4,0.2,0.4,0.4v1.8
										C508,48.6,507.8,48.8,507.6,48.8z M490.9,48h16.3v-1h-16.3V48z"/>
								</g>
								<g>
									<path class="st3" d="M522.2,36.2l-15.8,1.6c-1.9,0.2-2.9,0.8-3.7,1.8l-4.5,7h1.8l4-5.8c0.8-1,1.8-1.3,3.7-1.5l16.1-1.6"/>
									<path class="st2" d="M500,47h-1.8c-0.1,0-0.3-0.1-0.4-0.2c-0.1-0.1-0.1-0.3,0-0.4l4.5-7c0.9-1.2,2-1.8,4-2l15.8-1.6
										c0.2,0,0.4,0.1,0.4,0.4c0,0.2-0.1,0.4-0.4,0.4l-15.8,1.6c-1.9,0.2-2.7,0.8-3.4,1.7l-4.1,6.3h0.8l3.9-5.7
										c0.9-1.2,2.1-1.5,4-1.7l16.1-1.6c0.2,0,0.4,0.1,0.4,0.4c0,0.2-0.1,0.4-0.4,0.4l-16.1,1.6c-1.9,0.2-2.7,0.5-3.4,1.4l-4,5.8
										C500.3,47,500.1,47,500,47z"/>
								</g>
								<g>
									<polygon class="st3" points="497.6,48.5 499.1,48.6 500.6,48.5 500.6,46.6 497.6,46.6 									"/>
									<path class="st2" d="M499.1,49C499.1,49,499.1,49,499.1,49l-1.6-0.2c-0.2,0-0.4-0.2-0.4-0.4v-1.8c0-0.2,0.2-0.4,0.4-0.4h3
										c0.2,0,0.4,0.2,0.4,0.4v1.8c0,0.2-0.2,0.4-0.4,0.4L499.1,49C499.1,49,499.1,49,499.1,49z M498,48.1l1.1,0.1l1-0.1V47H498
										V48.1z"/>
								</g>
							</g>
						</g>
					</g>
					<g>
						<g>
							<path class="st2" d="M586.7,51.9c-0.1,0-0.3-0.1-0.3-0.2c-0.1-0.2-0.1-0.4,0.1-0.5l0.8-0.5c0.1-0.1,0.3-0.1,0.4,0l0.5,0.3
								l0.5-0.3c0.1-0.1,0.3-0.1,0.4,0l0.5,0.3l0.5-0.3c0.1-0.1,0.3-0.1,0.4,0l0.6,0.3l0.2-0.1l-0.3-0.6l-5.5-1
								c-0.2,0-0.4-0.2-0.3-0.5c0-0.2,0.3-0.4,0.5-0.3l5.7,1c0.1,0,0.2,0.1,0.3,0.2l0.6,1c0.1,0.2,0.1,0.4-0.1,0.5l-0.7,0.5
								c-0.1,0.1-0.3,0.1-0.4,0l-0.6-0.4l-0.5,0.3c-0.1,0.1-0.3,0.1-0.4,0l-0.5-0.3l-0.5,0.3c-0.1,0.1-0.3,0.1-0.4,0l-0.5-0.3
								l-0.6,0.3C586.9,51.9,586.8,51.9,586.7,51.9z"/>
						</g>
						<g>
							<g>
								<path class="st2" d="M584.1,53.5c-0.1,0-0.2-0.1-0.3-0.2c-1.9-2.5-2.9-4.9-3.4-6.1c-0.1-0.4-0.3-0.7-0.3-0.8
									c-0.3-0.6-0.7-0.7-0.7-0.7c-0.2,0-0.4-0.2-0.3-0.5c0-0.2,0.2-0.4,0.4-0.3c0.1,0,0.8,0.1,1.3,1.1c0.1,0.2,0.2,0.5,0.4,0.9
									c0.5,1.2,1.4,3.5,3.3,5.9c0.1,0.2,0.1,0.4-0.1,0.6C584.2,53.5,584.2,53.5,584.1,53.5z"/>
							</g>
							<g>
								<path class="st2" d="M583.2,46.2C583.2,46.2,583.2,46.2,583.2,46.2l-1.5-0.2l-7.3-0.7c-0.2,0-0.4-0.2-0.4-0.4
									c0-0.2,0.2-0.4,0.4-0.4l8.7,0.9c0.2,0,0.4,0.2,0.4,0.4C583.6,46,583.4,46.2,583.2,46.2z"/>
							</g>
							<g>
								<path class="st2" d="M586.2,56.6H464.6c-2.2,0-3.1-0.2-3.4-0.8c-0.2-0.5,0.2-1.1,0.8-1.7c0.2-0.2,0.4-0.5,0.7-0.8
									c1.9-2.5,2.8-4.7,3.3-5.9c0.2-0.4,0.3-0.7,0.4-0.9c0.5-0.9,1.2-1.1,1.3-1.1l8.6-2.4c0.2-0.1,0.4,0.1,0.5,0.3
									c0.1,0.2-0.1,0.4-0.3,0.5l-8.6,2.4c-0.1,0-0.4,0.1-0.7,0.7c-0.1,0.2-0.2,0.5-0.4,0.8c-0.5,1.2-1.4,3.6-3.4,6.1
									c-0.2,0.3-0.5,0.6-0.7,0.8c-0.3,0.3-0.7,0.8-0.7,0.9c0,0,0.4,0.3,2.7,0.3h121.7c2.2,0,2.6-0.2,2.7-0.3
									c0-0.1-0.4-0.6-0.7-0.9c-0.2-0.3-0.5-0.5-0.7-0.8c-2-2.6-2.9-5-3.4-6.2c-0.1-0.3-0.2-0.6-0.3-0.7c-0.3-0.5-0.7-0.7-0.7-0.7
									l-8.6-2.4c-0.2-0.1-0.3-0.3-0.3-0.5c0.1-0.2,0.3-0.3,0.5-0.3l8.6,2.4c0.1,0,0.7,0.2,1.2,1.1c0.1,0.2,0.2,0.5,0.3,0.8
									c0.5,1.2,1.4,3.5,3.3,6c0.2,0.3,0.4,0.5,0.7,0.8c0.6,0.7,1.1,1.2,0.8,1.7C589.4,56.4,588.5,56.6,586.2,56.6z"/>
							</g>
							<g>
								<path class="st2" d="M466.7,53.5c-0.1,0-0.2,0-0.2-0.1c-0.2-0.1-0.2-0.4-0.1-0.6c1.9-2.5,2.8-4.7,3.3-5.9
									c0.2-0.4,0.3-0.7,0.4-0.9c0.5-0.9,1.2-1.1,1.3-1.1c0.2,0,0.4,0.1,0.5,0.3c0,0.2-0.1,0.4-0.3,0.5c0,0-0.4,0.1-0.7,0.7
									c-0.1,0.2-0.2,0.5-0.4,0.8c-0.5,1.2-1.4,3.6-3.4,6.1C467,53.5,466.8,53.5,466.7,53.5z"/>
							</g>
							<g>
								<path class="st2" d="M471.6,50.8c-0.1,0-0.1,0-0.2-0.1c-0.2-0.1-0.3-0.4-0.1-0.5c0.8-1.4,1.3-2.6,1.6-3.3
									c0.2-0.4,0.3-0.8,0.4-1c0.4-0.9,1.1-1.2,1.1-1.2c0.2-0.1,0.4,0,0.5,0.2c0.1,0.2,0,0.4-0.2,0.5c0,0-0.4,0.2-0.8,0.9
									c-0.1,0.2-0.2,0.5-0.4,0.9c-0.3,0.8-0.8,2-1.6,3.4C471.9,50.7,471.7,50.8,471.6,50.8z"/>
							</g>
							<g>
								<path class="st2" d="M467.7,46.2c-0.2,0-0.4-0.2-0.4-0.4c0-0.2,0.1-0.4,0.4-0.4l1.4-0.2l7.2-0.7c0.2,0,0.4,0.1,0.4,0.4
									c0,0.2-0.1,0.4-0.4,0.4L467.7,46.2C467.7,46.2,467.7,46.2,467.7,46.2z"/>
							</g>
						</g>
						<g>
							<path class="st2" d="M464.1,51.9c-0.1,0-0.2,0-0.2-0.1l-0.5-0.3l-0.6,0.3c-0.1,0.1-0.3,0.1-0.4,0l-0.5-0.3l-0.5,0.3
								c-0.1,0.1-0.3,0.1-0.4,0l-0.5-0.3l-0.5,0.3c-0.1,0.1-0.3,0.1-0.4,0l-0.8-0.5c-0.1-0.1-0.2-0.2-0.2-0.3s0-0.2,0.1-0.3l0.7-1
								c0.1-0.1,0.2-0.1,0.3-0.2l5.6-1c0.2,0,0.4,0.1,0.5,0.3c0,0.2-0.1,0.4-0.3,0.5l-5.4,1l-0.4,0.6l0.2,0.1l0.5-0.3
								c0.1-0.1,0.3-0.1,0.4,0l0.5,0.3l0.5-0.3c0.1-0.1,0.3-0.1,0.4,0l0.5,0.3l0.6-0.3c0.1-0.1,0.3-0.1,0.4,0l0.7,0.5
								c0.2,0.1,0.2,0.4,0.1,0.6C464.3,51.9,464.2,51.9,464.1,51.9z"/>
						</g>
					</g>
					<g>
						<g>
							<path class="st2" d="M532.8,55.8c-0.2,0-0.4-0.2-0.4-0.4v-0.8c0-0.2,0.2-0.4,0.4-0.4c0.2,0,0.4,0.2,0.4,0.4v0.8
								C533.2,55.6,533,55.8,532.8,55.8z M532.8,53.4c-0.2,0-0.4-0.2-0.4-0.4v-0.8c0-0.2,0.2-0.4,0.4-0.4c0.2,0,0.4,0.2,0.4,0.4V53
								C533.2,53.2,533,53.4,532.8,53.4z"/>
						</g>
						<g>
							<path class="st2" d="M546.3,55.8c-0.2,0-0.4-0.2-0.4-0.4v-0.8c0-0.2,0.2-0.4,0.4-0.4s0.4,0.2,0.4,0.4v0.8
								C546.7,55.6,546.5,55.8,546.3,55.8z M546.3,53.4c-0.2,0-0.4-0.2-0.4-0.4v-0.8c0-0.2,0.2-0.4,0.4-0.4s0.4,0.2,0.4,0.4V53
								C546.7,53.2,546.5,53.4,546.3,53.4z"/>
						</g>
						<g>
							<path class="st2" d="M559.8,55.8c-0.2,0-0.4-0.2-0.4-0.4v-0.8c0-0.2,0.2-0.4,0.4-0.4s0.4,0.2,0.4,0.4v0.8
								C560.2,55.6,560.1,55.8,559.8,55.8z M559.8,53.4c-0.2,0-0.4-0.2-0.4-0.4v-0.8c0-0.2,0.2-0.4,0.4-0.4s0.4,0.2,0.4,0.4V53
								C560.2,53.2,560.1,53.4,559.8,53.4z"/>
						</g>
						<g>
							<path class="st2" d="M573.4,55.8c-0.2,0-0.4-0.2-0.4-0.4v-0.8c0-0.2,0.2-0.4,0.4-0.4c0.2,0,0.4,0.2,0.4,0.4v0.8
								C573.8,55.6,573.7,55.8,573.4,55.8z M573.4,53.4c-0.2,0-0.4-0.2-0.4-0.4v-0.8c0-0.2,0.2-0.4,0.4-0.4c0.2,0,0.4,0.2,0.4,0.4
								V53C573.8,53.2,573.7,53.4,573.4,53.4z"/>
						</g>
						<g>
							<path class="st2" d="M478.6,55.8c-0.2,0-0.4-0.2-0.4-0.4v-0.8c0-0.2,0.2-0.4,0.4-0.4s0.4,0.2,0.4,0.4v0.8
								C479,55.6,478.8,55.8,478.6,55.8z M478.6,53.4c-0.2,0-0.4-0.2-0.4-0.4v-0.8c0-0.2,0.2-0.4,0.4-0.4s0.4,0.2,0.4,0.4V53
								C479,53.2,478.8,53.4,478.6,53.4z"/>
						</g>
						<g>
							<path class="st2" d="M492.1,55.8c-0.2,0-0.4-0.2-0.4-0.4v-0.8c0-0.2,0.2-0.4,0.4-0.4s0.4,0.2,0.4,0.4v0.8
								C492.5,55.6,492.3,55.8,492.1,55.8z M492.1,53.4c-0.2,0-0.4-0.2-0.4-0.4v-0.8c0-0.2,0.2-0.4,0.4-0.4s0.4,0.2,0.4,0.4V53
								C492.5,53.2,492.3,53.4,492.1,53.4z"/>
						</g>
						<g>
							<path class="st2" d="M505.7,55.8c-0.2,0-0.4-0.2-0.4-0.4v-0.8c0-0.2,0.2-0.4,0.4-0.4s0.4,0.2,0.4,0.4v0.8
								C506.1,55.6,505.9,55.8,505.7,55.8z M505.7,53.4c-0.2,0-0.4-0.2-0.4-0.4v-0.8c0-0.2,0.2-0.4,0.4-0.4s0.4,0.2,0.4,0.4V53
								C506.1,53.2,505.9,53.4,505.7,53.4z"/>
						</g>
						<g>
							<path class="st2" d="M519.2,55.8c-0.2,0-0.4-0.2-0.4-0.4v-0.8c0-0.2,0.2-0.4,0.4-0.4c0.2,0,0.4,0.2,0.4,0.4v0.8
								C519.6,55.6,519.4,55.8,519.2,55.8z M519.2,53.4c-0.2,0-0.4-0.2-0.4-0.4v-0.8c0-0.2,0.2-0.4,0.4-0.4c0.2,0,0.4,0.2,0.4,0.4
								V53C519.6,53.2,519.4,53.4,519.2,53.4z"/>
						</g>
					</g>
				</g>
				<g>
					<g>
						<g>
							<path class="st3" d="M525.7,33h-0.6c-1,0-1.8-0.8-1.8-1.8v-1c0-1,0.8-1.8,1.8-1.8h0.6c1,0,1.8,0.8,1.8,1.8v1
								C527.4,32.2,526.6,33,525.7,33z"/>
							<path class="st2" d="M525.7,33.4h-0.6c-1.2,0-2.2-1-2.2-2.2v-1c0-1.2,1-2.2,2.2-2.2h0.6c1.2,0,2.2,1,2.2,2.2v1
								C527.8,32.4,526.9,33.4,525.7,33.4z M525.1,28.9c-0.7,0-1.4,0.6-1.4,1.4v1c0,0.7,0.6,1.4,1.4,1.4h0.6c0.7,0,1.4-0.6,1.4-1.4
								v-1c0-0.7-0.6-1.4-1.4-1.4H525.1z"/>
						</g>
						<g>
							<path class="st3" d="M522.2,36.2v-2.6c0-0.8,0.6-1.4,1.4-1.4h3.5c0.8,0,1.4,0.6,1.4,1.4v2.6l-1.6,1.4h-3.1L522.2,36.2z"/>
							<path class="st2" d="M527,38.1h-3.1c-0.1,0-0.2,0-0.3-0.1l-1.7-1.4c-0.1-0.1-0.1-0.2-0.1-0.3v-2.6c0-1,0.8-1.8,1.8-1.8h3.5
								c1,0,1.8,0.8,1.8,1.8v2.6c0,0.1,0,0.2-0.1,0.3l-1.6,1.4C527.2,38,527.1,38.1,527,38.1z M524.1,37.3h2.8l1.4-1.2v-2.4
								c0-0.6-0.5-1-1-1h-3.5c-0.6,0-1,0.5-1,1v2.4L524.1,37.3z"/>
						</g>
					</g>
					<g>
						<g>
							<rect x="525.8" y="30.4" class="st4" width="1.1" height="1.8"/>
							<path class="st2" d="M526.9,32.6h-1.1c-0.2,0-0.4-0.2-0.4-0.4v-1.8c0-0.2,0.2-0.4,0.4-0.4h1.1c0.2,0,0.4,0.2,0.4,0.4v1.8
								C527.3,32.5,527.1,32.6,526.9,32.6z M526.2,31.8h0.3v-1h-0.3V31.8z"/>
						</g>
						<g>
							<path class="st2" d="M528.2,33.1c-0.1,0-0.2,0-0.3-0.1c-0.1-0.2-0.1-0.4,0-0.6c0.1-0.1,8.5-7.5,8.5-12.1c0-0.8-0.3-1.5-0.9-2
								c-0.5-0.5-1.1-0.6-1.7-0.5c-3,0.9-6.2,9.4-7.2,12.7c-0.1,0.2-0.3,0.3-0.5,0.3c-0.2-0.1-0.3-0.3-0.3-0.5
								c0.1-0.5,3.7-12.1,7.7-13.2c0.9-0.2,1.7,0,2.4,0.6c0.8,0.7,1.2,1.6,1.2,2.6c0,4.9-8.4,12.4-8.8,12.7
								C528.4,33.1,528.3,33.1,528.2,33.1z"/>
						</g>
						<g>
							<path class="st2" d="M528.5,33.5c-0.1,0-0.2,0-0.3-0.1c-0.1-0.2-0.1-0.4,0.1-0.6c0.1-0.1,9.2-7.6,9.3-12.2
								c0-0.8-0.3-1.4-0.8-1.9c-0.5-0.5-1.1-0.6-1.7-0.5c-3,0.9-6.2,9.4-7.2,12.7c-0.1,0.2-0.3,0.3-0.5,0.3
								c-0.2-0.1-0.3-0.3-0.3-0.5c0.1-0.5,3.7-12.1,7.7-13.2c0.9-0.2,1.7,0,2.4,0.6c0.7,0.7,1.1,1.5,1.1,2.5
								c-0.1,4.9-9.2,12.5-9.6,12.8C528.7,33.5,528.6,33.5,528.5,33.5z"/>
						</g>
						<g>
							<polygon class="st4" points="530.5,33.4 528.6,34.5 528.6,33.5 530.5,32.5 							"/>
							<path class="st2" d="M528.6,34.9c-0.1,0-0.1,0-0.2-0.1c-0.1-0.1-0.2-0.2-0.2-0.3v-1c0-0.1,0.1-0.3,0.2-0.3l1.8-1
								c0.1-0.1,0.3-0.1,0.4,0c0.1,0.1,0.2,0.2,0.2,0.3v1c0,0.1-0.1,0.3-0.2,0.3l-1.8,1C528.8,34.9,528.7,34.9,528.6,34.9z
								 M529,33.8L529,33.8l1-0.6L529,33.8z M530.5,33.4L530.5,33.4L530.5,33.4z"/>
						</g>
						<g>
							<polygon class="st4" points="530.5,34.9 528.6,35.9 528.6,35 530.5,33.9 							"/>
							<path class="st2" d="M528.6,36.3c-0.1,0-0.1,0-0.2-0.1c-0.1-0.1-0.2-0.2-0.2-0.3v-1c0-0.1,0.1-0.3,0.2-0.3l1.8-1
								c0.1-0.1,0.3-0.1,0.4,0c0.1,0.1,0.2,0.2,0.2,0.3v1c0,0.1-0.1,0.3-0.2,0.3l-1.8,1C528.8,36.3,528.7,36.3,528.6,36.3z
								 M529,35.2L529,35.2l1-0.6L529,35.2z M530.5,34.9L530.5,34.9L530.5,34.9z"/>
						</g>
						<g>
							<path class="st2" d="M538.1,37.6c-0.1,0-0.2,0-0.3-0.1c-0.2-0.1-0.2-0.4,0-0.6c0.1-0.1,2.1-2.4,0.5-4.4
								c-1.2-1.5-5.9,0-7.7,0.8c-0.2,0.1-0.4,0-0.5-0.2c-0.1-0.2,0-0.4,0.2-0.5c0.7-0.3,6.9-2.8,8.6-0.5c1.6,2,0.3,4.4-0.6,5.4
								C538.3,37.6,538.2,37.6,538.1,37.6z"/>
						</g>
						<g>
							<path class="st2" d="M539.9,37.8c-0.1,0-0.1,0-0.2,0c-0.2-0.1-0.3-0.3-0.2-0.5c0.6-1.2,0.5-2.3-0.3-3.3
								c-1.3-1.7-6.7,0-8.7,0.8c-0.2,0.1-0.4,0-0.5-0.2c-0.1-0.2,0-0.4,0.2-0.5c0.8-0.3,7.7-2.9,9.6-0.5c0.9,1.2,1.1,2.6,0.4,4.1
								C540.2,37.8,540.1,37.8,539.9,37.8z"/>
						</g>
					</g>
					<g>
						<g>
							<rect x="523.9" y="30.4" class="st4" width="1.1" height="1.8"/>
							<path class="st2" d="M525,32.6h-1.1c-0.2,0-0.4-0.2-0.4-0.4v-1.8c0-0.2,0.2-0.4,0.4-0.4h1.1c0.2,0,0.4,0.2,0.4,0.4v1.8
								C525.4,32.5,525.3,32.6,525,32.6z M524.3,31.8h0.3v-1h-0.3V31.8z"/>
						</g>
						<g>
							<path class="st2" d="M522.6,33.1c-0.1,0-0.2,0-0.3-0.1c-0.4-0.3-8.8-7.8-8.8-12.7c0-1.1,0.4-2,1.2-2.6
								c0.8-0.7,1.6-0.9,2.4-0.6c4,1.2,7.6,12.7,7.7,13.2c0.1,0.2-0.1,0.4-0.3,0.5c-0.2,0.1-0.4-0.1-0.5-0.3
								c-1-3.2-4.2-11.8-7.2-12.7c-0.6-0.2-1.1,0-1.7,0.5c-0.6,0.5-0.9,1.2-0.9,2c0,4.6,8.4,12,8.5,12.1c0.2,0.1,0.2,0.4,0,0.6
								C522.9,33.1,522.8,33.1,522.6,33.1z"/>
						</g>
						<g>
							<path class="st2" d="M522.3,33.5c-0.1,0-0.2,0-0.3-0.1c-0.4-0.3-9.5-7.9-9.6-12.8c0-1,0.4-1.9,1.1-2.5
								c0.8-0.7,1.6-0.9,2.4-0.6c4,1.2,7.6,12.7,7.7,13.2c0.1,0.2-0.1,0.4-0.3,0.5c-0.2,0.1-0.4-0.1-0.5-0.3
								c-1-3.2-4.2-11.8-7.2-12.7c-0.6-0.2-1.1,0-1.7,0.5c-0.6,0.5-0.8,1.1-0.8,1.9c0.1,4.5,9.2,12.1,9.3,12.2
								c0.2,0.1,0.2,0.4,0.1,0.6C522.5,33.5,522.4,33.5,522.3,33.5z"/>
						</g>
						<g>
							<polygon class="st4" points="520.3,33.4 522.2,34.5 522.2,33.5 520.3,32.5 							"/>
							<path class="st2" d="M522.2,34.9c-0.1,0-0.1,0-0.2,0l-1.9-1c-0.1-0.1-0.2-0.2-0.2-0.4v-1c0-0.1,0.1-0.3,0.2-0.3
								c0.1-0.1,0.3-0.1,0.4,0l1.9,1c0.1,0.1,0.2,0.2,0.2,0.4v1c0,0.1-0.1,0.3-0.2,0.3C522.4,34.9,522.3,34.9,522.2,34.9z
								 M520.7,33.2l1.1,0.6v-0.1L520.7,33.2L520.7,33.2z"/>
						</g>
						<g>
							<polygon class="st4" points="520.3,34.9 522.2,35.9 522.2,35 520.3,33.9 							"/>
							<path class="st2" d="M522.2,36.3c-0.1,0-0.1,0-0.2,0l-1.9-1c-0.1-0.1-0.2-0.2-0.2-0.4v-1c0-0.1,0.1-0.3,0.2-0.3
								c0.1-0.1,0.3-0.1,0.4,0l1.9,1c0.1,0.1,0.2,0.2,0.2,0.4v1c0,0.1-0.1,0.3-0.2,0.3C522.4,36.3,522.3,36.3,522.2,36.3z
								 M520.7,34.6l1.1,0.6v0L520.7,34.6L520.7,34.6z"/>
						</g>
						<g>
							<path class="st2" d="M512.7,37.6c-0.1,0-0.2,0-0.3-0.1c-0.9-1-2.1-3.4-0.6-5.4c1.7-2.3,7.9,0.2,8.6,0.5
								c0.2,0.1,0.3,0.3,0.2,0.5c-0.1,0.2-0.3,0.3-0.5,0.2c-1.7-0.7-6.5-2.3-7.7-0.8c-1.5,2,0.5,4.3,0.5,4.4c0.1,0.2,0.1,0.4,0,0.6
								C512.9,37.6,512.8,37.6,512.7,37.6z"/>
						</g>
						<g>
							<path class="st2" d="M510.9,37.8c-0.2,0-0.3-0.1-0.4-0.2c-0.7-1.5-0.6-2.9,0.4-4.1c1.9-2.4,8.8,0.2,9.6,0.5
								c0.2,0.1,0.3,0.3,0.2,0.5c-0.1,0.2-0.3,0.3-0.5,0.2c-2-0.8-7.4-2.4-8.7-0.8c-0.8,0.9-0.8,2-0.3,3.3c0.1,0.2,0,0.4-0.2,0.5
								C511,37.8,510.9,37.8,510.9,37.8z"/>
						</g>
					</g>
				</g>
				<g>
					<path class="st2" d="M489.2,34.6c-0.1,0-0.2,0-0.3-0.1c-0.2-0.2-0.2-0.4,0-0.6c0,0,0.1-0.2,0.2-0.5c0.5-1.1,1.6-3.5,2.8-4.7
						c2.7-2.7,13.9-4,17.9-4.3c4.5-0.3,15.3-0.4,15.4-0.4h0.2c0.1,0,10.8,0.1,15.4,0.4c3.5,0.3,15.2,1.5,17.9,4.3
						c1.3,1.2,2.3,3.5,2.8,4.6c0.1,0.3,0.2,0.4,0.2,0.5c0.2,0.2,0.1,0.4,0,0.5c-0.2,0.2-0.4,0.1-0.6,0c-0.1-0.1-0.1-0.2-0.4-0.7
						c-0.5-1-1.5-3.2-2.7-4.3c-2.1-2.1-10.7-3.5-17.4-4.1c-4.6-0.3-15.2-0.4-15.3-0.4h-0.2c-0.1,0-10.8,0.1-15.3,0.4
						c-5.6,0.4-15.2,1.8-17.4,4c-1.1,1.1-2.1,3.4-2.6,4.4c-0.3,0.6-0.3,0.7-0.4,0.8C489.4,34.6,489.3,34.6,489.2,34.6z"/>
				</g>
				<g>
					<g>
						<path class="st2" d="M544.5,3.3c-0.7,0-1.2-0.6-1.2-1.4c0-0.8,0.5-1.4,1.2-1.4c0.7,0,1.2,0.6,1.2,1.4
							C545.7,2.6,545.1,3.3,544.5,3.3z M544.5,1.2c-0.2,0-0.4,0.3-0.4,0.6c0,0.4,0.2,0.6,0.4,0.6c0.2,0,0.4-0.3,0.4-0.6
							C544.9,1.5,544.7,1.2,544.5,1.2z"/>
					</g>
					<g>
						<path class="st2" d="M544.5,3.4C544.5,3.4,544.5,3.4,544.5,3.4c-0.6,0-1.7-0.4-1.7-1.4c0-0.4,0.1-0.8,0.4-1
							c0.5-0.5,1.2-0.4,1.3-0.4c0.2,0,0.4,0.2,0.4,0.4c0,0.2-0.2,0.4-0.4,0.4l0,0c-0.1,0-0.5,0-0.7,0.2c-0.1,0.1-0.2,0.2-0.2,0.4
							c0,0.6,0.9,0.6,0.9,0.6c0.2,0,0.4,0.2,0.4,0.4C544.9,3.2,544.7,3.4,544.5,3.4z"/>
					</g>
					<g>
						<path class="st2" d="M543.2,2.2H542c-0.2,0-0.4-0.2-0.4-0.4s0.2-0.4,0.4-0.4h1.2c0.2,0,0.4,0.2,0.4,0.4S543.4,2.2,543.2,2.2z"
							/>
					</g>
				</g>
				<g>
					<g>
						<path class="st2" d="M506.5,3.3c-0.7,0-1.2-0.6-1.2-1.4c0-0.8,0.5-1.4,1.2-1.4s1.2,0.6,1.2,1.4C507.7,2.6,507.1,3.3,506.5,3.3
							z M506.5,1.2c-0.2,0-0.4,0.3-0.4,0.6c0,0.4,0.2,0.6,0.4,0.6s0.4-0.3,0.4-0.6C506.9,1.5,506.7,1.2,506.5,1.2z"/>
					</g>
					<g>
						<path class="st2" d="M506.5,3.4c-0.2,0-0.4-0.2-0.4-0.4c0-0.2,0.2-0.4,0.4-0.4c0,0,0.9-0.1,0.9-0.6c0-0.2-0.1-0.3-0.2-0.4
							c-0.2-0.2-0.7-0.2-0.7-0.2c-0.2,0-0.4-0.2-0.4-0.4c0-0.2,0.2-0.4,0.4-0.4c0.1,0,0.8,0,1.3,0.4c0.3,0.3,0.4,0.6,0.4,1
							C508.2,3,507.1,3.3,506.5,3.4C506.5,3.4,506.5,3.4,506.5,3.4z"/>
					</g>
					<g>
						<path class="st2" d="M509,2.2h-1.2c-0.2,0-0.4-0.2-0.4-0.4s0.2-0.4,0.4-0.4h1.2c0.2,0,0.4,0.2,0.4,0.4S509.2,2.2,509,2.2z"/>
					</g>
				</g>
			</g>
		</g>
	</g>
</g>
</svg>
